<svg xmlns="http://www.w3.org/2000/svg" xmlns:rdkit="http://www.rdkit.org/xml" xmlns:xlink="http://www.w3.org/1999/xlink" version="1.1" baseProfile="full" xml:space="preserve" width="289px" height="142px" viewBox="0 0 289 142">
<!-- END OF HEADER -->
<rect style="opacity:1.0;fill:#FFFFFF;stroke:none" width="289.0" height="142.0" x="0.0" y="0.0"> </rect>
<ellipse cx="38.1" cy="75.5" rx="22.9" ry="22.9" class="atom-0" style="fill:#FF7F7F;fill-rule:evenodd;stroke:#FF7F7F;stroke-width:1.0px;stroke-linecap:butt;stroke-linejoin:miter;stroke-opacity:1"/>
<ellipse cx="65.2" cy="64.1" rx="22.9" ry="22.9" class="atom-1" style="fill:#FF7F7F;fill-rule:evenodd;stroke:#FF7F7F;stroke-width:1.0px;stroke-linecap:butt;stroke-linejoin:miter;stroke-opacity:1"/>
<ellipse cx="68.9" cy="35.0" rx="22.9" ry="22.9" class="atom-2" style="fill:#FF7F7F;fill-rule:evenodd;stroke:#FF7F7F;stroke-width:1.0px;stroke-linecap:butt;stroke-linejoin:miter;stroke-opacity:1"/>
<ellipse cx="88.6" cy="82.0" rx="22.9" ry="22.9" class="atom-3" style="fill:#FF7F7F;fill-rule:evenodd;stroke:#FF7F7F;stroke-width:1.0px;stroke-linecap:butt;stroke-linejoin:miter;stroke-opacity:1"/>
<ellipse cx="84.9" cy="111.2" rx="22.9" ry="22.9" class="atom-4" style="fill:#FF7F7F;fill-rule:evenodd;stroke:#FF7F7F;stroke-width:1.0px;stroke-linecap:butt;stroke-linejoin:miter;stroke-opacity:1"/>
<ellipse cx="115.8" cy="70.6" rx="22.9" ry="22.9" class="atom-5" style="fill:#FF7F7F;fill-rule:evenodd;stroke:#FF7F7F;stroke-width:1.0px;stroke-linecap:butt;stroke-linejoin:miter;stroke-opacity:1"/>
<ellipse cx="119.5" cy="41.4" rx="22.9" ry="22.9" class="atom-6" style="fill:#FF7F7F;fill-rule:evenodd;stroke:#FF7F7F;stroke-width:1.0px;stroke-linecap:butt;stroke-linejoin:miter;stroke-opacity:1"/>
<ellipse cx="146.7" cy="30.0" rx="22.9" ry="22.9" class="atom-7" style="fill:#FF7F7F;fill-rule:evenodd;stroke:#FF7F7F;stroke-width:1.0px;stroke-linecap:butt;stroke-linejoin:miter;stroke-opacity:1"/>
<ellipse cx="170.1" cy="47.9" rx="22.9" ry="22.9" class="atom-8" style="fill:#FF7F7F;fill-rule:evenodd;stroke:#FF7F7F;stroke-width:1.0px;stroke-linecap:butt;stroke-linejoin:miter;stroke-opacity:1"/>
<ellipse cx="197.2" cy="36.5" rx="12.4" ry="12.4" class="atom-9" style="fill:#7F7FFF;fill-rule:evenodd;stroke:#7F7FFF;stroke-width:1.0px;stroke-linecap:butt;stroke-linejoin:miter;stroke-opacity:1"/>
<ellipse cx="220.7" cy="54.3" rx="2.5" ry="2.5" class="atom-10" style="fill:#FF7F7F;fill-rule:evenodd;stroke:#FF7F7F;stroke-width:1.0px;stroke-linecap:butt;stroke-linejoin:miter;stroke-opacity:1"/>
<ellipse cx="216.9" cy="83.5" rx="2.5" ry="2.5" class="atom-11" style="fill:#FF7F7F;fill-rule:evenodd;stroke:#FF7F7F;stroke-width:1.0px;stroke-linecap:butt;stroke-linejoin:miter;stroke-opacity:1"/>
<ellipse cx="240.4" cy="101.3" rx="2.5" ry="2.5" class="atom-12" style="fill:#FF7F7F;fill-rule:evenodd;stroke:#FF7F7F;stroke-width:1.0px;stroke-linecap:butt;stroke-linejoin:miter;stroke-opacity:1"/>
<ellipse cx="267.5" cy="90.0" rx="2.5" ry="2.5" class="atom-13" style="fill:#FF7F7F;fill-rule:evenodd;stroke:#FF7F7F;stroke-width:1.0px;stroke-linecap:butt;stroke-linejoin:miter;stroke-opacity:1"/>
<ellipse cx="271.2" cy="60.8" rx="2.5" ry="2.5" class="atom-14" style="fill:#FF7F7F;fill-rule:evenodd;stroke:#FF7F7F;stroke-width:1.0px;stroke-linecap:butt;stroke-linejoin:miter;stroke-opacity:1"/>
<ellipse cx="247.8" cy="42.9" rx="2.5" ry="2.5" class="atom-15" style="fill:#FF7F7F;fill-rule:evenodd;stroke:#FF7F7F;stroke-width:1.0px;stroke-linecap:butt;stroke-linejoin:miter;stroke-opacity:1"/>
<ellipse cx="166.4" cy="77.1" rx="22.9" ry="22.9" class="atom-16" style="fill:#FF7F7F;fill-rule:evenodd;stroke:#FF7F7F;stroke-width:1.0px;stroke-linecap:butt;stroke-linejoin:miter;stroke-opacity:1"/>
<ellipse cx="139.2" cy="88.4" rx="22.9" ry="22.9" class="atom-17" style="fill:#FF7F7F;fill-rule:evenodd;stroke:#FF7F7F;stroke-width:1.0px;stroke-linecap:butt;stroke-linejoin:miter;stroke-opacity:1"/>
<path class="bond-0 atom-0 atom-1" d="M 38.1,75.5 L 65.2,64.1" style="fill:none;fill-rule:evenodd;stroke:#000000;stroke-width:2.0px;stroke-linecap:butt;stroke-linejoin:miter;stroke-opacity:1"/>
<path class="bond-1 atom-1 atom-2" d="M 67.2,65.7 L 70.5,40.5" style="fill:none;fill-rule:evenodd;stroke:#000000;stroke-width:2.0px;stroke-linecap:butt;stroke-linejoin:miter;stroke-opacity:1"/>
<path class="bond-1 atom-1 atom-2" d="M 62.9,65.1 L 66.1,40.0" style="fill:none;fill-rule:evenodd;stroke:#000000;stroke-width:2.0px;stroke-linecap:butt;stroke-linejoin:miter;stroke-opacity:1"/>
<path class="bond-2 atom-1 atom-3" d="M 65.2,64.1 L 84.5,78.8" style="fill:none;fill-rule:evenodd;stroke:#000000;stroke-width:2.0px;stroke-linecap:butt;stroke-linejoin:miter;stroke-opacity:1"/>
<path class="bond-3 atom-3 atom-4" d="M 88.0,87.1 L 85.6,106.0" style="fill:none;fill-rule:evenodd;stroke:#000000;stroke-width:2.0px;stroke-linecap:butt;stroke-linejoin:miter;stroke-opacity:1"/>
<path class="bond-4 atom-3 atom-5" d="M 92.8,80.2 L 115.8,70.6" style="fill:none;fill-rule:evenodd;stroke:#000000;stroke-width:2.0px;stroke-linecap:butt;stroke-linejoin:miter;stroke-opacity:1"/>
<path class="bond-5 atom-5 atom-6" d="M 115.8,70.6 L 119.5,41.4" style="fill:none;fill-rule:evenodd;stroke:#000000;stroke-width:2.0px;stroke-linecap:butt;stroke-linejoin:miter;stroke-opacity:1"/>
<path class="bond-5 atom-5 atom-6" d="M 120.5,68.6 L 123.6,44.5" style="fill:none;fill-rule:evenodd;stroke:#000000;stroke-width:2.0px;stroke-linecap:butt;stroke-linejoin:miter;stroke-opacity:1"/>
<path class="bond-6 atom-6 atom-7" d="M 119.5,41.4 L 146.7,30.0" style="fill:none;fill-rule:evenodd;stroke:#000000;stroke-width:2.0px;stroke-linecap:butt;stroke-linejoin:miter;stroke-opacity:1"/>
<path class="bond-7 atom-7 atom-8" d="M 146.7,30.0 L 170.1,47.9" style="fill:none;fill-rule:evenodd;stroke:#000000;stroke-width:2.0px;stroke-linecap:butt;stroke-linejoin:miter;stroke-opacity:1"/>
<path class="bond-7 atom-7 atom-8" d="M 146.0,35.1 L 165.4,49.8" style="fill:none;fill-rule:evenodd;stroke:#000000;stroke-width:2.0px;stroke-linecap:butt;stroke-linejoin:miter;stroke-opacity:1"/>
<path class="bond-8 atom-8 atom-9" d="M 170.1,47.9 L 192.4,38.5" style="fill:none;fill-rule:evenodd;stroke:#000000;stroke-width:2.0px;stroke-linecap:butt;stroke-linejoin:miter;stroke-opacity:1"/>
<path class="bond-9 atom-9 atom-10" d="M 202.0,40.1 L 220.7,54.3" style="fill:none;fill-rule:evenodd;stroke:#000000;stroke-width:2.0px;stroke-linecap:butt;stroke-linejoin:miter;stroke-opacity:1"/>
<path class="bond-10 atom-10 atom-11" d="M 220.7,54.3 L 216.9,83.5" style="fill:none;fill-rule:evenodd;stroke:#000000;stroke-width:2.0px;stroke-linecap:butt;stroke-linejoin:miter;stroke-opacity:1"/>
<path class="bond-10 atom-10 atom-11" d="M 224.7,57.4 L 221.6,81.5" style="fill:none;fill-rule:evenodd;stroke:#000000;stroke-width:2.0px;stroke-linecap:butt;stroke-linejoin:miter;stroke-opacity:1"/>
<path class="bond-11 atom-11 atom-12" d="M 216.9,83.5 L 240.4,101.3" style="fill:none;fill-rule:evenodd;stroke:#000000;stroke-width:2.0px;stroke-linecap:butt;stroke-linejoin:miter;stroke-opacity:1"/>
<path class="bond-12 atom-12 atom-13" d="M 240.4,101.3 L 267.5,90.0" style="fill:none;fill-rule:evenodd;stroke:#000000;stroke-width:2.0px;stroke-linecap:butt;stroke-linejoin:miter;stroke-opacity:1"/>
<path class="bond-12 atom-12 atom-13" d="M 241.0,96.3 L 263.4,86.9" style="fill:none;fill-rule:evenodd;stroke:#000000;stroke-width:2.0px;stroke-linecap:butt;stroke-linejoin:miter;stroke-opacity:1"/>
<path class="bond-13 atom-13 atom-14" d="M 267.5,90.0 L 271.2,60.8" style="fill:none;fill-rule:evenodd;stroke:#000000;stroke-width:2.0px;stroke-linecap:butt;stroke-linejoin:miter;stroke-opacity:1"/>
<path class="bond-14 atom-14 atom-15" d="M 271.2,60.8 L 247.8,42.9" style="fill:none;fill-rule:evenodd;stroke:#000000;stroke-width:2.0px;stroke-linecap:butt;stroke-linejoin:miter;stroke-opacity:1"/>
<path class="bond-14 atom-14 atom-15" d="M 266.5,62.7 L 247.2,48.0" style="fill:none;fill-rule:evenodd;stroke:#000000;stroke-width:2.0px;stroke-linecap:butt;stroke-linejoin:miter;stroke-opacity:1"/>
<path class="bond-15 atom-8 atom-16" d="M 170.1,47.9 L 166.4,77.1" style="fill:none;fill-rule:evenodd;stroke:#000000;stroke-width:2.0px;stroke-linecap:butt;stroke-linejoin:miter;stroke-opacity:1"/>
<path class="bond-16 atom-16 atom-17" d="M 166.4,77.1 L 139.2,88.4" style="fill:none;fill-rule:evenodd;stroke:#000000;stroke-width:2.0px;stroke-linecap:butt;stroke-linejoin:miter;stroke-opacity:1"/>
<path class="bond-16 atom-16 atom-17" d="M 162.3,74.0 L 139.9,83.4" style="fill:none;fill-rule:evenodd;stroke:#000000;stroke-width:2.0px;stroke-linecap:butt;stroke-linejoin:miter;stroke-opacity:1"/>
<path class="bond-17 atom-17 atom-5" d="M 139.2,88.4 L 115.8,70.6" style="fill:none;fill-rule:evenodd;stroke:#000000;stroke-width:2.0px;stroke-linecap:butt;stroke-linejoin:miter;stroke-opacity:1"/>
<path class="bond-18 atom-15 atom-10" d="M 247.8,42.9 L 220.7,54.3" style="fill:none;fill-rule:evenodd;stroke:#000000;stroke-width:2.0px;stroke-linecap:butt;stroke-linejoin:miter;stroke-opacity:1"/>
<path d="M 63.9,64.7 L 65.2,64.1 L 66.2,64.9" style="fill:none;stroke:#000000;stroke-width:2.0px;stroke-linecap:butt;stroke-linejoin:miter;stroke-miterlimit:10;stroke-opacity:1;"/>
<path d="M 119.3,42.9 L 119.5,41.4 L 120.9,40.8" style="fill:none;stroke:#000000;stroke-width:2.0px;stroke-linecap:butt;stroke-linejoin:miter;stroke-miterlimit:10;stroke-opacity:1;"/>
<path d="M 145.3,30.6 L 146.7,30.0 L 147.8,30.9" style="fill:none;stroke:#000000;stroke-width:2.0px;stroke-linecap:butt;stroke-linejoin:miter;stroke-miterlimit:10;stroke-opacity:1;"/>
<path d="M 217.1,82.0 L 216.9,83.5 L 218.1,84.4" style="fill:none;stroke:#000000;stroke-width:2.0px;stroke-linecap:butt;stroke-linejoin:miter;stroke-miterlimit:10;stroke-opacity:1;"/>
<path d="M 239.2,100.4 L 240.4,101.3 L 241.7,100.8" style="fill:none;stroke:#000000;stroke-width:2.0px;stroke-linecap:butt;stroke-linejoin:miter;stroke-miterlimit:10;stroke-opacity:1;"/>
<path d="M 266.1,90.5 L 267.5,90.0 L 267.7,88.5" style="fill:none;stroke:#000000;stroke-width:2.0px;stroke-linecap:butt;stroke-linejoin:miter;stroke-miterlimit:10;stroke-opacity:1;"/>
<path d="M 271.0,62.2 L 271.2,60.8 L 270.1,59.9" style="fill:none;stroke:#000000;stroke-width:2.0px;stroke-linecap:butt;stroke-linejoin:miter;stroke-miterlimit:10;stroke-opacity:1;"/>
<path d="M 249.0,43.8 L 247.8,42.9 L 246.4,43.5" style="fill:none;stroke:#000000;stroke-width:2.0px;stroke-linecap:butt;stroke-linejoin:miter;stroke-miterlimit:10;stroke-opacity:1;"/>
<path d="M 166.5,75.6 L 166.4,77.1 L 165.0,77.6" style="fill:none;stroke:#000000;stroke-width:2.0px;stroke-linecap:butt;stroke-linejoin:miter;stroke-miterlimit:10;stroke-opacity:1;"/>
<path d="M 140.6,87.9 L 139.2,88.4 L 138.0,87.5" style="fill:none;stroke:#000000;stroke-width:2.0px;stroke-linecap:butt;stroke-linejoin:miter;stroke-miterlimit:10;stroke-opacity:1;"/>
<path class="atom-2" d="M 65.1 35.0 Q 65.1 33.0, 66.1 31.9 Q 67.1 30.7, 68.9 30.7 Q 70.8 30.7, 71.8 31.9 Q 72.8 33.0, 72.8 35.0 Q 72.8 37.0, 71.8 38.2 Q 70.8 39.3, 68.9 39.3 Q 67.1 39.3, 66.1 38.2 Q 65.1 37.0, 65.1 35.0 M 68.9 38.4 Q 70.2 38.4, 70.9 37.5 Q 71.6 36.6, 71.6 35.0 Q 71.6 33.3, 70.9 32.5 Q 70.2 31.7, 68.9 31.7 Q 67.7 31.7, 67.0 32.5 Q 66.3 33.3, 66.3 35.0 Q 66.3 36.7, 67.0 37.5 Q 67.7 38.4, 68.9 38.4 " fill="#000000"/>
<path class="atom-3" d="M 86.8 77.8 L 89.5 82.2 Q 89.8 82.7, 90.2 83.4 Q 90.7 84.2, 90.7 84.3 L 90.7 77.8 L 91.8 77.8 L 91.8 86.1 L 90.7 86.1 L 87.7 81.3 Q 87.4 80.7, 87.0 80.1 Q 86.7 79.5, 86.6 79.3 L 86.6 86.1 L 85.5 86.1 L 85.5 77.8 L 86.8 77.8 " fill="#000000"/>
<path class="atom-4" d="M 81.1 111.2 Q 81.1 109.2, 82.1 108.1 Q 83.1 107.0, 84.9 107.0 Q 86.8 107.0, 87.8 108.1 Q 88.7 109.2, 88.7 111.2 Q 88.7 113.2, 87.7 114.4 Q 86.7 115.5, 84.9 115.5 Q 83.1 115.5, 82.1 114.4 Q 81.1 113.2, 81.1 111.2 M 84.9 114.6 Q 86.2 114.6, 86.9 113.7 Q 87.6 112.9, 87.6 111.2 Q 87.6 109.6, 86.9 108.7 Q 86.2 107.9, 84.9 107.9 Q 83.6 107.9, 83.0 108.7 Q 82.3 109.5, 82.3 111.2 Q 82.3 112.9, 83.0 113.7 Q 83.6 114.6, 84.9 114.6 " fill="#000000"/>
<path class="atom-4" d="M 90.0 107.0 L 91.2 107.0 L 91.2 110.6 L 95.4 110.6 L 95.4 107.0 L 96.6 107.0 L 96.6 115.4 L 95.4 115.4 L 95.4 111.5 L 91.2 111.5 L 91.2 115.4 L 90.0 115.4 L 90.0 107.0 " fill="#000000"/>
<path class="atom-9" d="M 193.4 36.5 Q 193.4 34.5, 194.4 33.4 Q 195.4 32.3, 197.2 32.3 Q 199.1 32.3, 200.1 33.4 Q 201.1 34.5, 201.1 36.5 Q 201.1 38.5, 200.1 39.7 Q 199.1 40.8, 197.2 40.8 Q 195.4 40.8, 194.4 39.7 Q 193.4 38.5, 193.4 36.5 M 197.2 39.9 Q 198.5 39.9, 199.2 39.0 Q 199.9 38.2, 199.9 36.5 Q 199.9 34.9, 199.2 34.0 Q 198.5 33.2, 197.2 33.2 Q 196.0 33.2, 195.3 34.0 Q 194.6 34.9, 194.6 36.5 Q 194.6 38.2, 195.3 39.0 Q 196.0 39.9, 197.2 39.9 " fill="#000000"/>
</svg>