<svg xmlns="http://www.w3.org/2000/svg" xmlns:rdkit="http://www.rdkit.org/xml" xmlns:xlink="http://www.w3.org/1999/xlink" version="1.1" baseProfile="full" xml:space="preserve" width="274px" height="104px" viewBox="0 0 274 104">
<!-- END OF HEADER -->
<rect style="opacity:1.0;fill:#FFFFFF;stroke:none" width="274.0" height="104.0" x="0.0" y="0.0"> </rect>
<path class="bond-0 atom-0 atom-1" d="M 18.4,52.8 L 45.6,41.4 L 48.8,49.0 L 21.6,60.4 Z" style="fill:#FF8282;fill-rule:evenodd;fill-opacity:1;stroke:#FF8282;stroke-width:2.0px;stroke-linecap:butt;stroke-linejoin:miter;stroke-miterlimit:10;stroke-opacity:1;"/>
<path class="bond-1 atom-1 atom-2" d="M 43.1,44.7 L 46.8,15.5 L 55.0,16.5 L 51.3,45.8 Z" style="fill:#FF8282;fill-rule:evenodd;fill-opacity:1;stroke:#FF8282;stroke-width:2.0px;stroke-linecap:butt;stroke-linejoin:miter;stroke-miterlimit:10;stroke-opacity:1;"/>
<path class="bond-2 atom-1 atom-3" d="M 49.7,42.0 L 73.1,59.8 L 68.1,66.4 L 44.7,48.5 Z" style="fill:#FF8282;fill-rule:evenodd;fill-opacity:1;stroke:#FF8282;stroke-width:2.0px;stroke-linecap:butt;stroke-linejoin:miter;stroke-miterlimit:10;stroke-opacity:1;"/>
<path class="bond-3 atom-3 atom-4" d="M 74.7,63.6 L 71.0,92.8 L 62.8,91.8 L 66.5,62.6 Z" style="fill:#FF8282;fill-rule:evenodd;fill-opacity:1;stroke:#FF8282;stroke-width:2.0px;stroke-linecap:butt;stroke-linejoin:miter;stroke-miterlimit:10;stroke-opacity:1;"/>
<path class="bond-4 atom-3 atom-5" d="M 69.0,59.3 L 96.2,47.9 L 99.4,55.5 L 72.2,66.9 Z" style="fill:#FF8282;fill-rule:evenodd;fill-opacity:1;stroke:#FF8282;stroke-width:2.0px;stroke-linecap:butt;stroke-linejoin:miter;stroke-miterlimit:10;stroke-opacity:1;"/>
<path class="bond-5 atom-5 atom-6" d="M 93.7,51.2 L 97.4,22.0 L 105.6,23.0 L 101.9,52.2 Z" style="fill:#FF8282;fill-rule:evenodd;fill-opacity:1;stroke:#FF8282;stroke-width:2.0px;stroke-linecap:butt;stroke-linejoin:miter;stroke-miterlimit:10;stroke-opacity:1;"/>
<path class="bond-6 atom-6 atom-7" d="M 99.9,18.7 L 127.1,7.3 L 130.3,14.9 L 103.1,26.3 Z" style="fill:#FF8282;fill-rule:evenodd;fill-opacity:1;stroke:#FF8282;stroke-width:2.0px;stroke-linecap:butt;stroke-linejoin:miter;stroke-miterlimit:10;stroke-opacity:1;"/>
<path class="bond-7 atom-7 atom-8" d="M 131.2,7.8 L 154.6,25.7 L 149.7,32.2 L 126.2,14.4 Z" style="fill:#FF8282;fill-rule:evenodd;fill-opacity:1;stroke:#FF8282;stroke-width:2.0px;stroke-linecap:butt;stroke-linejoin:miter;stroke-miterlimit:10;stroke-opacity:1;"/>
<path class="bond-10 atom-10 atom-11" d="M 206.9,35.9 L 203.1,65.1 L 194.9,64.1 L 198.7,34.9 Z" style="fill:#FFF2F2;fill-rule:evenodd;fill-opacity:1;stroke:#FFF2F2;stroke-width:2.0px;stroke-linecap:butt;stroke-linejoin:miter;stroke-miterlimit:10;stroke-opacity:1;"/>
<path class="bond-11 atom-11 atom-12" d="M 201.5,61.3 L 225.0,79.2 L 220.0,85.7 L 196.5,67.9 Z" style="fill:#FFF2F2;fill-rule:evenodd;fill-opacity:1;stroke:#FFF2F2;stroke-width:2.0px;stroke-linecap:butt;stroke-linejoin:miter;stroke-miterlimit:10;stroke-opacity:1;"/>
<path class="bond-12 atom-12 atom-13" d="M 220.9,78.7 L 248.1,67.3 L 251.3,74.9 L 224.1,86.3 Z" style="fill:#FFF2F2;fill-rule:evenodd;fill-opacity:1;stroke:#FFF2F2;stroke-width:2.0px;stroke-linecap:butt;stroke-linejoin:miter;stroke-miterlimit:10;stroke-opacity:1;"/>
<path class="bond-13 atom-13 atom-14" d="M 245.6,70.5 L 249.3,41.3 L 257.5,42.4 L 253.7,71.6 Z" style="fill:#FFF2F2;fill-rule:evenodd;fill-opacity:1;stroke:#FFF2F2;stroke-width:2.0px;stroke-linecap:butt;stroke-linejoin:miter;stroke-miterlimit:10;stroke-opacity:1;"/>
<path class="bond-14 atom-14 atom-15" d="M 250.9,45.1 L 227.4,27.3 L 232.4,20.7 L 255.9,38.6 Z" style="fill:#FFF2F2;fill-rule:evenodd;fill-opacity:1;stroke:#FFF2F2;stroke-width:2.0px;stroke-linecap:butt;stroke-linejoin:miter;stroke-miterlimit:10;stroke-opacity:1;"/>
<path class="bond-15 atom-8 atom-16" d="M 156.2,29.5 L 152.5,58.7 L 144.3,57.6 L 148.1,28.4 Z" style="fill:#FF8282;fill-rule:evenodd;fill-opacity:1;stroke:#FF8282;stroke-width:2.0px;stroke-linecap:butt;stroke-linejoin:miter;stroke-miterlimit:10;stroke-opacity:1;"/>
<path class="bond-16 atom-16 atom-17" d="M 150.0,62.0 L 122.8,73.3 L 119.7,65.7 L 146.8,54.4 Z" style="fill:#FF8282;fill-rule:evenodd;fill-opacity:1;stroke:#FF8282;stroke-width:2.0px;stroke-linecap:butt;stroke-linejoin:miter;stroke-miterlimit:10;stroke-opacity:1;"/>
<path class="bond-17 atom-17 atom-5" d="M 118.8,72.8 L 95.3,55.0 L 100.3,48.4 L 123.7,66.3 Z" style="fill:#FF8282;fill-rule:evenodd;fill-opacity:1;stroke:#FF8282;stroke-width:2.0px;stroke-linecap:butt;stroke-linejoin:miter;stroke-miterlimit:10;stroke-opacity:1;"/>
<path class="bond-18 atom-15 atom-10" d="M 231.5,27.8 L 204.4,39.2 L 201.2,31.6 L 228.3,20.2 Z" style="fill:#FFF2F2;fill-rule:evenodd;fill-opacity:1;stroke:#FFF2F2;stroke-width:2.0px;stroke-linecap:butt;stroke-linejoin:miter;stroke-miterlimit:10;stroke-opacity:1;"/>
<ellipse cx="20.0" cy="56.6" rx="5.9" ry="5.9" class="atom-0" style="fill:#FF8282;fill-rule:evenodd;stroke:#FF8282;stroke-width:1.0px;stroke-linecap:butt;stroke-linejoin:miter;stroke-opacity:1"/>
<ellipse cx="47.2" cy="45.2" rx="5.9" ry="5.9" class="atom-1" style="fill:#FF8282;fill-rule:evenodd;stroke:#FF8282;stroke-width:1.0px;stroke-linecap:butt;stroke-linejoin:miter;stroke-opacity:1"/>
<ellipse cx="50.9" cy="16.0" rx="5.9" ry="5.9" class="atom-2" style="fill:#FF8282;fill-rule:evenodd;stroke:#FF8282;stroke-width:1.0px;stroke-linecap:butt;stroke-linejoin:miter;stroke-opacity:1"/>
<ellipse cx="70.6" cy="63.1" rx="5.9" ry="5.9" class="atom-3" style="fill:#FF8282;fill-rule:evenodd;stroke:#FF8282;stroke-width:1.0px;stroke-linecap:butt;stroke-linejoin:miter;stroke-opacity:1"/>
<ellipse cx="66.9" cy="92.3" rx="5.9" ry="5.9" class="atom-4" style="fill:#FF8282;fill-rule:evenodd;stroke:#FF8282;stroke-width:1.0px;stroke-linecap:butt;stroke-linejoin:miter;stroke-opacity:1"/>
<ellipse cx="97.8" cy="51.7" rx="5.9" ry="5.9" class="atom-5" style="fill:#FF8282;fill-rule:evenodd;stroke:#FF8282;stroke-width:1.0px;stroke-linecap:butt;stroke-linejoin:miter;stroke-opacity:1"/>
<ellipse cx="101.5" cy="22.5" rx="5.9" ry="5.9" class="atom-6" style="fill:#FF8282;fill-rule:evenodd;stroke:#FF8282;stroke-width:1.0px;stroke-linecap:butt;stroke-linejoin:miter;stroke-opacity:1"/>
<ellipse cx="128.7" cy="11.1" rx="5.9" ry="5.9" class="atom-7" style="fill:#FF8282;fill-rule:evenodd;stroke:#FF8282;stroke-width:1.0px;stroke-linecap:butt;stroke-linejoin:miter;stroke-opacity:1"/>
<ellipse cx="152.2" cy="28.9" rx="5.9" ry="5.9" class="atom-8" style="fill:#FF8282;fill-rule:evenodd;stroke:#FF8282;stroke-width:1.0px;stroke-linecap:butt;stroke-linejoin:miter;stroke-opacity:1"/>
<ellipse cx="179.3" cy="17.5" rx="5.9" ry="5.9" class="atom-9" style="fill:#BCBCFF;fill-rule:evenodd;stroke:#BCBCFF;stroke-width:1.0px;stroke-linecap:butt;stroke-linejoin:miter;stroke-opacity:1"/>
<ellipse cx="202.8" cy="35.4" rx="5.9" ry="5.9" class="atom-10" style="fill:#FFF2F2;fill-rule:evenodd;stroke:#FFF2F2;stroke-width:1.0px;stroke-linecap:butt;stroke-linejoin:miter;stroke-opacity:1"/>
<ellipse cx="199.0" cy="64.6" rx="5.9" ry="5.9" class="atom-11" style="fill:#FFF2F2;fill-rule:evenodd;stroke:#FFF2F2;stroke-width:1.0px;stroke-linecap:butt;stroke-linejoin:miter;stroke-opacity:1"/>
<ellipse cx="222.5" cy="82.5" rx="5.9" ry="5.9" class="atom-12" style="fill:#FFF2F2;fill-rule:evenodd;stroke:#FFF2F2;stroke-width:1.0px;stroke-linecap:butt;stroke-linejoin:miter;stroke-opacity:1"/>
<ellipse cx="249.7" cy="71.1" rx="5.9" ry="5.9" class="atom-13" style="fill:#FFF2F2;fill-rule:evenodd;stroke:#FFF2F2;stroke-width:1.0px;stroke-linecap:butt;stroke-linejoin:miter;stroke-opacity:1"/>
<ellipse cx="253.4" cy="41.8" rx="5.9" ry="5.9" class="atom-14" style="fill:#FFF2F2;fill-rule:evenodd;stroke:#FFF2F2;stroke-width:1.0px;stroke-linecap:butt;stroke-linejoin:miter;stroke-opacity:1"/>
<ellipse cx="229.9" cy="24.0" rx="5.9" ry="5.9" class="atom-15" style="fill:#FFF2F2;fill-rule:evenodd;stroke:#FFF2F2;stroke-width:1.0px;stroke-linecap:butt;stroke-linejoin:miter;stroke-opacity:1"/>
<ellipse cx="148.4" cy="58.2" rx="5.9" ry="5.9" class="atom-16" style="fill:#FF8282;fill-rule:evenodd;stroke:#FF8282;stroke-width:1.0px;stroke-linecap:butt;stroke-linejoin:miter;stroke-opacity:1"/>
<ellipse cx="121.2" cy="69.5" rx="5.9" ry="5.9" class="atom-17" style="fill:#FF8282;fill-rule:evenodd;stroke:#FF8282;stroke-width:1.0px;stroke-linecap:butt;stroke-linejoin:miter;stroke-opacity:1"/>
<path class="bond-0 atom-0 atom-1" d="M 20.0,56.6 L 47.2,45.2" style="fill:none;fill-rule:evenodd;stroke:#000000;stroke-width:2.0px;stroke-linecap:butt;stroke-linejoin:miter;stroke-opacity:1"/>
<path class="bond-1 atom-1 atom-2" d="M 49.2,46.8 L 52.4,21.6" style="fill:none;fill-rule:evenodd;stroke:#000000;stroke-width:2.0px;stroke-linecap:butt;stroke-linejoin:miter;stroke-opacity:1"/>
<path class="bond-1 atom-1 atom-2" d="M 44.8,46.2 L 48.0,21.1" style="fill:none;fill-rule:evenodd;stroke:#000000;stroke-width:2.0px;stroke-linecap:butt;stroke-linejoin:miter;stroke-opacity:1"/>
<path class="bond-2 atom-1 atom-3" d="M 47.2,45.2 L 66.5,59.9" style="fill:none;fill-rule:evenodd;stroke:#000000;stroke-width:2.0px;stroke-linecap:butt;stroke-linejoin:miter;stroke-opacity:1"/>
<path class="bond-3 atom-3 atom-4" d="M 70.0,68.2 L 67.6,87.1" style="fill:none;fill-rule:evenodd;stroke:#000000;stroke-width:2.0px;stroke-linecap:butt;stroke-linejoin:miter;stroke-opacity:1"/>
<path class="bond-4 atom-3 atom-5" d="M 74.8,61.4 L 97.8,51.7" style="fill:none;fill-rule:evenodd;stroke:#000000;stroke-width:2.0px;stroke-linecap:butt;stroke-linejoin:miter;stroke-opacity:1"/>
<path class="bond-5 atom-5 atom-6" d="M 97.8,51.7 L 101.5,22.5" style="fill:none;fill-rule:evenodd;stroke:#000000;stroke-width:2.0px;stroke-linecap:butt;stroke-linejoin:miter;stroke-opacity:1"/>
<path class="bond-5 atom-5 atom-6" d="M 102.5,49.7 L 105.6,25.6" style="fill:none;fill-rule:evenodd;stroke:#000000;stroke-width:2.0px;stroke-linecap:butt;stroke-linejoin:miter;stroke-opacity:1"/>
<path class="bond-6 atom-6 atom-7" d="M 101.5,22.5 L 128.7,11.1" style="fill:none;fill-rule:evenodd;stroke:#000000;stroke-width:2.0px;stroke-linecap:butt;stroke-linejoin:miter;stroke-opacity:1"/>
<path class="bond-7 atom-7 atom-8" d="M 128.7,11.1 L 152.2,28.9" style="fill:none;fill-rule:evenodd;stroke:#000000;stroke-width:2.0px;stroke-linecap:butt;stroke-linejoin:miter;stroke-opacity:1"/>
<path class="bond-7 atom-7 atom-8" d="M 128.1,16.2 L 147.4,30.9" style="fill:none;fill-rule:evenodd;stroke:#000000;stroke-width:2.0px;stroke-linecap:butt;stroke-linejoin:miter;stroke-opacity:1"/>
<path class="bond-8 atom-8 atom-9" d="M 152.2,28.9 L 174.5,19.6" style="fill:none;fill-rule:evenodd;stroke:#000000;stroke-width:2.0px;stroke-linecap:butt;stroke-linejoin:miter;stroke-opacity:1"/>
<path class="bond-9 atom-9 atom-10" d="M 184.1,21.2 L 202.8,35.4" style="fill:none;fill-rule:evenodd;stroke:#000000;stroke-width:2.0px;stroke-linecap:butt;stroke-linejoin:miter;stroke-opacity:1"/>
<path class="bond-10 atom-10 atom-11" d="M 202.8,35.4 L 199.0,64.6" style="fill:none;fill-rule:evenodd;stroke:#000000;stroke-width:2.0px;stroke-linecap:butt;stroke-linejoin:miter;stroke-opacity:1"/>
<path class="bond-10 atom-10 atom-11" d="M 206.8,38.5 L 203.7,62.6" style="fill:none;fill-rule:evenodd;stroke:#000000;stroke-width:2.0px;stroke-linecap:butt;stroke-linejoin:miter;stroke-opacity:1"/>
<path class="bond-11 atom-11 atom-12" d="M 199.0,64.6 L 222.5,82.5" style="fill:none;fill-rule:evenodd;stroke:#000000;stroke-width:2.0px;stroke-linecap:butt;stroke-linejoin:miter;stroke-opacity:1"/>
<path class="bond-12 atom-12 atom-13" d="M 222.5,82.5 L 249.7,71.1" style="fill:none;fill-rule:evenodd;stroke:#000000;stroke-width:2.0px;stroke-linecap:butt;stroke-linejoin:miter;stroke-opacity:1"/>
<path class="bond-12 atom-12 atom-13" d="M 223.1,77.4 L 245.6,68.0" style="fill:none;fill-rule:evenodd;stroke:#000000;stroke-width:2.0px;stroke-linecap:butt;stroke-linejoin:miter;stroke-opacity:1"/>
<path class="bond-13 atom-13 atom-14" d="M 249.7,71.1 L 253.4,41.8" style="fill:none;fill-rule:evenodd;stroke:#000000;stroke-width:2.0px;stroke-linecap:butt;stroke-linejoin:miter;stroke-opacity:1"/>
<path class="bond-14 atom-14 atom-15" d="M 253.4,41.8 L 229.9,24.0" style="fill:none;fill-rule:evenodd;stroke:#000000;stroke-width:2.0px;stroke-linecap:butt;stroke-linejoin:miter;stroke-opacity:1"/>
<path class="bond-14 atom-14 atom-15" d="M 248.7,43.8 L 229.3,29.1" style="fill:none;fill-rule:evenodd;stroke:#000000;stroke-width:2.0px;stroke-linecap:butt;stroke-linejoin:miter;stroke-opacity:1"/>
<path class="bond-15 atom-8 atom-16" d="M 152.2,28.9 L 148.4,58.2" style="fill:none;fill-rule:evenodd;stroke:#000000;stroke-width:2.0px;stroke-linecap:butt;stroke-linejoin:miter;stroke-opacity:1"/>
<path class="bond-16 atom-16 atom-17" d="M 148.4,58.2 L 121.2,69.5" style="fill:none;fill-rule:evenodd;stroke:#000000;stroke-width:2.0px;stroke-linecap:butt;stroke-linejoin:miter;stroke-opacity:1"/>
<path class="bond-16 atom-16 atom-17" d="M 144.4,55.1 L 121.9,64.5" style="fill:none;fill-rule:evenodd;stroke:#000000;stroke-width:2.0px;stroke-linecap:butt;stroke-linejoin:miter;stroke-opacity:1"/>
<path class="bond-17 atom-17 atom-5" d="M 121.2,69.5 L 97.8,51.7" style="fill:none;fill-rule:evenodd;stroke:#000000;stroke-width:2.0px;stroke-linecap:butt;stroke-linejoin:miter;stroke-opacity:1"/>
<path class="bond-18 atom-15 atom-10" d="M 229.9,24.0 L 202.8,35.4" style="fill:none;fill-rule:evenodd;stroke:#000000;stroke-width:2.0px;stroke-linecap:butt;stroke-linejoin:miter;stroke-opacity:1"/>
<path d="M 45.8,45.8 L 47.2,45.2 L 48.2,46.0" style="fill:none;stroke:#000000;stroke-width:2.0px;stroke-linecap:butt;stroke-linejoin:miter;stroke-miterlimit:10;stroke-opacity:1;"/>
<path d="M 101.3,23.9 L 101.5,22.5 L 102.9,21.9" style="fill:none;stroke:#000000;stroke-width:2.0px;stroke-linecap:butt;stroke-linejoin:miter;stroke-miterlimit:10;stroke-opacity:1;"/>
<path d="M 127.3,11.7 L 128.7,11.1 L 129.9,12.0" style="fill:none;stroke:#000000;stroke-width:2.0px;stroke-linecap:butt;stroke-linejoin:miter;stroke-miterlimit:10;stroke-opacity:1;"/>
<path d="M 199.2,63.2 L 199.0,64.6 L 200.2,65.5" style="fill:none;stroke:#000000;stroke-width:2.0px;stroke-linecap:butt;stroke-linejoin:miter;stroke-miterlimit:10;stroke-opacity:1;"/>
<path d="M 221.3,81.6 L 222.5,82.5 L 223.8,81.9" style="fill:none;stroke:#000000;stroke-width:2.0px;stroke-linecap:butt;stroke-linejoin:miter;stroke-miterlimit:10;stroke-opacity:1;"/>
<path d="M 248.3,71.6 L 249.7,71.1 L 249.8,69.6" style="fill:none;stroke:#000000;stroke-width:2.0px;stroke-linecap:butt;stroke-linejoin:miter;stroke-miterlimit:10;stroke-opacity:1;"/>
<path d="M 253.2,43.3 L 253.4,41.8 L 252.2,41.0" style="fill:none;stroke:#000000;stroke-width:2.0px;stroke-linecap:butt;stroke-linejoin:miter;stroke-miterlimit:10;stroke-opacity:1;"/>
<path d="M 231.1,24.9 L 229.9,24.0 L 228.6,24.6" style="fill:none;stroke:#000000;stroke-width:2.0px;stroke-linecap:butt;stroke-linejoin:miter;stroke-miterlimit:10;stroke-opacity:1;"/>
<path d="M 148.6,56.7 L 148.4,58.2 L 147.1,58.7" style="fill:none;stroke:#000000;stroke-width:2.0px;stroke-linecap:butt;stroke-linejoin:miter;stroke-miterlimit:10;stroke-opacity:1;"/>
<path d="M 122.6,69.0 L 121.2,69.5 L 120.1,68.6" style="fill:none;stroke:#000000;stroke-width:2.0px;stroke-linecap:butt;stroke-linejoin:miter;stroke-miterlimit:10;stroke-opacity:1;"/>
<path class="atom-2" d="M 47.1 16.0 Q 47.1 14.0, 48.1 12.9 Q 49.1 11.8, 50.9 11.8 Q 52.8 11.8, 53.8 12.9 Q 54.7 14.0, 54.7 16.0 Q 54.7 18.1, 53.7 19.2 Q 52.7 20.4, 50.9 20.4 Q 49.1 20.4, 48.1 19.2 Q 47.1 18.1, 47.1 16.0 M 50.9 19.4 Q 52.2 19.4, 52.9 18.6 Q 53.6 17.7, 53.6 16.0 Q 53.6 14.4, 52.9 13.6 Q 52.2 12.7, 50.9 12.7 Q 49.6 12.7, 48.9 13.6 Q 48.3 14.4, 48.3 16.0 Q 48.3 17.7, 48.9 18.6 Q 49.6 19.4, 50.9 19.4 " fill="#000000"/>
<path class="atom-3" d="M 68.8 58.9 L 71.5 63.3 Q 71.8 63.8, 72.2 64.6 Q 72.7 65.3, 72.7 65.4 L 72.7 58.9 L 73.8 58.9 L 73.8 67.3 L 72.7 67.3 L 69.7 62.4 Q 69.4 61.9, 69.0 61.2 Q 68.7 60.6, 68.6 60.4 L 68.6 67.3 L 67.5 67.3 L 67.5 58.9 L 68.8 58.9 " fill="#000000"/>
<path class="atom-4" d="M 63.1 92.3 Q 63.1 90.3, 64.1 89.2 Q 65.1 88.1, 66.9 88.1 Q 68.8 88.1, 69.7 89.2 Q 70.7 90.3, 70.7 92.3 Q 70.7 94.4, 69.7 95.5 Q 68.7 96.7, 66.9 96.7 Q 65.1 96.7, 64.1 95.5 Q 63.1 94.4, 63.1 92.3 M 66.9 95.7 Q 68.2 95.7, 68.9 94.9 Q 69.6 94.0, 69.6 92.3 Q 69.6 90.7, 68.9 89.9 Q 68.2 89.0, 66.9 89.0 Q 65.6 89.0, 64.9 89.9 Q 64.3 90.7, 64.3 92.3 Q 64.3 94.0, 64.9 94.9 Q 65.6 95.7, 66.9 95.7 " fill="#000000"/>
<path class="atom-4" d="M 72.0 88.2 L 73.2 88.2 L 73.2 91.7 L 77.4 91.7 L 77.4 88.2 L 78.6 88.2 L 78.6 96.5 L 77.4 96.5 L 77.4 92.7 L 73.2 92.7 L 73.2 96.5 L 72.0 96.5 L 72.0 88.2 " fill="#000000"/>
<path class="atom-9" d="M 175.5 17.6 Q 175.5 15.6, 176.5 14.4 Q 177.5 13.3, 179.3 13.3 Q 181.2 13.3, 182.2 14.4 Q 183.2 15.6, 183.2 17.6 Q 183.2 19.6, 182.2 20.8 Q 181.1 21.9, 179.3 21.9 Q 177.5 21.9, 176.5 20.8 Q 175.5 19.6, 175.5 17.6 M 179.3 21.0 Q 180.6 21.0, 181.3 20.1 Q 182.0 19.2, 182.0 17.6 Q 182.0 15.9, 181.3 15.1 Q 180.6 14.3, 179.3 14.3 Q 178.1 14.3, 177.4 15.1 Q 176.7 15.9, 176.7 17.6 Q 176.7 19.3, 177.4 20.1 Q 178.1 21.0, 179.3 21.0 " fill="#000000"/>
</svg>