<svg xmlns="http://www.w3.org/2000/svg" xmlns:rdkit="http://www.rdkit.org/xml" xmlns:xlink="http://www.w3.org/1999/xlink" version="1.1" baseProfile="full" xml:space="preserve" width="450px" height="750px" viewBox="0 0 450 750">
<!-- END OF HEADER -->
<rect style="opacity:1.0;fill:#FFFFFF;stroke:none" width="150.0" height="150.0" x="0.0" y="0.0"> </rect>
<ellipse cx="75.0" cy="82.7" rx="8.6" ry="8.6" class="atom-1" style="fill:#9999E5;fill-rule:evenodd;stroke:#9999E5;stroke-width:1.0px;stroke-linecap:butt;stroke-linejoin:miter;stroke-opacity:1"/>
<path class="bond-0 atom-0 atom-1" d="M 42.0,101.7 L 75.0,82.7" style="fill:none;fill-rule:evenodd;stroke:#E5E5E5;stroke-width:2.3px;stroke-linecap:butt;stroke-linejoin:miter;stroke-opacity:1"/>
<path class="bond-1 atom-1 atom-2" d="M 78.2,84.5 L 78.2,40.4" style="fill:none;fill-rule:evenodd;stroke:#E5E5E5;stroke-width:2.3px;stroke-linecap:butt;stroke-linejoin:miter;stroke-opacity:1"/>
<path class="bond-1 atom-1 atom-2" d="M 71.8,84.5 L 71.8,40.4" style="fill:none;fill-rule:evenodd;stroke:#E5E5E5;stroke-width:2.3px;stroke-linecap:butt;stroke-linejoin:miter;stroke-opacity:1"/>
<path class="bond-2 atom-1 atom-3" d="M 75.0,82.7 L 108.0,101.7" style="fill:none;fill-rule:evenodd;stroke:#E5E5E5;stroke-width:2.3px;stroke-linecap:butt;stroke-linejoin:miter;stroke-opacity:1"/>
<path d="M 73.4,83.6 L 75.0,82.7 L 76.6,83.6" style="fill:none;stroke:#E5E5E5;stroke-width:2.3px;stroke-linecap:butt;stroke-linejoin:miter;stroke-miterlimit:10;stroke-opacity:1;"/>
<path class="atom-0" d="M 35.4 102.9 L 37.2 101.0 L 34.8 100.5 L 35.2 99.3 L 37.4 100.4 L 37.0 98.0 L 38.3 98.0 L 38.0 100.4 L 40.2 99.4 L 40.6 100.5 L 38.2 101.0 L 39.9 102.8 L 38.8 103.6 L 37.7 101.3 L 36.4 103.6 L 35.4 102.9 " fill="#191919"/>
<path class="atom-2" d="M 72.7 38.2 L 74.5 36.4 L 72.1 35.9 L 72.5 34.7 L 74.7 35.8 L 74.4 33.4 L 75.6 33.4 L 75.3 35.8 L 77.5 34.8 L 77.9 35.9 L 75.5 36.4 L 77.2 38.2 L 76.1 39.0 L 75.0 36.7 L 73.8 39.0 L 72.7 38.2 " fill="#191919"/>
<path class="atom-3" d="M 110.0 102.9 L 111.8 101.0 L 109.4 100.5 L 109.8 99.3 L 112.0 100.4 L 111.7 98.0 L 113.0 98.0 L 112.6 100.4 L 114.8 99.4 L 115.2 100.5 L 112.8 101.0 L 114.5 102.8 L 113.5 103.6 L 112.3 101.3 L 111.1 103.6 L 110.0 102.9 " fill="#191919"/>
<path class="legend" d="M 50.7 136.9 L 53.7 136.9 L 53.7 133.7 L 55.1 133.7 L 55.1 136.9 L 58.2 136.9 L 58.2 138.0 L 55.1 138.0 L 55.1 141.2 L 53.7 141.2 L 53.7 138.0 L 50.7 138.0 L 50.7 136.9 " fill="#000000"/>
<path class="legend" d="M 64.3 142.5 Q 62.2 142.5, 61.2 140.9 Q 60.2 139.4, 60.2 136.7 Q 60.2 133.9, 61.2 132.4 Q 62.2 130.9, 64.3 130.9 Q 66.4 130.9, 67.4 132.4 Q 68.5 133.9, 68.5 136.7 Q 68.5 139.4, 67.4 140.9 Q 66.4 142.5, 64.3 142.5 M 64.3 141.2 Q 65.6 141.2, 66.2 140.1 Q 66.9 138.9, 66.9 136.7 Q 66.9 134.4, 66.2 133.3 Q 65.6 132.2, 64.3 132.2 Q 63.1 132.2, 62.4 133.3 Q 61.8 134.4, 61.8 136.7 Q 61.8 138.9, 62.4 140.1 Q 63.1 141.2, 64.3 141.2 " fill="#000000"/>
<path class="legend" d="M 70.2 140.7 L 71.8 140.7 L 71.8 142.3 L 70.2 142.3 L 70.2 140.7 " fill="#000000"/>
<path class="legend" d="M 74.1 141.1 L 76.6 141.1 L 76.6 132.6 L 73.8 133.4 L 73.5 132.5 L 76.9 130.9 L 78.1 131.1 L 78.1 141.1 L 80.3 141.1 L 80.3 142.3 L 74.1 142.3 L 74.1 141.1 " fill="#000000"/>
<path class="legend" d="M 87.6 132.3 L 81.6 132.3 L 81.6 131.0 L 89.2 131.0 L 89.2 132.1 L 84.6 142.3 L 83.0 142.3 L 87.6 132.3 " fill="#000000"/>
<path class="legend" d="M 96.1 136.3 Q 97.1 136.8, 97.7 137.5 Q 98.3 138.1, 98.3 139.2 Q 98.3 140.2, 97.8 140.9 Q 97.3 141.7, 96.4 142.1 Q 95.5 142.5, 94.3 142.5 Q 92.5 142.5, 91.4 141.6 Q 90.3 140.8, 90.3 139.2 Q 90.3 138.3, 90.8 137.6 Q 91.2 136.9, 92.2 136.4 Q 91.5 136.0, 91.1 135.4 Q 90.7 134.7, 90.7 133.8 Q 90.7 132.5, 91.7 131.7 Q 92.6 130.9, 94.3 130.9 Q 95.9 130.9, 96.9 131.7 Q 97.9 132.5, 97.9 133.8 Q 97.9 134.6, 97.4 135.2 Q 97.0 135.8, 96.1 136.3 M 94.3 132.1 Q 93.3 132.1, 92.8 132.5 Q 92.3 133.0, 92.3 133.8 Q 92.3 134.4, 92.7 134.8 Q 93.0 135.2, 93.5 135.4 Q 94.0 135.6, 95.0 135.9 Q 95.7 135.5, 96.0 134.9 Q 96.3 134.4, 96.3 133.8 Q 96.3 133.0, 95.7 132.5 Q 95.2 132.1, 94.3 132.1 M 94.3 141.3 Q 95.4 141.3, 96.0 140.7 Q 96.7 140.2, 96.7 139.2 Q 96.7 138.6, 96.3 138.2 Q 96.0 137.8, 95.5 137.6 Q 95.0 137.4, 94.1 137.1 L 93.4 136.9 Q 92.6 137.3, 92.2 137.9 Q 91.9 138.5, 91.9 139.2 Q 91.9 140.2, 92.6 140.7 Q 93.2 141.3, 94.3 141.3 " fill="#000000"/>
<ellipse cx="243.7" cy="68.5" rx="8.6" ry="8.6" class="atom-1" style="fill:#9999E5;fill-rule:evenodd;stroke:#9999E5;stroke-width:1.0px;stroke-linecap:butt;stroke-linejoin:miter;stroke-opacity:1"/>
<path class="bond-0 atom-0 atom-1" d="M 204.9,65.9 L 236.6,65.4" style="fill:none;fill-rule:evenodd;stroke:#E5E5E5;stroke-width:2.3px;stroke-linecap:butt;stroke-linejoin:miter;stroke-opacity:1"/>
<path class="bond-0 atom-0 atom-1" d="M 205.0,72.4 L 236.7,71.8" style="fill:none;fill-rule:evenodd;stroke:#E5E5E5;stroke-width:2.3px;stroke-linecap:butt;stroke-linejoin:miter;stroke-opacity:1"/>
<path class="atom-0" d="M 198.3 67.9 L 200.1 66.0 L 197.7 65.6 L 198.1 64.3 L 200.3 65.4 L 200.0 63.0 L 201.2 63.0 L 200.9 65.4 L 203.1 64.4 L 203.5 65.6 L 201.1 66.0 L 202.8 67.8 L 201.7 68.6 L 200.6 66.3 L 199.4 68.6 L 198.3 67.9 " fill="#191919"/>
<path class="atom-1" d="M 238.1 68.5 Q 238.1 65.6, 239.5 64.0 Q 241.0 62.3, 243.7 62.3 Q 246.4 62.3, 247.8 64.0 Q 249.3 65.6, 249.3 68.5 Q 249.3 71.5, 247.8 73.2 Q 246.3 74.9, 243.7 74.9 Q 241.0 74.9, 239.5 73.2 Q 238.1 71.5, 238.1 68.5 M 243.7 73.5 Q 245.5 73.5, 246.5 72.2 Q 247.5 71.0, 247.5 68.5 Q 247.5 66.1, 246.5 64.9 Q 245.5 63.7, 243.7 63.7 Q 241.8 63.7, 240.8 64.9 Q 239.8 66.1, 239.8 68.5 Q 239.8 71.0, 240.8 72.2 Q 241.8 73.5, 243.7 73.5 " fill="#000000"/>
<path class="legend" d="M 199.8 136.9 L 202.9 136.9 L 202.9 133.7 L 204.2 133.7 L 204.2 136.9 L 207.3 136.9 L 207.3 138.0 L 204.2 138.0 L 204.2 141.2 L 202.9 141.2 L 202.9 138.0 L 199.8 138.0 L 199.8 136.9 " fill="#000000"/>
<path class="legend" d="M 213.5 142.5 Q 211.4 142.5, 210.3 140.9 Q 209.3 139.4, 209.3 136.7 Q 209.3 133.9, 210.3 132.4 Q 211.4 130.9, 213.5 130.9 Q 215.6 130.9, 216.6 132.4 Q 217.6 133.9, 217.6 136.7 Q 217.6 139.4, 216.6 140.9 Q 215.5 142.5, 213.5 142.5 M 213.5 141.2 Q 214.7 141.2, 215.4 140.1 Q 216.0 138.9, 216.0 136.7 Q 216.0 134.4, 215.4 133.3 Q 214.7 132.2, 213.5 132.2 Q 212.2 132.2, 211.6 133.3 Q 210.9 134.4, 210.9 136.7 Q 210.9 138.9, 211.6 140.1 Q 212.2 141.2, 213.5 141.2 " fill="#000000"/>
<path class="legend" d="M 219.3 140.7 L 220.9 140.7 L 220.9 142.3 L 219.3 142.3 L 219.3 140.7 " fill="#000000"/>
<path class="legend" d="M 226.8 142.5 Q 224.7 142.5, 223.7 140.9 Q 222.6 139.4, 222.6 136.7 Q 222.6 133.9, 223.7 132.4 Q 224.7 130.9, 226.8 130.9 Q 228.9 130.9, 229.9 132.4 Q 230.9 133.9, 230.9 136.7 Q 230.9 139.4, 229.9 140.9 Q 228.9 142.5, 226.8 142.5 M 226.8 141.2 Q 228.0 141.2, 228.7 140.1 Q 229.3 138.9, 229.3 136.7 Q 229.3 134.4, 228.7 133.3 Q 228.0 132.2, 226.8 132.2 Q 225.6 132.2, 224.9 133.3 Q 224.2 134.4, 224.2 136.7 Q 224.2 138.9, 224.9 140.1 Q 225.6 141.2, 226.8 141.2 " fill="#000000"/>
<path class="legend" d="M 238.4 136.3 Q 239.5 136.8, 240.0 137.5 Q 240.6 138.1, 240.6 139.2 Q 240.6 140.2, 240.1 140.9 Q 239.6 141.7, 238.8 142.1 Q 237.9 142.5, 236.7 142.5 Q 234.8 142.5, 233.7 141.6 Q 232.6 140.8, 232.6 139.2 Q 232.6 138.3, 233.1 137.6 Q 233.6 136.9, 234.6 136.4 Q 233.9 136.0, 233.5 135.4 Q 233.1 134.7, 233.1 133.8 Q 233.1 132.5, 234.0 131.7 Q 235.0 130.9, 236.6 130.9 Q 238.3 130.9, 239.2 131.7 Q 240.2 132.5, 240.2 133.8 Q 240.2 134.6, 239.8 135.2 Q 239.3 135.8, 238.4 136.3 M 236.6 132.1 Q 235.7 132.1, 235.2 132.5 Q 234.7 133.0, 234.7 133.8 Q 234.7 134.4, 235.0 134.8 Q 235.4 135.2, 235.9 135.4 Q 236.4 135.6, 237.3 135.9 Q 238.0 135.5, 238.3 134.9 Q 238.6 134.4, 238.6 133.8 Q 238.6 133.0, 238.1 132.5 Q 237.6 132.1, 236.6 132.1 M 236.7 141.3 Q 237.8 141.3, 238.4 140.7 Q 239.0 140.2, 239.0 139.2 Q 239.0 138.6, 238.7 138.2 Q 238.4 137.8, 237.9 137.6 Q 237.4 137.4, 236.5 137.1 L 235.7 136.9 Q 234.9 137.3, 234.6 137.9 Q 234.2 138.5, 234.2 139.2 Q 234.2 140.2, 234.9 140.7 Q 235.6 141.3, 236.7 141.3 " fill="#000000"/>
<path class="legend" d="M 242.9 141.1 L 245.4 141.1 L 245.4 132.6 L 242.7 133.4 L 242.3 132.5 L 245.8 130.9 L 246.9 131.1 L 246.9 141.1 L 249.2 141.1 L 249.2 142.3 L 242.9 142.3 L 242.9 141.1 " fill="#000000"/>
<ellipse cx="360.9" cy="87.6" rx="8.6" ry="8.6" class="atom-1" style="fill:#9999E5;fill-rule:evenodd;stroke:#9999E5;stroke-width:1.0px;stroke-linecap:butt;stroke-linejoin:miter;stroke-opacity:1"/>
<path class="bond-0 atom-0 atom-1" d="M 347.1,47.7 L 358.3,80.1" style="fill:none;fill-rule:evenodd;stroke:#E5E5E5;stroke-width:2.3px;stroke-linecap:butt;stroke-linejoin:miter;stroke-opacity:1"/>
<path class="bond-1 atom-1 atom-2" d="M 367.9,89.0 L 398.9,95.0" style="fill:none;fill-rule:evenodd;stroke:#E5E5E5;stroke-width:2.3px;stroke-linecap:butt;stroke-linejoin:miter;stroke-opacity:1"/>
<path class="atom-0" d="M 344.5 45.6 L 346.3 43.8 L 343.9 43.3 L 344.3 42.0 L 346.5 43.2 L 346.2 40.8 L 347.4 40.7 L 347.1 43.1 L 349.3 42.1 L 349.7 43.3 L 347.3 43.7 L 349.0 45.6 L 347.9 46.3 L 346.8 44.0 L 345.6 46.3 L 344.5 45.6 " fill="#191919"/>
<path class="atom-1" d="M 355.3 87.7 Q 355.3 84.8, 356.7 83.1 Q 358.2 81.5, 360.9 81.5 Q 363.6 81.5, 365.1 83.1 Q 366.5 84.8, 366.5 87.7 Q 366.5 90.6, 365.0 92.3 Q 363.6 94.0, 360.9 94.0 Q 358.2 94.0, 356.7 92.3 Q 355.3 90.7, 355.3 87.7 M 360.9 92.6 Q 362.8 92.6, 363.8 91.4 Q 364.8 90.1, 364.8 87.7 Q 364.8 85.3, 363.8 84.1 Q 362.8 82.9, 360.9 82.9 Q 359.0 82.9, 358.0 84.1 Q 357.0 85.3, 357.0 87.7 Q 357.0 90.1, 358.0 91.4 Q 359.0 92.6, 360.9 92.6 " fill="#000000"/>
<path class="atom-2" d="M 400.9 94.4 L 402.7 92.6 L 400.3 92.1 L 400.7 90.9 L 402.9 92.0 L 402.6 89.6 L 403.8 89.6 L 403.5 92.0 L 405.7 90.9 L 406.1 92.1 L 403.7 92.6 L 405.4 94.4 L 404.3 95.2 L 403.2 92.9 L 402.0 95.2 L 400.9 94.4 " fill="#191919"/>
<path class="legend" d="M 349.7 136.9 L 352.7 136.9 L 352.7 133.7 L 354.1 133.7 L 354.1 136.9 L 357.2 136.9 L 357.2 138.0 L 354.1 138.0 L 354.1 141.2 L 352.7 141.2 L 352.7 138.0 L 349.7 138.0 L 349.7 136.9 " fill="#000000"/>
<path class="legend" d="M 363.3 142.5 Q 361.2 142.5, 360.2 141.0 Q 359.2 139.4, 359.2 136.7 Q 359.2 134.0, 360.2 132.4 Q 361.2 130.9, 363.3 130.9 Q 365.4 130.9, 366.4 132.4 Q 367.5 134.0, 367.5 136.7 Q 367.5 139.4, 366.4 141.0 Q 365.4 142.5, 363.3 142.5 M 363.3 141.2 Q 364.6 141.2, 365.2 140.1 Q 365.9 138.9, 365.9 136.7 Q 365.9 134.5, 365.2 133.3 Q 364.6 132.2, 363.3 132.2 Q 362.1 132.2, 361.4 133.3 Q 360.8 134.5, 360.8 136.7 Q 360.8 138.9, 361.4 140.1 Q 362.1 141.2, 363.3 141.2 " fill="#000000"/>
<path class="legend" d="M 369.2 140.8 L 370.8 140.8 L 370.8 142.4 L 369.2 142.4 L 369.2 140.8 " fill="#000000"/>
<path class="legend" d="M 376.6 142.5 Q 374.6 142.5, 373.5 141.0 Q 372.5 139.4, 372.5 136.7 Q 372.5 134.0, 373.5 132.4 Q 374.6 130.9, 376.6 130.9 Q 378.7 130.9, 379.8 132.4 Q 380.8 134.0, 380.8 136.7 Q 380.8 139.4, 379.8 141.0 Q 378.7 142.5, 376.6 142.5 M 376.6 141.2 Q 377.9 141.2, 378.5 140.1 Q 379.2 138.9, 379.2 136.7 Q 379.2 134.5, 378.5 133.3 Q 377.9 132.2, 376.6 132.2 Q 375.4 132.2, 374.8 133.3 Q 374.1 134.5, 374.1 136.7 Q 374.1 138.9, 374.8 140.1 Q 375.4 141.2, 376.6 141.2 " fill="#000000"/>
<path class="legend" d="M 382.5 133.2 Q 383.0 132.1, 384.0 131.5 Q 384.9 130.9, 386.3 130.9 Q 388.0 130.9, 389.0 131.8 Q 390.0 132.8, 390.0 134.4 Q 390.0 136.1, 388.7 137.7 Q 387.5 139.2, 384.9 141.1 L 390.1 141.1 L 390.1 142.4 L 382.5 142.4 L 382.5 141.3 Q 384.6 139.8, 385.9 138.7 Q 387.1 137.6, 387.7 136.5 Q 388.4 135.5, 388.4 134.5 Q 388.4 133.4, 387.8 132.8 Q 387.3 132.2, 386.3 132.2 Q 385.4 132.2, 384.8 132.6 Q 384.2 132.9, 383.8 133.7 L 382.5 133.2 " fill="#000000"/>
<path class="legend" d="M 397.7 132.3 L 391.8 132.3 L 391.8 131.0 L 399.3 131.0 L 399.3 132.2 L 394.7 142.4 L 393.2 142.4 L 397.7 132.3 " fill="#000000"/>
<ellipse cx="57.2" cy="244.2" rx="8.6" ry="8.6" class="atom-1" style="fill:#E5E533;fill-rule:evenodd;stroke:#E5E533;stroke-width:1.0px;stroke-linecap:butt;stroke-linejoin:miter;stroke-opacity:1"/>
<ellipse cx="57.2" cy="201.1" rx="8.6" ry="8.6" class="atom-2" style="fill:#9999E5;fill-rule:evenodd;stroke:#9999E5;stroke-width:1.0px;stroke-linecap:butt;stroke-linejoin:miter;stroke-opacity:1"/>
<ellipse cx="94.5" cy="179.6" rx="8.6" ry="8.6" class="atom-3" style="fill:#E5E533;fill-rule:evenodd;stroke:#E5E533;stroke-width:1.0px;stroke-linecap:butt;stroke-linejoin:miter;stroke-opacity:1"/>
<path class="bond-0 atom-0 atom-1" d="M 24.2,263.2 L 57.2,244.2" style="fill:none;fill-rule:evenodd;stroke:#E5E5E5;stroke-width:2.3px;stroke-linecap:butt;stroke-linejoin:miter;stroke-opacity:1"/>
<path class="bond-1 atom-1 atom-2" d="M 57.2,244.2 L 57.2,201.1" style="fill:none;fill-rule:evenodd;stroke:#000000;stroke-width:2.0px;stroke-linecap:butt;stroke-linejoin:miter;stroke-opacity:1"/>
<path class="bond-1 atom-1 atom-2" d="M 63.6,240.5 L 63.6,204.8" style="fill:none;fill-rule:evenodd;stroke:#000000;stroke-width:2.0px;stroke-linecap:butt;stroke-linejoin:miter;stroke-opacity:1;stroke-dasharray:6,4"/>
<path class="bond-2 atom-2 atom-3" d="M 57.2,201.1 L 94.5,179.6" style="fill:none;fill-rule:evenodd;stroke:#000000;stroke-width:2.0px;stroke-linecap:butt;stroke-linejoin:miter;stroke-opacity:1"/>
<path class="bond-2 atom-2 atom-3" d="M 63.6,204.8 L 94.5,187.0" style="fill:none;fill-rule:evenodd;stroke:#000000;stroke-width:2.0px;stroke-linecap:butt;stroke-linejoin:miter;stroke-opacity:1;stroke-dasharray:6,4"/>
<path class="bond-3 atom-3 atom-4" d="M 94.5,179.6 L 127.5,198.6" style="fill:none;fill-rule:evenodd;stroke:#E5E5E5;stroke-width:2.3px;stroke-linecap:butt;stroke-linejoin:miter;stroke-opacity:1"/>
<path class="bond-3 atom-3 atom-4" d="M 94.5,187.0 L 124.2,204.2" style="fill:none;fill-rule:evenodd;stroke:#E5E5E5;stroke-width:2.3px;stroke-linecap:butt;stroke-linejoin:miter;stroke-opacity:1;stroke-dasharray:6,4"/>
<path class="bond-4 atom-5 atom-1" d="M 88.5,266.0 L 53.9,246.1" style="fill:none;fill-rule:evenodd;stroke:#E5E5E5;stroke-width:2.3px;stroke-linecap:butt;stroke-linejoin:miter;stroke-opacity:1"/>
<path class="bond-4 atom-5 atom-1" d="M 91.8,260.4 L 57.2,240.5" style="fill:none;fill-rule:evenodd;stroke:#E5E5E5;stroke-width:2.3px;stroke-linecap:butt;stroke-linejoin:miter;stroke-opacity:1;stroke-dasharray:6,4"/>
<path d="M 57.2,203.3 L 57.2,201.1 L 59.0,200.0" style="fill:none;stroke:#000000;stroke-width:2.0px;stroke-linecap:butt;stroke-linejoin:miter;stroke-miterlimit:10;stroke-opacity:1;"/>
<path d="M 93.5,180.1 L 94.5,179.6 L 95.3,180.1" style="fill:none;stroke:#000000;stroke-width:2.0px;stroke-linecap:butt;stroke-linejoin:miter;stroke-miterlimit:10;stroke-opacity:1;"/>
<path class="atom-0" d="M 17.6 264.4 L 19.3 262.5 L 17.0 262.1 L 17.3 260.8 L 19.5 261.9 L 19.2 259.5 L 20.5 259.5 L 20.1 261.9 L 22.4 260.9 L 22.7 262.1 L 20.3 262.5 L 22.0 264.3 L 21.0 265.1 L 19.8 262.8 L 18.6 265.1 L 17.6 264.4 " fill="#191919"/>
<path class="atom-4" d="M 127.8 202.6 L 129.6 200.7 L 127.3 200.2 L 127.6 199.0 L 129.8 200.1 L 129.5 197.7 L 130.8 197.7 L 130.4 200.1 L 132.7 199.1 L 133.0 200.2 L 130.6 200.7 L 132.3 202.5 L 131.3 203.3 L 130.1 201.0 L 128.9 203.3 L 127.8 202.6 " fill="#191919"/>
<path class="atom-5" d="M 92.2 264.4 L 94.0 262.5 L 91.6 262.1 L 91.9 260.8 L 94.1 261.9 L 93.8 259.5 L 95.1 259.5 L 94.7 261.9 L 97.0 260.9 L 97.3 262.1 L 94.9 262.5 L 96.7 264.3 L 95.6 265.1 L 94.4 262.8 L 93.2 265.1 L 92.2 264.4 " fill="#191919"/>
<path class="legend" d="M 50.2 286.9 L 53.2 286.9 L 53.2 283.7 L 54.6 283.7 L 54.6 286.9 L 57.7 286.9 L 57.7 288.0 L 54.6 288.0 L 54.6 291.2 L 53.2 291.2 L 53.2 288.0 L 50.2 288.0 L 50.2 286.9 " fill="#000000"/>
<path class="legend" d="M 63.8 292.5 Q 61.8 292.5, 60.7 290.9 Q 59.7 289.4, 59.7 286.7 Q 59.7 283.9, 60.7 282.4 Q 61.7 280.9, 63.8 280.9 Q 65.9 280.9, 67.0 282.4 Q 68.0 283.9, 68.0 286.7 Q 68.0 289.4, 66.9 290.9 Q 65.9 292.5, 63.8 292.5 M 63.8 291.2 Q 65.1 291.2, 65.7 290.1 Q 66.4 288.9, 66.4 286.7 Q 66.4 284.4, 65.7 283.3 Q 65.1 282.2, 63.8 282.2 Q 62.6 282.2, 61.9 283.3 Q 61.3 284.4, 61.3 286.7 Q 61.3 288.9, 61.9 290.1 Q 62.6 291.2, 63.8 291.2 " fill="#000000"/>
<path class="legend" d="M 69.7 290.7 L 71.3 290.7 L 71.3 292.3 L 69.7 292.3 L 69.7 290.7 " fill="#000000"/>
<path class="legend" d="M 77.1 292.5 Q 75.1 292.5, 74.0 290.9 Q 73.0 289.4, 73.0 286.7 Q 73.0 283.9, 74.0 282.4 Q 75.0 280.9, 77.1 280.9 Q 79.2 280.9, 80.3 282.4 Q 81.3 283.9, 81.3 286.7 Q 81.3 289.4, 80.2 290.9 Q 79.2 292.5, 77.1 292.5 M 77.1 291.2 Q 78.4 291.2, 79.0 290.1 Q 79.7 288.9, 79.7 286.7 Q 79.7 284.4, 79.0 283.3 Q 78.4 282.2, 77.1 282.2 Q 75.9 282.2, 75.3 283.3 Q 74.6 284.4, 74.6 286.7 Q 74.6 288.9, 75.3 290.1 Q 75.9 291.2, 77.1 291.2 " fill="#000000"/>
<path class="legend" d="M 83.6 291.1 L 86.1 291.1 L 86.1 282.6 L 83.4 283.4 L 83.0 282.5 L 86.5 280.9 L 87.6 281.1 L 87.6 291.1 L 89.8 291.1 L 89.8 292.3 L 83.6 292.3 L 83.6 291.1 " fill="#000000"/>
<path class="legend" d="M 96.6 286.4 Q 97.7 286.7, 98.2 287.4 Q 98.8 288.1, 98.8 289.2 Q 98.8 290.2, 98.3 290.9 Q 97.8 291.7, 96.9 292.1 Q 96.1 292.5, 94.9 292.5 Q 93.7 292.5, 92.8 292.1 Q 91.9 291.7, 91.2 290.8 L 92.1 289.9 Q 92.8 290.6, 93.4 290.9 Q 94.0 291.2, 94.9 291.2 Q 95.9 291.2, 96.6 290.7 Q 97.2 290.1, 97.2 289.2 Q 97.2 288.1, 96.5 287.6 Q 95.9 287.0, 94.5 287.0 L 93.7 287.0 L 93.7 285.9 L 94.4 285.9 Q 95.6 285.9, 96.3 285.3 Q 96.9 284.8, 96.9 283.8 Q 96.9 283.0, 96.4 282.6 Q 95.9 282.2, 94.9 282.2 Q 94.0 282.2, 93.4 282.5 Q 92.8 282.8, 92.4 283.7 L 91.3 283.1 Q 91.7 282.1, 92.6 281.5 Q 93.6 280.9, 94.9 280.9 Q 96.6 280.9, 97.6 281.7 Q 98.5 282.5, 98.5 283.8 Q 98.5 284.7, 98.0 285.3 Q 97.5 286.0, 96.6 286.4 " fill="#000000"/>
<ellipse cx="211.7" cy="221.6" rx="8.6" ry="8.6" class="atom-1" style="fill:#CCCCCC;fill-rule:evenodd;stroke:#CCCCCC;stroke-width:1.0px;stroke-linecap:butt;stroke-linejoin:miter;stroke-opacity:1"/>
<ellipse cx="254.8" cy="220.8" rx="8.6" ry="8.6" class="atom-2" style="fill:#9999E5;fill-rule:evenodd;stroke:#9999E5;stroke-width:1.0px;stroke-linecap:butt;stroke-linejoin:miter;stroke-opacity:1"/>
<path class="bond-0 atom-0 atom-1" d="M 195.0,251.6 L 211.7,221.6" style="fill:none;fill-rule:evenodd;stroke:#E5E5E5;stroke-width:2.3px;stroke-linecap:butt;stroke-linejoin:miter;stroke-opacity:1"/>
<path class="bond-1 atom-1 atom-2" d="M 209.9,224.8 L 247.8,224.2" style="fill:none;fill-rule:evenodd;stroke:#000000;stroke-width:2.0px;stroke-linecap:butt;stroke-linejoin:miter;stroke-opacity:1"/>
<path class="bond-1 atom-1 atom-2" d="M 209.8,218.4 L 247.7,217.7" style="fill:none;fill-rule:evenodd;stroke:#000000;stroke-width:2.0px;stroke-linecap:butt;stroke-linejoin:miter;stroke-opacity:1"/>
<path class="bond-2 atom-1 atom-3" d="M 211.7,221.6 L 190.0,185.4" style="fill:none;fill-rule:evenodd;stroke:#E5E5E5;stroke-width:2.3px;stroke-linecap:butt;stroke-linejoin:miter;stroke-opacity:1"/>
<path d="M 210.8,223.1 L 211.7,221.6 L 210.6,219.7" style="fill:none;stroke:#E5E5E5;stroke-width:2.3px;stroke-linecap:butt;stroke-linejoin:miter;stroke-miterlimit:10;stroke-opacity:1;"/>
<path class="atom-0" d="M 188.5 257.9 L 190.3 256.0 L 187.9 255.5 L 188.2 254.3 L 190.4 255.4 L 190.1 253.0 L 191.4 253.0 L 191.1 255.4 L 193.3 254.4 L 193.7 255.5 L 191.2 256.0 L 193.0 257.8 L 191.9 258.6 L 190.7 256.3 L 189.5 258.6 L 188.5 257.9 " fill="#191919"/>
<path class="atom-2" d="M 249.2 220.9 Q 249.2 217.9, 250.6 216.3 Q 252.0 214.7, 254.8 214.7 Q 257.5 214.7, 258.9 216.3 Q 260.4 217.9, 260.4 220.9 Q 260.4 223.8, 258.9 225.5 Q 257.4 227.2, 254.8 227.2 Q 252.1 227.2, 250.6 225.5 Q 249.2 223.8, 249.2 220.9 M 254.8 225.8 Q 256.6 225.8, 257.6 224.6 Q 258.6 223.3, 258.6 220.9 Q 258.6 218.5, 257.6 217.3 Q 256.6 216.0, 254.8 216.0 Q 252.9 216.0, 251.9 217.2 Q 250.9 218.4, 250.9 220.9 Q 250.9 223.3, 251.9 224.6 Q 252.9 225.8, 254.8 225.8 " fill="#000000"/>
<path class="atom-3" d="M 187.2 183.3 L 189.0 181.4 L 186.6 180.9 L 187.0 179.7 L 189.2 180.8 L 188.9 178.4 L 190.2 178.4 L 189.8 180.8 L 192.0 179.8 L 192.4 180.9 L 190.0 181.4 L 191.7 183.2 L 190.7 184.0 L 189.5 181.7 L 188.3 184.0 L 187.2 183.3 " fill="#191919"/>
<path class="legend" d="M 200.6 286.9 L 203.7 286.9 L 203.7 283.7 L 205.0 283.7 L 205.0 286.9 L 208.1 286.9 L 208.1 288.0 L 205.0 288.0 L 205.0 291.2 L 203.7 291.2 L 203.7 288.0 L 200.6 288.0 L 200.6 286.9 " fill="#000000"/>
<path class="legend" d="M 214.2 292.5 Q 212.2 292.5, 211.1 291.0 Q 210.1 289.4, 210.1 286.7 Q 210.1 284.0, 211.1 282.4 Q 212.1 280.9, 214.2 280.9 Q 216.3 280.9, 217.4 282.4 Q 218.4 284.0, 218.4 286.7 Q 218.4 289.4, 217.3 291.0 Q 216.3 292.5, 214.2 292.5 M 214.2 291.2 Q 215.5 291.2, 216.1 290.1 Q 216.8 288.9, 216.8 286.7 Q 216.8 284.5, 216.1 283.3 Q 215.5 282.2, 214.2 282.2 Q 213.0 282.2, 212.4 283.3 Q 211.7 284.5, 211.7 286.7 Q 211.7 288.9, 212.4 290.1 Q 213.0 291.2, 214.2 291.2 " fill="#000000"/>
<path class="legend" d="M 220.1 290.8 L 221.7 290.8 L 221.7 292.4 L 220.1 292.4 L 220.1 290.8 " fill="#000000"/>
<path class="legend" d="M 227.5 292.5 Q 225.4 292.5, 224.4 291.0 Q 223.4 289.4, 223.4 286.7 Q 223.4 284.0, 224.4 282.4 Q 225.4 280.9, 227.5 280.9 Q 229.6 280.9, 230.6 282.4 Q 231.7 284.0, 231.7 286.7 Q 231.7 289.4, 230.6 291.0 Q 229.6 292.5, 227.5 292.5 M 227.5 291.2 Q 228.8 291.2, 229.4 290.1 Q 230.1 288.9, 230.1 286.7 Q 230.1 284.5, 229.4 283.3 Q 228.8 282.2, 227.5 282.2 Q 226.3 282.2, 225.6 283.3 Q 225.0 284.5, 225.0 286.7 Q 225.0 288.9, 225.6 290.1 Q 226.3 291.2, 227.5 291.2 " fill="#000000"/>
<path class="legend" d="M 234.0 291.1 L 236.5 291.1 L 236.5 282.6 L 233.7 283.5 L 233.4 282.5 L 236.8 281.0 L 238.0 281.2 L 238.0 291.1 L 240.2 291.1 L 240.2 292.4 L 234.0 292.4 L 234.0 291.1 " fill="#000000"/>
<path class="legend" d="M 242.1 291.1 L 244.6 291.1 L 244.6 282.6 L 241.9 283.5 L 241.5 282.5 L 245.0 281.0 L 246.1 281.2 L 246.1 291.1 L 248.4 291.1 L 248.4 292.4 L 242.1 292.4 L 242.1 291.1 " fill="#000000"/>
<ellipse cx="337.7" cy="212.3" rx="8.6" ry="8.6" class="atom-1" style="fill:#E5E533;fill-rule:evenodd;stroke:#E5E533;stroke-width:1.0px;stroke-linecap:butt;stroke-linejoin:miter;stroke-opacity:1"/>
<ellipse cx="375.0" cy="190.8" rx="8.6" ry="8.6" class="atom-2" style="fill:#9999E5;fill-rule:evenodd;stroke:#9999E5;stroke-width:1.0px;stroke-linecap:butt;stroke-linejoin:miter;stroke-opacity:1"/>
<ellipse cx="412.3" cy="212.3" rx="8.6" ry="8.6" class="atom-3" style="fill:#E5E533;fill-rule:evenodd;stroke:#E5E533;stroke-width:1.0px;stroke-linecap:butt;stroke-linejoin:miter;stroke-opacity:1"/>
<path class="bond-0 atom-0 atom-1" d="M 337.7,247.8 L 337.7,212.3" style="fill:none;fill-rule:evenodd;stroke:#E5E5E5;stroke-width:2.3px;stroke-linecap:butt;stroke-linejoin:miter;stroke-opacity:1"/>
<path class="bond-0 atom-0 atom-1" d="M 344.2,247.8 L 344.2,216.1" style="fill:none;fill-rule:evenodd;stroke:#E5E5E5;stroke-width:2.3px;stroke-linecap:butt;stroke-linejoin:miter;stroke-opacity:1;stroke-dasharray:6,4"/>
<path class="bond-1 atom-1 atom-2" d="M 337.7,212.3 L 375.0,190.8" style="fill:none;fill-rule:evenodd;stroke:#000000;stroke-width:2.0px;stroke-linecap:butt;stroke-linejoin:miter;stroke-opacity:1"/>
<path class="bond-1 atom-1 atom-2" d="M 344.2,216.1 L 375.0,198.3" style="fill:none;fill-rule:evenodd;stroke:#000000;stroke-width:2.0px;stroke-linecap:butt;stroke-linejoin:miter;stroke-opacity:1;stroke-dasharray:6,4"/>
<path class="bond-2 atom-2 atom-3" d="M 375.0,190.8 L 412.3,212.3" style="fill:none;fill-rule:evenodd;stroke:#000000;stroke-width:2.0px;stroke-linecap:butt;stroke-linejoin:miter;stroke-opacity:1"/>
<path class="bond-2 atom-2 atom-3" d="M 375.0,198.3 L 405.8,216.1" style="fill:none;fill-rule:evenodd;stroke:#000000;stroke-width:2.0px;stroke-linecap:butt;stroke-linejoin:miter;stroke-opacity:1;stroke-dasharray:6,4"/>
<path class="bond-3 atom-3 atom-4" d="M 412.3,212.3 L 412.3,247.8" style="fill:none;fill-rule:evenodd;stroke:#E5E5E5;stroke-width:2.3px;stroke-linecap:butt;stroke-linejoin:miter;stroke-opacity:1"/>
<path class="bond-3 atom-3 atom-4" d="M 405.8,216.1 L 405.8,247.8" style="fill:none;fill-rule:evenodd;stroke:#E5E5E5;stroke-width:2.3px;stroke-linecap:butt;stroke-linejoin:miter;stroke-opacity:1;stroke-dasharray:6,4"/>
<path d="M 337.7,213.2 L 337.7,212.3 L 338.6,211.8" style="fill:none;stroke:#E5E5E5;stroke-width:2.3px;stroke-linecap:butt;stroke-linejoin:miter;stroke-miterlimit:10;stroke-opacity:1;"/>
<path d="M 373.1,191.9 L 375.0,190.8 L 376.9,191.9" style="fill:none;stroke:#000000;stroke-width:2.0px;stroke-linecap:butt;stroke-linejoin:miter;stroke-miterlimit:10;stroke-opacity:1;"/>
<path d="M 411.4,211.8 L 412.3,212.3 L 412.3,213.2" style="fill:none;stroke:#000000;stroke-width:2.0px;stroke-linecap:butt;stroke-linejoin:miter;stroke-miterlimit:10;stroke-opacity:1;"/>
<path class="atom-0" d="M 338.6 254.1 L 340.4 252.2 L 338.0 251.8 L 338.4 250.5 L 340.6 251.6 L 340.3 249.2 L 341.6 249.2 L 341.2 251.6 L 343.4 250.6 L 343.8 251.8 L 341.4 252.2 L 343.1 254.0 L 342.1 254.8 L 340.9 252.5 L 339.7 254.8 L 338.6 254.1 " fill="#191919"/>
<path class="atom-4" d="M 406.8 254.1 L 408.6 252.2 L 406.2 251.8 L 406.5 250.5 L 408.7 251.6 L 408.4 249.2 L 409.7 249.2 L 409.4 251.6 L 411.6 250.6 L 412.0 251.8 L 409.5 252.2 L 411.3 254.0 L 410.2 254.8 L 409.0 252.5 L 407.8 254.8 L 406.8 254.1 " fill="#191919"/>
<path class="legend" d="M 349.2 286.9 L 352.2 286.9 L 352.2 283.7 L 353.6 283.7 L 353.6 286.9 L 356.7 286.9 L 356.7 288.0 L 353.6 288.0 L 353.6 291.2 L 352.2 291.2 L 352.2 288.0 L 349.2 288.0 L 349.2 286.9 " fill="#000000"/>
<path class="legend" d="M 362.9 292.5 Q 360.8 292.5, 359.7 291.0 Q 358.7 289.4, 358.7 286.7 Q 358.7 284.0, 359.7 282.4 Q 360.8 280.9, 362.9 280.9 Q 365.0 280.9, 366.0 282.4 Q 367.0 284.0, 367.0 286.7 Q 367.0 289.4, 366.0 291.0 Q 364.9 292.5, 362.9 292.5 M 362.9 291.2 Q 364.1 291.2, 364.7 290.1 Q 365.4 288.9, 365.4 286.7 Q 365.4 284.5, 364.7 283.3 Q 364.1 282.2, 362.9 282.2 Q 361.6 282.2, 361.0 283.3 Q 360.3 284.5, 360.3 286.7 Q 360.3 288.9, 361.0 290.1 Q 361.6 291.2, 362.9 291.2 " fill="#000000"/>
<path class="legend" d="M 368.7 290.8 L 370.3 290.8 L 370.3 292.4 L 368.7 292.4 L 368.7 290.8 " fill="#000000"/>
<path class="legend" d="M 376.2 292.5 Q 374.1 292.5, 373.1 291.0 Q 372.1 289.4, 372.1 286.7 Q 372.1 284.0, 373.1 282.4 Q 374.1 280.9, 376.2 280.9 Q 378.3 280.9, 379.3 282.4 Q 380.4 284.0, 380.4 286.7 Q 380.4 289.4, 379.3 291.0 Q 378.3 292.5, 376.2 292.5 M 376.2 291.2 Q 377.4 291.2, 378.1 290.1 Q 378.8 288.9, 378.8 286.7 Q 378.8 284.5, 378.1 283.3 Q 377.4 282.2, 376.2 282.2 Q 375.0 282.2, 374.3 283.3 Q 373.7 284.5, 373.7 286.7 Q 373.7 288.9, 374.3 290.1 Q 375.0 291.2, 376.2 291.2 " fill="#000000"/>
<path class="legend" d="M 386.2 292.5 Q 384.2 292.5, 383.1 291.0 Q 382.1 289.4, 382.1 286.7 Q 382.1 284.0, 383.1 282.4 Q 384.1 280.9, 386.2 280.9 Q 388.3 280.9, 389.4 282.4 Q 390.4 284.0, 390.4 286.7 Q 390.4 289.4, 389.3 291.0 Q 388.3 292.5, 386.2 292.5 M 386.2 291.2 Q 387.5 291.2, 388.1 290.1 Q 388.8 288.9, 388.8 286.7 Q 388.8 284.5, 388.1 283.3 Q 387.5 282.2, 386.2 282.2 Q 385.0 282.2, 384.3 283.3 Q 383.7 284.5, 383.7 286.7 Q 383.7 288.9, 384.3 290.1 Q 385.0 291.2, 386.2 291.2 " fill="#000000"/>
<path class="legend" d="M 396.2 285.3 Q 397.2 285.3, 398.0 285.7 Q 398.8 286.1, 399.3 286.9 Q 399.8 287.7, 399.8 288.8 Q 399.8 290.0, 399.2 290.8 Q 398.6 291.6, 397.7 292.1 Q 396.8 292.5, 395.7 292.5 Q 394.7 292.5, 393.7 292.1 Q 392.8 291.7, 392.1 291.0 L 393.1 290.0 Q 393.6 290.6, 394.3 290.9 Q 395.0 291.2, 395.8 291.2 Q 396.8 291.2, 397.5 290.6 Q 398.2 290.0, 398.2 288.8 Q 398.2 287.6, 397.5 287.1 Q 396.8 286.5, 395.7 286.5 Q 394.7 286.5, 393.6 286.9 L 392.7 286.5 L 393.2 281.0 L 399.1 281.0 L 398.9 282.3 L 394.6 282.3 L 394.2 285.7 Q 395.2 285.3, 396.2 285.3 " fill="#000000"/>
<ellipse cx="75.0" cy="340.8" rx="8.6" ry="8.6" class="atom-2" style="fill:#9999E5;fill-rule:evenodd;stroke:#9999E5;stroke-width:1.0px;stroke-linecap:butt;stroke-linejoin:miter;stroke-opacity:1"/>
<path class="bond-0 atom-0 atom-1" d="M 42.0,402.9 L 75.0,383.9" style="fill:none;fill-rule:evenodd;stroke:#E5E5E5;stroke-width:2.3px;stroke-linecap:butt;stroke-linejoin:miter;stroke-opacity:1"/>
<path class="bond-1 atom-1 atom-2" d="M 78.2,385.8 L 78.2,348.6" style="fill:none;fill-rule:evenodd;stroke:#000000;stroke-width:2.0px;stroke-linecap:butt;stroke-linejoin:miter;stroke-opacity:1"/>
<path class="bond-1 atom-1 atom-2" d="M 71.8,385.8 L 71.8,348.6" style="fill:none;fill-rule:evenodd;stroke:#000000;stroke-width:2.0px;stroke-linecap:butt;stroke-linejoin:miter;stroke-opacity:1"/>
<path class="bond-2 atom-1 atom-3" d="M 75.0,383.9 L 108.0,402.9" style="fill:none;fill-rule:evenodd;stroke:#E5E5E5;stroke-width:2.3px;stroke-linecap:butt;stroke-linejoin:miter;stroke-opacity:1"/>
<path d="M 73.4,384.8 L 75.0,383.9 L 76.6,384.8" style="fill:none;stroke:#E5E5E5;stroke-width:2.3px;stroke-linecap:butt;stroke-linejoin:miter;stroke-miterlimit:10;stroke-opacity:1;"/>
<path class="atom-0" d="M 35.4 404.1 L 37.2 402.2 L 34.8 401.8 L 35.2 400.5 L 37.4 401.6 L 37.0 399.2 L 38.3 399.2 L 38.0 401.6 L 40.2 400.6 L 40.6 401.8 L 38.2 402.2 L 39.9 404.0 L 38.8 404.8 L 37.7 402.5 L 36.4 404.8 L 35.4 404.1 " fill="#191919"/>
<path class="atom-2" d="M 69.4 340.8 Q 69.4 337.9, 70.8 336.3 Q 72.3 334.6, 75.0 334.6 Q 77.7 334.6, 79.2 336.3 Q 80.6 337.9, 80.6 340.8 Q 80.6 343.8, 79.1 345.5 Q 77.7 347.2, 75.0 347.2 Q 72.3 347.2, 70.8 345.5 Q 69.4 343.8, 69.4 340.8 M 75.0 345.8 Q 76.9 345.8, 77.9 344.5 Q 78.9 343.3, 78.9 340.8 Q 78.9 338.5, 77.9 337.2 Q 76.9 336.0, 75.0 336.0 Q 73.1 336.0, 72.1 337.2 Q 71.1 338.4, 71.1 340.8 Q 71.1 343.3, 72.1 344.5 Q 73.1 345.8, 75.0 345.8 " fill="#000000"/>
<path class="atom-3" d="M 110.0 404.1 L 111.8 402.2 L 109.4 401.8 L 109.8 400.5 L 112.0 401.6 L 111.7 399.2 L 113.0 399.2 L 112.6 401.6 L 114.8 400.6 L 115.2 401.8 L 112.8 402.2 L 114.5 404.0 L 113.5 404.8 L 112.3 402.5 L 111.1 404.8 L 110.0 404.1 " fill="#191919"/>
<path class="legend" d="M 48.7 436.9 L 51.7 436.9 L 51.7 433.7 L 53.0 433.7 L 53.0 436.9 L 56.1 436.9 L 56.1 438.0 L 53.0 438.0 L 53.0 441.2 L 51.7 441.2 L 51.7 438.0 L 48.7 438.0 L 48.7 436.9 " fill="#000000"/>
<path class="legend" d="M 62.3 442.5 Q 60.2 442.5, 59.2 441.0 Q 58.2 439.4, 58.2 436.7 Q 58.2 434.0, 59.2 432.4 Q 60.2 430.9, 62.3 430.9 Q 64.4 430.9, 65.4 432.4 Q 66.4 434.0, 66.4 436.7 Q 66.4 439.4, 65.4 441.0 Q 64.4 442.5, 62.3 442.5 M 62.3 441.2 Q 63.5 441.2, 64.2 440.1 Q 64.8 438.9, 64.8 436.7 Q 64.8 434.5, 64.2 433.3 Q 63.5 432.2, 62.3 432.2 Q 61.1 432.2, 60.4 433.3 Q 59.8 434.5, 59.8 436.7 Q 59.8 438.9, 60.4 440.1 Q 61.1 441.2, 62.3 441.2 " fill="#000000"/>
<path class="legend" d="M 68.2 440.8 L 69.8 440.8 L 69.8 442.4 L 68.2 442.4 L 68.2 440.8 " fill="#000000"/>
<path class="legend" d="M 75.7 442.5 Q 73.6 442.5, 72.6 441.0 Q 71.6 439.4, 71.6 436.7 Q 71.6 434.0, 72.6 432.4 Q 73.6 430.9, 75.7 430.9 Q 77.8 430.9, 78.8 432.4 Q 79.8 434.0, 79.8 436.7 Q 79.8 439.4, 78.8 441.0 Q 77.8 442.5, 75.7 442.5 M 75.7 441.2 Q 76.9 441.2, 77.6 440.1 Q 78.2 438.9, 78.2 436.7 Q 78.2 434.5, 77.6 433.3 Q 76.9 432.2, 75.7 432.2 Q 74.5 432.2, 73.8 433.3 Q 73.2 434.5, 73.2 436.7 Q 73.2 438.9, 73.8 440.1 Q 74.5 441.2, 75.7 441.2 " fill="#000000"/>
<path class="legend" d="M 85.7 442.5 Q 83.7 442.5, 82.6 441.0 Q 81.6 439.4, 81.6 436.7 Q 81.6 434.0, 82.6 432.4 Q 83.6 430.9, 85.7 430.9 Q 87.8 430.9, 88.9 432.4 Q 89.9 434.0, 89.9 436.7 Q 89.9 439.4, 88.8 441.0 Q 87.8 442.5, 85.7 442.5 M 85.7 441.2 Q 87.0 441.2, 87.6 440.1 Q 88.3 438.9, 88.3 436.7 Q 88.3 434.5, 87.6 433.3 Q 87.0 432.2, 85.7 432.2 Q 84.5 432.2, 83.8 433.3 Q 83.2 434.5, 83.2 436.7 Q 83.2 438.9, 83.8 440.1 Q 84.5 441.2, 85.7 441.2 " fill="#000000"/>
<path class="legend" d="M 99.0 438.5 L 100.3 438.5 L 100.3 439.8 L 99.0 439.8 L 99.0 442.4 L 97.5 442.4 L 97.5 439.8 L 91.6 439.8 L 91.6 438.8 L 96.6 431.0 L 99.0 431.0 L 99.0 438.5 M 93.5 438.5 L 97.5 438.5 L 97.5 432.1 L 93.5 438.5 " fill="#000000"/>
<ellipse cx="209.2" cy="378.1" rx="8.6" ry="8.6" class="atom-0" style="fill:#9999E5;fill-rule:evenodd;stroke:#9999E5;stroke-width:1.0px;stroke-linecap:butt;stroke-linejoin:miter;stroke-opacity:1"/>
<path class="bond-0 atom-0 atom-1" d="M 209.2,378.1 L 245.1,357.3" style="fill:none;fill-rule:evenodd;stroke:#E5E5E5;stroke-width:2.3px;stroke-linecap:butt;stroke-linejoin:miter;stroke-opacity:1"/>
<path class="atom-1" d="M 244.2 355.2 L 246.0 353.3 L 243.6 352.9 L 244.0 351.6 L 246.2 352.7 L 245.9 350.3 L 247.2 350.3 L 246.8 352.7 L 249.0 351.7 L 249.4 352.9 L 247.0 353.3 L 248.7 355.1 L 247.7 355.9 L 246.5 353.6 L 245.3 355.9 L 244.2 355.2 " fill="#191919"/>
<path class="legend" d="M 200.4 436.6 L 206.2 436.6 L 206.2 437.9 L 200.4 437.9 L 200.4 436.6 " fill="#000000"/>
<path class="legend" d="M 211.9 442.5 Q 209.8 442.5, 208.7 441.0 Q 207.7 439.4, 207.7 436.7 Q 207.7 434.0, 208.7 432.4 Q 209.8 430.9, 211.9 430.9 Q 213.9 430.9, 215.0 432.4 Q 216.0 434.0, 216.0 436.7 Q 216.0 439.4, 215.0 441.0 Q 213.9 442.5, 211.9 442.5 M 211.9 441.2 Q 213.1 441.2, 213.7 440.1 Q 214.4 438.9, 214.4 436.7 Q 214.4 434.5, 213.7 433.3 Q 213.1 432.2, 211.9 432.2 Q 210.6 432.2, 210.0 433.3 Q 209.3 434.5, 209.3 436.7 Q 209.3 438.9, 210.0 440.1 Q 210.6 441.2, 211.9 441.2 " fill="#000000"/>
<path class="legend" d="M 217.7 440.8 L 219.3 440.8 L 219.3 442.4 L 217.7 442.4 L 217.7 440.8 " fill="#000000"/>
<path class="legend" d="M 225.2 442.5 Q 223.1 442.5, 222.0 441.0 Q 221.0 439.4, 221.0 436.7 Q 221.0 434.0, 222.0 432.4 Q 223.1 430.9, 225.2 430.9 Q 227.2 430.9, 228.3 432.4 Q 229.3 434.0, 229.3 436.7 Q 229.3 439.4, 228.3 441.0 Q 227.2 442.5, 225.2 442.5 M 225.2 441.2 Q 226.4 441.2, 227.0 440.1 Q 227.7 438.9, 227.7 436.7 Q 227.7 434.5, 227.0 433.3 Q 226.4 432.2, 225.2 432.2 Q 223.9 432.2, 223.3 433.3 Q 222.6 434.5, 222.6 436.7 Q 222.6 438.9, 223.3 440.1 Q 223.9 441.2, 225.2 441.2 " fill="#000000"/>
<path class="legend" d="M 235.1 442.5 Q 233.1 442.5, 232.0 441.0 Q 231.0 439.4, 231.0 436.7 Q 231.0 434.0, 232.0 432.4 Q 233.1 430.9, 235.1 430.9 Q 237.2 430.9, 238.3 432.4 Q 239.3 434.0, 239.3 436.7 Q 239.3 439.4, 238.3 441.0 Q 237.2 442.5, 235.1 442.5 M 235.1 441.2 Q 236.4 441.2, 237.0 440.1 Q 237.7 438.9, 237.7 436.7 Q 237.7 434.5, 237.0 433.3 Q 236.4 432.2, 235.1 432.2 Q 233.9 432.2, 233.3 433.3 Q 232.6 434.5, 232.6 436.7 Q 232.6 438.9, 233.3 440.1 Q 233.9 441.2, 235.1 441.2 " fill="#000000"/>
<path class="legend" d="M 241.0 433.2 Q 241.4 432.1, 242.4 431.5 Q 243.4 430.9, 244.8 430.9 Q 246.5 430.9, 247.5 431.8 Q 248.4 432.8, 248.4 434.4 Q 248.4 436.1, 247.2 437.7 Q 246.0 439.2, 243.4 441.1 L 248.6 441.1 L 248.6 442.4 L 241.0 442.4 L 241.0 441.3 Q 243.1 439.8, 244.4 438.7 Q 245.6 437.6, 246.2 436.5 Q 246.8 435.5, 246.8 434.5 Q 246.8 433.4, 246.3 432.8 Q 245.7 432.2, 244.8 432.2 Q 243.9 432.2, 243.3 432.6 Q 242.7 432.9, 242.2 433.7 L 241.0 433.2 " fill="#000000"/>
<ellipse cx="353.5" cy="390.0" rx="8.6" ry="8.6" class="atom-1" style="fill:#E5E533;fill-rule:evenodd;stroke:#E5E533;stroke-width:1.0px;stroke-linecap:butt;stroke-linejoin:miter;stroke-opacity:1"/>
<ellipse cx="390.8" cy="411.6" rx="8.6" ry="8.6" class="atom-2" style="fill:#E5E533;fill-rule:evenodd;stroke:#E5E533;stroke-width:1.0px;stroke-linecap:butt;stroke-linejoin:miter;stroke-opacity:1"/>
<ellipse cx="428.1" cy="390.0" rx="8.6" ry="8.6" class="atom-3" style="fill:#9999E5;fill-rule:evenodd;stroke:#9999E5;stroke-width:1.0px;stroke-linecap:butt;stroke-linejoin:miter;stroke-opacity:1"/>
<ellipse cx="428.1" cy="347.0" rx="8.6" ry="8.6" class="atom-4" style="fill:#E5E533;fill-rule:evenodd;stroke:#E5E533;stroke-width:1.0px;stroke-linecap:butt;stroke-linejoin:miter;stroke-opacity:1"/>
<ellipse cx="390.8" cy="325.4" rx="8.6" ry="8.6" class="atom-5" style="fill:#E5E533;fill-rule:evenodd;stroke:#E5E533;stroke-width:1.0px;stroke-linecap:butt;stroke-linejoin:miter;stroke-opacity:1"/>
<path class="bond-0 atom-0 atom-1" d="M 320.5,409.1 L 353.5,390.0" style="fill:none;fill-rule:evenodd;stroke:#E5E5E5;stroke-width:2.3px;stroke-linecap:butt;stroke-linejoin:miter;stroke-opacity:1"/>
<path class="bond-1 atom-1 atom-2" d="M 353.5,390.0 L 390.8,411.6" style="fill:none;fill-rule:evenodd;stroke:#000000;stroke-width:2.0px;stroke-linecap:butt;stroke-linejoin:miter;stroke-opacity:1"/>
<path class="bond-1 atom-1 atom-2" d="M 359.9,386.3 L 390.8,404.1" style="fill:none;fill-rule:evenodd;stroke:#000000;stroke-width:2.0px;stroke-linecap:butt;stroke-linejoin:miter;stroke-opacity:1"/>
<path class="bond-2 atom-2 atom-3" d="M 390.8,411.6 L 428.1,390.0" style="fill:none;fill-rule:evenodd;stroke:#000000;stroke-width:2.0px;stroke-linecap:butt;stroke-linejoin:miter;stroke-opacity:1"/>
<path class="bond-3 atom-3 atom-4" d="M 428.1,390.0 L 428.1,347.0" style="fill:none;fill-rule:evenodd;stroke:#000000;stroke-width:2.0px;stroke-linecap:butt;stroke-linejoin:miter;stroke-opacity:1"/>
<path class="bond-3 atom-3 atom-4" d="M 421.6,386.3 L 421.6,350.7" style="fill:none;fill-rule:evenodd;stroke:#000000;stroke-width:2.0px;stroke-linecap:butt;stroke-linejoin:miter;stroke-opacity:1"/>
<path class="bond-4 atom-4 atom-5" d="M 428.1,347.0 L 390.8,325.4" style="fill:none;fill-rule:evenodd;stroke:#000000;stroke-width:2.0px;stroke-linecap:butt;stroke-linejoin:miter;stroke-opacity:1"/>
<path class="bond-5 atom-5 atom-6" d="M 390.8,325.4 L 357.8,344.5" style="fill:none;fill-rule:evenodd;stroke:#E5E5E5;stroke-width:2.3px;stroke-linecap:butt;stroke-linejoin:miter;stroke-opacity:1"/>
<path class="bond-5 atom-5 atom-6" d="M 390.8,332.9 L 361.0,350.1" style="fill:none;fill-rule:evenodd;stroke:#E5E5E5;stroke-width:2.3px;stroke-linecap:butt;stroke-linejoin:miter;stroke-opacity:1"/>
<path class="bond-6 atom-6 atom-1" d="M 353.5,347.8 L 353.5,390.0" style="fill:none;fill-rule:evenodd;stroke:#E5E5E5;stroke-width:2.3px;stroke-linecap:butt;stroke-linejoin:miter;stroke-opacity:1"/>
<path d="M 388.9,410.5 L 390.8,411.6 L 392.7,410.5" style="fill:none;stroke:#000000;stroke-width:2.0px;stroke-linecap:butt;stroke-linejoin:miter;stroke-miterlimit:10;stroke-opacity:1;"/>
<path d="M 426.2,391.1 L 428.1,390.0 L 428.1,387.9" style="fill:none;stroke:#000000;stroke-width:2.0px;stroke-linecap:butt;stroke-linejoin:miter;stroke-miterlimit:10;stroke-opacity:1;"/>
<path d="M 428.1,349.1 L 428.1,347.0 L 426.2,345.9" style="fill:none;stroke:#000000;stroke-width:2.0px;stroke-linecap:butt;stroke-linejoin:miter;stroke-miterlimit:10;stroke-opacity:1;"/>
<path d="M 391.7,326.0 L 390.8,325.4 L 390.0,325.9" style="fill:none;stroke:#000000;stroke-width:2.0px;stroke-linecap:butt;stroke-linejoin:miter;stroke-miterlimit:10;stroke-opacity:1;"/>
<path class="atom-0" d="M 313.9 410.2 L 315.7 408.4 L 313.3 407.9 L 313.7 406.7 L 315.8 407.8 L 315.5 405.4 L 316.8 405.4 L 316.5 407.8 L 318.7 406.7 L 319.1 407.9 L 316.7 408.4 L 318.4 410.2 L 317.3 411.0 L 316.1 408.7 L 314.9 411.0 L 313.9 410.2 " fill="#191919"/>
<path class="atom-6" d="M 351.2 345.6 L 353.0 343.8 L 350.6 343.3 L 351.0 342.1 L 353.1 343.2 L 352.8 340.8 L 354.1 340.8 L 353.8 343.2 L 356.0 342.1 L 356.4 343.3 L 354.0 343.7 L 355.7 345.6 L 354.6 346.3 L 353.4 344.1 L 352.2 346.3 L 351.2 345.6 " fill="#191919"/>
<path class="legend" d="M 351.2 436.6 L 357.1 436.6 L 357.1 437.9 L 351.2 437.9 L 351.2 436.6 " fill="#000000"/>
<path class="legend" d="M 362.7 442.5 Q 360.6 442.5, 359.5 441.0 Q 358.5 439.4, 358.5 436.7 Q 358.5 434.0, 359.5 432.4 Q 360.6 430.9, 362.7 430.9 Q 364.8 430.9, 365.8 432.4 Q 366.8 434.0, 366.8 436.7 Q 366.8 439.4, 365.8 441.0 Q 364.7 442.5, 362.7 442.5 M 362.7 441.2 Q 363.9 441.2, 364.5 440.1 Q 365.2 438.9, 365.2 436.7 Q 365.2 434.5, 364.5 433.3 Q 363.9 432.2, 362.7 432.2 Q 361.4 432.2, 360.8 433.3 Q 360.1 434.5, 360.1 436.7 Q 360.1 438.9, 360.8 440.1 Q 361.4 441.2, 362.7 441.2 " fill="#000000"/>
<path class="legend" d="M 368.5 440.8 L 370.1 440.8 L 370.1 442.4 L 368.5 442.4 L 368.5 440.8 " fill="#000000"/>
<path class="legend" d="M 375.9 442.5 Q 373.8 442.5, 372.8 441.0 Q 371.8 439.4, 371.8 436.7 Q 371.8 434.0, 372.8 432.4 Q 373.8 430.9, 375.9 430.9 Q 378.0 430.9, 379.0 432.4 Q 380.1 434.0, 380.1 436.7 Q 380.1 439.4, 379.0 441.0 Q 378.0 442.5, 375.9 442.5 M 375.9 441.2 Q 377.1 441.2, 377.8 440.1 Q 378.5 438.9, 378.5 436.7 Q 378.5 434.5, 377.8 433.3 Q 377.1 432.2, 375.9 432.2 Q 374.7 432.2, 374.0 433.3 Q 373.4 434.5, 373.4 436.7 Q 373.4 438.9, 374.0 440.1 Q 374.7 441.2, 375.9 441.2 " fill="#000000"/>
<path class="legend" d="M 381.8 433.2 Q 382.2 432.1, 383.2 431.5 Q 384.2 430.9, 385.5 430.9 Q 387.3 430.9, 388.2 431.8 Q 389.2 432.8, 389.2 434.4 Q 389.2 436.1, 387.9 437.7 Q 386.7 439.2, 384.1 441.1 L 389.4 441.1 L 389.4 442.4 L 381.7 442.4 L 381.7 441.3 Q 383.8 439.8, 385.1 438.7 Q 386.4 437.6, 387.0 436.5 Q 387.6 435.5, 387.6 434.5 Q 387.6 433.4, 387.0 432.8 Q 386.5 432.2, 385.5 432.2 Q 384.6 432.2, 384.0 432.6 Q 383.4 432.9, 383.0 433.7 L 381.8 433.2 " fill="#000000"/>
<path class="legend" d="M 391.6 441.1 L 394.1 441.1 L 394.1 432.6 L 391.3 433.5 L 391.0 432.5 L 394.4 431.0 L 395.6 431.2 L 395.6 441.1 L 397.8 441.1 L 397.8 442.4 L 391.6 442.4 L 391.6 441.1 " fill="#000000"/>
<ellipse cx="75.0" cy="528.1" rx="8.6" ry="8.6" class="atom-1" style="fill:#9999E5;fill-rule:evenodd;stroke:#9999E5;stroke-width:1.0px;stroke-linecap:butt;stroke-linejoin:miter;stroke-opacity:1"/>
<path class="bond-0 atom-0 atom-1" d="M 39.1,507.3 L 75.0,528.1" style="fill:none;fill-rule:evenodd;stroke:#E5E5E5;stroke-width:2.3px;stroke-linecap:butt;stroke-linejoin:miter;stroke-opacity:1"/>
<path class="bond-1 atom-1 atom-2" d="M 75.0,528.1 L 110.9,507.3" style="fill:none;fill-rule:evenodd;stroke:#E5E5E5;stroke-width:2.3px;stroke-linecap:butt;stroke-linejoin:miter;stroke-opacity:1"/>
<path d="M 73.2,527.0 L 75.0,528.1 L 76.8,527.0" style="fill:none;stroke:#E5E5E5;stroke-width:2.3px;stroke-linecap:butt;stroke-linejoin:miter;stroke-miterlimit:10;stroke-opacity:1;"/>
<path class="atom-0" d="M 35.4 505.2 L 37.2 503.3 L 34.8 502.9 L 35.2 501.6 L 37.4 502.7 L 37.0 500.3 L 38.3 500.3 L 38.0 502.7 L 40.2 501.7 L 40.6 502.9 L 38.2 503.3 L 39.9 505.1 L 38.8 505.9 L 37.7 503.6 L 36.4 505.9 L 35.4 505.2 " fill="#191919"/>
<path class="atom-2" d="M 110.0 505.2 L 111.8 503.3 L 109.4 502.9 L 109.8 501.6 L 112.0 502.7 L 111.7 500.3 L 113.0 500.3 L 112.6 502.7 L 114.8 501.7 L 115.2 502.9 L 112.8 503.3 L 114.5 505.1 L 113.5 505.9 L 112.3 503.6 L 111.1 505.9 L 110.0 505.2 " fill="#191919"/>
<path class="legend" d="M 50.7 586.6 L 56.5 586.6 L 56.5 587.9 L 50.7 587.9 L 50.7 586.6 " fill="#000000"/>
<path class="legend" d="M 62.1 592.5 Q 60.1 592.5, 59.0 590.9 Q 58.0 589.4, 58.0 586.7 Q 58.0 583.9, 59.0 582.4 Q 60.0 580.9, 62.1 580.9 Q 64.2 580.9, 65.3 582.4 Q 66.3 583.9, 66.3 586.7 Q 66.3 589.4, 65.2 590.9 Q 64.2 592.5, 62.1 592.5 M 62.1 591.2 Q 63.4 591.2, 64.0 590.1 Q 64.7 588.9, 64.7 586.7 Q 64.7 584.4, 64.0 583.3 Q 63.4 582.2, 62.1 582.2 Q 60.9 582.2, 60.2 583.3 Q 59.6 584.4, 59.6 586.7 Q 59.6 588.9, 60.2 590.1 Q 60.9 591.2, 62.1 591.2 " fill="#000000"/>
<path class="legend" d="M 68.0 590.7 L 69.6 590.7 L 69.6 592.3 L 68.0 592.3 L 68.0 590.7 " fill="#000000"/>
<path class="legend" d="M 75.4 592.5 Q 73.3 592.5, 72.3 590.9 Q 71.3 589.4, 71.3 586.7 Q 71.3 583.9, 72.3 582.4 Q 73.3 580.9, 75.4 580.9 Q 77.5 580.9, 78.5 582.4 Q 79.6 583.9, 79.6 586.7 Q 79.6 589.4, 78.5 590.9 Q 77.5 592.5, 75.4 592.5 M 75.4 591.2 Q 76.7 591.2, 77.3 590.1 Q 78.0 588.9, 78.0 586.7 Q 78.0 584.4, 77.3 583.3 Q 76.7 582.2, 75.4 582.2 Q 74.2 582.2, 73.5 583.3 Q 72.9 584.4, 72.9 586.7 Q 72.9 588.9, 73.5 590.1 Q 74.2 591.2, 75.4 591.2 " fill="#000000"/>
<path class="legend" d="M 86.7 586.4 Q 87.8 586.7, 88.3 587.4 Q 88.9 588.1, 88.9 589.2 Q 88.9 590.2, 88.4 590.9 Q 87.9 591.7, 87.0 592.1 Q 86.2 592.5, 85.0 592.5 Q 83.8 592.5, 82.9 592.1 Q 82.0 591.7, 81.3 590.8 L 82.2 589.9 Q 82.9 590.6, 83.5 590.9 Q 84.1 591.2, 85.0 591.2 Q 86.0 591.2, 86.7 590.7 Q 87.3 590.1, 87.3 589.2 Q 87.3 588.1, 86.6 587.6 Q 86.0 587.0, 84.6 587.0 L 83.8 587.0 L 83.8 585.9 L 84.5 585.9 Q 85.7 585.9, 86.4 585.3 Q 87.0 584.8, 87.0 583.8 Q 87.0 583.0, 86.5 582.6 Q 86.0 582.2, 85.0 582.2 Q 84.1 582.2, 83.5 582.5 Q 82.9 582.8, 82.5 583.7 L 81.4 583.1 Q 81.8 582.1, 82.7 581.5 Q 83.7 580.9, 85.0 580.9 Q 86.7 580.9, 87.7 581.7 Q 88.6 582.5, 88.6 583.8 Q 88.6 584.7, 88.1 585.3 Q 87.6 586.0, 86.7 586.4 " fill="#000000"/>
<path class="legend" d="M 94.3 580.9 Q 96.3 580.9, 97.3 582.3 Q 98.3 583.6, 98.3 586.3 Q 98.3 589.3, 97.1 590.9 Q 95.8 592.5, 93.4 592.5 Q 92.7 592.5, 92.1 592.3 Q 91.5 592.1, 90.9 591.8 L 91.6 590.7 Q 92.4 591.2, 93.4 591.2 Q 95.0 591.2, 95.8 590.2 Q 96.6 589.1, 96.7 587.0 Q 96.1 587.5, 95.4 587.8 Q 94.7 588.1, 93.9 588.1 Q 92.9 588.1, 92.1 587.7 Q 91.3 587.2, 90.9 586.4 Q 90.5 585.7, 90.5 584.7 Q 90.5 583.6, 91.0 582.7 Q 91.5 581.8, 92.3 581.4 Q 93.2 580.9, 94.3 580.9 M 92.1 584.6 Q 92.1 585.7, 92.6 586.2 Q 93.2 586.8, 94.2 586.8 Q 94.9 586.8, 95.6 586.5 Q 96.2 586.2, 96.7 585.8 Q 96.7 583.9, 96.1 583.0 Q 95.5 582.2, 94.3 582.2 Q 93.7 582.2, 93.2 582.5 Q 92.7 582.8, 92.4 583.4 Q 92.1 584.0, 92.1 584.6 " fill="#000000"/>
<ellipse cx="190.6" cy="525.0" rx="8.6" ry="8.6" class="atom-0" style="fill:#9999E5;fill-rule:evenodd;stroke:#9999E5;stroke-width:1.0px;stroke-linecap:butt;stroke-linejoin:miter;stroke-opacity:1"/>
<path class="bond-0 atom-0 atom-1" d="M 190.6,525.0 L 227.9,503.4" style="fill:none;fill-rule:evenodd;stroke:#000000;stroke-width:2.0px;stroke-linecap:butt;stroke-linejoin:miter;stroke-opacity:1"/>
<path class="bond-1 atom-1 atom-2" d="M 227.9,503.4 L 260.9,522.5" style="fill:none;fill-rule:evenodd;stroke:#E5E5E5;stroke-width:2.3px;stroke-linecap:butt;stroke-linejoin:miter;stroke-opacity:1"/>
<path d="M 226.9,504.0 L 227.9,503.4 L 228.7,503.9" style="fill:none;stroke:#000000;stroke-width:2.0px;stroke-linecap:butt;stroke-linejoin:miter;stroke-miterlimit:10;stroke-opacity:1;"/>
<path class="atom-2" d="M 262.9 523.6 L 264.7 521.8 L 262.3 521.3 L 262.6 520.1 L 264.8 521.2 L 264.5 518.8 L 265.8 518.8 L 265.5 521.2 L 267.7 520.1 L 268.1 521.3 L 265.6 521.7 L 267.4 523.6 L 266.3 524.3 L 265.1 522.1 L 263.9 524.3 L 262.9 523.6 " fill="#191919"/>
<path class="legend" d="M 200.6 586.6 L 206.5 586.6 L 206.5 587.9 L 200.6 587.9 L 200.6 586.6 " fill="#000000"/>
<path class="legend" d="M 212.1 592.5 Q 210.0 592.5, 209.0 591.0 Q 208.0 589.4, 208.0 586.7 Q 208.0 584.0, 209.0 582.4 Q 210.0 580.9, 212.1 580.9 Q 214.2 580.9, 215.2 582.4 Q 216.3 584.0, 216.3 586.7 Q 216.3 589.4, 215.2 591.0 Q 214.2 592.5, 212.1 592.5 M 212.1 591.2 Q 213.3 591.2, 214.0 590.1 Q 214.7 588.9, 214.7 586.7 Q 214.7 584.5, 214.0 583.3 Q 213.3 582.2, 212.1 582.2 Q 210.9 582.2, 210.2 583.3 Q 209.6 584.5, 209.6 586.7 Q 209.6 588.9, 210.2 590.1 Q 210.9 591.2, 212.1 591.2 " fill="#000000"/>
<path class="legend" d="M 218.0 590.8 L 219.6 590.8 L 219.6 592.4 L 218.0 592.4 L 218.0 590.8 " fill="#000000"/>
<path class="legend" d="M 225.4 592.5 Q 223.3 592.5, 222.3 591.0 Q 221.3 589.4, 221.3 586.7 Q 221.3 584.0, 222.3 582.4 Q 223.3 580.9, 225.4 580.9 Q 227.5 580.9, 228.5 582.4 Q 229.5 584.0, 229.5 586.7 Q 229.5 589.4, 228.5 591.0 Q 227.5 592.5, 225.4 592.5 M 225.4 591.2 Q 226.6 591.2, 227.3 590.1 Q 227.9 588.9, 227.9 586.7 Q 227.9 584.5, 227.3 583.3 Q 226.6 582.2, 225.4 582.2 Q 224.2 582.2, 223.5 583.3 Q 222.9 584.5, 222.9 586.7 Q 222.9 588.9, 223.5 590.1 Q 224.2 591.2, 225.4 591.2 " fill="#000000"/>
<path class="legend" d="M 235.0 580.9 Q 237.1 580.9, 238.1 582.3 Q 239.1 583.7, 239.1 586.4 Q 239.1 589.4, 237.8 590.9 Q 236.6 592.5, 234.2 592.5 Q 233.5 592.5, 232.9 592.3 Q 232.3 592.2, 231.7 591.8 L 232.3 590.8 Q 233.1 591.2, 234.1 591.2 Q 235.7 591.2, 236.6 590.2 Q 237.4 589.2, 237.5 587.0 Q 236.9 587.6, 236.2 587.8 Q 235.4 588.1, 234.7 588.1 Q 233.7 588.1, 232.9 587.7 Q 232.1 587.3, 231.7 586.5 Q 231.2 585.7, 231.2 584.7 Q 231.2 583.6, 231.7 582.7 Q 232.2 581.9, 233.1 581.4 Q 233.9 580.9, 235.0 580.9 M 232.8 584.7 Q 232.8 585.7, 233.4 586.3 Q 234.0 586.8, 234.9 586.8 Q 235.6 586.8, 236.3 586.6 Q 237.0 586.3, 237.5 585.8 Q 237.4 583.9, 236.8 583.1 Q 236.2 582.2, 235.0 582.2 Q 234.4 582.2, 233.9 582.5 Q 233.4 582.9, 233.1 583.4 Q 232.8 584.0, 232.8 584.7 " fill="#000000"/>
<path class="legend" d="M 246.8 582.3 L 240.8 582.3 L 240.8 581.0 L 248.4 581.0 L 248.4 582.2 L 243.8 592.4 L 242.2 592.4 L 246.8 582.3 " fill="#000000"/>
<ellipse cx="387.2" cy="536.8" rx="8.6" ry="8.6" class="atom-1" style="fill:#9999E5;fill-rule:evenodd;stroke:#9999E5;stroke-width:1.0px;stroke-linecap:butt;stroke-linejoin:miter;stroke-opacity:1"/>
<path class="bond-0 atom-0 atom-1" d="M 408.2,500.3 L 387.2,536.8" style="fill:none;fill-rule:evenodd;stroke:#E5E5E5;stroke-width:2.3px;stroke-linecap:butt;stroke-linejoin:miter;stroke-opacity:1"/>
<path class="bond-0 atom-0 atom-1" d="M 402.6,497.0 L 383.4,530.3" style="fill:none;fill-rule:evenodd;stroke:#E5E5E5;stroke-width:2.3px;stroke-linecap:butt;stroke-linejoin:miter;stroke-opacity:1;stroke-dasharray:6,4"/>
<path class="bond-1 atom-1 atom-2" d="M 387.2,536.8 L 348.4,536.8" style="fill:none;fill-rule:evenodd;stroke:#E5E5E5;stroke-width:2.3px;stroke-linecap:butt;stroke-linejoin:miter;stroke-opacity:1"/>
<path class="bond-1 atom-1 atom-2" d="M 383.4,530.3 L 348.4,530.3" style="fill:none;fill-rule:evenodd;stroke:#E5E5E5;stroke-width:2.3px;stroke-linecap:butt;stroke-linejoin:miter;stroke-opacity:1;stroke-dasharray:6,4"/>
<path d="M 388.2,534.9 L 387.2,536.8 L 385.2,536.8" style="fill:none;stroke:#E5E5E5;stroke-width:2.3px;stroke-linecap:butt;stroke-linejoin:miter;stroke-miterlimit:10;stroke-opacity:1;"/>
<path class="atom-0" d="M 403.6 496.5 L 405.4 494.6 L 403.0 494.2 L 403.4 492.9 L 405.6 494.0 L 405.3 491.6 L 406.6 491.6 L 406.2 494.0 L 408.4 493.0 L 408.8 494.2 L 406.4 494.6 L 408.1 496.5 L 407.1 497.2 L 405.9 494.9 L 404.7 497.2 L 403.6 496.5 " fill="#191919"/>
<path class="atom-2" d="M 341.8 532.2 L 343.6 530.3 L 341.2 529.9 L 341.6 528.6 L 343.8 529.7 L 343.4 527.3 L 344.7 527.3 L 344.4 529.7 L 346.6 528.7 L 347.0 529.9 L 344.6 530.3 L 346.3 532.1 L 345.2 532.9 L 344.0 530.6 L 342.8 532.9 L 341.8 532.2 " fill="#191919"/>
<path class="legend" d="M 352.3 586.6 L 358.2 586.6 L 358.2 587.9 L 352.3 587.9 L 352.3 586.6 " fill="#000000"/>
<path class="legend" d="M 363.7 592.5 Q 361.7 592.5, 360.6 591.0 Q 359.6 589.4, 359.6 586.7 Q 359.6 584.0, 360.6 582.4 Q 361.7 580.9, 363.7 580.9 Q 365.8 580.9, 366.9 582.4 Q 367.9 584.0, 367.9 586.7 Q 367.9 589.4, 366.9 591.0 Q 365.8 592.5, 363.7 592.5 M 363.7 591.2 Q 365.0 591.2, 365.6 590.1 Q 366.3 588.9, 366.3 586.7 Q 366.3 584.5, 365.6 583.3 Q 365.0 582.2, 363.7 582.2 Q 362.5 582.2, 361.9 583.3 Q 361.2 584.5, 361.2 586.7 Q 361.2 588.9, 361.9 590.1 Q 362.5 591.2, 363.7 591.2 " fill="#000000"/>
<path class="legend" d="M 369.6 590.8 L 371.2 590.8 L 371.2 592.4 L 369.6 592.4 L 369.6 590.8 " fill="#000000"/>
<path class="legend" d="M 373.4 591.1 L 375.9 591.1 L 375.9 582.6 L 373.2 583.5 L 372.8 582.5 L 376.3 581.0 L 377.4 581.2 L 377.4 591.1 L 379.6 591.1 L 379.6 592.4 L 373.4 592.4 L 373.4 591.1 " fill="#000000"/>
<path class="legend" d="M 381.6 591.1 L 384.0 591.1 L 384.0 582.6 L 381.3 583.5 L 380.9 582.5 L 384.4 581.0 L 385.5 581.2 L 385.5 591.1 L 387.8 591.1 L 387.8 592.4 L 381.6 592.4 L 381.6 591.1 " fill="#000000"/>
<path class="legend" d="M 389.1 583.2 Q 389.5 582.1, 390.5 581.5 Q 391.5 580.9, 392.9 580.9 Q 394.6 580.9, 395.5 581.8 Q 396.5 582.8, 396.5 584.4 Q 396.5 586.1, 395.2 587.7 Q 394.0 589.2, 391.5 591.1 L 396.7 591.1 L 396.7 592.4 L 389.1 592.4 L 389.1 591.3 Q 391.2 589.8, 392.4 588.7 Q 393.7 587.6, 394.3 586.5 Q 394.9 585.5, 394.9 584.5 Q 394.9 583.4, 394.3 582.8 Q 393.8 582.2, 392.9 582.2 Q 391.9 582.2, 391.3 582.6 Q 390.7 582.9, 390.3 583.7 L 389.1 583.2 " fill="#000000"/>
<ellipse cx="96.5" cy="653.3" rx="8.6" ry="8.6" class="atom-1" style="fill:#E5E533;fill-rule:evenodd;stroke:#E5E533;stroke-width:1.0px;stroke-linecap:butt;stroke-linejoin:miter;stroke-opacity:1"/>
<ellipse cx="75.0" cy="690.6" rx="8.6" ry="8.6" class="atom-2" style="fill:#9999E5;fill-rule:evenodd;stroke:#9999E5;stroke-width:1.0px;stroke-linecap:butt;stroke-linejoin:miter;stroke-opacity:1"/>
<ellipse cx="31.9" cy="690.6" rx="8.6" ry="8.6" class="atom-3" style="fill:#E5E533;fill-rule:evenodd;stroke:#E5E533;stroke-width:1.0px;stroke-linecap:butt;stroke-linejoin:miter;stroke-opacity:1"/>
<path class="bond-0 atom-0 atom-1" d="M 135.3,653.3 L 96.5,653.3" style="fill:none;fill-rule:evenodd;stroke:#E5E5E5;stroke-width:2.3px;stroke-linecap:butt;stroke-linejoin:miter;stroke-opacity:1"/>
<path class="bond-1 atom-1 atom-2" d="M 96.5,653.3 L 75.0,690.6" style="fill:none;fill-rule:evenodd;stroke:#000000;stroke-width:2.0px;stroke-linecap:butt;stroke-linejoin:miter;stroke-opacity:1"/>
<path class="bond-1 atom-1 atom-2" d="M 89.1,653.3 L 71.3,684.1" style="fill:none;fill-rule:evenodd;stroke:#000000;stroke-width:2.0px;stroke-linecap:butt;stroke-linejoin:miter;stroke-opacity:1;stroke-dasharray:6,4"/>
<path class="bond-2 atom-2 atom-3" d="M 75.0,690.6 L 31.9,690.6" style="fill:none;fill-rule:evenodd;stroke:#000000;stroke-width:2.0px;stroke-linecap:butt;stroke-linejoin:miter;stroke-opacity:1"/>
<path class="bond-2 atom-2 atom-3" d="M 71.3,684.1 L 35.7,684.1" style="fill:none;fill-rule:evenodd;stroke:#000000;stroke-width:2.0px;stroke-linecap:butt;stroke-linejoin:miter;stroke-opacity:1;stroke-dasharray:6,4"/>
<path class="bond-3 atom-3 atom-4" d="M 31.9,690.6 L 14.7,720.4" style="fill:none;fill-rule:evenodd;stroke:#E5E5E5;stroke-width:2.3px;stroke-linecap:butt;stroke-linejoin:miter;stroke-opacity:1"/>
<path class="bond-4 atom-3 atom-5" d="M 35.7,690.6 L 13.6,652.4" style="fill:none;fill-rule:evenodd;stroke:#E5E5E5;stroke-width:2.3px;stroke-linecap:butt;stroke-linejoin:miter;stroke-opacity:1"/>
<path class="bond-4 atom-3 atom-5" d="M 30.1,693.8 L 8.1,655.7" style="fill:none;fill-rule:evenodd;stroke:#E5E5E5;stroke-width:2.3px;stroke-linecap:butt;stroke-linejoin:miter;stroke-opacity:1;stroke-dasharray:6,4"/>
<path class="bond-5 atom-6 atom-1" d="M 78.3,615.1 L 100.3,653.3" style="fill:none;fill-rule:evenodd;stroke:#E5E5E5;stroke-width:2.3px;stroke-linecap:butt;stroke-linejoin:miter;stroke-opacity:1"/>
<path class="bond-5 atom-6 atom-1" d="M 72.7,618.4 L 94.7,656.5" style="fill:none;fill-rule:evenodd;stroke:#E5E5E5;stroke-width:2.3px;stroke-linecap:butt;stroke-linejoin:miter;stroke-opacity:1;stroke-dasharray:6,4"/>
<path d="M 76.1,688.7 L 75.0,690.6 L 72.8,690.6" style="fill:none;stroke:#000000;stroke-width:2.0px;stroke-linecap:butt;stroke-linejoin:miter;stroke-miterlimit:10;stroke-opacity:1;"/>
<path class="atom-0" d="M 137.3 651.9 L 139.1 650.1 L 136.7 649.6 L 137.1 648.4 L 139.3 649.5 L 139.0 647.1 L 140.3 647.1 L 139.9 649.5 L 142.1 648.4 L 142.5 649.6 L 140.1 650.0 L 141.8 651.9 L 140.8 652.6 L 139.6 650.4 L 138.4 652.6 L 137.3 651.9 " fill="#191919"/>
<path class="atom-4" d="M 8.1 726.5 L 9.9 724.7 L 7.5 724.2 L 7.9 723.0 L 10.1 724.1 L 9.7 721.7 L 11.0 721.7 L 10.7 724.1 L 12.9 723.0 L 13.3 724.2 L 10.9 724.6 L 12.6 726.5 L 11.5 727.2 L 10.3 725.0 L 9.1 727.2 L 8.1 726.5 " fill="#191919"/>
<path class="atom-5" d="M 8.1 651.9 L 9.9 650.1 L 7.5 649.6 L 7.9 648.4 L 10.1 649.5 L 9.7 647.1 L 11.0 647.1 L 10.7 649.5 L 12.9 648.4 L 13.3 649.6 L 10.9 650.0 L 12.6 651.9 L 11.5 652.6 L 10.3 650.4 L 9.1 652.6 L 8.1 651.9 " fill="#191919"/>
<path class="atom-6" d="M 72.7 614.6 L 74.5 612.8 L 72.1 612.3 L 72.5 611.1 L 74.7 612.2 L 74.4 609.8 L 75.6 609.8 L 75.3 612.1 L 77.5 611.1 L 77.9 612.3 L 75.5 612.7 L 77.2 614.6 L 76.1 615.3 L 75.0 613.1 L 73.8 615.3 L 72.7 614.6 " fill="#191919"/>
<path class="legend" d="M 50.8 736.6 L 56.7 736.6 L 56.7 737.9 L 50.8 737.9 L 50.8 736.6 " fill="#000000"/>
<path class="legend" d="M 62.3 742.5 Q 60.2 742.5, 59.2 741.0 Q 58.1 739.4, 58.1 736.7 Q 58.1 734.0, 59.2 732.4 Q 60.2 730.9, 62.3 730.9 Q 64.4 730.9, 65.4 732.4 Q 66.4 734.0, 66.4 736.7 Q 66.4 739.4, 65.4 741.0 Q 64.4 742.5, 62.3 742.5 M 62.3 741.2 Q 63.5 741.2, 64.2 740.1 Q 64.8 738.9, 64.8 736.7 Q 64.8 734.5, 64.2 733.3 Q 63.5 732.2, 62.3 732.2 Q 61.1 732.2, 60.4 733.3 Q 59.7 734.5, 59.7 736.7 Q 59.7 738.9, 60.4 740.1 Q 61.1 741.2, 62.3 741.2 " fill="#000000"/>
<path class="legend" d="M 68.1 740.8 L 69.7 740.8 L 69.7 742.4 L 68.1 742.4 L 68.1 740.8 " fill="#000000"/>
<path class="legend" d="M 71.4 733.2 Q 71.9 732.1, 72.9 731.5 Q 73.8 730.9, 75.2 730.9 Q 76.9 730.9, 77.9 731.8 Q 78.9 732.8, 78.9 734.4 Q 78.9 736.1, 77.6 737.7 Q 76.4 739.2, 73.8 741.1 L 79.0 741.1 L 79.0 742.4 L 71.4 742.4 L 71.4 741.3 Q 73.5 739.8, 74.8 738.7 Q 76.0 737.6, 76.6 736.5 Q 77.3 735.5, 77.3 734.5 Q 77.3 733.4, 76.7 732.8 Q 76.2 732.2, 75.2 732.2 Q 74.3 732.2, 73.7 732.6 Q 73.1 732.9, 72.7 733.7 L 71.4 733.2 " fill="#000000"/>
<path class="legend" d="M 80.7 733.2 Q 81.1 732.1, 82.1 731.5 Q 83.1 730.9, 84.5 730.9 Q 86.2 730.9, 87.1 731.8 Q 88.1 732.8, 88.1 734.4 Q 88.1 736.1, 86.9 737.7 Q 85.6 739.2, 83.1 741.1 L 88.3 741.1 L 88.3 742.4 L 80.7 742.4 L 80.7 741.3 Q 82.8 739.8, 84.0 738.7 Q 85.3 737.6, 85.9 736.5 Q 86.5 735.5, 86.5 734.5 Q 86.5 733.4, 86.0 732.8 Q 85.4 732.2, 84.5 732.2 Q 83.6 732.2, 82.9 732.6 Q 82.3 732.9, 81.9 733.7 L 80.7 733.2 " fill="#000000"/>
<path class="legend" d="M 94.0 742.5 Q 92.0 742.5, 90.9 741.0 Q 89.9 739.4, 89.9 736.7 Q 89.9 734.0, 90.9 732.4 Q 92.0 730.9, 94.0 730.9 Q 96.1 730.9, 97.2 732.4 Q 98.2 734.0, 98.2 736.7 Q 98.2 739.4, 97.2 741.0 Q 96.1 742.5, 94.0 742.5 M 94.0 741.2 Q 95.3 741.2, 95.9 740.1 Q 96.6 738.9, 96.6 736.7 Q 96.6 734.5, 95.9 733.3 Q 95.3 732.2, 94.0 732.2 Q 92.8 732.2, 92.2 733.3 Q 91.5 734.5, 91.5 736.7 Q 91.5 738.9, 92.2 740.1 Q 92.8 741.2, 94.0 741.2 " fill="#000000"/>
<ellipse cx="214.2" cy="671.9" rx="8.6" ry="8.6" class="atom-1" style="fill:#9999E5;fill-rule:evenodd;stroke:#9999E5;stroke-width:1.0px;stroke-linecap:butt;stroke-linejoin:miter;stroke-opacity:1"/>
<path class="bond-0 atom-0 atom-1" d="M 253.0,671.9 L 214.2,671.9" style="fill:none;fill-rule:evenodd;stroke:#E5E5E5;stroke-width:2.3px;stroke-linecap:butt;stroke-linejoin:miter;stroke-opacity:1"/>
<path class="bond-1 atom-1 atom-2" d="M 212.4,668.7 L 194.2,700.1" style="fill:none;fill-rule:evenodd;stroke:#E5E5E5;stroke-width:2.3px;stroke-linecap:butt;stroke-linejoin:miter;stroke-opacity:1"/>
<path class="bond-1 atom-1 atom-2" d="M 218.0,671.9 L 199.8,703.4" style="fill:none;fill-rule:evenodd;stroke:#E5E5E5;stroke-width:2.3px;stroke-linecap:butt;stroke-linejoin:miter;stroke-opacity:1;stroke-dasharray:6,4"/>
<path class="bond-2 atom-3 atom-1" d="M 196.0,633.8 L 218.0,671.9" style="fill:none;fill-rule:evenodd;stroke:#E5E5E5;stroke-width:2.3px;stroke-linecap:butt;stroke-linejoin:miter;stroke-opacity:1"/>
<path class="bond-2 atom-3 atom-1" d="M 190.4,637.0 L 212.4,675.1" style="fill:none;fill-rule:evenodd;stroke:#E5E5E5;stroke-width:2.3px;stroke-linecap:butt;stroke-linejoin:miter;stroke-opacity:1;stroke-dasharray:6,4"/>
<path class="atom-0" d="M 255.0 670.6 L 256.8 668.7 L 254.4 668.2 L 254.8 667.0 L 257.0 668.1 L 256.7 665.7 L 258.0 665.7 L 257.6 668.1 L 259.8 667.1 L 260.2 668.2 L 257.8 668.7 L 259.5 670.5 L 258.5 671.3 L 257.3 669.0 L 256.1 671.3 L 255.0 670.6 " fill="#191919"/>
<path class="atom-2" d="M 190.4 707.9 L 192.2 706.0 L 189.8 705.5 L 190.2 704.3 L 192.4 705.4 L 192.0 703.0 L 193.3 703.0 L 193.0 705.4 L 195.2 704.4 L 195.6 705.5 L 193.2 706.0 L 194.9 707.8 L 193.8 708.6 L 192.6 706.3 L 191.4 708.6 L 190.4 707.9 " fill="#191919"/>
<path class="atom-3" d="M 190.4 633.2 L 192.2 631.4 L 189.8 630.9 L 190.2 629.7 L 192.4 630.8 L 192.0 628.4 L 193.3 628.4 L 193.0 630.8 L 195.2 629.8 L 195.6 630.9 L 193.2 631.4 L 194.9 633.2 L 193.8 634.0 L 192.6 631.7 L 191.4 634.0 L 190.4 633.2 " fill="#191919"/>
<path class="legend" d="M 201.2 736.6 L 207.1 736.6 L 207.1 737.9 L 201.2 737.9 L 201.2 736.6 " fill="#000000"/>
<path class="legend" d="M 212.7 742.5 Q 210.6 742.5, 209.6 740.9 Q 208.6 739.4, 208.6 736.7 Q 208.6 733.9, 209.6 732.4 Q 210.6 730.9, 212.7 730.9 Q 214.8 730.9, 215.8 732.4 Q 216.8 733.9, 216.8 736.7 Q 216.8 739.4, 215.8 740.9 Q 214.8 742.5, 212.7 742.5 M 212.7 741.2 Q 213.9 741.2, 214.6 740.1 Q 215.2 738.9, 215.2 736.7 Q 215.2 734.4, 214.6 733.3 Q 213.9 732.2, 212.7 732.2 Q 211.5 732.2, 210.8 733.3 Q 210.2 734.4, 210.2 736.7 Q 210.2 738.9, 210.8 740.1 Q 211.5 741.2, 212.7 741.2 " fill="#000000"/>
<path class="legend" d="M 218.5 740.7 L 220.1 740.7 L 220.1 742.3 L 218.5 742.3 L 218.5 740.7 " fill="#000000"/>
<path class="legend" d="M 227.2 736.4 Q 228.3 736.7, 228.9 737.4 Q 229.4 738.1, 229.4 739.2 Q 229.4 740.2, 228.9 740.9 Q 228.5 741.7, 227.6 742.1 Q 226.7 742.5, 225.5 742.5 Q 224.3 742.5, 223.4 742.1 Q 222.5 741.7, 221.8 740.8 L 222.7 739.9 Q 223.4 740.6, 224.0 740.9 Q 224.6 741.2, 225.5 741.2 Q 226.6 741.2, 227.2 740.7 Q 227.8 740.1, 227.8 739.2 Q 227.8 738.1, 227.2 737.6 Q 226.5 737.0, 225.1 737.0 L 224.3 737.0 L 224.3 735.9 L 225.0 735.9 Q 226.3 735.9, 226.9 735.3 Q 227.6 734.8, 227.6 733.8 Q 227.6 733.0, 227.0 732.6 Q 226.5 732.2, 225.6 732.2 Q 224.6 732.2, 224.0 732.5 Q 223.5 732.8, 223.0 733.7 L 221.9 733.1 Q 222.3 732.1, 223.3 731.5 Q 224.2 730.9, 225.6 730.9 Q 227.2 730.9, 228.2 731.7 Q 229.2 732.5, 229.2 733.8 Q 229.2 734.7, 228.7 735.3 Q 228.2 736.0, 227.2 736.4 " fill="#000000"/>
<path class="legend" d="M 231.0 733.2 Q 231.5 732.1, 232.4 731.5 Q 233.4 730.9, 234.8 730.9 Q 236.5 730.9, 237.5 731.8 Q 238.4 732.7, 238.4 734.4 Q 238.4 736.1, 237.2 737.6 Q 236.0 739.2, 233.4 741.1 L 238.6 741.1 L 238.6 742.3 L 231.0 742.3 L 231.0 741.3 Q 233.1 739.8, 234.4 738.6 Q 235.6 737.5, 236.2 736.5 Q 236.8 735.5, 236.8 734.5 Q 236.8 733.4, 236.3 732.8 Q 235.8 732.2, 234.8 732.2 Q 233.9 732.2, 233.3 732.5 Q 232.7 732.9, 232.3 733.7 L 231.0 733.2 " fill="#000000"/>
<path class="legend" d="M 246.2 732.3 L 240.2 732.3 L 240.2 731.0 L 247.8 731.0 L 247.8 732.1 L 243.2 742.3 L 241.6 742.3 L 246.2 732.3 " fill="#000000"/>
<ellipse cx="360.6" cy="662.3" rx="8.6" ry="8.6" class="atom-0" style="fill:#9999E5;fill-rule:evenodd;stroke:#9999E5;stroke-width:1.0px;stroke-linecap:butt;stroke-linejoin:miter;stroke-opacity:1"/>
<path class="bond-0 atom-0 atom-1" d="M 362.8,663.6 L 393.6,681.4" style="fill:none;fill-rule:evenodd;stroke:#E5E5E5;stroke-width:2.3px;stroke-linecap:butt;stroke-linejoin:miter;stroke-opacity:1"/>
<path class="atom-0" d="M 349.2 662.8 Q 349.2 659.7, 350.6 658.2 Q 352.0 656.6, 354.7 656.6 Q 357.2 656.6, 358.6 658.3 L 357.5 659.3 Q 356.5 658.0, 354.7 658.0 Q 352.9 658.0, 351.9 659.2 Q 350.9 660.4, 350.9 662.8 Q 350.9 665.2, 351.9 666.4 Q 353.0 667.7, 354.9 667.7 Q 356.3 667.7, 357.8 666.9 L 358.3 668.1 Q 357.7 668.6, 356.7 668.8 Q 355.7 669.0, 354.7 669.0 Q 352.0 669.0, 350.6 667.4 Q 349.2 665.8, 349.2 662.8 " fill="#000000"/>
<path class="atom-0" d="M 359.8 655.8 L 361.4 655.8 L 361.4 668.9 L 359.8 668.9 L 359.8 655.8 " fill="#000000"/>
<path class="atom-1" d="M 395.6 682.5 L 397.4 680.7 L 395.0 680.2 L 395.4 679.0 L 397.6 680.1 L 397.3 677.7 L 398.6 677.7 L 398.2 680.1 L 400.4 679.0 L 400.8 680.2 L 398.4 680.7 L 400.1 682.5 L 399.1 683.3 L 397.9 681.0 L 396.7 683.3 L 395.6 682.5 " fill="#191919"/>
<path class="legend" d="M 350.1 736.6 L 356.0 736.6 L 356.0 737.9 L 350.1 737.9 L 350.1 736.6 " fill="#000000"/>
<path class="legend" d="M 361.6 742.5 Q 359.5 742.5, 358.5 740.9 Q 357.4 739.4, 357.4 736.7 Q 357.4 733.9, 358.5 732.4 Q 359.5 730.9, 361.6 730.9 Q 363.7 730.9, 364.7 732.4 Q 365.7 733.9, 365.7 736.7 Q 365.7 739.4, 364.7 740.9 Q 363.7 742.5, 361.6 742.5 M 361.6 741.2 Q 362.8 741.2, 363.5 740.1 Q 364.1 738.9, 364.1 736.7 Q 364.1 734.4, 363.5 733.3 Q 362.8 732.2, 361.6 732.2 Q 360.4 732.2, 359.7 733.3 Q 359.0 734.4, 359.0 736.7 Q 359.0 738.9, 359.7 740.1 Q 360.4 741.2, 361.6 741.2 " fill="#000000"/>
<path class="legend" d="M 367.4 740.7 L 369.0 740.7 L 369.0 742.3 L 367.4 742.3 L 367.4 740.7 " fill="#000000"/>
<path class="legend" d="M 376.2 736.4 Q 377.3 736.7, 377.8 737.4 Q 378.4 738.1, 378.4 739.2 Q 378.4 740.2, 377.9 740.9 Q 377.4 741.7, 376.5 742.1 Q 375.7 742.5, 374.5 742.5 Q 373.3 742.5, 372.4 742.1 Q 371.5 741.7, 370.8 740.8 L 371.7 739.9 Q 372.4 740.6, 373.0 740.9 Q 373.6 741.2, 374.5 741.2 Q 375.5 741.2, 376.2 740.7 Q 376.8 740.1, 376.8 739.2 Q 376.8 738.1, 376.1 737.6 Q 375.5 737.0, 374.1 737.0 L 373.3 737.0 L 373.3 735.9 L 374.0 735.9 Q 375.2 735.9, 375.9 735.3 Q 376.5 734.8, 376.5 733.8 Q 376.5 733.0, 376.0 732.6 Q 375.5 732.2, 374.5 732.2 Q 373.6 732.2, 373.0 732.5 Q 372.4 732.8, 372.0 733.7 L 370.9 733.1 Q 371.3 732.1, 372.2 731.5 Q 373.2 730.9, 374.5 730.9 Q 376.2 730.9, 377.2 731.7 Q 378.1 732.5, 378.1 733.8 Q 378.1 734.7, 377.6 735.3 Q 377.2 736.0, 376.2 736.4 " fill="#000000"/>
<path class="legend" d="M 387.4 738.5 L 388.7 738.5 L 388.7 739.7 L 387.4 739.7 L 387.4 742.3 L 385.9 742.3 L 385.9 739.7 L 380.0 739.7 L 380.0 738.7 L 385.0 731.0 L 387.4 731.0 L 387.4 738.5 M 381.9 738.5 L 385.9 738.5 L 385.9 732.0 L 381.9 738.5 " fill="#000000"/>
<path class="legend" d="M 397.6 738.5 L 398.9 738.5 L 398.9 739.7 L 397.6 739.7 L 397.6 742.3 L 396.0 742.3 L 396.0 739.7 L 390.2 739.7 L 390.2 738.7 L 395.2 731.0 L 397.6 731.0 L 397.6 738.5 M 392.0 738.5 L 396.0 738.5 L 396.0 732.0 L 392.0 738.5 " fill="#000000"/>
</svg>