<svg xmlns="http://www.w3.org/2000/svg" xmlns:rdkit="http://www.rdkit.org/xml" xmlns:xlink="http://www.w3.org/1999/xlink" version="1.1" baseProfile="full" xml:space="preserve" width="172px" height="89px" viewBox="0 0 172 89">
<!-- END OF HEADER -->
<rect style="opacity:1.0;fill:#FFFFFF;stroke:none" width="172.0" height="89.0" x="0.0" y="0.0"> </rect>
<ellipse cx="24.5" cy="58.9" rx="15.9" ry="15.9" class="atom-0" style="fill:#FF7F7F;fill-rule:evenodd;stroke:#FF7F7F;stroke-width:1.0px;stroke-linecap:butt;stroke-linejoin:miter;stroke-opacity:1"/>
<ellipse cx="52.3" cy="49.3" rx="15.9" ry="15.9" class="atom-1" style="fill:#FF7F7F;fill-rule:evenodd;stroke:#FF7F7F;stroke-width:1.0px;stroke-linecap:butt;stroke-linejoin:miter;stroke-opacity:1"/>
<ellipse cx="57.9" cy="20.4" rx="15.9" ry="15.9" class="atom-2" style="fill:#FF7F7F;fill-rule:evenodd;stroke:#FF7F7F;stroke-width:1.0px;stroke-linecap:butt;stroke-linejoin:miter;stroke-opacity:1"/>
<ellipse cx="74.5" cy="68.5" rx="15.9" ry="15.9" class="atom-3" style="fill:#FF7F7F;fill-rule:evenodd;stroke:#FF7F7F;stroke-width:1.0px;stroke-linecap:butt;stroke-linejoin:miter;stroke-opacity:1"/>
<ellipse cx="102.3" cy="58.9" rx="4.7" ry="4.7" class="atom-4" style="fill:#7F7FFF;fill-rule:evenodd;stroke:#7F7FFF;stroke-width:1.0px;stroke-linecap:butt;stroke-linejoin:miter;stroke-opacity:1"/>
<ellipse cx="107.9" cy="30.0" rx="4.7" ry="4.7" class="atom-5" style="fill:#7F7FFF;fill-rule:evenodd;stroke:#7F7FFF;stroke-width:1.0px;stroke-linecap:butt;stroke-linejoin:miter;stroke-opacity:1"/>
<ellipse cx="135.6" cy="20.4" rx="4.7" ry="4.7" class="atom-6" style="fill:#7F7FFF;fill-rule:evenodd;stroke:#7F7FFF;stroke-width:1.0px;stroke-linecap:butt;stroke-linejoin:miter;stroke-opacity:1"/>
<ellipse cx="157.9" cy="39.6" rx="4.7" ry="4.7" class="atom-7" style="fill:#7F7FFF;fill-rule:evenodd;stroke:#7F7FFF;stroke-width:1.0px;stroke-linecap:butt;stroke-linejoin:miter;stroke-opacity:1"/>
<ellipse cx="152.3" cy="68.5" rx="4.7" ry="4.7" class="atom-8" style="fill:#7F7FFF;fill-rule:evenodd;stroke:#7F7FFF;stroke-width:1.0px;stroke-linecap:butt;stroke-linejoin:miter;stroke-opacity:1"/>
<ellipse cx="124.5" cy="78.1" rx="4.7" ry="4.7" class="atom-9" style="fill:#7F7FFF;fill-rule:evenodd;stroke:#7F7FFF;stroke-width:1.0px;stroke-linecap:butt;stroke-linejoin:miter;stroke-opacity:1"/>
<path class="bond-0 atom-0 atom-1" d="M 28.6,55.1 L 52.8,46.8" style="fill:none;fill-rule:evenodd;stroke:#000000;stroke-width:2.0px;stroke-linecap:butt;stroke-linejoin:miter;stroke-opacity:1"/>
<path class="bond-0 atom-0 atom-1" d="M 30.1,59.3 L 54.2,50.9" style="fill:none;fill-rule:evenodd;stroke:#000000;stroke-width:2.0px;stroke-linecap:butt;stroke-linejoin:miter;stroke-opacity:1"/>
<path class="bond-1 atom-1 atom-2" d="M 52.3,49.3 L 56.8,25.9" style="fill:none;fill-rule:evenodd;stroke:#000000;stroke-width:2.0px;stroke-linecap:butt;stroke-linejoin:miter;stroke-opacity:1"/>
<path class="bond-2 atom-1 atom-3" d="M 52.3,49.3 L 74.5,68.5" style="fill:none;fill-rule:evenodd;stroke:#000000;stroke-width:2.0px;stroke-linecap:butt;stroke-linejoin:miter;stroke-opacity:1"/>
<path class="bond-3 atom-3 atom-4" d="M 74.5,68.5 L 102.3,58.9" style="fill:none;fill-rule:evenodd;stroke:#000000;stroke-width:2.0px;stroke-linecap:butt;stroke-linejoin:miter;stroke-opacity:1"/>
<path class="bond-4 atom-4 atom-5" d="M 102.3,58.9 L 107.9,30.0" style="fill:none;fill-rule:evenodd;stroke:#000000;stroke-width:2.0px;stroke-linecap:butt;stroke-linejoin:miter;stroke-opacity:1"/>
<path class="bond-4 atom-4 atom-5" d="M 107.1,57.2 L 111.7,33.4" style="fill:none;fill-rule:evenodd;stroke:#000000;stroke-width:2.0px;stroke-linecap:butt;stroke-linejoin:miter;stroke-opacity:1"/>
<path class="bond-5 atom-5 atom-6" d="M 107.9,30.0 L 135.6,20.4" style="fill:none;fill-rule:evenodd;stroke:#000000;stroke-width:2.0px;stroke-linecap:butt;stroke-linejoin:miter;stroke-opacity:1"/>
<path class="bond-6 atom-6 atom-7" d="M 135.6,20.4 L 157.9,39.6" style="fill:none;fill-rule:evenodd;stroke:#000000;stroke-width:2.0px;stroke-linecap:butt;stroke-linejoin:miter;stroke-opacity:1"/>
<path class="bond-6 atom-6 atom-7" d="M 134.7,25.4 L 153.0,41.3" style="fill:none;fill-rule:evenodd;stroke:#000000;stroke-width:2.0px;stroke-linecap:butt;stroke-linejoin:miter;stroke-opacity:1"/>
<path class="bond-7 atom-7 atom-8" d="M 157.9,39.6 L 152.3,68.5" style="fill:none;fill-rule:evenodd;stroke:#000000;stroke-width:2.0px;stroke-linecap:butt;stroke-linejoin:miter;stroke-opacity:1"/>
<path class="bond-8 atom-8 atom-9" d="M 152.3,68.5 L 124.5,78.1" style="fill:none;fill-rule:evenodd;stroke:#000000;stroke-width:2.0px;stroke-linecap:butt;stroke-linejoin:miter;stroke-opacity:1"/>
<path class="bond-8 atom-8 atom-9" d="M 148.5,65.2 L 125.5,73.1" style="fill:none;fill-rule:evenodd;stroke:#000000;stroke-width:2.0px;stroke-linecap:butt;stroke-linejoin:miter;stroke-opacity:1"/>
<path class="bond-9 atom-9 atom-4" d="M 124.5,78.1 L 102.3,58.9" style="fill:none;fill-rule:evenodd;stroke:#000000;stroke-width:2.0px;stroke-linecap:butt;stroke-linejoin:miter;stroke-opacity:1"/>
<path d="M 52.5,48.1 L 52.3,49.3 L 53.4,50.2" style="fill:none;stroke:#000000;stroke-width:2.0px;stroke-linecap:butt;stroke-linejoin:miter;stroke-miterlimit:10;stroke-opacity:1;"/>
<path d="M 73.4,67.5 L 74.5,68.5 L 75.9,68.0" style="fill:none;stroke:#000000;stroke-width:2.0px;stroke-linecap:butt;stroke-linejoin:miter;stroke-miterlimit:10;stroke-opacity:1;"/>
<path d="M 107.6,31.5 L 107.9,30.0 L 109.3,29.5" style="fill:none;stroke:#000000;stroke-width:2.0px;stroke-linecap:butt;stroke-linejoin:miter;stroke-miterlimit:10;stroke-opacity:1;"/>
<path d="M 134.2,20.9 L 135.6,20.4 L 136.7,21.4" style="fill:none;stroke:#000000;stroke-width:2.0px;stroke-linecap:butt;stroke-linejoin:miter;stroke-miterlimit:10;stroke-opacity:1;"/>
<path d="M 156.7,38.7 L 157.9,39.6 L 157.6,41.1" style="fill:none;stroke:#000000;stroke-width:2.0px;stroke-linecap:butt;stroke-linejoin:miter;stroke-miterlimit:10;stroke-opacity:1;"/>
<path d="M 152.6,67.1 L 152.3,68.5 L 150.9,69.0" style="fill:none;stroke:#000000;stroke-width:2.0px;stroke-linecap:butt;stroke-linejoin:miter;stroke-miterlimit:10;stroke-opacity:1;"/>
<path d="M 125.9,77.6 L 124.5,78.1 L 123.4,77.2" style="fill:none;stroke:#000000;stroke-width:2.0px;stroke-linecap:butt;stroke-linejoin:miter;stroke-miterlimit:10;stroke-opacity:1;"/>
<path class="atom-0" d="M 20.7 58.9 Q 20.7 56.9, 21.7 55.8 Q 22.7 54.7, 24.5 54.7 Q 26.4 54.7, 27.4 55.8 Q 28.4 56.9, 28.4 58.9 Q 28.4 60.9, 27.4 62.1 Q 26.4 63.2, 24.5 63.2 Q 22.7 63.2, 21.7 62.1 Q 20.7 60.9, 20.7 58.9 M 24.5 62.3 Q 25.8 62.3, 26.5 61.4 Q 27.2 60.6, 27.2 58.9 Q 27.2 57.3, 26.5 56.4 Q 25.8 55.6, 24.5 55.6 Q 23.3 55.6, 22.6 56.4 Q 21.9 57.3, 21.9 58.9 Q 21.9 60.6, 22.6 61.4 Q 23.3 62.3, 24.5 62.3 " fill="#000000"/>
<path class="atom-2" d="M 54.7 20.7 Q 54.7 18.6, 55.6 17.5 Q 56.6 16.4, 58.4 16.4 Q 60.2 16.4, 61.1 17.7 L 60.3 18.3 Q 59.6 17.4, 58.4 17.4 Q 57.2 17.4, 56.5 18.3 Q 55.9 19.1, 55.9 20.7 Q 55.9 22.3, 56.5 23.2 Q 57.2 24.0, 58.6 24.0 Q 59.5 24.0, 60.6 23.5 L 60.9 24.4 Q 60.5 24.6, 59.8 24.8 Q 59.1 25.0, 58.4 25.0 Q 56.6 25.0, 55.6 23.9 Q 54.7 22.8, 54.7 20.7 " fill="#000000"/>
<path class="atom-2" d="M 61.9 15.9 L 63.0 15.9 L 63.0 24.9 L 61.9 24.9 L 61.9 15.9 " fill="#000000"/>
</svg>