<svg xmlns="http://www.w3.org/2000/svg" xmlns:rdkit="http://www.rdkit.org/xml" xmlns:xlink="http://www.w3.org/1999/xlink" version="1.1" baseProfile="full" xml:space="preserve" width="202px" height="71px" viewBox="0 0 202 71">
<!-- END OF HEADER -->
<rect style="opacity:1.0;fill:#FFFFFF;stroke:none" width="202.0" height="71.0" x="0.0" y="0.0"> </rect>
<ellipse cx="24.2" cy="38.3" rx="12.9" ry="12.9" class="atom-0" style="fill:#FF7F7F;fill-rule:evenodd;stroke:#FF7F7F;stroke-width:1.0px;stroke-linecap:butt;stroke-linejoin:miter;stroke-opacity:1"/>
<ellipse cx="52.7" cy="32.1" rx="12.9" ry="12.9" class="atom-1" style="fill:#FF7F7F;fill-rule:evenodd;stroke:#FF7F7F;stroke-width:1.0px;stroke-linecap:butt;stroke-linejoin:miter;stroke-opacity:1"/>
<ellipse cx="81.1" cy="25.9" rx="12.9" ry="12.9" class="atom-2" style="fill:#FF7F7F;fill-rule:evenodd;stroke:#FF7F7F;stroke-width:1.0px;stroke-linecap:butt;stroke-linejoin:miter;stroke-opacity:1"/>
<ellipse cx="100.7" cy="47.5" rx="12.9" ry="12.9" class="atom-3" style="fill:#FF7F7F;fill-rule:evenodd;stroke:#FF7F7F;stroke-width:1.0px;stroke-linecap:butt;stroke-linejoin:miter;stroke-opacity:1"/>
<ellipse cx="129.2" cy="41.3" rx="3.7" ry="3.7" class="atom-4" style="fill:#7F7FFF;fill-rule:evenodd;stroke:#7F7FFF;stroke-width:1.0px;stroke-linecap:butt;stroke-linejoin:miter;stroke-opacity:1"/>
<ellipse cx="138.1" cy="13.5" rx="3.7" ry="3.7" class="atom-5" style="fill:#7F7FFF;fill-rule:evenodd;stroke:#7F7FFF;stroke-width:1.0px;stroke-linecap:butt;stroke-linejoin:miter;stroke-opacity:1"/>
<ellipse cx="166.5" cy="7.3" rx="3.7" ry="3.7" class="atom-6" style="fill:#7F7FFF;fill-rule:evenodd;stroke:#7F7FFF;stroke-width:1.0px;stroke-linecap:butt;stroke-linejoin:miter;stroke-opacity:1"/>
<ellipse cx="186.1" cy="28.8" rx="3.7" ry="3.7" class="atom-7" style="fill:#7F7FFF;fill-rule:evenodd;stroke:#7F7FFF;stroke-width:1.0px;stroke-linecap:butt;stroke-linejoin:miter;stroke-opacity:1"/>
<ellipse cx="177.3" cy="56.6" rx="3.7" ry="3.7" class="atom-8" style="fill:#7F7FFF;fill-rule:evenodd;stroke:#7F7FFF;stroke-width:1.0px;stroke-linecap:butt;stroke-linejoin:miter;stroke-opacity:1"/>
<ellipse cx="148.8" cy="62.8" rx="3.7" ry="3.7" class="atom-9" style="fill:#7F7FFF;fill-rule:evenodd;stroke:#7F7FFF;stroke-width:1.0px;stroke-linecap:butt;stroke-linejoin:miter;stroke-opacity:1"/>
<path class="bond-0 atom-0 atom-1" d="M 32.1,34.3 L 48.1,30.9" style="fill:none;fill-rule:evenodd;stroke:#000000;stroke-width:2.0px;stroke-linecap:butt;stroke-linejoin:miter;stroke-opacity:1"/>
<path class="bond-0 atom-0 atom-1" d="M 33.1,38.6 L 49.0,35.1" style="fill:none;fill-rule:evenodd;stroke:#000000;stroke-width:2.0px;stroke-linecap:butt;stroke-linejoin:miter;stroke-opacity:1"/>
<path class="bond-1 atom-1 atom-2" d="M 61.4,28.0 L 76.6,24.7" style="fill:none;fill-rule:evenodd;stroke:#000000;stroke-width:2.0px;stroke-linecap:butt;stroke-linejoin:miter;stroke-opacity:1"/>
<path class="bond-1 atom-1 atom-2" d="M 62.4,32.2 L 77.5,28.9" style="fill:none;fill-rule:evenodd;stroke:#000000;stroke-width:2.0px;stroke-linecap:butt;stroke-linejoin:miter;stroke-opacity:1"/>
<path class="bond-2 atom-2 atom-3" d="M 85.2,30.4 L 100.7,47.5" style="fill:none;fill-rule:evenodd;stroke:#000000;stroke-width:2.0px;stroke-linecap:butt;stroke-linejoin:miter;stroke-opacity:1"/>
<path class="bond-3 atom-3 atom-4" d="M 100.7,47.5 L 129.2,41.3" style="fill:none;fill-rule:evenodd;stroke:#000000;stroke-width:2.0px;stroke-linecap:butt;stroke-linejoin:miter;stroke-opacity:1"/>
<path class="bond-4 atom-4 atom-5" d="M 129.2,41.3 L 138.1,13.5" style="fill:none;fill-rule:evenodd;stroke:#000000;stroke-width:2.0px;stroke-linecap:butt;stroke-linejoin:miter;stroke-opacity:1"/>
<path class="bond-4 atom-4 atom-5" d="M 134.1,40.2 L 141.5,17.2" style="fill:none;fill-rule:evenodd;stroke:#000000;stroke-width:2.0px;stroke-linecap:butt;stroke-linejoin:miter;stroke-opacity:1"/>
<path class="bond-5 atom-5 atom-6" d="M 138.1,13.5 L 166.5,7.3" style="fill:none;fill-rule:evenodd;stroke:#000000;stroke-width:2.0px;stroke-linecap:butt;stroke-linejoin:miter;stroke-opacity:1"/>
<path class="bond-6 atom-6 atom-7" d="M 166.5,7.3 L 186.1,28.8" style="fill:none;fill-rule:evenodd;stroke:#000000;stroke-width:2.0px;stroke-linecap:butt;stroke-linejoin:miter;stroke-opacity:1"/>
<path class="bond-6 atom-6 atom-7" d="M 165.0,12.1 L 181.2,29.9" style="fill:none;fill-rule:evenodd;stroke:#000000;stroke-width:2.0px;stroke-linecap:butt;stroke-linejoin:miter;stroke-opacity:1"/>
<path class="bond-7 atom-7 atom-8" d="M 186.1,28.8 L 177.3,56.6" style="fill:none;fill-rule:evenodd;stroke:#000000;stroke-width:2.0px;stroke-linecap:butt;stroke-linejoin:miter;stroke-opacity:1"/>
<path class="bond-8 atom-8 atom-9" d="M 177.3,56.6 L 148.8,62.8" style="fill:none;fill-rule:evenodd;stroke:#000000;stroke-width:2.0px;stroke-linecap:butt;stroke-linejoin:miter;stroke-opacity:1"/>
<path class="bond-8 atom-8 atom-9" d="M 173.9,52.9 L 150.3,58.0" style="fill:none;fill-rule:evenodd;stroke:#000000;stroke-width:2.0px;stroke-linecap:butt;stroke-linejoin:miter;stroke-opacity:1"/>
<path class="bond-9 atom-9 atom-4" d="M 148.8,62.8 L 129.2,41.3" style="fill:none;fill-rule:evenodd;stroke:#000000;stroke-width:2.0px;stroke-linecap:butt;stroke-linejoin:miter;stroke-opacity:1"/>
<path d="M 100.0,46.6 L 100.7,47.5 L 102.2,47.1" style="fill:none;stroke:#000000;stroke-width:2.0px;stroke-linecap:butt;stroke-linejoin:miter;stroke-miterlimit:10;stroke-opacity:1;"/>
<path d="M 137.6,14.9 L 138.1,13.5 L 139.5,13.2" style="fill:none;stroke:#000000;stroke-width:2.0px;stroke-linecap:butt;stroke-linejoin:miter;stroke-miterlimit:10;stroke-opacity:1;"/>
<path d="M 165.1,7.6 L 166.5,7.3 L 167.5,8.4" style="fill:none;stroke:#000000;stroke-width:2.0px;stroke-linecap:butt;stroke-linejoin:miter;stroke-miterlimit:10;stroke-opacity:1;"/>
<path d="M 185.2,27.8 L 186.1,28.8 L 185.7,30.2" style="fill:none;stroke:#000000;stroke-width:2.0px;stroke-linecap:butt;stroke-linejoin:miter;stroke-miterlimit:10;stroke-opacity:1;"/>
<path d="M 177.7,55.2 L 177.3,56.6 L 175.8,56.9" style="fill:none;stroke:#000000;stroke-width:2.0px;stroke-linecap:butt;stroke-linejoin:miter;stroke-miterlimit:10;stroke-opacity:1;"/>
<path d="M 150.2,62.5 L 148.8,62.8 L 147.8,61.7" style="fill:none;stroke:#000000;stroke-width:2.0px;stroke-linecap:butt;stroke-linejoin:miter;stroke-miterlimit:10;stroke-opacity:1;"/>
<path class="atom-0" d="M 22.4 34.2 L 25.1 38.6 Q 25.4 39.0, 25.8 39.8 Q 26.2 40.6, 26.2 40.6 L 26.2 34.2 L 27.3 34.2 L 27.3 42.4 L 26.2 42.4 L 23.3 37.7 Q 23.0 37.1, 22.6 36.5 Q 22.3 35.8, 22.1 35.6 L 22.1 42.4 L 21.1 42.4 L 21.1 34.2 L 22.4 34.2 " fill="#000000"/>
<path class="atom-0" d="M 28.8 35.6 L 31.7 35.6 L 31.7 36.2 L 28.8 36.2 L 28.8 35.6 " fill="#000000"/>
<path class="atom-1" d="M 50.8 28.0 L 53.6 32.4 Q 53.8 32.8, 54.2 33.6 Q 54.7 34.3, 54.7 34.4 L 54.7 28.0 L 55.8 28.0 L 55.8 36.2 L 54.7 36.2 L 51.8 31.5 Q 51.4 30.9, 51.1 30.3 Q 50.7 29.6, 50.6 29.4 L 50.6 36.2 L 49.5 36.2 L 49.5 28.0 L 50.8 28.0 " fill="#000000"/>
<path class="atom-1" d="M 57.4 29.5 L 58.8 29.5 L 58.8 27.9 L 59.5 27.9 L 59.5 29.5 L 60.9 29.5 L 60.9 30.0 L 59.5 30.0 L 59.5 31.6 L 58.8 31.6 L 58.8 30.0 L 57.4 30.0 L 57.4 29.5 " fill="#000000"/>
<path class="atom-2" d="M 79.3 21.8 L 82.0 26.2 Q 82.3 26.6, 82.7 27.4 Q 83.1 28.1, 83.2 28.2 L 83.2 21.8 L 84.3 21.8 L 84.3 30.0 L 83.1 30.0 L 80.2 25.3 Q 79.9 24.7, 79.5 24.1 Q 79.2 23.4, 79.1 23.2 L 79.1 30.0 L 78.0 30.0 L 78.0 21.8 L 79.3 21.8 " fill="#000000"/>
</svg>