<svg xmlns="http://www.w3.org/2000/svg" xmlns:rdkit="http://www.rdkit.org/xml" xmlns:xlink="http://www.w3.org/1999/xlink" version="1.1" baseProfile="full" xml:space="preserve" width="274px" height="107px" viewBox="0 0 274 107">
<!-- END OF HEADER -->
<rect style="opacity:1.0;fill:#FFFFFF;stroke:none" width="274.0" height="107.0" x="0.0" y="0.0"> </rect>
<path class="bond-0 atom-0 atom-1" d="M 159.4,32.4 L 150.9,60.5 L 143.0,58.1 L 151.6,30.0 Z" style="fill:#FFDEDE;fill-rule:evenodd;fill-opacity:1;stroke:#FFDEDE;stroke-width:2.0px;stroke-linecap:butt;stroke-linejoin:miter;stroke-miterlimit:10;stroke-opacity:1;"/>
<path class="bond-3 atom-3 atom-4" d="M 198.6,71.2 L 218.7,92.7 L 212.7,98.3 L 192.6,76.9 Z" style="fill:#EEEEFF;fill-rule:evenodd;fill-opacity:1;stroke:#EEEEFF;stroke-width:2.0px;stroke-linecap:butt;stroke-linejoin:miter;stroke-miterlimit:10;stroke-opacity:1;"/>
<path class="bond-4 atom-4 atom-5" d="M 214.7,91.5 L 243.3,84.8 L 245.2,92.8 L 216.6,99.5 Z" style="fill:#EEEEFF;fill-rule:evenodd;fill-opacity:1;stroke:#EEEEFF;stroke-width:2.0px;stroke-linecap:butt;stroke-linejoin:miter;stroke-miterlimit:10;stroke-opacity:1;"/>
<path class="bond-5 atom-5 atom-6" d="M 240.3,87.6 L 248.9,59.5 L 256.7,61.9 L 248.2,90.0 Z" style="fill:#EEEEFF;fill-rule:evenodd;fill-opacity:1;stroke:#EEEEFF;stroke-width:2.0px;stroke-linecap:butt;stroke-linejoin:miter;stroke-miterlimit:10;stroke-opacity:1;"/>
<path class="bond-6 atom-6 atom-7" d="M 249.8,63.5 L 229.7,42.1 L 235.7,36.5 L 255.8,57.9 Z" style="fill:#EEEEFF;fill-rule:evenodd;fill-opacity:1;stroke:#EEEEFF;stroke-width:2.0px;stroke-linecap:butt;stroke-linejoin:miter;stroke-miterlimit:10;stroke-opacity:1;"/>
<path class="bond-7 atom-7 atom-8" d="M 228.8,38.1 L 237.3,10.0 L 245.2,12.4 L 236.7,40.5 Z" style="fill:#EEEEFF;fill-rule:evenodd;fill-opacity:1;stroke:#EEEEFF;stroke-width:2.0px;stroke-linecap:butt;stroke-linejoin:miter;stroke-miterlimit:10;stroke-opacity:1;"/>
<path class="bond-8 atom-7 atom-9" d="M 233.7,43.3 L 205.1,50.0 L 203.2,42.0 L 231.8,35.3 Z" style="fill:#EEEEFF;fill-rule:evenodd;fill-opacity:1;stroke:#EEEEFF;stroke-width:2.0px;stroke-linecap:butt;stroke-linejoin:miter;stroke-miterlimit:10;stroke-opacity:1;"/>
<path class="bond-10 atom-10 atom-11" d="M 122.2,67.5 L 110.7,94.6 L 103.2,91.4 L 114.6,64.3 Z" style="fill:#FF0C0C;fill-rule:evenodd;fill-opacity:1;stroke:#FF0C0C;stroke-width:2.0px;stroke-linecap:butt;stroke-linejoin:miter;stroke-miterlimit:10;stroke-opacity:1;"/>
<path class="bond-11 atom-11 atom-12" d="M 106.6,97.1 L 77.4,94.6 L 78.1,86.4 L 107.3,88.9 Z" style="fill:#FF0C0C;fill-rule:evenodd;fill-opacity:1;stroke:#FF0C0C;stroke-width:2.0px;stroke-linecap:butt;stroke-linejoin:miter;stroke-miterlimit:10;stroke-opacity:1;"/>
<path class="bond-12 atom-12 atom-13" d="M 73.7,91.4 L 67.1,62.8 L 75.1,61.0 L 81.7,89.5 Z" style="fill:#FF0C0C;fill-rule:evenodd;fill-opacity:1;stroke:#FF0C0C;stroke-width:2.0px;stroke-linecap:butt;stroke-linejoin:miter;stroke-miterlimit:10;stroke-opacity:1;"/>
<path class="bond-13 atom-13 atom-14" d="M 69.5,65.7 L 42.4,54.3 L 45.6,46.7 L 72.7,58.1 Z" style="fill:#FF0C0C;fill-rule:evenodd;fill-opacity:1;stroke:#FF0C0C;stroke-width:2.0px;stroke-linecap:butt;stroke-linejoin:miter;stroke-miterlimit:10;stroke-opacity:1;"/>
<path class="bond-14 atom-14 atom-15" d="M 46.5,53.7 L 23.1,71.5 L 18.1,64.9 L 41.5,47.2 Z" style="fill:#FF0C0C;fill-rule:evenodd;fill-opacity:1;stroke:#FF0C0C;stroke-width:2.0px;stroke-linecap:butt;stroke-linejoin:miter;stroke-miterlimit:10;stroke-opacity:1;"/>
<path class="bond-15 atom-14 atom-16" d="M 39.9,51.0 L 36.3,21.9 L 44.5,20.8 L 48.1,50.0 Z" style="fill:#FF0C0C;fill-rule:evenodd;fill-opacity:1;stroke:#FF0C0C;stroke-width:2.0px;stroke-linecap:butt;stroke-linejoin:miter;stroke-miterlimit:10;stroke-opacity:1;"/>
<path class="bond-16 atom-13 atom-17" d="M 68.9,58.4 L 94.1,43.2 L 98.3,50.2 L 73.2,65.4 Z" style="fill:#FF0C0C;fill-rule:evenodd;fill-opacity:1;stroke:#FF0C0C;stroke-width:2.0px;stroke-linecap:butt;stroke-linejoin:miter;stroke-miterlimit:10;stroke-opacity:1;"/>
<path class="bond-17 atom-9 atom-3" d="M 208.1,47.2 L 199.5,75.2 L 191.7,72.9 L 200.2,44.8 Z" style="fill:#EEEEFF;fill-rule:evenodd;fill-opacity:1;stroke:#EEEEFF;stroke-width:2.0px;stroke-linecap:butt;stroke-linejoin:miter;stroke-miterlimit:10;stroke-opacity:1;"/>
<path class="bond-18 atom-17 atom-10" d="M 98.9,43.6 L 121.1,62.8 L 115.7,69.0 L 93.5,49.8 Z" style="fill:#FF0C0C;fill-rule:evenodd;fill-opacity:1;stroke:#FF0C0C;stroke-width:2.0px;stroke-linecap:butt;stroke-linejoin:miter;stroke-miterlimit:10;stroke-opacity:1;"/>
<ellipse cx="155.5" cy="31.2" rx="5.9" ry="5.9" class="atom-0" style="fill:#FFDEDE;fill-rule:evenodd;stroke:#FFDEDE;stroke-width:1.0px;stroke-linecap:butt;stroke-linejoin:miter;stroke-opacity:1"/>
<ellipse cx="147.0" cy="59.3" rx="5.9" ry="5.9" class="atom-1" style="fill:#FFDEDE;fill-rule:evenodd;stroke:#FFDEDE;stroke-width:1.0px;stroke-linecap:butt;stroke-linejoin:miter;stroke-opacity:1"/>
<ellipse cx="167.0" cy="80.7" rx="5.9" ry="5.9" class="atom-2" style="fill:#FFF8F8;fill-rule:evenodd;stroke:#FFF8F8;stroke-width:1.0px;stroke-linecap:butt;stroke-linejoin:miter;stroke-opacity:1"/>
<ellipse cx="195.6" cy="74.1" rx="5.9" ry="5.9" class="atom-3" style="fill:#EEEEFF;fill-rule:evenodd;stroke:#EEEEFF;stroke-width:1.0px;stroke-linecap:butt;stroke-linejoin:miter;stroke-opacity:1"/>
<ellipse cx="215.7" cy="95.5" rx="5.9" ry="5.9" class="atom-4" style="fill:#EEEEFF;fill-rule:evenodd;stroke:#EEEEFF;stroke-width:1.0px;stroke-linecap:butt;stroke-linejoin:miter;stroke-opacity:1"/>
<ellipse cx="244.3" cy="88.8" rx="5.9" ry="5.9" class="atom-5" style="fill:#EEEEFF;fill-rule:evenodd;stroke:#EEEEFF;stroke-width:1.0px;stroke-linecap:butt;stroke-linejoin:miter;stroke-opacity:1"/>
<ellipse cx="252.8" cy="60.7" rx="5.9" ry="5.9" class="atom-6" style="fill:#EEEEFF;fill-rule:evenodd;stroke:#EEEEFF;stroke-width:1.0px;stroke-linecap:butt;stroke-linejoin:miter;stroke-opacity:1"/>
<ellipse cx="232.7" cy="39.3" rx="5.9" ry="5.9" class="atom-7" style="fill:#EEEEFF;fill-rule:evenodd;stroke:#EEEEFF;stroke-width:1.0px;stroke-linecap:butt;stroke-linejoin:miter;stroke-opacity:1"/>
<ellipse cx="241.3" cy="11.2" rx="5.9" ry="5.9" class="atom-8" style="fill:#EEEEFF;fill-rule:evenodd;stroke:#EEEEFF;stroke-width:1.0px;stroke-linecap:butt;stroke-linejoin:miter;stroke-opacity:1"/>
<ellipse cx="204.1" cy="46.0" rx="5.9" ry="5.9" class="atom-9" style="fill:#EEEEFF;fill-rule:evenodd;stroke:#EEEEFF;stroke-width:1.0px;stroke-linecap:butt;stroke-linejoin:miter;stroke-opacity:1"/>
<ellipse cx="118.4" cy="65.9" rx="5.9" ry="5.9" class="atom-10" style="fill:#FF0C0C;fill-rule:evenodd;stroke:#FF0C0C;stroke-width:1.0px;stroke-linecap:butt;stroke-linejoin:miter;stroke-opacity:1"/>
<ellipse cx="107.0" cy="93.0" rx="5.9" ry="5.9" class="atom-11" style="fill:#FF0C0C;fill-rule:evenodd;stroke:#FF0C0C;stroke-width:1.0px;stroke-linecap:butt;stroke-linejoin:miter;stroke-opacity:1"/>
<ellipse cx="77.7" cy="90.5" rx="5.9" ry="5.9" class="atom-12" style="fill:#FF0C0C;fill-rule:evenodd;stroke:#FF0C0C;stroke-width:1.0px;stroke-linecap:butt;stroke-linejoin:miter;stroke-opacity:1"/>
<ellipse cx="71.1" cy="61.9" rx="5.9" ry="5.9" class="atom-13" style="fill:#FF0C0C;fill-rule:evenodd;stroke:#FF0C0C;stroke-width:1.0px;stroke-linecap:butt;stroke-linejoin:miter;stroke-opacity:1"/>
<ellipse cx="44.0" cy="50.5" rx="5.9" ry="5.9" class="atom-14" style="fill:#FF0C0C;fill-rule:evenodd;stroke:#FF0C0C;stroke-width:1.0px;stroke-linecap:butt;stroke-linejoin:miter;stroke-opacity:1"/>
<ellipse cx="20.6" cy="68.2" rx="5.9" ry="5.9" class="atom-15" style="fill:#FF0C0C;fill-rule:evenodd;stroke:#FF0C0C;stroke-width:1.0px;stroke-linecap:butt;stroke-linejoin:miter;stroke-opacity:1"/>
<ellipse cx="40.4" cy="21.3" rx="5.9" ry="5.9" class="atom-16" style="fill:#FF0C0C;fill-rule:evenodd;stroke:#FF0C0C;stroke-width:1.0px;stroke-linecap:butt;stroke-linejoin:miter;stroke-opacity:1"/>
<ellipse cx="96.2" cy="46.7" rx="5.9" ry="5.9" class="atom-17" style="fill:#FF0C0C;fill-rule:evenodd;stroke:#FF0C0C;stroke-width:1.0px;stroke-linecap:butt;stroke-linejoin:miter;stroke-opacity:1"/>
<path class="bond-0 atom-0 atom-1" d="M 156.0,37.1 L 148.7,61.1" style="fill:none;fill-rule:evenodd;stroke:#000000;stroke-width:2.0px;stroke-linecap:butt;stroke-linejoin:miter;stroke-opacity:1"/>
<path class="bond-0 atom-0 atom-1" d="M 151.8,35.9 L 144.5,59.9" style="fill:none;fill-rule:evenodd;stroke:#000000;stroke-width:2.0px;stroke-linecap:butt;stroke-linejoin:miter;stroke-opacity:1"/>
<path class="bond-1 atom-1 atom-2" d="M 147.0,59.3 L 162.9,76.3" style="fill:none;fill-rule:evenodd;stroke:#000000;stroke-width:2.0px;stroke-linecap:butt;stroke-linejoin:miter;stroke-opacity:1"/>
<path class="bond-2 atom-2 atom-3" d="M 171.1,79.7 L 195.6,74.1" style="fill:none;fill-rule:evenodd;stroke:#000000;stroke-width:2.0px;stroke-linecap:butt;stroke-linejoin:miter;stroke-opacity:1"/>
<path class="bond-3 atom-3 atom-4" d="M 195.6,74.1 L 215.7,95.5" style="fill:none;fill-rule:evenodd;stroke:#000000;stroke-width:2.0px;stroke-linecap:butt;stroke-linejoin:miter;stroke-opacity:1"/>
<path class="bond-3 atom-3 atom-4" d="M 200.6,72.9 L 217.2,90.6" style="fill:none;fill-rule:evenodd;stroke:#000000;stroke-width:2.0px;stroke-linecap:butt;stroke-linejoin:miter;stroke-opacity:1"/>
<path class="bond-4 atom-4 atom-5" d="M 215.7,95.5 L 244.3,88.8" style="fill:none;fill-rule:evenodd;stroke:#000000;stroke-width:2.0px;stroke-linecap:butt;stroke-linejoin:miter;stroke-opacity:1"/>
<path class="bond-5 atom-5 atom-6" d="M 244.3,88.8 L 252.8,60.7" style="fill:none;fill-rule:evenodd;stroke:#000000;stroke-width:2.0px;stroke-linecap:butt;stroke-linejoin:miter;stroke-opacity:1"/>
<path class="bond-5 atom-5 atom-6" d="M 240.8,85.1 L 247.8,61.9" style="fill:none;fill-rule:evenodd;stroke:#000000;stroke-width:2.0px;stroke-linecap:butt;stroke-linejoin:miter;stroke-opacity:1"/>
<path class="bond-6 atom-6 atom-7" d="M 252.8,60.7 L 232.7,39.3" style="fill:none;fill-rule:evenodd;stroke:#000000;stroke-width:2.0px;stroke-linecap:butt;stroke-linejoin:miter;stroke-opacity:1"/>
<path class="bond-7 atom-7 atom-8" d="M 232.7,39.3 L 239.7,16.3" style="fill:none;fill-rule:evenodd;stroke:#000000;stroke-width:2.0px;stroke-linecap:butt;stroke-linejoin:miter;stroke-opacity:1"/>
<path class="bond-8 atom-7 atom-9" d="M 232.7,39.3 L 204.1,46.0" style="fill:none;fill-rule:evenodd;stroke:#000000;stroke-width:2.0px;stroke-linecap:butt;stroke-linejoin:miter;stroke-opacity:1"/>
<path class="bond-8 atom-7 atom-9" d="M 231.3,44.2 L 207.6,49.7" style="fill:none;fill-rule:evenodd;stroke:#000000;stroke-width:2.0px;stroke-linecap:butt;stroke-linejoin:miter;stroke-opacity:1"/>
<path class="bond-9 atom-1 atom-10" d="M 147.0,59.3 L 118.4,65.9" style="fill:none;fill-rule:evenodd;stroke:#000000;stroke-width:2.0px;stroke-linecap:butt;stroke-linejoin:miter;stroke-opacity:1"/>
<path class="bond-10 atom-10 atom-11" d="M 118.4,65.9 L 107.0,93.0" style="fill:none;fill-rule:evenodd;stroke:#000000;stroke-width:2.0px;stroke-linecap:butt;stroke-linejoin:miter;stroke-opacity:1"/>
<path class="bond-10 atom-10 atom-11" d="M 113.1,67.2 L 104.2,88.3" style="fill:none;fill-rule:evenodd;stroke:#000000;stroke-width:2.0px;stroke-linecap:butt;stroke-linejoin:miter;stroke-opacity:1"/>
<path class="bond-11 atom-11 atom-12" d="M 107.0,93.0 L 81.4,90.8" style="fill:none;fill-rule:evenodd;stroke:#000000;stroke-width:2.0px;stroke-linecap:butt;stroke-linejoin:miter;stroke-opacity:1"/>
<path class="bond-12 atom-12 atom-13" d="M 76.5,85.4 L 71.1,61.9" style="fill:none;fill-rule:evenodd;stroke:#000000;stroke-width:2.0px;stroke-linecap:butt;stroke-linejoin:miter;stroke-opacity:1"/>
<path class="bond-13 atom-13 atom-14" d="M 71.1,61.9 L 48.1,52.2" style="fill:none;fill-rule:evenodd;stroke:#000000;stroke-width:2.0px;stroke-linecap:butt;stroke-linejoin:miter;stroke-opacity:1"/>
<path class="bond-14 atom-14 atom-15" d="M 38.6,51.8 L 24.1,62.8" style="fill:none;fill-rule:evenodd;stroke:#000000;stroke-width:2.0px;stroke-linecap:butt;stroke-linejoin:miter;stroke-opacity:1"/>
<path class="bond-14 atom-14 atom-15" d="M 41.2,55.3 L 26.7,66.3" style="fill:none;fill-rule:evenodd;stroke:#000000;stroke-width:2.0px;stroke-linecap:butt;stroke-linejoin:miter;stroke-opacity:1"/>
<path class="bond-15 atom-14 atom-16" d="M 43.4,45.3 L 41.0,26.6" style="fill:none;fill-rule:evenodd;stroke:#000000;stroke-width:2.0px;stroke-linecap:butt;stroke-linejoin:miter;stroke-opacity:1"/>
<path class="bond-16 atom-13 atom-17" d="M 71.1,61.9 L 96.2,46.7" style="fill:none;fill-rule:evenodd;stroke:#000000;stroke-width:2.0px;stroke-linecap:butt;stroke-linejoin:miter;stroke-opacity:1"/>
<path class="bond-16 atom-13 atom-17" d="M 76.1,64.0 L 95.7,52.1" style="fill:none;fill-rule:evenodd;stroke:#000000;stroke-width:2.0px;stroke-linecap:butt;stroke-linejoin:miter;stroke-opacity:1"/>
<path class="bond-17 atom-9 atom-3" d="M 204.1,46.0 L 195.6,74.1" style="fill:none;fill-rule:evenodd;stroke:#000000;stroke-width:2.0px;stroke-linecap:butt;stroke-linejoin:miter;stroke-opacity:1"/>
<path class="bond-18 atom-17 atom-10" d="M 96.2,46.7 L 118.4,65.9" style="fill:none;fill-rule:evenodd;stroke:#000000;stroke-width:2.0px;stroke-linecap:butt;stroke-linejoin:miter;stroke-opacity:1"/>
<path d="M 147.8,60.1 L 147.0,59.3 L 145.5,59.6" style="fill:none;stroke:#000000;stroke-width:2.0px;stroke-linecap:butt;stroke-linejoin:miter;stroke-miterlimit:10;stroke-opacity:1;"/>
<path d="M 214.7,94.4 L 215.7,95.5 L 217.1,95.1" style="fill:none;stroke:#000000;stroke-width:2.0px;stroke-linecap:butt;stroke-linejoin:miter;stroke-miterlimit:10;stroke-opacity:1;"/>
<path d="M 242.8,89.2 L 244.3,88.8 L 244.7,87.4" style="fill:none;stroke:#000000;stroke-width:2.0px;stroke-linecap:butt;stroke-linejoin:miter;stroke-miterlimit:10;stroke-opacity:1;"/>
<path d="M 252.4,62.1 L 252.8,60.7 L 251.8,59.7" style="fill:none;stroke:#000000;stroke-width:2.0px;stroke-linecap:butt;stroke-linejoin:miter;stroke-miterlimit:10;stroke-opacity:1;"/>
<path d="M 205.6,45.6 L 204.1,46.0 L 203.7,47.4" style="fill:none;stroke:#000000;stroke-width:2.0px;stroke-linecap:butt;stroke-linejoin:miter;stroke-miterlimit:10;stroke-opacity:1;"/>
<path d="M 107.5,91.6 L 107.0,93.0 L 105.7,92.9" style="fill:none;stroke:#000000;stroke-width:2.0px;stroke-linecap:butt;stroke-linejoin:miter;stroke-miterlimit:10;stroke-opacity:1;"/>
<path d="M 94.9,47.5 L 96.2,46.7 L 97.3,47.7" style="fill:none;stroke:#000000;stroke-width:2.0px;stroke-linecap:butt;stroke-linejoin:miter;stroke-miterlimit:10;stroke-opacity:1;"/>
<path class="atom-0" d="M 151.7 31.2 Q 151.7 29.2, 152.7 28.1 Q 153.7 27.0, 155.5 27.0 Q 157.3 27.0, 158.3 28.1 Q 159.3 29.2, 159.3 31.2 Q 159.3 33.2, 158.3 34.4 Q 157.3 35.5, 155.5 35.5 Q 153.7 35.5, 152.7 34.4 Q 151.7 33.2, 151.7 31.2 M 155.5 34.6 Q 156.8 34.6, 157.4 33.7 Q 158.1 32.9, 158.1 31.2 Q 158.1 29.6, 157.4 28.8 Q 156.8 27.9, 155.5 27.9 Q 154.2 27.9, 153.5 28.7 Q 152.9 29.6, 152.9 31.2 Q 152.9 32.9, 153.5 33.7 Q 154.2 34.6, 155.5 34.6 " fill="#000000"/>
<path class="atom-2" d="M 165.2 76.6 L 167.9 81.0 Q 168.2 81.4, 168.6 82.2 Q 169.1 83.0, 169.1 83.0 L 169.1 76.6 L 170.2 76.6 L 170.2 84.9 L 169.0 84.9 L 166.1 80.1 Q 165.8 79.5, 165.4 78.8 Q 165.1 78.2, 165.0 78.0 L 165.0 84.9 L 163.9 84.9 L 163.9 76.6 L 165.2 76.6 " fill="#000000"/>
<path class="atom-2" d="M 163.8 85.7 L 164.9 85.7 L 164.9 89.2 L 169.2 89.2 L 169.2 85.7 L 170.3 85.7 L 170.3 94.0 L 169.2 94.0 L 169.2 90.2 L 164.9 90.2 L 164.9 94.0 L 163.8 94.0 L 163.8 85.7 " fill="#000000"/>
<path class="atom-8" d="M 242.5 11.0 Q 243.3 11.2, 243.7 11.7 Q 244.1 12.2, 244.1 12.9 Q 244.1 14.1, 243.3 14.7 Q 242.6 15.4, 241.2 15.4 L 238.4 15.4 L 238.4 7.1 L 240.9 7.1 Q 242.3 7.1, 243.0 7.6 Q 243.7 8.2, 243.7 9.3 Q 243.7 10.5, 242.5 11.0 M 239.6 8.0 L 239.6 10.6 L 240.9 10.6 Q 241.7 10.6, 242.1 10.3 Q 242.6 9.9, 242.6 9.3 Q 242.6 8.0, 240.9 8.0 L 239.6 8.0 M 241.2 14.4 Q 242.0 14.4, 242.5 14.1 Q 242.9 13.7, 242.9 12.9 Q 242.9 12.2, 242.4 11.9 Q 242.0 11.5, 241.1 11.5 L 239.6 11.5 L 239.6 14.4 L 241.2 14.4 " fill="#000000"/>
<path class="atom-8" d="M 246.0 9.3 L 246.1 10.2 Q 246.7 9.2, 247.8 9.2 Q 248.1 9.2, 248.5 9.4 L 248.4 10.3 Q 247.9 10.2, 247.6 10.2 Q 247.1 10.2, 246.8 10.4 Q 246.4 10.6, 246.2 11.1 L 246.2 15.4 L 245.1 15.4 L 245.1 9.3 L 246.0 9.3 " fill="#000000"/>
<path class="atom-12" d="M 75.4 93.3 Q 75.5 93.4, 75.8 93.5 Q 76.2 93.7, 76.7 93.8 Q 77.1 93.9, 77.5 93.9 Q 78.3 93.9, 78.8 93.5 Q 79.2 93.1, 79.2 92.5 Q 79.2 92.0, 79.0 91.7 Q 78.8 91.4, 78.4 91.3 Q 78.1 91.1, 77.5 91.0 Q 76.7 90.7, 76.3 90.5 Q 75.8 90.3, 75.5 89.9 Q 75.2 89.4, 75.2 88.7 Q 75.2 87.6, 75.9 87.0 Q 76.6 86.3, 78.1 86.3 Q 79.0 86.3, 80.1 86.8 L 79.8 87.7 Q 78.8 87.3, 78.1 87.3 Q 77.3 87.3, 76.8 87.6 Q 76.4 87.9, 76.4 88.5 Q 76.4 89.0, 76.6 89.2 Q 76.9 89.5, 77.2 89.7 Q 77.5 89.8, 78.1 90.0 Q 78.8 90.2, 79.3 90.5 Q 79.7 90.7, 80.1 91.2 Q 80.4 91.6, 80.4 92.5 Q 80.4 93.6, 79.6 94.2 Q 78.8 94.8, 77.6 94.8 Q 76.8 94.8, 76.3 94.7 Q 75.7 94.5, 75.1 94.3 L 75.4 93.3 " fill="#000000"/>
<path class="atom-14" d="M 42.2 46.3 L 44.9 50.7 Q 45.2 51.1, 45.6 51.9 Q 46.0 52.7, 46.1 52.8 L 46.1 46.3 L 47.2 46.3 L 47.2 54.6 L 46.0 54.6 L 43.1 49.8 Q 42.8 49.2, 42.4 48.6 Q 42.1 48.0, 41.9 47.8 L 41.9 54.6 L 40.9 54.6 L 40.9 46.3 L 42.2 46.3 " fill="#000000"/>
<path class="atom-14" d="M 48.7 47.8 L 50.2 47.8 L 50.2 46.3 L 50.9 46.3 L 50.9 47.8 L 52.4 47.8 L 52.4 48.4 L 50.9 48.4 L 50.9 49.9 L 50.2 49.9 L 50.2 48.4 L 48.7 48.4 L 48.7 47.8 " fill="#000000"/>
<path class="atom-15" d="M 16.8 68.2 Q 16.8 66.2, 17.8 65.1 Q 18.8 64.0, 20.6 64.0 Q 22.5 64.0, 23.4 65.1 Q 24.4 66.2, 24.4 68.2 Q 24.4 70.2, 23.4 71.4 Q 22.4 72.5, 20.6 72.5 Q 18.8 72.5, 17.8 71.4 Q 16.8 70.2, 16.8 68.2 M 20.6 71.6 Q 21.9 71.6, 22.6 70.7 Q 23.3 69.9, 23.3 68.2 Q 23.3 66.6, 22.6 65.7 Q 21.9 64.9, 20.6 64.9 Q 19.3 64.9, 18.6 65.7 Q 18.0 66.6, 18.0 68.2 Q 18.0 69.9, 18.6 70.7 Q 19.3 71.6, 20.6 71.6 " fill="#000000"/>
<path class="atom-16" d="M 36.6 21.4 Q 36.6 19.4, 37.6 18.3 Q 38.5 17.1, 40.4 17.1 Q 42.2 17.1, 43.2 18.3 Q 44.2 19.4, 44.2 21.4 Q 44.2 23.4, 43.2 24.5 Q 42.2 25.7, 40.4 25.7 Q 38.6 25.7, 37.6 24.5 Q 36.6 23.4, 36.6 21.4 M 40.4 24.7 Q 41.7 24.7, 42.3 23.9 Q 43.0 23.0, 43.0 21.4 Q 43.0 19.7, 42.3 18.9 Q 41.7 18.1, 40.4 18.1 Q 39.1 18.1, 38.4 18.9 Q 37.7 19.7, 37.7 21.4 Q 37.7 23.0, 38.4 23.9 Q 39.1 24.7, 40.4 24.7 " fill="#000000"/>
<path class="atom-16" d="M 45.4 18.5 L 48.2 18.5 L 48.2 19.1 L 45.4 19.1 L 45.4 18.5 " fill="#000000"/>
</svg>