<svg xmlns="http://www.w3.org/2000/svg" xmlns:rdkit="http://www.rdkit.org/xml" xmlns:xlink="http://www.w3.org/1999/xlink" version="1.1" baseProfile="full" xml:space="preserve" width="140px" height="70px" viewBox="0 0 140 70">
<!-- END OF HEADER -->
<rect style="opacity:1.0;fill:#FFFFFF;stroke:none" width="140.0" height="70.0" x="0.0" y="0.0"> </rect>
<path class="bond-0 atom-0 atom-1" d="M 130.7,37.1 L 115.9,62.6 L 108.7,58.5 L 123.5,32.9 Z" style="fill:#DADAFF;fill-rule:evenodd;fill-opacity:1;stroke:#DADAFF;stroke-width:2.0px;stroke-linecap:butt;stroke-linejoin:miter;stroke-miterlimit:10;stroke-opacity:1;"/>
<path class="bond-1 atom-1 atom-2" d="M 112.3,64.7 L 82.8,64.7 L 82.8,56.4 L 112.3,56.4 Z" style="fill:#DADAFF;fill-rule:evenodd;fill-opacity:1;stroke:#DADAFF;stroke-width:2.0px;stroke-linecap:butt;stroke-linejoin:miter;stroke-miterlimit:10;stroke-opacity:1;"/>
<path class="bond-2 atom-2 atom-3" d="M 79.2,62.6 L 64.4,37.1 L 71.6,32.9 L 86.4,58.5 Z" style="fill:#DADAFF;fill-rule:evenodd;fill-opacity:1;stroke:#DADAFF;stroke-width:2.0px;stroke-linecap:butt;stroke-linejoin:miter;stroke-miterlimit:10;stroke-opacity:1;"/>
<path class="bond-4 atom-4 atom-5" d="M 40.6,38.6 L 15.0,53.3 L 10.8,46.2 L 36.4,31.4 Z" style="fill:#D2D2FF;fill-rule:evenodd;fill-opacity:1;stroke:#D2D2FF;stroke-width:2.0px;stroke-linecap:butt;stroke-linejoin:miter;stroke-miterlimit:10;stroke-opacity:1;"/>
<path class="bond-5 atom-5 atom-6" d="M 8.8,49.8 L 8.8,20.2 L 17.0,20.2 L 17.0,49.8 Z" style="fill:#D2D2FF;fill-rule:evenodd;fill-opacity:1;stroke:#D2D2FF;stroke-width:2.0px;stroke-linecap:butt;stroke-linejoin:miter;stroke-miterlimit:10;stroke-opacity:1;"/>
<path class="bond-6 atom-3 atom-7" d="M 64.4,32.9 L 79.2,7.4 L 86.4,11.5 L 71.6,37.1 Z" style="fill:#DADAFF;fill-rule:evenodd;fill-opacity:1;stroke:#DADAFF;stroke-width:2.0px;stroke-linecap:butt;stroke-linejoin:miter;stroke-miterlimit:10;stroke-opacity:1;"/>
<path class="bond-7 atom-7 atom-8" d="M 82.8,5.3 L 112.3,5.3 L 112.3,13.6 L 82.8,13.6 Z" style="fill:#DADAFF;fill-rule:evenodd;fill-opacity:1;stroke:#DADAFF;stroke-width:2.0px;stroke-linecap:butt;stroke-linejoin:miter;stroke-miterlimit:10;stroke-opacity:1;"/>
<path class="bond-8 atom-8 atom-0" d="M 115.9,7.4 L 130.7,32.9 L 123.5,37.1 L 108.7,11.5 Z" style="fill:#DADAFF;fill-rule:evenodd;fill-opacity:1;stroke:#DADAFF;stroke-width:2.0px;stroke-linecap:butt;stroke-linejoin:miter;stroke-miterlimit:10;stroke-opacity:1;"/>
<path class="bond-9 atom-6 atom-4" d="M 15.0,16.7 L 40.6,31.4 L 36.4,38.6 L 10.8,23.8 Z" style="fill:#D2D2FF;fill-rule:evenodd;fill-opacity:1;stroke:#D2D2FF;stroke-width:2.0px;stroke-linecap:butt;stroke-linejoin:miter;stroke-miterlimit:10;stroke-opacity:1;"/>
<ellipse cx="127.1" cy="35.0" rx="5.9" ry="5.9" class="atom-0" style="fill:#DADAFF;fill-rule:evenodd;stroke:#DADAFF;stroke-width:1.0px;stroke-linecap:butt;stroke-linejoin:miter;stroke-opacity:1"/>
<ellipse cx="112.3" cy="60.6" rx="5.9" ry="5.9" class="atom-1" style="fill:#DADAFF;fill-rule:evenodd;stroke:#DADAFF;stroke-width:1.0px;stroke-linecap:butt;stroke-linejoin:miter;stroke-opacity:1"/>
<ellipse cx="82.8" cy="60.6" rx="5.9" ry="5.9" class="atom-2" style="fill:#DADAFF;fill-rule:evenodd;stroke:#DADAFF;stroke-width:1.0px;stroke-linecap:butt;stroke-linejoin:miter;stroke-opacity:1"/>
<ellipse cx="68.0" cy="35.0" rx="5.9" ry="5.9" class="atom-3" style="fill:#DADAFF;fill-rule:evenodd;stroke:#DADAFF;stroke-width:1.0px;stroke-linecap:butt;stroke-linejoin:miter;stroke-opacity:1"/>
<ellipse cx="38.5" cy="35.0" rx="5.9" ry="5.9" class="atom-4" style="fill:#D2D2FF;fill-rule:evenodd;stroke:#D2D2FF;stroke-width:1.0px;stroke-linecap:butt;stroke-linejoin:miter;stroke-opacity:1"/>
<ellipse cx="12.9" cy="49.8" rx="5.9" ry="5.9" class="atom-5" style="fill:#D2D2FF;fill-rule:evenodd;stroke:#D2D2FF;stroke-width:1.0px;stroke-linecap:butt;stroke-linejoin:miter;stroke-opacity:1"/>
<ellipse cx="12.9" cy="20.2" rx="5.9" ry="5.9" class="atom-6" style="fill:#D2D2FF;fill-rule:evenodd;stroke:#D2D2FF;stroke-width:1.0px;stroke-linecap:butt;stroke-linejoin:miter;stroke-opacity:1"/>
<ellipse cx="82.8" cy="9.4" rx="5.9" ry="5.9" class="atom-7" style="fill:#DADAFF;fill-rule:evenodd;stroke:#DADAFF;stroke-width:1.0px;stroke-linecap:butt;stroke-linejoin:miter;stroke-opacity:1"/>
<ellipse cx="112.3" cy="9.4" rx="5.9" ry="5.9" class="atom-8" style="fill:#DADAFF;fill-rule:evenodd;stroke:#DADAFF;stroke-width:1.0px;stroke-linecap:butt;stroke-linejoin:miter;stroke-opacity:1"/>
<path class="bond-0 atom-0 atom-1" d="M 127.1,35.0 L 112.3,60.6" style="fill:none;fill-rule:evenodd;stroke:#000000;stroke-width:2.0px;stroke-linecap:butt;stroke-linejoin:miter;stroke-opacity:1"/>
<path class="bond-0 atom-0 atom-1" d="M 122.0,35.0 L 109.8,56.1" style="fill:none;fill-rule:evenodd;stroke:#000000;stroke-width:2.0px;stroke-linecap:butt;stroke-linejoin:miter;stroke-opacity:1"/>
<path class="bond-1 atom-1 atom-2" d="M 112.3,60.6 L 82.8,60.6" style="fill:none;fill-rule:evenodd;stroke:#000000;stroke-width:2.0px;stroke-linecap:butt;stroke-linejoin:miter;stroke-opacity:1"/>
<path class="bond-2 atom-2 atom-3" d="M 82.8,60.6 L 68.0,35.0" style="fill:none;fill-rule:evenodd;stroke:#000000;stroke-width:2.0px;stroke-linecap:butt;stroke-linejoin:miter;stroke-opacity:1"/>
<path class="bond-2 atom-2 atom-3" d="M 85.3,56.1 L 73.1,35.0" style="fill:none;fill-rule:evenodd;stroke:#000000;stroke-width:2.0px;stroke-linecap:butt;stroke-linejoin:miter;stroke-opacity:1"/>
<path class="bond-3 atom-3 atom-4" d="M 68.0,35.0 L 38.5,35.0" style="fill:none;fill-rule:evenodd;stroke:#000000;stroke-width:2.0px;stroke-linecap:butt;stroke-linejoin:miter;stroke-opacity:1"/>
<path class="bond-4 atom-4 atom-5" d="M 38.5,35.0 L 12.9,49.8" style="fill:none;fill-rule:evenodd;stroke:#000000;stroke-width:2.0px;stroke-linecap:butt;stroke-linejoin:miter;stroke-opacity:1"/>
<path class="bond-5 atom-5 atom-6" d="M 12.9,49.8 L 12.9,20.2" style="fill:none;fill-rule:evenodd;stroke:#000000;stroke-width:2.0px;stroke-linecap:butt;stroke-linejoin:miter;stroke-opacity:1"/>
<path class="bond-6 atom-3 atom-7" d="M 68.0,35.0 L 82.8,9.4" style="fill:none;fill-rule:evenodd;stroke:#000000;stroke-width:2.0px;stroke-linecap:butt;stroke-linejoin:miter;stroke-opacity:1"/>
<path class="bond-7 atom-7 atom-8" d="M 82.8,9.4 L 112.3,9.4" style="fill:none;fill-rule:evenodd;stroke:#000000;stroke-width:2.0px;stroke-linecap:butt;stroke-linejoin:miter;stroke-opacity:1"/>
<path class="bond-7 atom-7 atom-8" d="M 85.3,13.9 L 109.8,13.9" style="fill:none;fill-rule:evenodd;stroke:#000000;stroke-width:2.0px;stroke-linecap:butt;stroke-linejoin:miter;stroke-opacity:1"/>
<path class="bond-8 atom-8 atom-0" d="M 112.3,9.4 L 127.1,35.0" style="fill:none;fill-rule:evenodd;stroke:#000000;stroke-width:2.0px;stroke-linecap:butt;stroke-linejoin:miter;stroke-opacity:1"/>
<path class="bond-9 atom-6 atom-4" d="M 12.9,20.2 L 38.5,35.0" style="fill:none;fill-rule:evenodd;stroke:#000000;stroke-width:2.0px;stroke-linecap:butt;stroke-linejoin:miter;stroke-opacity:1"/>
<path d="M 126.4,36.3 L 127.1,35.0 L 126.4,33.7" style="fill:none;stroke:#000000;stroke-width:2.0px;stroke-linecap:butt;stroke-linejoin:miter;stroke-miterlimit:10;stroke-opacity:1;"/>
<path d="M 113.1,59.3 L 112.3,60.6 L 110.8,60.6" style="fill:none;stroke:#000000;stroke-width:2.0px;stroke-linecap:butt;stroke-linejoin:miter;stroke-miterlimit:10;stroke-opacity:1;"/>
<path d="M 84.3,60.6 L 82.8,60.6 L 82.1,59.3" style="fill:none;stroke:#000000;stroke-width:2.0px;stroke-linecap:butt;stroke-linejoin:miter;stroke-miterlimit:10;stroke-opacity:1;"/>
<path d="M 14.2,49.0 L 12.9,49.8 L 12.9,48.3" style="fill:none;stroke:#000000;stroke-width:2.0px;stroke-linecap:butt;stroke-linejoin:miter;stroke-miterlimit:10;stroke-opacity:1;"/>
<path d="M 12.9,21.7 L 12.9,20.2 L 14.2,21.0" style="fill:none;stroke:#000000;stroke-width:2.0px;stroke-linecap:butt;stroke-linejoin:miter;stroke-miterlimit:10;stroke-opacity:1;"/>
<path d="M 82.1,10.7 L 82.8,9.4 L 84.3,9.4" style="fill:none;stroke:#000000;stroke-width:2.0px;stroke-linecap:butt;stroke-linejoin:miter;stroke-miterlimit:10;stroke-opacity:1;"/>
<path d="M 110.8,9.4 L 112.3,9.4 L 113.1,10.7" style="fill:none;stroke:#000000;stroke-width:2.0px;stroke-linecap:butt;stroke-linejoin:miter;stroke-miterlimit:10;stroke-opacity:1;"/>
</svg>