<svg xmlns="http://www.w3.org/2000/svg" xmlns:rdkit="http://www.rdkit.org/xml" xmlns:xlink="http://www.w3.org/1999/xlink" version="1.1" baseProfile="full" xml:space="preserve" width="366px" height="70px" viewBox="0 0 366 70">
<!-- END OF HEADER -->
<rect style="opacity:1.0;fill:#FFFFFF;stroke:none" width="366.0" height="70.0" x="0.0" y="0.0"> </rect>
<path class="bond-0 atom-0 atom-1" d="M 330.3,39.1 L 300.7,39.1 L 300.7,30.9 L 330.3,30.9 Z" style="fill:#FFBCBC;fill-rule:evenodd;fill-opacity:1;stroke:#FFBCBC;stroke-width:2.0px;stroke-linecap:butt;stroke-linejoin:miter;stroke-miterlimit:10;stroke-opacity:1;"/>
<path class="bond-1 atom-1 atom-2" d="M 304.3,37.1 L 289.5,62.7 L 282.4,58.5 L 297.2,32.9 Z" style="fill:#FFBCBC;fill-rule:evenodd;fill-opacity:1;stroke:#FFBCBC;stroke-width:2.0px;stroke-linecap:butt;stroke-linejoin:miter;stroke-miterlimit:10;stroke-opacity:1;"/>
<path class="bond-2 atom-2 atom-3" d="M 286.0,64.7 L 256.4,64.7 L 256.4,56.5 L 286.0,56.5 Z" style="fill:#FFBCBC;fill-rule:evenodd;fill-opacity:1;stroke:#FFBCBC;stroke-width:2.0px;stroke-linecap:butt;stroke-linejoin:miter;stroke-miterlimit:10;stroke-opacity:1;"/>
<path class="bond-3 atom-3 atom-4" d="M 252.8,62.7 L 238.1,37.1 L 245.2,32.9 L 260.0,58.5 Z" style="fill:#FFBCBC;fill-rule:evenodd;fill-opacity:1;stroke:#FFBCBC;stroke-width:2.0px;stroke-linecap:butt;stroke-linejoin:miter;stroke-miterlimit:10;stroke-opacity:1;"/>
<path class="bond-5 atom-5 atom-6" d="M 208.5,37.1 L 193.7,11.5 L 200.9,7.3 L 215.7,32.9 Z" style="fill:#FFF8F8;fill-rule:evenodd;fill-opacity:1;stroke:#FFF8F8;stroke-width:2.0px;stroke-linecap:butt;stroke-linejoin:miter;stroke-miterlimit:10;stroke-opacity:1;"/>
<path class="bond-6 atom-6 atom-7" d="M 197.3,13.5 L 167.8,13.5 L 167.8,5.3 L 197.3,5.3 Z" style="fill:#FFF8F8;fill-rule:evenodd;fill-opacity:1;stroke:#FFF8F8;stroke-width:2.0px;stroke-linecap:butt;stroke-linejoin:miter;stroke-miterlimit:10;stroke-opacity:1;"/>
<path class="bond-7 atom-7 atom-8" d="M 171.4,11.5 L 156.6,37.1 L 149.4,32.9 L 164.2,7.3 Z" style="fill:#FFF8F8;fill-rule:evenodd;fill-opacity:1;stroke:#FFF8F8;stroke-width:2.0px;stroke-linecap:butt;stroke-linejoin:miter;stroke-miterlimit:10;stroke-opacity:1;"/>
<path class="bond-9 atom-9 atom-10" d="M 119.9,37.1 L 105.1,11.5 L 112.3,7.3 L 127.0,32.9 Z" style="fill:#FFBCBC;fill-rule:evenodd;fill-opacity:1;stroke:#FFBCBC;stroke-width:2.0px;stroke-linecap:butt;stroke-linejoin:miter;stroke-miterlimit:10;stroke-opacity:1;"/>
<path class="bond-10 atom-10 atom-11" d="M 108.7,13.5 L 79.1,13.5 L 79.1,5.3 L 108.7,5.3 Z" style="fill:#FFBCBC;fill-rule:evenodd;fill-opacity:1;stroke:#FFBCBC;stroke-width:2.0px;stroke-linecap:butt;stroke-linejoin:miter;stroke-miterlimit:10;stroke-opacity:1;"/>
<path class="bond-11 atom-11 atom-12" d="M 82.7,11.5 L 67.9,37.1 L 60.8,32.9 L 75.5,7.3 Z" style="fill:#FFBCBC;fill-rule:evenodd;fill-opacity:1;stroke:#FFBCBC;stroke-width:2.0px;stroke-linecap:butt;stroke-linejoin:miter;stroke-miterlimit:10;stroke-opacity:1;"/>
<path class="bond-12 atom-12 atom-13" d="M 64.3,39.1 L 34.8,39.1 L 34.8,30.9 L 64.3,30.9 Z" style="fill:#FFBCBC;fill-rule:evenodd;fill-opacity:1;stroke:#FFBCBC;stroke-width:2.0px;stroke-linecap:butt;stroke-linejoin:miter;stroke-miterlimit:10;stroke-opacity:1;"/>
<path class="bond-13 atom-12 atom-14" d="M 67.9,32.9 L 82.7,58.5 L 75.5,62.7 L 60.8,37.1 Z" style="fill:#FFBCBC;fill-rule:evenodd;fill-opacity:1;stroke:#FFBCBC;stroke-width:2.0px;stroke-linecap:butt;stroke-linejoin:miter;stroke-miterlimit:10;stroke-opacity:1;"/>
<path class="bond-14 atom-14 atom-15" d="M 79.1,56.5 L 108.7,56.5 L 108.7,64.7 L 79.1,64.7 Z" style="fill:#FFBCBC;fill-rule:evenodd;fill-opacity:1;stroke:#FFBCBC;stroke-width:2.0px;stroke-linecap:butt;stroke-linejoin:miter;stroke-miterlimit:10;stroke-opacity:1;"/>
<path class="bond-15 atom-8 atom-16" d="M 156.6,32.9 L 171.4,58.5 L 164.2,62.7 L 149.4,37.1 Z" style="fill:#FFF8F8;fill-rule:evenodd;fill-opacity:1;stroke:#FFF8F8;stroke-width:2.0px;stroke-linecap:butt;stroke-linejoin:miter;stroke-miterlimit:10;stroke-opacity:1;"/>
<path class="bond-16 atom-16 atom-17" d="M 167.8,56.5 L 197.3,56.5 L 197.3,64.7 L 167.8,64.7 Z" style="fill:#FFF8F8;fill-rule:evenodd;fill-opacity:1;stroke:#FFF8F8;stroke-width:2.0px;stroke-linecap:butt;stroke-linejoin:miter;stroke-miterlimit:10;stroke-opacity:1;"/>
<path class="bond-17 atom-4 atom-18" d="M 238.1,32.9 L 252.8,7.3 L 260.0,11.5 L 245.2,37.1 Z" style="fill:#FFBCBC;fill-rule:evenodd;fill-opacity:1;stroke:#FFBCBC;stroke-width:2.0px;stroke-linecap:butt;stroke-linejoin:miter;stroke-miterlimit:10;stroke-opacity:1;"/>
<path class="bond-18 atom-18 atom-19" d="M 256.4,5.3 L 286.0,5.3 L 286.0,13.5 L 256.4,13.5 Z" style="fill:#FFBCBC;fill-rule:evenodd;fill-opacity:1;stroke:#FFBCBC;stroke-width:2.0px;stroke-linecap:butt;stroke-linejoin:miter;stroke-miterlimit:10;stroke-opacity:1;"/>
<path class="bond-19 atom-19 atom-1" d="M 289.5,7.3 L 304.3,32.9 L 297.2,37.1 L 282.4,11.5 Z" style="fill:#FFBCBC;fill-rule:evenodd;fill-opacity:1;stroke:#FFBCBC;stroke-width:2.0px;stroke-linecap:butt;stroke-linejoin:miter;stroke-miterlimit:10;stroke-opacity:1;"/>
<path class="bond-20 atom-17 atom-5" d="M 193.7,58.5 L 208.5,32.9 L 215.7,37.1 L 200.9,62.7 Z" style="fill:#FFF8F8;fill-rule:evenodd;fill-opacity:1;stroke:#FFF8F8;stroke-width:2.0px;stroke-linecap:butt;stroke-linejoin:miter;stroke-miterlimit:10;stroke-opacity:1;"/>
<path class="bond-21 atom-15 atom-9" d="M 105.1,58.5 L 119.9,32.9 L 127.0,37.1 L 112.3,62.7 Z" style="fill:#FFBCBC;fill-rule:evenodd;fill-opacity:1;stroke:#FFBCBC;stroke-width:2.0px;stroke-linecap:butt;stroke-linejoin:miter;stroke-miterlimit:10;stroke-opacity:1;"/>
<ellipse cx="330.3" cy="35.0" rx="5.9" ry="5.9" class="atom-0" style="fill:#FFBCBC;fill-rule:evenodd;stroke:#FFBCBC;stroke-width:1.0px;stroke-linecap:butt;stroke-linejoin:miter;stroke-opacity:1"/>
<ellipse cx="300.7" cy="35.0" rx="5.9" ry="5.9" class="atom-1" style="fill:#FFBCBC;fill-rule:evenodd;stroke:#FFBCBC;stroke-width:1.0px;stroke-linecap:butt;stroke-linejoin:miter;stroke-opacity:1"/>
<ellipse cx="286.0" cy="60.6" rx="5.9" ry="5.9" class="atom-2" style="fill:#FFBCBC;fill-rule:evenodd;stroke:#FFBCBC;stroke-width:1.0px;stroke-linecap:butt;stroke-linejoin:miter;stroke-opacity:1"/>
<ellipse cx="256.4" cy="60.6" rx="5.9" ry="5.9" class="atom-3" style="fill:#FFBCBC;fill-rule:evenodd;stroke:#FFBCBC;stroke-width:1.0px;stroke-linecap:butt;stroke-linejoin:miter;stroke-opacity:1"/>
<ellipse cx="241.6" cy="35.0" rx="5.9" ry="5.9" class="atom-4" style="fill:#FFBCBC;fill-rule:evenodd;stroke:#FFBCBC;stroke-width:1.0px;stroke-linecap:butt;stroke-linejoin:miter;stroke-opacity:1"/>
<ellipse cx="212.1" cy="35.0" rx="5.9" ry="5.9" class="atom-5" style="fill:#FFF8F8;fill-rule:evenodd;stroke:#FFF8F8;stroke-width:1.0px;stroke-linecap:butt;stroke-linejoin:miter;stroke-opacity:1"/>
<ellipse cx="197.3" cy="9.4" rx="5.9" ry="5.9" class="atom-6" style="fill:#FFF8F8;fill-rule:evenodd;stroke:#FFF8F8;stroke-width:1.0px;stroke-linecap:butt;stroke-linejoin:miter;stroke-opacity:1"/>
<ellipse cx="167.8" cy="9.4" rx="5.9" ry="5.9" class="atom-7" style="fill:#FFF8F8;fill-rule:evenodd;stroke:#FFF8F8;stroke-width:1.0px;stroke-linecap:butt;stroke-linejoin:miter;stroke-opacity:1"/>
<ellipse cx="153.0" cy="35.0" rx="5.9" ry="5.9" class="atom-8" style="fill:#FFF8F8;fill-rule:evenodd;stroke:#FFF8F8;stroke-width:1.0px;stroke-linecap:butt;stroke-linejoin:miter;stroke-opacity:1"/>
<ellipse cx="123.4" cy="35.0" rx="5.9" ry="5.9" class="atom-9" style="fill:#FFBCBC;fill-rule:evenodd;stroke:#FFBCBC;stroke-width:1.0px;stroke-linecap:butt;stroke-linejoin:miter;stroke-opacity:1"/>
<ellipse cx="108.7" cy="9.4" rx="5.9" ry="5.9" class="atom-10" style="fill:#FFBCBC;fill-rule:evenodd;stroke:#FFBCBC;stroke-width:1.0px;stroke-linecap:butt;stroke-linejoin:miter;stroke-opacity:1"/>
<ellipse cx="79.1" cy="9.4" rx="5.9" ry="5.9" class="atom-11" style="fill:#FFBCBC;fill-rule:evenodd;stroke:#FFBCBC;stroke-width:1.0px;stroke-linecap:butt;stroke-linejoin:miter;stroke-opacity:1"/>
<ellipse cx="64.3" cy="35.0" rx="5.9" ry="5.9" class="atom-12" style="fill:#FFBCBC;fill-rule:evenodd;stroke:#FFBCBC;stroke-width:1.0px;stroke-linecap:butt;stroke-linejoin:miter;stroke-opacity:1"/>
<ellipse cx="34.8" cy="35.0" rx="5.9" ry="5.9" class="atom-13" style="fill:#FFBCBC;fill-rule:evenodd;stroke:#FFBCBC;stroke-width:1.0px;stroke-linecap:butt;stroke-linejoin:miter;stroke-opacity:1"/>
<ellipse cx="79.1" cy="60.6" rx="5.9" ry="5.9" class="atom-14" style="fill:#FFBCBC;fill-rule:evenodd;stroke:#FFBCBC;stroke-width:1.0px;stroke-linecap:butt;stroke-linejoin:miter;stroke-opacity:1"/>
<ellipse cx="108.7" cy="60.6" rx="5.9" ry="5.9" class="atom-15" style="fill:#FFBCBC;fill-rule:evenodd;stroke:#FFBCBC;stroke-width:1.0px;stroke-linecap:butt;stroke-linejoin:miter;stroke-opacity:1"/>
<ellipse cx="167.8" cy="60.6" rx="5.9" ry="5.9" class="atom-16" style="fill:#FFF8F8;fill-rule:evenodd;stroke:#FFF8F8;stroke-width:1.0px;stroke-linecap:butt;stroke-linejoin:miter;stroke-opacity:1"/>
<ellipse cx="197.3" cy="60.6" rx="5.9" ry="5.9" class="atom-17" style="fill:#FFF8F8;fill-rule:evenodd;stroke:#FFF8F8;stroke-width:1.0px;stroke-linecap:butt;stroke-linejoin:miter;stroke-opacity:1"/>
<ellipse cx="256.4" cy="9.4" rx="5.9" ry="5.9" class="atom-18" style="fill:#FFBCBC;fill-rule:evenodd;stroke:#FFBCBC;stroke-width:1.0px;stroke-linecap:butt;stroke-linejoin:miter;stroke-opacity:1"/>
<ellipse cx="286.0" cy="9.4" rx="5.9" ry="5.9" class="atom-19" style="fill:#FFBCBC;fill-rule:evenodd;stroke:#FFBCBC;stroke-width:1.0px;stroke-linecap:butt;stroke-linejoin:miter;stroke-opacity:1"/>
<path class="bond-0 atom-0 atom-1" d="M 326.1,35.0 L 300.7,35.0" style="fill:none;fill-rule:evenodd;stroke:#000000;stroke-width:2.0px;stroke-linecap:butt;stroke-linejoin:miter;stroke-opacity:1"/>
<path class="bond-1 atom-1 atom-2" d="M 300.7,35.0 L 286.0,60.6" style="fill:none;fill-rule:evenodd;stroke:#000000;stroke-width:2.0px;stroke-linecap:butt;stroke-linejoin:miter;stroke-opacity:1"/>
<path class="bond-1 atom-1 atom-2" d="M 295.6,35.0 L 283.4,56.2" style="fill:none;fill-rule:evenodd;stroke:#000000;stroke-width:2.0px;stroke-linecap:butt;stroke-linejoin:miter;stroke-opacity:1"/>
<path class="bond-2 atom-2 atom-3" d="M 286.0,60.6 L 256.4,60.6" style="fill:none;fill-rule:evenodd;stroke:#000000;stroke-width:2.0px;stroke-linecap:butt;stroke-linejoin:miter;stroke-opacity:1"/>
<path class="bond-3 atom-3 atom-4" d="M 256.4,60.6 L 241.6,35.0" style="fill:none;fill-rule:evenodd;stroke:#000000;stroke-width:2.0px;stroke-linecap:butt;stroke-linejoin:miter;stroke-opacity:1"/>
<path class="bond-3 atom-3 atom-4" d="M 259.0,56.2 L 246.8,35.0" style="fill:none;fill-rule:evenodd;stroke:#000000;stroke-width:2.0px;stroke-linecap:butt;stroke-linejoin:miter;stroke-opacity:1"/>
<path class="bond-4 atom-4 atom-5" d="M 241.6,35.0 L 212.1,35.0" style="fill:none;fill-rule:evenodd;stroke:#000000;stroke-width:2.0px;stroke-linecap:butt;stroke-linejoin:miter;stroke-opacity:1"/>
<path class="bond-5 atom-5 atom-6" d="M 212.1,35.0 L 197.3,9.4" style="fill:none;fill-rule:evenodd;stroke:#000000;stroke-width:2.0px;stroke-linecap:butt;stroke-linejoin:miter;stroke-opacity:1"/>
<path class="bond-5 atom-5 atom-6" d="M 207.0,35.0 L 194.8,13.8" style="fill:none;fill-rule:evenodd;stroke:#000000;stroke-width:2.0px;stroke-linecap:butt;stroke-linejoin:miter;stroke-opacity:1"/>
<path class="bond-6 atom-6 atom-7" d="M 197.3,9.4 L 167.8,9.4" style="fill:none;fill-rule:evenodd;stroke:#000000;stroke-width:2.0px;stroke-linecap:butt;stroke-linejoin:miter;stroke-opacity:1"/>
<path class="bond-7 atom-7 atom-8" d="M 167.8,9.4 L 153.0,35.0" style="fill:none;fill-rule:evenodd;stroke:#000000;stroke-width:2.0px;stroke-linecap:butt;stroke-linejoin:miter;stroke-opacity:1"/>
<path class="bond-7 atom-7 atom-8" d="M 170.3,13.8 L 158.1,35.0" style="fill:none;fill-rule:evenodd;stroke:#000000;stroke-width:2.0px;stroke-linecap:butt;stroke-linejoin:miter;stroke-opacity:1"/>
<path class="bond-8 atom-8 atom-9" d="M 153.0,35.0 L 123.4,35.0" style="fill:none;fill-rule:evenodd;stroke:#000000;stroke-width:2.0px;stroke-linecap:butt;stroke-linejoin:miter;stroke-opacity:1"/>
<path class="bond-9 atom-9 atom-10" d="M 123.4,35.0 L 108.7,9.4" style="fill:none;fill-rule:evenodd;stroke:#000000;stroke-width:2.0px;stroke-linecap:butt;stroke-linejoin:miter;stroke-opacity:1"/>
<path class="bond-9 atom-9 atom-10" d="M 118.3,35.0 L 106.1,13.8" style="fill:none;fill-rule:evenodd;stroke:#000000;stroke-width:2.0px;stroke-linecap:butt;stroke-linejoin:miter;stroke-opacity:1"/>
<path class="bond-10 atom-10 atom-11" d="M 108.7,9.4 L 79.1,9.4" style="fill:none;fill-rule:evenodd;stroke:#000000;stroke-width:2.0px;stroke-linecap:butt;stroke-linejoin:miter;stroke-opacity:1"/>
<path class="bond-11 atom-11 atom-12" d="M 79.1,9.4 L 64.3,35.0" style="fill:none;fill-rule:evenodd;stroke:#000000;stroke-width:2.0px;stroke-linecap:butt;stroke-linejoin:miter;stroke-opacity:1"/>
<path class="bond-11 atom-11 atom-12" d="M 81.7,13.8 L 69.5,35.0" style="fill:none;fill-rule:evenodd;stroke:#000000;stroke-width:2.0px;stroke-linecap:butt;stroke-linejoin:miter;stroke-opacity:1"/>
<path class="bond-12 atom-12 atom-13" d="M 64.3,35.0 L 38.9,35.0" style="fill:none;fill-rule:evenodd;stroke:#000000;stroke-width:2.0px;stroke-linecap:butt;stroke-linejoin:miter;stroke-opacity:1"/>
<path class="bond-13 atom-12 atom-14" d="M 64.3,35.0 L 79.1,60.6" style="fill:none;fill-rule:evenodd;stroke:#000000;stroke-width:2.0px;stroke-linecap:butt;stroke-linejoin:miter;stroke-opacity:1"/>
<path class="bond-14 atom-14 atom-15" d="M 79.1,60.6 L 108.7,60.6" style="fill:none;fill-rule:evenodd;stroke:#000000;stroke-width:2.0px;stroke-linecap:butt;stroke-linejoin:miter;stroke-opacity:1"/>
<path class="bond-14 atom-14 atom-15" d="M 81.7,56.2 L 106.1,56.2" style="fill:none;fill-rule:evenodd;stroke:#000000;stroke-width:2.0px;stroke-linecap:butt;stroke-linejoin:miter;stroke-opacity:1"/>
<path class="bond-15 atom-8 atom-16" d="M 153.0,35.0 L 167.8,60.6" style="fill:none;fill-rule:evenodd;stroke:#000000;stroke-width:2.0px;stroke-linecap:butt;stroke-linejoin:miter;stroke-opacity:1"/>
<path class="bond-16 atom-16 atom-17" d="M 167.8,60.6 L 197.3,60.6" style="fill:none;fill-rule:evenodd;stroke:#000000;stroke-width:2.0px;stroke-linecap:butt;stroke-linejoin:miter;stroke-opacity:1"/>
<path class="bond-16 atom-16 atom-17" d="M 170.3,56.2 L 194.8,56.2" style="fill:none;fill-rule:evenodd;stroke:#000000;stroke-width:2.0px;stroke-linecap:butt;stroke-linejoin:miter;stroke-opacity:1"/>
<path class="bond-17 atom-4 atom-18" d="M 241.6,35.0 L 256.4,9.4" style="fill:none;fill-rule:evenodd;stroke:#000000;stroke-width:2.0px;stroke-linecap:butt;stroke-linejoin:miter;stroke-opacity:1"/>
<path class="bond-18 atom-18 atom-19" d="M 256.4,9.4 L 286.0,9.4" style="fill:none;fill-rule:evenodd;stroke:#000000;stroke-width:2.0px;stroke-linecap:butt;stroke-linejoin:miter;stroke-opacity:1"/>
<path class="bond-18 atom-18 atom-19" d="M 259.0,13.8 L 283.4,13.8" style="fill:none;fill-rule:evenodd;stroke:#000000;stroke-width:2.0px;stroke-linecap:butt;stroke-linejoin:miter;stroke-opacity:1"/>
<path class="bond-19 atom-19 atom-1" d="M 286.0,9.4 L 300.7,35.0" style="fill:none;fill-rule:evenodd;stroke:#000000;stroke-width:2.0px;stroke-linecap:butt;stroke-linejoin:miter;stroke-opacity:1"/>
<path class="bond-20 atom-17 atom-5" d="M 197.3,60.6 L 212.1,35.0" style="fill:none;fill-rule:evenodd;stroke:#000000;stroke-width:2.0px;stroke-linecap:butt;stroke-linejoin:miter;stroke-opacity:1"/>
<path class="bond-21 atom-15 atom-9" d="M 108.7,60.6 L 123.4,35.0" style="fill:none;fill-rule:evenodd;stroke:#000000;stroke-width:2.0px;stroke-linecap:butt;stroke-linejoin:miter;stroke-opacity:1"/>
<path d="M 286.7,59.3 L 286.0,60.6 L 284.5,60.6" style="fill:none;stroke:#000000;stroke-width:2.0px;stroke-linecap:butt;stroke-linejoin:miter;stroke-miterlimit:10;stroke-opacity:1;"/>
<path d="M 257.9,60.6 L 256.4,60.6 L 255.7,59.3" style="fill:none;stroke:#000000;stroke-width:2.0px;stroke-linecap:butt;stroke-linejoin:miter;stroke-miterlimit:10;stroke-opacity:1;"/>
<path d="M 198.1,10.7 L 197.3,9.4 L 195.8,9.4" style="fill:none;stroke:#000000;stroke-width:2.0px;stroke-linecap:butt;stroke-linejoin:miter;stroke-miterlimit:10;stroke-opacity:1;"/>
<path d="M 169.2,9.4 L 167.8,9.4 L 167.0,10.7" style="fill:none;stroke:#000000;stroke-width:2.0px;stroke-linecap:butt;stroke-linejoin:miter;stroke-miterlimit:10;stroke-opacity:1;"/>
<path d="M 109.4,10.7 L 108.7,9.4 L 107.2,9.4" style="fill:none;stroke:#000000;stroke-width:2.0px;stroke-linecap:butt;stroke-linejoin:miter;stroke-miterlimit:10;stroke-opacity:1;"/>
<path d="M 80.6,9.4 L 79.1,9.4 L 78.4,10.7" style="fill:none;stroke:#000000;stroke-width:2.0px;stroke-linecap:butt;stroke-linejoin:miter;stroke-miterlimit:10;stroke-opacity:1;"/>
<path d="M 78.4,59.3 L 79.1,60.6 L 80.6,60.6" style="fill:none;stroke:#000000;stroke-width:2.0px;stroke-linecap:butt;stroke-linejoin:miter;stroke-miterlimit:10;stroke-opacity:1;"/>
<path d="M 107.2,60.6 L 108.7,60.6 L 109.4,59.3" style="fill:none;stroke:#000000;stroke-width:2.0px;stroke-linecap:butt;stroke-linejoin:miter;stroke-miterlimit:10;stroke-opacity:1;"/>
<path d="M 167.0,59.3 L 167.8,60.6 L 169.2,60.6" style="fill:none;stroke:#000000;stroke-width:2.0px;stroke-linecap:butt;stroke-linejoin:miter;stroke-miterlimit:10;stroke-opacity:1;"/>
<path d="M 195.8,60.6 L 197.3,60.6 L 198.1,59.3" style="fill:none;stroke:#000000;stroke-width:2.0px;stroke-linecap:butt;stroke-linejoin:miter;stroke-miterlimit:10;stroke-opacity:1;"/>
<path d="M 255.7,10.7 L 256.4,9.4 L 257.9,9.4" style="fill:none;stroke:#000000;stroke-width:2.0px;stroke-linecap:butt;stroke-linejoin:miter;stroke-miterlimit:10;stroke-opacity:1;"/>
<path d="M 284.5,9.4 L 286.0,9.4 L 286.7,10.7" style="fill:none;stroke:#000000;stroke-width:2.0px;stroke-linecap:butt;stroke-linejoin:miter;stroke-miterlimit:10;stroke-opacity:1;"/>
<path class="atom-0" d="M 328.4 30.8 L 331.2 35.2 Q 331.5 35.7, 331.9 36.5 Q 332.3 37.3, 332.4 37.3 L 332.4 30.8 L 333.5 30.8 L 333.5 39.2 L 332.3 39.2 L 329.4 34.3 Q 329.0 33.8, 328.7 33.1 Q 328.3 32.5, 328.2 32.3 L 328.2 39.2 L 327.1 39.2 L 327.1 30.8 L 328.4 30.8 " fill="#000000"/>
<path class="atom-0" d="M 335.1 30.8 L 336.2 30.8 L 336.2 34.4 L 340.5 34.4 L 340.5 30.8 L 341.6 30.8 L 341.6 39.2 L 340.5 39.2 L 340.5 35.3 L 336.2 35.3 L 336.2 39.2 L 335.1 39.2 L 335.1 30.8 " fill="#000000"/>
<path class="atom-0" d="M 343.2 38.9 Q 343.4 38.4, 343.9 38.1 Q 344.4 37.8, 345.1 37.8 Q 345.9 37.8, 346.4 38.2 Q 346.9 38.7, 346.9 39.5 Q 346.9 40.3, 346.3 41.1 Q 345.6 41.8, 344.4 42.7 L 347.0 42.7 L 347.0 43.4 L 343.2 43.4 L 343.2 42.8 Q 344.3 42.1, 344.9 41.6 Q 345.5 41.0, 345.8 40.5 Q 346.1 40.0, 346.1 39.5 Q 346.1 39.0, 345.8 38.7 Q 345.5 38.4, 345.1 38.4 Q 344.6 38.4, 344.3 38.6 Q 344.1 38.8, 343.8 39.2 L 343.2 38.9 " fill="#000000"/>
<path class="atom-13" d="M 18.6 30.8 L 19.8 30.8 L 19.8 34.4 L 24.1 34.4 L 24.1 30.8 L 25.2 30.8 L 25.2 39.2 L 24.1 39.2 L 24.1 35.3 L 19.8 35.3 L 19.8 39.2 L 18.6 39.2 L 18.6 30.8 " fill="#000000"/>
<path class="atom-13" d="M 26.8 38.9 Q 27.0 38.4, 27.5 38.1 Q 28.0 37.8, 28.7 37.8 Q 29.5 37.8, 30.0 38.2 Q 30.4 38.7, 30.4 39.5 Q 30.4 40.3, 29.8 41.1 Q 29.2 41.8, 28.0 42.7 L 30.5 42.7 L 30.5 43.4 L 26.8 43.4 L 26.8 42.8 Q 27.8 42.1, 28.5 41.6 Q 29.1 41.0, 29.4 40.5 Q 29.7 40.0, 29.7 39.5 Q 29.7 39.0, 29.4 38.7 Q 29.1 38.4, 28.7 38.4 Q 28.2 38.4, 27.9 38.6 Q 27.6 38.8, 27.4 39.2 L 26.8 38.9 " fill="#000000"/>
<path class="atom-13" d="M 32.9 30.8 L 35.7 35.2 Q 36.0 35.7, 36.4 36.5 Q 36.8 37.3, 36.9 37.3 L 36.9 30.8 L 38.0 30.8 L 38.0 39.2 L 36.8 39.2 L 33.9 34.3 Q 33.5 33.8, 33.2 33.1 Q 32.8 32.5, 32.7 32.3 L 32.7 39.2 L 31.6 39.2 L 31.6 30.8 L 32.9 30.8 " fill="#000000"/>
</svg>