<svg xmlns="http://www.w3.org/2000/svg" xmlns:rdkit="http://www.rdkit.org/xml" xmlns:xlink="http://www.w3.org/1999/xlink" version="1.1" baseProfile="full" xml:space="preserve" width="181px" height="99px" viewBox="0 0 181 99">
<!-- END OF HEADER -->
<rect style="opacity:1.0;fill:#FFFFFF;stroke:none" width="181.0" height="99.0" x="0.0" y="0.0"> </rect>
<ellipse cx="21.7" cy="59.1" rx="12.6" ry="12.6" class="atom-0" style="fill:#7F7FFF;fill-rule:evenodd;stroke:#7F7FFF;stroke-width:1.0px;stroke-linecap:butt;stroke-linejoin:miter;stroke-opacity:1"/>
<ellipse cx="49.6" cy="49.4" rx="12.6" ry="12.6" class="atom-1" style="fill:#7F7FFF;fill-rule:evenodd;stroke:#7F7FFF;stroke-width:1.0px;stroke-linecap:butt;stroke-linejoin:miter;stroke-opacity:1"/>
<ellipse cx="55.1" cy="20.5" rx="12.6" ry="12.6" class="atom-2" style="fill:#7F7FFF;fill-rule:evenodd;stroke:#7F7FFF;stroke-width:1.0px;stroke-linecap:butt;stroke-linejoin:miter;stroke-opacity:1"/>
<ellipse cx="71.8" cy="68.7" rx="12.6" ry="12.6" class="atom-3" style="fill:#7F7FFF;fill-rule:evenodd;stroke:#7F7FFF;stroke-width:1.0px;stroke-linecap:butt;stroke-linejoin:miter;stroke-opacity:1"/>
<ellipse cx="99.7" cy="59.1" rx="15.6" ry="15.6" class="atom-4" style="fill:#7F7FFF;fill-rule:evenodd;stroke:#7F7FFF;stroke-width:1.0px;stroke-linecap:butt;stroke-linejoin:miter;stroke-opacity:1"/>
<ellipse cx="105.2" cy="30.2" rx="15.6" ry="15.6" class="atom-5" style="fill:#7F7FFF;fill-rule:evenodd;stroke:#7F7FFF;stroke-width:1.0px;stroke-linecap:butt;stroke-linejoin:miter;stroke-opacity:1"/>
<ellipse cx="133.1" cy="20.5" rx="15.6" ry="15.6" class="atom-6" style="fill:#7F7FFF;fill-rule:evenodd;stroke:#7F7FFF;stroke-width:1.0px;stroke-linecap:butt;stroke-linejoin:miter;stroke-opacity:1"/>
<ellipse cx="155.3" cy="39.8" rx="15.6" ry="15.6" class="atom-7" style="fill:#7F7FFF;fill-rule:evenodd;stroke:#7F7FFF;stroke-width:1.0px;stroke-linecap:butt;stroke-linejoin:miter;stroke-opacity:1"/>
<ellipse cx="149.8" cy="68.7" rx="15.6" ry="15.6" class="atom-8" style="fill:#7F7FFF;fill-rule:evenodd;stroke:#7F7FFF;stroke-width:1.0px;stroke-linecap:butt;stroke-linejoin:miter;stroke-opacity:1"/>
<ellipse cx="121.9" cy="78.4" rx="15.6" ry="15.6" class="atom-9" style="fill:#7F7FFF;fill-rule:evenodd;stroke:#7F7FFF;stroke-width:1.0px;stroke-linecap:butt;stroke-linejoin:miter;stroke-opacity:1"/>
<path class="bond-0 atom-0 atom-1" d="M 25.8,55.3 L 50.1,46.9" style="fill:none;fill-rule:evenodd;stroke:#000000;stroke-width:2.0px;stroke-linecap:butt;stroke-linejoin:miter;stroke-opacity:1"/>
<path class="bond-0 atom-0 atom-1" d="M 27.3,59.5 L 51.5,51.1" style="fill:none;fill-rule:evenodd;stroke:#000000;stroke-width:2.0px;stroke-linecap:butt;stroke-linejoin:miter;stroke-opacity:1"/>
<path class="bond-1 atom-1 atom-2" d="M 49.6,49.4 L 54.1,25.8" style="fill:none;fill-rule:evenodd;stroke:#000000;stroke-width:2.0px;stroke-linecap:butt;stroke-linejoin:miter;stroke-opacity:1"/>
<path class="bond-2 atom-1 atom-3" d="M 49.6,49.4 L 71.8,68.7" style="fill:none;fill-rule:evenodd;stroke:#000000;stroke-width:2.0px;stroke-linecap:butt;stroke-linejoin:miter;stroke-opacity:1"/>
<path class="bond-3 atom-3 atom-4" d="M 71.8,68.7 L 99.7,59.1" style="fill:none;fill-rule:evenodd;stroke:#000000;stroke-width:2.0px;stroke-linecap:butt;stroke-linejoin:miter;stroke-opacity:1"/>
<path class="bond-4 atom-4 atom-5" d="M 99.7,59.1 L 105.2,30.2" style="fill:none;fill-rule:evenodd;stroke:#000000;stroke-width:2.0px;stroke-linecap:butt;stroke-linejoin:miter;stroke-opacity:1"/>
<path class="bond-4 atom-4 atom-5" d="M 104.5,57.4 L 109.1,33.5" style="fill:none;fill-rule:evenodd;stroke:#000000;stroke-width:2.0px;stroke-linecap:butt;stroke-linejoin:miter;stroke-opacity:1"/>
<path class="bond-5 atom-5 atom-6" d="M 105.2,30.2 L 133.1,20.5" style="fill:none;fill-rule:evenodd;stroke:#000000;stroke-width:2.0px;stroke-linecap:butt;stroke-linejoin:miter;stroke-opacity:1"/>
<path class="bond-6 atom-6 atom-7" d="M 133.1,20.5 L 155.3,39.8" style="fill:none;fill-rule:evenodd;stroke:#000000;stroke-width:2.0px;stroke-linecap:butt;stroke-linejoin:miter;stroke-opacity:1"/>
<path class="bond-6 atom-6 atom-7" d="M 132.1,25.5 L 150.5,41.5" style="fill:none;fill-rule:evenodd;stroke:#000000;stroke-width:2.0px;stroke-linecap:butt;stroke-linejoin:miter;stroke-opacity:1"/>
<path class="bond-7 atom-7 atom-8" d="M 155.3,39.8 L 149.8,68.7" style="fill:none;fill-rule:evenodd;stroke:#000000;stroke-width:2.0px;stroke-linecap:butt;stroke-linejoin:miter;stroke-opacity:1"/>
<path class="bond-8 atom-8 atom-9" d="M 149.8,68.7 L 121.9,78.4" style="fill:none;fill-rule:evenodd;stroke:#000000;stroke-width:2.0px;stroke-linecap:butt;stroke-linejoin:miter;stroke-opacity:1"/>
<path class="bond-8 atom-8 atom-9" d="M 145.9,65.4 L 122.9,73.4" style="fill:none;fill-rule:evenodd;stroke:#000000;stroke-width:2.0px;stroke-linecap:butt;stroke-linejoin:miter;stroke-opacity:1"/>
<path class="bond-9 atom-9 atom-4" d="M 121.9,78.4 L 99.7,59.1" style="fill:none;fill-rule:evenodd;stroke:#000000;stroke-width:2.0px;stroke-linecap:butt;stroke-linejoin:miter;stroke-opacity:1"/>
<path d="M 49.8,48.3 L 49.6,49.4 L 50.7,50.4" style="fill:none;stroke:#000000;stroke-width:2.0px;stroke-linecap:butt;stroke-linejoin:miter;stroke-miterlimit:10;stroke-opacity:1;"/>
<path d="M 70.7,67.8 L 71.8,68.7 L 73.2,68.3" style="fill:none;stroke:#000000;stroke-width:2.0px;stroke-linecap:butt;stroke-linejoin:miter;stroke-miterlimit:10;stroke-opacity:1;"/>
<path d="M 105.0,31.6 L 105.2,30.2 L 106.6,29.7" style="fill:none;stroke:#000000;stroke-width:2.0px;stroke-linecap:butt;stroke-linejoin:miter;stroke-miterlimit:10;stroke-opacity:1;"/>
<path d="M 131.7,21.0 L 133.1,20.5 L 134.2,21.5" style="fill:none;stroke:#000000;stroke-width:2.0px;stroke-linecap:butt;stroke-linejoin:miter;stroke-miterlimit:10;stroke-opacity:1;"/>
<path d="M 154.2,38.8 L 155.3,39.8 L 155.1,41.3" style="fill:none;stroke:#000000;stroke-width:2.0px;stroke-linecap:butt;stroke-linejoin:miter;stroke-miterlimit:10;stroke-opacity:1;"/>
<path d="M 150.1,67.3 L 149.8,68.7 L 148.4,69.2" style="fill:none;stroke:#000000;stroke-width:2.0px;stroke-linecap:butt;stroke-linejoin:miter;stroke-miterlimit:10;stroke-opacity:1;"/>
<path d="M 123.3,77.9 L 121.9,78.4 L 120.8,77.4" style="fill:none;stroke:#000000;stroke-width:2.0px;stroke-linecap:butt;stroke-linejoin:miter;stroke-miterlimit:10;stroke-opacity:1;"/>
<path class="atom-0" d="M 17.9 59.1 Q 17.9 57.1, 18.9 56.0 Q 19.9 54.9, 21.7 54.9 Q 23.6 54.9, 24.6 56.0 Q 25.6 57.1, 25.6 59.1 Q 25.6 61.1, 24.6 62.3 Q 23.6 63.4, 21.7 63.4 Q 19.9 63.4, 18.9 62.3 Q 17.9 61.2, 17.9 59.1 M 21.7 62.5 Q 23.0 62.5, 23.7 61.6 Q 24.4 60.8, 24.4 59.1 Q 24.4 57.5, 23.7 56.7 Q 23.0 55.8, 21.7 55.8 Q 20.5 55.8, 19.8 56.6 Q 19.1 57.5, 19.1 59.1 Q 19.1 60.8, 19.8 61.6 Q 20.5 62.5, 21.7 62.5 " fill="#000000"/>
<path class="atom-2" d="M 51.3 20.5 Q 51.3 18.5, 52.3 17.4 Q 53.3 16.3, 55.1 16.3 Q 57.0 16.3, 58.0 17.4 Q 59.0 18.5, 59.0 20.5 Q 59.0 22.6, 58.0 23.7 Q 57.0 24.9, 55.1 24.9 Q 53.3 24.9, 52.3 23.7 Q 51.3 22.6, 51.3 20.5 M 55.1 23.9 Q 56.4 23.9, 57.1 23.1 Q 57.8 22.2, 57.8 20.5 Q 57.8 18.9, 57.1 18.1 Q 56.4 17.3, 55.1 17.3 Q 53.9 17.3, 53.2 18.1 Q 52.5 18.9, 52.5 20.5 Q 52.5 22.2, 53.2 23.1 Q 53.9 23.9, 55.1 23.9 " fill="#000000"/>
<path class="atom-2" d="M 60.3 16.4 L 61.4 16.4 L 61.4 19.9 L 65.7 19.9 L 65.7 16.4 L 66.8 16.4 L 66.8 24.7 L 65.7 24.7 L 65.7 20.9 L 61.4 20.9 L 61.4 24.7 L 60.3 24.7 L 60.3 16.4 " fill="#000000"/>
</svg>