<svg xmlns="http://www.w3.org/2000/svg" xmlns:rdkit="http://www.rdkit.org/xml" xmlns:xlink="http://www.w3.org/1999/xlink" version="1.1" baseProfile="full" xml:space="preserve" width="294px" height="143px" viewBox="0 0 294 143">
<!-- END OF HEADER -->
<rect style="opacity:1.0;fill:#FFFFFF;stroke:none" width="294.0" height="143.0" x="0.0" y="0.0"> </rect>
<ellipse cx="178.6" cy="45.1" rx="3.8" ry="3.8" class="atom-0" style="fill:#FF7F7F;fill-rule:evenodd;stroke:#FF7F7F;stroke-width:1.0px;stroke-linecap:butt;stroke-linejoin:miter;stroke-opacity:1"/>
<ellipse cx="170.0" cy="73.3" rx="3.8" ry="3.8" class="atom-1" style="fill:#FF7F7F;fill-rule:evenodd;stroke:#FF7F7F;stroke-width:1.0px;stroke-linecap:butt;stroke-linejoin:miter;stroke-opacity:1"/>
<ellipse cx="190.1" cy="94.8" rx="0.9" ry="0.9" class="atom-2" style="fill:#FF7F7F;fill-rule:evenodd;stroke:#FF7F7F;stroke-width:1.0px;stroke-linecap:butt;stroke-linejoin:miter;stroke-opacity:1"/>
<ellipse cx="218.9" cy="88.1" rx="2.1" ry="2.1" class="atom-3" style="fill:#7F7FFF;fill-rule:evenodd;stroke:#7F7FFF;stroke-width:1.0px;stroke-linecap:butt;stroke-linejoin:miter;stroke-opacity:1"/>
<ellipse cx="239.0" cy="109.7" rx="2.1" ry="2.1" class="atom-4" style="fill:#7F7FFF;fill-rule:evenodd;stroke:#7F7FFF;stroke-width:1.0px;stroke-linecap:butt;stroke-linejoin:miter;stroke-opacity:1"/>
<ellipse cx="267.8" cy="103.0" rx="2.1" ry="2.1" class="atom-5" style="fill:#7F7FFF;fill-rule:evenodd;stroke:#7F7FFF;stroke-width:1.0px;stroke-linecap:butt;stroke-linejoin:miter;stroke-opacity:1"/>
<ellipse cx="276.3" cy="74.7" rx="2.1" ry="2.1" class="atom-6" style="fill:#7F7FFF;fill-rule:evenodd;stroke:#7F7FFF;stroke-width:1.0px;stroke-linecap:butt;stroke-linejoin:miter;stroke-opacity:1"/>
<ellipse cx="256.2" cy="53.2" rx="2.1" ry="2.1" class="atom-7" style="fill:#7F7FFF;fill-rule:evenodd;stroke:#7F7FFF;stroke-width:1.0px;stroke-linecap:butt;stroke-linejoin:miter;stroke-opacity:1"/>
<ellipse cx="264.7" cy="25.0" rx="2.1" ry="2.1" class="atom-8" style="fill:#7F7FFF;fill-rule:evenodd;stroke:#7F7FFF;stroke-width:1.0px;stroke-linecap:butt;stroke-linejoin:miter;stroke-opacity:1"/>
<ellipse cx="227.4" cy="59.9" rx="2.1" ry="2.1" class="atom-9" style="fill:#7F7FFF;fill-rule:evenodd;stroke:#7F7FFF;stroke-width:1.0px;stroke-linecap:butt;stroke-linejoin:miter;stroke-opacity:1"/>
<ellipse cx="141.3" cy="80.0" rx="28.0" ry="28.0" class="atom-10" style="fill:#FF7F7F;fill-rule:evenodd;stroke:#FF7F7F;stroke-width:1.0px;stroke-linecap:butt;stroke-linejoin:miter;stroke-opacity:1"/>
<ellipse cx="129.8" cy="107.1" rx="28.0" ry="28.0" class="atom-11" style="fill:#FF7F7F;fill-rule:evenodd;stroke:#FF7F7F;stroke-width:1.0px;stroke-linecap:butt;stroke-linejoin:miter;stroke-opacity:1"/>
<ellipse cx="100.4" cy="104.6" rx="28.0" ry="28.0" class="atom-12" style="fill:#FF7F7F;fill-rule:evenodd;stroke:#FF7F7F;stroke-width:1.0px;stroke-linecap:butt;stroke-linejoin:miter;stroke-opacity:1"/>
<ellipse cx="93.7" cy="75.9" rx="28.0" ry="28.0" class="atom-13" style="fill:#FF7F7F;fill-rule:evenodd;stroke:#FF7F7F;stroke-width:1.0px;stroke-linecap:butt;stroke-linejoin:miter;stroke-opacity:1"/>
<ellipse cx="66.5" cy="64.4" rx="28.0" ry="28.0" class="atom-14" style="fill:#FF7F7F;fill-rule:evenodd;stroke:#FF7F7F;stroke-width:1.0px;stroke-linecap:butt;stroke-linejoin:miter;stroke-opacity:1"/>
<ellipse cx="43.0" cy="82.2" rx="28.0" ry="28.0" class="atom-15" style="fill:#FF7F7F;fill-rule:evenodd;stroke:#FF7F7F;stroke-width:1.0px;stroke-linecap:butt;stroke-linejoin:miter;stroke-opacity:1"/>
<ellipse cx="62.9" cy="35.2" rx="28.0" ry="28.0" class="atom-16" style="fill:#FF7F7F;fill-rule:evenodd;stroke:#FF7F7F;stroke-width:1.0px;stroke-linecap:butt;stroke-linejoin:miter;stroke-opacity:1"/>
<ellipse cx="119.0" cy="60.7" rx="28.0" ry="28.0" class="atom-17" style="fill:#FF7F7F;fill-rule:evenodd;stroke:#FF7F7F;stroke-width:1.0px;stroke-linecap:butt;stroke-linejoin:miter;stroke-opacity:1"/>
<path class="bond-0 atom-0 atom-1" d="M 179.1,51.0 L 171.7,75.1" style="fill:none;fill-rule:evenodd;stroke:#000000;stroke-width:2.0px;stroke-linecap:butt;stroke-linejoin:miter;stroke-opacity:1"/>
<path class="bond-0 atom-0 atom-1" d="M 174.8,49.7 L 167.5,73.9" style="fill:none;fill-rule:evenodd;stroke:#000000;stroke-width:2.0px;stroke-linecap:butt;stroke-linejoin:miter;stroke-opacity:1"/>
<path class="bond-1 atom-1 atom-2" d="M 170.0,73.3 L 186.0,90.4" style="fill:none;fill-rule:evenodd;stroke:#000000;stroke-width:2.0px;stroke-linecap:butt;stroke-linejoin:miter;stroke-opacity:1"/>
<path class="bond-2 atom-2 atom-3" d="M 194.3,93.9 L 218.9,88.1" style="fill:none;fill-rule:evenodd;stroke:#000000;stroke-width:2.0px;stroke-linecap:butt;stroke-linejoin:miter;stroke-opacity:1"/>
<path class="bond-3 atom-3 atom-4" d="M 218.9,88.1 L 239.0,109.7" style="fill:none;fill-rule:evenodd;stroke:#000000;stroke-width:2.0px;stroke-linecap:butt;stroke-linejoin:miter;stroke-opacity:1"/>
<path class="bond-3 atom-3 atom-4" d="M 223.9,87.0 L 240.5,104.8" style="fill:none;fill-rule:evenodd;stroke:#000000;stroke-width:2.0px;stroke-linecap:butt;stroke-linejoin:miter;stroke-opacity:1"/>
<path class="bond-4 atom-4 atom-5" d="M 239.0,109.7 L 267.8,103.0" style="fill:none;fill-rule:evenodd;stroke:#000000;stroke-width:2.0px;stroke-linecap:butt;stroke-linejoin:miter;stroke-opacity:1"/>
<path class="bond-5 atom-5 atom-6" d="M 267.8,103.0 L 276.3,74.7" style="fill:none;fill-rule:evenodd;stroke:#000000;stroke-width:2.0px;stroke-linecap:butt;stroke-linejoin:miter;stroke-opacity:1"/>
<path class="bond-5 atom-5 atom-6" d="M 264.3,99.2 L 271.4,75.9" style="fill:none;fill-rule:evenodd;stroke:#000000;stroke-width:2.0px;stroke-linecap:butt;stroke-linejoin:miter;stroke-opacity:1"/>
<path class="bond-6 atom-6 atom-7" d="M 276.3,74.7 L 256.2,53.2" style="fill:none;fill-rule:evenodd;stroke:#000000;stroke-width:2.0px;stroke-linecap:butt;stroke-linejoin:miter;stroke-opacity:1"/>
<path class="bond-7 atom-7 atom-8" d="M 256.2,53.2 L 263.2,30.1" style="fill:none;fill-rule:evenodd;stroke:#000000;stroke-width:2.0px;stroke-linecap:butt;stroke-linejoin:miter;stroke-opacity:1"/>
<path class="bond-8 atom-7 atom-9" d="M 256.2,53.2 L 227.4,59.9" style="fill:none;fill-rule:evenodd;stroke:#000000;stroke-width:2.0px;stroke-linecap:butt;stroke-linejoin:miter;stroke-opacity:1"/>
<path class="bond-8 atom-7 atom-9" d="M 254.7,58.1 L 230.9,63.6" style="fill:none;fill-rule:evenodd;stroke:#000000;stroke-width:2.0px;stroke-linecap:butt;stroke-linejoin:miter;stroke-opacity:1"/>
<path class="bond-9 atom-1 atom-10" d="M 170.0,73.3 L 141.3,80.0" style="fill:none;fill-rule:evenodd;stroke:#000000;stroke-width:2.0px;stroke-linecap:butt;stroke-linejoin:miter;stroke-opacity:1"/>
<path class="bond-10 atom-10 atom-11" d="M 141.3,80.0 L 129.8,107.1" style="fill:none;fill-rule:evenodd;stroke:#000000;stroke-width:2.0px;stroke-linecap:butt;stroke-linejoin:miter;stroke-opacity:1"/>
<path class="bond-10 atom-10 atom-11" d="M 135.9,81.2 L 127.0,102.5" style="fill:none;fill-rule:evenodd;stroke:#000000;stroke-width:2.0px;stroke-linecap:butt;stroke-linejoin:miter;stroke-opacity:1"/>
<path class="bond-11 atom-11 atom-12" d="M 129.8,107.1 L 104.0,104.9" style="fill:none;fill-rule:evenodd;stroke:#000000;stroke-width:2.0px;stroke-linecap:butt;stroke-linejoin:miter;stroke-opacity:1"/>
<path class="bond-12 atom-12 atom-13" d="M 99.2,99.5 L 93.7,75.9" style="fill:none;fill-rule:evenodd;stroke:#000000;stroke-width:2.0px;stroke-linecap:butt;stroke-linejoin:miter;stroke-opacity:1"/>
<path class="bond-13 atom-13 atom-14" d="M 93.7,75.9 L 70.7,66.2" style="fill:none;fill-rule:evenodd;stroke:#000000;stroke-width:2.0px;stroke-linecap:butt;stroke-linejoin:miter;stroke-opacity:1"/>
<path class="bond-14 atom-14 atom-15" d="M 61.1,65.8 L 46.5,76.8" style="fill:none;fill-rule:evenodd;stroke:#000000;stroke-width:2.0px;stroke-linecap:butt;stroke-linejoin:miter;stroke-opacity:1"/>
<path class="bond-14 atom-14 atom-15" d="M 63.7,69.3 L 49.1,80.4" style="fill:none;fill-rule:evenodd;stroke:#000000;stroke-width:2.0px;stroke-linecap:butt;stroke-linejoin:miter;stroke-opacity:1"/>
<path class="bond-15 atom-14 atom-16" d="M 65.9,59.3 L 63.5,40.5" style="fill:none;fill-rule:evenodd;stroke:#000000;stroke-width:2.0px;stroke-linecap:butt;stroke-linejoin:miter;stroke-opacity:1"/>
<path class="bond-16 atom-13 atom-17" d="M 93.7,75.9 L 119.0,60.7" style="fill:none;fill-rule:evenodd;stroke:#000000;stroke-width:2.0px;stroke-linecap:butt;stroke-linejoin:miter;stroke-opacity:1"/>
<path class="bond-16 atom-13 atom-17" d="M 98.7,78.0 L 118.5,66.1" style="fill:none;fill-rule:evenodd;stroke:#000000;stroke-width:2.0px;stroke-linecap:butt;stroke-linejoin:miter;stroke-opacity:1"/>
<path class="bond-17 atom-9 atom-3" d="M 227.4,59.9 L 218.9,88.1" style="fill:none;fill-rule:evenodd;stroke:#000000;stroke-width:2.0px;stroke-linecap:butt;stroke-linejoin:miter;stroke-opacity:1"/>
<path class="bond-18 atom-17 atom-10" d="M 119.0,60.7 L 141.3,80.0" style="fill:none;fill-rule:evenodd;stroke:#000000;stroke-width:2.0px;stroke-linecap:butt;stroke-linejoin:miter;stroke-opacity:1"/>
<path d="M 170.8,74.1 L 170.0,73.3 L 168.6,73.6" style="fill:none;stroke:#000000;stroke-width:2.0px;stroke-linecap:butt;stroke-linejoin:miter;stroke-miterlimit:10;stroke-opacity:1;"/>
<path d="M 238.0,108.6 L 239.0,109.7 L 240.5,109.3" style="fill:none;stroke:#000000;stroke-width:2.0px;stroke-linecap:butt;stroke-linejoin:miter;stroke-miterlimit:10;stroke-opacity:1;"/>
<path d="M 266.3,103.3 L 267.8,103.0 L 268.2,101.6" style="fill:none;stroke:#000000;stroke-width:2.0px;stroke-linecap:butt;stroke-linejoin:miter;stroke-miterlimit:10;stroke-opacity:1;"/>
<path d="M 275.9,76.2 L 276.3,74.7 L 275.3,73.7" style="fill:none;stroke:#000000;stroke-width:2.0px;stroke-linecap:butt;stroke-linejoin:miter;stroke-miterlimit:10;stroke-opacity:1;"/>
<path d="M 228.9,59.6 L 227.4,59.9 L 227.0,61.3" style="fill:none;stroke:#000000;stroke-width:2.0px;stroke-linecap:butt;stroke-linejoin:miter;stroke-miterlimit:10;stroke-opacity:1;"/>
<path d="M 130.4,105.8 L 129.8,107.1 L 128.5,107.0" style="fill:none;stroke:#000000;stroke-width:2.0px;stroke-linecap:butt;stroke-linejoin:miter;stroke-miterlimit:10;stroke-opacity:1;"/>
<path d="M 117.7,61.4 L 119.0,60.7 L 120.1,61.6" style="fill:none;stroke:#000000;stroke-width:2.0px;stroke-linecap:butt;stroke-linejoin:miter;stroke-miterlimit:10;stroke-opacity:1;"/>
<path class="atom-0" d="M 174.7 45.1 Q 174.7 43.1, 175.7 42.0 Q 176.7 40.8, 178.6 40.8 Q 180.4 40.8, 181.4 42.0 Q 182.4 43.1, 182.4 45.1 Q 182.4 47.1, 181.4 48.3 Q 180.4 49.4, 178.6 49.4 Q 176.7 49.4, 175.7 48.3 Q 174.7 47.1, 174.7 45.1 M 178.6 48.5 Q 179.8 48.5, 180.5 47.6 Q 181.2 46.8, 181.2 45.1 Q 181.2 43.4, 180.5 42.6 Q 179.8 41.8, 178.6 41.8 Q 177.3 41.8, 176.6 42.6 Q 175.9 43.4, 175.9 45.1 Q 175.9 46.8, 176.6 47.6 Q 177.3 48.5, 178.6 48.5 " fill="#000000"/>
<path class="atom-2" d="M 188.3 90.6 L 191.0 95.1 Q 191.3 95.5, 191.7 96.3 Q 192.2 97.1, 192.2 97.1 L 192.2 90.6 L 193.3 90.6 L 193.3 99.0 L 192.2 99.0 L 189.2 94.2 Q 188.9 93.6, 188.5 92.9 Q 188.2 92.3, 188.1 92.1 L 188.1 99.0 L 187.0 99.0 L 187.0 90.6 L 188.3 90.6 " fill="#000000"/>
<path class="atom-2" d="M 186.9 99.8 L 188.0 99.8 L 188.0 103.4 L 192.3 103.4 L 192.3 99.8 L 193.4 99.8 L 193.4 108.2 L 192.3 108.2 L 192.3 104.3 L 188.0 104.3 L 188.0 108.2 L 186.9 108.2 L 186.9 99.8 " fill="#000000"/>
<path class="atom-8" d="M 266.0 24.8 Q 266.8 25.0, 267.2 25.5 Q 267.6 26.0, 267.6 26.7 Q 267.6 27.9, 266.8 28.5 Q 266.1 29.2, 264.7 29.2 L 261.9 29.2 L 261.9 20.8 L 264.4 20.8 Q 265.8 20.8, 266.5 21.4 Q 267.2 22.0, 267.2 23.0 Q 267.2 24.3, 266.0 24.8 M 263.0 21.8 L 263.0 24.4 L 264.4 24.4 Q 265.2 24.4, 265.6 24.0 Q 266.1 23.7, 266.1 23.0 Q 266.1 21.8, 264.4 21.8 L 263.0 21.8 M 264.7 28.2 Q 265.5 28.2, 266.0 27.8 Q 266.4 27.4, 266.4 26.7 Q 266.4 26.0, 265.9 25.7 Q 265.4 25.3, 264.5 25.3 L 263.0 25.3 L 263.0 28.2 L 264.7 28.2 " fill="#000000"/>
<path class="atom-8" d="M 269.5 23.1 L 269.6 23.9 Q 270.2 23.0, 271.3 23.0 Q 271.6 23.0, 272.1 23.1 L 271.9 24.1 Q 271.4 24.0, 271.1 24.0 Q 270.6 24.0, 270.3 24.2 Q 270.0 24.4, 269.7 24.8 L 269.7 29.2 L 268.6 29.2 L 268.6 23.1 L 269.5 23.1 " fill="#000000"/>
<path class="atom-12" d="M 98.0 107.5 Q 98.1 107.5, 98.5 107.7 Q 98.9 107.9, 99.3 108.0 Q 99.8 108.1, 100.2 108.1 Q 101.0 108.1, 101.4 107.7 Q 101.9 107.3, 101.9 106.6 Q 101.9 106.2, 101.7 105.9 Q 101.4 105.6, 101.1 105.4 Q 100.7 105.3, 100.1 105.1 Q 99.4 104.9, 99.0 104.7 Q 98.5 104.5, 98.2 104.0 Q 97.9 103.6, 97.9 102.8 Q 97.9 101.8, 98.6 101.1 Q 99.3 100.5, 100.7 100.5 Q 101.7 100.5, 102.8 100.9 L 102.5 101.8 Q 101.5 101.4, 100.8 101.4 Q 100.0 101.4, 99.5 101.8 Q 99.1 102.1, 99.1 102.7 Q 99.1 103.1, 99.3 103.4 Q 99.5 103.7, 99.9 103.8 Q 100.2 104.0, 100.8 104.1 Q 101.5 104.4, 102.0 104.6 Q 102.4 104.9, 102.7 105.3 Q 103.1 105.8, 103.1 106.6 Q 103.1 107.8, 102.3 108.4 Q 101.5 109.0, 100.2 109.0 Q 99.5 109.0, 98.9 108.9 Q 98.4 108.7, 97.7 108.4 L 98.0 107.5 " fill="#000000"/>
<path class="atom-14" d="M 64.7 60.2 L 67.4 64.7 Q 67.7 65.1, 68.1 65.9 Q 68.6 66.7, 68.6 66.7 L 68.6 60.2 L 69.7 60.2 L 69.7 68.6 L 68.6 68.6 L 65.6 63.8 Q 65.3 63.2, 64.9 62.6 Q 64.6 61.9, 64.4 61.7 L 64.4 68.6 L 63.4 68.6 L 63.4 60.2 L 64.7 60.2 " fill="#000000"/>
<path class="atom-14" d="M 71.3 61.8 L 72.7 61.8 L 72.7 60.2 L 73.4 60.2 L 73.4 61.8 L 74.9 61.8 L 74.9 62.3 L 73.4 62.3 L 73.4 63.9 L 72.7 63.9 L 72.7 62.3 L 71.3 62.3 L 71.3 61.8 " fill="#000000"/>
<path class="atom-15" d="M 39.2 82.2 Q 39.2 80.2, 40.2 79.1 Q 41.2 78.0, 43.0 78.0 Q 44.9 78.0, 45.8 79.1 Q 46.8 80.2, 46.8 82.2 Q 46.8 84.3, 45.8 85.4 Q 44.8 86.6, 43.0 86.6 Q 41.2 86.6, 40.2 85.4 Q 39.2 84.3, 39.2 82.2 M 43.0 85.6 Q 44.3 85.6, 45.0 84.8 Q 45.7 83.9, 45.7 82.2 Q 45.7 80.6, 45.0 79.8 Q 44.3 78.9, 43.0 78.9 Q 41.7 78.9, 41.0 79.8 Q 40.3 80.6, 40.3 82.2 Q 40.3 83.9, 41.0 84.8 Q 41.7 85.6, 43.0 85.6 " fill="#000000"/>
<path class="atom-16" d="M 59.0 35.2 Q 59.0 33.2, 60.0 32.1 Q 61.0 30.9, 62.9 30.9 Q 64.7 30.9, 65.7 32.1 Q 66.7 33.2, 66.7 35.2 Q 66.7 37.2, 65.7 38.4 Q 64.7 39.5, 62.9 39.5 Q 61.0 39.5, 60.0 38.4 Q 59.0 37.2, 59.0 35.2 M 62.9 38.6 Q 64.2 38.6, 64.8 37.7 Q 65.5 36.9, 65.5 35.2 Q 65.5 33.5, 64.8 32.7 Q 64.2 31.9, 62.9 31.9 Q 61.6 31.9, 60.9 32.7 Q 60.2 33.5, 60.2 35.2 Q 60.2 36.9, 60.9 37.7 Q 61.6 38.6, 62.9 38.6 " fill="#000000"/>
<path class="atom-16" d="M 67.9 32.3 L 70.8 32.3 L 70.8 32.9 L 67.9 32.9 L 67.9 32.3 " fill="#000000"/>
</svg>