<svg xmlns="http://www.w3.org/2000/svg" xmlns:rdkit="http://www.rdkit.org/xml" xmlns:xlink="http://www.w3.org/1999/xlink" version="1.1" baseProfile="full" xml:space="preserve" width="165px" height="98px" viewBox="0 0 165 98">
<!-- END OF HEADER -->
<rect style="opacity:1.0;fill:#FFFFFF;stroke:none" width="165.0" height="98.0" x="0.0" y="0.0"> </rect>
<ellipse cx="57.9" cy="70.9" rx="6.7" ry="6.7" class="atom-0" style="fill:#FF7F7F;fill-rule:evenodd;stroke:#FF7F7F;stroke-width:1.0px;stroke-linecap:butt;stroke-linejoin:miter;stroke-opacity:1"/>
<ellipse cx="68.1" cy="43.4" rx="6.7" ry="6.7" class="atom-1" style="fill:#FF7F7F;fill-rule:evenodd;stroke:#FF7F7F;stroke-width:1.0px;stroke-linecap:butt;stroke-linejoin:miter;stroke-opacity:1"/>
<ellipse cx="49.4" cy="20.8" rx="6.7" ry="6.7" class="atom-2" style="fill:#FF7F7F;fill-rule:evenodd;stroke:#FF7F7F;stroke-width:1.0px;stroke-linecap:butt;stroke-linejoin:miter;stroke-opacity:1"/>
<ellipse cx="20.5" cy="25.8" rx="6.7" ry="6.7" class="atom-3" style="fill:#FF7F7F;fill-rule:evenodd;stroke:#FF7F7F;stroke-width:1.0px;stroke-linecap:butt;stroke-linejoin:miter;stroke-opacity:1"/>
<ellipse cx="97.1" cy="38.5" rx="1.1" ry="1.1" class="atom-4" style="fill:#7F7FFF;fill-rule:evenodd;stroke:#7F7FFF;stroke-width:1.0px;stroke-linecap:butt;stroke-linejoin:miter;stroke-opacity:1"/>
<ellipse cx="107.2" cy="11.0" rx="1.1" ry="1.1" class="atom-5" style="fill:#7F7FFF;fill-rule:evenodd;stroke:#7F7FFF;stroke-width:1.0px;stroke-linecap:butt;stroke-linejoin:miter;stroke-opacity:1"/>
<ellipse cx="136.2" cy="6.0" rx="1.1" ry="1.1" class="atom-6" style="fill:#7F7FFF;fill-rule:evenodd;stroke:#7F7FFF;stroke-width:1.0px;stroke-linecap:butt;stroke-linejoin:miter;stroke-opacity:1"/>
<ellipse cx="154.9" cy="28.6" rx="1.1" ry="1.1" class="atom-7" style="fill:#7F7FFF;fill-rule:evenodd;stroke:#7F7FFF;stroke-width:1.0px;stroke-linecap:butt;stroke-linejoin:miter;stroke-opacity:1"/>
<ellipse cx="144.7" cy="56.1" rx="1.1" ry="1.1" class="atom-8" style="fill:#7F7FFF;fill-rule:evenodd;stroke:#7F7FFF;stroke-width:1.0px;stroke-linecap:butt;stroke-linejoin:miter;stroke-opacity:1"/>
<ellipse cx="115.8" cy="61.1" rx="1.1" ry="1.1" class="atom-9" style="fill:#7F7FFF;fill-rule:evenodd;stroke:#7F7FFF;stroke-width:1.0px;stroke-linecap:butt;stroke-linejoin:miter;stroke-opacity:1"/>
<ellipse cx="105.6" cy="88.6" rx="1.1" ry="1.1" class="atom-10" style="fill:#7F7FFF;fill-rule:evenodd;stroke:#7F7FFF;stroke-width:1.0px;stroke-linecap:butt;stroke-linejoin:miter;stroke-opacity:1"/>
<path class="bond-0 atom-0 atom-1" d="M 57.8,65.0 L 66.5,41.5" style="fill:none;fill-rule:evenodd;stroke:#000000;stroke-width:2.0px;stroke-linecap:butt;stroke-linejoin:miter;stroke-opacity:1"/>
<path class="bond-0 atom-0 atom-1" d="M 61.9,66.5 L 70.6,43.0" style="fill:none;fill-rule:evenodd;stroke:#000000;stroke-width:2.0px;stroke-linecap:butt;stroke-linejoin:miter;stroke-opacity:1"/>
<path class="bond-1 atom-1 atom-2" d="M 68.1,43.4 L 53.7,26.0" style="fill:none;fill-rule:evenodd;stroke:#000000;stroke-width:2.0px;stroke-linecap:butt;stroke-linejoin:miter;stroke-opacity:1"/>
<path class="bond-2 atom-2 atom-3" d="M 45.3,21.5 L 25.3,25.0" style="fill:none;fill-rule:evenodd;stroke:#000000;stroke-width:2.0px;stroke-linecap:butt;stroke-linejoin:miter;stroke-opacity:1"/>
<path class="bond-3 atom-1 atom-4" d="M 68.1,43.4 L 97.1,38.5" style="fill:none;fill-rule:evenodd;stroke:#000000;stroke-width:2.0px;stroke-linecap:butt;stroke-linejoin:miter;stroke-opacity:1"/>
<path class="bond-4 atom-4 atom-5" d="M 97.1,38.5 L 107.2,11.0" style="fill:none;fill-rule:evenodd;stroke:#000000;stroke-width:2.0px;stroke-linecap:butt;stroke-linejoin:miter;stroke-opacity:1"/>
<path class="bond-4 atom-4 atom-5" d="M 102.1,37.6 L 110.5,14.9" style="fill:none;fill-rule:evenodd;stroke:#000000;stroke-width:2.0px;stroke-linecap:butt;stroke-linejoin:miter;stroke-opacity:1"/>
<path class="bond-5 atom-5 atom-6" d="M 107.2,11.0 L 136.2,6.0" style="fill:none;fill-rule:evenodd;stroke:#000000;stroke-width:2.0px;stroke-linecap:butt;stroke-linejoin:miter;stroke-opacity:1"/>
<path class="bond-6 atom-6 atom-7" d="M 136.2,6.0 L 154.9,28.6" style="fill:none;fill-rule:evenodd;stroke:#000000;stroke-width:2.0px;stroke-linecap:butt;stroke-linejoin:miter;stroke-opacity:1"/>
<path class="bond-6 atom-6 atom-7" d="M 134.4,10.8 L 149.9,29.5" style="fill:none;fill-rule:evenodd;stroke:#000000;stroke-width:2.0px;stroke-linecap:butt;stroke-linejoin:miter;stroke-opacity:1"/>
<path class="bond-7 atom-7 atom-8" d="M 154.9,28.6 L 144.7,56.1" style="fill:none;fill-rule:evenodd;stroke:#000000;stroke-width:2.0px;stroke-linecap:butt;stroke-linejoin:miter;stroke-opacity:1"/>
<path class="bond-8 atom-8 atom-9" d="M 144.7,56.1 L 115.8,61.1" style="fill:none;fill-rule:evenodd;stroke:#000000;stroke-width:2.0px;stroke-linecap:butt;stroke-linejoin:miter;stroke-opacity:1"/>
<path class="bond-8 atom-8 atom-9" d="M 141.5,52.2 L 117.5,56.3" style="fill:none;fill-rule:evenodd;stroke:#000000;stroke-width:2.0px;stroke-linecap:butt;stroke-linejoin:miter;stroke-opacity:1"/>
<path class="bond-9 atom-9 atom-10" d="M 115.8,61.1 L 107.5,83.4" style="fill:none;fill-rule:evenodd;stroke:#000000;stroke-width:2.0px;stroke-linecap:butt;stroke-linejoin:miter;stroke-opacity:1"/>
<path class="bond-10 atom-9 atom-4" d="M 115.8,61.1 L 97.1,38.5" style="fill:none;fill-rule:evenodd;stroke:#000000;stroke-width:2.0px;stroke-linecap:butt;stroke-linejoin:miter;stroke-opacity:1"/>
<path d="M 67.4,42.5 L 68.1,43.4 L 69.6,43.2" style="fill:none;stroke:#000000;stroke-width:2.0px;stroke-linecap:butt;stroke-linejoin:miter;stroke-miterlimit:10;stroke-opacity:1;"/>
<path d="M 106.7,12.4 L 107.2,11.0 L 108.7,10.7" style="fill:none;stroke:#000000;stroke-width:2.0px;stroke-linecap:butt;stroke-linejoin:miter;stroke-miterlimit:10;stroke-opacity:1;"/>
<path d="M 134.7,6.3 L 136.2,6.0 L 137.1,7.2" style="fill:none;stroke:#000000;stroke-width:2.0px;stroke-linecap:butt;stroke-linejoin:miter;stroke-miterlimit:10;stroke-opacity:1;"/>
<path d="M 153.9,27.5 L 154.9,28.6 L 154.4,30.0" style="fill:none;stroke:#000000;stroke-width:2.0px;stroke-linecap:butt;stroke-linejoin:miter;stroke-miterlimit:10;stroke-opacity:1;"/>
<path d="M 145.2,54.8 L 144.7,56.1 L 143.3,56.4" style="fill:none;stroke:#000000;stroke-width:2.0px;stroke-linecap:butt;stroke-linejoin:miter;stroke-miterlimit:10;stroke-opacity:1;"/>
<path class="atom-0" d="M 54.1 71.0 Q 54.1 69.0, 55.1 67.8 Q 56.1 66.7, 57.9 66.7 Q 59.8 66.7, 60.8 67.8 Q 61.8 69.0, 61.8 71.0 Q 61.8 73.0, 60.8 74.1 Q 59.8 75.3, 57.9 75.3 Q 56.1 75.3, 55.1 74.1 Q 54.1 73.0, 54.1 71.0 M 57.9 74.3 Q 59.2 74.3, 59.9 73.5 Q 60.6 72.6, 60.6 71.0 Q 60.6 69.3, 59.9 68.5 Q 59.2 67.7, 57.9 67.7 Q 56.7 67.7, 56.0 68.5 Q 55.3 69.3, 55.3 71.0 Q 55.3 72.6, 56.0 73.5 Q 56.7 74.3, 57.9 74.3 " fill="#000000"/>
<path class="atom-2" d="M 47.6 16.7 L 50.3 21.1 Q 50.6 21.5, 51.0 22.3 Q 51.4 23.1, 51.5 23.1 L 51.5 16.7 L 52.6 16.7 L 52.6 25.0 L 51.4 25.0 L 48.5 20.2 Q 48.2 19.6, 47.8 19.0 Q 47.4 18.3, 47.3 18.1 L 47.3 25.0 L 46.3 25.0 L 46.3 16.7 L 47.6 16.7 " fill="#000000"/>
<path class="atom-2" d="M 54.2 16.7 L 55.3 16.7 L 55.3 20.2 L 59.5 20.2 L 59.5 16.7 L 60.7 16.7 L 60.7 25.0 L 59.5 25.0 L 59.5 21.2 L 55.3 21.2 L 55.3 25.0 L 54.2 25.0 L 54.2 16.7 " fill="#000000"/>
<path class="atom-3" d="M 8.5 21.7 L 9.6 21.7 L 9.6 25.2 L 13.8 25.2 L 13.8 21.7 L 15.0 21.7 L 15.0 30.0 L 13.8 30.0 L 13.8 26.1 L 9.6 26.1 L 9.6 30.0 L 8.5 30.0 L 8.5 21.7 " fill="#000000"/>
<path class="atom-3" d="M 16.7 25.8 Q 16.7 23.8, 17.7 22.7 Q 18.6 21.6, 20.5 21.6 Q 22.3 21.6, 23.3 22.7 Q 24.3 23.8, 24.3 25.8 Q 24.3 27.8, 23.3 29.0 Q 22.3 30.1, 20.5 30.1 Q 18.7 30.1, 17.7 29.0 Q 16.7 27.8, 16.7 25.8 M 20.5 29.2 Q 21.8 29.2, 22.4 28.3 Q 23.1 27.5, 23.1 25.8 Q 23.1 24.2, 22.4 23.3 Q 21.8 22.5, 20.5 22.5 Q 19.2 22.5, 18.5 23.3 Q 17.8 24.2, 17.8 25.8 Q 17.8 27.5, 18.5 28.3 Q 19.2 29.2, 20.5 29.2 " fill="#000000"/>
<path class="atom-10" d="M 93.6 84.5 L 94.7 84.5 L 94.7 88.0 L 99.0 88.0 L 99.0 84.5 L 100.1 84.5 L 100.1 92.8 L 99.0 92.8 L 99.0 88.9 L 94.7 88.9 L 94.7 92.8 L 93.6 92.8 L 93.6 84.5 " fill="#000000"/>
<path class="atom-10" d="M 101.8 88.6 Q 101.8 86.6, 102.8 85.5 Q 103.8 84.4, 105.6 84.4 Q 107.4 84.4, 108.4 85.5 Q 109.4 86.6, 109.4 88.6 Q 109.4 90.6, 108.4 91.8 Q 107.4 92.9, 105.6 92.9 Q 103.8 92.9, 102.8 91.8 Q 101.8 90.6, 101.8 88.6 M 105.6 92.0 Q 106.9 92.0, 107.5 91.1 Q 108.2 90.3, 108.2 88.6 Q 108.2 87.0, 107.5 86.1 Q 106.9 85.3, 105.6 85.3 Q 104.3 85.3, 103.6 86.1 Q 103.0 87.0, 103.0 88.6 Q 103.0 90.3, 103.6 91.1 Q 104.3 92.0, 105.6 92.0 " fill="#000000"/>
</svg>