<svg xmlns="http://www.w3.org/2000/svg" xmlns:rdkit="http://www.rdkit.org/xml" xmlns:xlink="http://www.w3.org/1999/xlink" version="1.1" baseProfile="full" xml:space="preserve" width="253px" height="104px" viewBox="0 0 253 104">
<!-- END OF HEADER -->
<rect style="opacity:1.0;fill:#FFFFFF;stroke:none" width="253.0" height="104.0" x="0.0" y="0.0"> </rect>
<ellipse cx="30.4" cy="59.6" rx="17.2" ry="17.2" class="atom-0" style="fill:#FF7F7F;fill-rule:evenodd;stroke:#FF7F7F;stroke-width:1.0px;stroke-linecap:butt;stroke-linejoin:miter;stroke-opacity:1"/>
<ellipse cx="54.5" cy="76.5" rx="17.2" ry="17.2" class="atom-1" style="fill:#FF7F7F;fill-rule:evenodd;stroke:#FF7F7F;stroke-width:1.0px;stroke-linecap:butt;stroke-linejoin:miter;stroke-opacity:1"/>
<ellipse cx="81.1" cy="64.1" rx="17.2" ry="17.2" class="atom-2" style="fill:#FF7F7F;fill-rule:evenodd;stroke:#FF7F7F;stroke-width:1.0px;stroke-linecap:butt;stroke-linejoin:miter;stroke-opacity:1"/>
<ellipse cx="83.7" cy="34.8" rx="17.2" ry="17.2" class="atom-3" style="fill:#FF7F7F;fill-rule:evenodd;stroke:#FF7F7F;stroke-width:1.0px;stroke-linecap:butt;stroke-linejoin:miter;stroke-opacity:1"/>
<ellipse cx="110.4" cy="22.4" rx="17.2" ry="17.2" class="atom-4" style="fill:#FF7F7F;fill-rule:evenodd;stroke:#FF7F7F;stroke-width:1.0px;stroke-linecap:butt;stroke-linejoin:miter;stroke-opacity:1"/>
<ellipse cx="134.5" cy="39.3" rx="17.2" ry="17.2" class="atom-5" style="fill:#FF7F7F;fill-rule:evenodd;stroke:#FF7F7F;stroke-width:1.0px;stroke-linecap:butt;stroke-linejoin:miter;stroke-opacity:1"/>
<ellipse cx="161.2" cy="26.9" rx="1.9" ry="1.9" class="atom-6" style="fill:#FF7F7F;fill-rule:evenodd;stroke:#FF7F7F;stroke-width:1.0px;stroke-linecap:butt;stroke-linejoin:miter;stroke-opacity:1"/>
<ellipse cx="185.3" cy="43.8" rx="3.0" ry="3.0" class="atom-7" style="fill:#FF7F7F;fill-rule:evenodd;stroke:#FF7F7F;stroke-width:1.0px;stroke-linecap:butt;stroke-linejoin:miter;stroke-opacity:1"/>
<ellipse cx="182.7" cy="73.1" rx="3.0" ry="3.0" class="atom-8" style="fill:#FF7F7F;fill-rule:evenodd;stroke:#FF7F7F;stroke-width:1.0px;stroke-linecap:butt;stroke-linejoin:miter;stroke-opacity:1"/>
<ellipse cx="206.8" cy="90.0" rx="3.0" ry="3.0" class="atom-9" style="fill:#FF7F7F;fill-rule:evenodd;stroke:#FF7F7F;stroke-width:1.0px;stroke-linecap:butt;stroke-linejoin:miter;stroke-opacity:1"/>
<ellipse cx="233.5" cy="77.5" rx="3.0" ry="3.0" class="atom-10" style="fill:#FF7F7F;fill-rule:evenodd;stroke:#FF7F7F;stroke-width:1.0px;stroke-linecap:butt;stroke-linejoin:miter;stroke-opacity:1"/>
<ellipse cx="236.1" cy="48.2" rx="3.0" ry="3.0" class="atom-11" style="fill:#FF7F7F;fill-rule:evenodd;stroke:#FF7F7F;stroke-width:1.0px;stroke-linecap:butt;stroke-linejoin:miter;stroke-opacity:1"/>
<ellipse cx="212.0" cy="31.3" rx="3.0" ry="3.0" class="atom-12" style="fill:#FF7F7F;fill-rule:evenodd;stroke:#FF7F7F;stroke-width:1.0px;stroke-linecap:butt;stroke-linejoin:miter;stroke-opacity:1"/>
<ellipse cx="131.9" cy="68.6" rx="17.2" ry="17.2" class="atom-13" style="fill:#FF7F7F;fill-rule:evenodd;stroke:#FF7F7F;stroke-width:1.0px;stroke-linecap:butt;stroke-linejoin:miter;stroke-opacity:1"/>
<ellipse cx="105.2" cy="81.0" rx="17.2" ry="17.2" class="atom-14" style="fill:#FF7F7F;fill-rule:evenodd;stroke:#FF7F7F;stroke-width:1.0px;stroke-linecap:butt;stroke-linejoin:miter;stroke-opacity:1"/>
<path class="bond-0 atom-0 atom-1" d="M 35.2,63.0 L 50.3,73.6" style="fill:none;fill-rule:evenodd;stroke:#000000;stroke-width:2.0px;stroke-linecap:butt;stroke-linejoin:miter;stroke-opacity:1"/>
<path class="bond-1 atom-1 atom-2" d="M 58.6,74.6 L 81.1,64.1" style="fill:none;fill-rule:evenodd;stroke:#000000;stroke-width:2.0px;stroke-linecap:butt;stroke-linejoin:miter;stroke-opacity:1"/>
<path class="bond-2 atom-2 atom-3" d="M 81.1,64.1 L 83.7,34.8" style="fill:none;fill-rule:evenodd;stroke:#000000;stroke-width:2.0px;stroke-linecap:butt;stroke-linejoin:miter;stroke-opacity:1"/>
<path class="bond-2 atom-2 atom-3" d="M 85.8,62.0 L 87.9,37.7" style="fill:none;fill-rule:evenodd;stroke:#000000;stroke-width:2.0px;stroke-linecap:butt;stroke-linejoin:miter;stroke-opacity:1"/>
<path class="bond-3 atom-3 atom-4" d="M 83.7,34.8 L 110.4,22.4" style="fill:none;fill-rule:evenodd;stroke:#000000;stroke-width:2.0px;stroke-linecap:butt;stroke-linejoin:miter;stroke-opacity:1"/>
<path class="bond-4 atom-4 atom-5" d="M 110.4,22.4 L 134.5,39.3" style="fill:none;fill-rule:evenodd;stroke:#000000;stroke-width:2.0px;stroke-linecap:butt;stroke-linejoin:miter;stroke-opacity:1"/>
<path class="bond-4 atom-4 atom-5" d="M 110.0,27.5 L 129.9,41.4" style="fill:none;fill-rule:evenodd;stroke:#000000;stroke-width:2.0px;stroke-linecap:butt;stroke-linejoin:miter;stroke-opacity:1"/>
<path class="bond-5 atom-5 atom-6" d="M 134.5,39.3 L 157.6,28.6" style="fill:none;fill-rule:evenodd;stroke:#000000;stroke-width:2.0px;stroke-linecap:butt;stroke-linejoin:miter;stroke-opacity:1"/>
<path class="bond-6 atom-6 atom-7" d="M 164.8,29.4 L 185.3,43.8" style="fill:none;fill-rule:evenodd;stroke:#000000;stroke-width:2.0px;stroke-linecap:butt;stroke-linejoin:miter;stroke-opacity:1"/>
<path class="bond-7 atom-7 atom-8" d="M 185.3,43.8 L 182.7,73.1" style="fill:none;fill-rule:evenodd;stroke:#000000;stroke-width:2.0px;stroke-linecap:butt;stroke-linejoin:miter;stroke-opacity:1"/>
<path class="bond-7 atom-7 atom-8" d="M 189.5,46.7 L 187.3,70.9" style="fill:none;fill-rule:evenodd;stroke:#000000;stroke-width:2.0px;stroke-linecap:butt;stroke-linejoin:miter;stroke-opacity:1"/>
<path class="bond-8 atom-8 atom-9" d="M 182.7,73.1 L 206.8,90.0" style="fill:none;fill-rule:evenodd;stroke:#000000;stroke-width:2.0px;stroke-linecap:butt;stroke-linejoin:miter;stroke-opacity:1"/>
<path class="bond-9 atom-9 atom-10" d="M 206.8,90.0 L 233.5,77.5" style="fill:none;fill-rule:evenodd;stroke:#000000;stroke-width:2.0px;stroke-linecap:butt;stroke-linejoin:miter;stroke-opacity:1"/>
<path class="bond-9 atom-9 atom-10" d="M 207.3,84.9 L 229.3,74.6" style="fill:none;fill-rule:evenodd;stroke:#000000;stroke-width:2.0px;stroke-linecap:butt;stroke-linejoin:miter;stroke-opacity:1"/>
<path class="bond-10 atom-10 atom-11" d="M 233.5,77.5 L 236.1,48.2" style="fill:none;fill-rule:evenodd;stroke:#000000;stroke-width:2.0px;stroke-linecap:butt;stroke-linejoin:miter;stroke-opacity:1"/>
<path class="bond-11 atom-11 atom-12" d="M 236.1,48.2 L 212.0,31.3" style="fill:none;fill-rule:evenodd;stroke:#000000;stroke-width:2.0px;stroke-linecap:butt;stroke-linejoin:miter;stroke-opacity:1"/>
<path class="bond-11 atom-11 atom-12" d="M 231.5,50.4 L 211.5,36.4" style="fill:none;fill-rule:evenodd;stroke:#000000;stroke-width:2.0px;stroke-linecap:butt;stroke-linejoin:miter;stroke-opacity:1"/>
<path class="bond-12 atom-5 atom-13" d="M 134.5,39.3 L 131.9,68.6" style="fill:none;fill-rule:evenodd;stroke:#000000;stroke-width:2.0px;stroke-linecap:butt;stroke-linejoin:miter;stroke-opacity:1"/>
<path class="bond-13 atom-13 atom-14" d="M 131.9,68.6 L 105.2,81.0" style="fill:none;fill-rule:evenodd;stroke:#000000;stroke-width:2.0px;stroke-linecap:butt;stroke-linejoin:miter;stroke-opacity:1"/>
<path class="bond-13 atom-13 atom-14" d="M 127.8,65.7 L 105.7,75.9" style="fill:none;fill-rule:evenodd;stroke:#000000;stroke-width:2.0px;stroke-linecap:butt;stroke-linejoin:miter;stroke-opacity:1"/>
<path class="bond-14 atom-14 atom-2" d="M 105.2,81.0 L 81.1,64.1" style="fill:none;fill-rule:evenodd;stroke:#000000;stroke-width:2.0px;stroke-linecap:butt;stroke-linejoin:miter;stroke-opacity:1"/>
<path class="bond-15 atom-12 atom-7" d="M 212.0,31.3 L 185.3,43.8" style="fill:none;fill-rule:evenodd;stroke:#000000;stroke-width:2.0px;stroke-linecap:butt;stroke-linejoin:miter;stroke-opacity:1"/>
<path d="M 83.6,36.3 L 83.7,34.8 L 85.1,34.2" style="fill:none;stroke:#000000;stroke-width:2.0px;stroke-linecap:butt;stroke-linejoin:miter;stroke-miterlimit:10;stroke-opacity:1;"/>
<path d="M 109.1,23.0 L 110.4,22.4 L 111.6,23.2" style="fill:none;stroke:#000000;stroke-width:2.0px;stroke-linecap:butt;stroke-linejoin:miter;stroke-miterlimit:10;stroke-opacity:1;"/>
<path d="M 182.8,71.6 L 182.7,73.1 L 183.9,73.9" style="fill:none;stroke:#000000;stroke-width:2.0px;stroke-linecap:butt;stroke-linejoin:miter;stroke-miterlimit:10;stroke-opacity:1;"/>
<path d="M 205.6,89.1 L 206.8,90.0 L 208.1,89.3" style="fill:none;stroke:#000000;stroke-width:2.0px;stroke-linecap:butt;stroke-linejoin:miter;stroke-miterlimit:10;stroke-opacity:1;"/>
<path d="M 232.2,78.2 L 233.5,77.5 L 233.6,76.1" style="fill:none;stroke:#000000;stroke-width:2.0px;stroke-linecap:butt;stroke-linejoin:miter;stroke-miterlimit:10;stroke-opacity:1;"/>
<path d="M 236.0,49.7 L 236.1,48.2 L 234.9,47.4" style="fill:none;stroke:#000000;stroke-width:2.0px;stroke-linecap:butt;stroke-linejoin:miter;stroke-miterlimit:10;stroke-opacity:1;"/>
<path d="M 213.2,32.2 L 212.0,31.3 L 210.6,31.9" style="fill:none;stroke:#000000;stroke-width:2.0px;stroke-linecap:butt;stroke-linejoin:miter;stroke-miterlimit:10;stroke-opacity:1;"/>
<path d="M 132.1,67.1 L 131.9,68.6 L 130.6,69.2" style="fill:none;stroke:#000000;stroke-width:2.0px;stroke-linecap:butt;stroke-linejoin:miter;stroke-miterlimit:10;stroke-opacity:1;"/>
<path d="M 106.6,80.4 L 105.2,81.0 L 104.0,80.2" style="fill:none;stroke:#000000;stroke-width:2.0px;stroke-linecap:butt;stroke-linejoin:miter;stroke-miterlimit:10;stroke-opacity:1;"/>
<path class="atom-0" d="M 18.3 55.5 L 19.4 55.5 L 19.4 59.1 L 23.7 59.1 L 23.7 55.5 L 24.8 55.5 L 24.8 63.9 L 23.7 63.9 L 23.7 60.0 L 19.4 60.0 L 19.4 63.9 L 18.3 63.9 L 18.3 55.5 " fill="#000000"/>
<path class="atom-0" d="M 26.5 59.7 Q 26.5 57.7, 27.5 56.6 Q 28.5 55.4, 30.4 55.4 Q 32.2 55.4, 33.2 56.6 Q 34.2 57.7, 34.2 59.7 Q 34.2 61.7, 33.2 62.9 Q 32.2 64.0, 30.4 64.0 Q 28.5 64.0, 27.5 62.9 Q 26.5 61.7, 26.5 59.7 M 30.4 63.1 Q 31.6 63.1, 32.3 62.2 Q 33.0 61.3, 33.0 59.7 Q 33.0 58.0, 32.3 57.2 Q 31.6 56.4, 30.4 56.4 Q 29.1 56.4, 28.4 57.2 Q 27.7 58.0, 27.7 59.7 Q 27.7 61.4, 28.4 62.2 Q 29.1 63.1, 30.4 63.1 " fill="#000000"/>
<path class="atom-1" d="M 52.6 72.4 L 55.3 76.8 Q 55.6 77.2, 56.1 78.0 Q 56.5 78.8, 56.5 78.9 L 56.5 72.4 L 57.6 72.4 L 57.6 80.7 L 56.5 80.7 L 53.5 75.9 Q 53.2 75.3, 52.8 74.7 Q 52.5 74.0, 52.4 73.8 L 52.4 80.7 L 51.3 80.7 L 51.3 72.4 L 52.6 72.4 " fill="#000000"/>
<path class="atom-1" d="M 51.2 81.5 L 52.3 81.5 L 52.3 85.1 L 56.6 85.1 L 56.6 81.5 L 57.7 81.5 L 57.7 89.9 L 56.6 89.9 L 56.6 86.0 L 52.3 86.0 L 52.3 89.9 L 51.2 89.9 L 51.2 81.5 " fill="#000000"/>
<path class="atom-6" d="M 158.8 29.7 Q 158.9 29.7, 159.3 29.9 Q 159.7 30.1, 160.1 30.2 Q 160.6 30.3, 161.0 30.3 Q 161.8 30.3, 162.2 29.9 Q 162.7 29.5, 162.7 28.8 Q 162.7 28.4, 162.5 28.1 Q 162.2 27.8, 161.9 27.7 Q 161.5 27.5, 160.9 27.3 Q 160.2 27.1, 159.8 26.9 Q 159.3 26.7, 159.0 26.2 Q 158.7 25.8, 158.7 25.0 Q 158.7 24.0, 159.4 23.3 Q 160.1 22.7, 161.5 22.7 Q 162.5 22.7, 163.6 23.2 L 163.3 24.1 Q 162.3 23.7, 161.6 23.7 Q 160.8 23.7, 160.3 24.0 Q 159.9 24.3, 159.9 24.9 Q 159.9 25.3, 160.1 25.6 Q 160.3 25.9, 160.7 26.0 Q 161.0 26.2, 161.6 26.4 Q 162.3 26.6, 162.8 26.8 Q 163.2 27.1, 163.5 27.6 Q 163.9 28.0, 163.9 28.8 Q 163.9 30.0, 163.1 30.6 Q 162.3 31.2, 161.0 31.2 Q 160.3 31.2, 159.7 31.1 Q 159.2 30.9, 158.5 30.6 L 158.8 29.7 " fill="#000000"/>
</svg>