<svg xmlns="http://www.w3.org/2000/svg" xmlns:rdkit="http://www.rdkit.org/xml" xmlns:xlink="http://www.w3.org/1999/xlink" version="1.1" baseProfile="full" xml:space="preserve" width="157px" height="81px" viewBox="0 0 157 81">
<!-- END OF HEADER -->
<rect style="opacity:1.0;fill:#FFFFFF;stroke:none" width="157.0" height="81.0" x="0.0" y="0.0"> </rect>
<path class="bond-0 atom-0 atom-1" d="M 13.1,64.3 L 38.6,50.4 L 42.5,57.5 L 17.0,71.4 Z" style="fill:#FF4848;fill-rule:evenodd;fill-opacity:1;stroke:#FF4848;stroke-width:2.0px;stroke-linecap:butt;stroke-linejoin:miter;stroke-miterlimit:10;stroke-opacity:1;"/>
<path class="bond-1 atom-1 atom-2" d="M 42.6,50.5 L 67.4,65.6 L 63.2,72.5 L 38.4,57.4 Z" style="fill:#FF4848;fill-rule:evenodd;fill-opacity:1;stroke:#FF4848;stroke-width:2.0px;stroke-linecap:butt;stroke-linejoin:miter;stroke-miterlimit:10;stroke-opacity:1;"/>
<path class="bond-3 atom-3 atom-4" d="M 86.7,55.1 L 87.4,26.1 L 95.5,26.3 L 94.8,55.2 Z" style="fill:#9C9CFF;fill-rule:evenodd;fill-opacity:1;stroke:#9C9CFF;stroke-width:2.0px;stroke-linecap:butt;stroke-linejoin:miter;stroke-miterlimit:10;stroke-opacity:1;"/>
<path class="bond-4 atom-4 atom-5" d="M 89.5,22.6 L 114.9,8.7 L 118.8,15.8 L 93.4,29.7 Z" style="fill:#9C9CFF;fill-rule:evenodd;fill-opacity:1;stroke:#9C9CFF;stroke-width:2.0px;stroke-linecap:butt;stroke-linejoin:miter;stroke-miterlimit:10;stroke-opacity:1;"/>
<path class="bond-5 atom-5 atom-6" d="M 119.0,8.8 L 143.8,23.9 L 139.5,30.8 L 114.8,15.7 Z" style="fill:#9C9CFF;fill-rule:evenodd;fill-opacity:1;stroke:#9C9CFF;stroke-width:2.0px;stroke-linecap:butt;stroke-linejoin:miter;stroke-miterlimit:10;stroke-opacity:1;"/>
<path class="bond-6 atom-6 atom-7" d="M 145.7,27.5 L 145.0,56.5 L 136.9,56.3 L 137.6,27.3 Z" style="fill:#9C9CFF;fill-rule:evenodd;fill-opacity:1;stroke:#9C9CFF;stroke-width:2.0px;stroke-linecap:butt;stroke-linejoin:miter;stroke-miterlimit:10;stroke-opacity:1;"/>
<path class="bond-7 atom-7 atom-8" d="M 142.9,59.9 L 117.4,73.8 L 113.5,66.7 L 139.0,52.8 Z" style="fill:#9C9CFF;fill-rule:evenodd;fill-opacity:1;stroke:#9C9CFF;stroke-width:2.0px;stroke-linecap:butt;stroke-linejoin:miter;stroke-miterlimit:10;stroke-opacity:1;"/>
<path class="bond-8 atom-1 atom-9" d="M 36.5,53.8 L 37.2,24.9 L 45.3,25.0 L 44.6,54.0 Z" style="fill:#FF4848;fill-rule:evenodd;fill-opacity:1;stroke:#FF4848;stroke-width:2.0px;stroke-linecap:butt;stroke-linejoin:miter;stroke-miterlimit:10;stroke-opacity:1;"/>
<path class="bond-9 atom-9 atom-10" d="M 39.1,28.4 L 14.3,13.3 L 18.6,6.4 L 43.3,21.5 Z" style="fill:#FF4848;fill-rule:evenodd;fill-opacity:1;stroke:#FF4848;stroke-width:2.0px;stroke-linecap:butt;stroke-linejoin:miter;stroke-miterlimit:10;stroke-opacity:1;"/>
<path class="bond-10 atom-8 atom-3" d="M 113.4,73.7 L 88.6,58.6 L 92.8,51.7 L 117.6,66.8 Z" style="fill:#9C9CFF;fill-rule:evenodd;fill-opacity:1;stroke:#9C9CFF;stroke-width:2.0px;stroke-linecap:butt;stroke-linejoin:miter;stroke-miterlimit:10;stroke-opacity:1;"/>
<ellipse cx="15.1" cy="67.8" rx="5.8" ry="5.8" class="atom-0" style="fill:#FF4848;fill-rule:evenodd;stroke:#FF4848;stroke-width:1.0px;stroke-linecap:butt;stroke-linejoin:miter;stroke-opacity:1"/>
<ellipse cx="40.5" cy="53.9" rx="5.8" ry="5.8" class="atom-1" style="fill:#FF4848;fill-rule:evenodd;stroke:#FF4848;stroke-width:1.0px;stroke-linecap:butt;stroke-linejoin:miter;stroke-opacity:1"/>
<ellipse cx="65.3" cy="69.0" rx="5.8" ry="5.8" class="atom-2" style="fill:#FF4848;fill-rule:evenodd;stroke:#FF4848;stroke-width:1.0px;stroke-linecap:butt;stroke-linejoin:miter;stroke-opacity:1"/>
<ellipse cx="90.7" cy="55.1" rx="5.8" ry="5.8" class="atom-3" style="fill:#9C9CFF;fill-rule:evenodd;stroke:#9C9CFF;stroke-width:1.0px;stroke-linecap:butt;stroke-linejoin:miter;stroke-opacity:1"/>
<ellipse cx="91.4" cy="26.2" rx="5.8" ry="5.8" class="atom-4" style="fill:#9C9CFF;fill-rule:evenodd;stroke:#9C9CFF;stroke-width:1.0px;stroke-linecap:butt;stroke-linejoin:miter;stroke-opacity:1"/>
<ellipse cx="116.9" cy="12.3" rx="5.8" ry="5.8" class="atom-5" style="fill:#9C9CFF;fill-rule:evenodd;stroke:#9C9CFF;stroke-width:1.0px;stroke-linecap:butt;stroke-linejoin:miter;stroke-opacity:1"/>
<ellipse cx="141.6" cy="27.4" rx="5.8" ry="5.8" class="atom-6" style="fill:#9C9CFF;fill-rule:evenodd;stroke:#9C9CFF;stroke-width:1.0px;stroke-linecap:butt;stroke-linejoin:miter;stroke-opacity:1"/>
<ellipse cx="140.9" cy="56.4" rx="5.8" ry="5.8" class="atom-7" style="fill:#9C9CFF;fill-rule:evenodd;stroke:#9C9CFF;stroke-width:1.0px;stroke-linecap:butt;stroke-linejoin:miter;stroke-opacity:1"/>
<ellipse cx="115.5" cy="70.2" rx="5.8" ry="5.8" class="atom-8" style="fill:#9C9CFF;fill-rule:evenodd;stroke:#9C9CFF;stroke-width:1.0px;stroke-linecap:butt;stroke-linejoin:miter;stroke-opacity:1"/>
<ellipse cx="41.2" cy="25.0" rx="5.8" ry="5.8" class="atom-9" style="fill:#FF4848;fill-rule:evenodd;stroke:#FF4848;stroke-width:1.0px;stroke-linecap:butt;stroke-linejoin:miter;stroke-opacity:1"/>
<ellipse cx="16.5" cy="9.9" rx="5.8" ry="5.8" class="atom-10" style="fill:#FF4848;fill-rule:evenodd;stroke:#FF4848;stroke-width:1.0px;stroke-linecap:butt;stroke-linejoin:miter;stroke-opacity:1"/>
<path class="bond-0 atom-0 atom-1" d="M 15.1,67.8 L 36.4,56.2" style="fill:none;fill-rule:evenodd;stroke:#000000;stroke-width:2.0px;stroke-linecap:butt;stroke-linejoin:miter;stroke-opacity:1"/>
<path class="bond-1 atom-1 atom-2" d="M 44.6,56.4 L 65.3,69.0" style="fill:none;fill-rule:evenodd;stroke:#000000;stroke-width:2.0px;stroke-linecap:butt;stroke-linejoin:miter;stroke-opacity:1"/>
<path class="bond-2 atom-2 atom-3" d="M 65.3,69.0 L 90.7,55.1" style="fill:none;fill-rule:evenodd;stroke:#000000;stroke-width:2.0px;stroke-linecap:butt;stroke-linejoin:miter;stroke-opacity:1"/>
<path class="bond-3 atom-3 atom-4" d="M 90.7,55.1 L 91.4,26.2" style="fill:none;fill-rule:evenodd;stroke:#000000;stroke-width:2.0px;stroke-linecap:butt;stroke-linejoin:miter;stroke-opacity:1"/>
<path class="bond-3 atom-3 atom-4" d="M 95.1,52.7 L 95.7,28.8" style="fill:none;fill-rule:evenodd;stroke:#000000;stroke-width:2.0px;stroke-linecap:butt;stroke-linejoin:miter;stroke-opacity:1"/>
<path class="bond-4 atom-4 atom-5" d="M 91.4,26.2 L 116.9,12.3" style="fill:none;fill-rule:evenodd;stroke:#000000;stroke-width:2.0px;stroke-linecap:butt;stroke-linejoin:miter;stroke-opacity:1"/>
<path class="bond-5 atom-5 atom-6" d="M 116.9,12.3 L 141.6,27.4" style="fill:none;fill-rule:evenodd;stroke:#000000;stroke-width:2.0px;stroke-linecap:butt;stroke-linejoin:miter;stroke-opacity:1"/>
<path class="bond-5 atom-5 atom-6" d="M 116.8,17.3 L 137.2,29.8" style="fill:none;fill-rule:evenodd;stroke:#000000;stroke-width:2.0px;stroke-linecap:butt;stroke-linejoin:miter;stroke-opacity:1"/>
<path class="bond-6 atom-6 atom-7" d="M 141.6,27.4 L 140.9,56.4" style="fill:none;fill-rule:evenodd;stroke:#000000;stroke-width:2.0px;stroke-linecap:butt;stroke-linejoin:miter;stroke-opacity:1"/>
<path class="bond-7 atom-7 atom-8" d="M 140.9,56.4 L 115.5,70.2" style="fill:none;fill-rule:evenodd;stroke:#000000;stroke-width:2.0px;stroke-linecap:butt;stroke-linejoin:miter;stroke-opacity:1"/>
<path class="bond-7 atom-7 atom-8" d="M 136.7,53.7 L 115.6,65.2" style="fill:none;fill-rule:evenodd;stroke:#000000;stroke-width:2.0px;stroke-linecap:butt;stroke-linejoin:miter;stroke-opacity:1"/>
<path class="bond-8 atom-1 atom-9" d="M 40.6,48.9 L 41.1,30.0" style="fill:none;fill-rule:evenodd;stroke:#000000;stroke-width:2.0px;stroke-linecap:butt;stroke-linejoin:miter;stroke-opacity:1"/>
<path class="bond-9 atom-9 atom-10" d="M 38.3,20.6 L 22.3,10.9" style="fill:none;fill-rule:evenodd;stroke:#000000;stroke-width:2.0px;stroke-linecap:butt;stroke-linejoin:miter;stroke-opacity:1"/>
<path class="bond-9 atom-9 atom-10" d="M 36.0,24.3 L 20.0,14.6" style="fill:none;fill-rule:evenodd;stroke:#000000;stroke-width:2.0px;stroke-linecap:butt;stroke-linejoin:miter;stroke-opacity:1"/>
<path class="bond-10 atom-8 atom-3" d="M 115.5,70.2 L 90.7,55.1" style="fill:none;fill-rule:evenodd;stroke:#000000;stroke-width:2.0px;stroke-linecap:butt;stroke-linejoin:miter;stroke-opacity:1"/>
<path d="M 64.2,68.4 L 65.3,69.0 L 66.5,68.3" style="fill:none;stroke:#000000;stroke-width:2.0px;stroke-linecap:butt;stroke-linejoin:miter;stroke-miterlimit:10;stroke-opacity:1;"/>
<path d="M 91.4,27.6 L 91.4,26.2 L 92.7,25.5" style="fill:none;stroke:#000000;stroke-width:2.0px;stroke-linecap:butt;stroke-linejoin:miter;stroke-miterlimit:10;stroke-opacity:1;"/>
<path d="M 115.6,13.0 L 116.9,12.3 L 118.1,13.0" style="fill:none;stroke:#000000;stroke-width:2.0px;stroke-linecap:butt;stroke-linejoin:miter;stroke-miterlimit:10;stroke-opacity:1;"/>
<path d="M 140.4,26.6 L 141.6,27.4 L 141.6,28.8" style="fill:none;stroke:#000000;stroke-width:2.0px;stroke-linecap:butt;stroke-linejoin:miter;stroke-miterlimit:10;stroke-opacity:1;"/>
<path d="M 141.0,54.9 L 140.9,56.4 L 139.7,57.1" style="fill:none;stroke:#000000;stroke-width:2.0px;stroke-linecap:butt;stroke-linejoin:miter;stroke-miterlimit:10;stroke-opacity:1;"/>
<path d="M 116.8,69.6 L 115.5,70.2 L 114.3,69.5" style="fill:none;stroke:#000000;stroke-width:2.0px;stroke-linecap:butt;stroke-linejoin:miter;stroke-miterlimit:10;stroke-opacity:1;"/>
<path class="atom-1" d="M 38.7 49.8 L 41.4 54.2 Q 41.7 54.6, 42.1 55.4 Q 42.5 56.2, 42.5 56.2 L 42.5 49.8 L 43.6 49.8 L 43.6 58.0 L 42.5 58.0 L 39.6 53.3 Q 39.3 52.7, 38.9 52.1 Q 38.6 51.5, 38.5 51.3 L 38.5 58.0 L 37.4 58.0 L 37.4 49.8 L 38.7 49.8 " fill="#000000"/>
<path class="atom-9" d="M 39.4 20.8 L 42.1 25.2 Q 42.4 25.6, 42.8 26.4 Q 43.2 27.2, 43.2 27.2 L 43.2 20.8 L 44.3 20.8 L 44.3 29.1 L 43.2 29.1 L 40.3 24.3 Q 40.0 23.7, 39.6 23.1 Q 39.3 22.5, 39.2 22.3 L 39.2 29.1 L 38.1 29.1 L 38.1 20.8 L 39.4 20.8 " fill="#000000"/>
<path class="atom-10" d="M 12.7 9.9 Q 12.7 7.9, 13.7 6.8 Q 14.6 5.7, 16.5 5.7 Q 18.3 5.7, 19.2 6.8 Q 20.2 7.9, 20.2 9.9 Q 20.2 11.9, 19.2 13.0 Q 18.2 14.1, 16.5 14.1 Q 14.6 14.1, 13.7 13.0 Q 12.7 11.9, 12.7 9.9 M 16.5 13.2 Q 17.7 13.2, 18.4 12.4 Q 19.1 11.5, 19.1 9.9 Q 19.1 8.3, 18.4 7.4 Q 17.7 6.6, 16.5 6.6 Q 15.2 6.6, 14.5 7.4 Q 13.8 8.2, 13.8 9.9 Q 13.8 11.5, 14.5 12.4 Q 15.2 13.2, 16.5 13.2 " fill="#000000"/>
</svg>