<svg xmlns="http://www.w3.org/2000/svg" xmlns:rdkit="http://www.rdkit.org/xml" xmlns:xlink="http://www.w3.org/1999/xlink" version="1.1" baseProfile="full" xml:space="preserve" width="283px" height="139px" viewBox="0 0 283 139">
<!-- END OF HEADER -->
<rect style="opacity:1.0;fill:#FFFFFF;stroke:none" width="283.0" height="139.0" x="0.0" y="0.0"> </rect>
<ellipse cx="59.1" cy="115.6" rx="15.7" ry="15.7" class="atom-0" style="fill:#FF7F7F;fill-rule:evenodd;stroke:#FF7F7F;stroke-width:1.0px;stroke-linecap:butt;stroke-linejoin:miter;stroke-opacity:1"/>
<ellipse cx="56.6" cy="86.2" rx="15.7" ry="15.7" class="atom-1" style="fill:#FF7F7F;fill-rule:evenodd;stroke:#FF7F7F;stroke-width:1.0px;stroke-linecap:butt;stroke-linejoin:miter;stroke-opacity:1"/>
<ellipse cx="29.8" cy="73.7" rx="15.7" ry="15.7" class="atom-2" style="fill:#FF7F7F;fill-rule:evenodd;stroke:#FF7F7F;stroke-width:1.0px;stroke-linecap:butt;stroke-linejoin:miter;stroke-opacity:1"/>
<ellipse cx="80.8" cy="69.2" rx="15.7" ry="15.7" class="atom-3" style="fill:#FF7F7F;fill-rule:evenodd;stroke:#FF7F7F;stroke-width:1.0px;stroke-linecap:butt;stroke-linejoin:miter;stroke-opacity:1"/>
<ellipse cx="78.2" cy="39.8" rx="15.7" ry="15.7" class="atom-4" style="fill:#FF7F7F;fill-rule:evenodd;stroke:#FF7F7F;stroke-width:1.0px;stroke-linecap:butt;stroke-linejoin:miter;stroke-opacity:1"/>
<ellipse cx="102.4" cy="22.9" rx="15.7" ry="15.7" class="atom-5" style="fill:#FF7F7F;fill-rule:evenodd;stroke:#FF7F7F;stroke-width:1.0px;stroke-linecap:butt;stroke-linejoin:miter;stroke-opacity:1"/>
<ellipse cx="129.2" cy="35.4" rx="15.7" ry="15.7" class="atom-6" style="fill:#FF7F7F;fill-rule:evenodd;stroke:#FF7F7F;stroke-width:1.0px;stroke-linecap:butt;stroke-linejoin:miter;stroke-opacity:1"/>
<ellipse cx="153.3" cy="18.5" rx="2.0" ry="2.0" class="atom-7" style="fill:#FF7F7F;fill-rule:evenodd;stroke:#FF7F7F;stroke-width:1.0px;stroke-linecap:butt;stroke-linejoin:miter;stroke-opacity:1"/>
<ellipse cx="180.1" cy="31.0" rx="2.0" ry="2.0" class="atom-8" style="fill:#7F7FFF;fill-rule:evenodd;stroke:#7F7FFF;stroke-width:1.0px;stroke-linecap:butt;stroke-linejoin:miter;stroke-opacity:1"/>
<ellipse cx="182.7" cy="60.4" rx="2.0" ry="2.0" class="atom-9" style="fill:#7F7FFF;fill-rule:evenodd;stroke:#7F7FFF;stroke-width:1.0px;stroke-linecap:butt;stroke-linejoin:miter;stroke-opacity:1"/>
<ellipse cx="209.4" cy="72.9" rx="2.0" ry="2.0" class="atom-10" style="fill:#7F7FFF;fill-rule:evenodd;stroke:#7F7FFF;stroke-width:1.0px;stroke-linecap:butt;stroke-linejoin:miter;stroke-opacity:1"/>
<ellipse cx="233.6" cy="56.0" rx="2.0" ry="2.0" class="atom-11" style="fill:#7F7FFF;fill-rule:evenodd;stroke:#7F7FFF;stroke-width:1.0px;stroke-linecap:butt;stroke-linejoin:miter;stroke-opacity:1"/>
<ellipse cx="260.4" cy="68.4" rx="2.0" ry="2.0" class="atom-12" style="fill:#7F7FFF;fill-rule:evenodd;stroke:#7F7FFF;stroke-width:1.0px;stroke-linecap:butt;stroke-linejoin:miter;stroke-opacity:1"/>
<ellipse cx="262.9" cy="97.9" rx="2.0" ry="2.0" class="atom-13" style="fill:#7F7FFF;fill-rule:evenodd;stroke:#7F7FFF;stroke-width:1.0px;stroke-linecap:butt;stroke-linejoin:miter;stroke-opacity:1"/>
<ellipse cx="265.5" cy="127.3" rx="2.0" ry="2.0" class="atom-14" style="fill:#7F7FFF;fill-rule:evenodd;stroke:#7F7FFF;stroke-width:1.0px;stroke-linecap:butt;stroke-linejoin:miter;stroke-opacity:1"/>
<ellipse cx="231.0" cy="26.5" rx="2.0" ry="2.0" class="atom-15" style="fill:#7F7FFF;fill-rule:evenodd;stroke:#7F7FFF;stroke-width:1.0px;stroke-linecap:butt;stroke-linejoin:miter;stroke-opacity:1"/>
<ellipse cx="204.3" cy="14.1" rx="2.0" ry="2.0" class="atom-16" style="fill:#7F7FFF;fill-rule:evenodd;stroke:#7F7FFF;stroke-width:1.0px;stroke-linecap:butt;stroke-linejoin:miter;stroke-opacity:1"/>
<ellipse cx="131.7" cy="64.8" rx="15.7" ry="15.7" class="atom-17" style="fill:#FF7F7F;fill-rule:evenodd;stroke:#FF7F7F;stroke-width:1.0px;stroke-linecap:butt;stroke-linejoin:miter;stroke-opacity:1"/>
<ellipse cx="107.5" cy="81.7" rx="15.7" ry="15.7" class="atom-18" style="fill:#FF7F7F;fill-rule:evenodd;stroke:#FF7F7F;stroke-width:1.0px;stroke-linecap:butt;stroke-linejoin:miter;stroke-opacity:1"/>
<path class="bond-0 atom-0 atom-1" d="M 56.5,110.6 L 54.8,91.5" style="fill:none;fill-rule:evenodd;stroke:#000000;stroke-width:2.0px;stroke-linecap:butt;stroke-linejoin:miter;stroke-opacity:1"/>
<path class="bond-0 atom-0 atom-1" d="M 60.9,110.2 L 59.2,91.1" style="fill:none;fill-rule:evenodd;stroke:#000000;stroke-width:2.0px;stroke-linecap:butt;stroke-linejoin:miter;stroke-opacity:1"/>
<path class="bond-1 atom-1 atom-2" d="M 52.4,84.2 L 34.6,75.9" style="fill:none;fill-rule:evenodd;stroke:#000000;stroke-width:2.0px;stroke-linecap:butt;stroke-linejoin:miter;stroke-opacity:1"/>
<path class="bond-2 atom-1 atom-3" d="M 64.0,81.0 L 80.8,69.2" style="fill:none;fill-rule:evenodd;stroke:#000000;stroke-width:2.0px;stroke-linecap:butt;stroke-linejoin:miter;stroke-opacity:1"/>
<path class="bond-3 atom-3 atom-4" d="M 80.8,69.2 L 78.2,39.8" style="fill:none;fill-rule:evenodd;stroke:#000000;stroke-width:2.0px;stroke-linecap:butt;stroke-linejoin:miter;stroke-opacity:1"/>
<path class="bond-3 atom-3 atom-4" d="M 85.0,66.3 L 82.8,42.0" style="fill:none;fill-rule:evenodd;stroke:#000000;stroke-width:2.0px;stroke-linecap:butt;stroke-linejoin:miter;stroke-opacity:1"/>
<path class="bond-4 atom-4 atom-5" d="M 78.2,39.8 L 102.4,22.9" style="fill:none;fill-rule:evenodd;stroke:#000000;stroke-width:2.0px;stroke-linecap:butt;stroke-linejoin:miter;stroke-opacity:1"/>
<path class="bond-5 atom-5 atom-6" d="M 102.4,22.9 L 129.2,35.4" style="fill:none;fill-rule:evenodd;stroke:#000000;stroke-width:2.0px;stroke-linecap:butt;stroke-linejoin:miter;stroke-opacity:1"/>
<path class="bond-5 atom-5 atom-6" d="M 102.8,28.0 L 125.0,38.3" style="fill:none;fill-rule:evenodd;stroke:#000000;stroke-width:2.0px;stroke-linecap:butt;stroke-linejoin:miter;stroke-opacity:1"/>
<path class="bond-6 atom-6 atom-7" d="M 129.2,35.4 L 148.5,21.8" style="fill:none;fill-rule:evenodd;stroke:#000000;stroke-width:2.0px;stroke-linecap:butt;stroke-linejoin:miter;stroke-opacity:1"/>
<path class="bond-7 atom-7 atom-8" d="M 158.2,20.7 L 180.1,31.0" style="fill:none;fill-rule:evenodd;stroke:#000000;stroke-width:2.0px;stroke-linecap:butt;stroke-linejoin:miter;stroke-opacity:1"/>
<path class="bond-8 atom-8 atom-9" d="M 180.1,31.0 L 182.7,60.4" style="fill:none;fill-rule:evenodd;stroke:#000000;stroke-width:2.0px;stroke-linecap:butt;stroke-linejoin:miter;stroke-opacity:1"/>
<path class="bond-8 atom-8 atom-9" d="M 184.7,33.1 L 186.8,57.5" style="fill:none;fill-rule:evenodd;stroke:#000000;stroke-width:2.0px;stroke-linecap:butt;stroke-linejoin:miter;stroke-opacity:1"/>
<path class="bond-9 atom-9 atom-10" d="M 182.7,60.4 L 209.4,72.9" style="fill:none;fill-rule:evenodd;stroke:#000000;stroke-width:2.0px;stroke-linecap:butt;stroke-linejoin:miter;stroke-opacity:1"/>
<path class="bond-10 atom-10 atom-11" d="M 209.4,72.9 L 233.6,56.0" style="fill:none;fill-rule:evenodd;stroke:#000000;stroke-width:2.0px;stroke-linecap:butt;stroke-linejoin:miter;stroke-opacity:1"/>
<path class="bond-10 atom-10 atom-11" d="M 209.0,67.8 L 229.0,53.8" style="fill:none;fill-rule:evenodd;stroke:#000000;stroke-width:2.0px;stroke-linecap:butt;stroke-linejoin:miter;stroke-opacity:1"/>
<path class="bond-11 atom-11 atom-12" d="M 233.6,56.0 L 256.2,66.5" style="fill:none;fill-rule:evenodd;stroke:#000000;stroke-width:2.0px;stroke-linecap:butt;stroke-linejoin:miter;stroke-opacity:1"/>
<path class="bond-12 atom-12 atom-13" d="M 263.0,73.4 L 264.7,92.5" style="fill:none;fill-rule:evenodd;stroke:#000000;stroke-width:2.0px;stroke-linecap:butt;stroke-linejoin:miter;stroke-opacity:1"/>
<path class="bond-12 atom-12 atom-13" d="M 258.6,73.8 L 260.3,92.8" style="fill:none;fill-rule:evenodd;stroke:#000000;stroke-width:2.0px;stroke-linecap:butt;stroke-linejoin:miter;stroke-opacity:1"/>
<path class="bond-13 atom-13 atom-14" d="M 265.6,103.0 L 267.2,121.9" style="fill:none;fill-rule:evenodd;stroke:#000000;stroke-width:2.0px;stroke-linecap:butt;stroke-linejoin:miter;stroke-opacity:1"/>
<path class="bond-13 atom-13 atom-14" d="M 261.2,103.4 L 262.8,122.3" style="fill:none;fill-rule:evenodd;stroke:#000000;stroke-width:2.0px;stroke-linecap:butt;stroke-linejoin:miter;stroke-opacity:1"/>
<path class="bond-14 atom-11 atom-15" d="M 233.6,56.0 L 231.0,26.5" style="fill:none;fill-rule:evenodd;stroke:#000000;stroke-width:2.0px;stroke-linecap:butt;stroke-linejoin:miter;stroke-opacity:1"/>
<path class="bond-15 atom-15 atom-16" d="M 231.0,26.5 L 204.3,14.1" style="fill:none;fill-rule:evenodd;stroke:#000000;stroke-width:2.0px;stroke-linecap:butt;stroke-linejoin:miter;stroke-opacity:1"/>
<path class="bond-15 atom-15 atom-16" d="M 226.9,29.5 L 204.7,19.1" style="fill:none;fill-rule:evenodd;stroke:#000000;stroke-width:2.0px;stroke-linecap:butt;stroke-linejoin:miter;stroke-opacity:1"/>
<path class="bond-16 atom-6 atom-17" d="M 129.2,35.4 L 131.7,64.8" style="fill:none;fill-rule:evenodd;stroke:#000000;stroke-width:2.0px;stroke-linecap:butt;stroke-linejoin:miter;stroke-opacity:1"/>
<path class="bond-17 atom-17 atom-18" d="M 131.7,64.8 L 107.5,81.7" style="fill:none;fill-rule:evenodd;stroke:#000000;stroke-width:2.0px;stroke-linecap:butt;stroke-linejoin:miter;stroke-opacity:1"/>
<path class="bond-17 atom-17 atom-18" d="M 127.1,62.7 L 107.1,76.6" style="fill:none;fill-rule:evenodd;stroke:#000000;stroke-width:2.0px;stroke-linecap:butt;stroke-linejoin:miter;stroke-opacity:1"/>
<path class="bond-18 atom-18 atom-3" d="M 107.5,81.7 L 80.8,69.2" style="fill:none;fill-rule:evenodd;stroke:#000000;stroke-width:2.0px;stroke-linecap:butt;stroke-linejoin:miter;stroke-opacity:1"/>
<path class="bond-19 atom-16 atom-8" d="M 204.3,14.1 L 180.1,31.0" style="fill:none;fill-rule:evenodd;stroke:#000000;stroke-width:2.0px;stroke-linecap:butt;stroke-linejoin:miter;stroke-opacity:1"/>
<path d="M 78.3,41.3 L 78.2,39.8 L 79.4,39.0" style="fill:none;stroke:#000000;stroke-width:2.0px;stroke-linecap:butt;stroke-linejoin:miter;stroke-miterlimit:10;stroke-opacity:1;"/>
<path d="M 101.2,23.8 L 102.4,22.9 L 103.7,23.5" style="fill:none;stroke:#000000;stroke-width:2.0px;stroke-linecap:butt;stroke-linejoin:miter;stroke-miterlimit:10;stroke-opacity:1;"/>
<path d="M 182.5,58.9 L 182.7,60.4 L 184.0,61.0" style="fill:none;stroke:#000000;stroke-width:2.0px;stroke-linecap:butt;stroke-linejoin:miter;stroke-miterlimit:10;stroke-opacity:1;"/>
<path d="M 208.1,72.3 L 209.4,72.9 L 210.6,72.0" style="fill:none;stroke:#000000;stroke-width:2.0px;stroke-linecap:butt;stroke-linejoin:miter;stroke-miterlimit:10;stroke-opacity:1;"/>
<path d="M 231.2,28.0 L 231.0,26.5 L 229.7,25.9" style="fill:none;stroke:#000000;stroke-width:2.0px;stroke-linecap:butt;stroke-linejoin:miter;stroke-miterlimit:10;stroke-opacity:1;"/>
<path d="M 205.6,14.7 L 204.3,14.1 L 203.1,14.9" style="fill:none;stroke:#000000;stroke-width:2.0px;stroke-linecap:butt;stroke-linejoin:miter;stroke-miterlimit:10;stroke-opacity:1;"/>
<path d="M 131.6,63.3 L 131.7,64.8 L 130.5,65.7" style="fill:none;stroke:#000000;stroke-width:2.0px;stroke-linecap:butt;stroke-linejoin:miter;stroke-miterlimit:10;stroke-opacity:1;"/>
<path d="M 108.7,80.9 L 107.5,81.7 L 106.2,81.1" style="fill:none;stroke:#000000;stroke-width:2.0px;stroke-linecap:butt;stroke-linejoin:miter;stroke-miterlimit:10;stroke-opacity:1;"/>
<path class="atom-0" d="M 55.3 115.6 Q 55.3 113.6, 56.3 112.5 Q 57.3 111.4, 59.1 111.4 Q 61.0 111.4, 62.0 112.5 Q 63.0 113.6, 63.0 115.6 Q 63.0 117.6, 62.0 118.8 Q 61.0 119.9, 59.1 119.9 Q 57.3 119.9, 56.3 118.8 Q 55.3 117.7, 55.3 115.6 M 59.1 119.0 Q 60.4 119.0, 61.1 118.1 Q 61.8 117.3, 61.8 115.6 Q 61.8 114.0, 61.1 113.1 Q 60.4 112.3, 59.1 112.3 Q 57.9 112.3, 57.2 113.1 Q 56.5 114.0, 56.5 115.6 Q 56.5 117.3, 57.2 118.1 Q 57.9 119.0, 59.1 119.0 " fill="#000000"/>
<path class="atom-1" d="M 54.7 82.0 L 57.5 86.4 Q 57.7 86.9, 58.2 87.6 Q 58.6 88.4, 58.6 88.5 L 58.6 82.0 L 59.7 82.0 L 59.7 90.4 L 58.6 90.4 L 55.7 85.5 Q 55.3 84.9, 55.0 84.3 Q 54.6 83.6, 54.5 83.4 L 54.5 90.4 L 53.4 90.4 L 53.4 82.0 L 54.7 82.0 " fill="#000000"/>
<path class="atom-1" d="M 61.3 83.5 L 62.8 83.5 L 62.8 81.9 L 63.4 81.9 L 63.4 83.5 L 65.0 83.5 L 65.0 84.1 L 63.4 84.1 L 63.4 85.6 L 62.8 85.6 L 62.8 84.1 L 61.3 84.1 L 61.3 83.5 " fill="#000000"/>
<path class="atom-2" d="M 26.0 73.7 Q 26.0 71.7, 27.0 70.6 Q 28.0 69.5, 29.8 69.5 Q 31.7 69.5, 32.7 70.6 Q 33.7 71.7, 33.7 73.7 Q 33.7 75.7, 32.7 76.9 Q 31.7 78.0, 29.8 78.0 Q 28.0 78.0, 27.0 76.9 Q 26.0 75.7, 26.0 73.7 M 29.8 77.1 Q 31.1 77.1, 31.8 76.2 Q 32.5 75.4, 32.5 73.7 Q 32.5 72.1, 31.8 71.2 Q 31.1 70.4, 29.8 70.4 Q 28.5 70.4, 27.9 71.2 Q 27.2 72.1, 27.2 73.7 Q 27.2 75.4, 27.9 76.2 Q 28.5 77.1, 29.8 77.1 " fill="#000000"/>
<path class="atom-2" d="M 34.9 70.8 L 37.7 70.8 L 37.7 71.4 L 34.9 71.4 L 34.9 70.8 " fill="#000000"/>
<path class="atom-7" d="M 149.5 18.5 Q 149.5 16.5, 150.5 15.4 Q 151.5 14.3, 153.3 14.3 Q 155.2 14.3, 156.2 15.4 Q 157.2 16.5, 157.2 18.5 Q 157.2 20.5, 156.2 21.7 Q 155.2 22.8, 153.3 22.8 Q 151.5 22.8, 150.5 21.7 Q 149.5 20.5, 149.5 18.5 M 153.3 21.9 Q 154.6 21.9, 155.3 21.0 Q 156.0 20.2, 156.0 18.5 Q 156.0 16.9, 155.3 16.0 Q 154.6 15.2, 153.3 15.2 Q 152.1 15.2, 151.4 16.0 Q 150.7 16.9, 150.7 18.5 Q 150.7 20.2, 151.4 21.0 Q 152.1 21.9, 153.3 21.9 " fill="#000000"/>
<path class="atom-12" d="M 258.5 64.3 L 261.2 68.7 Q 261.5 69.1, 262.0 69.9 Q 262.4 70.7, 262.4 70.8 L 262.4 64.3 L 263.5 64.3 L 263.5 72.6 L 262.4 72.6 L 259.4 67.8 Q 259.1 67.2, 258.7 66.6 Q 258.4 65.9, 258.3 65.7 L 258.3 72.6 L 257.2 72.6 L 257.2 64.3 L 258.5 64.3 " fill="#000000"/>
<path class="atom-13" d="M 259.7 97.9 Q 259.7 95.8, 260.7 94.7 Q 261.6 93.6, 263.5 93.6 Q 265.2 93.6, 266.1 94.8 L 265.4 95.5 Q 264.7 94.6, 263.5 94.6 Q 262.2 94.6, 261.6 95.4 Q 260.9 96.3, 260.9 97.9 Q 260.9 99.5, 261.6 100.4 Q 262.3 101.2, 263.6 101.2 Q 264.5 101.2, 265.6 100.7 L 265.9 101.6 Q 265.5 101.9, 264.8 102.0 Q 264.2 102.2, 263.5 102.2 Q 261.6 102.2, 260.7 101.1 Q 259.7 100.0, 259.7 97.9 " fill="#000000"/>
<path class="atom-14" d="M 263.1 130.1 Q 263.2 130.2, 263.6 130.3 Q 264.0 130.5, 264.4 130.6 Q 264.8 130.7, 265.3 130.7 Q 266.1 130.7, 266.5 130.3 Q 267.0 129.9, 267.0 129.3 Q 267.0 128.8, 266.7 128.5 Q 266.5 128.2, 266.2 128.1 Q 265.8 127.9, 265.2 127.8 Q 264.5 127.5, 264.0 127.3 Q 263.6 127.1, 263.3 126.7 Q 263.0 126.2, 263.0 125.4 Q 263.0 124.4, 263.7 123.7 Q 264.4 123.1, 265.8 123.1 Q 266.8 123.1, 267.9 123.6 L 267.6 124.5 Q 266.6 124.1, 265.8 124.1 Q 265.0 124.1, 264.6 124.4 Q 264.1 124.7, 264.1 125.3 Q 264.1 125.8, 264.4 126.0 Q 264.6 126.3, 264.9 126.5 Q 265.3 126.6, 265.8 126.8 Q 266.6 127.0, 267.1 127.3 Q 267.5 127.5, 267.8 128.0 Q 268.1 128.4, 268.1 129.3 Q 268.1 130.4, 267.4 131.0 Q 266.6 131.7, 265.3 131.7 Q 264.6 131.7, 264.0 131.5 Q 263.4 131.3, 262.8 131.1 L 263.1 130.1 " fill="#000000"/>
</svg>