<svg xmlns="http://www.w3.org/2000/svg" xmlns:rdkit="http://www.rdkit.org/xml" xmlns:xlink="http://www.w3.org/1999/xlink" version="1.1" baseProfile="full" xml:space="preserve" width="186px" height="76px" viewBox="0 0 186 76">
<!-- END OF HEADER -->
<rect style="opacity:1.0;fill:#FFFFFF;stroke:none" width="186.0" height="76.0" x="0.0" y="0.0"> </rect>
<path class="bond-0 atom-0 atom-1" d="M 18.4,10.2 L 38.2,32.0 L 32.1,37.6 L 12.3,15.8 Z" style="fill:#9E9EFF;fill-rule:evenodd;fill-opacity:1;stroke:#9E9EFF;stroke-width:2.0px;stroke-linecap:butt;stroke-linejoin:miter;stroke-miterlimit:10;stroke-opacity:1;"/>
<path class="bond-1 atom-1 atom-2" d="M 34.3,30.8 L 63.1,24.5 L 64.9,32.6 L 36.0,38.9 Z" style="fill:#9E9EFF;fill-rule:evenodd;fill-opacity:1;stroke:#9E9EFF;stroke-width:2.0px;stroke-linecap:butt;stroke-linejoin:miter;stroke-miterlimit:10;stroke-opacity:1;"/>
<path class="bond-2 atom-2 atom-3" d="M 67.0,25.8 L 86.9,47.6 L 80.8,53.1 L 60.9,31.3 Z" style="fill:#9E9EFF;fill-rule:evenodd;fill-opacity:1;stroke:#9E9EFF;stroke-width:2.0px;stroke-linecap:butt;stroke-linejoin:miter;stroke-miterlimit:10;stroke-opacity:1;"/>
<path class="bond-4 atom-4 atom-5" d="M 108.7,42.8 L 117.7,14.7 L 125.6,17.2 L 116.6,45.3 Z" style="fill:#ECECFF;fill-rule:evenodd;fill-opacity:1;stroke:#ECECFF;stroke-width:2.0px;stroke-linecap:butt;stroke-linejoin:miter;stroke-miterlimit:10;stroke-opacity:1;"/>
<path class="bond-5 atom-5 atom-6" d="M 120.7,11.9 L 149.6,5.7 L 151.3,13.7 L 122.5,20.0 Z" style="fill:#ECECFF;fill-rule:evenodd;fill-opacity:1;stroke:#ECECFF;stroke-width:2.0px;stroke-linecap:butt;stroke-linejoin:miter;stroke-miterlimit:10;stroke-opacity:1;"/>
<path class="bond-6 atom-6 atom-7" d="M 153.5,6.9 L 173.3,28.7 L 167.2,34.3 L 147.4,12.5 Z" style="fill:#ECECFF;fill-rule:evenodd;fill-opacity:1;stroke:#ECECFF;stroke-width:2.0px;stroke-linecap:butt;stroke-linejoin:miter;stroke-miterlimit:10;stroke-opacity:1;"/>
<path class="bond-7 atom-7 atom-8" d="M 174.2,32.8 L 165.3,60.9 L 157.4,58.4 L 166.4,30.3 Z" style="fill:#ECECFF;fill-rule:evenodd;fill-opacity:1;stroke:#ECECFF;stroke-width:2.0px;stroke-linecap:butt;stroke-linejoin:miter;stroke-miterlimit:10;stroke-opacity:1;"/>
<path class="bond-8 atom-8 atom-9" d="M 162.2,63.7 L 133.4,69.9 L 131.6,61.9 L 160.4,55.6 Z" style="fill:#ECECFF;fill-rule:evenodd;fill-opacity:1;stroke:#ECECFF;stroke-width:2.0px;stroke-linecap:butt;stroke-linejoin:miter;stroke-miterlimit:10;stroke-opacity:1;"/>
<path class="bond-9 atom-9 atom-4" d="M 129.4,68.7 L 109.6,46.9 L 115.7,41.3 L 135.6,63.1 Z" style="fill:#ECECFF;fill-rule:evenodd;fill-opacity:1;stroke:#ECECFF;stroke-width:2.0px;stroke-linecap:butt;stroke-linejoin:miter;stroke-miterlimit:10;stroke-opacity:1;"/>
<ellipse cx="15.3" cy="13.0" rx="5.9" ry="5.9" class="atom-0" style="fill:#9E9EFF;fill-rule:evenodd;stroke:#9E9EFF;stroke-width:1.0px;stroke-linecap:butt;stroke-linejoin:miter;stroke-opacity:1"/>
<ellipse cx="35.2" cy="34.8" rx="5.9" ry="5.9" class="atom-1" style="fill:#9E9EFF;fill-rule:evenodd;stroke:#9E9EFF;stroke-width:1.0px;stroke-linecap:butt;stroke-linejoin:miter;stroke-opacity:1"/>
<ellipse cx="64.0" cy="28.5" rx="5.9" ry="5.9" class="atom-2" style="fill:#9E9EFF;fill-rule:evenodd;stroke:#9E9EFF;stroke-width:1.0px;stroke-linecap:butt;stroke-linejoin:miter;stroke-opacity:1"/>
<ellipse cx="83.8" cy="50.4" rx="5.9" ry="5.9" class="atom-3" style="fill:#9E9EFF;fill-rule:evenodd;stroke:#9E9EFF;stroke-width:1.0px;stroke-linecap:butt;stroke-linejoin:miter;stroke-opacity:1"/>
<ellipse cx="112.7" cy="44.1" rx="5.9" ry="5.9" class="atom-4" style="fill:#ECECFF;fill-rule:evenodd;stroke:#ECECFF;stroke-width:1.0px;stroke-linecap:butt;stroke-linejoin:miter;stroke-opacity:1"/>
<ellipse cx="121.6" cy="16.0" rx="5.9" ry="5.9" class="atom-5" style="fill:#ECECFF;fill-rule:evenodd;stroke:#ECECFF;stroke-width:1.0px;stroke-linecap:butt;stroke-linejoin:miter;stroke-opacity:1"/>
<ellipse cx="150.4" cy="9.7" rx="5.9" ry="5.9" class="atom-6" style="fill:#ECECFF;fill-rule:evenodd;stroke:#ECECFF;stroke-width:1.0px;stroke-linecap:butt;stroke-linejoin:miter;stroke-opacity:1"/>
<ellipse cx="170.3" cy="31.5" rx="5.9" ry="5.9" class="atom-7" style="fill:#ECECFF;fill-rule:evenodd;stroke:#ECECFF;stroke-width:1.0px;stroke-linecap:butt;stroke-linejoin:miter;stroke-opacity:1"/>
<ellipse cx="161.3" cy="59.6" rx="5.9" ry="5.9" class="atom-8" style="fill:#ECECFF;fill-rule:evenodd;stroke:#ECECFF;stroke-width:1.0px;stroke-linecap:butt;stroke-linejoin:miter;stroke-opacity:1"/>
<ellipse cx="132.5" cy="65.9" rx="5.9" ry="5.9" class="atom-9" style="fill:#ECECFF;fill-rule:evenodd;stroke:#ECECFF;stroke-width:1.0px;stroke-linecap:butt;stroke-linejoin:miter;stroke-opacity:1"/>
<path class="bond-0 atom-0 atom-1" d="M 15.3,13.0 L 35.2,34.8" style="fill:none;fill-rule:evenodd;stroke:#000000;stroke-width:2.0px;stroke-linecap:butt;stroke-linejoin:miter;stroke-opacity:1"/>
<path class="bond-1 atom-1 atom-2" d="M 35.2,34.8 L 64.0,28.5" style="fill:none;fill-rule:evenodd;stroke:#000000;stroke-width:2.0px;stroke-linecap:butt;stroke-linejoin:miter;stroke-opacity:1"/>
<path class="bond-2 atom-2 atom-3" d="M 64.0,28.5 L 83.8,50.4" style="fill:none;fill-rule:evenodd;stroke:#000000;stroke-width:2.0px;stroke-linecap:butt;stroke-linejoin:miter;stroke-opacity:1"/>
<path class="bond-3 atom-3 atom-4" d="M 83.8,50.4 L 112.7,44.1" style="fill:none;fill-rule:evenodd;stroke:#000000;stroke-width:2.0px;stroke-linecap:butt;stroke-linejoin:miter;stroke-opacity:1"/>
<path class="bond-4 atom-4 atom-5" d="M 112.7,44.1 L 121.6,16.0" style="fill:none;fill-rule:evenodd;stroke:#000000;stroke-width:2.0px;stroke-linecap:butt;stroke-linejoin:miter;stroke-opacity:1"/>
<path class="bond-4 atom-4 atom-5" d="M 117.6,43.0 L 125.1,19.8" style="fill:none;fill-rule:evenodd;stroke:#000000;stroke-width:2.0px;stroke-linecap:butt;stroke-linejoin:miter;stroke-opacity:1"/>
<path class="bond-5 atom-5 atom-6" d="M 121.6,16.0 L 150.4,9.7" style="fill:none;fill-rule:evenodd;stroke:#000000;stroke-width:2.0px;stroke-linecap:butt;stroke-linejoin:miter;stroke-opacity:1"/>
<path class="bond-6 atom-6 atom-7" d="M 150.4,9.7 L 170.3,31.5" style="fill:none;fill-rule:evenodd;stroke:#000000;stroke-width:2.0px;stroke-linecap:butt;stroke-linejoin:miter;stroke-opacity:1"/>
<path class="bond-6 atom-6 atom-7" d="M 148.9,14.6 L 165.3,32.6" style="fill:none;fill-rule:evenodd;stroke:#000000;stroke-width:2.0px;stroke-linecap:butt;stroke-linejoin:miter;stroke-opacity:1"/>
<path class="bond-7 atom-7 atom-8" d="M 170.3,31.5 L 161.3,59.6" style="fill:none;fill-rule:evenodd;stroke:#000000;stroke-width:2.0px;stroke-linecap:butt;stroke-linejoin:miter;stroke-opacity:1"/>
<path class="bond-8 atom-8 atom-9" d="M 161.3,59.6 L 132.5,65.9" style="fill:none;fill-rule:evenodd;stroke:#000000;stroke-width:2.0px;stroke-linecap:butt;stroke-linejoin:miter;stroke-opacity:1"/>
<path class="bond-8 atom-8 atom-9" d="M 157.9,55.8 L 134.1,61.0" style="fill:none;fill-rule:evenodd;stroke:#000000;stroke-width:2.0px;stroke-linecap:butt;stroke-linejoin:miter;stroke-opacity:1"/>
<path class="bond-9 atom-9 atom-4" d="M 132.5,65.9 L 112.7,44.1" style="fill:none;fill-rule:evenodd;stroke:#000000;stroke-width:2.0px;stroke-linecap:butt;stroke-linejoin:miter;stroke-opacity:1"/>
<path d="M 34.2,33.7 L 35.2,34.8 L 36.6,34.5" style="fill:none;stroke:#000000;stroke-width:2.0px;stroke-linecap:butt;stroke-linejoin:miter;stroke-miterlimit:10;stroke-opacity:1;"/>
<path d="M 62.5,28.9 L 64.0,28.5 L 65.0,29.6" style="fill:none;stroke:#000000;stroke-width:2.0px;stroke-linecap:butt;stroke-linejoin:miter;stroke-miterlimit:10;stroke-opacity:1;"/>
<path d="M 82.8,49.3 L 83.8,50.4 L 85.3,50.0" style="fill:none;stroke:#000000;stroke-width:2.0px;stroke-linecap:butt;stroke-linejoin:miter;stroke-miterlimit:10;stroke-opacity:1;"/>
<path d="M 121.2,17.4 L 121.6,16.0 L 123.1,15.7" style="fill:none;stroke:#000000;stroke-width:2.0px;stroke-linecap:butt;stroke-linejoin:miter;stroke-miterlimit:10;stroke-opacity:1;"/>
<path d="M 149.0,10.0 L 150.4,9.7 L 151.4,10.8" style="fill:none;stroke:#000000;stroke-width:2.0px;stroke-linecap:butt;stroke-linejoin:miter;stroke-miterlimit:10;stroke-opacity:1;"/>
<path d="M 169.3,30.4 L 170.3,31.5 L 169.8,32.9" style="fill:none;stroke:#000000;stroke-width:2.0px;stroke-linecap:butt;stroke-linejoin:miter;stroke-miterlimit:10;stroke-opacity:1;"/>
<path d="M 161.8,58.2 L 161.3,59.6 L 159.9,59.9" style="fill:none;stroke:#000000;stroke-width:2.0px;stroke-linecap:butt;stroke-linejoin:miter;stroke-miterlimit:10;stroke-opacity:1;"/>
<path d="M 133.9,65.6 L 132.5,65.9 L 131.5,64.8" style="fill:none;stroke:#000000;stroke-width:2.0px;stroke-linecap:butt;stroke-linejoin:miter;stroke-miterlimit:10;stroke-opacity:1;"/>
</svg>