<svg xmlns="http://www.w3.org/2000/svg" xmlns:rdkit="http://www.rdkit.org/xml" xmlns:xlink="http://www.w3.org/1999/xlink" version="1.1" baseProfile="full" xml:space="preserve" width="239px" height="211px" viewBox="0 0 239 211">
<!-- END OF HEADER -->
<rect style="opacity:1.0;fill:#FFFFFF;stroke:none" width="239.0" height="211.0" x="0.0" y="0.0"> </rect>
<ellipse cx="31.4" cy="131.1" rx="19.1" ry="19.1" class="atom-0" style="fill:#FF7F7F;fill-rule:evenodd;stroke:#FF7F7F;stroke-width:1.0px;stroke-linecap:butt;stroke-linejoin:miter;stroke-opacity:1"/>
<ellipse cx="57.9" cy="118.1" rx="19.1" ry="19.1" class="atom-1" style="fill:#FF7F7F;fill-rule:evenodd;stroke:#FF7F7F;stroke-width:1.0px;stroke-linecap:butt;stroke-linejoin:miter;stroke-opacity:1"/>
<ellipse cx="82.4" cy="134.5" rx="19.1" ry="19.1" class="atom-2" style="fill:#FF7F7F;fill-rule:evenodd;stroke:#FF7F7F;stroke-width:1.0px;stroke-linecap:butt;stroke-linejoin:miter;stroke-opacity:1"/>
<ellipse cx="80.5" cy="164.0" rx="19.1" ry="19.1" class="atom-3" style="fill:#FF7F7F;fill-rule:evenodd;stroke:#FF7F7F;stroke-width:1.0px;stroke-linecap:butt;stroke-linejoin:miter;stroke-opacity:1"/>
<ellipse cx="105.0" cy="180.4" rx="19.1" ry="19.1" class="atom-4" style="fill:#FF7F7F;fill-rule:evenodd;stroke:#FF7F7F;stroke-width:1.0px;stroke-linecap:butt;stroke-linejoin:miter;stroke-opacity:1"/>
<ellipse cx="131.5" cy="167.4" rx="19.1" ry="19.1" class="atom-5" style="fill:#FF7F7F;fill-rule:evenodd;stroke:#FF7F7F;stroke-width:1.0px;stroke-linecap:butt;stroke-linejoin:miter;stroke-opacity:1"/>
<ellipse cx="133.5" cy="137.9" rx="19.1" ry="19.1" class="atom-6" style="fill:#FF7F7F;fill-rule:evenodd;stroke:#FF7F7F;stroke-width:1.0px;stroke-linecap:butt;stroke-linejoin:miter;stroke-opacity:1"/>
<ellipse cx="108.9" cy="121.5" rx="19.1" ry="19.1" class="atom-7" style="fill:#FF7F7F;fill-rule:evenodd;stroke:#FF7F7F;stroke-width:1.0px;stroke-linecap:butt;stroke-linejoin:miter;stroke-opacity:1"/>
<ellipse cx="110.9" cy="92.0" rx="19.1" ry="19.1" class="atom-8" style="fill:#FF7F7F;fill-rule:evenodd;stroke:#FF7F7F;stroke-width:1.0px;stroke-linecap:butt;stroke-linejoin:miter;stroke-opacity:1"/>
<ellipse cx="137.4" cy="79.0" rx="0.7" ry="0.7" class="atom-9" style="fill:#FF7F7F;fill-rule:evenodd;stroke:#FF7F7F;stroke-width:1.0px;stroke-linecap:butt;stroke-linejoin:miter;stroke-opacity:1"/>
<ellipse cx="161.9" cy="95.4" rx="0.7" ry="0.7" class="atom-10" style="fill:#FF7F7F;fill-rule:evenodd;stroke:#FF7F7F;stroke-width:1.0px;stroke-linecap:butt;stroke-linejoin:miter;stroke-opacity:1"/>
<ellipse cx="188.4" cy="82.4" rx="0.7" ry="0.7" class="atom-11" style="fill:#FF7F7F;fill-rule:evenodd;stroke:#FF7F7F;stroke-width:1.0px;stroke-linecap:butt;stroke-linejoin:miter;stroke-opacity:1"/>
<ellipse cx="175.4" cy="55.9" rx="0.7" ry="0.7" class="atom-12" style="fill:#FF7F7F;fill-rule:evenodd;stroke:#FF7F7F;stroke-width:1.0px;stroke-linecap:butt;stroke-linejoin:miter;stroke-opacity:1"/>
<ellipse cx="201.5" cy="108.9" rx="0.7" ry="0.7" class="atom-13" style="fill:#FF7F7F;fill-rule:evenodd;stroke:#FF7F7F;stroke-width:1.0px;stroke-linecap:butt;stroke-linejoin:miter;stroke-opacity:1"/>
<ellipse cx="214.9" cy="69.4" rx="0.7" ry="0.7" class="atom-14" style="fill:#FF7F7F;fill-rule:evenodd;stroke:#FF7F7F;stroke-width:1.0px;stroke-linecap:butt;stroke-linejoin:miter;stroke-opacity:1"/>
<ellipse cx="86.4" cy="75.6" rx="19.1" ry="19.1" class="atom-15" style="fill:#FF7F7F;fill-rule:evenodd;stroke:#FF7F7F;stroke-width:1.0px;stroke-linecap:butt;stroke-linejoin:miter;stroke-opacity:1"/>
<ellipse cx="88.3" cy="46.1" rx="19.1" ry="19.1" class="atom-16" style="fill:#FF7F7F;fill-rule:evenodd;stroke:#FF7F7F;stroke-width:1.0px;stroke-linecap:butt;stroke-linejoin:miter;stroke-opacity:1"/>
<ellipse cx="63.8" cy="29.7" rx="19.1" ry="19.1" class="atom-17" style="fill:#FF7F7F;fill-rule:evenodd;stroke:#FF7F7F;stroke-width:1.0px;stroke-linecap:butt;stroke-linejoin:miter;stroke-opacity:1"/>
<ellipse cx="37.3" cy="42.7" rx="19.1" ry="19.1" class="atom-18" style="fill:#FF7F7F;fill-rule:evenodd;stroke:#FF7F7F;stroke-width:1.0px;stroke-linecap:butt;stroke-linejoin:miter;stroke-opacity:1"/>
<ellipse cx="35.3" cy="72.2" rx="19.1" ry="19.1" class="atom-19" style="fill:#FF7F7F;fill-rule:evenodd;stroke:#FF7F7F;stroke-width:1.0px;stroke-linecap:butt;stroke-linejoin:miter;stroke-opacity:1"/>
<ellipse cx="59.9" cy="88.6" rx="19.1" ry="19.1" class="atom-20" style="fill:#FF7F7F;fill-rule:evenodd;stroke:#FF7F7F;stroke-width:1.0px;stroke-linecap:butt;stroke-linejoin:miter;stroke-opacity:1"/>
<path class="bond-0 atom-0 atom-1" d="M 31.4,131.1 L 57.9,118.1" style="fill:none;fill-rule:evenodd;stroke:#000000;stroke-width:2.0px;stroke-linecap:butt;stroke-linejoin:miter;stroke-opacity:1"/>
<path class="bond-1 atom-1 atom-2" d="M 57.9,118.1 L 82.4,134.5" style="fill:none;fill-rule:evenodd;stroke:#000000;stroke-width:2.0px;stroke-linecap:butt;stroke-linejoin:miter;stroke-opacity:1"/>
<path class="bond-1 atom-1 atom-2" d="M 62.5,115.8 L 82.8,129.4" style="fill:none;fill-rule:evenodd;stroke:#000000;stroke-width:2.0px;stroke-linecap:butt;stroke-linejoin:miter;stroke-opacity:1"/>
<path class="bond-2 atom-2 atom-3" d="M 82.4,134.5 L 80.5,164.0" style="fill:none;fill-rule:evenodd;stroke:#000000;stroke-width:2.0px;stroke-linecap:butt;stroke-linejoin:miter;stroke-opacity:1"/>
<path class="bond-3 atom-3 atom-4" d="M 80.5,164.0 L 105.0,180.4" style="fill:none;fill-rule:evenodd;stroke:#000000;stroke-width:2.0px;stroke-linecap:butt;stroke-linejoin:miter;stroke-opacity:1"/>
<path class="bond-3 atom-3 atom-4" d="M 85.1,161.7 L 105.3,175.3" style="fill:none;fill-rule:evenodd;stroke:#000000;stroke-width:2.0px;stroke-linecap:butt;stroke-linejoin:miter;stroke-opacity:1"/>
<path class="bond-4 atom-4 atom-5" d="M 105.0,180.4 L 131.5,167.4" style="fill:none;fill-rule:evenodd;stroke:#000000;stroke-width:2.0px;stroke-linecap:butt;stroke-linejoin:miter;stroke-opacity:1"/>
<path class="bond-5 atom-5 atom-6" d="M 131.5,167.4 L 133.5,137.9" style="fill:none;fill-rule:evenodd;stroke:#000000;stroke-width:2.0px;stroke-linecap:butt;stroke-linejoin:miter;stroke-opacity:1"/>
<path class="bond-5 atom-5 atom-6" d="M 127.3,164.5 L 128.9,140.2" style="fill:none;fill-rule:evenodd;stroke:#000000;stroke-width:2.0px;stroke-linecap:butt;stroke-linejoin:miter;stroke-opacity:1"/>
<path class="bond-6 atom-6 atom-7" d="M 133.5,137.9 L 108.9,121.5" style="fill:none;fill-rule:evenodd;stroke:#000000;stroke-width:2.0px;stroke-linecap:butt;stroke-linejoin:miter;stroke-opacity:1"/>
<path class="bond-7 atom-7 atom-8" d="M 108.9,121.5 L 110.9,92.0" style="fill:none;fill-rule:evenodd;stroke:#000000;stroke-width:2.0px;stroke-linecap:butt;stroke-linejoin:miter;stroke-opacity:1"/>
<path class="bond-7 atom-7 atom-8" d="M 104.7,118.6 L 106.3,94.3" style="fill:none;fill-rule:evenodd;stroke:#000000;stroke-width:2.0px;stroke-linecap:butt;stroke-linejoin:miter;stroke-opacity:1"/>
<path class="bond-8 atom-8 atom-9" d="M 110.9,92.0 L 137.4,79.0" style="fill:none;fill-rule:evenodd;stroke:#000000;stroke-width:2.0px;stroke-linecap:butt;stroke-linejoin:miter;stroke-opacity:1"/>
<path class="bond-9 atom-9 atom-10" d="M 137.4,79.0 L 157.1,92.2" style="fill:none;fill-rule:evenodd;stroke:#000000;stroke-width:2.0px;stroke-linecap:butt;stroke-linejoin:miter;stroke-opacity:1"/>
<path class="bond-10 atom-10 atom-11" d="M 166.8,93.1 L 184.8,84.2" style="fill:none;fill-rule:evenodd;stroke:#000000;stroke-width:2.0px;stroke-linecap:butt;stroke-linejoin:miter;stroke-opacity:1"/>
<path class="bond-11 atom-11 atom-12" d="M 187.9,76.3 L 180.0,60.3" style="fill:none;fill-rule:evenodd;stroke:#000000;stroke-width:2.0px;stroke-linecap:butt;stroke-linejoin:miter;stroke-opacity:1"/>
<path class="bond-11 atom-11 atom-12" d="M 183.9,78.2 L 176.0,62.2" style="fill:none;fill-rule:evenodd;stroke:#000000;stroke-width:2.0px;stroke-linecap:butt;stroke-linejoin:miter;stroke-opacity:1"/>
<path class="bond-12 atom-11 atom-13" d="M 189.1,88.7 L 196.9,104.7" style="fill:none;fill-rule:evenodd;stroke:#000000;stroke-width:2.0px;stroke-linecap:butt;stroke-linejoin:miter;stroke-opacity:1"/>
<path class="bond-12 atom-11 atom-13" d="M 193.1,86.8 L 200.9,102.7" style="fill:none;fill-rule:evenodd;stroke:#000000;stroke-width:2.0px;stroke-linecap:butt;stroke-linejoin:miter;stroke-opacity:1"/>
<path class="bond-13 atom-11 atom-14" d="M 192.1,80.6 L 210.1,71.7" style="fill:none;fill-rule:evenodd;stroke:#000000;stroke-width:2.0px;stroke-linecap:butt;stroke-linejoin:miter;stroke-opacity:1"/>
<path class="bond-14 atom-8 atom-15" d="M 110.9,92.0 L 86.4,75.6" style="fill:none;fill-rule:evenodd;stroke:#000000;stroke-width:2.0px;stroke-linecap:butt;stroke-linejoin:miter;stroke-opacity:1"/>
<path class="bond-15 atom-15 atom-16" d="M 86.4,75.6 L 88.3,46.1" style="fill:none;fill-rule:evenodd;stroke:#000000;stroke-width:2.0px;stroke-linecap:butt;stroke-linejoin:miter;stroke-opacity:1"/>
<path class="bond-15 atom-15 atom-16" d="M 82.1,72.7 L 83.7,48.4" style="fill:none;fill-rule:evenodd;stroke:#000000;stroke-width:2.0px;stroke-linecap:butt;stroke-linejoin:miter;stroke-opacity:1"/>
<path class="bond-16 atom-16 atom-17" d="M 88.3,46.1 L 63.8,29.7" style="fill:none;fill-rule:evenodd;stroke:#000000;stroke-width:2.0px;stroke-linecap:butt;stroke-linejoin:miter;stroke-opacity:1"/>
<path class="bond-17 atom-17 atom-18" d="M 63.8,29.7 L 37.3,42.7" style="fill:none;fill-rule:evenodd;stroke:#000000;stroke-width:2.0px;stroke-linecap:butt;stroke-linejoin:miter;stroke-opacity:1"/>
<path class="bond-17 atom-17 atom-18" d="M 63.5,34.8 L 41.6,45.6" style="fill:none;fill-rule:evenodd;stroke:#000000;stroke-width:2.0px;stroke-linecap:butt;stroke-linejoin:miter;stroke-opacity:1"/>
<path class="bond-18 atom-18 atom-19" d="M 37.3,42.7 L 35.3,72.2" style="fill:none;fill-rule:evenodd;stroke:#000000;stroke-width:2.0px;stroke-linecap:butt;stroke-linejoin:miter;stroke-opacity:1"/>
<path class="bond-19 atom-19 atom-20" d="M 35.3,72.2 L 59.9,88.6" style="fill:none;fill-rule:evenodd;stroke:#000000;stroke-width:2.0px;stroke-linecap:butt;stroke-linejoin:miter;stroke-opacity:1"/>
<path class="bond-19 atom-19 atom-20" d="M 39.9,69.9 L 60.2,83.5" style="fill:none;fill-rule:evenodd;stroke:#000000;stroke-width:2.0px;stroke-linecap:butt;stroke-linejoin:miter;stroke-opacity:1"/>
<path class="bond-20 atom-20 atom-1" d="M 59.9,88.6 L 57.9,118.1" style="fill:none;fill-rule:evenodd;stroke:#000000;stroke-width:2.0px;stroke-linecap:butt;stroke-linejoin:miter;stroke-opacity:1"/>
<path class="bond-21 atom-7 atom-2" d="M 108.9,121.5 L 82.4,134.5" style="fill:none;fill-rule:evenodd;stroke:#000000;stroke-width:2.0px;stroke-linecap:butt;stroke-linejoin:miter;stroke-opacity:1"/>
<path class="bond-22 atom-20 atom-15" d="M 59.9,88.6 L 86.4,75.6" style="fill:none;fill-rule:evenodd;stroke:#000000;stroke-width:2.0px;stroke-linecap:butt;stroke-linejoin:miter;stroke-opacity:1"/>
<path d="M 80.6,162.5 L 80.5,164.0 L 81.7,164.8" style="fill:none;stroke:#000000;stroke-width:2.0px;stroke-linecap:butt;stroke-linejoin:miter;stroke-miterlimit:10;stroke-opacity:1;"/>
<path d="M 103.8,179.6 L 105.0,180.4 L 106.3,179.8" style="fill:none;stroke:#000000;stroke-width:2.0px;stroke-linecap:butt;stroke-linejoin:miter;stroke-miterlimit:10;stroke-opacity:1;"/>
<path d="M 130.2,168.0 L 131.5,167.4 L 131.6,165.9" style="fill:none;stroke:#000000;stroke-width:2.0px;stroke-linecap:butt;stroke-linejoin:miter;stroke-miterlimit:10;stroke-opacity:1;"/>
<path d="M 133.4,139.4 L 133.5,137.9 L 132.2,137.1" style="fill:none;stroke:#000000;stroke-width:2.0px;stroke-linecap:butt;stroke-linejoin:miter;stroke-miterlimit:10;stroke-opacity:1;"/>
<path d="M 136.1,79.6 L 137.4,79.0 L 138.4,79.7" style="fill:none;stroke:#000000;stroke-width:2.0px;stroke-linecap:butt;stroke-linejoin:miter;stroke-miterlimit:10;stroke-opacity:1;"/>
<path d="M 88.2,47.6 L 88.3,46.1 L 87.1,45.3" style="fill:none;stroke:#000000;stroke-width:2.0px;stroke-linecap:butt;stroke-linejoin:miter;stroke-miterlimit:10;stroke-opacity:1;"/>
<path d="M 65.0,30.5 L 63.8,29.7 L 62.5,30.3" style="fill:none;stroke:#000000;stroke-width:2.0px;stroke-linecap:butt;stroke-linejoin:miter;stroke-miterlimit:10;stroke-opacity:1;"/>
<path d="M 38.6,42.1 L 37.3,42.7 L 37.2,44.2" style="fill:none;stroke:#000000;stroke-width:2.0px;stroke-linecap:butt;stroke-linejoin:miter;stroke-miterlimit:10;stroke-opacity:1;"/>
<path d="M 35.4,70.7 L 35.3,72.2 L 36.6,73.0" style="fill:none;stroke:#000000;stroke-width:2.0px;stroke-linecap:butt;stroke-linejoin:miter;stroke-miterlimit:10;stroke-opacity:1;"/>
<path class="atom-10" d="M 158.1 95.5 Q 158.1 93.4, 159.1 92.3 Q 160.1 91.2, 161.9 91.2 Q 163.8 91.2, 164.8 92.3 Q 165.8 93.4, 165.8 95.5 Q 165.8 97.5, 164.8 98.6 Q 163.8 99.8, 161.9 99.8 Q 160.1 99.8, 159.1 98.6 Q 158.1 97.5, 158.1 95.5 M 161.9 98.8 Q 163.2 98.8, 163.9 98.0 Q 164.6 97.1, 164.6 95.5 Q 164.6 93.8, 163.9 93.0 Q 163.2 92.1, 161.9 92.1 Q 160.7 92.1, 160.0 93.0 Q 159.3 93.8, 159.3 95.5 Q 159.3 97.1, 160.0 98.0 Q 160.7 98.8, 161.9 98.8 " fill="#000000"/>
<path class="atom-11" d="M 186.1 85.3 Q 186.2 85.3, 186.6 85.5 Q 187.0 85.6, 187.4 85.7 Q 187.8 85.8, 188.2 85.8 Q 189.0 85.8, 189.5 85.5 Q 190.0 85.1, 190.0 84.4 Q 190.0 83.9, 189.7 83.7 Q 189.5 83.4, 189.1 83.2 Q 188.8 83.1, 188.2 82.9 Q 187.5 82.7, 187.0 82.4 Q 186.6 82.2, 186.2 81.8 Q 185.9 81.3, 185.9 80.6 Q 185.9 79.5, 186.6 78.9 Q 187.4 78.2, 188.8 78.2 Q 189.8 78.2, 190.9 78.7 L 190.6 79.6 Q 189.6 79.2, 188.8 79.2 Q 188.0 79.2, 187.6 79.5 Q 187.1 79.9, 187.1 80.4 Q 187.1 80.9, 187.3 81.2 Q 187.6 81.4, 187.9 81.6 Q 188.3 81.7, 188.8 81.9 Q 189.6 82.2, 190.0 82.4 Q 190.5 82.6, 190.8 83.1 Q 191.1 83.6, 191.1 84.4 Q 191.1 85.6, 190.3 86.2 Q 189.6 86.8, 188.3 86.8 Q 187.5 86.8, 187.0 86.6 Q 186.4 86.5, 185.8 86.2 L 186.1 85.3 " fill="#000000"/>
<path class="atom-12" d="M 171.6 55.9 Q 171.6 53.9, 172.6 52.8 Q 173.6 51.7, 175.4 51.7 Q 177.3 51.7, 178.3 52.8 Q 179.3 53.9, 179.3 55.9 Q 179.3 58.0, 178.2 59.1 Q 177.2 60.3, 175.4 60.3 Q 173.6 60.3, 172.6 59.1 Q 171.6 58.0, 171.6 55.9 M 175.4 59.3 Q 176.7 59.3, 177.4 58.5 Q 178.1 57.6, 178.1 55.9 Q 178.1 54.3, 177.4 53.5 Q 176.7 52.6, 175.4 52.6 Q 174.1 52.6, 173.4 53.4 Q 172.8 54.3, 172.8 55.9 Q 172.8 57.6, 173.4 58.5 Q 174.1 59.3, 175.4 59.3 " fill="#000000"/>
<path class="atom-13" d="M 197.6 108.9 Q 197.6 106.9, 198.6 105.8 Q 199.6 104.7, 201.5 104.7 Q 203.3 104.7, 204.3 105.8 Q 205.3 106.9, 205.3 108.9 Q 205.3 111.0, 204.3 112.1 Q 203.3 113.3, 201.5 113.3 Q 199.6 113.3, 198.6 112.1 Q 197.6 111.0, 197.6 108.9 M 201.5 112.3 Q 202.7 112.3, 203.4 111.5 Q 204.1 110.6, 204.1 108.9 Q 204.1 107.3, 203.4 106.5 Q 202.7 105.6, 201.5 105.6 Q 200.2 105.6, 199.5 106.4 Q 198.8 107.3, 198.8 108.9 Q 198.8 110.6, 199.5 111.5 Q 200.2 112.3, 201.5 112.3 " fill="#000000"/>
<path class="atom-14" d="M 211.1 69.4 Q 211.1 67.4, 212.1 66.3 Q 213.1 65.1, 214.9 65.1 Q 216.8 65.1, 217.8 66.3 Q 218.8 67.4, 218.8 69.4 Q 218.8 71.4, 217.8 72.6 Q 216.8 73.7, 214.9 73.7 Q 213.1 73.7, 212.1 72.6 Q 211.1 71.4, 211.1 69.4 M 214.9 72.8 Q 216.2 72.8, 216.9 71.9 Q 217.6 71.1, 217.6 69.4 Q 217.6 67.8, 216.9 66.9 Q 216.2 66.1, 214.9 66.1 Q 213.7 66.1, 213.0 66.9 Q 212.3 67.7, 212.3 69.4 Q 212.3 71.1, 213.0 71.9 Q 213.7 72.8, 214.9 72.8 " fill="#000000"/>
<path class="atom-14" d="M 220.1 65.2 L 221.2 65.2 L 221.2 68.8 L 225.5 68.8 L 225.5 65.2 L 226.6 65.2 L 226.6 73.6 L 225.5 73.6 L 225.5 69.7 L 221.2 69.7 L 221.2 73.6 L 220.1 73.6 L 220.1 65.2 " fill="#000000"/>
</svg>