<svg xmlns="http://www.w3.org/2000/svg" xmlns:rdkit="http://www.rdkit.org/xml" xmlns:xlink="http://www.w3.org/1999/xlink" version="1.1" baseProfile="full" xml:space="preserve" width="162px" height="78px" viewBox="0 0 162 78">
<!-- END OF HEADER -->
<rect style="opacity:1.0;fill:#FFFFFF;stroke:none" width="162.0" height="78.0" x="0.0" y="0.0"> </rect>
<path class="bond-0 atom-0 atom-1" d="M 12.6,44.6 L 40.4,35.0 L 43.1,42.8 L 15.3,52.4 Z" style="fill:#BABAFF;fill-rule:evenodd;fill-opacity:1;stroke:#BABAFF;stroke-width:2.0px;stroke-linecap:butt;stroke-linejoin:miter;stroke-miterlimit:10;stroke-opacity:1;"/>
<path class="bond-1 atom-1 atom-2" d="M 37.7,38.1 L 43.2,9.3 L 51.3,10.8 L 45.8,39.7 Z" style="fill:#BABAFF;fill-rule:evenodd;fill-opacity:1;stroke:#BABAFF;stroke-width:2.0px;stroke-linecap:butt;stroke-linejoin:miter;stroke-miterlimit:10;stroke-opacity:1;"/>
<path class="bond-2 atom-1 atom-3" d="M 44.4,35.8 L 66.6,55.0 L 61.3,61.2 L 39.0,42.0 Z" style="fill:#BABAFF;fill-rule:evenodd;fill-opacity:1;stroke:#BABAFF;stroke-width:2.0px;stroke-linecap:butt;stroke-linejoin:miter;stroke-miterlimit:10;stroke-opacity:1;"/>
<path class="bond-4 atom-4 atom-5" d="M 87.7,47.7 L 93.2,18.9 L 101.3,20.4 L 95.7,49.3 Z" style="fill:#AAAAFF;fill-rule:evenodd;fill-opacity:1;stroke:#AAAAFF;stroke-width:2.0px;stroke-linecap:butt;stroke-linejoin:miter;stroke-miterlimit:10;stroke-opacity:1;"/>
<path class="bond-5 atom-5 atom-6" d="M 95.9,15.8 L 123.7,6.2 L 126.4,13.9 L 98.6,23.6 Z" style="fill:#AAAAFF;fill-rule:evenodd;fill-opacity:1;stroke:#AAAAFF;stroke-width:2.0px;stroke-linecap:butt;stroke-linejoin:miter;stroke-miterlimit:10;stroke-opacity:1;"/>
<path class="bond-6 atom-6 atom-7" d="M 127.7,6.9 L 149.9,26.2 L 144.5,32.4 L 122.3,13.2 Z" style="fill:#AAAAFF;fill-rule:evenodd;fill-opacity:1;stroke:#AAAAFF;stroke-width:2.0px;stroke-linecap:butt;stroke-linejoin:miter;stroke-miterlimit:10;stroke-opacity:1;"/>
<path class="bond-7 atom-7 atom-8" d="M 151.3,30.1 L 145.7,58.9 L 137.6,57.4 L 143.2,28.5 Z" style="fill:#AAAAFF;fill-rule:evenodd;fill-opacity:1;stroke:#AAAAFF;stroke-width:2.0px;stroke-linecap:butt;stroke-linejoin:miter;stroke-miterlimit:10;stroke-opacity:1;"/>
<path class="bond-8 atom-8 atom-9" d="M 143.0,62.0 L 115.3,71.6 L 112.6,63.9 L 140.3,54.2 Z" style="fill:#AAAAFF;fill-rule:evenodd;fill-opacity:1;stroke:#AAAAFF;stroke-width:2.0px;stroke-linecap:butt;stroke-linejoin:miter;stroke-miterlimit:10;stroke-opacity:1;"/>
<path class="bond-9 atom-9 atom-4" d="M 111.2,70.9 L 89.0,51.6 L 94.4,45.4 L 116.6,64.6 Z" style="fill:#AAAAFF;fill-rule:evenodd;fill-opacity:1;stroke:#AAAAFF;stroke-width:2.0px;stroke-linecap:butt;stroke-linejoin:miter;stroke-miterlimit:10;stroke-opacity:1;"/>
<ellipse cx="14.0" cy="48.5" rx="5.9" ry="5.9" class="atom-0" style="fill:#BABAFF;fill-rule:evenodd;stroke:#BABAFF;stroke-width:1.0px;stroke-linecap:butt;stroke-linejoin:miter;stroke-opacity:1"/>
<ellipse cx="41.7" cy="38.9" rx="5.9" ry="5.9" class="atom-1" style="fill:#BABAFF;fill-rule:evenodd;stroke:#BABAFF;stroke-width:1.0px;stroke-linecap:butt;stroke-linejoin:miter;stroke-opacity:1"/>
<ellipse cx="47.3" cy="10.1" rx="5.9" ry="5.9" class="atom-2" style="fill:#BABAFF;fill-rule:evenodd;stroke:#BABAFF;stroke-width:1.0px;stroke-linecap:butt;stroke-linejoin:miter;stroke-opacity:1"/>
<ellipse cx="63.9" cy="58.1" rx="5.9" ry="5.9" class="atom-3" style="fill:#BABAFF;fill-rule:evenodd;stroke:#BABAFF;stroke-width:1.0px;stroke-linecap:butt;stroke-linejoin:miter;stroke-opacity:1"/>
<ellipse cx="91.7" cy="48.5" rx="5.9" ry="5.9" class="atom-4" style="fill:#AAAAFF;fill-rule:evenodd;stroke:#AAAAFF;stroke-width:1.0px;stroke-linecap:butt;stroke-linejoin:miter;stroke-opacity:1"/>
<ellipse cx="97.3" cy="19.7" rx="5.9" ry="5.9" class="atom-5" style="fill:#AAAAFF;fill-rule:evenodd;stroke:#AAAAFF;stroke-width:1.0px;stroke-linecap:butt;stroke-linejoin:miter;stroke-opacity:1"/>
<ellipse cx="125.0" cy="10.1" rx="5.9" ry="5.9" class="atom-6" style="fill:#AAAAFF;fill-rule:evenodd;stroke:#AAAAFF;stroke-width:1.0px;stroke-linecap:butt;stroke-linejoin:miter;stroke-opacity:1"/>
<ellipse cx="147.2" cy="29.3" rx="5.9" ry="5.9" class="atom-7" style="fill:#AAAAFF;fill-rule:evenodd;stroke:#AAAAFF;stroke-width:1.0px;stroke-linecap:butt;stroke-linejoin:miter;stroke-opacity:1"/>
<ellipse cx="141.7" cy="58.1" rx="5.9" ry="5.9" class="atom-8" style="fill:#AAAAFF;fill-rule:evenodd;stroke:#AAAAFF;stroke-width:1.0px;stroke-linecap:butt;stroke-linejoin:miter;stroke-opacity:1"/>
<ellipse cx="113.9" cy="67.7" rx="5.9" ry="5.9" class="atom-9" style="fill:#AAAAFF;fill-rule:evenodd;stroke:#AAAAFF;stroke-width:1.0px;stroke-linecap:butt;stroke-linejoin:miter;stroke-opacity:1"/>
<path class="bond-0 atom-0 atom-1" d="M 18.0,44.8 L 42.2,36.4" style="fill:none;fill-rule:evenodd;stroke:#000000;stroke-width:2.0px;stroke-linecap:butt;stroke-linejoin:miter;stroke-opacity:1"/>
<path class="bond-0 atom-0 atom-1" d="M 19.5,48.9 L 43.7,40.6" style="fill:none;fill-rule:evenodd;stroke:#000000;stroke-width:2.0px;stroke-linecap:butt;stroke-linejoin:miter;stroke-opacity:1"/>
<path class="bond-1 atom-1 atom-2" d="M 41.7,38.9 L 46.3,15.4" style="fill:none;fill-rule:evenodd;stroke:#000000;stroke-width:2.0px;stroke-linecap:butt;stroke-linejoin:miter;stroke-opacity:1"/>
<path class="bond-2 atom-1 atom-3" d="M 41.7,38.9 L 63.9,58.1" style="fill:none;fill-rule:evenodd;stroke:#000000;stroke-width:2.0px;stroke-linecap:butt;stroke-linejoin:miter;stroke-opacity:1"/>
<path class="bond-3 atom-3 atom-4" d="M 63.9,58.1 L 91.7,48.5" style="fill:none;fill-rule:evenodd;stroke:#000000;stroke-width:2.0px;stroke-linecap:butt;stroke-linejoin:miter;stroke-opacity:1"/>
<path class="bond-4 atom-4 atom-5" d="M 91.7,48.5 L 97.3,19.7" style="fill:none;fill-rule:evenodd;stroke:#000000;stroke-width:2.0px;stroke-linecap:butt;stroke-linejoin:miter;stroke-opacity:1"/>
<path class="bond-4 atom-4 atom-5" d="M 96.5,46.9 L 101.1,23.0" style="fill:none;fill-rule:evenodd;stroke:#000000;stroke-width:2.0px;stroke-linecap:butt;stroke-linejoin:miter;stroke-opacity:1"/>
<path class="bond-5 atom-5 atom-6" d="M 97.3,19.7 L 125.0,10.1" style="fill:none;fill-rule:evenodd;stroke:#000000;stroke-width:2.0px;stroke-linecap:butt;stroke-linejoin:miter;stroke-opacity:1"/>
<path class="bond-6 atom-6 atom-7" d="M 125.0,10.1 L 147.2,29.3" style="fill:none;fill-rule:evenodd;stroke:#000000;stroke-width:2.0px;stroke-linecap:butt;stroke-linejoin:miter;stroke-opacity:1"/>
<path class="bond-6 atom-6 atom-7" d="M 124.1,15.0 L 142.4,30.9" style="fill:none;fill-rule:evenodd;stroke:#000000;stroke-width:2.0px;stroke-linecap:butt;stroke-linejoin:miter;stroke-opacity:1"/>
<path class="bond-7 atom-7 atom-8" d="M 147.2,29.3 L 141.7,58.1" style="fill:none;fill-rule:evenodd;stroke:#000000;stroke-width:2.0px;stroke-linecap:butt;stroke-linejoin:miter;stroke-opacity:1"/>
<path class="bond-8 atom-8 atom-9" d="M 141.7,58.1 L 113.9,67.7" style="fill:none;fill-rule:evenodd;stroke:#000000;stroke-width:2.0px;stroke-linecap:butt;stroke-linejoin:miter;stroke-opacity:1"/>
<path class="bond-8 atom-8 atom-9" d="M 137.8,54.8 L 114.9,62.8" style="fill:none;fill-rule:evenodd;stroke:#000000;stroke-width:2.0px;stroke-linecap:butt;stroke-linejoin:miter;stroke-opacity:1"/>
<path class="bond-9 atom-9 atom-4" d="M 113.9,67.7 L 91.7,48.5" style="fill:none;fill-rule:evenodd;stroke:#000000;stroke-width:2.0px;stroke-linecap:butt;stroke-linejoin:miter;stroke-opacity:1"/>
<path d="M 42.0,37.7 L 41.7,38.9 L 42.8,39.9" style="fill:none;stroke:#000000;stroke-width:2.0px;stroke-linecap:butt;stroke-linejoin:miter;stroke-miterlimit:10;stroke-opacity:1;"/>
<path d="M 62.8,57.2 L 63.9,58.1 L 65.3,57.7" style="fill:none;stroke:#000000;stroke-width:2.0px;stroke-linecap:butt;stroke-linejoin:miter;stroke-miterlimit:10;stroke-opacity:1;"/>
<path d="M 97.0,21.1 L 97.3,19.7 L 98.6,19.2" style="fill:none;stroke:#000000;stroke-width:2.0px;stroke-linecap:butt;stroke-linejoin:miter;stroke-miterlimit:10;stroke-opacity:1;"/>
<path d="M 123.6,10.5 L 125.0,10.1 L 126.1,11.0" style="fill:none;stroke:#000000;stroke-width:2.0px;stroke-linecap:butt;stroke-linejoin:miter;stroke-miterlimit:10;stroke-opacity:1;"/>
<path d="M 146.1,28.3 L 147.2,29.3 L 146.9,30.7" style="fill:none;stroke:#000000;stroke-width:2.0px;stroke-linecap:butt;stroke-linejoin:miter;stroke-miterlimit:10;stroke-opacity:1;"/>
<path d="M 141.9,56.7 L 141.7,58.1 L 140.3,58.6" style="fill:none;stroke:#000000;stroke-width:2.0px;stroke-linecap:butt;stroke-linejoin:miter;stroke-miterlimit:10;stroke-opacity:1;"/>
<path d="M 115.3,67.3 L 113.9,67.7 L 112.8,66.8" style="fill:none;stroke:#000000;stroke-width:2.0px;stroke-linecap:butt;stroke-linejoin:miter;stroke-miterlimit:10;stroke-opacity:1;"/>
<path class="atom-0" d="M 10.2 48.5 Q 10.2 46.5, 11.1 45.4 Q 12.1 44.3, 14.0 44.3 Q 15.8 44.3, 16.8 45.4 Q 17.8 46.5, 17.8 48.5 Q 17.8 50.6, 16.8 51.7 Q 15.8 52.9, 14.0 52.9 Q 12.1 52.9, 11.1 51.7 Q 10.2 50.6, 10.2 48.5 M 14.0 51.9 Q 15.2 51.9, 15.9 51.1 Q 16.6 50.2, 16.6 48.5 Q 16.6 46.9, 15.9 46.1 Q 15.2 45.2, 14.0 45.2 Q 12.7 45.2, 12.0 46.1 Q 11.3 46.9, 11.3 48.5 Q 11.3 50.2, 12.0 51.1 Q 12.7 51.9, 14.0 51.9 " fill="#000000"/>
<path class="atom-2" d="M 43.5 10.1 Q 43.5 8.1, 44.5 7.0 Q 45.4 5.8, 47.3 5.8 Q 49.1 5.8, 50.1 7.0 Q 51.1 8.1, 51.1 10.1 Q 51.1 12.1, 50.1 13.2 Q 49.1 14.4, 47.3 14.4 Q 45.5 14.4, 44.5 13.2 Q 43.5 12.1, 43.5 10.1 M 47.3 13.4 Q 48.6 13.4, 49.2 12.6 Q 49.9 11.7, 49.9 10.1 Q 49.9 8.4, 49.2 7.6 Q 48.6 6.8, 47.3 6.8 Q 46.0 6.8, 45.3 7.6 Q 44.6 8.4, 44.6 10.1 Q 44.6 11.8, 45.3 12.6 Q 46.0 13.4, 47.3 13.4 " fill="#000000"/>
<path class="atom-2" d="M 52.4 5.9 L 53.5 5.9 L 53.5 9.5 L 57.8 9.5 L 57.8 5.9 L 58.9 5.9 L 58.9 14.3 L 57.8 14.3 L 57.8 10.4 L 53.5 10.4 L 53.5 14.3 L 52.4 14.3 L 52.4 5.9 " fill="#000000"/>
</svg>