<svg xmlns="http://www.w3.org/2000/svg" xmlns:rdkit="http://www.rdkit.org/xml" xmlns:xlink="http://www.w3.org/1999/xlink" version="1.1" baseProfile="full" xml:space="preserve" width="276px" height="139px" viewBox="0 0 276 139">
<!-- END OF HEADER -->
<rect style="opacity:1.0;fill:#FFFFFF;stroke:none" width="276.0" height="139.0" x="0.0" y="0.0"> </rect>
<path class="bond-0 atom-0 atom-1" d="M 45.2,114.7 L 42.6,85.3 L 50.9,84.6 L 53.4,114.0 Z" style="fill:#FF7878;fill-rule:evenodd;fill-opacity:1;stroke:#FF7878;stroke-width:2.0px;stroke-linecap:butt;stroke-linejoin:miter;stroke-miterlimit:10;stroke-opacity:1;"/>
<path class="bond-1 atom-1 atom-2" d="M 45.0,88.7 L 18.3,76.2 L 21.8,68.7 L 48.5,81.2 Z" style="fill:#FF7878;fill-rule:evenodd;fill-opacity:1;stroke:#FF7878;stroke-width:2.0px;stroke-linecap:butt;stroke-linejoin:miter;stroke-miterlimit:10;stroke-opacity:1;"/>
<path class="bond-2 atom-1 atom-3" d="M 44.4,81.6 L 68.6,64.7 L 73.3,71.4 L 49.1,88.3 Z" style="fill:#FF7878;fill-rule:evenodd;fill-opacity:1;stroke:#FF7878;stroke-width:2.0px;stroke-linecap:butt;stroke-linejoin:miter;stroke-miterlimit:10;stroke-opacity:1;"/>
<path class="bond-3 atom-3 atom-4" d="M 66.8,68.4 L 64.3,39.0 L 72.5,38.3 L 75.1,67.7 Z" style="fill:#FF7878;fill-rule:evenodd;fill-opacity:1;stroke:#FF7878;stroke-width:2.0px;stroke-linecap:butt;stroke-linejoin:miter;stroke-miterlimit:10;stroke-opacity:1;"/>
<path class="bond-4 atom-4 atom-5" d="M 66.0,35.2 L 90.2,18.3 L 94.9,25.1 L 70.7,42.0 Z" style="fill:#FF7878;fill-rule:evenodd;fill-opacity:1;stroke:#FF7878;stroke-width:2.0px;stroke-linecap:butt;stroke-linejoin:miter;stroke-miterlimit:10;stroke-opacity:1;"/>
<path class="bond-5 atom-5 atom-6" d="M 94.3,18.0 L 121.1,30.5 L 117.6,37.9 L 90.8,25.5 Z" style="fill:#FF7878;fill-rule:evenodd;fill-opacity:1;stroke:#FF7878;stroke-width:2.0px;stroke-linecap:butt;stroke-linejoin:miter;stroke-miterlimit:10;stroke-opacity:1;"/>
<path class="bond-8 atom-8 atom-9" d="M 174.4,29.4 L 176.9,58.8 L 168.7,59.5 L 166.1,30.1 Z" style="fill:#EEEEFF;fill-rule:evenodd;fill-opacity:1;stroke:#EEEEFF;stroke-width:2.0px;stroke-linecap:butt;stroke-linejoin:miter;stroke-miterlimit:10;stroke-opacity:1;"/>
<path class="bond-9 atom-9 atom-10" d="M 174.5,55.4 L 201.3,67.9 L 197.8,75.4 L 171.1,62.9 Z" style="fill:#EEEEFF;fill-rule:evenodd;fill-opacity:1;stroke:#EEEEFF;stroke-width:2.0px;stroke-linecap:butt;stroke-linejoin:miter;stroke-miterlimit:10;stroke-opacity:1;"/>
<path class="bond-10 atom-10 atom-11" d="M 197.2,68.3 L 221.4,51.4 L 226.1,58.1 L 201.9,75.1 Z" style="fill:#EEEEFF;fill-rule:evenodd;fill-opacity:1;stroke:#EEEEFF;stroke-width:2.0px;stroke-linecap:butt;stroke-linejoin:miter;stroke-miterlimit:10;stroke-opacity:1;"/>
<path class="bond-11 atom-11 atom-12" d="M 225.5,51.0 L 252.2,63.5 L 248.7,71.0 L 222.0,58.5 Z" style="fill:#EEEEFF;fill-rule:evenodd;fill-opacity:1;stroke:#EEEEFF;stroke-width:2.0px;stroke-linecap:butt;stroke-linejoin:miter;stroke-miterlimit:10;stroke-opacity:1;"/>
<path class="bond-12 atom-12 atom-13" d="M 254.6,66.9 L 257.2,96.3 L 248.9,97.0 L 246.4,67.6 Z" style="fill:#EEEEFF;fill-rule:evenodd;fill-opacity:1;stroke:#EEEEFF;stroke-width:2.0px;stroke-linecap:butt;stroke-linejoin:miter;stroke-miterlimit:10;stroke-opacity:1;"/>
<path class="bond-13 atom-13 atom-14" d="M 257.2,96.3 L 259.7,125.7 L 251.5,126.4 L 248.9,97.0 Z" style="fill:#EEEEFF;fill-rule:evenodd;fill-opacity:1;stroke:#EEEEFF;stroke-width:2.0px;stroke-linecap:butt;stroke-linejoin:miter;stroke-miterlimit:10;stroke-opacity:1;"/>
<path class="bond-14 atom-11 atom-15" d="M 219.6,55.1 L 217.1,25.7 L 225.3,25.0 L 227.9,54.4 Z" style="fill:#EEEEFF;fill-rule:evenodd;fill-opacity:1;stroke:#EEEEFF;stroke-width:2.0px;stroke-linecap:butt;stroke-linejoin:miter;stroke-miterlimit:10;stroke-opacity:1;"/>
<path class="bond-15 atom-15 atom-16" d="M 219.4,29.1 L 192.7,16.6 L 196.2,9.1 L 222.9,21.6 Z" style="fill:#EEEEFF;fill-rule:evenodd;fill-opacity:1;stroke:#EEEEFF;stroke-width:2.0px;stroke-linecap:butt;stroke-linejoin:miter;stroke-miterlimit:10;stroke-opacity:1;"/>
<path class="bond-16 atom-6 atom-17" d="M 123.4,33.8 L 126.0,63.3 L 117.8,64.0 L 115.2,34.6 Z" style="fill:#FF7878;fill-rule:evenodd;fill-opacity:1;stroke:#FF7878;stroke-width:2.0px;stroke-linecap:butt;stroke-linejoin:miter;stroke-miterlimit:10;stroke-opacity:1;"/>
<path class="bond-17 atom-17 atom-18" d="M 124.2,67.0 L 100.1,83.9 L 95.3,77.1 L 119.5,60.2 Z" style="fill:#FF7878;fill-rule:evenodd;fill-opacity:1;stroke:#FF7878;stroke-width:2.0px;stroke-linecap:butt;stroke-linejoin:miter;stroke-miterlimit:10;stroke-opacity:1;"/>
<path class="bond-18 atom-18 atom-3" d="M 95.9,84.3 L 69.2,71.8 L 72.7,64.3 L 99.4,76.8 Z" style="fill:#FF7878;fill-rule:evenodd;fill-opacity:1;stroke:#FF7878;stroke-width:2.0px;stroke-linecap:butt;stroke-linejoin:miter;stroke-miterlimit:10;stroke-opacity:1;"/>
<path class="bond-19 atom-16 atom-8" d="M 196.8,16.2 L 172.6,33.2 L 167.9,26.4 L 192.1,9.5 Z" style="fill:#EEEEFF;fill-rule:evenodd;fill-opacity:1;stroke:#EEEEFF;stroke-width:2.0px;stroke-linecap:butt;stroke-linejoin:miter;stroke-miterlimit:10;stroke-opacity:1;"/>
<ellipse cx="49.3" cy="114.4" rx="5.9" ry="5.9" class="atom-0" style="fill:#FF7878;fill-rule:evenodd;stroke:#FF7878;stroke-width:1.0px;stroke-linecap:butt;stroke-linejoin:miter;stroke-opacity:1"/>
<ellipse cx="46.7" cy="85.0" rx="5.9" ry="5.9" class="atom-1" style="fill:#FF7878;fill-rule:evenodd;stroke:#FF7878;stroke-width:1.0px;stroke-linecap:butt;stroke-linejoin:miter;stroke-opacity:1"/>
<ellipse cx="20.0" cy="72.5" rx="5.9" ry="5.9" class="atom-2" style="fill:#FF7878;fill-rule:evenodd;stroke:#FF7878;stroke-width:1.0px;stroke-linecap:butt;stroke-linejoin:miter;stroke-opacity:1"/>
<ellipse cx="70.9" cy="68.0" rx="5.9" ry="5.9" class="atom-3" style="fill:#FF7878;fill-rule:evenodd;stroke:#FF7878;stroke-width:1.0px;stroke-linecap:butt;stroke-linejoin:miter;stroke-opacity:1"/>
<ellipse cx="68.4" cy="38.6" rx="5.9" ry="5.9" class="atom-4" style="fill:#FF7878;fill-rule:evenodd;stroke:#FF7878;stroke-width:1.0px;stroke-linecap:butt;stroke-linejoin:miter;stroke-opacity:1"/>
<ellipse cx="92.6" cy="21.7" rx="5.9" ry="5.9" class="atom-5" style="fill:#FF7878;fill-rule:evenodd;stroke:#FF7878;stroke-width:1.0px;stroke-linecap:butt;stroke-linejoin:miter;stroke-opacity:1"/>
<ellipse cx="119.3" cy="34.2" rx="5.9" ry="5.9" class="atom-6" style="fill:#FF7878;fill-rule:evenodd;stroke:#FF7878;stroke-width:1.0px;stroke-linecap:butt;stroke-linejoin:miter;stroke-opacity:1"/>
<ellipse cx="143.5" cy="17.3" rx="5.9" ry="5.9" class="atom-7" style="fill:#FFEEEE;fill-rule:evenodd;stroke:#FFEEEE;stroke-width:1.0px;stroke-linecap:butt;stroke-linejoin:miter;stroke-opacity:1"/>
<ellipse cx="170.2" cy="29.8" rx="5.9" ry="5.9" class="atom-8" style="fill:#EEEEFF;fill-rule:evenodd;stroke:#EEEEFF;stroke-width:1.0px;stroke-linecap:butt;stroke-linejoin:miter;stroke-opacity:1"/>
<ellipse cx="172.8" cy="59.2" rx="5.9" ry="5.9" class="atom-9" style="fill:#EEEEFF;fill-rule:evenodd;stroke:#EEEEFF;stroke-width:1.0px;stroke-linecap:butt;stroke-linejoin:miter;stroke-opacity:1"/>
<ellipse cx="199.5" cy="71.7" rx="5.9" ry="5.9" class="atom-10" style="fill:#EEEEFF;fill-rule:evenodd;stroke:#EEEEFF;stroke-width:1.0px;stroke-linecap:butt;stroke-linejoin:miter;stroke-opacity:1"/>
<ellipse cx="223.7" cy="54.7" rx="5.9" ry="5.9" class="atom-11" style="fill:#EEEEFF;fill-rule:evenodd;stroke:#EEEEFF;stroke-width:1.0px;stroke-linecap:butt;stroke-linejoin:miter;stroke-opacity:1"/>
<ellipse cx="250.5" cy="67.2" rx="5.9" ry="5.9" class="atom-12" style="fill:#EEEEFF;fill-rule:evenodd;stroke:#EEEEFF;stroke-width:1.0px;stroke-linecap:butt;stroke-linejoin:miter;stroke-opacity:1"/>
<ellipse cx="253.0" cy="96.6" rx="5.9" ry="5.9" class="atom-13" style="fill:#EEEEFF;fill-rule:evenodd;stroke:#EEEEFF;stroke-width:1.0px;stroke-linecap:butt;stroke-linejoin:miter;stroke-opacity:1"/>
<ellipse cx="255.6" cy="126.0" rx="5.9" ry="5.9" class="atom-14" style="fill:#EEEEFF;fill-rule:evenodd;stroke:#EEEEFF;stroke-width:1.0px;stroke-linecap:butt;stroke-linejoin:miter;stroke-opacity:1"/>
<ellipse cx="221.2" cy="25.3" rx="5.9" ry="5.9" class="atom-15" style="fill:#EEEEFF;fill-rule:evenodd;stroke:#EEEEFF;stroke-width:1.0px;stroke-linecap:butt;stroke-linejoin:miter;stroke-opacity:1"/>
<ellipse cx="194.4" cy="12.9" rx="5.9" ry="5.9" class="atom-16" style="fill:#EEEEFF;fill-rule:evenodd;stroke:#EEEEFF;stroke-width:1.0px;stroke-linecap:butt;stroke-linejoin:miter;stroke-opacity:1"/>
<ellipse cx="121.9" cy="63.6" rx="5.9" ry="5.9" class="atom-17" style="fill:#FF7878;fill-rule:evenodd;stroke:#FF7878;stroke-width:1.0px;stroke-linecap:butt;stroke-linejoin:miter;stroke-opacity:1"/>
<ellipse cx="97.7" cy="80.5" rx="5.9" ry="5.9" class="atom-18" style="fill:#FF7878;fill-rule:evenodd;stroke:#FF7878;stroke-width:1.0px;stroke-linecap:butt;stroke-linejoin:miter;stroke-opacity:1"/>
<path class="bond-0 atom-0 atom-1" d="M 46.6,109.4 L 45.0,90.3" style="fill:none;fill-rule:evenodd;stroke:#000000;stroke-width:2.0px;stroke-linecap:butt;stroke-linejoin:miter;stroke-opacity:1"/>
<path class="bond-0 atom-0 atom-1" d="M 51.1,109.0 L 49.4,89.9" style="fill:none;fill-rule:evenodd;stroke:#000000;stroke-width:2.0px;stroke-linecap:butt;stroke-linejoin:miter;stroke-opacity:1"/>
<path class="bond-1 atom-1 atom-2" d="M 42.6,83.0 L 24.8,74.7" style="fill:none;fill-rule:evenodd;stroke:#000000;stroke-width:2.0px;stroke-linecap:butt;stroke-linejoin:miter;stroke-opacity:1"/>
<path class="bond-2 atom-1 atom-3" d="M 54.2,79.8 L 70.9,68.0" style="fill:none;fill-rule:evenodd;stroke:#000000;stroke-width:2.0px;stroke-linecap:butt;stroke-linejoin:miter;stroke-opacity:1"/>
<path class="bond-3 atom-3 atom-4" d="M 70.9,68.0 L 68.4,38.6" style="fill:none;fill-rule:evenodd;stroke:#000000;stroke-width:2.0px;stroke-linecap:butt;stroke-linejoin:miter;stroke-opacity:1"/>
<path class="bond-3 atom-3 atom-4" d="M 75.1,65.1 L 73.0,40.8" style="fill:none;fill-rule:evenodd;stroke:#000000;stroke-width:2.0px;stroke-linecap:butt;stroke-linejoin:miter;stroke-opacity:1"/>
<path class="bond-4 atom-4 atom-5" d="M 68.4,38.6 L 92.6,21.7" style="fill:none;fill-rule:evenodd;stroke:#000000;stroke-width:2.0px;stroke-linecap:butt;stroke-linejoin:miter;stroke-opacity:1"/>
<path class="bond-5 atom-5 atom-6" d="M 92.6,21.7 L 119.3,34.2" style="fill:none;fill-rule:evenodd;stroke:#000000;stroke-width:2.0px;stroke-linecap:butt;stroke-linejoin:miter;stroke-opacity:1"/>
<path class="bond-5 atom-5 atom-6" d="M 93.0,26.8 L 115.1,37.1" style="fill:none;fill-rule:evenodd;stroke:#000000;stroke-width:2.0px;stroke-linecap:butt;stroke-linejoin:miter;stroke-opacity:1"/>
<path class="bond-6 atom-6 atom-7" d="M 119.3,34.2 L 138.7,20.7" style="fill:none;fill-rule:evenodd;stroke:#000000;stroke-width:2.0px;stroke-linecap:butt;stroke-linejoin:miter;stroke-opacity:1"/>
<path class="bond-7 atom-7 atom-8" d="M 148.3,19.5 L 170.2,29.8" style="fill:none;fill-rule:evenodd;stroke:#000000;stroke-width:2.0px;stroke-linecap:butt;stroke-linejoin:miter;stroke-opacity:1"/>
<path class="bond-8 atom-8 atom-9" d="M 170.2,29.8 L 172.8,59.2" style="fill:none;fill-rule:evenodd;stroke:#000000;stroke-width:2.0px;stroke-linecap:butt;stroke-linejoin:miter;stroke-opacity:1"/>
<path class="bond-8 atom-8 atom-9" d="M 174.9,31.9 L 177.0,56.2" style="fill:none;fill-rule:evenodd;stroke:#000000;stroke-width:2.0px;stroke-linecap:butt;stroke-linejoin:miter;stroke-opacity:1"/>
<path class="bond-9 atom-9 atom-10" d="M 172.8,59.2 L 199.5,71.7" style="fill:none;fill-rule:evenodd;stroke:#000000;stroke-width:2.0px;stroke-linecap:butt;stroke-linejoin:miter;stroke-opacity:1"/>
<path class="bond-10 atom-10 atom-11" d="M 199.5,71.7 L 223.7,54.7" style="fill:none;fill-rule:evenodd;stroke:#000000;stroke-width:2.0px;stroke-linecap:butt;stroke-linejoin:miter;stroke-opacity:1"/>
<path class="bond-10 atom-10 atom-11" d="M 199.1,66.6 L 219.1,52.6" style="fill:none;fill-rule:evenodd;stroke:#000000;stroke-width:2.0px;stroke-linecap:butt;stroke-linejoin:miter;stroke-opacity:1"/>
<path class="bond-11 atom-11 atom-12" d="M 223.7,54.7 L 246.3,65.3" style="fill:none;fill-rule:evenodd;stroke:#000000;stroke-width:2.0px;stroke-linecap:butt;stroke-linejoin:miter;stroke-opacity:1"/>
<path class="bond-12 atom-12 atom-13" d="M 253.1,72.2 L 254.8,91.2" style="fill:none;fill-rule:evenodd;stroke:#000000;stroke-width:2.0px;stroke-linecap:butt;stroke-linejoin:miter;stroke-opacity:1"/>
<path class="bond-12 atom-12 atom-13" d="M 248.7,72.6 L 250.4,91.6" style="fill:none;fill-rule:evenodd;stroke:#000000;stroke-width:2.0px;stroke-linecap:butt;stroke-linejoin:miter;stroke-opacity:1"/>
<path class="bond-13 atom-13 atom-14" d="M 255.7,101.8 L 257.4,120.7" style="fill:none;fill-rule:evenodd;stroke:#000000;stroke-width:2.0px;stroke-linecap:butt;stroke-linejoin:miter;stroke-opacity:1"/>
<path class="bond-13 atom-13 atom-14" d="M 251.3,102.1 L 252.9,121.1" style="fill:none;fill-rule:evenodd;stroke:#000000;stroke-width:2.0px;stroke-linecap:butt;stroke-linejoin:miter;stroke-opacity:1"/>
<path class="bond-14 atom-11 atom-15" d="M 223.7,54.7 L 221.2,25.3" style="fill:none;fill-rule:evenodd;stroke:#000000;stroke-width:2.0px;stroke-linecap:butt;stroke-linejoin:miter;stroke-opacity:1"/>
<path class="bond-15 atom-15 atom-16" d="M 221.2,25.3 L 194.4,12.9" style="fill:none;fill-rule:evenodd;stroke:#000000;stroke-width:2.0px;stroke-linecap:butt;stroke-linejoin:miter;stroke-opacity:1"/>
<path class="bond-15 atom-15 atom-16" d="M 217.0,28.3 L 194.9,17.9" style="fill:none;fill-rule:evenodd;stroke:#000000;stroke-width:2.0px;stroke-linecap:butt;stroke-linejoin:miter;stroke-opacity:1"/>
<path class="bond-16 atom-6 atom-17" d="M 119.3,34.2 L 121.9,63.6" style="fill:none;fill-rule:evenodd;stroke:#000000;stroke-width:2.0px;stroke-linecap:butt;stroke-linejoin:miter;stroke-opacity:1"/>
<path class="bond-17 atom-17 atom-18" d="M 121.9,63.6 L 97.7,80.5" style="fill:none;fill-rule:evenodd;stroke:#000000;stroke-width:2.0px;stroke-linecap:butt;stroke-linejoin:miter;stroke-opacity:1"/>
<path class="bond-17 atom-17 atom-18" d="M 117.2,61.4 L 97.2,75.4" style="fill:none;fill-rule:evenodd;stroke:#000000;stroke-width:2.0px;stroke-linecap:butt;stroke-linejoin:miter;stroke-opacity:1"/>
<path class="bond-18 atom-18 atom-3" d="M 97.7,80.5 L 70.9,68.0" style="fill:none;fill-rule:evenodd;stroke:#000000;stroke-width:2.0px;stroke-linecap:butt;stroke-linejoin:miter;stroke-opacity:1"/>
<path class="bond-19 atom-16 atom-8" d="M 194.4,12.9 L 170.2,29.8" style="fill:none;fill-rule:evenodd;stroke:#000000;stroke-width:2.0px;stroke-linecap:butt;stroke-linejoin:miter;stroke-opacity:1"/>
<path d="M 68.5,40.1 L 68.4,38.6 L 69.6,37.8" style="fill:none;stroke:#000000;stroke-width:2.0px;stroke-linecap:butt;stroke-linejoin:miter;stroke-miterlimit:10;stroke-opacity:1;"/>
<path d="M 91.4,22.6 L 92.6,21.7 L 93.9,22.3" style="fill:none;stroke:#000000;stroke-width:2.0px;stroke-linecap:butt;stroke-linejoin:miter;stroke-miterlimit:10;stroke-opacity:1;"/>
<path d="M 172.7,57.7 L 172.8,59.2 L 174.1,59.8" style="fill:none;stroke:#000000;stroke-width:2.0px;stroke-linecap:butt;stroke-linejoin:miter;stroke-miterlimit:10;stroke-opacity:1;"/>
<path d="M 198.2,71.0 L 199.5,71.7 L 200.8,70.8" style="fill:none;stroke:#000000;stroke-width:2.0px;stroke-linecap:butt;stroke-linejoin:miter;stroke-miterlimit:10;stroke-opacity:1;"/>
<path d="M 221.3,26.8 L 221.2,25.3 L 219.8,24.7" style="fill:none;stroke:#000000;stroke-width:2.0px;stroke-linecap:butt;stroke-linejoin:miter;stroke-miterlimit:10;stroke-opacity:1;"/>
<path d="M 195.8,13.5 L 194.4,12.9 L 193.2,13.7" style="fill:none;stroke:#000000;stroke-width:2.0px;stroke-linecap:butt;stroke-linejoin:miter;stroke-miterlimit:10;stroke-opacity:1;"/>
<path d="M 121.7,62.1 L 121.9,63.6 L 120.7,64.5" style="fill:none;stroke:#000000;stroke-width:2.0px;stroke-linecap:butt;stroke-linejoin:miter;stroke-miterlimit:10;stroke-opacity:1;"/>
<path d="M 98.9,79.7 L 97.7,80.5 L 96.3,79.9" style="fill:none;stroke:#000000;stroke-width:2.0px;stroke-linecap:butt;stroke-linejoin:miter;stroke-miterlimit:10;stroke-opacity:1;"/>
<path class="atom-0" d="M 45.5 114.4 Q 45.5 112.4, 46.5 111.3 Q 47.5 110.1, 49.3 110.1 Q 51.2 110.1, 52.2 111.3 Q 53.1 112.4, 53.1 114.4 Q 53.1 116.4, 52.1 117.6 Q 51.1 118.7, 49.3 118.7 Q 47.5 118.7, 46.5 117.6 Q 45.5 116.4, 45.5 114.4 M 49.3 117.8 Q 50.6 117.8, 51.3 116.9 Q 52.0 116.1, 52.0 114.4 Q 52.0 112.7, 51.3 111.9 Q 50.6 111.1, 49.3 111.1 Q 48.0 111.1, 47.3 111.9 Q 46.7 112.7, 46.7 114.4 Q 46.7 116.1, 47.3 116.9 Q 48.0 117.8, 49.3 117.8 " fill="#000000"/>
<path class="atom-1" d="M 44.9 80.8 L 47.6 85.2 Q 47.9 85.6, 48.3 86.4 Q 48.8 87.2, 48.8 87.3 L 48.8 80.8 L 49.9 80.8 L 49.9 89.1 L 48.8 89.1 L 45.8 84.3 Q 45.5 83.7, 45.1 83.1 Q 44.8 82.4, 44.7 82.2 L 44.7 89.1 L 43.6 89.1 L 43.6 80.8 L 44.9 80.8 " fill="#000000"/>
<path class="atom-1" d="M 51.5 82.3 L 53.0 82.3 L 53.0 80.7 L 53.6 80.7 L 53.6 82.3 L 55.1 82.3 L 55.1 82.8 L 53.6 82.8 L 53.6 84.4 L 53.0 84.4 L 53.0 82.8 L 51.5 82.8 L 51.5 82.3 " fill="#000000"/>
<path class="atom-2" d="M 16.2 72.5 Q 16.2 70.5, 17.2 69.4 Q 18.1 68.2, 20.0 68.2 Q 21.9 68.2, 22.8 69.4 Q 23.8 70.5, 23.8 72.5 Q 23.8 74.5, 22.8 75.7 Q 21.8 76.8, 20.0 76.8 Q 18.2 76.8, 17.2 75.7 Q 16.2 74.5, 16.2 72.5 M 20.0 75.9 Q 21.3 75.9, 22.0 75.0 Q 22.7 74.2, 22.7 72.5 Q 22.7 70.9, 22.0 70.0 Q 21.3 69.2, 20.0 69.2 Q 18.7 69.2, 18.0 70.0 Q 17.3 70.8, 17.3 72.5 Q 17.3 74.2, 18.0 75.0 Q 18.7 75.9, 20.0 75.9 " fill="#000000"/>
<path class="atom-2" d="M 25.0 69.6 L 27.9 69.6 L 27.9 70.2 L 25.0 70.2 L 25.0 69.6 " fill="#000000"/>
<path class="atom-7" d="M 139.7 17.3 Q 139.7 15.3, 140.7 14.2 Q 141.6 13.1, 143.5 13.1 Q 145.4 13.1, 146.3 14.2 Q 147.3 15.3, 147.3 17.3 Q 147.3 19.3, 146.3 20.5 Q 145.3 21.6, 143.5 21.6 Q 141.7 21.6, 140.7 20.5 Q 139.7 19.4, 139.7 17.3 M 143.5 20.7 Q 144.8 20.7, 145.5 19.8 Q 146.2 19.0, 146.2 17.3 Q 146.2 15.7, 145.5 14.8 Q 144.8 14.0, 143.5 14.0 Q 142.2 14.0, 141.5 14.8 Q 140.8 15.7, 140.8 17.3 Q 140.8 19.0, 141.5 19.8 Q 142.2 20.7, 143.5 20.7 " fill="#000000"/>
<path class="atom-12" d="M 248.6 63.1 L 251.4 67.5 Q 251.6 67.9, 252.1 68.7 Q 252.5 69.5, 252.5 69.5 L 252.5 63.1 L 253.7 63.1 L 253.7 71.4 L 252.5 71.4 L 249.6 66.6 Q 249.2 66.0, 248.9 65.4 Q 248.5 64.7, 248.4 64.5 L 248.4 71.4 L 247.3 71.4 L 247.3 63.1 L 248.6 63.1 " fill="#000000"/>
<path class="atom-13" d="M 249.8 96.7 Q 249.8 94.6, 250.8 93.5 Q 251.8 92.4, 253.6 92.4 Q 255.3 92.4, 256.3 93.6 L 255.5 94.3 Q 254.8 93.4, 253.6 93.4 Q 252.4 93.4, 251.7 94.2 Q 251.0 95.1, 251.0 96.7 Q 251.0 98.3, 251.7 99.2 Q 252.4 100.0, 253.7 100.0 Q 254.7 100.0, 255.7 99.5 L 256.1 100.4 Q 255.6 100.6, 255.0 100.8 Q 254.3 101.0, 253.6 101.0 Q 251.8 101.0, 250.8 99.9 Q 249.8 98.8, 249.8 96.7 " fill="#000000"/>
<path class="atom-14" d="M 253.2 128.9 Q 253.3 129.0, 253.7 129.1 Q 254.1 129.3, 254.5 129.4 Q 255.0 129.5, 255.4 129.5 Q 256.2 129.5, 256.6 129.1 Q 257.1 128.7, 257.1 128.0 Q 257.1 127.6, 256.9 127.3 Q 256.6 127.0, 256.3 126.9 Q 255.9 126.7, 255.3 126.5 Q 254.6 126.3, 254.2 126.1 Q 253.7 125.9, 253.4 125.4 Q 253.1 125.0, 253.1 124.2 Q 253.1 123.2, 253.8 122.5 Q 254.5 121.9, 255.9 121.9 Q 256.9 121.9, 258.0 122.3 L 257.7 123.2 Q 256.7 122.8, 256.0 122.8 Q 255.2 122.8, 254.7 123.2 Q 254.3 123.5, 254.3 124.1 Q 254.3 124.5, 254.5 124.8 Q 254.7 125.1, 255.1 125.2 Q 255.4 125.4, 256.0 125.6 Q 256.7 125.8, 257.2 126.0 Q 257.6 126.3, 257.9 126.8 Q 258.3 127.2, 258.3 128.0 Q 258.3 129.2, 257.5 129.8 Q 256.7 130.4, 255.4 130.4 Q 254.7 130.4, 254.1 130.3 Q 253.6 130.1, 252.9 129.8 L 253.2 128.9 " fill="#000000"/>
</svg>