<svg xmlns="http://www.w3.org/2000/svg" xmlns:rdkit="http://www.rdkit.org/xml" xmlns:xlink="http://www.w3.org/1999/xlink" version="1.1" baseProfile="full" xml:space="preserve" width="196px" height="76px" viewBox="0 0 196 76">
<!-- END OF HEADER -->
<rect style="opacity:1.0;fill:#FFFFFF;stroke:none" width="196.0" height="76.0" x="0.0" y="0.0"> </rect>
<path class="bond-0 atom-0 atom-1" d="M 14.9,37.1 L 43.8,30.8 L 45.5,38.9 L 16.7,45.1 Z" style="fill:#FFB8B8;fill-rule:evenodd;fill-opacity:1;stroke:#FFB8B8;stroke-width:2.0px;stroke-linecap:butt;stroke-linejoin:miter;stroke-miterlimit:10;stroke-opacity:1;"/>
<path class="bond-1 atom-1 atom-2" d="M 43.8,30.8 L 72.6,24.5 L 74.3,32.6 L 45.5,38.9 Z" style="fill:#FFB8B8;fill-rule:evenodd;fill-opacity:1;stroke:#FFB8B8;stroke-width:2.0px;stroke-linecap:butt;stroke-linejoin:miter;stroke-miterlimit:10;stroke-opacity:1;"/>
<path class="bond-2 atom-2 atom-3" d="M 76.5,25.8 L 96.4,47.6 L 90.3,53.1 L 70.4,31.3 Z" style="fill:#FFB8B8;fill-rule:evenodd;fill-opacity:1;stroke:#FFB8B8;stroke-width:2.0px;stroke-linecap:butt;stroke-linejoin:miter;stroke-miterlimit:10;stroke-opacity:1;"/>
<path class="bond-4 atom-4 atom-5" d="M 118.2,42.8 L 127.2,14.7 L 135.0,17.2 L 126.1,45.3 Z" style="fill:#EAEAFF;fill-rule:evenodd;fill-opacity:1;stroke:#EAEAFF;stroke-width:2.0px;stroke-linecap:butt;stroke-linejoin:miter;stroke-miterlimit:10;stroke-opacity:1;"/>
<path class="bond-5 atom-5 atom-6" d="M 130.2,11.9 L 159.0,5.7 L 160.8,13.7 L 132.0,20.0 Z" style="fill:#EAEAFF;fill-rule:evenodd;fill-opacity:1;stroke:#EAEAFF;stroke-width:2.0px;stroke-linecap:butt;stroke-linejoin:miter;stroke-miterlimit:10;stroke-opacity:1;"/>
<path class="bond-6 atom-6 atom-7" d="M 163.0,6.9 L 182.8,28.7 L 176.7,34.3 L 156.9,12.5 Z" style="fill:#EAEAFF;fill-rule:evenodd;fill-opacity:1;stroke:#EAEAFF;stroke-width:2.0px;stroke-linecap:butt;stroke-linejoin:miter;stroke-miterlimit:10;stroke-opacity:1;"/>
<path class="bond-7 atom-7 atom-8" d="M 183.7,32.8 L 174.7,60.9 L 166.9,58.4 L 175.8,30.3 Z" style="fill:#EAEAFF;fill-rule:evenodd;fill-opacity:1;stroke:#EAEAFF;stroke-width:2.0px;stroke-linecap:butt;stroke-linejoin:miter;stroke-miterlimit:10;stroke-opacity:1;"/>
<path class="bond-8 atom-8 atom-9" d="M 171.7,63.7 L 142.9,69.9 L 141.1,61.9 L 169.9,55.6 Z" style="fill:#EAEAFF;fill-rule:evenodd;fill-opacity:1;stroke:#EAEAFF;stroke-width:2.0px;stroke-linecap:butt;stroke-linejoin:miter;stroke-miterlimit:10;stroke-opacity:1;"/>
<path class="bond-9 atom-9 atom-4" d="M 138.9,68.7 L 119.1,46.9 L 125.2,41.3 L 145.0,63.1 Z" style="fill:#EAEAFF;fill-rule:evenodd;fill-opacity:1;stroke:#EAEAFF;stroke-width:2.0px;stroke-linecap:butt;stroke-linejoin:miter;stroke-miterlimit:10;stroke-opacity:1;"/>
<ellipse cx="15.8" cy="41.1" rx="5.9" ry="5.9" class="atom-0" style="fill:#FFB8B8;fill-rule:evenodd;stroke:#FFB8B8;stroke-width:1.0px;stroke-linecap:butt;stroke-linejoin:miter;stroke-opacity:1"/>
<ellipse cx="44.6" cy="34.8" rx="5.9" ry="5.9" class="atom-1" style="fill:#FFB8B8;fill-rule:evenodd;stroke:#FFB8B8;stroke-width:1.0px;stroke-linecap:butt;stroke-linejoin:miter;stroke-opacity:1"/>
<ellipse cx="73.5" cy="28.5" rx="5.9" ry="5.9" class="atom-2" style="fill:#FFB8B8;fill-rule:evenodd;stroke:#FFB8B8;stroke-width:1.0px;stroke-linecap:butt;stroke-linejoin:miter;stroke-opacity:1"/>
<ellipse cx="93.3" cy="50.4" rx="5.9" ry="5.9" class="atom-3" style="fill:#FFB8B8;fill-rule:evenodd;stroke:#FFB8B8;stroke-width:1.0px;stroke-linecap:butt;stroke-linejoin:miter;stroke-opacity:1"/>
<ellipse cx="122.1" cy="44.1" rx="5.9" ry="5.9" class="atom-4" style="fill:#EAEAFF;fill-rule:evenodd;stroke:#EAEAFF;stroke-width:1.0px;stroke-linecap:butt;stroke-linejoin:miter;stroke-opacity:1"/>
<ellipse cx="131.1" cy="16.0" rx="5.9" ry="5.9" class="atom-5" style="fill:#EAEAFF;fill-rule:evenodd;stroke:#EAEAFF;stroke-width:1.0px;stroke-linecap:butt;stroke-linejoin:miter;stroke-opacity:1"/>
<ellipse cx="159.9" cy="9.7" rx="5.9" ry="5.9" class="atom-6" style="fill:#EAEAFF;fill-rule:evenodd;stroke:#EAEAFF;stroke-width:1.0px;stroke-linecap:butt;stroke-linejoin:miter;stroke-opacity:1"/>
<ellipse cx="179.8" cy="31.5" rx="5.9" ry="5.9" class="atom-7" style="fill:#EAEAFF;fill-rule:evenodd;stroke:#EAEAFF;stroke-width:1.0px;stroke-linecap:butt;stroke-linejoin:miter;stroke-opacity:1"/>
<ellipse cx="170.8" cy="59.6" rx="5.9" ry="5.9" class="atom-8" style="fill:#EAEAFF;fill-rule:evenodd;stroke:#EAEAFF;stroke-width:1.0px;stroke-linecap:butt;stroke-linejoin:miter;stroke-opacity:1"/>
<ellipse cx="142.0" cy="65.9" rx="5.9" ry="5.9" class="atom-9" style="fill:#EAEAFF;fill-rule:evenodd;stroke:#EAEAFF;stroke-width:1.0px;stroke-linecap:butt;stroke-linejoin:miter;stroke-opacity:1"/>
<path class="bond-0 atom-0 atom-1" d="M 23.9,37.1 L 40.0,33.6" style="fill:none;fill-rule:evenodd;stroke:#000000;stroke-width:2.0px;stroke-linecap:butt;stroke-linejoin:miter;stroke-opacity:1"/>
<path class="bond-0 atom-0 atom-1" d="M 24.8,41.4 L 41.0,37.9" style="fill:none;fill-rule:evenodd;stroke:#000000;stroke-width:2.0px;stroke-linecap:butt;stroke-linejoin:miter;stroke-opacity:1"/>
<path class="bond-1 atom-1 atom-2" d="M 53.5,30.6 L 68.9,27.3" style="fill:none;fill-rule:evenodd;stroke:#000000;stroke-width:2.0px;stroke-linecap:butt;stroke-linejoin:miter;stroke-opacity:1"/>
<path class="bond-1 atom-1 atom-2" d="M 54.5,34.9 L 69.8,31.6" style="fill:none;fill-rule:evenodd;stroke:#000000;stroke-width:2.0px;stroke-linecap:butt;stroke-linejoin:miter;stroke-opacity:1"/>
<path class="bond-2 atom-2 atom-3" d="M 77.6,33.1 L 93.3,50.4" style="fill:none;fill-rule:evenodd;stroke:#000000;stroke-width:2.0px;stroke-linecap:butt;stroke-linejoin:miter;stroke-opacity:1"/>
<path class="bond-3 atom-3 atom-4" d="M 93.3,50.4 L 122.1,44.1" style="fill:none;fill-rule:evenodd;stroke:#000000;stroke-width:2.0px;stroke-linecap:butt;stroke-linejoin:miter;stroke-opacity:1"/>
<path class="bond-4 atom-4 atom-5" d="M 122.1,44.1 L 131.1,16.0" style="fill:none;fill-rule:evenodd;stroke:#000000;stroke-width:2.0px;stroke-linecap:butt;stroke-linejoin:miter;stroke-opacity:1"/>
<path class="bond-4 atom-4 atom-5" d="M 127.1,43.0 L 134.5,19.8" style="fill:none;fill-rule:evenodd;stroke:#000000;stroke-width:2.0px;stroke-linecap:butt;stroke-linejoin:miter;stroke-opacity:1"/>
<path class="bond-5 atom-5 atom-6" d="M 131.1,16.0 L 159.9,9.7" style="fill:none;fill-rule:evenodd;stroke:#000000;stroke-width:2.0px;stroke-linecap:butt;stroke-linejoin:miter;stroke-opacity:1"/>
<path class="bond-6 atom-6 atom-7" d="M 159.9,9.7 L 179.8,31.5" style="fill:none;fill-rule:evenodd;stroke:#000000;stroke-width:2.0px;stroke-linecap:butt;stroke-linejoin:miter;stroke-opacity:1"/>
<path class="bond-6 atom-6 atom-7" d="M 158.4,14.6 L 174.8,32.6" style="fill:none;fill-rule:evenodd;stroke:#000000;stroke-width:2.0px;stroke-linecap:butt;stroke-linejoin:miter;stroke-opacity:1"/>
<path class="bond-7 atom-7 atom-8" d="M 179.8,31.5 L 170.8,59.6" style="fill:none;fill-rule:evenodd;stroke:#000000;stroke-width:2.0px;stroke-linecap:butt;stroke-linejoin:miter;stroke-opacity:1"/>
<path class="bond-8 atom-8 atom-9" d="M 170.8,59.6 L 142.0,65.9" style="fill:none;fill-rule:evenodd;stroke:#000000;stroke-width:2.0px;stroke-linecap:butt;stroke-linejoin:miter;stroke-opacity:1"/>
<path class="bond-8 atom-8 atom-9" d="M 167.4,55.8 L 143.5,61.0" style="fill:none;fill-rule:evenodd;stroke:#000000;stroke-width:2.0px;stroke-linecap:butt;stroke-linejoin:miter;stroke-opacity:1"/>
<path class="bond-9 atom-9 atom-4" d="M 142.0,65.9 L 122.1,44.1" style="fill:none;fill-rule:evenodd;stroke:#000000;stroke-width:2.0px;stroke-linecap:butt;stroke-linejoin:miter;stroke-opacity:1"/>
<path d="M 92.5,49.5 L 93.3,50.4 L 94.8,50.0" style="fill:none;stroke:#000000;stroke-width:2.0px;stroke-linecap:butt;stroke-linejoin:miter;stroke-miterlimit:10;stroke-opacity:1;"/>
<path d="M 130.7,17.4 L 131.1,16.0 L 132.5,15.7" style="fill:none;stroke:#000000;stroke-width:2.0px;stroke-linecap:butt;stroke-linejoin:miter;stroke-miterlimit:10;stroke-opacity:1;"/>
<path d="M 158.5,10.0 L 159.9,9.7 L 160.9,10.8" style="fill:none;stroke:#000000;stroke-width:2.0px;stroke-linecap:butt;stroke-linejoin:miter;stroke-miterlimit:10;stroke-opacity:1;"/>
<path d="M 178.8,30.4 L 179.8,31.5 L 179.3,32.9" style="fill:none;stroke:#000000;stroke-width:2.0px;stroke-linecap:butt;stroke-linejoin:miter;stroke-miterlimit:10;stroke-opacity:1;"/>
<path d="M 171.3,58.2 L 170.8,59.6 L 169.4,59.9" style="fill:none;stroke:#000000;stroke-width:2.0px;stroke-linecap:butt;stroke-linejoin:miter;stroke-miterlimit:10;stroke-opacity:1;"/>
<path d="M 143.4,65.6 L 142.0,65.9 L 141.0,64.8" style="fill:none;stroke:#000000;stroke-width:2.0px;stroke-linecap:butt;stroke-linejoin:miter;stroke-miterlimit:10;stroke-opacity:1;"/>
<path class="atom-0" d="M 14.0 36.9 L 16.7 41.4 Q 17.0 41.8, 17.4 42.6 Q 17.9 43.4, 17.9 43.4 L 17.9 36.9 L 19.0 36.9 L 19.0 45.3 L 17.8 45.3 L 14.9 40.4 Q 14.6 39.9, 14.2 39.2 Q 13.8 38.6, 13.7 38.4 L 13.7 45.3 L 12.7 45.3 L 12.7 36.9 L 14.0 36.9 " fill="#000000"/>
<path class="atom-0" d="M 20.5 38.3 L 23.4 38.3 L 23.4 38.9 L 20.5 38.9 L 20.5 38.3 " fill="#000000"/>
<path class="atom-1" d="M 42.8 30.6 L 45.5 35.1 Q 45.8 35.5, 46.2 36.3 Q 46.7 37.1, 46.7 37.1 L 46.7 30.6 L 47.8 30.6 L 47.8 39.0 L 46.7 39.0 L 43.7 34.2 Q 43.4 33.6, 43.0 32.9 Q 42.7 32.3, 42.6 32.1 L 42.6 39.0 L 41.5 39.0 L 41.5 30.6 L 42.8 30.6 " fill="#000000"/>
<path class="atom-1" d="M 49.4 32.2 L 50.9 32.2 L 50.9 30.6 L 51.5 30.6 L 51.5 32.2 L 53.0 32.2 L 53.0 32.7 L 51.5 32.7 L 51.5 34.3 L 50.9 34.3 L 50.9 32.7 L 49.4 32.7 L 49.4 32.2 " fill="#000000"/>
<path class="atom-2" d="M 71.6 24.4 L 74.4 28.8 Q 74.6 29.2, 75.1 30.0 Q 75.5 30.8, 75.5 30.9 L 75.5 24.4 L 76.6 24.4 L 76.6 32.7 L 75.5 32.7 L 72.5 27.9 Q 72.2 27.3, 71.8 26.7 Q 71.5 26.0, 71.4 25.8 L 71.4 32.7 L 70.3 32.7 L 70.3 24.4 L 71.6 24.4 " fill="#000000"/>
</svg>