<svg xmlns="http://www.w3.org/2000/svg" xmlns:rdkit="http://www.rdkit.org/xml" xmlns:xlink="http://www.w3.org/1999/xlink" version="1.1" baseProfile="full" xml:space="preserve" width="143px" height="106px" viewBox="0 0 143 106">
<!-- END OF HEADER -->
<rect style="opacity:1.0;fill:#FFFFFF;stroke:none" width="143.0" height="106.0" x="0.0" y="0.0"> </rect>
<path class="bond-0 atom-0 atom-1" d="M 75.9,92.8 L 86.1,65.2 L 93.8,68.1 L 83.6,95.7 Z" style="fill:#FFC8C8;fill-rule:evenodd;fill-opacity:1;stroke:#FFC8C8;stroke-width:2.0px;stroke-linecap:butt;stroke-linejoin:miter;stroke-miterlimit:10;stroke-opacity:1;"/>
<path class="bond-1 atom-1 atom-2" d="M 89.3,62.6 L 118.3,57.6 L 119.7,65.7 L 90.7,70.7 Z" style="fill:#FFC8C8;fill-rule:evenodd;fill-opacity:1;stroke:#FFC8C8;stroke-width:2.0px;stroke-linecap:butt;stroke-linejoin:miter;stroke-miterlimit:10;stroke-opacity:1;"/>
<path class="bond-2 atom-2 atom-3" d="M 115.2,60.2 L 125.4,32.6 L 133.1,35.5 L 122.9,63.1 Z" style="fill:#FFC8C8;fill-rule:evenodd;fill-opacity:1;stroke:#FFC8C8;stroke-width:2.0px;stroke-linecap:butt;stroke-linejoin:miter;stroke-miterlimit:10;stroke-opacity:1;"/>
<path class="bond-3 atom-3 atom-4" d="M 126.1,36.7 L 107.3,14.0 L 113.6,8.7 L 132.4,31.4 Z" style="fill:#FFC8C8;fill-rule:evenodd;fill-opacity:1;stroke:#FFC8C8;stroke-width:2.0px;stroke-linecap:butt;stroke-linejoin:miter;stroke-miterlimit:10;stroke-opacity:1;"/>
<path class="bond-4 atom-4 atom-5" d="M 111.1,15.4 L 82.1,20.4 L 80.7,12.2 L 109.7,7.3 Z" style="fill:#FFC8C8;fill-rule:evenodd;fill-opacity:1;stroke:#FFC8C8;stroke-width:2.0px;stroke-linecap:butt;stroke-linejoin:miter;stroke-miterlimit:10;stroke-opacity:1;"/>
<path class="bond-5 atom-5 atom-6" d="M 85.3,17.7 L 75.0,45.4 L 67.3,42.5 L 77.5,14.9 Z" style="fill:#FFC8C8;fill-rule:evenodd;fill-opacity:1;stroke:#FFC8C8;stroke-width:2.0px;stroke-linecap:butt;stroke-linejoin:miter;stroke-miterlimit:10;stroke-opacity:1;"/>
<path class="bond-7 atom-7 atom-8" d="M 42.8,53.0 L 13.7,57.9 L 12.4,49.8 L 41.4,44.8 Z" style="fill:#7878FF;fill-rule:evenodd;fill-opacity:1;stroke:#7878FF;stroke-width:2.0px;stroke-linecap:butt;stroke-linejoin:miter;stroke-miterlimit:10;stroke-opacity:1;"/>
<path class="bond-8 atom-7 atom-9" d="M 38.0,49.6 L 33.1,20.5 L 41.2,19.1 L 46.2,48.2 Z" style="fill:#7878FF;fill-rule:evenodd;fill-opacity:1;stroke:#7878FF;stroke-width:2.0px;stroke-linecap:butt;stroke-linejoin:miter;stroke-miterlimit:10;stroke-opacity:1;"/>
<path class="bond-9 atom-7 atom-10" d="M 46.2,48.2 L 51.1,77.3 L 43.0,78.6 L 38.0,49.6 Z" style="fill:#7878FF;fill-rule:evenodd;fill-opacity:1;stroke:#7878FF;stroke-width:2.0px;stroke-linecap:butt;stroke-linejoin:miter;stroke-miterlimit:10;stroke-opacity:1;"/>
<path class="bond-10 atom-6 atom-1" d="M 74.3,41.3 L 93.1,64.0 L 86.8,69.3 L 68.0,46.6 Z" style="fill:#FFC8C8;fill-rule:evenodd;fill-opacity:1;stroke:#FFC8C8;stroke-width:2.0px;stroke-linecap:butt;stroke-linejoin:miter;stroke-miterlimit:10;stroke-opacity:1;"/>
<ellipse cx="79.7" cy="94.3" rx="5.9" ry="5.9" class="atom-0" style="fill:#FFC8C8;fill-rule:evenodd;stroke:#FFC8C8;stroke-width:1.0px;stroke-linecap:butt;stroke-linejoin:miter;stroke-opacity:1"/>
<ellipse cx="90.0" cy="66.6" rx="5.9" ry="5.9" class="atom-1" style="fill:#FFC8C8;fill-rule:evenodd;stroke:#FFC8C8;stroke-width:1.0px;stroke-linecap:butt;stroke-linejoin:miter;stroke-opacity:1"/>
<ellipse cx="119.0" cy="61.7" rx="5.9" ry="5.9" class="atom-2" style="fill:#FFC8C8;fill-rule:evenodd;stroke:#FFC8C8;stroke-width:1.0px;stroke-linecap:butt;stroke-linejoin:miter;stroke-opacity:1"/>
<ellipse cx="129.3" cy="34.0" rx="5.9" ry="5.9" class="atom-3" style="fill:#FFC8C8;fill-rule:evenodd;stroke:#FFC8C8;stroke-width:1.0px;stroke-linecap:butt;stroke-linejoin:miter;stroke-opacity:1"/>
<ellipse cx="110.4" cy="11.3" rx="5.9" ry="5.9" class="atom-4" style="fill:#FFC8C8;fill-rule:evenodd;stroke:#FFC8C8;stroke-width:1.0px;stroke-linecap:butt;stroke-linejoin:miter;stroke-opacity:1"/>
<ellipse cx="81.4" cy="16.3" rx="5.9" ry="5.9" class="atom-5" style="fill:#FFC8C8;fill-rule:evenodd;stroke:#FFC8C8;stroke-width:1.0px;stroke-linecap:butt;stroke-linejoin:miter;stroke-opacity:1"/>
<ellipse cx="71.1" cy="43.9" rx="5.9" ry="5.9" class="atom-6" style="fill:#FFC8C8;fill-rule:evenodd;stroke:#FFC8C8;stroke-width:1.0px;stroke-linecap:butt;stroke-linejoin:miter;stroke-opacity:1"/>
<ellipse cx="42.1" cy="48.9" rx="5.9" ry="5.9" class="atom-7" style="fill:#7878FF;fill-rule:evenodd;stroke:#7878FF;stroke-width:1.0px;stroke-linecap:butt;stroke-linejoin:miter;stroke-opacity:1"/>
<ellipse cx="13.0" cy="53.8" rx="5.9" ry="5.9" class="atom-8" style="fill:#7878FF;fill-rule:evenodd;stroke:#7878FF;stroke-width:1.0px;stroke-linecap:butt;stroke-linejoin:miter;stroke-opacity:1"/>
<ellipse cx="37.1" cy="19.8" rx="5.9" ry="5.9" class="atom-9" style="fill:#7878FF;fill-rule:evenodd;stroke:#7878FF;stroke-width:1.0px;stroke-linecap:butt;stroke-linejoin:miter;stroke-opacity:1"/>
<ellipse cx="47.1" cy="77.9" rx="5.9" ry="5.9" class="atom-10" style="fill:#7878FF;fill-rule:evenodd;stroke:#7878FF;stroke-width:1.0px;stroke-linecap:butt;stroke-linejoin:miter;stroke-opacity:1"/>
<path class="bond-0 atom-0 atom-1" d="M 81.7,89.1 L 90.0,66.6" style="fill:none;fill-rule:evenodd;stroke:#000000;stroke-width:2.0px;stroke-linecap:butt;stroke-linejoin:miter;stroke-opacity:1"/>
<path class="bond-1 atom-1 atom-2" d="M 90.0,66.6 L 119.0,61.7" style="fill:none;fill-rule:evenodd;stroke:#000000;stroke-width:2.0px;stroke-linecap:butt;stroke-linejoin:miter;stroke-opacity:1"/>
<path class="bond-1 atom-1 atom-2" d="M 91.7,61.8 L 115.8,57.7" style="fill:none;fill-rule:evenodd;stroke:#000000;stroke-width:2.0px;stroke-linecap:butt;stroke-linejoin:miter;stroke-opacity:1"/>
<path class="bond-2 atom-2 atom-3" d="M 119.0,61.7 L 129.3,34.0" style="fill:none;fill-rule:evenodd;stroke:#000000;stroke-width:2.0px;stroke-linecap:butt;stroke-linejoin:miter;stroke-opacity:1"/>
<path class="bond-3 atom-3 atom-4" d="M 129.3,34.0 L 110.4,11.3" style="fill:none;fill-rule:evenodd;stroke:#000000;stroke-width:2.0px;stroke-linecap:butt;stroke-linejoin:miter;stroke-opacity:1"/>
<path class="bond-3 atom-3 atom-4" d="M 124.2,34.9 L 108.7,16.1" style="fill:none;fill-rule:evenodd;stroke:#000000;stroke-width:2.0px;stroke-linecap:butt;stroke-linejoin:miter;stroke-opacity:1"/>
<path class="bond-4 atom-4 atom-5" d="M 110.4,11.3 L 81.4,16.3" style="fill:none;fill-rule:evenodd;stroke:#000000;stroke-width:2.0px;stroke-linecap:butt;stroke-linejoin:miter;stroke-opacity:1"/>
<path class="bond-5 atom-5 atom-6" d="M 81.4,16.3 L 71.1,43.9" style="fill:none;fill-rule:evenodd;stroke:#000000;stroke-width:2.0px;stroke-linecap:butt;stroke-linejoin:miter;stroke-opacity:1"/>
<path class="bond-5 atom-5 atom-6" d="M 84.6,20.2 L 76.2,43.1" style="fill:none;fill-rule:evenodd;stroke:#000000;stroke-width:2.0px;stroke-linecap:butt;stroke-linejoin:miter;stroke-opacity:1"/>
<path class="bond-6 atom-6 atom-7" d="M 71.1,43.9 L 42.1,48.9" style="fill:none;fill-rule:evenodd;stroke:#000000;stroke-width:2.0px;stroke-linecap:butt;stroke-linejoin:miter;stroke-opacity:1"/>
<path class="bond-7 atom-7 atom-8" d="M 42.1,48.9 L 16.5,53.3" style="fill:none;fill-rule:evenodd;stroke:#000000;stroke-width:2.0px;stroke-linecap:butt;stroke-linejoin:miter;stroke-opacity:1"/>
<path class="bond-8 atom-7 atom-9" d="M 42.1,48.9 L 38.0,25.0" style="fill:none;fill-rule:evenodd;stroke:#000000;stroke-width:2.0px;stroke-linecap:butt;stroke-linejoin:miter;stroke-opacity:1"/>
<path class="bond-9 atom-7 atom-10" d="M 42.1,48.9 L 46.2,72.8" style="fill:none;fill-rule:evenodd;stroke:#000000;stroke-width:2.0px;stroke-linecap:butt;stroke-linejoin:miter;stroke-opacity:1"/>
<path class="bond-10 atom-6 atom-1" d="M 71.1,43.9 L 90.0,66.6" style="fill:none;fill-rule:evenodd;stroke:#000000;stroke-width:2.0px;stroke-linecap:butt;stroke-linejoin:miter;stroke-opacity:1"/>
<path d="M 117.6,61.9 L 119.0,61.7 L 119.5,60.3" style="fill:none;stroke:#000000;stroke-width:2.0px;stroke-linecap:butt;stroke-linejoin:miter;stroke-miterlimit:10;stroke-opacity:1;"/>
<path d="M 128.7,35.4 L 129.3,34.0 L 128.3,32.9" style="fill:none;stroke:#000000;stroke-width:2.0px;stroke-linecap:butt;stroke-linejoin:miter;stroke-miterlimit:10;stroke-opacity:1;"/>
<path d="M 111.4,12.5 L 110.4,11.3 L 109.0,11.6" style="fill:none;stroke:#000000;stroke-width:2.0px;stroke-linecap:butt;stroke-linejoin:miter;stroke-miterlimit:10;stroke-opacity:1;"/>
<path d="M 82.8,16.1 L 81.4,16.3 L 80.9,17.7" style="fill:none;stroke:#000000;stroke-width:2.0px;stroke-linecap:butt;stroke-linejoin:miter;stroke-miterlimit:10;stroke-opacity:1;"/>
<path class="atom-0" d="M 67.7 90.1 L 68.8 90.1 L 68.8 93.7 L 73.1 93.7 L 73.1 90.1 L 74.2 90.1 L 74.2 98.5 L 73.1 98.5 L 73.1 94.6 L 68.8 94.6 L 68.8 98.5 L 67.7 98.5 L 67.7 90.1 " fill="#000000"/>
<path class="atom-0" d="M 75.9 94.3 Q 75.9 92.3, 76.9 91.2 Q 77.9 90.0, 79.7 90.0 Q 81.6 90.0, 82.6 91.2 Q 83.6 92.3, 83.6 94.3 Q 83.6 96.3, 82.6 97.5 Q 81.6 98.6, 79.7 98.6 Q 77.9 98.6, 76.9 97.5 Q 75.9 96.3, 75.9 94.3 M 79.7 97.7 Q 81.0 97.7, 81.7 96.8 Q 82.4 96.0, 82.4 94.3 Q 82.4 92.6, 81.7 91.8 Q 81.0 91.0, 79.7 91.0 Q 78.5 91.0, 77.8 91.8 Q 77.1 92.6, 77.1 94.3 Q 77.1 96.0, 77.8 96.8 Q 78.5 97.7, 79.7 97.7 " fill="#000000"/>
<path class="atom-8" d="M 10.6 49.7 L 15.5 49.7 L 15.5 50.6 L 11.7 50.6 L 11.7 53.2 L 15.1 53.2 L 15.1 54.1 L 11.7 54.1 L 11.7 58.0 L 10.6 58.0 L 10.6 49.7 " fill="#000000"/>
<path class="atom-9" d="M 34.7 15.7 L 39.6 15.7 L 39.6 16.6 L 35.8 16.6 L 35.8 19.2 L 39.2 19.2 L 39.2 20.1 L 35.8 20.1 L 35.8 24.0 L 34.7 24.0 L 34.7 15.7 " fill="#000000"/>
<path class="atom-10" d="M 44.6 73.8 L 49.5 73.8 L 49.5 74.7 L 45.7 74.7 L 45.7 77.3 L 49.1 77.3 L 49.1 78.2 L 45.7 78.2 L 45.7 82.1 L 44.6 82.1 L 44.6 73.8 " fill="#000000"/>
</svg>