<svg xmlns="http://www.w3.org/2000/svg" xmlns:rdkit="http://www.rdkit.org/xml" xmlns:xlink="http://www.w3.org/1999/xlink" version="1.1" baseProfile="full" xml:space="preserve" width="169px" height="122px" viewBox="0 0 169 122">
<!-- END OF HEADER -->
<rect style="opacity:1.0;fill:#FFFFFF;stroke:none" width="169.0" height="122.0" x="0.0" y="0.0"> </rect>
<ellipse cx="100.3" cy="105.0" rx="10.1" ry="10.1" class="atom-0" style="fill:#FF7F7F;fill-rule:evenodd;stroke:#FF7F7F;stroke-width:1.0px;stroke-linecap:butt;stroke-linejoin:miter;stroke-opacity:1"/>
<ellipse cx="110.5" cy="77.4" rx="10.1" ry="10.1" class="atom-1" style="fill:#FF7F7F;fill-rule:evenodd;stroke:#FF7F7F;stroke-width:1.0px;stroke-linecap:butt;stroke-linejoin:miter;stroke-opacity:1"/>
<ellipse cx="139.5" cy="72.5" rx="10.1" ry="10.1" class="atom-2" style="fill:#FF7F7F;fill-rule:evenodd;stroke:#FF7F7F;stroke-width:1.0px;stroke-linecap:butt;stroke-linejoin:miter;stroke-opacity:1"/>
<ellipse cx="149.7" cy="44.9" rx="10.1" ry="10.1" class="atom-3" style="fill:#FF7F7F;fill-rule:evenodd;stroke:#FF7F7F;stroke-width:1.0px;stroke-linecap:butt;stroke-linejoin:miter;stroke-opacity:1"/>
<ellipse cx="130.9" cy="22.3" rx="10.1" ry="10.1" class="atom-4" style="fill:#FF7F7F;fill-rule:evenodd;stroke:#FF7F7F;stroke-width:1.0px;stroke-linecap:butt;stroke-linejoin:miter;stroke-opacity:1"/>
<ellipse cx="101.9" cy="27.3" rx="10.1" ry="10.1" class="atom-5" style="fill:#FF7F7F;fill-rule:evenodd;stroke:#FF7F7F;stroke-width:1.0px;stroke-linecap:butt;stroke-linejoin:miter;stroke-opacity:1"/>
<ellipse cx="91.7" cy="54.8" rx="10.1" ry="10.1" class="atom-6" style="fill:#FF7F7F;fill-rule:evenodd;stroke:#FF7F7F;stroke-width:1.0px;stroke-linecap:butt;stroke-linejoin:miter;stroke-opacity:1"/>
<ellipse cx="62.8" cy="59.8" rx="24.7" ry="24.7" class="atom-7" style="fill:#7F7FFF;fill-rule:evenodd;stroke:#7F7FFF;stroke-width:1.0px;stroke-linecap:butt;stroke-linejoin:miter;stroke-opacity:1"/>
<ellipse cx="33.8" cy="64.7" rx="24.7" ry="24.7" class="atom-8" style="fill:#7F7FFF;fill-rule:evenodd;stroke:#7F7FFF;stroke-width:1.0px;stroke-linecap:butt;stroke-linejoin:miter;stroke-opacity:1"/>
<ellipse cx="57.8" cy="30.8" rx="24.7" ry="24.7" class="atom-9" style="fill:#7F7FFF;fill-rule:evenodd;stroke:#7F7FFF;stroke-width:1.0px;stroke-linecap:butt;stroke-linejoin:miter;stroke-opacity:1"/>
<ellipse cx="67.7" cy="88.7" rx="24.7" ry="24.7" class="atom-10" style="fill:#7F7FFF;fill-rule:evenodd;stroke:#7F7FFF;stroke-width:1.0px;stroke-linecap:butt;stroke-linejoin:miter;stroke-opacity:1"/>
<path class="bond-0 atom-0 atom-1" d="M 102.2,99.8 L 110.5,77.4" style="fill:none;fill-rule:evenodd;stroke:#000000;stroke-width:2.0px;stroke-linecap:butt;stroke-linejoin:miter;stroke-opacity:1"/>
<path class="bond-1 atom-1 atom-2" d="M 110.5,77.4 L 139.5,72.5" style="fill:none;fill-rule:evenodd;stroke:#000000;stroke-width:2.0px;stroke-linecap:butt;stroke-linejoin:miter;stroke-opacity:1"/>
<path class="bond-1 atom-1 atom-2" d="M 112.3,72.7 L 136.2,68.6" style="fill:none;fill-rule:evenodd;stroke:#000000;stroke-width:2.0px;stroke-linecap:butt;stroke-linejoin:miter;stroke-opacity:1"/>
<path class="bond-2 atom-2 atom-3" d="M 139.5,72.5 L 149.7,44.9" style="fill:none;fill-rule:evenodd;stroke:#000000;stroke-width:2.0px;stroke-linecap:butt;stroke-linejoin:miter;stroke-opacity:1"/>
<path class="bond-3 atom-3 atom-4" d="M 149.7,44.9 L 130.9,22.3" style="fill:none;fill-rule:evenodd;stroke:#000000;stroke-width:2.0px;stroke-linecap:butt;stroke-linejoin:miter;stroke-opacity:1"/>
<path class="bond-3 atom-3 atom-4" d="M 144.6,45.8 L 129.1,27.1" style="fill:none;fill-rule:evenodd;stroke:#000000;stroke-width:2.0px;stroke-linecap:butt;stroke-linejoin:miter;stroke-opacity:1"/>
<path class="bond-4 atom-4 atom-5" d="M 130.9,22.3 L 101.9,27.3" style="fill:none;fill-rule:evenodd;stroke:#000000;stroke-width:2.0px;stroke-linecap:butt;stroke-linejoin:miter;stroke-opacity:1"/>
<path class="bond-5 atom-5 atom-6" d="M 101.9,27.3 L 91.7,54.8" style="fill:none;fill-rule:evenodd;stroke:#000000;stroke-width:2.0px;stroke-linecap:butt;stroke-linejoin:miter;stroke-opacity:1"/>
<path class="bond-5 atom-5 atom-6" d="M 105.2,31.2 L 96.8,54.0" style="fill:none;fill-rule:evenodd;stroke:#000000;stroke-width:2.0px;stroke-linecap:butt;stroke-linejoin:miter;stroke-opacity:1"/>
<path class="bond-6 atom-6 atom-7" d="M 91.7,54.8 L 62.8,59.8" style="fill:none;fill-rule:evenodd;stroke:#000000;stroke-width:2.0px;stroke-linecap:butt;stroke-linejoin:miter;stroke-opacity:1"/>
<path class="bond-7 atom-7 atom-8" d="M 62.8,59.8 L 37.3,64.1" style="fill:none;fill-rule:evenodd;stroke:#000000;stroke-width:2.0px;stroke-linecap:butt;stroke-linejoin:miter;stroke-opacity:1"/>
<path class="bond-8 atom-7 atom-9" d="M 62.8,59.8 L 58.7,35.9" style="fill:none;fill-rule:evenodd;stroke:#000000;stroke-width:2.0px;stroke-linecap:butt;stroke-linejoin:miter;stroke-opacity:1"/>
<path class="bond-9 atom-7 atom-10" d="M 62.8,59.8 L 66.8,83.6" style="fill:none;fill-rule:evenodd;stroke:#000000;stroke-width:2.0px;stroke-linecap:butt;stroke-linejoin:miter;stroke-opacity:1"/>
<path class="bond-10 atom-6 atom-1" d="M 91.7,54.8 L 110.5,77.4" style="fill:none;fill-rule:evenodd;stroke:#000000;stroke-width:2.0px;stroke-linecap:butt;stroke-linejoin:miter;stroke-opacity:1"/>
<path d="M 138.0,72.7 L 139.5,72.5 L 140.0,71.1" style="fill:none;stroke:#000000;stroke-width:2.0px;stroke-linecap:butt;stroke-linejoin:miter;stroke-miterlimit:10;stroke-opacity:1;"/>
<path d="M 149.2,46.3 L 149.7,44.9 L 148.7,43.8" style="fill:none;stroke:#000000;stroke-width:2.0px;stroke-linecap:butt;stroke-linejoin:miter;stroke-miterlimit:10;stroke-opacity:1;"/>
<path d="M 131.8,23.5 L 130.9,22.3 L 129.5,22.6" style="fill:none;stroke:#000000;stroke-width:2.0px;stroke-linecap:butt;stroke-linejoin:miter;stroke-miterlimit:10;stroke-opacity:1;"/>
<path d="M 103.4,27.0 L 101.9,27.3 L 101.4,28.6" style="fill:none;stroke:#000000;stroke-width:2.0px;stroke-linecap:butt;stroke-linejoin:miter;stroke-miterlimit:10;stroke-opacity:1;"/>
<path class="atom-0" d="M 88.3 100.9 L 89.4 100.9 L 89.4 104.4 L 93.6 104.4 L 93.6 100.9 L 94.8 100.9 L 94.8 109.2 L 93.6 109.2 L 93.6 105.3 L 89.4 105.3 L 89.4 109.2 L 88.3 109.2 L 88.3 100.9 " fill="#000000"/>
<path class="atom-0" d="M 96.5 105.0 Q 96.5 103.0, 97.5 101.9 Q 98.5 100.8, 100.3 100.8 Q 102.1 100.8, 103.1 101.9 Q 104.1 103.0, 104.1 105.0 Q 104.1 107.0, 103.1 108.2 Q 102.1 109.3, 100.3 109.3 Q 98.5 109.3, 97.5 108.2 Q 96.5 107.0, 96.5 105.0 M 100.3 108.4 Q 101.6 108.4, 102.2 107.5 Q 102.9 106.7, 102.9 105.0 Q 102.9 103.4, 102.2 102.6 Q 101.6 101.7, 100.3 101.7 Q 99.0 101.7, 98.3 102.5 Q 97.7 103.4, 97.7 105.0 Q 97.7 106.7, 98.3 107.5 Q 99.0 108.4, 100.3 108.4 " fill="#000000"/>
<path class="atom-8" d="M 31.3 60.5 L 36.3 60.5 L 36.3 61.5 L 32.5 61.5 L 32.5 64.0 L 35.9 64.0 L 35.9 65.0 L 32.5 65.0 L 32.5 68.9 L 31.3 68.9 L 31.3 60.5 " fill="#000000"/>
<path class="atom-9" d="M 55.4 26.6 L 60.3 26.6 L 60.3 27.6 L 56.5 27.6 L 56.5 30.1 L 59.9 30.1 L 59.9 31.1 L 56.5 31.1 L 56.5 35.0 L 55.4 35.0 L 55.4 26.6 " fill="#000000"/>
<path class="atom-10" d="M 65.2 84.6 L 70.2 84.6 L 70.2 85.5 L 66.4 85.5 L 66.4 88.0 L 69.8 88.0 L 69.8 89.0 L 66.4 89.0 L 66.4 92.9 L 65.2 92.9 L 65.2 84.6 " fill="#000000"/>
</svg>