<svg xmlns="http://www.w3.org/2000/svg" xmlns:rdkit="http://www.rdkit.org/xml" xmlns:xlink="http://www.w3.org/1999/xlink" version="1.1" baseProfile="full" xml:space="preserve" width="250px" height="88px" viewBox="0 0 250 88">
<!-- END OF HEADER -->
<rect style="opacity:1.0;fill:#FFFFFF;stroke:none" width="250.0" height="88.0" x="0.0" y="0.0"> </rect>
<path class="bond-0 atom-0 atom-1" d="M 28.0,44.0 L 52.0,60.8 L 47.3,67.5 L 23.3,50.7 Z" style="fill:#FF6A6A;fill-rule:evenodd;fill-opacity:1;stroke:#FF6A6A;stroke-width:2.0px;stroke-linecap:butt;stroke-linejoin:miter;stroke-miterlimit:10;stroke-opacity:1;"/>
<path class="bond-1 atom-1 atom-2" d="M 47.9,60.5 L 74.5,48.1 L 78.0,55.5 L 51.4,67.9 Z" style="fill:#FF6A6A;fill-rule:evenodd;fill-opacity:1;stroke:#FF6A6A;stroke-width:2.0px;stroke-linecap:butt;stroke-linejoin:miter;stroke-miterlimit:10;stroke-opacity:1;"/>
<path class="bond-2 atom-2 atom-3" d="M 72.1,51.5 L 74.7,22.3 L 82.9,23.0 L 80.3,52.2 Z" style="fill:#FF6A6A;fill-rule:evenodd;fill-opacity:1;stroke:#FF6A6A;stroke-width:2.0px;stroke-linecap:butt;stroke-linejoin:miter;stroke-miterlimit:10;stroke-opacity:1;"/>
<path class="bond-3 atom-3 atom-4" d="M 77.1,18.9 L 103.6,6.5 L 107.1,14.0 L 80.5,26.3 Z" style="fill:#FF6A6A;fill-rule:evenodd;fill-opacity:1;stroke:#FF6A6A;stroke-width:2.0px;stroke-linecap:butt;stroke-linejoin:miter;stroke-miterlimit:10;stroke-opacity:1;"/>
<path class="bond-4 atom-4 atom-5" d="M 107.7,6.9 L 131.7,23.7 L 127.0,30.4 L 103.0,13.6 Z" style="fill:#FF6A6A;fill-rule:evenodd;fill-opacity:1;stroke:#FF6A6A;stroke-width:2.0px;stroke-linecap:butt;stroke-linejoin:miter;stroke-miterlimit:10;stroke-opacity:1;"/>
<path class="bond-7 atom-7 atom-8" d="M 184.0,31.9 L 181.4,61.1 L 173.3,60.4 L 175.8,31.2 Z" style="fill:#FFE4E4;fill-rule:evenodd;fill-opacity:1;stroke:#FFE4E4;stroke-width:2.0px;stroke-linecap:butt;stroke-linejoin:miter;stroke-miterlimit:10;stroke-opacity:1;"/>
<path class="bond-8 atom-8 atom-9" d="M 179.7,57.4 L 203.7,74.2 L 199.0,80.9 L 175.0,64.1 Z" style="fill:#FFE4E4;fill-rule:evenodd;fill-opacity:1;stroke:#FFE4E4;stroke-width:2.0px;stroke-linecap:butt;stroke-linejoin:miter;stroke-miterlimit:10;stroke-opacity:1;"/>
<path class="bond-9 atom-9 atom-10" d="M 199.6,73.8 L 226.2,61.5 L 229.6,68.9 L 203.1,81.3 Z" style="fill:#FFE4E4;fill-rule:evenodd;fill-opacity:1;stroke:#FFE4E4;stroke-width:2.0px;stroke-linecap:butt;stroke-linejoin:miter;stroke-miterlimit:10;stroke-opacity:1;"/>
<path class="bond-10 atom-10 atom-11" d="M 223.8,64.8 L 226.4,35.6 L 234.5,36.3 L 232.0,65.5 Z" style="fill:#FFE4E4;fill-rule:evenodd;fill-opacity:1;stroke:#FFE4E4;stroke-width:2.0px;stroke-linecap:butt;stroke-linejoin:miter;stroke-miterlimit:10;stroke-opacity:1;"/>
<path class="bond-11 atom-11 atom-12" d="M 228.1,39.3 L 204.1,22.5 L 208.8,15.8 L 232.8,32.6 Z" style="fill:#FFE4E4;fill-rule:evenodd;fill-opacity:1;stroke:#FFE4E4;stroke-width:2.0px;stroke-linecap:butt;stroke-linejoin:miter;stroke-miterlimit:10;stroke-opacity:1;"/>
<path class="bond-12 atom-5 atom-13" d="M 133.4,27.4 L 130.9,56.6 L 122.7,55.9 L 125.3,26.7 Z" style="fill:#FF6A6A;fill-rule:evenodd;fill-opacity:1;stroke:#FF6A6A;stroke-width:2.0px;stroke-linecap:butt;stroke-linejoin:miter;stroke-miterlimit:10;stroke-opacity:1;"/>
<path class="bond-13 atom-13 atom-14" d="M 128.5,60.0 L 102.0,72.4 L 98.5,64.9 L 125.1,52.5 Z" style="fill:#FF6A6A;fill-rule:evenodd;fill-opacity:1;stroke:#FF6A6A;stroke-width:2.0px;stroke-linecap:butt;stroke-linejoin:miter;stroke-miterlimit:10;stroke-opacity:1;"/>
<path class="bond-14 atom-14 atom-2" d="M 97.9,72.0 L 73.9,55.2 L 78.6,48.5 L 102.6,65.3 Z" style="fill:#FF6A6A;fill-rule:evenodd;fill-opacity:1;stroke:#FF6A6A;stroke-width:2.0px;stroke-linecap:butt;stroke-linejoin:miter;stroke-miterlimit:10;stroke-opacity:1;"/>
<path class="bond-15 atom-12 atom-7" d="M 208.2,22.9 L 181.6,35.3 L 178.2,27.8 L 204.7,15.4 Z" style="fill:#FFE4E4;fill-rule:evenodd;fill-opacity:1;stroke:#FFE4E4;stroke-width:2.0px;stroke-linecap:butt;stroke-linejoin:miter;stroke-miterlimit:10;stroke-opacity:1;"/>
<ellipse cx="25.7" cy="47.4" rx="5.9" ry="5.9" class="atom-0" style="fill:#FF6A6A;fill-rule:evenodd;stroke:#FF6A6A;stroke-width:1.0px;stroke-linecap:butt;stroke-linejoin:miter;stroke-opacity:1"/>
<ellipse cx="49.7" cy="64.2" rx="5.9" ry="5.9" class="atom-1" style="fill:#FF6A6A;fill-rule:evenodd;stroke:#FF6A6A;stroke-width:1.0px;stroke-linecap:butt;stroke-linejoin:miter;stroke-opacity:1"/>
<ellipse cx="76.2" cy="51.8" rx="5.9" ry="5.9" class="atom-2" style="fill:#FF6A6A;fill-rule:evenodd;stroke:#FF6A6A;stroke-width:1.0px;stroke-linecap:butt;stroke-linejoin:miter;stroke-opacity:1"/>
<ellipse cx="78.8" cy="22.6" rx="5.9" ry="5.9" class="atom-3" style="fill:#FF6A6A;fill-rule:evenodd;stroke:#FF6A6A;stroke-width:1.0px;stroke-linecap:butt;stroke-linejoin:miter;stroke-opacity:1"/>
<ellipse cx="105.4" cy="10.3" rx="5.9" ry="5.9" class="atom-4" style="fill:#FF6A6A;fill-rule:evenodd;stroke:#FF6A6A;stroke-width:1.0px;stroke-linecap:butt;stroke-linejoin:miter;stroke-opacity:1"/>
<ellipse cx="129.4" cy="27.1" rx="5.9" ry="5.9" class="atom-5" style="fill:#FF6A6A;fill-rule:evenodd;stroke:#FF6A6A;stroke-width:1.0px;stroke-linecap:butt;stroke-linejoin:miter;stroke-opacity:1"/>
<ellipse cx="155.9" cy="14.7" rx="5.9" ry="5.9" class="atom-6" style="fill:#FFEEEE;fill-rule:evenodd;stroke:#FFEEEE;stroke-width:1.0px;stroke-linecap:butt;stroke-linejoin:miter;stroke-opacity:1"/>
<ellipse cx="179.9" cy="31.5" rx="5.9" ry="5.9" class="atom-7" style="fill:#FFE4E4;fill-rule:evenodd;stroke:#FFE4E4;stroke-width:1.0px;stroke-linecap:butt;stroke-linejoin:miter;stroke-opacity:1"/>
<ellipse cx="177.3" cy="60.7" rx="5.9" ry="5.9" class="atom-8" style="fill:#FFE4E4;fill-rule:evenodd;stroke:#FFE4E4;stroke-width:1.0px;stroke-linecap:butt;stroke-linejoin:miter;stroke-opacity:1"/>
<ellipse cx="201.3" cy="77.5" rx="5.9" ry="5.9" class="atom-9" style="fill:#FFE4E4;fill-rule:evenodd;stroke:#FFE4E4;stroke-width:1.0px;stroke-linecap:butt;stroke-linejoin:miter;stroke-opacity:1"/>
<ellipse cx="227.9" cy="65.2" rx="5.9" ry="5.9" class="atom-10" style="fill:#FFE4E4;fill-rule:evenodd;stroke:#FFE4E4;stroke-width:1.0px;stroke-linecap:butt;stroke-linejoin:miter;stroke-opacity:1"/>
<ellipse cx="230.5" cy="36.0" rx="5.9" ry="5.9" class="atom-11" style="fill:#FFE4E4;fill-rule:evenodd;stroke:#FFE4E4;stroke-width:1.0px;stroke-linecap:butt;stroke-linejoin:miter;stroke-opacity:1"/>
<ellipse cx="206.5" cy="19.2" rx="5.9" ry="5.9" class="atom-12" style="fill:#FFE4E4;fill-rule:evenodd;stroke:#FFE4E4;stroke-width:1.0px;stroke-linecap:butt;stroke-linejoin:miter;stroke-opacity:1"/>
<ellipse cx="126.8" cy="56.3" rx="5.9" ry="5.9" class="atom-13" style="fill:#FF6A6A;fill-rule:evenodd;stroke:#FF6A6A;stroke-width:1.0px;stroke-linecap:butt;stroke-linejoin:miter;stroke-opacity:1"/>
<ellipse cx="100.2" cy="68.6" rx="5.9" ry="5.9" class="atom-14" style="fill:#FF6A6A;fill-rule:evenodd;stroke:#FF6A6A;stroke-width:1.0px;stroke-linecap:butt;stroke-linejoin:miter;stroke-opacity:1"/>
<path class="bond-0 atom-0 atom-1" d="M 30.5,50.7 L 45.6,61.3" style="fill:none;fill-rule:evenodd;stroke:#000000;stroke-width:2.0px;stroke-linecap:butt;stroke-linejoin:miter;stroke-opacity:1"/>
<path class="bond-1 atom-1 atom-2" d="M 53.8,62.3 L 76.2,51.8" style="fill:none;fill-rule:evenodd;stroke:#000000;stroke-width:2.0px;stroke-linecap:butt;stroke-linejoin:miter;stroke-opacity:1"/>
<path class="bond-2 atom-2 atom-3" d="M 76.2,51.8 L 78.8,22.6" style="fill:none;fill-rule:evenodd;stroke:#000000;stroke-width:2.0px;stroke-linecap:butt;stroke-linejoin:miter;stroke-opacity:1"/>
<path class="bond-2 atom-2 atom-3" d="M 80.8,49.7 L 83.0,25.5" style="fill:none;fill-rule:evenodd;stroke:#000000;stroke-width:2.0px;stroke-linecap:butt;stroke-linejoin:miter;stroke-opacity:1"/>
<path class="bond-3 atom-3 atom-4" d="M 78.8,22.6 L 105.4,10.3" style="fill:none;fill-rule:evenodd;stroke:#000000;stroke-width:2.0px;stroke-linecap:butt;stroke-linejoin:miter;stroke-opacity:1"/>
<path class="bond-4 atom-4 atom-5" d="M 105.4,10.3 L 129.4,27.1" style="fill:none;fill-rule:evenodd;stroke:#000000;stroke-width:2.0px;stroke-linecap:butt;stroke-linejoin:miter;stroke-opacity:1"/>
<path class="bond-4 atom-4 atom-5" d="M 104.9,15.3 L 124.8,29.2" style="fill:none;fill-rule:evenodd;stroke:#000000;stroke-width:2.0px;stroke-linecap:butt;stroke-linejoin:miter;stroke-opacity:1"/>
<path class="bond-5 atom-5 atom-6" d="M 129.4,27.1 L 152.3,16.4" style="fill:none;fill-rule:evenodd;stroke:#000000;stroke-width:2.0px;stroke-linecap:butt;stroke-linejoin:miter;stroke-opacity:1"/>
<path class="bond-6 atom-6 atom-7" d="M 159.5,17.3 L 179.9,31.5" style="fill:none;fill-rule:evenodd;stroke:#000000;stroke-width:2.0px;stroke-linecap:butt;stroke-linejoin:miter;stroke-opacity:1"/>
<path class="bond-7 atom-7 atom-8" d="M 179.9,31.5 L 177.3,60.7" style="fill:none;fill-rule:evenodd;stroke:#000000;stroke-width:2.0px;stroke-linecap:butt;stroke-linejoin:miter;stroke-opacity:1"/>
<path class="bond-7 atom-7 atom-8" d="M 184.1,34.4 L 181.9,58.6" style="fill:none;fill-rule:evenodd;stroke:#000000;stroke-width:2.0px;stroke-linecap:butt;stroke-linejoin:miter;stroke-opacity:1"/>
<path class="bond-8 atom-8 atom-9" d="M 177.3,60.7 L 201.3,77.5" style="fill:none;fill-rule:evenodd;stroke:#000000;stroke-width:2.0px;stroke-linecap:butt;stroke-linejoin:miter;stroke-opacity:1"/>
<path class="bond-9 atom-9 atom-10" d="M 201.3,77.5 L 227.9,65.2" style="fill:none;fill-rule:evenodd;stroke:#000000;stroke-width:2.0px;stroke-linecap:butt;stroke-linejoin:miter;stroke-opacity:1"/>
<path class="bond-9 atom-9 atom-10" d="M 201.8,72.5 L 223.7,62.3" style="fill:none;fill-rule:evenodd;stroke:#000000;stroke-width:2.0px;stroke-linecap:butt;stroke-linejoin:miter;stroke-opacity:1"/>
<path class="bond-10 atom-10 atom-11" d="M 227.9,65.2 L 230.5,36.0" style="fill:none;fill-rule:evenodd;stroke:#000000;stroke-width:2.0px;stroke-linecap:butt;stroke-linejoin:miter;stroke-opacity:1"/>
<path class="bond-11 atom-11 atom-12" d="M 230.5,36.0 L 206.5,19.2" style="fill:none;fill-rule:evenodd;stroke:#000000;stroke-width:2.0px;stroke-linecap:butt;stroke-linejoin:miter;stroke-opacity:1"/>
<path class="bond-11 atom-11 atom-12" d="M 225.9,38.1 L 206.0,24.2" style="fill:none;fill-rule:evenodd;stroke:#000000;stroke-width:2.0px;stroke-linecap:butt;stroke-linejoin:miter;stroke-opacity:1"/>
<path class="bond-12 atom-5 atom-13" d="M 129.4,27.1 L 126.8,56.3" style="fill:none;fill-rule:evenodd;stroke:#000000;stroke-width:2.0px;stroke-linecap:butt;stroke-linejoin:miter;stroke-opacity:1"/>
<path class="bond-13 atom-13 atom-14" d="M 126.8,56.3 L 100.2,68.6" style="fill:none;fill-rule:evenodd;stroke:#000000;stroke-width:2.0px;stroke-linecap:butt;stroke-linejoin:miter;stroke-opacity:1"/>
<path class="bond-13 atom-13 atom-14" d="M 122.6,53.4 L 100.7,63.6" style="fill:none;fill-rule:evenodd;stroke:#000000;stroke-width:2.0px;stroke-linecap:butt;stroke-linejoin:miter;stroke-opacity:1"/>
<path class="bond-14 atom-14 atom-2" d="M 100.2,68.6 L 76.2,51.8" style="fill:none;fill-rule:evenodd;stroke:#000000;stroke-width:2.0px;stroke-linecap:butt;stroke-linejoin:miter;stroke-opacity:1"/>
<path class="bond-15 atom-12 atom-7" d="M 206.5,19.2 L 179.9,31.5" style="fill:none;fill-rule:evenodd;stroke:#000000;stroke-width:2.0px;stroke-linecap:butt;stroke-linejoin:miter;stroke-opacity:1"/>
<path d="M 78.7,24.1 L 78.8,22.6 L 80.1,22.0" style="fill:none;stroke:#000000;stroke-width:2.0px;stroke-linecap:butt;stroke-linejoin:miter;stroke-miterlimit:10;stroke-opacity:1;"/>
<path d="M 104.0,10.9 L 105.4,10.3 L 106.6,11.1" style="fill:none;stroke:#000000;stroke-width:2.0px;stroke-linecap:butt;stroke-linejoin:miter;stroke-miterlimit:10;stroke-opacity:1;"/>
<path d="M 177.5,59.3 L 177.3,60.7 L 178.5,61.6" style="fill:none;stroke:#000000;stroke-width:2.0px;stroke-linecap:butt;stroke-linejoin:miter;stroke-miterlimit:10;stroke-opacity:1;"/>
<path d="M 200.1,76.7 L 201.3,77.5 L 202.7,76.9" style="fill:none;stroke:#000000;stroke-width:2.0px;stroke-linecap:butt;stroke-linejoin:miter;stroke-miterlimit:10;stroke-opacity:1;"/>
<path d="M 226.6,65.8 L 227.9,65.2 L 228.0,63.7" style="fill:none;stroke:#000000;stroke-width:2.0px;stroke-linecap:butt;stroke-linejoin:miter;stroke-miterlimit:10;stroke-opacity:1;"/>
<path d="M 230.3,37.4 L 230.5,36.0 L 229.3,35.1" style="fill:none;stroke:#000000;stroke-width:2.0px;stroke-linecap:butt;stroke-linejoin:miter;stroke-miterlimit:10;stroke-opacity:1;"/>
<path d="M 207.7,20.0 L 206.5,19.2 L 205.1,19.8" style="fill:none;stroke:#000000;stroke-width:2.0px;stroke-linecap:butt;stroke-linejoin:miter;stroke-miterlimit:10;stroke-opacity:1;"/>
<path d="M 126.9,54.8 L 126.8,56.3 L 125.5,56.9" style="fill:none;stroke:#000000;stroke-width:2.0px;stroke-linecap:butt;stroke-linejoin:miter;stroke-miterlimit:10;stroke-opacity:1;"/>
<path d="M 101.6,68.0 L 100.2,68.6 L 99.0,67.8" style="fill:none;stroke:#000000;stroke-width:2.0px;stroke-linecap:butt;stroke-linejoin:miter;stroke-miterlimit:10;stroke-opacity:1;"/>
<path class="atom-0" d="M 13.7 43.3 L 14.8 43.3 L 14.8 46.8 L 19.0 46.8 L 19.0 43.3 L 20.2 43.3 L 20.2 51.6 L 19.0 51.6 L 19.0 47.7 L 14.8 47.7 L 14.8 51.6 L 13.7 51.6 L 13.7 43.3 " fill="#000000"/>
<path class="atom-0" d="M 21.9 47.4 Q 21.9 45.4, 22.9 44.3 Q 23.8 43.2, 25.7 43.2 Q 27.5 43.2, 28.5 44.3 Q 29.5 45.4, 29.5 47.4 Q 29.5 49.4, 28.5 50.5 Q 27.5 51.7, 25.7 51.7 Q 23.9 51.7, 22.9 50.5 Q 21.9 49.4, 21.9 47.4 M 25.7 50.7 Q 26.9 50.7, 27.6 49.9 Q 28.3 49.0, 28.3 47.4 Q 28.3 45.8, 27.6 44.9 Q 26.9 44.1, 25.7 44.1 Q 24.4 44.1, 23.7 44.9 Q 23.0 45.7, 23.0 47.4 Q 23.0 49.1, 23.7 49.9 Q 24.4 50.7, 25.7 50.7 " fill="#000000"/>
<path class="atom-1" d="M 47.8 60.0 L 50.6 64.4 Q 50.8 64.9, 51.3 65.6 Q 51.7 66.4, 51.7 66.5 L 51.7 60.0 L 52.8 60.0 L 52.8 68.3 L 51.7 68.3 L 48.8 63.5 Q 48.4 63.0, 48.1 62.3 Q 47.7 61.7, 47.6 61.5 L 47.6 68.3 L 46.5 68.3 L 46.5 60.0 L 47.8 60.0 " fill="#000000"/>
<path class="atom-1" d="M 46.4 69.2 L 47.6 69.2 L 47.6 72.7 L 51.8 72.7 L 51.8 69.2 L 52.9 69.2 L 52.9 77.5 L 51.8 77.5 L 51.8 73.6 L 47.6 73.6 L 47.6 77.5 L 46.4 77.5 L 46.4 69.2 " fill="#000000"/>
<path class="atom-6" d="M 153.6 17.6 Q 153.7 17.6, 154.1 17.8 Q 154.4 17.9, 154.9 18.0 Q 155.3 18.1, 155.7 18.1 Q 156.5 18.1, 157.0 17.7 Q 157.4 17.4, 157.4 16.7 Q 157.4 16.2, 157.2 16.0 Q 157.0 15.7, 156.6 15.5 Q 156.3 15.4, 155.7 15.2 Q 154.9 15.0, 154.5 14.8 Q 154.1 14.5, 153.7 14.1 Q 153.4 13.7, 153.4 12.9 Q 153.4 11.9, 154.1 11.2 Q 154.9 10.6, 156.3 10.6 Q 157.2 10.6, 158.3 11.0 L 158.0 11.9 Q 157.0 11.5, 156.3 11.5 Q 155.5 11.5, 155.0 11.9 Q 154.6 12.2, 154.6 12.8 Q 154.6 13.2, 154.8 13.5 Q 155.1 13.8, 155.4 13.9 Q 155.7 14.1, 156.3 14.2 Q 157.0 14.5, 157.5 14.7 Q 157.9 14.9, 158.3 15.4 Q 158.6 15.9, 158.6 16.7 Q 158.6 17.8, 157.8 18.5 Q 157.0 19.1, 155.8 19.1 Q 155.0 19.1, 154.5 18.9 Q 153.9 18.8, 153.3 18.5 L 153.6 17.6 " fill="#000000"/>
</svg>