<svg xmlns="http://www.w3.org/2000/svg" xmlns:rdkit="http://www.rdkit.org/xml" xmlns:xlink="http://www.w3.org/1999/xlink" version="1.1" baseProfile="full" xml:space="preserve" width="281px" height="99px" viewBox="0 0 281 99">
<!-- END OF HEADER -->
<rect style="opacity:1.0;fill:#FFFFFF;stroke:none" width="281.0" height="99.0" x="0.0" y="0.0"> </rect>
<path class="bond-0 atom-0 atom-1" d="M 18.4,39.4 L 45.5,27.8 L 48.7,35.3 L 21.7,47.0 Z" style="fill:#FFF6F6;fill-rule:evenodd;fill-opacity:1;stroke:#FFF6F6;stroke-width:2.0px;stroke-linecap:butt;stroke-linejoin:miter;stroke-miterlimit:10;stroke-opacity:1;"/>
<path class="bond-2 atom-2 atom-3" d="M 74.9,49.2 L 74.5,78.7 L 66.3,78.6 L 66.6,49.1 Z" style="fill:#FFD8D8;fill-rule:evenodd;fill-opacity:1;stroke:#FFD8D8;stroke-width:2.0px;stroke-linecap:butt;stroke-linejoin:miter;stroke-miterlimit:10;stroke-opacity:1;"/>
<path class="bond-3 atom-3 atom-4" d="M 71.7,74.7 L 99.6,84.1 L 97.0,92.0 L 69.1,82.5 Z" style="fill:#FFD8D8;fill-rule:evenodd;fill-opacity:1;stroke:#FFD8D8;stroke-width:2.0px;stroke-linecap:butt;stroke-linejoin:miter;stroke-miterlimit:10;stroke-opacity:1;"/>
<path class="bond-4 atom-4 atom-5" d="M 95.0,85.6 L 112.6,61.9 L 119.2,66.9 L 101.6,90.5 Z" style="fill:#FFD8D8;fill-rule:evenodd;fill-opacity:1;stroke:#FFD8D8;stroke-width:2.0px;stroke-linecap:butt;stroke-linejoin:miter;stroke-miterlimit:10;stroke-opacity:1;"/>
<path class="bond-5 atom-5 atom-6" d="M 115.5,60.3 L 144.9,57.6 L 145.6,65.8 L 116.3,68.5 Z" style="fill:#FFD8D8;fill-rule:evenodd;fill-opacity:1;stroke:#FFD8D8;stroke-width:2.0px;stroke-linecap:butt;stroke-linejoin:miter;stroke-miterlimit:10;stroke-opacity:1;"/>
<path class="bond-6 atom-6 atom-7" d="M 141.5,60.0 L 153.8,33.2 L 161.3,36.6 L 149.0,63.4 Z" style="fill:#FFD8D8;fill-rule:evenodd;fill-opacity:1;stroke:#FFD8D8;stroke-width:2.0px;stroke-linecap:butt;stroke-linejoin:miter;stroke-miterlimit:10;stroke-opacity:1;"/>
<path class="bond-10 atom-10 atom-11" d="M 230.9,50.1 L 254.9,33.0 L 259.7,39.8 L 235.7,56.8 Z" style="fill:#FF4848;fill-rule:evenodd;fill-opacity:1;stroke:#FF4848;stroke-width:2.0px;stroke-linecap:butt;stroke-linejoin:miter;stroke-miterlimit:10;stroke-opacity:1;"/>
<path class="bond-11 atom-11 atom-12" d="M 261.4,36.0 L 264.2,65.4 L 256.0,66.1 L 253.2,36.8 Z" style="fill:#FF4848;fill-rule:evenodd;fill-opacity:1;stroke:#FF4848;stroke-width:2.0px;stroke-linecap:butt;stroke-linejoin:miter;stroke-miterlimit:10;stroke-opacity:1;"/>
<path class="bond-12 atom-7 atom-13" d="M 154.2,37.3 L 137.1,13.2 L 143.9,8.5 L 160.9,32.5 Z" style="fill:#FFD8D8;fill-rule:evenodd;fill-opacity:1;stroke:#FFD8D8;stroke-width:2.0px;stroke-linecap:butt;stroke-linejoin:miter;stroke-miterlimit:10;stroke-opacity:1;"/>
<path class="bond-13 atom-13 atom-14" d="M 140.9,15.0 L 111.5,17.7 L 110.8,9.5 L 140.1,6.7 Z" style="fill:#FFD8D8;fill-rule:evenodd;fill-opacity:1;stroke:#FFD8D8;stroke-width:2.0px;stroke-linecap:butt;stroke-linejoin:miter;stroke-miterlimit:10;stroke-opacity:1;"/>
<path class="bond-14 atom-14 atom-15" d="M 114.9,15.3 L 102.6,42.1 L 95.1,38.6 L 107.4,11.9 Z" style="fill:#FFD8D8;fill-rule:evenodd;fill-opacity:1;stroke:#FFD8D8;stroke-width:2.0px;stroke-linecap:butt;stroke-linejoin:miter;stroke-miterlimit:10;stroke-opacity:1;"/>
<path class="bond-15 atom-15 atom-2" d="M 100.1,44.3 L 72.0,53.1 L 69.5,45.2 L 97.6,36.4 Z" style="fill:#FFD8D8;fill-rule:evenodd;fill-opacity:1;stroke:#FFD8D8;stroke-width:2.0px;stroke-linecap:butt;stroke-linejoin:miter;stroke-miterlimit:10;stroke-opacity:1;"/>
<path class="bond-16 atom-15 atom-5" d="M 102.2,38.0 L 119.3,62.0 L 112.5,66.8 L 95.5,42.8 Z" style="fill:#FFD8D8;fill-rule:evenodd;fill-opacity:1;stroke:#FFD8D8;stroke-width:2.0px;stroke-linecap:butt;stroke-linejoin:miter;stroke-miterlimit:10;stroke-opacity:1;"/>
<path class="bond-17 atom-12 atom-10" d="M 258.4,69.5 L 231.6,57.2 L 235.0,49.7 L 261.8,62.0 Z" style="fill:#FF4848;fill-rule:evenodd;fill-opacity:1;stroke:#FF4848;stroke-width:2.0px;stroke-linecap:butt;stroke-linejoin:miter;stroke-miterlimit:10;stroke-opacity:1;"/>
<ellipse cx="20.0" cy="43.2" rx="5.9" ry="5.9" class="atom-0" style="fill:#FFF6F6;fill-rule:evenodd;stroke:#FFF6F6;stroke-width:1.0px;stroke-linecap:butt;stroke-linejoin:miter;stroke-opacity:1"/>
<ellipse cx="47.1" cy="31.6" rx="5.9" ry="5.9" class="atom-1" style="fill:#FFF6F6;fill-rule:evenodd;stroke:#FFF6F6;stroke-width:1.0px;stroke-linecap:butt;stroke-linejoin:miter;stroke-opacity:1"/>
<ellipse cx="70.7" cy="49.2" rx="5.9" ry="5.9" class="atom-2" style="fill:#FFD8D8;fill-rule:evenodd;stroke:#FFD8D8;stroke-width:1.0px;stroke-linecap:butt;stroke-linejoin:miter;stroke-opacity:1"/>
<ellipse cx="70.4" cy="78.6" rx="5.9" ry="5.9" class="atom-3" style="fill:#FFD8D8;fill-rule:evenodd;stroke:#FFD8D8;stroke-width:1.0px;stroke-linecap:butt;stroke-linejoin:miter;stroke-opacity:1"/>
<ellipse cx="98.3" cy="88.1" rx="5.9" ry="5.9" class="atom-4" style="fill:#FFD8D8;fill-rule:evenodd;stroke:#FFD8D8;stroke-width:1.0px;stroke-linecap:butt;stroke-linejoin:miter;stroke-opacity:1"/>
<ellipse cx="115.9" cy="64.4" rx="5.9" ry="5.9" class="atom-5" style="fill:#FFD8D8;fill-rule:evenodd;stroke:#FFD8D8;stroke-width:1.0px;stroke-linecap:butt;stroke-linejoin:miter;stroke-opacity:1"/>
<ellipse cx="145.3" cy="61.7" rx="5.9" ry="5.9" class="atom-6" style="fill:#FFD8D8;fill-rule:evenodd;stroke:#FFD8D8;stroke-width:1.0px;stroke-linecap:butt;stroke-linejoin:miter;stroke-opacity:1"/>
<ellipse cx="157.6" cy="34.9" rx="5.9" ry="5.9" class="atom-7" style="fill:#FFD8D8;fill-rule:evenodd;stroke:#FFD8D8;stroke-width:1.0px;stroke-linecap:butt;stroke-linejoin:miter;stroke-opacity:1"/>
<ellipse cx="186.9" cy="32.1" rx="5.9" ry="5.9" class="atom-8" style="fill:#FFFEFE;fill-rule:evenodd;stroke:#FFFEFE;stroke-width:1.0px;stroke-linecap:butt;stroke-linejoin:miter;stroke-opacity:1"/>
<ellipse cx="203.9" cy="56.2" rx="5.9" ry="5.9" class="atom-9" style="fill:#FFE6E6;fill-rule:evenodd;stroke:#FFE6E6;stroke-width:1.0px;stroke-linecap:butt;stroke-linejoin:miter;stroke-opacity:1"/>
<ellipse cx="233.3" cy="53.4" rx="5.9" ry="5.9" class="atom-10" style="fill:#FF4848;fill-rule:evenodd;stroke:#FF4848;stroke-width:1.0px;stroke-linecap:butt;stroke-linejoin:miter;stroke-opacity:1"/>
<ellipse cx="257.3" cy="36.4" rx="5.9" ry="5.9" class="atom-11" style="fill:#FF4848;fill-rule:evenodd;stroke:#FF4848;stroke-width:1.0px;stroke-linecap:butt;stroke-linejoin:miter;stroke-opacity:1"/>
<ellipse cx="260.1" cy="65.7" rx="5.9" ry="5.9" class="atom-12" style="fill:#FF4848;fill-rule:evenodd;stroke:#FF4848;stroke-width:1.0px;stroke-linecap:butt;stroke-linejoin:miter;stroke-opacity:1"/>
<ellipse cx="140.5" cy="10.8" rx="5.9" ry="5.9" class="atom-13" style="fill:#FFD8D8;fill-rule:evenodd;stroke:#FFD8D8;stroke-width:1.0px;stroke-linecap:butt;stroke-linejoin:miter;stroke-opacity:1"/>
<ellipse cx="111.2" cy="13.6" rx="5.9" ry="5.9" class="atom-14" style="fill:#FFD8D8;fill-rule:evenodd;stroke:#FFD8D8;stroke-width:1.0px;stroke-linecap:butt;stroke-linejoin:miter;stroke-opacity:1"/>
<ellipse cx="98.9" cy="40.4" rx="5.9" ry="5.9" class="atom-15" style="fill:#FFD8D8;fill-rule:evenodd;stroke:#FFD8D8;stroke-width:1.0px;stroke-linecap:butt;stroke-linejoin:miter;stroke-opacity:1"/>
<path class="bond-0 atom-0 atom-1" d="M 20.0,43.2 L 42.3,33.6" style="fill:none;fill-rule:evenodd;stroke:#000000;stroke-width:2.0px;stroke-linecap:butt;stroke-linejoin:miter;stroke-opacity:1"/>
<path class="bond-1 atom-1 atom-2" d="M 51.9,35.1 L 70.7,49.2" style="fill:none;fill-rule:evenodd;stroke:#000000;stroke-width:2.0px;stroke-linecap:butt;stroke-linejoin:miter;stroke-opacity:1"/>
<path class="bond-2 atom-2 atom-3" d="M 70.7,49.2 L 70.4,73.5" style="fill:none;fill-rule:evenodd;stroke:#000000;stroke-width:2.0px;stroke-linecap:butt;stroke-linejoin:miter;stroke-opacity:1"/>
<path class="bond-2 atom-2 atom-3" d="M 75.1,52.4 L 74.9,73.5" style="fill:none;fill-rule:evenodd;stroke:#000000;stroke-width:2.0px;stroke-linecap:butt;stroke-linejoin:miter;stroke-opacity:1"/>
<path class="bond-3 atom-3 atom-4" d="M 74.5,80.0 L 94.7,86.8" style="fill:none;fill-rule:evenodd;stroke:#000000;stroke-width:2.0px;stroke-linecap:butt;stroke-linejoin:miter;stroke-opacity:1"/>
<path class="bond-4 atom-4 atom-5" d="M 102.0,83.2 L 115.9,64.4" style="fill:none;fill-rule:evenodd;stroke:#000000;stroke-width:2.0px;stroke-linecap:butt;stroke-linejoin:miter;stroke-opacity:1"/>
<path class="bond-5 atom-5 atom-6" d="M 115.9,64.4 L 145.3,61.7" style="fill:none;fill-rule:evenodd;stroke:#000000;stroke-width:2.0px;stroke-linecap:butt;stroke-linejoin:miter;stroke-opacity:1"/>
<path class="bond-5 atom-5 atom-6" d="M 118.0,59.8 L 142.3,57.5" style="fill:none;fill-rule:evenodd;stroke:#000000;stroke-width:2.0px;stroke-linecap:butt;stroke-linejoin:miter;stroke-opacity:1"/>
<path class="bond-6 atom-6 atom-7" d="M 145.3,61.7 L 157.6,34.9" style="fill:none;fill-rule:evenodd;stroke:#000000;stroke-width:2.0px;stroke-linecap:butt;stroke-linejoin:miter;stroke-opacity:1"/>
<path class="bond-7 atom-7 atom-8" d="M 157.6,34.9 L 182.1,32.6" style="fill:none;fill-rule:evenodd;stroke:#000000;stroke-width:2.0px;stroke-linecap:butt;stroke-linejoin:miter;stroke-opacity:1"/>
<path class="bond-8 atom-8 atom-9" d="M 190.7,37.5 L 203.9,56.2" style="fill:none;fill-rule:evenodd;stroke:#000000;stroke-width:2.0px;stroke-linecap:butt;stroke-linejoin:miter;stroke-opacity:1"/>
<path class="bond-9 atom-9 atom-10" d="M 203.9,56.2 L 233.3,53.4" style="fill:none;fill-rule:evenodd;stroke:#000000;stroke-width:2.0px;stroke-linecap:butt;stroke-linejoin:miter;stroke-opacity:1"/>
<path class="bond-10 atom-10 atom-11" d="M 233.3,53.4 L 257.3,36.4" style="fill:none;fill-rule:evenodd;stroke:#000000;stroke-width:2.0px;stroke-linecap:butt;stroke-linejoin:miter;stroke-opacity:1"/>
<path class="bond-11 atom-11 atom-12" d="M 257.3,36.4 L 259.6,60.6" style="fill:none;fill-rule:evenodd;stroke:#000000;stroke-width:2.0px;stroke-linecap:butt;stroke-linejoin:miter;stroke-opacity:1"/>
<path class="bond-12 atom-7 atom-13" d="M 157.6,34.9 L 140.5,10.8" style="fill:none;fill-rule:evenodd;stroke:#000000;stroke-width:2.0px;stroke-linecap:butt;stroke-linejoin:miter;stroke-opacity:1"/>
<path class="bond-12 atom-7 atom-13" d="M 152.5,35.4 L 138.4,15.5" style="fill:none;fill-rule:evenodd;stroke:#000000;stroke-width:2.0px;stroke-linecap:butt;stroke-linejoin:miter;stroke-opacity:1"/>
<path class="bond-13 atom-13 atom-14" d="M 140.5,10.8 L 111.2,13.6" style="fill:none;fill-rule:evenodd;stroke:#000000;stroke-width:2.0px;stroke-linecap:butt;stroke-linejoin:miter;stroke-opacity:1"/>
<path class="bond-14 atom-14 atom-15" d="M 111.2,13.6 L 98.9,40.4" style="fill:none;fill-rule:evenodd;stroke:#000000;stroke-width:2.0px;stroke-linecap:butt;stroke-linejoin:miter;stroke-opacity:1"/>
<path class="bond-14 atom-14 atom-15" d="M 114.1,17.8 L 103.9,39.9" style="fill:none;fill-rule:evenodd;stroke:#000000;stroke-width:2.0px;stroke-linecap:butt;stroke-linejoin:miter;stroke-opacity:1"/>
<path class="bond-15 atom-15 atom-2" d="M 98.9,40.4 L 70.7,49.2" style="fill:none;fill-rule:evenodd;stroke:#000000;stroke-width:2.0px;stroke-linecap:butt;stroke-linejoin:miter;stroke-opacity:1"/>
<path class="bond-16 atom-15 atom-5" d="M 98.9,40.4 L 115.9,64.4" style="fill:none;fill-rule:evenodd;stroke:#000000;stroke-width:2.0px;stroke-linecap:butt;stroke-linejoin:miter;stroke-opacity:1"/>
<path class="bond-17 atom-12 atom-10" d="M 255.3,63.5 L 233.3,53.4" style="fill:none;fill-rule:evenodd;stroke:#000000;stroke-width:2.0px;stroke-linecap:butt;stroke-linejoin:miter;stroke-opacity:1"/>
<path d="M 143.8,61.8 L 145.3,61.7 L 145.9,60.3" style="fill:none;stroke:#000000;stroke-width:2.0px;stroke-linecap:butt;stroke-linejoin:miter;stroke-miterlimit:10;stroke-opacity:1;"/>
<path d="M 203.3,55.3 L 203.9,56.2 L 205.4,56.1" style="fill:none;stroke:#000000;stroke-width:2.0px;stroke-linecap:butt;stroke-linejoin:miter;stroke-miterlimit:10;stroke-opacity:1;"/>
<path d="M 256.1,37.3 L 257.3,36.4 L 257.4,37.6" style="fill:none;stroke:#000000;stroke-width:2.0px;stroke-linecap:butt;stroke-linejoin:miter;stroke-miterlimit:10;stroke-opacity:1;"/>
<path d="M 141.4,12.0 L 140.5,10.8 L 139.0,11.0" style="fill:none;stroke:#000000;stroke-width:2.0px;stroke-linecap:butt;stroke-linejoin:miter;stroke-miterlimit:10;stroke-opacity:1;"/>
<path d="M 112.6,13.4 L 111.2,13.6 L 110.5,14.9" style="fill:none;stroke:#000000;stroke-width:2.0px;stroke-linecap:butt;stroke-linejoin:miter;stroke-miterlimit:10;stroke-opacity:1;"/>
<path class="atom-1" d="M 43.3 31.6 Q 43.3 29.6, 44.2 28.5 Q 45.2 27.3, 47.1 27.3 Q 48.9 27.3, 49.9 28.5 Q 50.9 29.6, 50.9 31.6 Q 50.9 33.6, 49.9 34.8 Q 48.9 35.9, 47.1 35.9 Q 45.2 35.9, 44.2 34.8 Q 43.3 33.6, 43.3 31.6 M 47.1 35.0 Q 48.4 35.0, 49.0 34.1 Q 49.7 33.3, 49.7 31.6 Q 49.7 29.9, 49.0 29.1 Q 48.4 28.3, 47.1 28.3 Q 45.8 28.3, 45.1 29.1 Q 44.4 29.9, 44.4 31.6 Q 44.4 33.3, 45.1 34.1 Q 45.8 35.0, 47.1 35.0 " fill="#000000"/>
<path class="atom-3" d="M 68.5 74.5 L 71.3 78.9 Q 71.5 79.3, 72.0 80.1 Q 72.4 80.9, 72.4 80.9 L 72.4 74.5 L 73.6 74.5 L 73.6 82.8 L 72.4 82.8 L 69.5 78.0 Q 69.1 77.4, 68.8 76.7 Q 68.4 76.1, 68.3 75.9 L 68.3 82.8 L 67.2 82.8 L 67.2 74.5 L 68.5 74.5 " fill="#000000"/>
<path class="atom-4" d="M 96.0 90.9 Q 96.0 91.0, 96.4 91.1 Q 96.8 91.3, 97.3 91.4 Q 97.7 91.5, 98.1 91.5 Q 98.9 91.5, 99.4 91.1 Q 99.8 90.7, 99.8 90.0 Q 99.8 89.6, 99.6 89.3 Q 99.4 89.0, 99.0 88.9 Q 98.7 88.7, 98.1 88.5 Q 97.3 88.3, 96.9 88.1 Q 96.4 87.9, 96.1 87.4 Q 95.8 87.0, 95.8 86.2 Q 95.8 85.2, 96.5 84.5 Q 97.2 83.9, 98.7 83.9 Q 99.6 83.9, 100.7 84.4 L 100.4 85.3 Q 99.4 84.8, 98.7 84.8 Q 97.9 84.8, 97.4 85.2 Q 97.0 85.5, 97.0 86.1 Q 97.0 86.5, 97.2 86.8 Q 97.5 87.1, 97.8 87.2 Q 98.1 87.4, 98.7 87.6 Q 99.4 87.8, 99.9 88.0 Q 100.3 88.3, 100.7 88.8 Q 101.0 89.2, 101.0 90.0 Q 101.0 91.2, 100.2 91.8 Q 99.4 92.4, 98.2 92.4 Q 97.4 92.4, 96.8 92.3 Q 96.3 92.1, 95.6 91.9 L 96.0 90.9 " fill="#000000"/>
<path class="atom-8" d="M 183.1 32.2 Q 183.1 30.2, 184.1 29.0 Q 185.0 27.9, 186.9 27.9 Q 188.7 27.9, 189.7 29.0 Q 190.7 30.2, 190.7 32.2 Q 190.7 34.2, 189.7 35.4 Q 188.7 36.5, 186.9 36.5 Q 185.1 36.5, 184.1 35.4 Q 183.1 34.2, 183.1 32.2 M 186.9 35.6 Q 188.2 35.6, 188.9 34.7 Q 189.6 33.8, 189.6 32.2 Q 189.6 30.5, 188.9 29.7 Q 188.2 28.9, 186.9 28.9 Q 185.6 28.9, 184.9 29.7 Q 184.2 30.5, 184.2 32.2 Q 184.2 33.9, 184.9 34.7 Q 185.6 35.6, 186.9 35.6 " fill="#000000"/>
<path class="atom-12" d="M 256.2 65.8 Q 256.2 63.8, 257.2 62.6 Q 258.2 61.5, 260.1 61.5 Q 261.9 61.5, 262.9 62.6 Q 263.9 63.8, 263.9 65.8 Q 263.9 67.8, 262.9 69.0 Q 261.9 70.1, 260.1 70.1 Q 258.2 70.1, 257.2 69.0 Q 256.2 67.8, 256.2 65.8 M 260.1 69.2 Q 261.3 69.2, 262.0 68.3 Q 262.7 67.4, 262.7 65.8 Q 262.7 64.1, 262.0 63.3 Q 261.3 62.5, 260.1 62.5 Q 258.8 62.5, 258.1 63.3 Q 257.4 64.1, 257.4 65.8 Q 257.4 67.5, 258.1 68.3 Q 258.8 69.2, 260.1 69.2 " fill="#000000"/>
</svg>