<svg xmlns="http://www.w3.org/2000/svg" xmlns:rdkit="http://www.rdkit.org/xml" xmlns:xlink="http://www.w3.org/1999/xlink" version="1.1" baseProfile="full" xml:space="preserve" width="171px" height="106px" viewBox="0 0 171 106">
<!-- END OF HEADER -->
<rect style="opacity:1.0;fill:#FFFFFF;stroke:none" width="171.0" height="106.0" x="0.0" y="0.0"> </rect>
<path class="bond-0 atom-0 atom-1" d="M 54.4,75.1 L 64.6,47.5 L 72.4,50.3 L 62.1,78.0 Z" style="fill:#FFDADA;fill-rule:evenodd;fill-opacity:1;stroke:#FFDADA;stroke-width:2.0px;stroke-linecap:butt;stroke-linejoin:miter;stroke-miterlimit:10;stroke-opacity:1;"/>
<path class="bond-1 atom-1 atom-2" d="M 65.3,51.5 L 46.5,28.8 L 52.9,23.6 L 71.7,46.3 Z" style="fill:#FFDADA;fill-rule:evenodd;fill-opacity:1;stroke:#FFDADA;stroke-width:2.0px;stroke-linecap:butt;stroke-linejoin:miter;stroke-miterlimit:10;stroke-opacity:1;"/>
<path class="bond-2 atom-2 atom-3" d="M 50.4,30.3 L 21.3,35.2 L 19.9,27.1 L 49.0,22.1 Z" style="fill:#FFDADA;fill-rule:evenodd;fill-opacity:1;stroke:#FFDADA;stroke-width:2.0px;stroke-linecap:butt;stroke-linejoin:miter;stroke-miterlimit:10;stroke-opacity:1;"/>
<path class="bond-4 atom-4 atom-5" d="M 93.7,42.5 L 103.9,14.9 L 111.7,17.7 L 101.4,45.4 Z" style="fill:#F8F8FF;fill-rule:evenodd;fill-opacity:1;stroke:#F8F8FF;stroke-width:2.0px;stroke-linecap:butt;stroke-linejoin:miter;stroke-miterlimit:10;stroke-opacity:1;"/>
<path class="bond-5 atom-5 atom-6" d="M 107.1,12.2 L 136.1,7.3 L 137.5,15.4 L 108.5,20.4 Z" style="fill:#F8F8FF;fill-rule:evenodd;fill-opacity:1;stroke:#F8F8FF;stroke-width:2.0px;stroke-linecap:butt;stroke-linejoin:miter;stroke-miterlimit:10;stroke-opacity:1;"/>
<path class="bond-6 atom-6 atom-7" d="M 140.0,8.7 L 158.8,31.4 L 152.5,36.7 L 133.7,14.0 Z" style="fill:#F8F8FF;fill-rule:evenodd;fill-opacity:1;stroke:#F8F8FF;stroke-width:2.0px;stroke-linecap:butt;stroke-linejoin:miter;stroke-miterlimit:10;stroke-opacity:1;"/>
<path class="bond-7 atom-7 atom-8" d="M 159.5,35.5 L 149.3,63.1 L 141.6,60.2 L 151.8,32.6 Z" style="fill:#F8F8FF;fill-rule:evenodd;fill-opacity:1;stroke:#F8F8FF;stroke-width:2.0px;stroke-linecap:butt;stroke-linejoin:miter;stroke-miterlimit:10;stroke-opacity:1;"/>
<path class="bond-8 atom-8 atom-9" d="M 146.1,65.7 L 117.1,70.7 L 115.7,62.6 L 144.7,57.6 Z" style="fill:#F8F8FF;fill-rule:evenodd;fill-opacity:1;stroke:#F8F8FF;stroke-width:2.0px;stroke-linecap:butt;stroke-linejoin:miter;stroke-miterlimit:10;stroke-opacity:1;"/>
<path class="bond-9 atom-9 atom-10" d="M 120.2,68.1 L 110.0,95.7 L 102.3,92.8 L 112.5,65.2 Z" style="fill:#F8F8FF;fill-rule:evenodd;fill-opacity:1;stroke:#F8F8FF;stroke-width:2.0px;stroke-linecap:butt;stroke-linejoin:miter;stroke-miterlimit:10;stroke-opacity:1;"/>
<path class="bond-10 atom-9 atom-4" d="M 113.2,69.3 L 94.4,46.6 L 100.7,41.3 L 119.5,64.0 Z" style="fill:#F8F8FF;fill-rule:evenodd;fill-opacity:1;stroke:#F8F8FF;stroke-width:2.0px;stroke-linecap:butt;stroke-linejoin:miter;stroke-miterlimit:10;stroke-opacity:1;"/>
<ellipse cx="58.3" cy="76.5" rx="5.9" ry="5.9" class="atom-0" style="fill:#FFDADA;fill-rule:evenodd;stroke:#FFDADA;stroke-width:1.0px;stroke-linecap:butt;stroke-linejoin:miter;stroke-opacity:1"/>
<ellipse cx="68.5" cy="48.9" rx="5.9" ry="5.9" class="atom-1" style="fill:#FFDADA;fill-rule:evenodd;stroke:#FFDADA;stroke-width:1.0px;stroke-linecap:butt;stroke-linejoin:miter;stroke-opacity:1"/>
<ellipse cx="49.7" cy="26.2" rx="5.9" ry="5.9" class="atom-2" style="fill:#FFDADA;fill-rule:evenodd;stroke:#FFDADA;stroke-width:1.0px;stroke-linecap:butt;stroke-linejoin:miter;stroke-opacity:1"/>
<ellipse cx="20.6" cy="31.2" rx="5.9" ry="5.9" class="atom-3" style="fill:#FFDADA;fill-rule:evenodd;stroke:#FFDADA;stroke-width:1.0px;stroke-linecap:butt;stroke-linejoin:miter;stroke-opacity:1"/>
<ellipse cx="97.5" cy="43.9" rx="5.9" ry="5.9" class="atom-4" style="fill:#F8F8FF;fill-rule:evenodd;stroke:#F8F8FF;stroke-width:1.0px;stroke-linecap:butt;stroke-linejoin:miter;stroke-opacity:1"/>
<ellipse cx="107.8" cy="16.3" rx="5.9" ry="5.9" class="atom-5" style="fill:#F8F8FF;fill-rule:evenodd;stroke:#F8F8FF;stroke-width:1.0px;stroke-linecap:butt;stroke-linejoin:miter;stroke-opacity:1"/>
<ellipse cx="136.8" cy="11.3" rx="5.9" ry="5.9" class="atom-6" style="fill:#F8F8FF;fill-rule:evenodd;stroke:#F8F8FF;stroke-width:1.0px;stroke-linecap:butt;stroke-linejoin:miter;stroke-opacity:1"/>
<ellipse cx="155.7" cy="34.0" rx="5.9" ry="5.9" class="atom-7" style="fill:#F8F8FF;fill-rule:evenodd;stroke:#F8F8FF;stroke-width:1.0px;stroke-linecap:butt;stroke-linejoin:miter;stroke-opacity:1"/>
<ellipse cx="145.4" cy="61.7" rx="5.9" ry="5.9" class="atom-8" style="fill:#F8F8FF;fill-rule:evenodd;stroke:#F8F8FF;stroke-width:1.0px;stroke-linecap:butt;stroke-linejoin:miter;stroke-opacity:1"/>
<ellipse cx="116.4" cy="66.6" rx="5.9" ry="5.9" class="atom-9" style="fill:#F8F8FF;fill-rule:evenodd;stroke:#F8F8FF;stroke-width:1.0px;stroke-linecap:butt;stroke-linejoin:miter;stroke-opacity:1"/>
<ellipse cx="106.1" cy="94.3" rx="5.9" ry="5.9" class="atom-10" style="fill:#F8F8FF;fill-rule:evenodd;stroke:#F8F8FF;stroke-width:1.0px;stroke-linecap:butt;stroke-linejoin:miter;stroke-opacity:1"/>
<path class="bond-0 atom-0 atom-1" d="M 58.1,70.6 L 66.9,46.9" style="fill:none;fill-rule:evenodd;stroke:#000000;stroke-width:2.0px;stroke-linecap:butt;stroke-linejoin:miter;stroke-opacity:1"/>
<path class="bond-0 atom-0 atom-1" d="M 62.3,72.1 L 71.0,48.5" style="fill:none;fill-rule:evenodd;stroke:#000000;stroke-width:2.0px;stroke-linecap:butt;stroke-linejoin:miter;stroke-opacity:1"/>
<path class="bond-1 atom-1 atom-2" d="M 68.5,48.9 L 53.9,31.4" style="fill:none;fill-rule:evenodd;stroke:#000000;stroke-width:2.0px;stroke-linecap:butt;stroke-linejoin:miter;stroke-opacity:1"/>
<path class="bond-2 atom-2 atom-3" d="M 45.5,26.9 L 25.4,30.3" style="fill:none;fill-rule:evenodd;stroke:#000000;stroke-width:2.0px;stroke-linecap:butt;stroke-linejoin:miter;stroke-opacity:1"/>
<path class="bond-3 atom-1 atom-4" d="M 68.5,48.9 L 97.5,43.9" style="fill:none;fill-rule:evenodd;stroke:#000000;stroke-width:2.0px;stroke-linecap:butt;stroke-linejoin:miter;stroke-opacity:1"/>
<path class="bond-4 atom-4 atom-5" d="M 97.5,43.9 L 107.8,16.3" style="fill:none;fill-rule:evenodd;stroke:#000000;stroke-width:2.0px;stroke-linecap:butt;stroke-linejoin:miter;stroke-opacity:1"/>
<path class="bond-4 atom-4 atom-5" d="M 102.6,43.1 L 111.0,20.2" style="fill:none;fill-rule:evenodd;stroke:#000000;stroke-width:2.0px;stroke-linecap:butt;stroke-linejoin:miter;stroke-opacity:1"/>
<path class="bond-5 atom-5 atom-6" d="M 107.8,16.3 L 136.8,11.3" style="fill:none;fill-rule:evenodd;stroke:#000000;stroke-width:2.0px;stroke-linecap:butt;stroke-linejoin:miter;stroke-opacity:1"/>
<path class="bond-6 atom-6 atom-7" d="M 136.8,11.3 L 155.7,34.0" style="fill:none;fill-rule:evenodd;stroke:#000000;stroke-width:2.0px;stroke-linecap:butt;stroke-linejoin:miter;stroke-opacity:1"/>
<path class="bond-6 atom-6 atom-7" d="M 135.1,16.1 L 150.6,34.9" style="fill:none;fill-rule:evenodd;stroke:#000000;stroke-width:2.0px;stroke-linecap:butt;stroke-linejoin:miter;stroke-opacity:1"/>
<path class="bond-7 atom-7 atom-8" d="M 155.7,34.0 L 145.4,61.7" style="fill:none;fill-rule:evenodd;stroke:#000000;stroke-width:2.0px;stroke-linecap:butt;stroke-linejoin:miter;stroke-opacity:1"/>
<path class="bond-8 atom-8 atom-9" d="M 145.4,61.7 L 116.4,66.6" style="fill:none;fill-rule:evenodd;stroke:#000000;stroke-width:2.0px;stroke-linecap:butt;stroke-linejoin:miter;stroke-opacity:1"/>
<path class="bond-8 atom-8 atom-9" d="M 142.2,57.7 L 118.1,61.8" style="fill:none;fill-rule:evenodd;stroke:#000000;stroke-width:2.0px;stroke-linecap:butt;stroke-linejoin:miter;stroke-opacity:1"/>
<path class="bond-9 atom-9 atom-10" d="M 116.4,66.6 L 108.1,89.1" style="fill:none;fill-rule:evenodd;stroke:#000000;stroke-width:2.0px;stroke-linecap:butt;stroke-linejoin:miter;stroke-opacity:1"/>
<path class="bond-10 atom-9 atom-4" d="M 116.4,66.6 L 97.5,43.9" style="fill:none;fill-rule:evenodd;stroke:#000000;stroke-width:2.0px;stroke-linecap:butt;stroke-linejoin:miter;stroke-opacity:1"/>
<path d="M 67.8,48.0 L 68.5,48.9 L 69.9,48.6" style="fill:none;stroke:#000000;stroke-width:2.0px;stroke-linecap:butt;stroke-linejoin:miter;stroke-miterlimit:10;stroke-opacity:1;"/>
<path d="M 107.3,17.7 L 107.8,16.3 L 109.2,16.1" style="fill:none;stroke:#000000;stroke-width:2.0px;stroke-linecap:butt;stroke-linejoin:miter;stroke-miterlimit:10;stroke-opacity:1;"/>
<path d="M 135.4,11.6 L 136.8,11.3 L 137.8,12.5" style="fill:none;stroke:#000000;stroke-width:2.0px;stroke-linecap:butt;stroke-linejoin:miter;stroke-miterlimit:10;stroke-opacity:1;"/>
<path d="M 154.7,32.9 L 155.7,34.0 L 155.1,35.4" style="fill:none;stroke:#000000;stroke-width:2.0px;stroke-linecap:butt;stroke-linejoin:miter;stroke-miterlimit:10;stroke-opacity:1;"/>
<path d="M 145.9,60.3 L 145.4,61.7 L 144.0,61.9" style="fill:none;stroke:#000000;stroke-width:2.0px;stroke-linecap:butt;stroke-linejoin:miter;stroke-miterlimit:10;stroke-opacity:1;"/>
<path class="atom-0" d="M 54.4 76.6 Q 54.4 74.6, 55.4 73.4 Q 56.4 72.3, 58.3 72.3 Q 60.1 72.3, 61.1 73.4 Q 62.1 74.6, 62.1 76.6 Q 62.1 78.6, 61.1 79.7 Q 60.1 80.9, 58.3 80.9 Q 56.4 80.9, 55.4 79.7 Q 54.4 78.6, 54.4 76.6 M 58.3 79.9 Q 59.5 79.9, 60.2 79.1 Q 60.9 78.2, 60.9 76.6 Q 60.9 74.9, 60.2 74.1 Q 59.5 73.3, 58.3 73.3 Q 57.0 73.3, 56.3 74.1 Q 55.6 74.9, 55.6 76.6 Q 55.6 78.2, 56.3 79.1 Q 57.0 79.9, 58.3 79.9 " fill="#000000"/>
<path class="atom-2" d="M 47.8 22.0 L 50.6 26.5 Q 50.8 26.9, 51.3 27.7 Q 51.7 28.5, 51.7 28.5 L 51.7 22.0 L 52.8 22.0 L 52.8 30.4 L 51.7 30.4 L 48.8 25.6 Q 48.4 25.0, 48.1 24.3 Q 47.7 23.7, 47.6 23.5 L 47.6 30.4 L 46.5 30.4 L 46.5 22.0 L 47.8 22.0 " fill="#000000"/>
<path class="atom-2" d="M 54.5 22.0 L 55.6 22.0 L 55.6 25.6 L 59.9 25.6 L 59.9 22.0 L 61.0 22.0 L 61.0 30.4 L 59.9 30.4 L 59.9 26.5 L 55.6 26.5 L 55.6 30.4 L 54.5 30.4 L 54.5 22.0 " fill="#000000"/>
<path class="atom-3" d="M 8.6 27.0 L 9.7 27.0 L 9.7 30.6 L 13.9 30.6 L 13.9 27.0 L 15.1 27.0 L 15.1 35.4 L 13.9 35.4 L 13.9 31.5 L 9.7 31.5 L 9.7 35.4 L 8.6 35.4 L 8.6 27.0 " fill="#000000"/>
<path class="atom-3" d="M 16.8 31.2 Q 16.8 29.2, 17.8 28.1 Q 18.8 26.9, 20.6 26.9 Q 22.5 26.9, 23.5 28.1 Q 24.5 29.2, 24.5 31.2 Q 24.5 33.2, 23.5 34.4 Q 22.5 35.5, 20.6 35.5 Q 18.8 35.5, 17.8 34.4 Q 16.8 33.2, 16.8 31.2 M 20.6 34.6 Q 21.9 34.6, 22.6 33.7 Q 23.3 32.9, 23.3 31.2 Q 23.3 29.6, 22.6 28.7 Q 21.9 27.9, 20.6 27.9 Q 19.4 27.9, 18.7 28.7 Q 18.0 29.5, 18.0 31.2 Q 18.0 32.9, 18.7 33.7 Q 19.4 34.6, 20.6 34.6 " fill="#000000"/>
<path class="atom-10" d="M 94.1 90.1 L 95.2 90.1 L 95.2 93.7 L 99.5 93.7 L 99.5 90.1 L 100.6 90.1 L 100.6 98.5 L 99.5 98.5 L 99.5 94.6 L 95.2 94.6 L 95.2 98.5 L 94.1 98.5 L 94.1 90.1 " fill="#000000"/>
<path class="atom-10" d="M 102.3 94.3 Q 102.3 92.3, 103.3 91.2 Q 104.3 90.0, 106.1 90.0 Q 108.0 90.0, 109.0 91.2 Q 110.0 92.3, 110.0 94.3 Q 110.0 96.3, 109.0 97.5 Q 108.0 98.6, 106.1 98.6 Q 104.3 98.6, 103.3 97.5 Q 102.3 96.3, 102.3 94.3 M 106.1 97.7 Q 107.4 97.7, 108.1 96.8 Q 108.8 96.0, 108.8 94.3 Q 108.8 92.6, 108.1 91.8 Q 107.4 91.0, 106.1 91.0 Q 104.9 91.0, 104.2 91.8 Q 103.5 92.6, 103.5 94.3 Q 103.5 96.0, 104.2 96.8 Q 104.9 97.7, 106.1 97.7 " fill="#000000"/>
</svg>