<svg xmlns="http://www.w3.org/2000/svg" xmlns:rdkit="http://www.rdkit.org/xml" xmlns:xlink="http://www.w3.org/1999/xlink" version="1.1" baseProfile="full" xml:space="preserve" width="224px" height="181px" viewBox="0 0 224 181">
<!-- END OF HEADER -->
<rect style="opacity:1.0;fill:#FFFFFF;stroke:none" width="224.0" height="181.0" x="0.0" y="0.0"> </rect>
<path class="bond-0 atom-0 atom-1" d="M 15.5,112.3 L 42.0,99.3 L 45.6,106.7 L 19.2,119.7 Z" style="fill:#FF5A5A;fill-rule:evenodd;fill-opacity:1;stroke:#FF5A5A;stroke-width:2.0px;stroke-linecap:butt;stroke-linejoin:miter;stroke-miterlimit:10;stroke-opacity:1;"/>
<path class="bond-1 atom-1 atom-2" d="M 46.1,99.6 L 70.5,116.0 L 65.9,122.8 L 41.5,106.5 Z" style="fill:#FF5A5A;fill-rule:evenodd;fill-opacity:1;stroke:#FF5A5A;stroke-width:2.0px;stroke-linecap:butt;stroke-linejoin:miter;stroke-miterlimit:10;stroke-opacity:1;"/>
<path class="bond-2 atom-2 atom-3" d="M 72.3,119.7 L 70.4,149.1 L 62.2,148.5 L 64.1,119.1 Z" style="fill:#FF5A5A;fill-rule:evenodd;fill-opacity:1;stroke:#FF5A5A;stroke-width:2.0px;stroke-linecap:butt;stroke-linejoin:miter;stroke-miterlimit:10;stroke-opacity:1;"/>
<path class="bond-3 atom-3 atom-4" d="M 68.6,145.4 L 93.0,161.7 L 88.4,168.6 L 64.0,152.2 Z" style="fill:#FF5A5A;fill-rule:evenodd;fill-opacity:1;stroke:#FF5A5A;stroke-width:2.0px;stroke-linecap:butt;stroke-linejoin:miter;stroke-miterlimit:10;stroke-opacity:1;"/>
<path class="bond-4 atom-4 atom-5" d="M 88.9,161.5 L 115.3,148.5 L 118.9,155.9 L 92.5,168.9 Z" style="fill:#FF5A5A;fill-rule:evenodd;fill-opacity:1;stroke:#FF5A5A;stroke-width:2.0px;stroke-linecap:butt;stroke-linejoin:miter;stroke-miterlimit:10;stroke-opacity:1;"/>
<path class="bond-5 atom-5 atom-6" d="M 113.0,151.9 L 115.0,122.5 L 123.2,123.1 L 121.2,152.5 Z" style="fill:#FF5A5A;fill-rule:evenodd;fill-opacity:1;stroke:#FF5A5A;stroke-width:2.0px;stroke-linecap:butt;stroke-linejoin:miter;stroke-miterlimit:10;stroke-opacity:1;"/>
<path class="bond-6 atom-6 atom-7" d="M 116.8,126.2 L 92.3,109.9 L 96.9,103.0 L 121.4,119.4 Z" style="fill:#FF5A5A;fill-rule:evenodd;fill-opacity:1;stroke:#FF5A5A;stroke-width:2.0px;stroke-linecap:butt;stroke-linejoin:miter;stroke-miterlimit:10;stroke-opacity:1;"/>
<path class="bond-7 atom-7 atom-8" d="M 90.5,106.2 L 92.5,76.8 L 100.7,77.3 L 98.7,106.7 Z" style="fill:#FF5A5A;fill-rule:evenodd;fill-opacity:1;stroke:#FF5A5A;stroke-width:2.0px;stroke-linecap:butt;stroke-linejoin:miter;stroke-miterlimit:10;stroke-opacity:1;"/>
<path class="bond-10 atom-10 atom-11" d="M 145.6,76.8 L 172.1,63.8 L 175.7,71.2 L 149.3,84.2 Z" style="fill:#FFF8F8;fill-rule:evenodd;fill-opacity:1;stroke:#FFF8F8;stroke-width:2.0px;stroke-linecap:butt;stroke-linejoin:miter;stroke-miterlimit:10;stroke-opacity:1;"/>
<path class="bond-11 atom-11 atom-12" d="M 170.2,69.3 L 157.2,42.9 L 164.6,39.2 L 177.6,65.7 Z" style="fill:#FFF8F8;fill-rule:evenodd;fill-opacity:1;stroke:#FFF8F8;stroke-width:2.0px;stroke-linecap:butt;stroke-linejoin:miter;stroke-miterlimit:10;stroke-opacity:1;"/>
<path class="bond-12 atom-11 atom-13" d="M 177.6,65.7 L 190.6,92.1 L 183.2,95.7 L 170.2,69.3 Z" style="fill:#FFF8F8;fill-rule:evenodd;fill-opacity:1;stroke:#FFF8F8;stroke-width:2.0px;stroke-linecap:butt;stroke-linejoin:miter;stroke-miterlimit:10;stroke-opacity:1;"/>
<path class="bond-13 atom-11 atom-14" d="M 172.1,63.8 L 198.5,50.8 L 202.1,58.2 L 175.7,71.2 Z" style="fill:#FFF8F8;fill-rule:evenodd;fill-opacity:1;stroke:#FFF8F8;stroke-width:2.0px;stroke-linecap:butt;stroke-linejoin:miter;stroke-miterlimit:10;stroke-opacity:1;"/>
<path class="bond-14 atom-8 atom-15" d="M 94.3,80.5 L 69.8,64.1 L 74.4,57.3 L 98.9,73.6 Z" style="fill:#FF5A5A;fill-rule:evenodd;fill-opacity:1;stroke:#FF5A5A;stroke-width:2.0px;stroke-linecap:butt;stroke-linejoin:miter;stroke-miterlimit:10;stroke-opacity:1;"/>
<path class="bond-15 atom-15 atom-16" d="M 68.0,60.4 L 70.0,31.0 L 78.2,31.6 L 76.3,61.0 Z" style="fill:#FF5A5A;fill-rule:evenodd;fill-opacity:1;stroke:#FF5A5A;stroke-width:2.0px;stroke-linecap:butt;stroke-linejoin:miter;stroke-miterlimit:10;stroke-opacity:1;"/>
<path class="bond-16 atom-16 atom-17" d="M 71.8,34.7 L 47.4,18.4 L 51.9,11.5 L 76.4,27.9 Z" style="fill:#FF5A5A;fill-rule:evenodd;fill-opacity:1;stroke:#FF5A5A;stroke-width:2.0px;stroke-linecap:butt;stroke-linejoin:miter;stroke-miterlimit:10;stroke-opacity:1;"/>
<path class="bond-17 atom-17 atom-18" d="M 51.5,18.6 L 25.1,31.6 L 21.4,24.2 L 47.8,11.2 Z" style="fill:#FF5A5A;fill-rule:evenodd;fill-opacity:1;stroke:#FF5A5A;stroke-width:2.0px;stroke-linecap:butt;stroke-linejoin:miter;stroke-miterlimit:10;stroke-opacity:1;"/>
<path class="bond-18 atom-18 atom-19" d="M 27.4,28.2 L 25.4,57.6 L 17.2,57.0 L 19.1,27.6 Z" style="fill:#FF5A5A;fill-rule:evenodd;fill-opacity:1;stroke:#FF5A5A;stroke-width:2.0px;stroke-linecap:butt;stroke-linejoin:miter;stroke-miterlimit:10;stroke-opacity:1;"/>
<path class="bond-19 atom-19 atom-20" d="M 23.6,53.9 L 48.0,70.2 L 43.4,77.1 L 19.0,60.7 Z" style="fill:#FF5A5A;fill-rule:evenodd;fill-opacity:1;stroke:#FF5A5A;stroke-width:2.0px;stroke-linecap:butt;stroke-linejoin:miter;stroke-miterlimit:10;stroke-opacity:1;"/>
<path class="bond-20 atom-20 atom-1" d="M 49.8,73.9 L 47.9,103.3 L 39.7,102.8 L 41.6,73.4 Z" style="fill:#FF5A5A;fill-rule:evenodd;fill-opacity:1;stroke:#FF5A5A;stroke-width:2.0px;stroke-linecap:butt;stroke-linejoin:miter;stroke-miterlimit:10;stroke-opacity:1;"/>
<path class="bond-21 atom-7 atom-2" d="M 96.5,110.1 L 70.0,123.1 L 66.4,115.7 L 92.8,102.7 Z" style="fill:#FF5A5A;fill-rule:evenodd;fill-opacity:1;stroke:#FF5A5A;stroke-width:2.0px;stroke-linecap:butt;stroke-linejoin:miter;stroke-miterlimit:10;stroke-opacity:1;"/>
<path class="bond-22 atom-20 atom-15" d="M 43.9,70.0 L 70.3,57.0 L 74.0,64.4 L 47.5,77.4 Z" style="fill:#FF5A5A;fill-rule:evenodd;fill-opacity:1;stroke:#FF5A5A;stroke-width:2.0px;stroke-linecap:butt;stroke-linejoin:miter;stroke-miterlimit:10;stroke-opacity:1;"/>
<ellipse cx="17.4" cy="116.0" rx="5.9" ry="5.9" class="atom-0" style="fill:#FF5A5A;fill-rule:evenodd;stroke:#FF5A5A;stroke-width:1.0px;stroke-linecap:butt;stroke-linejoin:miter;stroke-opacity:1"/>
<ellipse cx="43.8" cy="103.0" rx="5.9" ry="5.9" class="atom-1" style="fill:#FF5A5A;fill-rule:evenodd;stroke:#FF5A5A;stroke-width:1.0px;stroke-linecap:butt;stroke-linejoin:miter;stroke-opacity:1"/>
<ellipse cx="68.2" cy="119.4" rx="5.9" ry="5.9" class="atom-2" style="fill:#FF5A5A;fill-rule:evenodd;stroke:#FF5A5A;stroke-width:1.0px;stroke-linecap:butt;stroke-linejoin:miter;stroke-opacity:1"/>
<ellipse cx="66.3" cy="148.8" rx="5.9" ry="5.9" class="atom-3" style="fill:#FF5A5A;fill-rule:evenodd;stroke:#FF5A5A;stroke-width:1.0px;stroke-linecap:butt;stroke-linejoin:miter;stroke-opacity:1"/>
<ellipse cx="90.7" cy="165.2" rx="5.9" ry="5.9" class="atom-4" style="fill:#FF5A5A;fill-rule:evenodd;stroke:#FF5A5A;stroke-width:1.0px;stroke-linecap:butt;stroke-linejoin:miter;stroke-opacity:1"/>
<ellipse cx="117.1" cy="152.2" rx="5.9" ry="5.9" class="atom-5" style="fill:#FF5A5A;fill-rule:evenodd;stroke:#FF5A5A;stroke-width:1.0px;stroke-linecap:butt;stroke-linejoin:miter;stroke-opacity:1"/>
<ellipse cx="119.1" cy="122.8" rx="5.9" ry="5.9" class="atom-6" style="fill:#FF5A5A;fill-rule:evenodd;stroke:#FF5A5A;stroke-width:1.0px;stroke-linecap:butt;stroke-linejoin:miter;stroke-opacity:1"/>
<ellipse cx="94.6" cy="106.4" rx="5.9" ry="5.9" class="atom-7" style="fill:#FF5A5A;fill-rule:evenodd;stroke:#FF5A5A;stroke-width:1.0px;stroke-linecap:butt;stroke-linejoin:miter;stroke-opacity:1"/>
<ellipse cx="96.6" cy="77.1" rx="5.9" ry="5.9" class="atom-8" style="fill:#FF5A5A;fill-rule:evenodd;stroke:#FF5A5A;stroke-width:1.0px;stroke-linecap:butt;stroke-linejoin:miter;stroke-opacity:1"/>
<ellipse cx="123.0" cy="64.1" rx="5.9" ry="5.9" class="atom-9" style="fill:#FFFAFA;fill-rule:evenodd;stroke:#FFFAFA;stroke-width:1.0px;stroke-linecap:butt;stroke-linejoin:miter;stroke-opacity:1"/>
<ellipse cx="147.5" cy="80.5" rx="5.9" ry="5.9" class="atom-10" style="fill:#FFF8F8;fill-rule:evenodd;stroke:#FFF8F8;stroke-width:1.0px;stroke-linecap:butt;stroke-linejoin:miter;stroke-opacity:1"/>
<ellipse cx="173.9" cy="67.5" rx="5.9" ry="5.9" class="atom-11" style="fill:#FFF8F8;fill-rule:evenodd;stroke:#FFF8F8;stroke-width:1.0px;stroke-linecap:butt;stroke-linejoin:miter;stroke-opacity:1"/>
<ellipse cx="160.9" cy="41.1" rx="5.9" ry="5.9" class="atom-12" style="fill:#FFF8F8;fill-rule:evenodd;stroke:#FFF8F8;stroke-width:1.0px;stroke-linecap:butt;stroke-linejoin:miter;stroke-opacity:1"/>
<ellipse cx="186.9" cy="93.9" rx="5.9" ry="5.9" class="atom-13" style="fill:#FFF8F8;fill-rule:evenodd;stroke:#FFF8F8;stroke-width:1.0px;stroke-linecap:butt;stroke-linejoin:miter;stroke-opacity:1"/>
<ellipse cx="200.3" cy="54.5" rx="5.9" ry="5.9" class="atom-14" style="fill:#FFF8F8;fill-rule:evenodd;stroke:#FFF8F8;stroke-width:1.0px;stroke-linecap:butt;stroke-linejoin:miter;stroke-opacity:1"/>
<ellipse cx="72.1" cy="60.7" rx="5.9" ry="5.9" class="atom-15" style="fill:#FF5A5A;fill-rule:evenodd;stroke:#FF5A5A;stroke-width:1.0px;stroke-linecap:butt;stroke-linejoin:miter;stroke-opacity:1"/>
<ellipse cx="74.1" cy="31.3" rx="5.9" ry="5.9" class="atom-16" style="fill:#FF5A5A;fill-rule:evenodd;stroke:#FF5A5A;stroke-width:1.0px;stroke-linecap:butt;stroke-linejoin:miter;stroke-opacity:1"/>
<ellipse cx="49.7" cy="14.9" rx="5.9" ry="5.9" class="atom-17" style="fill:#FF5A5A;fill-rule:evenodd;stroke:#FF5A5A;stroke-width:1.0px;stroke-linecap:butt;stroke-linejoin:miter;stroke-opacity:1"/>
<ellipse cx="23.2" cy="27.9" rx="5.9" ry="5.9" class="atom-18" style="fill:#FF5A5A;fill-rule:evenodd;stroke:#FF5A5A;stroke-width:1.0px;stroke-linecap:butt;stroke-linejoin:miter;stroke-opacity:1"/>
<ellipse cx="21.3" cy="57.3" rx="5.9" ry="5.9" class="atom-19" style="fill:#FF5A5A;fill-rule:evenodd;stroke:#FF5A5A;stroke-width:1.0px;stroke-linecap:butt;stroke-linejoin:miter;stroke-opacity:1"/>
<ellipse cx="45.7" cy="73.7" rx="5.9" ry="5.9" class="atom-20" style="fill:#FF5A5A;fill-rule:evenodd;stroke:#FF5A5A;stroke-width:1.0px;stroke-linecap:butt;stroke-linejoin:miter;stroke-opacity:1"/>
<path class="bond-0 atom-0 atom-1" d="M 17.4,116.0 L 43.8,103.0" style="fill:none;fill-rule:evenodd;stroke:#000000;stroke-width:2.0px;stroke-linecap:butt;stroke-linejoin:miter;stroke-opacity:1"/>
<path class="bond-1 atom-1 atom-2" d="M 43.8,103.0 L 68.2,119.4" style="fill:none;fill-rule:evenodd;stroke:#000000;stroke-width:2.0px;stroke-linecap:butt;stroke-linejoin:miter;stroke-opacity:1"/>
<path class="bond-1 atom-1 atom-2" d="M 48.3,100.8 L 68.6,114.3" style="fill:none;fill-rule:evenodd;stroke:#000000;stroke-width:2.0px;stroke-linecap:butt;stroke-linejoin:miter;stroke-opacity:1"/>
<path class="bond-2 atom-2 atom-3" d="M 68.2,119.4 L 66.3,148.8" style="fill:none;fill-rule:evenodd;stroke:#000000;stroke-width:2.0px;stroke-linecap:butt;stroke-linejoin:miter;stroke-opacity:1"/>
<path class="bond-3 atom-3 atom-4" d="M 66.3,148.8 L 90.7,165.2" style="fill:none;fill-rule:evenodd;stroke:#000000;stroke-width:2.0px;stroke-linecap:butt;stroke-linejoin:miter;stroke-opacity:1"/>
<path class="bond-3 atom-3 atom-4" d="M 70.8,146.5 L 91.1,160.1" style="fill:none;fill-rule:evenodd;stroke:#000000;stroke-width:2.0px;stroke-linecap:butt;stroke-linejoin:miter;stroke-opacity:1"/>
<path class="bond-4 atom-4 atom-5" d="M 90.7,165.2 L 117.1,152.2" style="fill:none;fill-rule:evenodd;stroke:#000000;stroke-width:2.0px;stroke-linecap:butt;stroke-linejoin:miter;stroke-opacity:1"/>
<path class="bond-5 atom-5 atom-6" d="M 117.1,152.2 L 119.1,122.8" style="fill:none;fill-rule:evenodd;stroke:#000000;stroke-width:2.0px;stroke-linecap:butt;stroke-linejoin:miter;stroke-opacity:1"/>
<path class="bond-5 atom-5 atom-6" d="M 112.9,149.3 L 114.5,125.1" style="fill:none;fill-rule:evenodd;stroke:#000000;stroke-width:2.0px;stroke-linecap:butt;stroke-linejoin:miter;stroke-opacity:1"/>
<path class="bond-6 atom-6 atom-7" d="M 119.1,122.8 L 94.6,106.4" style="fill:none;fill-rule:evenodd;stroke:#000000;stroke-width:2.0px;stroke-linecap:butt;stroke-linejoin:miter;stroke-opacity:1"/>
<path class="bond-7 atom-7 atom-8" d="M 94.6,106.4 L 96.6,77.1" style="fill:none;fill-rule:evenodd;stroke:#000000;stroke-width:2.0px;stroke-linecap:butt;stroke-linejoin:miter;stroke-opacity:1"/>
<path class="bond-7 atom-7 atom-8" d="M 90.4,103.6 L 92.0,79.3" style="fill:none;fill-rule:evenodd;stroke:#000000;stroke-width:2.0px;stroke-linecap:butt;stroke-linejoin:miter;stroke-opacity:1"/>
<path class="bond-8 atom-8 atom-9" d="M 96.6,77.1 L 123.0,64.1" style="fill:none;fill-rule:evenodd;stroke:#000000;stroke-width:2.0px;stroke-linecap:butt;stroke-linejoin:miter;stroke-opacity:1"/>
<path class="bond-9 atom-9 atom-10" d="M 123.0,64.1 L 142.7,77.2" style="fill:none;fill-rule:evenodd;stroke:#000000;stroke-width:2.0px;stroke-linecap:butt;stroke-linejoin:miter;stroke-opacity:1"/>
<path class="bond-10 atom-10 atom-11" d="M 152.3,78.1 L 170.2,69.3" style="fill:none;fill-rule:evenodd;stroke:#000000;stroke-width:2.0px;stroke-linecap:butt;stroke-linejoin:miter;stroke-opacity:1"/>
<path class="bond-11 atom-11 atom-12" d="M 173.3,61.4 L 165.5,45.4" style="fill:none;fill-rule:evenodd;stroke:#000000;stroke-width:2.0px;stroke-linecap:butt;stroke-linejoin:miter;stroke-opacity:1"/>
<path class="bond-11 atom-11 atom-12" d="M 169.4,63.3 L 161.5,47.4" style="fill:none;fill-rule:evenodd;stroke:#000000;stroke-width:2.0px;stroke-linecap:butt;stroke-linejoin:miter;stroke-opacity:1"/>
<path class="bond-12 atom-11 atom-13" d="M 174.5,73.8 L 182.3,89.7" style="fill:none;fill-rule:evenodd;stroke:#000000;stroke-width:2.0px;stroke-linecap:butt;stroke-linejoin:miter;stroke-opacity:1"/>
<path class="bond-12 atom-11 atom-13" d="M 178.5,71.9 L 186.3,87.7" style="fill:none;fill-rule:evenodd;stroke:#000000;stroke-width:2.0px;stroke-linecap:butt;stroke-linejoin:miter;stroke-opacity:1"/>
<path class="bond-13 atom-11 atom-14" d="M 177.5,65.7 L 195.5,56.8" style="fill:none;fill-rule:evenodd;stroke:#000000;stroke-width:2.0px;stroke-linecap:butt;stroke-linejoin:miter;stroke-opacity:1"/>
<path class="bond-14 atom-8 atom-15" d="M 96.6,77.1 L 72.1,60.7" style="fill:none;fill-rule:evenodd;stroke:#000000;stroke-width:2.0px;stroke-linecap:butt;stroke-linejoin:miter;stroke-opacity:1"/>
<path class="bond-15 atom-15 atom-16" d="M 72.1,60.7 L 74.1,31.3" style="fill:none;fill-rule:evenodd;stroke:#000000;stroke-width:2.0px;stroke-linecap:butt;stroke-linejoin:miter;stroke-opacity:1"/>
<path class="bond-15 atom-15 atom-16" d="M 67.9,57.8 L 69.5,33.6" style="fill:none;fill-rule:evenodd;stroke:#000000;stroke-width:2.0px;stroke-linecap:butt;stroke-linejoin:miter;stroke-opacity:1"/>
<path class="bond-16 atom-16 atom-17" d="M 74.1,31.3 L 49.7,14.9" style="fill:none;fill-rule:evenodd;stroke:#000000;stroke-width:2.0px;stroke-linecap:butt;stroke-linejoin:miter;stroke-opacity:1"/>
<path class="bond-17 atom-17 atom-18" d="M 49.7,14.9 L 23.2,27.9" style="fill:none;fill-rule:evenodd;stroke:#000000;stroke-width:2.0px;stroke-linecap:butt;stroke-linejoin:miter;stroke-opacity:1"/>
<path class="bond-17 atom-17 atom-18" d="M 49.3,20.0 L 27.5,30.8" style="fill:none;fill-rule:evenodd;stroke:#000000;stroke-width:2.0px;stroke-linecap:butt;stroke-linejoin:miter;stroke-opacity:1"/>
<path class="bond-18 atom-18 atom-19" d="M 23.2,27.9 L 21.3,57.3" style="fill:none;fill-rule:evenodd;stroke:#000000;stroke-width:2.0px;stroke-linecap:butt;stroke-linejoin:miter;stroke-opacity:1"/>
<path class="bond-19 atom-19 atom-20" d="M 21.3,57.3 L 45.7,73.7" style="fill:none;fill-rule:evenodd;stroke:#000000;stroke-width:2.0px;stroke-linecap:butt;stroke-linejoin:miter;stroke-opacity:1"/>
<path class="bond-19 atom-19 atom-20" d="M 25.9,55.0 L 46.1,68.6" style="fill:none;fill-rule:evenodd;stroke:#000000;stroke-width:2.0px;stroke-linecap:butt;stroke-linejoin:miter;stroke-opacity:1"/>
<path class="bond-20 atom-20 atom-1" d="M 45.7,73.7 L 43.8,103.0" style="fill:none;fill-rule:evenodd;stroke:#000000;stroke-width:2.0px;stroke-linecap:butt;stroke-linejoin:miter;stroke-opacity:1"/>
<path class="bond-21 atom-7 atom-2" d="M 94.6,106.4 L 68.2,119.4" style="fill:none;fill-rule:evenodd;stroke:#000000;stroke-width:2.0px;stroke-linecap:butt;stroke-linejoin:miter;stroke-opacity:1"/>
<path class="bond-22 atom-20 atom-15" d="M 45.7,73.7 L 72.1,60.7" style="fill:none;fill-rule:evenodd;stroke:#000000;stroke-width:2.0px;stroke-linecap:butt;stroke-linejoin:miter;stroke-opacity:1"/>
<path d="M 66.4,147.3 L 66.3,148.8 L 67.5,149.6" style="fill:none;stroke:#000000;stroke-width:2.0px;stroke-linecap:butt;stroke-linejoin:miter;stroke-miterlimit:10;stroke-opacity:1;"/>
<path d="M 89.5,164.3 L 90.7,165.2 L 92.0,164.5" style="fill:none;stroke:#000000;stroke-width:2.0px;stroke-linecap:butt;stroke-linejoin:miter;stroke-miterlimit:10;stroke-opacity:1;"/>
<path d="M 115.8,152.8 L 117.1,152.2 L 117.2,150.7" style="fill:none;stroke:#000000;stroke-width:2.0px;stroke-linecap:butt;stroke-linejoin:miter;stroke-miterlimit:10;stroke-opacity:1;"/>
<path d="M 119.0,124.3 L 119.1,122.8 L 117.9,122.0" style="fill:none;stroke:#000000;stroke-width:2.0px;stroke-linecap:butt;stroke-linejoin:miter;stroke-miterlimit:10;stroke-opacity:1;"/>
<path d="M 121.7,64.7 L 123.0,64.1 L 124.0,64.7" style="fill:none;stroke:#000000;stroke-width:2.0px;stroke-linecap:butt;stroke-linejoin:miter;stroke-miterlimit:10;stroke-opacity:1;"/>
<path d="M 74.0,32.8 L 74.1,31.3 L 72.9,30.5" style="fill:none;stroke:#000000;stroke-width:2.0px;stroke-linecap:butt;stroke-linejoin:miter;stroke-miterlimit:10;stroke-opacity:1;"/>
<path d="M 50.9,15.8 L 49.7,14.9 L 48.3,15.6" style="fill:none;stroke:#000000;stroke-width:2.0px;stroke-linecap:butt;stroke-linejoin:miter;stroke-miterlimit:10;stroke-opacity:1;"/>
<path d="M 24.6,27.3 L 23.2,27.9 L 23.1,29.4" style="fill:none;stroke:#000000;stroke-width:2.0px;stroke-linecap:butt;stroke-linejoin:miter;stroke-miterlimit:10;stroke-opacity:1;"/>
<path d="M 21.4,55.8 L 21.3,57.3 L 22.5,58.1" style="fill:none;stroke:#000000;stroke-width:2.0px;stroke-linecap:butt;stroke-linejoin:miter;stroke-miterlimit:10;stroke-opacity:1;"/>
<path class="atom-10" d="M 143.6 80.5 Q 143.6 78.5, 144.6 77.4 Q 145.6 76.2, 147.5 76.2 Q 149.3 76.2, 150.3 77.4 Q 151.3 78.5, 151.3 80.5 Q 151.3 82.5, 150.3 83.7 Q 149.3 84.8, 147.5 84.8 Q 145.6 84.8, 144.6 83.7 Q 143.6 82.5, 143.6 80.5 M 147.5 83.9 Q 148.7 83.9, 149.4 83.0 Q 150.1 82.2, 150.1 80.5 Q 150.1 78.8, 149.4 78.0 Q 148.7 77.2, 147.5 77.2 Q 146.2 77.2, 145.5 78.0 Q 144.8 78.8, 144.8 80.5 Q 144.8 82.2, 145.5 83.0 Q 146.2 83.9, 147.5 83.9 " fill="#000000"/>
<path class="atom-11" d="M 171.5 70.3 Q 171.6 70.4, 172.0 70.5 Q 172.4 70.7, 172.8 70.8 Q 173.2 70.9, 173.7 70.9 Q 174.5 70.9, 174.9 70.5 Q 175.4 70.1, 175.4 69.5 Q 175.4 69.0, 175.1 68.7 Q 174.9 68.4, 174.6 68.3 Q 174.2 68.1, 173.6 68.0 Q 172.9 67.7, 172.4 67.5 Q 172.0 67.3, 171.7 66.9 Q 171.4 66.4, 171.4 65.7 Q 171.4 64.6, 172.1 64.0 Q 172.8 63.3, 174.2 63.3 Q 175.2 63.3, 176.3 63.8 L 176.0 64.7 Q 175.0 64.3, 174.2 64.3 Q 173.4 64.3, 173.0 64.6 Q 172.5 64.9, 172.6 65.5 Q 172.6 66.0, 172.8 66.2 Q 173.0 66.5, 173.3 66.7 Q 173.7 66.8, 174.2 67.0 Q 175.0 67.2, 175.4 67.5 Q 175.9 67.7, 176.2 68.2 Q 176.5 68.7, 176.5 69.5 Q 176.5 70.6, 175.8 71.2 Q 175.0 71.9, 173.7 71.9 Q 173.0 71.9, 172.4 71.7 Q 171.9 71.5, 171.2 71.3 L 171.5 70.3 " fill="#000000"/>
<path class="atom-12" d="M 157.1 41.1 Q 157.1 39.1, 158.0 38.0 Q 159.0 36.8, 160.9 36.8 Q 162.7 36.8, 163.7 38.0 Q 164.7 39.1, 164.7 41.1 Q 164.7 43.1, 163.7 44.3 Q 162.7 45.4, 160.9 45.4 Q 159.0 45.4, 158.0 44.3 Q 157.1 43.1, 157.1 41.1 M 160.9 44.5 Q 162.2 44.5, 162.8 43.6 Q 163.5 42.8, 163.5 41.1 Q 163.5 39.4, 162.8 38.6 Q 162.2 37.8, 160.9 37.8 Q 159.6 37.8, 158.9 38.6 Q 158.2 39.4, 158.2 41.1 Q 158.2 42.8, 158.9 43.6 Q 159.6 44.5, 160.9 44.5 " fill="#000000"/>
<path class="atom-13" d="M 183.0 93.9 Q 183.0 91.9, 184.0 90.8 Q 185.0 89.7, 186.9 89.7 Q 188.7 89.7, 189.7 90.8 Q 190.7 91.9, 190.7 93.9 Q 190.7 95.9, 189.7 97.1 Q 188.7 98.2, 186.9 98.2 Q 185.0 98.2, 184.0 97.1 Q 183.0 95.9, 183.0 93.9 M 186.9 97.3 Q 188.1 97.3, 188.8 96.4 Q 189.5 95.6, 189.5 93.9 Q 189.5 92.3, 188.8 91.5 Q 188.1 90.6, 186.9 90.6 Q 185.6 90.6, 184.9 91.4 Q 184.2 92.3, 184.2 93.9 Q 184.2 95.6, 184.9 96.4 Q 185.6 97.3, 186.9 97.3 " fill="#000000"/>
<path class="atom-14" d="M 196.5 54.5 Q 196.5 52.5, 197.4 51.4 Q 198.4 50.3, 200.3 50.3 Q 202.1 50.3, 203.1 51.4 Q 204.1 52.5, 204.1 54.5 Q 204.1 56.5, 203.1 57.7 Q 202.1 58.8, 200.3 58.8 Q 198.4 58.8, 197.4 57.7 Q 196.5 56.5, 196.5 54.5 M 200.3 57.9 Q 201.6 57.9, 202.2 57.0 Q 202.9 56.2, 202.9 54.5 Q 202.9 52.9, 202.2 52.1 Q 201.6 51.2, 200.3 51.2 Q 199.0 51.2, 198.3 52.0 Q 197.6 52.9, 197.6 54.5 Q 197.6 56.2, 198.3 57.0 Q 199.0 57.9, 200.3 57.9 " fill="#000000"/>
<path class="atom-14" d="M 205.4 50.4 L 206.5 50.4 L 206.5 53.9 L 210.8 53.9 L 210.8 50.4 L 211.9 50.4 L 211.9 58.7 L 210.8 58.7 L 210.8 54.9 L 206.5 54.9 L 206.5 58.7 L 205.4 58.7 L 205.4 50.4 " fill="#000000"/>
</svg>