<svg xmlns="http://www.w3.org/2000/svg" xmlns:rdkit="http://www.rdkit.org/xml" xmlns:xlink="http://www.w3.org/1999/xlink" version="1.1" baseProfile="full" xml:space="preserve" width="293px" height="96px" viewBox="0 0 293 96">
<!-- END OF HEADER -->
<rect style="opacity:1.0;fill:#FFFFFF;stroke:none" width="293.0" height="96.0" x="0.0" y="0.0"> </rect>
<ellipse cx="16.7" cy="41.6" rx="1.1" ry="1.1" class="atom-0" style="fill:#FF7F7F;fill-rule:evenodd;stroke:#FF7F7F;stroke-width:1.0px;stroke-linecap:butt;stroke-linejoin:miter;stroke-opacity:1"/>
<ellipse cx="43.6" cy="30.0" rx="1.1" ry="1.1" class="atom-1" style="fill:#FF7F7F;fill-rule:evenodd;stroke:#FF7F7F;stroke-width:1.0px;stroke-linecap:butt;stroke-linejoin:miter;stroke-opacity:1"/>
<ellipse cx="67.2" cy="47.5" rx="4.5" ry="4.5" class="atom-2" style="fill:#FF7F7F;fill-rule:evenodd;stroke:#FF7F7F;stroke-width:1.0px;stroke-linecap:butt;stroke-linejoin:miter;stroke-opacity:1"/>
<ellipse cx="66.8" cy="76.9" rx="4.5" ry="4.5" class="atom-3" style="fill:#FF7F7F;fill-rule:evenodd;stroke:#FF7F7F;stroke-width:1.0px;stroke-linecap:butt;stroke-linejoin:miter;stroke-opacity:1"/>
<ellipse cx="94.7" cy="86.3" rx="4.5" ry="4.5" class="atom-4" style="fill:#FF7F7F;fill-rule:evenodd;stroke:#FF7F7F;stroke-width:1.0px;stroke-linecap:butt;stroke-linejoin:miter;stroke-opacity:1"/>
<ellipse cx="112.2" cy="62.7" rx="4.5" ry="4.5" class="atom-5" style="fill:#FF7F7F;fill-rule:evenodd;stroke:#FF7F7F;stroke-width:1.0px;stroke-linecap:butt;stroke-linejoin:miter;stroke-opacity:1"/>
<ellipse cx="141.4" cy="60.0" rx="4.5" ry="4.5" class="atom-6" style="fill:#FF7F7F;fill-rule:evenodd;stroke:#FF7F7F;stroke-width:1.0px;stroke-linecap:butt;stroke-linejoin:miter;stroke-opacity:1"/>
<ellipse cx="153.7" cy="33.3" rx="4.5" ry="4.5" class="atom-7" style="fill:#FF7F7F;fill-rule:evenodd;stroke:#FF7F7F;stroke-width:1.0px;stroke-linecap:butt;stroke-linejoin:miter;stroke-opacity:1"/>
<ellipse cx="182.9" cy="30.6" rx="0.1" ry="0.1" class="atom-8" style="fill:#FF7F7F;fill-rule:evenodd;stroke:#FF7F7F;stroke-width:1.0px;stroke-linecap:butt;stroke-linejoin:miter;stroke-opacity:1"/>
<ellipse cx="199.9" cy="54.5" rx="2.8" ry="2.8" class="atom-9" style="fill:#FF7F7F;fill-rule:evenodd;stroke:#FF7F7F;stroke-width:1.0px;stroke-linecap:butt;stroke-linejoin:miter;stroke-opacity:1"/>
<ellipse cx="229.2" cy="51.8" rx="20.9" ry="20.9" class="atom-10" style="fill:#FF7F7F;fill-rule:evenodd;stroke:#FF7F7F;stroke-width:1.0px;stroke-linecap:butt;stroke-linejoin:miter;stroke-opacity:1"/>
<ellipse cx="253.1" cy="34.8" rx="20.9" ry="20.9" class="atom-11" style="fill:#FF7F7F;fill-rule:evenodd;stroke:#FF7F7F;stroke-width:1.0px;stroke-linecap:butt;stroke-linejoin:miter;stroke-opacity:1"/>
<ellipse cx="255.9" cy="64.0" rx="20.9" ry="20.9" class="atom-12" style="fill:#FF7F7F;fill-rule:evenodd;stroke:#FF7F7F;stroke-width:1.0px;stroke-linecap:butt;stroke-linejoin:miter;stroke-opacity:1"/>
<ellipse cx="136.7" cy="9.3" rx="4.5" ry="4.5" class="atom-13" style="fill:#FF7F7F;fill-rule:evenodd;stroke:#FF7F7F;stroke-width:1.0px;stroke-linecap:butt;stroke-linejoin:miter;stroke-opacity:1"/>
<ellipse cx="107.5" cy="12.1" rx="4.5" ry="4.5" class="atom-14" style="fill:#FF7F7F;fill-rule:evenodd;stroke:#FF7F7F;stroke-width:1.0px;stroke-linecap:butt;stroke-linejoin:miter;stroke-opacity:1"/>
<ellipse cx="95.2" cy="38.8" rx="4.5" ry="4.5" class="atom-15" style="fill:#FF7F7F;fill-rule:evenodd;stroke:#FF7F7F;stroke-width:1.0px;stroke-linecap:butt;stroke-linejoin:miter;stroke-opacity:1"/>
<path class="bond-0 atom-0 atom-1" d="M 16.7,41.6 L 38.8,32.0" style="fill:none;fill-rule:evenodd;stroke:#000000;stroke-width:2.0px;stroke-linecap:butt;stroke-linejoin:miter;stroke-opacity:1"/>
<path class="bond-1 atom-1 atom-2" d="M 48.4,33.5 L 67.2,47.5" style="fill:none;fill-rule:evenodd;stroke:#000000;stroke-width:2.0px;stroke-linecap:butt;stroke-linejoin:miter;stroke-opacity:1"/>
<path class="bond-2 atom-2 atom-3" d="M 67.2,47.5 L 66.9,71.7" style="fill:none;fill-rule:evenodd;stroke:#000000;stroke-width:2.0px;stroke-linecap:butt;stroke-linejoin:miter;stroke-opacity:1"/>
<path class="bond-2 atom-2 atom-3" d="M 71.5,50.8 L 71.3,71.8" style="fill:none;fill-rule:evenodd;stroke:#000000;stroke-width:2.0px;stroke-linecap:butt;stroke-linejoin:miter;stroke-opacity:1"/>
<path class="bond-3 atom-3 atom-4" d="M 71.0,78.3 L 91.0,85.0" style="fill:none;fill-rule:evenodd;stroke:#000000;stroke-width:2.0px;stroke-linecap:butt;stroke-linejoin:miter;stroke-opacity:1"/>
<path class="bond-4 atom-4 atom-5" d="M 98.3,81.4 L 112.2,62.7" style="fill:none;fill-rule:evenodd;stroke:#000000;stroke-width:2.0px;stroke-linecap:butt;stroke-linejoin:miter;stroke-opacity:1"/>
<path class="bond-5 atom-5 atom-6" d="M 112.2,62.7 L 141.4,60.0" style="fill:none;fill-rule:evenodd;stroke:#000000;stroke-width:2.0px;stroke-linecap:butt;stroke-linejoin:miter;stroke-opacity:1"/>
<path class="bond-5 atom-5 atom-6" d="M 114.3,58.1 L 138.5,55.8" style="fill:none;fill-rule:evenodd;stroke:#000000;stroke-width:2.0px;stroke-linecap:butt;stroke-linejoin:miter;stroke-opacity:1"/>
<path class="bond-6 atom-6 atom-7" d="M 141.4,60.0 L 153.7,33.3" style="fill:none;fill-rule:evenodd;stroke:#000000;stroke-width:2.0px;stroke-linecap:butt;stroke-linejoin:miter;stroke-opacity:1"/>
<path class="bond-7 atom-7 atom-8" d="M 153.7,33.3 L 178.1,31.0" style="fill:none;fill-rule:evenodd;stroke:#000000;stroke-width:2.0px;stroke-linecap:butt;stroke-linejoin:miter;stroke-opacity:1"/>
<path class="bond-8 atom-8 atom-9" d="M 186.7,35.9 L 199.9,54.5" style="fill:none;fill-rule:evenodd;stroke:#000000;stroke-width:2.0px;stroke-linecap:butt;stroke-linejoin:miter;stroke-opacity:1"/>
<path class="bond-9 atom-9 atom-10" d="M 199.9,54.5 L 229.2,51.8" style="fill:none;fill-rule:evenodd;stroke:#000000;stroke-width:2.0px;stroke-linecap:butt;stroke-linejoin:miter;stroke-opacity:1"/>
<path class="bond-10 atom-10 atom-11" d="M 229.2,51.8 L 253.1,34.8" style="fill:none;fill-rule:evenodd;stroke:#000000;stroke-width:2.0px;stroke-linecap:butt;stroke-linejoin:miter;stroke-opacity:1"/>
<path class="bond-11 atom-11 atom-12" d="M 253.1,34.8 L 255.4,58.9" style="fill:none;fill-rule:evenodd;stroke:#000000;stroke-width:2.0px;stroke-linecap:butt;stroke-linejoin:miter;stroke-opacity:1"/>
<path class="bond-12 atom-7 atom-13" d="M 153.7,33.3 L 136.7,9.3" style="fill:none;fill-rule:evenodd;stroke:#000000;stroke-width:2.0px;stroke-linecap:butt;stroke-linejoin:miter;stroke-opacity:1"/>
<path class="bond-12 atom-7 atom-13" d="M 148.6,33.8 L 134.6,14.0" style="fill:none;fill-rule:evenodd;stroke:#000000;stroke-width:2.0px;stroke-linecap:butt;stroke-linejoin:miter;stroke-opacity:1"/>
<path class="bond-13 atom-13 atom-14" d="M 136.7,9.3 L 107.5,12.1" style="fill:none;fill-rule:evenodd;stroke:#000000;stroke-width:2.0px;stroke-linecap:butt;stroke-linejoin:miter;stroke-opacity:1"/>
<path class="bond-14 atom-14 atom-15" d="M 107.5,12.1 L 95.2,38.8" style="fill:none;fill-rule:evenodd;stroke:#000000;stroke-width:2.0px;stroke-linecap:butt;stroke-linejoin:miter;stroke-opacity:1"/>
<path class="bond-14 atom-14 atom-15" d="M 110.4,16.2 L 100.3,38.3" style="fill:none;fill-rule:evenodd;stroke:#000000;stroke-width:2.0px;stroke-linecap:butt;stroke-linejoin:miter;stroke-opacity:1"/>
<path class="bond-15 atom-15 atom-2" d="M 95.2,38.8 L 67.2,47.5" style="fill:none;fill-rule:evenodd;stroke:#000000;stroke-width:2.0px;stroke-linecap:butt;stroke-linejoin:miter;stroke-opacity:1"/>
<path class="bond-16 atom-15 atom-5" d="M 95.2,38.8 L 112.2,62.7" style="fill:none;fill-rule:evenodd;stroke:#000000;stroke-width:2.0px;stroke-linecap:butt;stroke-linejoin:miter;stroke-opacity:1"/>
<path class="bond-17 atom-12 atom-10" d="M 251.1,61.8 L 229.2,51.8" style="fill:none;fill-rule:evenodd;stroke:#000000;stroke-width:2.0px;stroke-linecap:butt;stroke-linejoin:miter;stroke-opacity:1"/>
<path d="M 140.0,60.1 L 141.4,60.0 L 142.1,58.6" style="fill:none;stroke:#000000;stroke-width:2.0px;stroke-linecap:butt;stroke-linejoin:miter;stroke-miterlimit:10;stroke-opacity:1;"/>
<path d="M 199.3,53.6 L 199.9,54.5 L 201.4,54.4" style="fill:none;stroke:#000000;stroke-width:2.0px;stroke-linecap:butt;stroke-linejoin:miter;stroke-miterlimit:10;stroke-opacity:1;"/>
<path d="M 251.9,35.6 L 253.1,34.8 L 253.2,36.0" style="fill:none;stroke:#000000;stroke-width:2.0px;stroke-linecap:butt;stroke-linejoin:miter;stroke-miterlimit:10;stroke-opacity:1;"/>
<path d="M 137.6,10.5 L 136.7,9.3 L 135.2,9.5" style="fill:none;stroke:#000000;stroke-width:2.0px;stroke-linecap:butt;stroke-linejoin:miter;stroke-miterlimit:10;stroke-opacity:1;"/>
<path d="M 108.9,11.9 L 107.5,12.1 L 106.9,13.4" style="fill:none;stroke:#000000;stroke-width:2.0px;stroke-linecap:butt;stroke-linejoin:miter;stroke-miterlimit:10;stroke-opacity:1;"/>
<path class="atom-1" d="M 39.8 30.0 Q 39.8 28.0, 40.8 26.9 Q 41.8 25.8, 43.6 25.8 Q 45.5 25.8, 46.4 26.9 Q 47.4 28.0, 47.4 30.0 Q 47.4 32.0, 46.4 33.2 Q 45.4 34.3, 43.6 34.3 Q 41.8 34.3, 40.8 33.2 Q 39.8 32.0, 39.8 30.0 M 43.6 33.4 Q 44.9 33.4, 45.6 32.5 Q 46.3 31.7, 46.3 30.0 Q 46.3 28.4, 45.6 27.5 Q 44.9 26.7, 43.6 26.7 Q 42.4 26.7, 41.7 27.5 Q 41.0 28.3, 41.0 30.0 Q 41.0 31.7, 41.7 32.5 Q 42.4 33.4, 43.6 33.4 " fill="#000000"/>
<path class="atom-3" d="M 65.0 72.7 L 67.7 77.1 Q 68.0 77.6, 68.4 78.3 Q 68.9 79.1, 68.9 79.2 L 68.9 72.7 L 70.0 72.7 L 70.0 81.0 L 68.9 81.0 L 65.9 76.2 Q 65.6 75.6, 65.2 75.0 Q 64.9 74.4, 64.8 74.2 L 64.8 81.0 L 63.7 81.0 L 63.7 72.7 L 65.0 72.7 " fill="#000000"/>
<path class="atom-4" d="M 92.3 89.1 Q 92.4 89.2, 92.8 89.3 Q 93.2 89.5, 93.6 89.6 Q 94.0 89.7, 94.5 89.7 Q 95.2 89.7, 95.7 89.3 Q 96.2 88.9, 96.2 88.3 Q 96.2 87.8, 95.9 87.5 Q 95.7 87.2, 95.4 87.1 Q 95.0 86.9, 94.4 86.7 Q 93.7 86.5, 93.2 86.3 Q 92.8 86.1, 92.5 85.7 Q 92.2 85.2, 92.2 84.5 Q 92.2 83.4, 92.9 82.8 Q 93.6 82.1, 95.0 82.1 Q 96.0 82.1, 97.1 82.6 L 96.8 83.5 Q 95.8 83.1, 95.0 83.1 Q 94.2 83.1, 93.8 83.4 Q 93.3 83.7, 93.3 84.3 Q 93.3 84.8, 93.6 85.0 Q 93.8 85.3, 94.1 85.5 Q 94.5 85.6, 95.0 85.8 Q 95.8 86.0, 96.2 86.3 Q 96.7 86.5, 97.0 87.0 Q 97.3 87.4, 97.3 88.3 Q 97.3 89.4, 96.6 90.0 Q 95.8 90.6, 94.5 90.6 Q 93.8 90.6, 93.2 90.5 Q 92.7 90.3, 92.0 90.1 L 92.3 89.1 " fill="#000000"/>
<path class="atom-8" d="M 179.1 30.6 Q 179.1 28.6, 180.1 27.5 Q 181.1 26.4, 182.9 26.4 Q 184.8 26.4, 185.8 27.5 Q 186.8 28.6, 186.8 30.6 Q 186.8 32.6, 185.8 33.8 Q 184.8 34.9, 182.9 34.9 Q 181.1 34.9, 180.1 33.8 Q 179.1 32.6, 179.1 30.6 M 182.9 34.0 Q 184.2 34.0, 184.9 33.1 Q 185.6 32.2, 185.6 30.6 Q 185.6 28.9, 184.9 28.1 Q 184.2 27.3, 182.9 27.3 Q 181.7 27.3, 181.0 28.1 Q 180.3 28.9, 180.3 30.6 Q 180.3 32.3, 181.0 33.1 Q 181.7 34.0, 182.9 34.0 " fill="#000000"/>
<path class="atom-12" d="M 252.0 64.1 Q 252.0 62.1, 253.0 60.9 Q 254.0 59.8, 255.9 59.8 Q 257.7 59.8, 258.7 60.9 Q 259.7 62.1, 259.7 64.1 Q 259.7 66.1, 258.7 67.2 Q 257.7 68.4, 255.9 68.4 Q 254.0 68.4, 253.0 67.2 Q 252.0 66.1, 252.0 64.1 M 255.9 67.4 Q 257.1 67.4, 257.8 66.6 Q 258.5 65.7, 258.5 64.1 Q 258.5 62.4, 257.8 61.6 Q 257.1 60.8, 255.9 60.8 Q 254.6 60.8, 253.9 61.6 Q 253.2 62.4, 253.2 64.1 Q 253.2 65.7, 253.9 66.6 Q 254.6 67.4, 255.9 67.4 " fill="#000000"/>
</svg>