<svg xmlns="http://www.w3.org/2000/svg" xmlns:rdkit="http://www.rdkit.org/xml" xmlns:xlink="http://www.w3.org/1999/xlink" version="1.1" baseProfile="full" xml:space="preserve" width="319px" height="269px" viewBox="0 0 319 269">
<!-- END OF HEADER -->
<rect style="opacity:1.0;fill:#FFFFFF;stroke:none" width="319.0" height="269.0" x="0.0" y="0.0"> </rect>
<ellipse cx="240.6" cy="172.5" rx="7.2" ry="7.2" class="atom-0" style="fill:#7F7FFF;fill-rule:evenodd;stroke:#7F7FFF;stroke-width:1.0px;stroke-linecap:butt;stroke-linejoin:miter;stroke-opacity:1"/>
<ellipse cx="221.1" cy="150.4" rx="7.2" ry="7.2" class="atom-1" style="fill:#7F7FFF;fill-rule:evenodd;stroke:#7F7FFF;stroke-width:1.0px;stroke-linecap:butt;stroke-linejoin:miter;stroke-opacity:1"/>
<ellipse cx="234.2" cy="124.0" rx="7.2" ry="7.2" class="atom-2" style="fill:#7F7FFF;fill-rule:evenodd;stroke:#7F7FFF;stroke-width:1.0px;stroke-linecap:butt;stroke-linejoin:miter;stroke-opacity:1"/>
<ellipse cx="213.2" cy="103.4" rx="7.2" ry="7.2" class="atom-3" style="fill:#7F7FFF;fill-rule:evenodd;stroke:#7F7FFF;stroke-width:1.0px;stroke-linecap:butt;stroke-linejoin:miter;stroke-opacity:1"/>
<ellipse cx="217.5" cy="74.3" rx="2.5" ry="2.5" class="atom-4" style="fill:#FF7F7F;fill-rule:evenodd;stroke:#FF7F7F;stroke-width:1.0px;stroke-linecap:butt;stroke-linejoin:miter;stroke-opacity:1"/>
<ellipse cx="194.4" cy="55.9" rx="2.5" ry="2.5" class="atom-5" style="fill:#FF7F7F;fill-rule:evenodd;stroke:#FF7F7F;stroke-width:1.0px;stroke-linecap:butt;stroke-linejoin:miter;stroke-opacity:1"/>
<ellipse cx="198.8" cy="26.8" rx="2.5" ry="2.5" class="atom-6" style="fill:#FF7F7F;fill-rule:evenodd;stroke:#FF7F7F;stroke-width:1.0px;stroke-linecap:butt;stroke-linejoin:miter;stroke-opacity:1"/>
<ellipse cx="226.2" cy="16.0" rx="2.5" ry="2.5" class="atom-7" style="fill:#FF7F7F;fill-rule:evenodd;stroke:#FF7F7F;stroke-width:1.0px;stroke-linecap:butt;stroke-linejoin:miter;stroke-opacity:1"/>
<ellipse cx="249.3" cy="34.3" rx="2.5" ry="2.5" class="atom-8" style="fill:#FF7F7F;fill-rule:evenodd;stroke:#FF7F7F;stroke-width:1.0px;stroke-linecap:butt;stroke-linejoin:miter;stroke-opacity:1"/>
<ellipse cx="276.7" cy="23.5" rx="2.5" ry="2.5" class="atom-9" style="fill:#FF7F7F;fill-rule:evenodd;stroke:#FF7F7F;stroke-width:1.0px;stroke-linecap:butt;stroke-linejoin:miter;stroke-opacity:1"/>
<ellipse cx="299.8" cy="41.8" rx="2.5" ry="2.5" class="atom-10" style="fill:#FF7F7F;fill-rule:evenodd;stroke:#FF7F7F;stroke-width:1.0px;stroke-linecap:butt;stroke-linejoin:miter;stroke-opacity:1"/>
<ellipse cx="295.4" cy="71.0" rx="2.5" ry="2.5" class="atom-11" style="fill:#FF7F7F;fill-rule:evenodd;stroke:#FF7F7F;stroke-width:1.0px;stroke-linecap:butt;stroke-linejoin:miter;stroke-opacity:1"/>
<ellipse cx="268.0" cy="81.8" rx="2.5" ry="2.5" class="atom-12" style="fill:#FF7F7F;fill-rule:evenodd;stroke:#FF7F7F;stroke-width:1.0px;stroke-linecap:butt;stroke-linejoin:miter;stroke-opacity:1"/>
<ellipse cx="244.9" cy="63.4" rx="2.5" ry="2.5" class="atom-13" style="fill:#FF7F7F;fill-rule:evenodd;stroke:#FF7F7F;stroke-width:1.0px;stroke-linecap:butt;stroke-linejoin:miter;stroke-opacity:1"/>
<ellipse cx="187.0" cy="117.0" rx="7.2" ry="7.2" class="atom-14" style="fill:#7F7FFF;fill-rule:evenodd;stroke:#7F7FFF;stroke-width:1.0px;stroke-linecap:butt;stroke-linejoin:miter;stroke-opacity:1"/>
<ellipse cx="160.7" cy="103.9" rx="7.2" ry="7.2" class="atom-15" style="fill:#7F7FFF;fill-rule:evenodd;stroke:#7F7FFF;stroke-width:1.0px;stroke-linecap:butt;stroke-linejoin:miter;stroke-opacity:1"/>
<ellipse cx="191.9" cy="146.1" rx="7.2" ry="7.2" class="atom-16" style="fill:#7F7FFF;fill-rule:evenodd;stroke:#7F7FFF;stroke-width:1.0px;stroke-linecap:butt;stroke-linejoin:miter;stroke-opacity:1"/>
<ellipse cx="163.4" cy="138.7" rx="7.2" ry="7.2" class="atom-17" style="fill:#7F7FFF;fill-rule:evenodd;stroke:#7F7FFF;stroke-width:1.0px;stroke-linecap:butt;stroke-linejoin:miter;stroke-opacity:1"/>
<ellipse cx="142.7" cy="159.7" rx="7.2" ry="7.2" class="atom-18" style="fill:#7F7FFF;fill-rule:evenodd;stroke:#7F7FFF;stroke-width:1.0px;stroke-linecap:butt;stroke-linejoin:miter;stroke-opacity:1"/>
<ellipse cx="114.2" cy="152.4" rx="0.1" ry="0.1" class="atom-19" style="fill:#7F7FFF;fill-rule:evenodd;stroke:#7F7FFF;stroke-width:1.0px;stroke-linecap:butt;stroke-linejoin:miter;stroke-opacity:1"/>
<ellipse cx="106.3" cy="124.0" rx="0.1" ry="0.1" class="atom-20" style="fill:#7F7FFF;fill-rule:evenodd;stroke:#7F7FFF;stroke-width:1.0px;stroke-linecap:butt;stroke-linejoin:miter;stroke-opacity:1"/>
<ellipse cx="127.0" cy="103.0" rx="0.1" ry="0.1" class="atom-21" style="fill:#7F7FFF;fill-rule:evenodd;stroke:#7F7FFF;stroke-width:1.0px;stroke-linecap:butt;stroke-linejoin:miter;stroke-opacity:1"/>
<ellipse cx="77.8" cy="116.6" rx="0.3" ry="0.3" class="atom-22" style="fill:#7F7FFF;fill-rule:evenodd;stroke:#7F7FFF;stroke-width:1.0px;stroke-linecap:butt;stroke-linejoin:miter;stroke-opacity:1"/>
<ellipse cx="69.9" cy="88.2" rx="0.1" ry="0.1" class="atom-23" style="fill:#7F7FFF;fill-rule:evenodd;stroke:#7F7FFF;stroke-width:1.0px;stroke-linecap:butt;stroke-linejoin:miter;stroke-opacity:1"/>
<ellipse cx="41.4" cy="80.9" rx="0.4" ry="0.4" class="atom-24" style="fill:#7F7FFF;fill-rule:evenodd;stroke:#7F7FFF;stroke-width:1.0px;stroke-linecap:butt;stroke-linejoin:miter;stroke-opacity:1"/>
<ellipse cx="29.2" cy="107.7" rx="0.4" ry="0.4" class="atom-25" style="fill:#7F7FFF;fill-rule:evenodd;stroke:#7F7FFF;stroke-width:1.0px;stroke-linecap:butt;stroke-linejoin:miter;stroke-opacity:1"/>
<ellipse cx="17.1" cy="64.2" rx="0.4" ry="0.4" class="atom-26" style="fill:#7F7FFF;fill-rule:evenodd;stroke:#7F7FFF;stroke-width:1.0px;stroke-linecap:butt;stroke-linejoin:miter;stroke-opacity:1"/>
<ellipse cx="43.7" cy="51.5" rx="0.4" ry="0.4" class="atom-27" style="fill:#7F7FFF;fill-rule:evenodd;stroke:#7F7FFF;stroke-width:1.0px;stroke-linecap:butt;stroke-linejoin:miter;stroke-opacity:1"/>
<ellipse cx="150.6" cy="188.1" rx="7.2" ry="7.2" class="atom-28" style="fill:#7F7FFF;fill-rule:evenodd;stroke:#7F7FFF;stroke-width:1.0px;stroke-linecap:butt;stroke-linejoin:miter;stroke-opacity:1"/>
<ellipse cx="130.0" cy="209.2" rx="7.2" ry="7.2" class="atom-29" style="fill:#7F7FFF;fill-rule:evenodd;stroke:#7F7FFF;stroke-width:1.0px;stroke-linecap:butt;stroke-linejoin:miter;stroke-opacity:1"/>
<ellipse cx="179.2" cy="195.5" rx="7.2" ry="7.2" class="atom-30" style="fill:#7F7FFF;fill-rule:evenodd;stroke:#7F7FFF;stroke-width:1.0px;stroke-linecap:butt;stroke-linejoin:miter;stroke-opacity:1"/>
<ellipse cx="187.0" cy="223.9" rx="7.2" ry="7.2" class="atom-31" style="fill:#7F7FFF;fill-rule:evenodd;stroke:#7F7FFF;stroke-width:1.0px;stroke-linecap:butt;stroke-linejoin:miter;stroke-opacity:1"/>
<ellipse cx="215.6" cy="231.3" rx="7.2" ry="7.2" class="atom-32" style="fill:#7F7FFF;fill-rule:evenodd;stroke:#7F7FFF;stroke-width:1.0px;stroke-linecap:butt;stroke-linejoin:miter;stroke-opacity:1"/>
<ellipse cx="236.2" cy="210.2" rx="7.2" ry="7.2" class="atom-33" style="fill:#7F7FFF;fill-rule:evenodd;stroke:#7F7FFF;stroke-width:1.0px;stroke-linecap:butt;stroke-linejoin:miter;stroke-opacity:1"/>
<ellipse cx="264.8" cy="217.6" rx="7.2" ry="7.2" class="atom-34" style="fill:#7F7FFF;fill-rule:evenodd;stroke:#7F7FFF;stroke-width:1.0px;stroke-linecap:butt;stroke-linejoin:miter;stroke-opacity:1"/>
<ellipse cx="228.3" cy="181.8" rx="7.2" ry="7.2" class="atom-35" style="fill:#7F7FFF;fill-rule:evenodd;stroke:#7F7FFF;stroke-width:1.0px;stroke-linecap:butt;stroke-linejoin:miter;stroke-opacity:1"/>
<ellipse cx="199.8" cy="174.5" rx="7.2" ry="7.2" class="atom-36" style="fill:#7F7FFF;fill-rule:evenodd;stroke:#7F7FFF;stroke-width:1.0px;stroke-linecap:butt;stroke-linejoin:miter;stroke-opacity:1"/>
<path class="bond-0 atom-1 atom-0" d="M 223.7,153.0 L 223.3,153.4" style="fill:none;fill-rule:evenodd;stroke:#000000;stroke-width:1.0px;stroke-linecap:butt;stroke-linejoin:miter;stroke-opacity:1"/>
<path class="bond-0 atom-1 atom-0" d="M 226.4,155.6 L 225.5,156.3" style="fill:none;fill-rule:evenodd;stroke:#000000;stroke-width:1.0px;stroke-linecap:butt;stroke-linejoin:miter;stroke-opacity:1"/>
<path class="bond-0 atom-1 atom-0" d="M 229.0,158.1 L 227.8,159.2" style="fill:none;fill-rule:evenodd;stroke:#000000;stroke-width:1.0px;stroke-linecap:butt;stroke-linejoin:miter;stroke-opacity:1"/>
<path class="bond-0 atom-1 atom-0" d="M 231.7,160.7 L 230.0,162.2" style="fill:none;fill-rule:evenodd;stroke:#000000;stroke-width:1.0px;stroke-linecap:butt;stroke-linejoin:miter;stroke-opacity:1"/>
<path class="bond-0 atom-1 atom-0" d="M 234.3,163.3 L 232.2,165.1" style="fill:none;fill-rule:evenodd;stroke:#000000;stroke-width:1.0px;stroke-linecap:butt;stroke-linejoin:miter;stroke-opacity:1"/>
<path class="bond-0 atom-1 atom-0" d="M 237.0,165.9 L 234.5,168.1" style="fill:none;fill-rule:evenodd;stroke:#000000;stroke-width:1.0px;stroke-linecap:butt;stroke-linejoin:miter;stroke-opacity:1"/>
<path class="bond-0 atom-1 atom-0" d="M 239.6,168.4 L 236.7,171.0" style="fill:none;fill-rule:evenodd;stroke:#000000;stroke-width:1.0px;stroke-linecap:butt;stroke-linejoin:miter;stroke-opacity:1"/>
<path class="bond-0 atom-1 atom-0" d="M 242.3,171.0 L 238.9,173.9" style="fill:none;fill-rule:evenodd;stroke:#000000;stroke-width:1.0px;stroke-linecap:butt;stroke-linejoin:miter;stroke-opacity:1"/>
<path class="bond-1 atom-1 atom-2" d="M 221.1,150.4 L 234.2,124.0" style="fill:none;fill-rule:evenodd;stroke:#000000;stroke-width:2.0px;stroke-linecap:butt;stroke-linejoin:miter;stroke-opacity:1"/>
<path class="bond-2 atom-2 atom-3" d="M 234.2,124.0 L 217.3,107.5" style="fill:none;fill-rule:evenodd;stroke:#000000;stroke-width:2.0px;stroke-linecap:butt;stroke-linejoin:miter;stroke-opacity:1"/>
<path class="bond-3 atom-3 atom-4" d="M 213.9,98.3 L 217.5,74.3" style="fill:none;fill-rule:evenodd;stroke:#000000;stroke-width:2.0px;stroke-linecap:butt;stroke-linejoin:miter;stroke-opacity:1"/>
<path class="bond-4 atom-4 atom-5" d="M 217.5,74.3 L 194.4,55.9" style="fill:none;fill-rule:evenodd;stroke:#000000;stroke-width:2.0px;stroke-linecap:butt;stroke-linejoin:miter;stroke-opacity:1"/>
<path class="bond-4 atom-4 atom-5" d="M 218.3,69.2 L 199.2,54.0" style="fill:none;fill-rule:evenodd;stroke:#000000;stroke-width:2.0px;stroke-linecap:butt;stroke-linejoin:miter;stroke-opacity:1"/>
<path class="bond-5 atom-5 atom-6" d="M 194.4,55.9 L 198.0,31.9" style="fill:none;fill-rule:evenodd;stroke:#000000;stroke-width:2.0px;stroke-linecap:butt;stroke-linejoin:miter;stroke-opacity:1"/>
<path class="bond-6 atom-6 atom-7" d="M 202.9,25.1 L 226.2,16.0" style="fill:none;fill-rule:evenodd;stroke:#000000;stroke-width:2.0px;stroke-linecap:butt;stroke-linejoin:miter;stroke-opacity:1"/>
<path class="bond-6 atom-6 atom-7" d="M 204.5,29.3 L 225.4,21.0" style="fill:none;fill-rule:evenodd;stroke:#000000;stroke-width:2.0px;stroke-linecap:butt;stroke-linejoin:miter;stroke-opacity:1"/>
<path class="bond-7 atom-7 atom-8" d="M 226.2,16.0 L 249.3,34.3" style="fill:none;fill-rule:evenodd;stroke:#000000;stroke-width:2.0px;stroke-linecap:butt;stroke-linejoin:miter;stroke-opacity:1"/>
<path class="bond-8 atom-8 atom-9" d="M 249.3,34.3 L 276.7,23.5" style="fill:none;fill-rule:evenodd;stroke:#000000;stroke-width:2.0px;stroke-linecap:butt;stroke-linejoin:miter;stroke-opacity:1"/>
<path class="bond-8 atom-8 atom-9" d="M 253.3,37.5 L 275.9,28.5" style="fill:none;fill-rule:evenodd;stroke:#000000;stroke-width:2.0px;stroke-linecap:butt;stroke-linejoin:miter;stroke-opacity:1"/>
<path class="bond-9 atom-9 atom-10" d="M 276.7,23.5 L 299.8,41.8" style="fill:none;fill-rule:evenodd;stroke:#000000;stroke-width:2.0px;stroke-linecap:butt;stroke-linejoin:miter;stroke-opacity:1"/>
<path class="bond-10 atom-10 atom-11" d="M 299.8,41.8 L 295.4,71.0" style="fill:none;fill-rule:evenodd;stroke:#000000;stroke-width:2.0px;stroke-linecap:butt;stroke-linejoin:miter;stroke-opacity:1"/>
<path class="bond-10 atom-10 atom-11" d="M 295.0,43.7 L 291.4,67.8" style="fill:none;fill-rule:evenodd;stroke:#000000;stroke-width:2.0px;stroke-linecap:butt;stroke-linejoin:miter;stroke-opacity:1"/>
<path class="bond-11 atom-11 atom-12" d="M 295.4,71.0 L 268.0,81.8" style="fill:none;fill-rule:evenodd;stroke:#000000;stroke-width:2.0px;stroke-linecap:butt;stroke-linejoin:miter;stroke-opacity:1"/>
<path class="bond-12 atom-12 atom-13" d="M 268.0,81.8 L 244.9,63.4" style="fill:none;fill-rule:evenodd;stroke:#000000;stroke-width:2.0px;stroke-linecap:butt;stroke-linejoin:miter;stroke-opacity:1"/>
<path class="bond-12 atom-12 atom-13" d="M 268.7,76.7 L 249.7,61.6" style="fill:none;fill-rule:evenodd;stroke:#000000;stroke-width:2.0px;stroke-linecap:butt;stroke-linejoin:miter;stroke-opacity:1"/>
<path class="bond-13 atom-3 atom-14" d="M 209.0,105.6 L 187.0,117.0" style="fill:none;fill-rule:evenodd;stroke:#000000;stroke-width:2.0px;stroke-linecap:butt;stroke-linejoin:miter;stroke-opacity:1"/>
<path class="bond-14 atom-14 atom-15" d="M 189.5,115.8 L 166.5,104.3" style="fill:none;fill-rule:evenodd;stroke:#000000;stroke-width:2.0px;stroke-linecap:butt;stroke-linejoin:miter;stroke-opacity:1"/>
<path class="bond-14 atom-14 atom-15" d="M 187.5,119.7 L 164.5,108.2" style="fill:none;fill-rule:evenodd;stroke:#000000;stroke-width:2.0px;stroke-linecap:butt;stroke-linejoin:miter;stroke-opacity:1"/>
<path class="bond-15 atom-14 atom-16" d="M 187.0,117.0 L 191.9,146.1" style="fill:none;fill-rule:evenodd;stroke:#000000;stroke-width:2.0px;stroke-linecap:butt;stroke-linejoin:miter;stroke-opacity:1"/>
<path class="bond-16 atom-16 atom-17" d="M 188.4,144.9 L 188.3,145.5" style="fill:none;fill-rule:evenodd;stroke:#000000;stroke-width:1.0px;stroke-linecap:butt;stroke-linejoin:miter;stroke-opacity:1"/>
<path class="bond-16 atom-16 atom-17" d="M 184.9,143.6 L 184.6,144.8" style="fill:none;fill-rule:evenodd;stroke:#000000;stroke-width:1.0px;stroke-linecap:butt;stroke-linejoin:miter;stroke-opacity:1"/>
<path class="bond-16 atom-16 atom-17" d="M 181.5,142.4 L 181.0,144.2" style="fill:none;fill-rule:evenodd;stroke:#000000;stroke-width:1.0px;stroke-linecap:butt;stroke-linejoin:miter;stroke-opacity:1"/>
<path class="bond-16 atom-16 atom-17" d="M 178.0,141.2 L 177.3,143.6" style="fill:none;fill-rule:evenodd;stroke:#000000;stroke-width:1.0px;stroke-linecap:butt;stroke-linejoin:miter;stroke-opacity:1"/>
<path class="bond-16 atom-16 atom-17" d="M 174.5,139.9 L 173.7,143.0" style="fill:none;fill-rule:evenodd;stroke:#000000;stroke-width:1.0px;stroke-linecap:butt;stroke-linejoin:miter;stroke-opacity:1"/>
<path class="bond-16 atom-16 atom-17" d="M 171.0,138.7 L 170.1,142.4" style="fill:none;fill-rule:evenodd;stroke:#000000;stroke-width:1.0px;stroke-linecap:butt;stroke-linejoin:miter;stroke-opacity:1"/>
<path class="bond-16 atom-16 atom-17" d="M 167.5,137.5 L 166.4,141.8" style="fill:none;fill-rule:evenodd;stroke:#000000;stroke-width:1.0px;stroke-linecap:butt;stroke-linejoin:miter;stroke-opacity:1"/>
<path class="bond-17 atom-17 atom-18" d="M 163.4,138.7 L 146.9,155.5" style="fill:none;fill-rule:evenodd;stroke:#000000;stroke-width:2.0px;stroke-linecap:butt;stroke-linejoin:miter;stroke-opacity:1"/>
<path class="bond-18 atom-18 atom-19" d="M 138.6,158.7 L 114.2,152.4" style="fill:none;fill-rule:evenodd;stroke:#000000;stroke-width:2.0px;stroke-linecap:butt;stroke-linejoin:miter;stroke-opacity:1"/>
<path class="bond-19 atom-19 atom-20" d="M 114.2,152.4 L 106.3,124.0" style="fill:none;fill-rule:evenodd;stroke:#000000;stroke-width:2.0px;stroke-linecap:butt;stroke-linejoin:miter;stroke-opacity:1"/>
<path class="bond-20 atom-20 atom-21" d="M 107.0,126.4 L 123.7,109.4" style="fill:none;fill-rule:evenodd;stroke:#000000;stroke-width:2.0px;stroke-linecap:butt;stroke-linejoin:miter;stroke-opacity:1"/>
<path class="bond-20 atom-20 atom-21" d="M 103.9,123.3 L 120.6,106.3" style="fill:none;fill-rule:evenodd;stroke:#000000;stroke-width:2.0px;stroke-linecap:butt;stroke-linejoin:miter;stroke-opacity:1"/>
<path class="bond-21 atom-20 atom-22" d="M 106.3,124.0 L 81.9,117.7" style="fill:none;fill-rule:evenodd;stroke:#000000;stroke-width:2.0px;stroke-linecap:butt;stroke-linejoin:miter;stroke-opacity:1"/>
<path class="bond-22 atom-22 atom-23" d="M 76.4,111.5 L 69.9,88.2" style="fill:none;fill-rule:evenodd;stroke:#000000;stroke-width:2.0px;stroke-linecap:butt;stroke-linejoin:miter;stroke-opacity:1"/>
<path class="bond-23 atom-23 atom-24" d="M 69.9,88.2 L 41.4,80.9" style="fill:none;fill-rule:evenodd;stroke:#000000;stroke-width:2.0px;stroke-linecap:butt;stroke-linejoin:miter;stroke-opacity:1"/>
<path class="bond-24 atom-24 atom-25" d="M 41.4,80.9 L 31.5,102.5" style="fill:none;fill-rule:evenodd;stroke:#000000;stroke-width:2.0px;stroke-linecap:butt;stroke-linejoin:miter;stroke-opacity:1"/>
<path class="bond-25 atom-24 atom-26" d="M 41.4,80.9 L 17.1,64.2" style="fill:none;fill-rule:evenodd;stroke:#000000;stroke-width:2.0px;stroke-linecap:butt;stroke-linejoin:miter;stroke-opacity:1"/>
<path class="bond-26 atom-26 atom-27" d="M 17.1,64.2 L 43.7,51.5" style="fill:none;fill-rule:evenodd;stroke:#000000;stroke-width:2.0px;stroke-linecap:butt;stroke-linejoin:miter;stroke-opacity:1"/>
<path class="bond-27 atom-18 atom-28" d="M 144.2,164.9 L 150.6,188.1" style="fill:none;fill-rule:evenodd;stroke:#000000;stroke-width:2.0px;stroke-linecap:butt;stroke-linejoin:miter;stroke-opacity:1"/>
<path class="bond-28 atom-28 atom-29" d="M 149.9,185.7 L 133.2,202.7" style="fill:none;fill-rule:evenodd;stroke:#000000;stroke-width:2.0px;stroke-linecap:butt;stroke-linejoin:miter;stroke-opacity:1"/>
<path class="bond-28 atom-28 atom-29" d="M 153.1,188.8 L 136.4,205.8" style="fill:none;fill-rule:evenodd;stroke:#000000;stroke-width:2.0px;stroke-linecap:butt;stroke-linejoin:miter;stroke-opacity:1"/>
<path class="bond-29 atom-28 atom-30" d="M 150.6,188.1 L 179.2,195.5" style="fill:none;fill-rule:evenodd;stroke:#000000;stroke-width:2.0px;stroke-linecap:butt;stroke-linejoin:miter;stroke-opacity:1"/>
<path class="bond-30 atom-30 atom-31" d="M 179.2,195.5 L 187.0,223.9" style="fill:none;fill-rule:evenodd;stroke:#000000;stroke-width:2.0px;stroke-linecap:butt;stroke-linejoin:miter;stroke-opacity:1"/>
<path class="bond-30 atom-30 atom-31" d="M 184.1,196.8 L 190.6,220.2" style="fill:none;fill-rule:evenodd;stroke:#000000;stroke-width:2.0px;stroke-linecap:butt;stroke-linejoin:miter;stroke-opacity:1"/>
<path class="bond-31 atom-31 atom-32" d="M 187.0,223.9 L 215.6,231.3" style="fill:none;fill-rule:evenodd;stroke:#000000;stroke-width:2.0px;stroke-linecap:butt;stroke-linejoin:miter;stroke-opacity:1"/>
<path class="bond-32 atom-32 atom-33" d="M 215.6,231.3 L 236.2,210.2" style="fill:none;fill-rule:evenodd;stroke:#000000;stroke-width:2.0px;stroke-linecap:butt;stroke-linejoin:miter;stroke-opacity:1"/>
<path class="bond-32 atom-32 atom-33" d="M 214.2,226.3 L 231.3,208.9" style="fill:none;fill-rule:evenodd;stroke:#000000;stroke-width:2.0px;stroke-linecap:butt;stroke-linejoin:miter;stroke-opacity:1"/>
<path class="bond-33 atom-33 atom-34" d="M 236.2,210.2 L 261.3,216.7" style="fill:none;fill-rule:evenodd;stroke:#000000;stroke-width:2.0px;stroke-linecap:butt;stroke-linejoin:miter;stroke-opacity:1"/>
<path class="bond-34 atom-33 atom-35" d="M 236.2,210.2 L 228.3,181.8" style="fill:none;fill-rule:evenodd;stroke:#000000;stroke-width:2.0px;stroke-linecap:butt;stroke-linejoin:miter;stroke-opacity:1"/>
<path class="bond-35 atom-35 atom-36" d="M 228.3,181.8 L 199.8,174.5" style="fill:none;fill-rule:evenodd;stroke:#000000;stroke-width:2.0px;stroke-linecap:butt;stroke-linejoin:miter;stroke-opacity:1"/>
<path class="bond-35 atom-35 atom-36" d="M 224.8,185.5 L 201.2,179.4" style="fill:none;fill-rule:evenodd;stroke:#000000;stroke-width:2.0px;stroke-linecap:butt;stroke-linejoin:miter;stroke-opacity:1"/>
<path class="bond-36 atom-16 atom-1" d="M 191.9,146.1 L 221.1,150.4" style="fill:none;fill-rule:evenodd;stroke:#000000;stroke-width:2.0px;stroke-linecap:butt;stroke-linejoin:miter;stroke-opacity:1"/>
<path class="bond-37 atom-27 atom-24" d="M 43.7,51.5 L 41.4,80.9" style="fill:none;fill-rule:evenodd;stroke:#000000;stroke-width:2.0px;stroke-linecap:butt;stroke-linejoin:miter;stroke-opacity:1"/>
<path class="bond-38 atom-36 atom-30" d="M 199.8,174.5 L 179.2,195.5" style="fill:none;fill-rule:evenodd;stroke:#000000;stroke-width:2.0px;stroke-linecap:butt;stroke-linejoin:miter;stroke-opacity:1"/>
<path class="bond-39 atom-13 atom-4" d="M 244.9,63.4 L 217.5,74.3" style="fill:none;fill-rule:evenodd;stroke:#000000;stroke-width:2.0px;stroke-linecap:butt;stroke-linejoin:miter;stroke-opacity:1"/>
<path class="bond-40 atom-36 atom-16" d="M 199.8,174.5 L 191.9,146.1" style="fill:none;fill-rule:evenodd;stroke:#000000;stroke-width:2.0px;stroke-linecap:butt;stroke-linejoin:miter;stroke-opacity:1"/>
<path class="bond-41 atom-13 atom-8" d="M 244.9,63.4 L 249.3,34.3" style="fill:none;fill-rule:evenodd;stroke:#000000;stroke-width:2.0px;stroke-linecap:butt;stroke-linejoin:miter;stroke-opacity:1"/>
<path d="M 221.7,149.1 L 221.1,150.4 L 219.6,150.2" style="fill:none;stroke:#000000;stroke-width:2.0px;stroke-linecap:butt;stroke-linejoin:miter;stroke-miterlimit:10;stroke-opacity:1;"/>
<path d="M 233.5,125.4 L 234.2,124.0 L 233.4,123.2" style="fill:none;stroke:#000000;stroke-width:2.0px;stroke-linecap:butt;stroke-linejoin:miter;stroke-miterlimit:10;stroke-opacity:1;"/>
<path d="M 195.6,56.8 L 194.4,55.9 L 194.6,54.7" style="fill:none;stroke:#000000;stroke-width:2.0px;stroke-linecap:butt;stroke-linejoin:miter;stroke-miterlimit:10;stroke-opacity:1;"/>
<path d="M 225.0,16.4 L 226.2,16.0 L 227.4,16.9" style="fill:none;stroke:#000000;stroke-width:2.0px;stroke-linecap:butt;stroke-linejoin:miter;stroke-miterlimit:10;stroke-opacity:1;"/>
<path d="M 275.3,24.0 L 276.7,23.5 L 277.8,24.4" style="fill:none;stroke:#000000;stroke-width:2.0px;stroke-linecap:butt;stroke-linejoin:miter;stroke-miterlimit:10;stroke-opacity:1;"/>
<path d="M 298.6,40.9 L 299.8,41.8 L 299.5,43.3" style="fill:none;stroke:#000000;stroke-width:2.0px;stroke-linecap:butt;stroke-linejoin:miter;stroke-miterlimit:10;stroke-opacity:1;"/>
<path d="M 295.6,69.5 L 295.4,71.0 L 294.0,71.5" style="fill:none;stroke:#000000;stroke-width:2.0px;stroke-linecap:butt;stroke-linejoin:miter;stroke-miterlimit:10;stroke-opacity:1;"/>
<path d="M 269.4,81.2 L 268.0,81.8 L 266.8,80.9" style="fill:none;stroke:#000000;stroke-width:2.0px;stroke-linecap:butt;stroke-linejoin:miter;stroke-miterlimit:10;stroke-opacity:1;"/>
<path d="M 188.1,116.4 L 187.0,117.0 L 187.3,118.5" style="fill:none;stroke:#000000;stroke-width:2.0px;stroke-linecap:butt;stroke-linejoin:miter;stroke-miterlimit:10;stroke-opacity:1;"/>
<path d="M 115.4,152.7 L 114.2,152.4 L 113.8,151.0" style="fill:none;stroke:#000000;stroke-width:2.0px;stroke-linecap:butt;stroke-linejoin:miter;stroke-miterlimit:10;stroke-opacity:1;"/>
<path d="M 106.7,125.4 L 106.3,124.0 L 105.1,123.7" style="fill:none;stroke:#000000;stroke-width:2.0px;stroke-linecap:butt;stroke-linejoin:miter;stroke-miterlimit:10;stroke-opacity:1;"/>
<path d="M 70.2,89.4 L 69.9,88.2 L 68.5,87.9" style="fill:none;stroke:#000000;stroke-width:2.0px;stroke-linecap:butt;stroke-linejoin:miter;stroke-miterlimit:10;stroke-opacity:1;"/>
<path d="M 18.3,65.0 L 17.1,64.2 L 18.4,63.5" style="fill:none;stroke:#000000;stroke-width:2.0px;stroke-linecap:butt;stroke-linejoin:miter;stroke-miterlimit:10;stroke-opacity:1;"/>
<path d="M 42.3,52.1 L 43.7,51.5 L 43.6,52.9" style="fill:none;stroke:#000000;stroke-width:2.0px;stroke-linecap:butt;stroke-linejoin:miter;stroke-miterlimit:10;stroke-opacity:1;"/>
<path d="M 150.3,187.0 L 150.6,188.1 L 152.1,188.5" style="fill:none;stroke:#000000;stroke-width:2.0px;stroke-linecap:butt;stroke-linejoin:miter;stroke-miterlimit:10;stroke-opacity:1;"/>
<path d="M 186.7,222.5 L 187.0,223.9 L 188.5,224.3" style="fill:none;stroke:#000000;stroke-width:2.0px;stroke-linecap:butt;stroke-linejoin:miter;stroke-miterlimit:10;stroke-opacity:1;"/>
<path d="M 214.2,230.9 L 215.6,231.3 L 216.6,230.2" style="fill:none;stroke:#000000;stroke-width:2.0px;stroke-linecap:butt;stroke-linejoin:miter;stroke-miterlimit:10;stroke-opacity:1;"/>
<path d="M 228.7,183.3 L 228.3,181.8 L 226.9,181.5" style="fill:none;stroke:#000000;stroke-width:2.0px;stroke-linecap:butt;stroke-linejoin:miter;stroke-miterlimit:10;stroke-opacity:1;"/>
<path class="atom-3" d="M 211.3 99.2 L 214.1 103.6 Q 214.3 104.1, 214.8 104.9 Q 215.2 105.7, 215.2 105.7 L 215.2 99.2 L 216.3 99.2 L 216.3 107.6 L 215.2 107.6 L 212.3 102.7 Q 211.9 102.2, 211.6 101.5 Q 211.2 100.9, 211.1 100.7 L 211.1 107.6 L 210.0 107.6 L 210.0 99.2 L 211.3 99.2 " fill="#000000"/>
<path class="atom-6" d="M 196.9 22.6 L 199.7 27.0 Q 200.0 27.5, 200.4 28.2 Q 200.8 29.0, 200.8 29.1 L 200.8 22.6 L 202.0 22.6 L 202.0 30.9 L 200.8 30.9 L 197.9 26.1 Q 197.5 25.5, 197.2 24.9 Q 196.8 24.3, 196.7 24.1 L 196.7 30.9 L 195.6 30.9 L 195.6 22.6 L 196.9 22.6 " fill="#000000"/>
<path class="atom-15" d="M 156.8 103.9 Q 156.8 101.9, 157.8 100.8 Q 158.8 99.7, 160.7 99.7 Q 162.5 99.7, 163.5 100.8 Q 164.5 101.9, 164.5 103.9 Q 164.5 105.9, 163.5 107.1 Q 162.5 108.2, 160.7 108.2 Q 158.8 108.2, 157.8 107.1 Q 156.8 105.9, 156.8 103.9 M 160.7 107.3 Q 161.9 107.3, 162.6 106.4 Q 163.3 105.6, 163.3 103.9 Q 163.3 102.3, 162.6 101.4 Q 161.9 100.6, 160.7 100.6 Q 159.4 100.6, 158.7 101.4 Q 158.0 102.3, 158.0 103.9 Q 158.0 105.6, 158.7 106.4 Q 159.4 107.3, 160.7 107.3 " fill="#000000"/>
<path class="atom-18" d="M 140.9 155.6 L 143.6 160.0 Q 143.9 160.4, 144.3 161.2 Q 144.8 162.0, 144.8 162.0 L 144.8 155.6 L 145.9 155.6 L 145.9 163.9 L 144.8 163.9 L 141.8 159.1 Q 141.5 158.5, 141.1 157.9 Q 140.8 157.2, 140.7 157.0 L 140.7 163.9 L 139.6 163.9 L 139.6 155.6 L 140.9 155.6 " fill="#000000"/>
<path class="atom-21" d="M 123.1 103.0 Q 123.1 101.0, 124.1 99.9 Q 125.1 98.7, 127.0 98.7 Q 128.8 98.7, 129.8 99.9 Q 130.8 101.0, 130.8 103.0 Q 130.8 105.0, 129.8 106.2 Q 128.8 107.3, 127.0 107.3 Q 125.1 107.3, 124.1 106.2 Q 123.1 105.0, 123.1 103.0 M 127.0 106.4 Q 128.2 106.4, 128.9 105.5 Q 129.6 104.7, 129.6 103.0 Q 129.6 101.3, 128.9 100.5 Q 128.2 99.7, 127.0 99.7 Q 125.7 99.7, 125.0 100.5 Q 124.3 101.3, 124.3 103.0 Q 124.3 104.7, 125.0 105.5 Q 125.7 106.4, 127.0 106.4 " fill="#000000"/>
<path class="atom-22" d="M 66.5 112.4 L 67.6 112.4 L 67.6 116.0 L 71.8 116.0 L 71.8 112.4 L 73.0 112.4 L 73.0 120.8 L 71.8 120.8 L 71.8 116.9 L 67.6 116.9 L 67.6 120.8 L 66.5 120.8 L 66.5 112.4 " fill="#000000"/>
<path class="atom-22" d="M 75.9 112.4 L 78.7 116.9 Q 79.0 117.3, 79.4 118.1 Q 79.8 118.9, 79.8 118.9 L 79.8 112.4 L 81.0 112.4 L 81.0 120.8 L 79.8 120.8 L 76.9 116.0 Q 76.5 115.4, 76.2 114.7 Q 75.8 114.1, 75.7 113.9 L 75.7 120.8 L 74.6 120.8 L 74.6 112.4 L 75.9 112.4 " fill="#000000"/>
<path class="atom-25" d="M 26.7 103.5 L 31.6 103.5 L 31.6 104.5 L 27.8 104.5 L 27.8 107.0 L 31.2 107.0 L 31.2 108.0 L 27.8 108.0 L 27.8 111.8 L 26.7 111.8 L 26.7 103.5 " fill="#000000"/>
<path class="atom-29" d="M 126.2 209.2 Q 126.2 207.2, 127.1 206.1 Q 128.1 204.9, 130.0 204.9 Q 131.8 204.9, 132.8 206.1 Q 133.8 207.2, 133.8 209.2 Q 133.8 211.2, 132.8 212.4 Q 131.8 213.5, 130.0 213.5 Q 128.1 213.5, 127.1 212.4 Q 126.2 211.2, 126.2 209.2 M 130.0 212.6 Q 131.3 212.6, 131.9 211.7 Q 132.6 210.9, 132.6 209.2 Q 132.6 207.5, 131.9 206.7 Q 131.3 205.9, 130.0 205.9 Q 128.7 205.9, 128.0 206.7 Q 127.3 207.5, 127.3 209.2 Q 127.3 210.9, 128.0 211.7 Q 128.7 212.6, 130.0 212.6 " fill="#000000"/>
<path class="atom-34" d="M 262.3 213.4 L 267.2 213.4 L 267.2 214.4 L 263.4 214.4 L 263.4 216.9 L 266.8 216.9 L 266.8 217.9 L 263.4 217.9 L 263.4 221.8 L 262.3 221.8 L 262.3 213.4 " fill="#000000"/>
<path class="legend" d="M 28.6 244.2 Q 30.3 244.2, 31.3 245.2 Q 32.2 246.3, 32.2 248.3 Q 32.2 250.3, 31.1 251.5 Q 30.0 252.7, 28.0 252.7 Q 27.1 252.7, 26.3 252.4 L 26.3 256.4 L 24.8 256.4 L 24.8 244.3 L 26.0 244.3 L 26.2 245.3 Q 26.6 244.7, 27.2 244.4 Q 27.8 244.2, 28.6 244.2 M 28.0 251.5 Q 29.2 251.5, 30.0 250.6 Q 30.7 249.8, 30.7 248.3 Q 30.7 246.9, 30.1 246.1 Q 29.5 245.3, 28.5 245.3 Q 27.7 245.3, 27.1 245.8 Q 26.5 246.2, 26.3 247.0 L 26.3 251.2 Q 27.1 251.5, 28.0 251.5 " fill="#000000"/>
<path class="legend" d="M 34.6 244.3 L 34.8 245.4 Q 35.6 244.2, 37.1 244.2 Q 37.5 244.2, 38.1 244.3 L 37.9 245.7 Q 37.2 245.5, 36.8 245.5 Q 36.1 245.5, 35.7 245.8 Q 35.2 246.0, 34.9 246.7 L 34.9 252.5 L 33.4 252.5 L 33.4 244.3 L 34.6 244.3 " fill="#000000"/>
<path class="legend" d="M 38.8 248.4 Q 38.8 246.4, 39.8 245.3 Q 40.8 244.2, 42.7 244.2 Q 44.5 244.2, 45.3 245.2 Q 46.1 246.3, 46.1 248.4 L 46.1 248.6 L 40.3 248.6 Q 40.4 250.0, 41.0 250.7 Q 41.6 251.5, 42.8 251.5 Q 43.4 251.5, 44.0 251.3 Q 44.6 251.2, 45.3 250.8 L 45.8 251.9 Q 44.9 252.3, 44.2 252.5 Q 43.5 252.7, 42.7 252.7 Q 40.9 252.7, 39.8 251.5 Q 38.8 250.4, 38.8 248.4 M 42.7 245.3 Q 41.7 245.3, 41.1 245.9 Q 40.6 246.4, 40.4 247.5 L 44.5 247.5 Q 44.4 246.4, 43.9 245.9 Q 43.5 245.3, 42.7 245.3 " fill="#000000"/>
<path class="legend" d="M 54.6 240.4 L 54.6 252.5 L 53.4 252.5 L 53.2 251.5 Q 52.3 252.7, 50.8 252.7 Q 49.1 252.7, 48.1 251.6 Q 47.1 250.5, 47.1 248.5 Q 47.1 246.5, 48.3 245.3 Q 49.4 244.2, 51.4 244.2 Q 52.2 244.2, 53.1 244.4 L 53.1 240.4 L 54.6 240.4 M 50.9 251.5 Q 51.7 251.5, 52.3 251.0 Q 52.9 250.6, 53.1 249.7 L 53.1 245.6 Q 52.3 245.3, 51.4 245.3 Q 50.1 245.3, 49.4 246.2 Q 48.7 247.0, 48.7 248.5 Q 48.7 250.0, 49.2 250.7 Q 49.8 251.5, 50.9 251.5 " fill="#000000"/>
<path class="legend" d="M 56.4 250.9 L 58.0 250.9 L 58.0 252.5 L 56.4 252.5 L 56.4 250.9 " fill="#000000"/>
<path class="legend" d="" fill="#000000"/>
<path class="legend" d="M 69.1 244.2 Q 70.8 244.2, 71.7 245.2 Q 72.7 246.3, 72.7 248.3 Q 72.7 250.3, 71.5 251.5 Q 70.4 252.7, 68.5 252.7 Q 67.5 252.7, 66.7 252.4 L 66.7 256.4 L 65.2 256.4 L 65.2 244.3 L 66.5 244.3 L 66.7 245.3 Q 67.1 244.7, 67.7 244.4 Q 68.3 244.2, 69.1 244.2 M 68.4 251.5 Q 69.7 251.5, 70.4 250.6 Q 71.1 249.8, 71.1 248.3 Q 71.1 246.9, 70.6 246.1 Q 70.0 245.3, 69.0 245.3 Q 68.2 245.3, 67.6 245.8 Q 67.0 246.2, 66.7 247.0 L 66.7 251.2 Q 67.6 251.5, 68.4 251.5 " fill="#000000"/>
<path class="legend" d="M 73.9 241.2 L 75.4 241.2 L 75.4 252.5 L 73.9 252.5 L 73.9 241.2 " fill="#000000"/>
<path class="legend" d="M 83.9 249.2 Q 83.9 250.4, 83.3 251.1 Q 82.6 251.8, 81.5 252.0 L 81.5 253.9 L 80.1 253.9 L 80.1 252.1 Q 78.9 252.0, 77.5 251.5 L 77.2 251.4 L 77.7 250.1 L 78.0 250.2 Q 78.6 250.5, 79.2 250.6 Q 79.7 250.8, 80.4 250.8 Q 81.3 250.8, 81.8 250.4 Q 82.4 250.0, 82.4 249.2 Q 82.4 248.7, 82.1 248.4 Q 81.8 248.1, 81.4 248.0 Q 81.0 247.8, 80.3 247.6 Q 79.4 247.3, 78.8 247.1 Q 78.3 246.8, 77.9 246.3 Q 77.5 245.7, 77.5 244.8 Q 77.5 243.7, 78.1 243.0 Q 78.8 242.2, 80.1 242.0 L 80.1 240.1 L 81.5 240.1 L 81.5 242.0 Q 82.5 242.1, 83.6 242.5 L 83.3 243.8 Q 82.0 243.3, 81.1 243.3 Q 80.1 243.3, 79.6 243.7 Q 79.1 244.0, 79.1 244.6 Q 79.1 245.1, 79.4 245.4 Q 79.6 245.7, 80.0 245.9 Q 80.4 246.0, 81.1 246.3 Q 82.0 246.5, 82.6 246.8 Q 83.1 247.1, 83.5 247.7 Q 83.9 248.2, 83.9 249.2 " fill="#000000"/>
<path class="legend" d="M 93.7 253.3 L 93.7 254.6 L 85.5 254.6 L 85.5 253.3 L 93.7 253.3 " fill="#000000"/>
<path class="legend" d="M 98.2 245.4 Q 99.2 245.4, 100.0 245.9 Q 100.9 246.3, 101.3 247.1 Q 101.8 247.9, 101.8 248.9 Q 101.8 250.1, 101.2 251.0 Q 100.7 251.8, 99.7 252.2 Q 98.8 252.7, 97.7 252.7 Q 96.7 252.7, 95.7 252.3 Q 94.8 251.9, 94.1 251.2 L 95.1 250.2 Q 95.6 250.7, 96.3 251.1 Q 97.1 251.4, 97.8 251.4 Q 98.8 251.4, 99.5 250.7 Q 100.2 250.1, 100.2 249.0 Q 100.2 247.8, 99.5 247.2 Q 98.8 246.6, 97.7 246.6 Q 96.7 246.6, 95.6 247.1 L 94.7 246.7 L 95.3 241.2 L 101.1 241.2 L 100.9 242.5 L 96.6 242.5 L 96.2 245.8 Q 97.2 245.4, 98.2 245.4 " fill="#000000"/>
<path class="legend" d="M 109.7 249.2 Q 109.7 250.4, 109.0 251.1 Q 108.4 251.8, 107.2 252.0 L 107.2 253.9 L 105.9 253.9 L 105.9 252.1 Q 104.7 252.0, 103.2 251.5 L 103.0 251.4 L 103.5 250.1 L 103.8 250.2 Q 104.4 250.5, 104.9 250.6 Q 105.5 250.8, 106.1 250.8 Q 107.1 250.8, 107.6 250.4 Q 108.1 250.0, 108.1 249.2 Q 108.1 248.7, 107.9 248.4 Q 107.6 248.1, 107.2 248.0 Q 106.8 247.8, 106.1 247.6 Q 105.1 247.3, 104.6 247.1 Q 104.0 246.8, 103.6 246.3 Q 103.3 245.7, 103.3 244.8 Q 103.3 243.7, 103.9 243.0 Q 104.6 242.2, 105.9 242.0 L 105.9 240.1 L 107.2 240.1 L 107.2 242.0 Q 108.3 242.1, 109.4 242.5 L 109.0 243.8 Q 107.8 243.3, 106.8 243.3 Q 105.9 243.3, 105.4 243.7 Q 104.9 244.0, 104.9 244.6 Q 104.9 245.1, 105.1 245.4 Q 105.4 245.7, 105.8 245.9 Q 106.2 246.0, 106.9 246.3 Q 107.8 246.5, 108.3 246.8 Q 108.9 247.1, 109.3 247.7 Q 109.7 248.2, 109.7 249.2 " fill="#000000"/>
<path class="legend" d="M 111.3 250.7 L 112.9 250.7 L 112.9 252.3 L 111.3 252.3 L 111.3 250.7 M 111.3 245.2 L 112.9 245.2 L 112.9 246.8 L 111.3 246.8 L 111.3 245.2 " fill="#000000"/>
<path class="legend" d="" fill="#000000"/>
<path class="legend" d="M 124.8 245.5 Q 125.7 245.5, 126.5 245.9 Q 127.3 246.3, 127.7 247.1 Q 128.2 247.9, 128.2 248.9 Q 128.2 250.0, 127.7 250.8 Q 127.2 251.7, 126.3 252.2 Q 125.5 252.7, 124.4 252.7 Q 122.4 252.7, 121.3 251.3 Q 120.3 249.9, 120.3 247.2 Q 120.3 244.2, 121.6 242.6 Q 122.8 241.1, 125.2 241.1 Q 126.0 241.1, 126.5 241.2 Q 127.2 241.4, 127.7 241.7 L 127.1 242.8 Q 126.3 242.4, 125.3 242.4 Q 123.7 242.4, 122.8 243.4 Q 122.0 244.4, 121.9 246.5 Q 122.5 246.0, 123.2 245.7 Q 124.0 245.5, 124.8 245.5 M 124.4 251.3 Q 125.0 251.3, 125.5 251.0 Q 126.0 250.7, 126.3 250.1 Q 126.6 249.6, 126.6 248.9 Q 126.6 247.9, 126.0 247.3 Q 125.5 246.7, 124.5 246.7 Q 123.8 246.7, 123.1 247.0 Q 122.4 247.3, 121.9 247.8 Q 122.0 249.6, 122.6 250.5 Q 123.2 251.3, 124.4 251.3 " fill="#000000"/>
<path class="legend" d="M 129.5 250.9 L 131.1 250.9 L 131.1 252.5 L 129.5 252.5 L 129.5 250.9 " fill="#000000"/>
<path class="legend" d="M 137.0 245.5 Q 138.0 245.5, 138.8 245.9 Q 139.6 246.3, 140.0 247.1 Q 140.5 247.9, 140.5 248.9 Q 140.5 250.0, 140.0 250.8 Q 139.5 251.7, 138.6 252.2 Q 137.8 252.7, 136.7 252.7 Q 134.6 252.7, 133.6 251.3 Q 132.6 249.9, 132.6 247.2 Q 132.6 244.2, 133.9 242.6 Q 135.1 241.1, 137.5 241.1 Q 138.2 241.1, 138.8 241.2 Q 139.4 241.4, 140.0 241.7 L 139.4 242.8 Q 138.6 242.4, 137.6 242.4 Q 136.0 242.4, 135.1 243.4 Q 134.3 244.4, 134.2 246.5 Q 134.8 246.0, 135.5 245.7 Q 136.3 245.5, 137.0 245.5 M 136.7 251.3 Q 137.3 251.3, 137.8 251.0 Q 138.3 250.7, 138.6 250.1 Q 138.9 249.6, 138.9 248.9 Q 138.9 247.9, 138.3 247.3 Q 137.7 246.7, 136.8 246.7 Q 136.1 246.7, 135.4 247.0 Q 134.7 247.3, 134.2 247.8 Q 134.3 249.6, 134.9 250.5 Q 135.5 251.3, 136.7 251.3 " fill="#000000"/>
<path class="legend" d="M 147.2 246.6 Q 148.3 246.9, 148.9 247.6 Q 149.4 248.3, 149.4 249.4 Q 149.4 250.4, 148.9 251.1 Q 148.5 251.9, 147.6 252.3 Q 146.7 252.7, 145.5 252.7 Q 144.3 252.7, 143.4 252.3 Q 142.5 251.8, 141.8 251.0 L 142.7 250.0 Q 143.4 250.8, 144.0 251.1 Q 144.6 251.4, 145.5 251.4 Q 146.6 251.4, 147.2 250.9 Q 147.8 250.3, 147.8 249.4 Q 147.8 248.3, 147.2 247.7 Q 146.5 247.2, 145.1 247.2 L 144.3 247.2 L 144.3 246.1 L 145.0 246.1 Q 146.3 246.0, 146.9 245.5 Q 147.6 245.0, 147.6 244.0 Q 147.6 243.2, 147.0 242.8 Q 146.5 242.4, 145.6 242.4 Q 144.6 242.4, 144.0 242.7 Q 143.4 243.0, 143.0 243.9 L 141.9 243.3 Q 142.3 242.3, 143.3 241.7 Q 144.2 241.1, 145.6 241.1 Q 147.2 241.1, 148.2 241.9 Q 149.2 242.6, 149.2 244.0 Q 149.2 244.9, 148.7 245.5 Q 148.2 246.2, 147.2 246.6 " fill="#000000"/>
<path class="legend" d="" fill="#000000"/>
<path class="legend" d="" fill="#000000"/>
<path class="legend" d="" fill="#000000"/>
<path class="legend" d="" fill="#000000"/>
<path class="legend" d="" fill="#000000"/>
<path class="legend" d="M 179.8 248.4 Q 179.8 246.4, 180.8 245.3 Q 181.8 244.2, 183.6 244.2 Q 185.4 244.2, 186.2 245.2 Q 187.0 246.3, 187.0 248.4 L 187.0 248.6 L 181.3 248.6 Q 181.3 250.0, 182.0 250.7 Q 182.6 251.5, 183.7 251.5 Q 184.4 251.5, 185.0 251.3 Q 185.6 251.2, 186.3 250.8 L 186.7 251.9 Q 185.9 252.3, 185.2 252.5 Q 184.4 252.7, 183.7 252.7 Q 181.8 252.7, 180.8 251.5 Q 179.8 250.4, 179.8 248.4 M 183.6 245.3 Q 182.7 245.3, 182.1 245.9 Q 181.5 246.4, 181.4 247.5 L 185.5 247.5 Q 185.3 246.4, 184.9 245.9 Q 184.5 245.3, 183.6 245.3 " fill="#000000"/>
<path class="legend" d="M 191.1 248.3 L 188.3 244.3 L 190.1 244.3 L 192.0 247.1 L 194.0 244.3 L 195.6 244.3 L 192.8 248.3 L 195.9 252.5 L 194.1 252.5 L 191.9 249.4 L 189.7 252.5 L 188.1 252.5 L 191.1 248.3 " fill="#000000"/>
<path class="legend" d="M 200.3 244.2 Q 202.0 244.2, 202.9 245.2 Q 203.9 246.3, 203.9 248.3 Q 203.9 250.3, 202.8 251.5 Q 201.7 252.7, 199.7 252.7 Q 198.8 252.7, 198.0 252.4 L 198.0 256.4 L 196.5 256.4 L 196.5 244.3 L 197.7 244.3 L 197.9 245.3 Q 198.3 244.7, 198.9 244.4 Q 199.5 244.2, 200.3 244.2 M 199.7 251.5 Q 200.9 251.5, 201.7 250.6 Q 202.4 249.8, 202.4 248.3 Q 202.4 246.9, 201.8 246.1 Q 201.2 245.3, 200.2 245.3 Q 199.4 245.3, 198.8 245.8 Q 198.2 246.2, 198.0 247.0 L 198.0 251.2 Q 198.8 251.5, 199.7 251.5 " fill="#000000"/>
<path class="legend" d="M 205.1 250.9 L 206.7 250.9 L 206.7 252.5 L 205.1 252.5 L 205.1 250.9 " fill="#000000"/>
<path class="legend" d="" fill="#000000"/>
<path class="legend" d="M 217.8 244.2 Q 219.5 244.2, 220.4 245.2 Q 221.4 246.3, 221.4 248.3 Q 221.4 250.3, 220.3 251.5 Q 219.2 252.7, 217.2 252.7 Q 216.3 252.7, 215.5 252.4 L 215.5 256.4 L 214.0 256.4 L 214.0 244.3 L 215.2 244.3 L 215.4 245.3 Q 215.8 244.7, 216.4 244.4 Q 217.0 244.2, 217.8 244.2 M 217.2 251.5 Q 218.4 251.5, 219.2 250.6 Q 219.9 249.8, 219.9 248.3 Q 219.9 246.9, 219.3 246.1 Q 218.7 245.3, 217.7 245.3 Q 216.9 245.3, 216.3 245.8 Q 215.7 246.2, 215.5 247.0 L 215.5 251.2 Q 216.3 251.5, 217.2 251.5 " fill="#000000"/>
<path class="legend" d="M 222.6 241.2 L 224.1 241.2 L 224.1 252.5 L 222.6 252.5 L 222.6 241.2 " fill="#000000"/>
<path class="legend" d="M 226.0 246.8 Q 226.0 244.0, 227.3 242.6 Q 228.6 241.1, 231.1 241.1 Q 233.5 241.1, 234.7 242.7 L 233.6 243.6 Q 232.7 242.4, 231.1 242.4 Q 229.4 242.4, 228.5 243.5 Q 227.6 244.7, 227.6 246.8 Q 227.6 249.1, 228.5 250.2 Q 229.5 251.4, 231.3 251.4 Q 232.5 251.4, 234.0 250.6 L 234.4 251.8 Q 233.9 252.2, 233.0 252.4 Q 232.1 252.7, 231.1 252.7 Q 228.6 252.7, 227.3 251.2 Q 226.0 249.7, 226.0 246.8 " fill="#000000"/>
<path class="legend" d="M 239.9 245.4 Q 240.9 245.4, 241.7 245.9 Q 242.5 246.3, 243.0 247.1 Q 243.5 247.9, 243.5 248.9 Q 243.5 250.1, 242.9 251.0 Q 242.3 251.8, 241.4 252.2 Q 240.5 252.7, 239.4 252.7 Q 238.4 252.7, 237.4 252.3 Q 236.5 251.9, 235.8 251.2 L 236.8 250.2 Q 237.3 250.7, 238.0 251.1 Q 238.7 251.4, 239.5 251.4 Q 240.5 251.4, 241.2 250.7 Q 241.9 250.1, 241.9 249.0 Q 241.9 247.8, 241.2 247.2 Q 240.5 246.6, 239.4 246.6 Q 238.4 246.6, 237.3 247.1 L 236.4 246.7 L 236.9 241.2 L 242.8 241.2 L 242.6 242.5 L 238.2 242.5 L 237.9 245.8 Q 238.9 245.4, 239.9 245.4 " fill="#000000"/>
<path class="legend" d="M 248.8 252.7 Q 246.8 252.7, 245.7 251.1 Q 244.7 249.6, 244.7 246.8 Q 244.7 244.1, 245.7 242.6 Q 246.7 241.1, 248.8 241.1 Q 250.9 241.1, 252.0 242.6 Q 253.0 244.1, 253.0 246.8 Q 253.0 249.6, 251.9 251.1 Q 250.9 252.7, 248.8 252.7 M 248.8 251.4 Q 250.1 251.4, 250.7 250.2 Q 251.4 249.1, 251.4 246.8 Q 251.4 244.6, 250.7 243.5 Q 250.1 242.4, 248.8 242.4 Q 247.6 242.4, 246.9 243.5 Q 246.3 244.6, 246.3 246.8 Q 246.3 249.1, 246.9 250.2 Q 247.6 251.4, 248.8 251.4 " fill="#000000"/>
<path class="legend" d="M 254.5 250.7 L 256.1 250.7 L 256.1 252.3 L 254.5 252.3 L 254.5 250.7 M 254.5 245.2 L 256.1 245.2 L 256.1 246.8 L 254.5 246.8 L 254.5 245.2 " fill="#000000"/>
<path class="legend" d="" fill="#000000"/>
<path class="legend" d="M 268.0 245.5 Q 268.9 245.5, 269.7 245.9 Q 270.5 246.3, 270.9 247.1 Q 271.4 247.9, 271.4 248.9 Q 271.4 250.0, 270.9 250.8 Q 270.4 251.7, 269.5 252.2 Q 268.7 252.7, 267.6 252.7 Q 265.6 252.7, 264.5 251.3 Q 263.5 249.9, 263.5 247.2 Q 263.5 244.2, 264.8 242.6 Q 266.0 241.1, 268.4 241.1 Q 269.2 241.1, 269.7 241.2 Q 270.4 241.4, 270.9 241.7 L 270.3 242.8 Q 269.5 242.4, 268.5 242.4 Q 266.9 242.4, 266.0 243.4 Q 265.2 244.4, 265.1 246.5 Q 265.7 246.0, 266.4 245.7 Q 267.2 245.5, 268.0 245.5 M 267.6 251.3 Q 268.2 251.3, 268.7 251.0 Q 269.2 250.7, 269.5 250.1 Q 269.8 249.6, 269.8 248.9 Q 269.8 247.9, 269.2 247.3 Q 268.7 246.7, 267.7 246.7 Q 267.0 246.7, 266.3 247.0 Q 265.6 247.3, 265.1 247.8 Q 265.2 249.6, 265.8 250.5 Q 266.4 251.3, 267.6 251.3 " fill="#000000"/>
<path class="legend" d="M 272.7 250.9 L 274.3 250.9 L 274.3 252.5 L 272.7 252.5 L 272.7 250.9 " fill="#000000"/>
<path class="legend" d="M 281.6 246.5 Q 282.6 247.0, 283.2 247.6 Q 283.8 248.3, 283.8 249.4 Q 283.8 250.4, 283.3 251.1 Q 282.8 251.9, 281.9 252.3 Q 281.0 252.7, 279.9 252.7 Q 278.0 252.7, 276.9 251.8 Q 275.8 250.9, 275.8 249.4 Q 275.8 248.5, 276.3 247.8 Q 276.8 247.1, 277.8 246.6 Q 277.0 246.2, 276.6 245.6 Q 276.2 244.9, 276.2 244.0 Q 276.2 242.6, 277.2 241.9 Q 278.2 241.1, 279.8 241.1 Q 281.5 241.1, 282.4 241.9 Q 283.4 242.6, 283.4 244.0 Q 283.4 244.8, 282.9 245.4 Q 282.5 246.0, 281.6 246.5 M 279.8 242.3 Q 278.9 242.3, 278.3 242.7 Q 277.8 243.2, 277.8 244.0 Q 277.8 244.6, 278.2 245.0 Q 278.5 245.3, 279.0 245.6 Q 279.5 245.8, 280.5 246.1 Q 281.2 245.6, 281.5 245.1 Q 281.8 244.6, 281.8 244.0 Q 281.8 243.2, 281.3 242.7 Q 280.8 242.3, 279.8 242.3 M 279.9 251.5 Q 280.9 251.5, 281.6 250.9 Q 282.2 250.4, 282.2 249.4 Q 282.2 248.8, 281.9 248.4 Q 281.5 248.0, 281.0 247.8 Q 280.5 247.6, 279.6 247.3 L 278.9 247.1 Q 278.1 247.5, 277.8 248.1 Q 277.4 248.7, 277.4 249.4 Q 277.4 250.4, 278.1 250.9 Q 278.8 251.5, 279.9 251.5 " fill="#000000"/>
<path class="legend" d="M 289.1 241.1 Q 291.1 241.1, 292.1 242.4 Q 293.1 243.8, 293.1 246.5 Q 293.1 249.5, 291.9 251.1 Q 290.6 252.7, 288.2 252.7 Q 287.5 252.7, 286.9 252.5 Q 286.3 252.3, 285.7 252.0 L 286.3 250.9 Q 287.2 251.4, 288.2 251.4 Q 289.8 251.4, 290.6 250.4 Q 291.4 249.3, 291.5 247.2 Q 290.9 247.7, 290.2 248.0 Q 289.5 248.3, 288.7 248.3 Q 287.7 248.3, 286.9 247.8 Q 286.1 247.4, 285.7 246.6 Q 285.3 245.8, 285.3 244.8 Q 285.3 243.7, 285.8 242.9 Q 286.2 242.0, 287.1 241.6 Q 288.0 241.1, 289.1 241.1 M 286.9 244.8 Q 286.9 245.8, 287.4 246.4 Q 288.0 247.0, 289.0 247.0 Q 289.7 247.0, 290.3 246.7 Q 291.0 246.4, 291.5 246.0 Q 291.4 244.1, 290.9 243.2 Q 290.3 242.4, 289.1 242.4 Q 288.5 242.4, 287.9 242.7 Q 287.4 243.0, 287.2 243.6 Q 286.9 244.1, 286.9 244.8 " fill="#000000"/>
</svg>