<svg xmlns="http://www.w3.org/2000/svg" xmlns:rdkit="http://www.rdkit.org/xml" xmlns:xlink="http://www.w3.org/1999/xlink" version="1.1" baseProfile="full" xml:space="preserve" width="320px" height="207px" viewBox="0 0 320 207">
<!-- END OF HEADER -->
<rect style="opacity:1.0;fill:#FFFFFF;stroke:none" width="320.0" height="207.0" x="0.0" y="0.0"> </rect>
<ellipse cx="16.2" cy="110.6" rx="0.1" ry="0.1" class="atom-0" style="fill:#7F7FFF;fill-rule:evenodd;stroke:#7F7FFF;stroke-width:1.0px;stroke-linecap:butt;stroke-linejoin:miter;stroke-opacity:1"/>
<ellipse cx="44.9" cy="117.9" rx="0.1" ry="0.1" class="atom-1" style="fill:#7F7FFF;fill-rule:evenodd;stroke:#7F7FFF;stroke-width:1.0px;stroke-linecap:butt;stroke-linejoin:miter;stroke-opacity:1"/>
<ellipse cx="52.9" cy="146.5" rx="0.3" ry="0.3" class="atom-2" style="fill:#7F7FFF;fill-rule:evenodd;stroke:#7F7FFF;stroke-width:1.0px;stroke-linecap:butt;stroke-linejoin:miter;stroke-opacity:1"/>
<ellipse cx="32.2" cy="167.7" rx="0.3" ry="0.3" class="atom-3" style="fill:#7F7FFF;fill-rule:evenodd;stroke:#7F7FFF;stroke-width:1.0px;stroke-linecap:butt;stroke-linejoin:miter;stroke-opacity:1"/>
<ellipse cx="81.6" cy="153.8" rx="0.3" ry="0.3" class="atom-4" style="fill:#7F7FFF;fill-rule:evenodd;stroke:#7F7FFF;stroke-width:1.0px;stroke-linecap:butt;stroke-linejoin:miter;stroke-opacity:1"/>
<ellipse cx="102.3" cy="132.6" rx="9.0" ry="9.0" class="atom-5" style="fill:#7F7FFF;fill-rule:evenodd;stroke:#7F7FFF;stroke-width:1.0px;stroke-linecap:butt;stroke-linejoin:miter;stroke-opacity:1"/>
<ellipse cx="131.0" cy="140.0" rx="9.0" ry="9.0" class="atom-6" style="fill:#7F7FFF;fill-rule:evenodd;stroke:#7F7FFF;stroke-width:1.0px;stroke-linecap:butt;stroke-linejoin:miter;stroke-opacity:1"/>
<ellipse cx="151.7" cy="118.8" rx="9.0" ry="9.0" class="atom-7" style="fill:#7F7FFF;fill-rule:evenodd;stroke:#7F7FFF;stroke-width:1.0px;stroke-linecap:butt;stroke-linejoin:miter;stroke-opacity:1"/>
<ellipse cx="174.6" cy="99.9" rx="9.0" ry="9.0" class="atom-8" style="fill:#7F7FFF;fill-rule:evenodd;stroke:#7F7FFF;stroke-width:1.0px;stroke-linecap:butt;stroke-linejoin:miter;stroke-opacity:1"/>
<ellipse cx="178.9" cy="76.3" rx="9.0" ry="9.0" class="atom-9" style="fill:#7F7FFF;fill-rule:evenodd;stroke:#7F7FFF;stroke-width:1.0px;stroke-linecap:butt;stroke-linejoin:miter;stroke-opacity:1"/>
<ellipse cx="199.6" cy="115.7" rx="9.0" ry="9.0" class="atom-10" style="fill:#7F7FFF;fill-rule:evenodd;stroke:#7F7FFF;stroke-width:1.0px;stroke-linecap:butt;stroke-linejoin:miter;stroke-opacity:1"/>
<ellipse cx="227.1" cy="104.8" rx="2.8" ry="2.8" class="atom-11" style="fill:#FF7F7F;fill-rule:evenodd;stroke:#FF7F7F;stroke-width:1.0px;stroke-linecap:butt;stroke-linejoin:miter;stroke-opacity:1"/>
<ellipse cx="231.5" cy="75.5" rx="2.8" ry="2.8" class="atom-12" style="fill:#FF7F7F;fill-rule:evenodd;stroke:#FF7F7F;stroke-width:1.0px;stroke-linecap:butt;stroke-linejoin:miter;stroke-opacity:1"/>
<ellipse cx="259.0" cy="64.5" rx="2.8" ry="2.8" class="atom-13" style="fill:#FF7F7F;fill-rule:evenodd;stroke:#FF7F7F;stroke-width:1.0px;stroke-linecap:butt;stroke-linejoin:miter;stroke-opacity:1"/>
<ellipse cx="282.2" cy="82.9" rx="2.8" ry="2.8" class="atom-14" style="fill:#FF7F7F;fill-rule:evenodd;stroke:#FF7F7F;stroke-width:1.0px;stroke-linecap:butt;stroke-linejoin:miter;stroke-opacity:1"/>
<ellipse cx="277.9" cy="112.3" rx="2.8" ry="2.8" class="atom-15" style="fill:#FF7F7F;fill-rule:evenodd;stroke:#FF7F7F;stroke-width:1.0px;stroke-linecap:butt;stroke-linejoin:miter;stroke-opacity:1"/>
<ellipse cx="301.2" cy="130.6" rx="2.8" ry="2.8" class="atom-16" style="fill:#FF7F7F;fill-rule:evenodd;stroke:#FF7F7F;stroke-width:1.0px;stroke-linecap:butt;stroke-linejoin:miter;stroke-opacity:1"/>
<ellipse cx="296.9" cy="160.0" rx="2.8" ry="2.8" class="atom-17" style="fill:#FF7F7F;fill-rule:evenodd;stroke:#FF7F7F;stroke-width:1.0px;stroke-linecap:butt;stroke-linejoin:miter;stroke-opacity:1"/>
<ellipse cx="269.3" cy="170.9" rx="2.8" ry="2.8" class="atom-18" style="fill:#FF7F7F;fill-rule:evenodd;stroke:#FF7F7F;stroke-width:1.0px;stroke-linecap:butt;stroke-linejoin:miter;stroke-opacity:1"/>
<ellipse cx="246.1" cy="152.5" rx="2.8" ry="2.8" class="atom-19" style="fill:#FF7F7F;fill-rule:evenodd;stroke:#FF7F7F;stroke-width:1.0px;stroke-linecap:butt;stroke-linejoin:miter;stroke-opacity:1"/>
<ellipse cx="250.4" cy="123.2" rx="2.8" ry="2.8" class="atom-20" style="fill:#FF7F7F;fill-rule:evenodd;stroke:#FF7F7F;stroke-width:1.0px;stroke-linecap:butt;stroke-linejoin:miter;stroke-opacity:1"/>
<ellipse cx="192.3" cy="144.5" rx="9.0" ry="9.0" class="atom-21" style="fill:#7F7FFF;fill-rule:evenodd;stroke:#7F7FFF;stroke-width:1.0px;stroke-linecap:butt;stroke-linejoin:miter;stroke-opacity:1"/>
<ellipse cx="162.7" cy="146.3" rx="9.0" ry="9.0" class="atom-22" style="fill:#7F7FFF;fill-rule:evenodd;stroke:#7F7FFF;stroke-width:1.0px;stroke-linecap:butt;stroke-linejoin:miter;stroke-opacity:1"/>
<ellipse cx="146.8" cy="171.4" rx="9.0" ry="9.0" class="atom-23" style="fill:#7F7FFF;fill-rule:evenodd;stroke:#7F7FFF;stroke-width:1.0px;stroke-linecap:butt;stroke-linejoin:miter;stroke-opacity:1"/>
<ellipse cx="143.7" cy="90.3" rx="9.0" ry="9.0" class="atom-24" style="fill:#7F7FFF;fill-rule:evenodd;stroke:#7F7FFF;stroke-width:1.0px;stroke-linecap:butt;stroke-linejoin:miter;stroke-opacity:1"/>
<ellipse cx="164.5" cy="69.1" rx="9.0" ry="9.0" class="atom-25" style="fill:#7F7FFF;fill-rule:evenodd;stroke:#7F7FFF;stroke-width:1.0px;stroke-linecap:butt;stroke-linejoin:miter;stroke-opacity:1"/>
<ellipse cx="156.5" cy="40.5" rx="9.0" ry="9.0" class="atom-26" style="fill:#7F7FFF;fill-rule:evenodd;stroke:#7F7FFF;stroke-width:1.0px;stroke-linecap:butt;stroke-linejoin:miter;stroke-opacity:1"/>
<ellipse cx="177.2" cy="19.3" rx="9.0" ry="9.0" class="atom-27" style="fill:#7F7FFF;fill-rule:evenodd;stroke:#7F7FFF;stroke-width:1.0px;stroke-linecap:butt;stroke-linejoin:miter;stroke-opacity:1"/>
<ellipse cx="127.8" cy="33.2" rx="9.0" ry="9.0" class="atom-28" style="fill:#7F7FFF;fill-rule:evenodd;stroke:#7F7FFF;stroke-width:1.0px;stroke-linecap:butt;stroke-linejoin:miter;stroke-opacity:1"/>
<ellipse cx="107.0" cy="54.4" rx="9.0" ry="9.0" class="atom-29" style="fill:#7F7FFF;fill-rule:evenodd;stroke:#7F7FFF;stroke-width:1.0px;stroke-linecap:butt;stroke-linejoin:miter;stroke-opacity:1"/>
<ellipse cx="115.0" cy="82.9" rx="9.0" ry="9.0" class="atom-30" style="fill:#7F7FFF;fill-rule:evenodd;stroke:#7F7FFF;stroke-width:1.0px;stroke-linecap:butt;stroke-linejoin:miter;stroke-opacity:1"/>
<ellipse cx="94.3" cy="104.1" rx="9.0" ry="9.0" class="atom-31" style="fill:#7F7FFF;fill-rule:evenodd;stroke:#7F7FFF;stroke-width:1.0px;stroke-linecap:butt;stroke-linejoin:miter;stroke-opacity:1"/>
<ellipse cx="65.6" cy="96.8" rx="9.0" ry="9.0" class="atom-32" style="fill:#7F7FFF;fill-rule:evenodd;stroke:#7F7FFF;stroke-width:1.0px;stroke-linecap:butt;stroke-linejoin:miter;stroke-opacity:1"/>
<path class="bond-0 atom-0 atom-1" d="M 16.2,110.6 L 40.1,116.7" style="fill:none;fill-rule:evenodd;stroke:#000000;stroke-width:2.0px;stroke-linecap:butt;stroke-linejoin:miter;stroke-opacity:1"/>
<path class="bond-1 atom-1 atom-2" d="M 46.4,123.3 L 52.9,146.5" style="fill:none;fill-rule:evenodd;stroke:#000000;stroke-width:2.0px;stroke-linecap:butt;stroke-linejoin:miter;stroke-opacity:1"/>
<path class="bond-2 atom-2 atom-3" d="M 50.5,149.3 L 50.1,148.9" style="fill:none;fill-rule:evenodd;stroke:#000000;stroke-width:1.0px;stroke-linecap:butt;stroke-linejoin:miter;stroke-opacity:1"/>
<path class="bond-2 atom-2 atom-3" d="M 48.1,152.2 L 47.3,151.4" style="fill:none;fill-rule:evenodd;stroke:#000000;stroke-width:1.0px;stroke-linecap:butt;stroke-linejoin:miter;stroke-opacity:1"/>
<path class="bond-2 atom-2 atom-3" d="M 45.7,155.0 L 44.5,153.9" style="fill:none;fill-rule:evenodd;stroke:#000000;stroke-width:1.0px;stroke-linecap:butt;stroke-linejoin:miter;stroke-opacity:1"/>
<path class="bond-2 atom-2 atom-3" d="M 43.3,157.9 L 41.7,156.3" style="fill:none;fill-rule:evenodd;stroke:#000000;stroke-width:1.0px;stroke-linecap:butt;stroke-linejoin:miter;stroke-opacity:1"/>
<path class="bond-2 atom-2 atom-3" d="M 40.9,160.7 L 38.9,158.8" style="fill:none;fill-rule:evenodd;stroke:#000000;stroke-width:1.0px;stroke-linecap:butt;stroke-linejoin:miter;stroke-opacity:1"/>
<path class="bond-2 atom-2 atom-3" d="M 38.5,163.5 L 36.1,161.2" style="fill:none;fill-rule:evenodd;stroke:#000000;stroke-width:1.0px;stroke-linecap:butt;stroke-linejoin:miter;stroke-opacity:1"/>
<path class="bond-2 atom-2 atom-3" d="M 36.1,166.4 L 33.4,163.7" style="fill:none;fill-rule:evenodd;stroke:#000000;stroke-width:1.0px;stroke-linecap:butt;stroke-linejoin:miter;stroke-opacity:1"/>
<path class="bond-2 atom-2 atom-3" d="M 33.7,169.2 L 30.6,166.1" style="fill:none;fill-rule:evenodd;stroke:#000000;stroke-width:1.0px;stroke-linecap:butt;stroke-linejoin:miter;stroke-opacity:1"/>
<path class="bond-3 atom-2 atom-4" d="M 52.9,146.5 L 81.6,153.8" style="fill:none;fill-rule:evenodd;stroke:#000000;stroke-width:2.0px;stroke-linecap:butt;stroke-linejoin:miter;stroke-opacity:1"/>
<path class="bond-4 atom-4 atom-5" d="M 81.6,153.8 L 98.2,136.9" style="fill:none;fill-rule:evenodd;stroke:#000000;stroke-width:2.0px;stroke-linecap:butt;stroke-linejoin:miter;stroke-opacity:1"/>
<path class="bond-5 atom-5 atom-6" d="M 106.5,133.7 L 131.0,140.0" style="fill:none;fill-rule:evenodd;stroke:#000000;stroke-width:2.0px;stroke-linecap:butt;stroke-linejoin:miter;stroke-opacity:1"/>
<path class="bond-6 atom-7 atom-6" d="M 148.9,121.2 L 149.4,121.7" style="fill:none;fill-rule:evenodd;stroke:#000000;stroke-width:1.0px;stroke-linecap:butt;stroke-linejoin:miter;stroke-opacity:1"/>
<path class="bond-6 atom-7 atom-6" d="M 146.1,123.6 L 147.0,124.5" style="fill:none;fill-rule:evenodd;stroke:#000000;stroke-width:1.0px;stroke-linecap:butt;stroke-linejoin:miter;stroke-opacity:1"/>
<path class="bond-6 atom-7 atom-6" d="M 143.3,126.1 L 144.7,127.4" style="fill:none;fill-rule:evenodd;stroke:#000000;stroke-width:1.0px;stroke-linecap:butt;stroke-linejoin:miter;stroke-opacity:1"/>
<path class="bond-6 atom-7 atom-6" d="M 140.5,128.5 L 142.3,130.3" style="fill:none;fill-rule:evenodd;stroke:#000000;stroke-width:1.0px;stroke-linecap:butt;stroke-linejoin:miter;stroke-opacity:1"/>
<path class="bond-6 atom-7 atom-6" d="M 137.7,130.9 L 139.9,133.1" style="fill:none;fill-rule:evenodd;stroke:#000000;stroke-width:1.0px;stroke-linecap:butt;stroke-linejoin:miter;stroke-opacity:1"/>
<path class="bond-6 atom-7 atom-6" d="M 134.9,133.3 L 137.6,136.0" style="fill:none;fill-rule:evenodd;stroke:#000000;stroke-width:1.0px;stroke-linecap:butt;stroke-linejoin:miter;stroke-opacity:1"/>
<path class="bond-6 atom-7 atom-6" d="M 132.0,135.8 L 135.2,138.9" style="fill:none;fill-rule:evenodd;stroke:#000000;stroke-width:1.0px;stroke-linecap:butt;stroke-linejoin:miter;stroke-opacity:1"/>
<path class="bond-7 atom-7 atom-8" d="M 151.7,118.8 L 174.6,99.9" style="fill:none;fill-rule:evenodd;stroke:#000000;stroke-width:2.0px;stroke-linecap:butt;stroke-linejoin:miter;stroke-opacity:1"/>
<path class="bond-8 atom-8 atom-9" d="M 176.6,101.2 L 180.1,82.0" style="fill:none;fill-rule:evenodd;stroke:#000000;stroke-width:2.0px;stroke-linecap:butt;stroke-linejoin:miter;stroke-opacity:1"/>
<path class="bond-8 atom-8 atom-9" d="M 171.9,102.1 L 175.7,81.2" style="fill:none;fill-rule:evenodd;stroke:#000000;stroke-width:2.0px;stroke-linecap:butt;stroke-linejoin:miter;stroke-opacity:1"/>
<path class="bond-9 atom-8 atom-10" d="M 174.6,99.9 L 195.4,113.1" style="fill:none;fill-rule:evenodd;stroke:#000000;stroke-width:2.0px;stroke-linecap:butt;stroke-linejoin:miter;stroke-opacity:1"/>
<path class="bond-10 atom-10 atom-11" d="M 203.8,114.1 L 227.1,104.8" style="fill:none;fill-rule:evenodd;stroke:#000000;stroke-width:2.0px;stroke-linecap:butt;stroke-linejoin:miter;stroke-opacity:1"/>
<path class="bond-11 atom-11 atom-12" d="M 227.1,104.8 L 231.5,75.5" style="fill:none;fill-rule:evenodd;stroke:#000000;stroke-width:2.0px;stroke-linecap:butt;stroke-linejoin:miter;stroke-opacity:1"/>
<path class="bond-11 atom-11 atom-12" d="M 231.9,102.9 L 235.5,78.6" style="fill:none;fill-rule:evenodd;stroke:#000000;stroke-width:2.0px;stroke-linecap:butt;stroke-linejoin:miter;stroke-opacity:1"/>
<path class="bond-12 atom-12 atom-13" d="M 231.5,75.5 L 254.8,66.2" style="fill:none;fill-rule:evenodd;stroke:#000000;stroke-width:2.0px;stroke-linecap:butt;stroke-linejoin:miter;stroke-opacity:1"/>
<path class="bond-13 atom-13 atom-14" d="M 263.2,67.8 L 282.2,82.9" style="fill:none;fill-rule:evenodd;stroke:#000000;stroke-width:2.0px;stroke-linecap:butt;stroke-linejoin:miter;stroke-opacity:1"/>
<path class="bond-13 atom-13 atom-14" d="M 260.4,71.3 L 277.5,84.8" style="fill:none;fill-rule:evenodd;stroke:#000000;stroke-width:2.0px;stroke-linecap:butt;stroke-linejoin:miter;stroke-opacity:1"/>
<path class="bond-14 atom-14 atom-15" d="M 282.2,82.9 L 277.9,112.3" style="fill:none;fill-rule:evenodd;stroke:#000000;stroke-width:2.0px;stroke-linecap:butt;stroke-linejoin:miter;stroke-opacity:1"/>
<path class="bond-15 atom-15 atom-16" d="M 277.9,112.3 L 301.2,130.6" style="fill:none;fill-rule:evenodd;stroke:#000000;stroke-width:2.0px;stroke-linecap:butt;stroke-linejoin:miter;stroke-opacity:1"/>
<path class="bond-15 atom-15 atom-16" d="M 277.2,117.3 L 296.4,132.5" style="fill:none;fill-rule:evenodd;stroke:#000000;stroke-width:2.0px;stroke-linecap:butt;stroke-linejoin:miter;stroke-opacity:1"/>
<path class="bond-16 atom-16 atom-17" d="M 301.2,130.6 L 296.9,160.0" style="fill:none;fill-rule:evenodd;stroke:#000000;stroke-width:2.0px;stroke-linecap:butt;stroke-linejoin:miter;stroke-opacity:1"/>
<path class="bond-17 atom-17 atom-18" d="M 296.9,160.0 L 269.3,170.9" style="fill:none;fill-rule:evenodd;stroke:#000000;stroke-width:2.0px;stroke-linecap:butt;stroke-linejoin:miter;stroke-opacity:1"/>
<path class="bond-17 atom-17 atom-18" d="M 292.9,156.8 L 270.1,165.9" style="fill:none;fill-rule:evenodd;stroke:#000000;stroke-width:2.0px;stroke-linecap:butt;stroke-linejoin:miter;stroke-opacity:1"/>
<path class="bond-18 atom-18 atom-19" d="M 269.3,170.9 L 246.1,152.5" style="fill:none;fill-rule:evenodd;stroke:#000000;stroke-width:2.0px;stroke-linecap:butt;stroke-linejoin:miter;stroke-opacity:1"/>
<path class="bond-19 atom-19 atom-20" d="M 246.1,152.5 L 250.4,123.2" style="fill:none;fill-rule:evenodd;stroke:#000000;stroke-width:2.0px;stroke-linecap:butt;stroke-linejoin:miter;stroke-opacity:1"/>
<path class="bond-19 atom-19 atom-20" d="M 250.8,150.6 L 254.4,126.4" style="fill:none;fill-rule:evenodd;stroke:#000000;stroke-width:2.0px;stroke-linecap:butt;stroke-linejoin:miter;stroke-opacity:1"/>
<path class="bond-20 atom-10 atom-21" d="M 198.3,120.9 L 192.3,144.5" style="fill:none;fill-rule:evenodd;stroke:#000000;stroke-width:2.0px;stroke-linecap:butt;stroke-linejoin:miter;stroke-opacity:1"/>
<path class="bond-21 atom-21 atom-22" d="M 192.3,144.5 L 162.7,146.3" style="fill:none;fill-rule:evenodd;stroke:#000000;stroke-width:2.0px;stroke-linecap:butt;stroke-linejoin:miter;stroke-opacity:1"/>
<path class="bond-22 atom-22 atom-23" d="M 160.9,149.6 L 160.5,149.3" style="fill:none;fill-rule:evenodd;stroke:#000000;stroke-width:1.0px;stroke-linecap:butt;stroke-linejoin:miter;stroke-opacity:1"/>
<path class="bond-22 atom-22 atom-23" d="M 159.2,152.9 L 158.2,152.3" style="fill:none;fill-rule:evenodd;stroke:#000000;stroke-width:1.0px;stroke-linecap:butt;stroke-linejoin:miter;stroke-opacity:1"/>
<path class="bond-22 atom-22 atom-23" d="M 157.4,156.2 L 156.0,155.3" style="fill:none;fill-rule:evenodd;stroke:#000000;stroke-width:1.0px;stroke-linecap:butt;stroke-linejoin:miter;stroke-opacity:1"/>
<path class="bond-22 atom-22 atom-23" d="M 155.7,159.5 L 153.8,158.3" style="fill:none;fill-rule:evenodd;stroke:#000000;stroke-width:1.0px;stroke-linecap:butt;stroke-linejoin:miter;stroke-opacity:1"/>
<path class="bond-22 atom-22 atom-23" d="M 153.9,162.7 L 151.6,161.2" style="fill:none;fill-rule:evenodd;stroke:#000000;stroke-width:1.0px;stroke-linecap:butt;stroke-linejoin:miter;stroke-opacity:1"/>
<path class="bond-22 atom-22 atom-23" d="M 152.2,166.0 L 149.4,164.2" style="fill:none;fill-rule:evenodd;stroke:#000000;stroke-width:1.0px;stroke-linecap:butt;stroke-linejoin:miter;stroke-opacity:1"/>
<path class="bond-22 atom-22 atom-23" d="M 150.4,169.3 L 147.2,167.2" style="fill:none;fill-rule:evenodd;stroke:#000000;stroke-width:1.0px;stroke-linecap:butt;stroke-linejoin:miter;stroke-opacity:1"/>
<path class="bond-22 atom-22 atom-23" d="M 148.7,172.6 L 144.9,170.2" style="fill:none;fill-rule:evenodd;stroke:#000000;stroke-width:1.0px;stroke-linecap:butt;stroke-linejoin:miter;stroke-opacity:1"/>
<path class="bond-23 atom-7 atom-24" d="M 151.7,118.8 L 143.7,90.3" style="fill:none;fill-rule:evenodd;stroke:#000000;stroke-width:2.0px;stroke-linecap:butt;stroke-linejoin:miter;stroke-opacity:1"/>
<path class="bond-24 atom-24 atom-25" d="M 143.7,90.3 L 164.5,69.1" style="fill:none;fill-rule:evenodd;stroke:#000000;stroke-width:2.0px;stroke-linecap:butt;stroke-linejoin:miter;stroke-opacity:1"/>
<path class="bond-24 atom-24 atom-25" d="M 142.4,85.3 L 159.5,67.8" style="fill:none;fill-rule:evenodd;stroke:#000000;stroke-width:2.0px;stroke-linecap:butt;stroke-linejoin:miter;stroke-opacity:1"/>
<path class="bond-25 atom-25 atom-26" d="M 164.5,69.1 L 156.5,40.5" style="fill:none;fill-rule:evenodd;stroke:#000000;stroke-width:2.0px;stroke-linecap:butt;stroke-linejoin:miter;stroke-opacity:1"/>
<path class="bond-26 atom-26 atom-27" d="M 156.5,40.5 L 173.0,23.6" style="fill:none;fill-rule:evenodd;stroke:#000000;stroke-width:2.0px;stroke-linecap:butt;stroke-linejoin:miter;stroke-opacity:1"/>
<path class="bond-27 atom-26 atom-28" d="M 156.5,40.5 L 127.8,33.2" style="fill:none;fill-rule:evenodd;stroke:#000000;stroke-width:2.0px;stroke-linecap:butt;stroke-linejoin:miter;stroke-opacity:1"/>
<path class="bond-27 atom-26 atom-28" d="M 152.9,44.2 L 129.1,38.1" style="fill:none;fill-rule:evenodd;stroke:#000000;stroke-width:2.0px;stroke-linecap:butt;stroke-linejoin:miter;stroke-opacity:1"/>
<path class="bond-28 atom-28 atom-29" d="M 127.8,33.2 L 107.0,54.4" style="fill:none;fill-rule:evenodd;stroke:#000000;stroke-width:2.0px;stroke-linecap:butt;stroke-linejoin:miter;stroke-opacity:1"/>
<path class="bond-29 atom-29 atom-30" d="M 107.0,54.4 L 115.0,82.9" style="fill:none;fill-rule:evenodd;stroke:#000000;stroke-width:2.0px;stroke-linecap:butt;stroke-linejoin:miter;stroke-opacity:1"/>
<path class="bond-29 atom-29 atom-30" d="M 112.0,55.6 L 118.6,79.3" style="fill:none;fill-rule:evenodd;stroke:#000000;stroke-width:2.0px;stroke-linecap:butt;stroke-linejoin:miter;stroke-opacity:1"/>
<path class="bond-30 atom-30 atom-31" d="M 115.0,82.9 L 94.3,104.1" style="fill:none;fill-rule:evenodd;stroke:#000000;stroke-width:2.0px;stroke-linecap:butt;stroke-linejoin:miter;stroke-opacity:1"/>
<path class="bond-31 atom-31 atom-32" d="M 96.1,102.3 L 71.0,95.8" style="fill:none;fill-rule:evenodd;stroke:#000000;stroke-width:2.0px;stroke-linecap:butt;stroke-linejoin:miter;stroke-opacity:1"/>
<path class="bond-31 atom-31 atom-32" d="M 95.0,106.6 L 69.9,100.1" style="fill:none;fill-rule:evenodd;stroke:#000000;stroke-width:2.0px;stroke-linecap:butt;stroke-linejoin:miter;stroke-opacity:1"/>
<path class="bond-32 atom-31 atom-5" d="M 94.3,104.1 L 100.9,127.5" style="fill:none;fill-rule:evenodd;stroke:#000000;stroke-width:2.0px;stroke-linecap:butt;stroke-linejoin:miter;stroke-opacity:1"/>
<path class="bond-33 atom-22 atom-7" d="M 162.7,146.3 L 151.7,118.8" style="fill:none;fill-rule:evenodd;stroke:#000000;stroke-width:2.0px;stroke-linecap:butt;stroke-linejoin:miter;stroke-opacity:1"/>
<path class="bond-34 atom-30 atom-24" d="M 115.0,82.9 L 143.7,90.3" style="fill:none;fill-rule:evenodd;stroke:#000000;stroke-width:2.0px;stroke-linecap:butt;stroke-linejoin:miter;stroke-opacity:1"/>
<path class="bond-35 atom-20 atom-11" d="M 250.4,123.2 L 227.1,104.8" style="fill:none;fill-rule:evenodd;stroke:#000000;stroke-width:2.0px;stroke-linecap:butt;stroke-linejoin:miter;stroke-opacity:1"/>
<path class="bond-36 atom-20 atom-15" d="M 250.4,123.2 L 277.9,112.3" style="fill:none;fill-rule:evenodd;stroke:#000000;stroke-width:2.0px;stroke-linecap:butt;stroke-linejoin:miter;stroke-opacity:1"/>
<path d="M 52.5,145.3 L 52.9,146.5 L 54.3,146.9" style="fill:none;stroke:#000000;stroke-width:2.0px;stroke-linecap:butt;stroke-linejoin:miter;stroke-miterlimit:10;stroke-opacity:1;"/>
<path d="M 80.2,153.5 L 81.6,153.8 L 82.4,153.0" style="fill:none;stroke:#000000;stroke-width:2.0px;stroke-linecap:butt;stroke-linejoin:miter;stroke-miterlimit:10;stroke-opacity:1;"/>
<path d="M 173.4,100.8 L 174.6,99.9 L 175.6,100.5" style="fill:none;stroke:#000000;stroke-width:2.0px;stroke-linecap:butt;stroke-linejoin:miter;stroke-miterlimit:10;stroke-opacity:1;"/>
<path d="M 231.2,76.9 L 231.5,75.5 L 232.6,75.0" style="fill:none;stroke:#000000;stroke-width:2.0px;stroke-linecap:butt;stroke-linejoin:miter;stroke-miterlimit:10;stroke-opacity:1;"/>
<path d="M 281.3,82.2 L 282.2,82.9 L 282.0,84.4" style="fill:none;stroke:#000000;stroke-width:2.0px;stroke-linecap:butt;stroke-linejoin:miter;stroke-miterlimit:10;stroke-opacity:1;"/>
<path d="M 300.0,129.7 L 301.2,130.6 L 301.0,132.1" style="fill:none;stroke:#000000;stroke-width:2.0px;stroke-linecap:butt;stroke-linejoin:miter;stroke-miterlimit:10;stroke-opacity:1;"/>
<path d="M 297.1,158.5 L 296.9,160.0 L 295.5,160.5" style="fill:none;stroke:#000000;stroke-width:2.0px;stroke-linecap:butt;stroke-linejoin:miter;stroke-miterlimit:10;stroke-opacity:1;"/>
<path d="M 270.7,170.4 L 269.3,170.9 L 268.2,170.0" style="fill:none;stroke:#000000;stroke-width:2.0px;stroke-linecap:butt;stroke-linejoin:miter;stroke-miterlimit:10;stroke-opacity:1;"/>
<path d="M 247.2,153.4 L 246.1,152.5 L 246.3,151.1" style="fill:none;stroke:#000000;stroke-width:2.0px;stroke-linecap:butt;stroke-linejoin:miter;stroke-miterlimit:10;stroke-opacity:1;"/>
<path d="M 192.6,143.3 L 192.3,144.5 L 190.8,144.5" style="fill:none;stroke:#000000;stroke-width:2.0px;stroke-linecap:butt;stroke-linejoin:miter;stroke-miterlimit:10;stroke-opacity:1;"/>
<path d="M 164.2,146.2 L 162.7,146.3 L 162.1,145.0" style="fill:none;stroke:#000000;stroke-width:2.0px;stroke-linecap:butt;stroke-linejoin:miter;stroke-miterlimit:10;stroke-opacity:1;"/>
<path d="M 163.4,70.1 L 164.5,69.1 L 164.1,67.6" style="fill:none;stroke:#000000;stroke-width:2.0px;stroke-linecap:butt;stroke-linejoin:miter;stroke-miterlimit:10;stroke-opacity:1;"/>
<path d="M 129.2,33.5 L 127.8,33.2 L 126.7,34.2" style="fill:none;stroke:#000000;stroke-width:2.0px;stroke-linecap:butt;stroke-linejoin:miter;stroke-miterlimit:10;stroke-opacity:1;"/>
<path d="M 108.1,53.3 L 107.0,54.4 L 107.4,55.8" style="fill:none;stroke:#000000;stroke-width:2.0px;stroke-linecap:butt;stroke-linejoin:miter;stroke-miterlimit:10;stroke-opacity:1;"/>
<path d="M 95.3,103.0 L 94.3,104.1 L 94.6,105.3" style="fill:none;stroke:#000000;stroke-width:2.0px;stroke-linecap:butt;stroke-linejoin:miter;stroke-miterlimit:10;stroke-opacity:1;"/>
<path class="atom-1" d="M 41.0 118.0 Q 41.0 116.0, 42.0 114.8 Q 43.0 113.7, 44.9 113.7 Q 46.7 113.7, 47.7 114.8 Q 48.7 116.0, 48.7 118.0 Q 48.7 120.0, 47.7 121.2 Q 46.7 122.3, 44.9 122.3 Q 43.0 122.3, 42.0 121.2 Q 41.0 120.0, 41.0 118.0 M 44.9 121.4 Q 46.2 121.4, 46.8 120.5 Q 47.5 119.7, 47.5 118.0 Q 47.5 116.3, 46.8 115.5 Q 46.2 114.7, 44.9 114.7 Q 43.6 114.7, 42.9 115.5 Q 42.2 116.3, 42.2 118.0 Q 42.2 119.7, 42.9 120.5 Q 43.6 121.4, 44.9 121.4 " fill="#000000"/>
<path class="atom-5" d="M 100.5 128.4 L 103.2 132.9 Q 103.5 133.3, 103.9 134.1 Q 104.4 134.9, 104.4 135.0 L 104.4 128.4 L 105.5 128.4 L 105.5 136.8 L 104.3 136.8 L 101.4 132.0 Q 101.0 131.4, 100.7 130.8 Q 100.3 130.1, 100.2 129.9 L 100.2 136.8 L 99.1 136.8 L 99.1 128.4 L 100.5 128.4 " fill="#000000"/>
<path class="atom-9" d="M 175.0 76.3 Q 175.0 74.3, 176.0 73.1 Q 177.0 72.0, 178.9 72.0 Q 180.7 72.0, 181.7 73.1 Q 182.7 74.3, 182.7 76.3 Q 182.7 78.3, 181.7 79.5 Q 180.7 80.6, 178.9 80.6 Q 177.0 80.6, 176.0 79.5 Q 175.0 78.3, 175.0 76.3 M 178.9 79.7 Q 180.2 79.7, 180.8 78.8 Q 181.5 78.0, 181.5 76.3 Q 181.5 74.6, 180.8 73.8 Q 180.2 73.0, 178.9 73.0 Q 177.6 73.0, 176.9 73.8 Q 176.2 74.6, 176.2 76.3 Q 176.2 78.0, 176.9 78.8 Q 177.6 79.7, 178.9 79.7 " fill="#000000"/>
<path class="atom-10" d="M 197.7 111.5 L 200.5 116.0 Q 200.8 116.4, 201.2 117.2 Q 201.6 118.0, 201.7 118.1 L 201.7 111.5 L 202.8 111.5 L 202.8 119.9 L 201.6 119.9 L 198.7 115.1 Q 198.3 114.5, 198.0 113.9 Q 197.6 113.2, 197.5 113.0 L 197.5 119.9 L 196.4 119.9 L 196.4 111.5 L 197.7 111.5 " fill="#000000"/>
<path class="atom-13" d="M 257.1 60.3 L 259.9 64.8 Q 260.2 65.2, 260.6 66.0 Q 261.0 66.8, 261.1 66.9 L 261.1 60.3 L 262.2 60.3 L 262.2 68.7 L 261.0 68.7 L 258.1 63.9 Q 257.7 63.3, 257.4 62.7 Q 257.0 62.0, 256.9 61.8 L 256.9 68.7 L 255.8 68.7 L 255.8 60.3 L 257.1 60.3 " fill="#000000"/>
<path class="atom-27" d="M 174.0 19.6 Q 174.0 17.5, 174.9 16.4 Q 175.9 15.3, 177.8 15.3 Q 179.5 15.3, 180.4 16.6 L 179.6 17.2 Q 179.0 16.3, 177.8 16.3 Q 176.5 16.3, 175.8 17.2 Q 175.2 18.0, 175.2 19.6 Q 175.2 21.3, 175.8 22.1 Q 176.5 23.0, 177.9 23.0 Q 178.8 23.0, 179.9 22.4 L 180.2 23.3 Q 179.8 23.6, 179.1 23.8 Q 178.5 23.9, 177.7 23.9 Q 175.9 23.9, 174.9 22.8 Q 174.0 21.7, 174.0 19.6 " fill="#000000"/>
<path class="atom-27" d="M 181.3 14.8 L 182.4 14.8 L 182.4 23.8 L 181.3 23.8 L 181.3 14.8 " fill="#000000"/>
<path class="atom-32" d="M 61.7 96.8 Q 61.7 94.8, 62.7 93.6 Q 63.7 92.5, 65.6 92.5 Q 67.5 92.5, 68.5 93.6 Q 69.5 94.8, 69.5 96.8 Q 69.5 98.8, 68.4 100.0 Q 67.4 101.1, 65.6 101.1 Q 63.7 101.1, 62.7 100.0 Q 61.7 98.8, 61.7 96.8 M 65.6 100.2 Q 66.9 100.2, 67.6 99.3 Q 68.3 98.5, 68.3 96.8 Q 68.3 95.1, 67.6 94.3 Q 66.9 93.5, 65.6 93.5 Q 64.3 93.5, 63.6 94.3 Q 62.9 95.1, 62.9 96.8 Q 62.9 98.5, 63.6 99.3 Q 64.3 100.2, 65.6 100.2 " fill="#000000"/>
<path class="legend" d="M 34.4 186.1 Q 36.1 186.1, 37.0 187.1 Q 38.0 188.2, 38.0 190.2 Q 38.0 192.2, 36.8 193.4 Q 35.7 194.6, 33.8 194.6 Q 32.8 194.6, 32.0 194.3 L 32.0 198.3 L 30.5 198.3 L 30.5 186.2 L 31.8 186.2 L 31.9 187.2 Q 32.4 186.6, 33.0 186.3 Q 33.6 186.1, 34.4 186.1 M 33.7 193.4 Q 35.0 193.4, 35.7 192.5 Q 36.4 191.7, 36.4 190.2 Q 36.4 188.8, 35.9 188.0 Q 35.3 187.2, 34.3 187.2 Q 33.4 187.2, 32.9 187.7 Q 32.3 188.1, 32.0 188.9 L 32.0 193.1 Q 32.9 193.4, 33.7 193.4 " fill="#000000"/>
<path class="legend" d="M 40.4 186.2 L 40.5 187.3 Q 41.4 186.1, 42.8 186.1 Q 43.3 186.1, 43.9 186.2 L 43.6 187.6 Q 42.9 187.4, 42.6 187.4 Q 41.9 187.4, 41.4 187.7 Q 41.0 187.9, 40.7 188.6 L 40.7 194.4 L 39.1 194.4 L 39.1 186.2 L 40.4 186.2 " fill="#000000"/>
<path class="legend" d="M 44.6 190.3 Q 44.6 188.3, 45.6 187.2 Q 46.6 186.1, 48.4 186.1 Q 50.2 186.1, 51.0 187.2 Q 51.8 188.2, 51.8 190.3 L 51.8 190.5 L 46.1 190.5 Q 46.1 191.9, 46.7 192.6 Q 47.4 193.4, 48.5 193.4 Q 49.2 193.4, 49.8 193.2 Q 50.4 193.1, 51.1 192.8 L 51.5 193.8 Q 50.7 194.2, 50.0 194.4 Q 49.2 194.6, 48.5 194.6 Q 46.6 194.6, 45.6 193.4 Q 44.6 192.3, 44.6 190.3 M 48.4 187.2 Q 47.5 187.2, 46.9 187.8 Q 46.3 188.3, 46.2 189.4 L 50.3 189.4 Q 50.1 188.3, 49.7 187.8 Q 49.2 187.2, 48.4 187.2 " fill="#000000"/>
<path class="legend" d="M 60.4 182.3 L 60.4 194.4 L 59.1 194.4 L 58.9 193.4 Q 58.0 194.6, 56.5 194.6 Q 54.8 194.6, 53.8 193.5 Q 52.9 192.4, 52.9 190.4 Q 52.9 188.4, 54.0 187.2 Q 55.1 186.1, 57.1 186.1 Q 58.0 186.1, 58.9 186.3 L 58.9 182.3 L 60.4 182.3 M 56.6 193.4 Q 57.4 193.4, 58.0 192.9 Q 58.6 192.5, 58.9 191.6 L 58.9 187.5 Q 58.0 187.2, 57.1 187.2 Q 55.9 187.2, 55.1 188.1 Q 54.4 188.9, 54.4 190.4 Q 54.4 191.9, 55.0 192.6 Q 55.6 193.4, 56.6 193.4 " fill="#000000"/>
<path class="legend" d="M 62.1 192.8 L 63.7 192.8 L 63.7 194.4 L 62.1 194.4 L 62.1 192.8 " fill="#000000"/>
<path class="legend" d="" fill="#000000"/>
<path class="legend" d="M 74.8 186.1 Q 76.5 186.1, 77.4 187.1 Q 78.4 188.2, 78.4 190.2 Q 78.4 192.2, 77.3 193.4 Q 76.2 194.6, 74.2 194.6 Q 73.3 194.6, 72.5 194.3 L 72.5 198.3 L 71.0 198.3 L 71.0 186.2 L 72.2 186.2 L 72.4 187.2 Q 72.8 186.6, 73.4 186.3 Q 74.0 186.1, 74.8 186.1 M 74.2 193.4 Q 75.4 193.4, 76.2 192.5 Q 76.9 191.7, 76.9 190.2 Q 76.9 188.8, 76.3 188.0 Q 75.7 187.2, 74.7 187.2 Q 73.9 187.2, 73.3 187.7 Q 72.7 188.1, 72.5 188.9 L 72.5 193.1 Q 73.3 193.4, 74.2 193.4 " fill="#000000"/>
<path class="legend" d="M 79.6 183.1 L 81.1 183.1 L 81.1 194.4 L 79.6 194.4 L 79.6 183.1 " fill="#000000"/>
<path class="legend" d="M 83.0 188.8 Q 83.0 185.9, 84.3 184.5 Q 85.6 183.0, 88.1 183.0 Q 90.4 183.0, 91.7 184.6 L 90.6 185.5 Q 89.7 184.3, 88.1 184.3 Q 86.4 184.3, 85.5 185.4 Q 84.6 186.6, 84.6 188.8 Q 84.6 191.0, 85.5 192.1 Q 86.5 193.3, 88.3 193.3 Q 89.5 193.3, 91.0 192.5 L 91.4 193.7 Q 90.8 194.1, 89.9 194.3 Q 89.0 194.6, 88.1 194.6 Q 85.6 194.6, 84.3 193.1 Q 83.0 191.6, 83.0 188.8 " fill="#000000"/>
<path class="legend" d="M 96.9 187.3 Q 97.9 187.3, 98.7 187.8 Q 99.5 188.2, 100.0 189.0 Q 100.4 189.8, 100.4 190.8 Q 100.4 192.0, 99.9 192.9 Q 99.3 193.7, 98.4 194.1 Q 97.4 194.6, 96.4 194.6 Q 95.4 194.6, 94.4 194.2 Q 93.4 193.8, 92.8 193.1 L 93.7 192.1 Q 94.3 192.6, 95.0 193.0 Q 95.7 193.3, 96.4 193.3 Q 97.4 193.3, 98.1 192.6 Q 98.8 192.0, 98.8 190.9 Q 98.8 189.7, 98.1 189.1 Q 97.4 188.5, 96.3 188.5 Q 95.4 188.5, 94.2 189.0 L 93.4 188.6 L 93.9 183.1 L 99.7 183.1 L 99.6 184.4 L 95.2 184.4 L 94.9 187.7 Q 95.9 187.3, 96.9 187.3 " fill="#000000"/>
<path class="legend" d="M 105.8 194.6 Q 103.7 194.6, 102.7 193.0 Q 101.7 191.5, 101.7 188.8 Q 101.7 186.0, 102.7 184.5 Q 103.7 183.0, 105.8 183.0 Q 107.9 183.0, 108.9 184.5 Q 109.9 186.0, 109.9 188.8 Q 109.9 191.5, 108.9 193.0 Q 107.9 194.6, 105.8 194.6 M 105.8 193.3 Q 107.0 193.3, 107.7 192.1 Q 108.3 191.0, 108.3 188.8 Q 108.3 186.5, 107.7 185.4 Q 107.0 184.3, 105.8 184.3 Q 104.6 184.3, 103.9 185.4 Q 103.3 186.5, 103.3 188.8 Q 103.3 191.0, 103.9 192.1 Q 104.6 193.3, 105.8 193.3 " fill="#000000"/>
<path class="legend" d="M 111.4 192.6 L 113.0 192.6 L 113.0 194.2 L 111.4 194.2 L 111.4 192.6 M 111.4 187.1 L 113.0 187.1 L 113.0 188.7 L 111.4 188.7 L 111.4 187.1 " fill="#000000"/>
<path class="legend" d="" fill="#000000"/>
<path class="legend" d="M 124.9 187.4 Q 125.9 187.4, 126.7 187.8 Q 127.5 188.2, 127.9 189.0 Q 128.3 189.8, 128.3 190.8 Q 128.3 191.9, 127.8 192.8 Q 127.3 193.6, 126.5 194.1 Q 125.6 194.6, 124.5 194.6 Q 122.5 194.6, 121.5 193.2 Q 120.5 191.8, 120.5 189.1 Q 120.5 186.1, 121.7 184.5 Q 123.0 183.0, 125.4 183.0 Q 126.1 183.0, 126.7 183.1 Q 127.3 183.3, 127.9 183.6 L 127.3 184.7 Q 126.4 184.3, 125.4 184.3 Q 123.8 184.3, 123.0 185.3 Q 122.2 186.3, 122.1 188.4 Q 122.7 187.9, 123.4 187.6 Q 124.1 187.4, 124.9 187.4 M 124.5 193.2 Q 125.1 193.2, 125.6 192.9 Q 126.1 192.6, 126.4 192.0 Q 126.7 191.5, 126.7 190.8 Q 126.7 189.8, 126.2 189.2 Q 125.6 188.6, 124.6 188.6 Q 123.9 188.6, 123.2 188.9 Q 122.6 189.2, 122.1 189.7 Q 122.1 191.6, 122.7 192.4 Q 123.3 193.2, 124.5 193.2 " fill="#000000"/>
<path class="legend" d="M 129.7 192.8 L 131.3 192.8 L 131.3 194.4 L 129.7 194.4 L 129.7 192.8 " fill="#000000"/>
<path class="legend" d="M 138.7 184.4 L 132.7 184.4 L 132.7 183.1 L 140.3 183.1 L 140.3 184.2 L 135.7 194.4 L 134.2 194.4 L 138.7 184.4 " fill="#000000"/>
<path class="legend" d="M 145.0 183.0 Q 147.0 183.0, 148.0 184.4 Q 149.0 185.7, 149.0 188.4 Q 149.0 191.4, 147.8 193.0 Q 146.5 194.6, 144.1 194.6 Q 143.4 194.6, 142.8 194.4 Q 142.2 194.2, 141.6 193.9 L 142.2 192.8 Q 143.1 193.3, 144.1 193.3 Q 145.7 193.3, 146.5 192.3 Q 147.3 191.2, 147.4 189.1 Q 146.8 189.6, 146.1 189.9 Q 145.4 190.2, 144.6 190.2 Q 143.6 190.2, 142.8 189.7 Q 142.0 189.3, 141.6 188.5 Q 141.2 187.7, 141.2 186.8 Q 141.2 185.6, 141.7 184.8 Q 142.2 183.9, 143.0 183.5 Q 143.9 183.0, 145.0 183.0 M 142.8 186.7 Q 142.8 187.7, 143.3 188.3 Q 143.9 188.9, 144.9 188.9 Q 145.6 188.9, 146.2 188.6 Q 146.9 188.3, 147.4 187.9 Q 147.4 186.0, 146.8 185.1 Q 146.2 184.3, 145.0 184.3 Q 144.4 184.3, 143.8 184.6 Q 143.4 184.9, 143.1 185.5 Q 142.8 186.0, 142.8 186.7 " fill="#000000"/>
<path class="legend" d="" fill="#000000"/>
<path class="legend" d="" fill="#000000"/>
<path class="legend" d="" fill="#000000"/>
<path class="legend" d="" fill="#000000"/>
<path class="legend" d="" fill="#000000"/>
<path class="legend" d="M 179.5 190.3 Q 179.5 188.3, 180.5 187.2 Q 181.5 186.1, 183.3 186.1 Q 185.1 186.1, 185.9 187.2 Q 186.8 188.2, 186.8 190.3 L 186.8 190.5 L 181.0 190.5 Q 181.0 191.9, 181.7 192.6 Q 182.3 193.4, 183.5 193.4 Q 184.1 193.4, 184.7 193.2 Q 185.3 193.1, 186.0 192.8 L 186.4 193.8 Q 185.6 194.2, 184.9 194.4 Q 184.2 194.6, 183.4 194.6 Q 181.5 194.6, 180.5 193.4 Q 179.5 192.3, 179.5 190.3 M 183.3 187.2 Q 182.4 187.2, 181.8 187.8 Q 181.3 188.3, 181.1 189.4 L 185.2 189.4 Q 185.1 188.3, 184.6 187.8 Q 184.2 187.2, 183.3 187.2 " fill="#000000"/>
<path class="legend" d="M 190.8 190.2 L 188.0 186.2 L 189.8 186.2 L 191.8 189.0 L 193.7 186.2 L 195.3 186.2 L 192.6 190.2 L 195.6 194.4 L 193.8 194.4 L 191.6 191.3 L 189.5 194.4 L 187.8 194.4 L 190.8 190.2 " fill="#000000"/>
<path class="legend" d="M 200.0 186.1 Q 201.7 186.1, 202.7 187.1 Q 203.6 188.2, 203.6 190.2 Q 203.6 192.2, 202.5 193.4 Q 201.4 194.6, 199.4 194.6 Q 198.5 194.6, 197.7 194.3 L 197.7 198.3 L 196.2 198.3 L 196.2 186.2 L 197.4 186.2 L 197.6 187.2 Q 198.0 186.6, 198.6 186.3 Q 199.2 186.1, 200.0 186.1 M 199.4 193.4 Q 200.6 193.4, 201.4 192.5 Q 202.1 191.7, 202.1 190.2 Q 202.1 188.8, 201.5 188.0 Q 200.9 187.2, 199.9 187.2 Q 199.1 187.2, 198.5 187.7 Q 197.9 188.1, 197.7 188.9 L 197.7 193.1 Q 198.5 193.4, 199.4 193.4 " fill="#000000"/>
<path class="legend" d="M 204.8 192.8 L 206.4 192.8 L 206.4 194.4 L 204.8 194.4 L 204.8 192.8 " fill="#000000"/>
<path class="legend" d="" fill="#000000"/>
<path class="legend" d="M 217.5 186.1 Q 219.2 186.1, 220.1 187.1 Q 221.1 188.2, 221.1 190.2 Q 221.1 192.2, 220.0 193.4 Q 218.8 194.6, 216.9 194.6 Q 215.9 194.6, 215.2 194.3 L 215.2 198.3 L 213.7 198.3 L 213.7 186.2 L 214.9 186.2 L 215.1 187.2 Q 215.5 186.6, 216.1 186.3 Q 216.7 186.1, 217.5 186.1 M 216.9 193.4 Q 218.1 193.4, 218.8 192.5 Q 219.6 191.7, 219.6 190.2 Q 219.6 188.8, 219.0 188.0 Q 218.4 187.2, 217.4 187.2 Q 216.6 187.2, 216.0 187.7 Q 215.4 188.1, 215.2 188.9 L 215.2 193.1 Q 216.0 193.4, 216.9 193.4 " fill="#000000"/>
<path class="legend" d="M 222.3 183.1 L 223.8 183.1 L 223.8 194.4 L 222.3 194.4 L 222.3 183.1 " fill="#000000"/>
<path class="legend" d="M 225.6 188.8 Q 225.6 185.9, 227.0 184.5 Q 228.3 183.0, 230.8 183.0 Q 233.1 183.0, 234.4 184.6 L 233.3 185.5 Q 232.4 184.3, 230.8 184.3 Q 229.1 184.3, 228.2 185.4 Q 227.3 186.6, 227.3 188.8 Q 227.3 191.0, 228.2 192.1 Q 229.1 193.3, 231.0 193.3 Q 232.2 193.3, 233.7 192.5 L 234.1 193.7 Q 233.5 194.1, 232.6 194.3 Q 231.7 194.6, 230.7 194.6 Q 228.3 194.6, 227.0 193.1 Q 225.6 191.6, 225.6 188.8 " fill="#000000"/>
<path class="legend" d="M 239.6 187.3 Q 240.6 187.3, 241.4 187.8 Q 242.2 188.2, 242.7 189.0 Q 243.1 189.8, 243.1 190.8 Q 243.1 192.0, 242.6 192.9 Q 242.0 193.7, 241.1 194.1 Q 240.1 194.6, 239.1 194.6 Q 238.0 194.6, 237.1 194.2 Q 236.1 193.8, 235.5 193.1 L 236.4 192.1 Q 237.0 192.6, 237.7 193.0 Q 238.4 193.3, 239.1 193.3 Q 240.1 193.3, 240.8 192.6 Q 241.5 192.0, 241.5 190.9 Q 241.5 189.7, 240.8 189.1 Q 240.1 188.5, 239.0 188.5 Q 238.0 188.5, 236.9 189.0 L 236.1 188.6 L 236.6 183.1 L 242.4 183.1 L 242.3 184.4 L 237.9 184.4 L 237.6 187.7 Q 238.6 187.3, 239.6 187.3 " fill="#000000"/>
<path class="legend" d="M 248.5 194.6 Q 246.4 194.6, 245.4 193.0 Q 244.3 191.5, 244.3 188.8 Q 244.3 186.0, 245.4 184.5 Q 246.4 183.0, 248.5 183.0 Q 250.6 183.0, 251.6 184.5 Q 252.6 186.0, 252.6 188.8 Q 252.6 191.5, 251.6 193.0 Q 250.6 194.6, 248.5 194.6 M 248.5 193.3 Q 249.7 193.3, 250.4 192.1 Q 251.0 191.0, 251.0 188.8 Q 251.0 186.5, 250.4 185.4 Q 249.7 184.3, 248.5 184.3 Q 247.3 184.3, 246.6 185.4 Q 245.9 186.5, 245.9 188.8 Q 245.9 191.0, 246.6 192.1 Q 247.3 193.3, 248.5 193.3 " fill="#000000"/>
<path class="legend" d="M 254.1 192.6 L 255.7 192.6 L 255.7 194.2 L 254.1 194.2 L 254.1 192.6 M 254.1 187.1 L 255.7 187.1 L 255.7 188.7 L 254.1 188.7 L 254.1 187.1 " fill="#000000"/>
<path class="legend" d="" fill="#000000"/>
<path class="legend" d="M 269.1 184.4 L 263.2 184.4 L 263.2 183.1 L 270.7 183.1 L 270.7 184.2 L 266.1 194.4 L 264.6 194.4 L 269.1 184.4 " fill="#000000"/>
<path class="legend" d="M 271.6 192.8 L 273.2 192.8 L 273.2 194.4 L 271.6 194.4 L 271.6 192.8 " fill="#000000"/>
<path class="legend" d="M 275.3 193.2 L 277.8 193.2 L 277.8 184.7 L 275.0 185.5 L 274.7 184.6 L 278.1 183.0 L 279.3 183.2 L 279.3 193.2 L 281.5 193.2 L 281.5 194.4 L 275.3 194.4 L 275.3 193.2 " fill="#000000"/>
<path class="legend" d="M 283.3 193.2 L 285.7 193.2 L 285.7 184.7 L 283.0 185.5 L 282.6 184.6 L 286.1 183.0 L 287.2 183.2 L 287.2 193.2 L 289.5 193.2 L 289.5 194.4 L 283.3 194.4 L 283.3 193.2 " fill="#000000"/>
</svg>