<svg xmlns="http://www.w3.org/2000/svg" xmlns:rdkit="http://www.rdkit.org/xml" xmlns:xlink="http://www.w3.org/1999/xlink" version="1.1" baseProfile="full" xml:space="preserve" width="326px" height="264px" viewBox="0 0 326 264">
<!-- END OF HEADER -->
<rect style="opacity:1.0;fill:#FFFFFF;stroke:none" width="326.0" height="264.0" x="0.0" y="0.0"> </rect>
<ellipse cx="212.5" cy="171.0" rx="12.9" ry="12.9" class="atom-0" style="fill:#7F7FFF;fill-rule:evenodd;stroke:#7F7FFF;stroke-width:1.0px;stroke-linecap:butt;stroke-linejoin:miter;stroke-opacity:1"/>
<ellipse cx="199.9" cy="144.3" rx="12.9" ry="12.9" class="atom-1" style="fill:#7F7FFF;fill-rule:evenodd;stroke:#7F7FFF;stroke-width:1.0px;stroke-linecap:butt;stroke-linejoin:miter;stroke-opacity:1"/>
<ellipse cx="219.9" cy="122.5" rx="12.9" ry="12.9" class="atom-2" style="fill:#7F7FFF;fill-rule:evenodd;stroke:#7F7FFF;stroke-width:1.0px;stroke-linecap:butt;stroke-linejoin:miter;stroke-opacity:1"/>
<ellipse cx="205.5" cy="96.7" rx="12.9" ry="12.9" class="atom-3" style="fill:#7F7FFF;fill-rule:evenodd;stroke:#7F7FFF;stroke-width:1.0px;stroke-linecap:butt;stroke-linejoin:miter;stroke-opacity:1"/>
<ellipse cx="217.8" cy="69.9" rx="2.9" ry="2.9" class="atom-4" style="fill:#FF7F7F;fill-rule:evenodd;stroke:#FF7F7F;stroke-width:1.0px;stroke-linecap:butt;stroke-linejoin:miter;stroke-opacity:1"/>
<ellipse cx="200.7" cy="45.7" rx="2.9" ry="2.9" class="atom-5" style="fill:#FF7F7F;fill-rule:evenodd;stroke:#FF7F7F;stroke-width:1.0px;stroke-linecap:butt;stroke-linejoin:miter;stroke-opacity:1"/>
<ellipse cx="213.1" cy="18.8" rx="2.9" ry="2.9" class="atom-6" style="fill:#FF7F7F;fill-rule:evenodd;stroke:#FF7F7F;stroke-width:1.0px;stroke-linecap:butt;stroke-linejoin:miter;stroke-opacity:1"/>
<ellipse cx="242.5" cy="16.1" rx="2.9" ry="2.9" class="atom-7" style="fill:#FF7F7F;fill-rule:evenodd;stroke:#FF7F7F;stroke-width:1.0px;stroke-linecap:butt;stroke-linejoin:miter;stroke-opacity:1"/>
<ellipse cx="259.6" cy="40.2" rx="2.9" ry="2.9" class="atom-8" style="fill:#FF7F7F;fill-rule:evenodd;stroke:#FF7F7F;stroke-width:1.0px;stroke-linecap:butt;stroke-linejoin:miter;stroke-opacity:1"/>
<ellipse cx="289.1" cy="37.5" rx="2.9" ry="2.9" class="atom-9" style="fill:#FF7F7F;fill-rule:evenodd;stroke:#FF7F7F;stroke-width:1.0px;stroke-linecap:butt;stroke-linejoin:miter;stroke-opacity:1"/>
<ellipse cx="306.2" cy="61.6" rx="2.9" ry="2.9" class="atom-10" style="fill:#FF7F7F;fill-rule:evenodd;stroke:#FF7F7F;stroke-width:1.0px;stroke-linecap:butt;stroke-linejoin:miter;stroke-opacity:1"/>
<ellipse cx="293.8" cy="88.5" rx="2.9" ry="2.9" class="atom-11" style="fill:#FF7F7F;fill-rule:evenodd;stroke:#FF7F7F;stroke-width:1.0px;stroke-linecap:butt;stroke-linejoin:miter;stroke-opacity:1"/>
<ellipse cx="264.4" cy="91.3" rx="2.9" ry="2.9" class="atom-12" style="fill:#FF7F7F;fill-rule:evenodd;stroke:#FF7F7F;stroke-width:1.0px;stroke-linecap:butt;stroke-linejoin:miter;stroke-opacity:1"/>
<ellipse cx="247.3" cy="67.1" rx="2.9" ry="2.9" class="atom-13" style="fill:#FF7F7F;fill-rule:evenodd;stroke:#FF7F7F;stroke-width:1.0px;stroke-linecap:butt;stroke-linejoin:miter;stroke-opacity:1"/>
<ellipse cx="176.5" cy="102.5" rx="12.9" ry="12.9" class="atom-14" style="fill:#7F7FFF;fill-rule:evenodd;stroke:#7F7FFF;stroke-width:1.0px;stroke-linecap:butt;stroke-linejoin:miter;stroke-opacity:1"/>
<ellipse cx="154.7" cy="82.5" rx="12.9" ry="12.9" class="atom-15" style="fill:#7F7FFF;fill-rule:evenodd;stroke:#7F7FFF;stroke-width:1.0px;stroke-linecap:butt;stroke-linejoin:miter;stroke-opacity:1"/>
<ellipse cx="173.0" cy="131.9" rx="12.9" ry="12.9" class="atom-16" style="fill:#7F7FFF;fill-rule:evenodd;stroke:#7F7FFF;stroke-width:1.0px;stroke-linecap:butt;stroke-linejoin:miter;stroke-opacity:1"/>
<ellipse cx="147.6" cy="116.8" rx="12.9" ry="12.9" class="atom-17" style="fill:#7F7FFF;fill-rule:evenodd;stroke:#7F7FFF;stroke-width:1.0px;stroke-linecap:butt;stroke-linejoin:miter;stroke-opacity:1"/>
<ellipse cx="121.8" cy="131.3" rx="12.9" ry="12.9" class="atom-18" style="fill:#7F7FFF;fill-rule:evenodd;stroke:#7F7FFF;stroke-width:1.0px;stroke-linecap:butt;stroke-linejoin:miter;stroke-opacity:1"/>
<ellipse cx="96.3" cy="116.2" rx="1.1" ry="1.1" class="atom-19" style="fill:#7F7FFF;fill-rule:evenodd;stroke:#7F7FFF;stroke-width:1.0px;stroke-linecap:butt;stroke-linejoin:miter;stroke-opacity:1"/>
<ellipse cx="96.7" cy="86.6" rx="1.1" ry="1.1" class="atom-20" style="fill:#7F7FFF;fill-rule:evenodd;stroke:#7F7FFF;stroke-width:1.0px;stroke-linecap:butt;stroke-linejoin:miter;stroke-opacity:1"/>
<ellipse cx="71.2" cy="71.5" rx="0.0" ry="0.0" class="atom-21" style="fill:#7F7FFF;fill-rule:evenodd;stroke:#7F7FFF;stroke-width:1.0px;stroke-linecap:butt;stroke-linejoin:miter;stroke-opacity:1"/>
<ellipse cx="71.6" cy="41.9" rx="0.0" ry="0.0" class="atom-22" style="fill:#7F7FFF;fill-rule:evenodd;stroke:#7F7FFF;stroke-width:1.0px;stroke-linecap:butt;stroke-linejoin:miter;stroke-opacity:1"/>
<ellipse cx="46.1" cy="26.8" rx="0.0" ry="0.0" class="atom-23" style="fill:#7F7FFF;fill-rule:evenodd;stroke:#7F7FFF;stroke-width:1.0px;stroke-linecap:butt;stroke-linejoin:miter;stroke-opacity:1"/>
<ellipse cx="20.3" cy="41.3" rx="0.0" ry="0.0" class="atom-24" style="fill:#7F7FFF;fill-rule:evenodd;stroke:#7F7FFF;stroke-width:1.0px;stroke-linecap:butt;stroke-linejoin:miter;stroke-opacity:1"/>
<ellipse cx="20.0" cy="70.9" rx="0.0" ry="0.0" class="atom-25" style="fill:#7F7FFF;fill-rule:evenodd;stroke:#7F7FFF;stroke-width:1.0px;stroke-linecap:butt;stroke-linejoin:miter;stroke-opacity:1"/>
<ellipse cx="45.4" cy="86.0" rx="0.0" ry="0.0" class="atom-26" style="fill:#7F7FFF;fill-rule:evenodd;stroke:#7F7FFF;stroke-width:1.0px;stroke-linecap:butt;stroke-linejoin:miter;stroke-opacity:1"/>
<ellipse cx="121.4" cy="160.9" rx="12.9" ry="12.9" class="atom-27" style="fill:#7F7FFF;fill-rule:evenodd;stroke:#7F7FFF;stroke-width:1.0px;stroke-linecap:butt;stroke-linejoin:miter;stroke-opacity:1"/>
<ellipse cx="95.6" cy="175.4" rx="12.9" ry="12.9" class="atom-28" style="fill:#7F7FFF;fill-rule:evenodd;stroke:#7F7FFF;stroke-width:1.0px;stroke-linecap:butt;stroke-linejoin:miter;stroke-opacity:1"/>
<ellipse cx="146.8" cy="176.0" rx="12.9" ry="12.9" class="atom-29" style="fill:#7F7FFF;fill-rule:evenodd;stroke:#7F7FFF;stroke-width:1.0px;stroke-linecap:butt;stroke-linejoin:miter;stroke-opacity:1"/>
<ellipse cx="146.5" cy="205.6" rx="12.9" ry="12.9" class="atom-30" style="fill:#7F7FFF;fill-rule:evenodd;stroke:#7F7FFF;stroke-width:1.0px;stroke-linecap:butt;stroke-linejoin:miter;stroke-opacity:1"/>
<ellipse cx="171.9" cy="220.7" rx="12.9" ry="12.9" class="atom-31" style="fill:#7F7FFF;fill-rule:evenodd;stroke:#7F7FFF;stroke-width:1.0px;stroke-linecap:butt;stroke-linejoin:miter;stroke-opacity:1"/>
<ellipse cx="197.7" cy="206.2" rx="12.9" ry="12.9" class="atom-32" style="fill:#7F7FFF;fill-rule:evenodd;stroke:#7F7FFF;stroke-width:1.0px;stroke-linecap:butt;stroke-linejoin:miter;stroke-opacity:1"/>
<ellipse cx="223.2" cy="221.3" rx="12.9" ry="12.9" class="atom-33" style="fill:#7F7FFF;fill-rule:evenodd;stroke:#7F7FFF;stroke-width:1.0px;stroke-linecap:butt;stroke-linejoin:miter;stroke-opacity:1"/>
<ellipse cx="198.1" cy="176.6" rx="12.9" ry="12.9" class="atom-34" style="fill:#7F7FFF;fill-rule:evenodd;stroke:#7F7FFF;stroke-width:1.0px;stroke-linecap:butt;stroke-linejoin:miter;stroke-opacity:1"/>
<ellipse cx="172.6" cy="161.5" rx="12.9" ry="12.9" class="atom-35" style="fill:#7F7FFF;fill-rule:evenodd;stroke:#7F7FFF;stroke-width:1.0px;stroke-linecap:butt;stroke-linejoin:miter;stroke-opacity:1"/>
<path class="bond-0 atom-1 atom-0" d="M 201.7,147.5 L 201.2,147.7" style="fill:none;fill-rule:evenodd;stroke:#000000;stroke-width:1.0px;stroke-linecap:butt;stroke-linejoin:miter;stroke-opacity:1"/>
<path class="bond-0 atom-1 atom-0" d="M 203.5,150.7 L 202.5,151.2" style="fill:none;fill-rule:evenodd;stroke:#000000;stroke-width:1.0px;stroke-linecap:butt;stroke-linejoin:miter;stroke-opacity:1"/>
<path class="bond-0 atom-1 atom-0" d="M 205.4,154.0 L 203.9,154.7" style="fill:none;fill-rule:evenodd;stroke:#000000;stroke-width:1.0px;stroke-linecap:butt;stroke-linejoin:miter;stroke-opacity:1"/>
<path class="bond-0 atom-1 atom-0" d="M 207.2,157.2 L 205.2,158.1" style="fill:none;fill-rule:evenodd;stroke:#000000;stroke-width:1.0px;stroke-linecap:butt;stroke-linejoin:miter;stroke-opacity:1"/>
<path class="bond-0 atom-1 atom-0" d="M 209.0,160.4 L 206.5,161.6" style="fill:none;fill-rule:evenodd;stroke:#000000;stroke-width:1.0px;stroke-linecap:butt;stroke-linejoin:miter;stroke-opacity:1"/>
<path class="bond-0 atom-1 atom-0" d="M 210.9,163.6 L 207.9,165.1" style="fill:none;fill-rule:evenodd;stroke:#000000;stroke-width:1.0px;stroke-linecap:butt;stroke-linejoin:miter;stroke-opacity:1"/>
<path class="bond-0 atom-1 atom-0" d="M 212.7,166.9 L 209.2,168.5" style="fill:none;fill-rule:evenodd;stroke:#000000;stroke-width:1.0px;stroke-linecap:butt;stroke-linejoin:miter;stroke-opacity:1"/>
<path class="bond-0 atom-1 atom-0" d="M 214.5,170.1 L 210.5,172.0" style="fill:none;fill-rule:evenodd;stroke:#000000;stroke-width:1.0px;stroke-linecap:butt;stroke-linejoin:miter;stroke-opacity:1"/>
<path class="bond-1 atom-1 atom-2" d="M 199.9,144.3 L 219.9,122.5" style="fill:none;fill-rule:evenodd;stroke:#000000;stroke-width:2.0px;stroke-linecap:butt;stroke-linejoin:miter;stroke-opacity:1"/>
<path class="bond-2 atom-2 atom-3" d="M 219.9,122.5 L 208.4,101.9" style="fill:none;fill-rule:evenodd;stroke:#000000;stroke-width:2.0px;stroke-linecap:butt;stroke-linejoin:miter;stroke-opacity:1"/>
<path class="bond-3 atom-3 atom-4" d="M 207.8,91.6 L 217.8,69.9" style="fill:none;fill-rule:evenodd;stroke:#000000;stroke-width:2.0px;stroke-linecap:butt;stroke-linejoin:miter;stroke-opacity:1"/>
<path class="bond-4 atom-4 atom-5" d="M 217.8,69.9 L 200.7,45.7" style="fill:none;fill-rule:evenodd;stroke:#000000;stroke-width:2.0px;stroke-linecap:butt;stroke-linejoin:miter;stroke-opacity:1"/>
<path class="bond-4 atom-4 atom-5" d="M 220.0,65.2 L 205.8,45.2" style="fill:none;fill-rule:evenodd;stroke:#000000;stroke-width:2.0px;stroke-linecap:butt;stroke-linejoin:miter;stroke-opacity:1"/>
<path class="bond-5 atom-5 atom-6" d="M 200.7,45.7 L 210.7,24.0" style="fill:none;fill-rule:evenodd;stroke:#000000;stroke-width:2.0px;stroke-linecap:butt;stroke-linejoin:miter;stroke-opacity:1"/>
<path class="bond-6 atom-6 atom-7" d="M 217.2,18.4 L 242.5,16.1" style="fill:none;fill-rule:evenodd;stroke:#000000;stroke-width:2.0px;stroke-linecap:butt;stroke-linejoin:miter;stroke-opacity:1"/>
<path class="bond-6 atom-6 atom-7" d="M 217.6,22.9 L 240.4,20.7" style="fill:none;fill-rule:evenodd;stroke:#000000;stroke-width:2.0px;stroke-linecap:butt;stroke-linejoin:miter;stroke-opacity:1"/>
<path class="bond-7 atom-7 atom-8" d="M 242.5,16.1 L 259.6,40.2" style="fill:none;fill-rule:evenodd;stroke:#000000;stroke-width:2.0px;stroke-linecap:butt;stroke-linejoin:miter;stroke-opacity:1"/>
<path class="bond-8 atom-8 atom-9" d="M 259.6,40.2 L 289.1,37.5" style="fill:none;fill-rule:evenodd;stroke:#000000;stroke-width:2.0px;stroke-linecap:butt;stroke-linejoin:miter;stroke-opacity:1"/>
<path class="bond-8 atom-8 atom-9" d="M 262.6,44.4 L 287.0,42.2" style="fill:none;fill-rule:evenodd;stroke:#000000;stroke-width:2.0px;stroke-linecap:butt;stroke-linejoin:miter;stroke-opacity:1"/>
<path class="bond-9 atom-9 atom-10" d="M 289.1,37.5 L 306.2,61.6" style="fill:none;fill-rule:evenodd;stroke:#000000;stroke-width:2.0px;stroke-linecap:butt;stroke-linejoin:miter;stroke-opacity:1"/>
<path class="bond-10 atom-10 atom-11" d="M 306.2,61.6 L 293.8,88.5" style="fill:none;fill-rule:evenodd;stroke:#000000;stroke-width:2.0px;stroke-linecap:butt;stroke-linejoin:miter;stroke-opacity:1"/>
<path class="bond-10 atom-10 atom-11" d="M 301.1,62.1 L 290.9,84.3" style="fill:none;fill-rule:evenodd;stroke:#000000;stroke-width:2.0px;stroke-linecap:butt;stroke-linejoin:miter;stroke-opacity:1"/>
<path class="bond-11 atom-11 atom-12" d="M 293.8,88.5 L 264.4,91.3" style="fill:none;fill-rule:evenodd;stroke:#000000;stroke-width:2.0px;stroke-linecap:butt;stroke-linejoin:miter;stroke-opacity:1"/>
<path class="bond-12 atom-12 atom-13" d="M 264.4,91.3 L 247.3,67.1" style="fill:none;fill-rule:evenodd;stroke:#000000;stroke-width:2.0px;stroke-linecap:butt;stroke-linejoin:miter;stroke-opacity:1"/>
<path class="bond-12 atom-12 atom-13" d="M 266.5,86.6 L 252.4,66.6" style="fill:none;fill-rule:evenodd;stroke:#000000;stroke-width:2.0px;stroke-linecap:butt;stroke-linejoin:miter;stroke-opacity:1"/>
<path class="bond-13 atom-3 atom-14" d="M 201.3,97.6 L 176.5,102.5" style="fill:none;fill-rule:evenodd;stroke:#000000;stroke-width:2.0px;stroke-linecap:butt;stroke-linejoin:miter;stroke-opacity:1"/>
<path class="bond-14 atom-14 atom-15" d="M 179.1,102.0 L 161.0,85.3" style="fill:none;fill-rule:evenodd;stroke:#000000;stroke-width:2.0px;stroke-linecap:butt;stroke-linejoin:miter;stroke-opacity:1"/>
<path class="bond-14 atom-14 atom-15" d="M 176.1,105.3 L 158.0,88.6" style="fill:none;fill-rule:evenodd;stroke:#000000;stroke-width:2.0px;stroke-linecap:butt;stroke-linejoin:miter;stroke-opacity:1"/>
<path class="bond-15 atom-14 atom-16" d="M 176.5,102.5 L 173.0,131.9" style="fill:none;fill-rule:evenodd;stroke:#000000;stroke-width:2.0px;stroke-linecap:butt;stroke-linejoin:miter;stroke-opacity:1"/>
<path class="bond-16 atom-16 atom-17" d="M 170.0,129.8 L 169.7,130.3" style="fill:none;fill-rule:evenodd;stroke:#000000;stroke-width:1.0px;stroke-linecap:butt;stroke-linejoin:miter;stroke-opacity:1"/>
<path class="bond-16 atom-16 atom-17" d="M 167.0,127.6 L 166.3,128.7" style="fill:none;fill-rule:evenodd;stroke:#000000;stroke-width:1.0px;stroke-linecap:butt;stroke-linejoin:miter;stroke-opacity:1"/>
<path class="bond-16 atom-16 atom-17" d="M 164.0,125.5 L 163.0,127.1" style="fill:none;fill-rule:evenodd;stroke:#000000;stroke-width:1.0px;stroke-linecap:butt;stroke-linejoin:miter;stroke-opacity:1"/>
<path class="bond-16 atom-16 atom-17" d="M 160.9,123.3 L 159.6,125.5" style="fill:none;fill-rule:evenodd;stroke:#000000;stroke-width:1.0px;stroke-linecap:butt;stroke-linejoin:miter;stroke-opacity:1"/>
<path class="bond-16 atom-16 atom-17" d="M 157.9,121.1 L 156.3,123.9" style="fill:none;fill-rule:evenodd;stroke:#000000;stroke-width:1.0px;stroke-linecap:butt;stroke-linejoin:miter;stroke-opacity:1"/>
<path class="bond-16 atom-16 atom-17" d="M 154.9,119.0 L 153.0,122.2" style="fill:none;fill-rule:evenodd;stroke:#000000;stroke-width:1.0px;stroke-linecap:butt;stroke-linejoin:miter;stroke-opacity:1"/>
<path class="bond-16 atom-16 atom-17" d="M 151.9,116.8 L 149.6,120.6" style="fill:none;fill-rule:evenodd;stroke:#000000;stroke-width:1.0px;stroke-linecap:butt;stroke-linejoin:miter;stroke-opacity:1"/>
<path class="bond-17 atom-17 atom-18" d="M 147.6,116.8 L 125.9,129.0" style="fill:none;fill-rule:evenodd;stroke:#000000;stroke-width:2.0px;stroke-linecap:butt;stroke-linejoin:miter;stroke-opacity:1"/>
<path class="bond-18 atom-18 atom-19" d="M 117.6,128.8 L 96.3,116.2" style="fill:none;fill-rule:evenodd;stroke:#000000;stroke-width:2.0px;stroke-linecap:butt;stroke-linejoin:miter;stroke-opacity:1"/>
<path class="bond-19 atom-19 atom-20" d="M 96.3,116.2 L 96.7,86.6" style="fill:none;fill-rule:evenodd;stroke:#000000;stroke-width:2.0px;stroke-linecap:butt;stroke-linejoin:miter;stroke-opacity:1"/>
<path class="bond-20 atom-20 atom-21" d="M 96.7,86.6 L 75.4,74.0" style="fill:none;fill-rule:evenodd;stroke:#000000;stroke-width:2.0px;stroke-linecap:butt;stroke-linejoin:miter;stroke-opacity:1"/>
<path class="bond-21 atom-21 atom-22" d="M 71.3,66.4 L 71.6,41.9" style="fill:none;fill-rule:evenodd;stroke:#000000;stroke-width:2.0px;stroke-linecap:butt;stroke-linejoin:miter;stroke-opacity:1"/>
<path class="bond-22 atom-22 atom-23" d="M 71.6,41.9 L 46.1,26.8" style="fill:none;fill-rule:evenodd;stroke:#000000;stroke-width:2.0px;stroke-linecap:butt;stroke-linejoin:miter;stroke-opacity:1"/>
<path class="bond-23 atom-23 atom-24" d="M 46.1,26.8 L 25.2,38.6" style="fill:none;fill-rule:evenodd;stroke:#000000;stroke-width:2.0px;stroke-linecap:butt;stroke-linejoin:miter;stroke-opacity:1"/>
<path class="bond-24 atom-24 atom-25" d="M 20.3,46.7 L 20.0,70.9" style="fill:none;fill-rule:evenodd;stroke:#000000;stroke-width:2.0px;stroke-linecap:butt;stroke-linejoin:miter;stroke-opacity:1"/>
<path class="bond-25 atom-25 atom-26" d="M 20.0,70.9 L 45.4,86.0" style="fill:none;fill-rule:evenodd;stroke:#000000;stroke-width:2.0px;stroke-linecap:butt;stroke-linejoin:miter;stroke-opacity:1"/>
<path class="bond-26 atom-18 atom-27" d="M 121.7,136.5 L 121.4,160.9" style="fill:none;fill-rule:evenodd;stroke:#000000;stroke-width:2.0px;stroke-linecap:butt;stroke-linejoin:miter;stroke-opacity:1"/>
<path class="bond-27 atom-27 atom-28" d="M 121.4,158.3 L 99.3,170.7" style="fill:none;fill-rule:evenodd;stroke:#000000;stroke-width:2.0px;stroke-linecap:butt;stroke-linejoin:miter;stroke-opacity:1"/>
<path class="bond-27 atom-27 atom-28" d="M 123.6,162.2 L 101.5,174.6" style="fill:none;fill-rule:evenodd;stroke:#000000;stroke-width:2.0px;stroke-linecap:butt;stroke-linejoin:miter;stroke-opacity:1"/>
<path class="bond-28 atom-27 atom-29" d="M 121.4,160.9 L 146.8,176.0" style="fill:none;fill-rule:evenodd;stroke:#000000;stroke-width:2.0px;stroke-linecap:butt;stroke-linejoin:miter;stroke-opacity:1"/>
<path class="bond-29 atom-29 atom-30" d="M 146.8,176.0 L 146.5,205.6" style="fill:none;fill-rule:evenodd;stroke:#000000;stroke-width:2.0px;stroke-linecap:butt;stroke-linejoin:miter;stroke-opacity:1"/>
<path class="bond-29 atom-29 atom-30" d="M 151.3,178.6 L 151.0,203.1" style="fill:none;fill-rule:evenodd;stroke:#000000;stroke-width:2.0px;stroke-linecap:butt;stroke-linejoin:miter;stroke-opacity:1"/>
<path class="bond-30 atom-30 atom-31" d="M 146.5,205.6 L 171.9,220.7" style="fill:none;fill-rule:evenodd;stroke:#000000;stroke-width:2.0px;stroke-linecap:butt;stroke-linejoin:miter;stroke-opacity:1"/>
<path class="bond-31 atom-31 atom-32" d="M 171.9,220.7 L 197.7,206.2" style="fill:none;fill-rule:evenodd;stroke:#000000;stroke-width:2.0px;stroke-linecap:butt;stroke-linejoin:miter;stroke-opacity:1"/>
<path class="bond-31 atom-31 atom-32" d="M 172.0,215.6 L 193.3,203.6" style="fill:none;fill-rule:evenodd;stroke:#000000;stroke-width:2.0px;stroke-linecap:butt;stroke-linejoin:miter;stroke-opacity:1"/>
<path class="bond-32 atom-32 atom-33" d="M 197.7,206.2 L 219.0,218.8" style="fill:none;fill-rule:evenodd;stroke:#000000;stroke-width:2.0px;stroke-linecap:butt;stroke-linejoin:miter;stroke-opacity:1"/>
<path class="bond-33 atom-32 atom-34" d="M 197.7,206.2 L 198.1,176.6" style="fill:none;fill-rule:evenodd;stroke:#000000;stroke-width:2.0px;stroke-linecap:butt;stroke-linejoin:miter;stroke-opacity:1"/>
<path class="bond-34 atom-34 atom-35" d="M 198.1,176.6 L 172.6,161.5" style="fill:none;fill-rule:evenodd;stroke:#000000;stroke-width:2.0px;stroke-linecap:butt;stroke-linejoin:miter;stroke-opacity:1"/>
<path class="bond-34 atom-34 atom-35" d="M 193.6,179.1 L 172.6,166.6" style="fill:none;fill-rule:evenodd;stroke:#000000;stroke-width:2.0px;stroke-linecap:butt;stroke-linejoin:miter;stroke-opacity:1"/>
<path class="bond-35 atom-16 atom-1" d="M 173.0,131.9 L 199.9,144.3" style="fill:none;fill-rule:evenodd;stroke:#000000;stroke-width:2.0px;stroke-linecap:butt;stroke-linejoin:miter;stroke-opacity:1"/>
<path class="bond-36 atom-26 atom-21" d="M 45.4,86.0 L 67.1,73.8" style="fill:none;fill-rule:evenodd;stroke:#000000;stroke-width:2.0px;stroke-linecap:butt;stroke-linejoin:miter;stroke-opacity:1"/>
<path class="bond-37 atom-35 atom-29" d="M 172.6,161.5 L 146.8,176.0" style="fill:none;fill-rule:evenodd;stroke:#000000;stroke-width:2.0px;stroke-linecap:butt;stroke-linejoin:miter;stroke-opacity:1"/>
<path class="bond-38 atom-13 atom-4" d="M 247.3,67.1 L 217.8,69.9" style="fill:none;fill-rule:evenodd;stroke:#000000;stroke-width:2.0px;stroke-linecap:butt;stroke-linejoin:miter;stroke-opacity:1"/>
<path class="bond-39 atom-35 atom-16" d="M 172.6,161.5 L 173.0,131.9" style="fill:none;fill-rule:evenodd;stroke:#000000;stroke-width:2.0px;stroke-linecap:butt;stroke-linejoin:miter;stroke-opacity:1"/>
<path class="bond-40 atom-13 atom-8" d="M 247.3,67.1 L 259.6,40.2" style="fill:none;fill-rule:evenodd;stroke:#000000;stroke-width:2.0px;stroke-linecap:butt;stroke-linejoin:miter;stroke-opacity:1"/>
<path d="M 200.9,143.2 L 199.9,144.3 L 198.5,143.7" style="fill:none;stroke:#000000;stroke-width:2.0px;stroke-linecap:butt;stroke-linejoin:miter;stroke-miterlimit:10;stroke-opacity:1;"/>
<path d="M 218.9,123.6 L 219.9,122.5 L 219.4,121.5" style="fill:none;stroke:#000000;stroke-width:2.0px;stroke-linecap:butt;stroke-linejoin:miter;stroke-miterlimit:10;stroke-opacity:1;"/>
<path d="M 201.6,46.9 L 200.7,45.7 L 201.2,44.6" style="fill:none;stroke:#000000;stroke-width:2.0px;stroke-linecap:butt;stroke-linejoin:miter;stroke-miterlimit:10;stroke-opacity:1;"/>
<path d="M 241.3,16.2 L 242.5,16.1 L 243.4,17.3" style="fill:none;stroke:#000000;stroke-width:2.0px;stroke-linecap:butt;stroke-linejoin:miter;stroke-miterlimit:10;stroke-opacity:1;"/>
<path d="M 287.6,37.6 L 289.1,37.5 L 290.0,38.7" style="fill:none;stroke:#000000;stroke-width:2.0px;stroke-linecap:butt;stroke-linejoin:miter;stroke-miterlimit:10;stroke-opacity:1;"/>
<path d="M 305.4,60.4 L 306.2,61.6 L 305.6,63.0" style="fill:none;stroke:#000000;stroke-width:2.0px;stroke-linecap:butt;stroke-linejoin:miter;stroke-miterlimit:10;stroke-opacity:1;"/>
<path d="M 294.5,87.2 L 293.8,88.5 L 292.4,88.7" style="fill:none;stroke:#000000;stroke-width:2.0px;stroke-linecap:butt;stroke-linejoin:miter;stroke-miterlimit:10;stroke-opacity:1;"/>
<path d="M 265.9,91.1 L 264.4,91.3 L 263.5,90.1" style="fill:none;stroke:#000000;stroke-width:2.0px;stroke-linecap:butt;stroke-linejoin:miter;stroke-miterlimit:10;stroke-opacity:1;"/>
<path d="M 177.7,102.3 L 176.5,102.5 L 176.3,104.0" style="fill:none;stroke:#000000;stroke-width:2.0px;stroke-linecap:butt;stroke-linejoin:miter;stroke-miterlimit:10;stroke-opacity:1;"/>
<path d="M 97.4,116.8 L 96.3,116.2 L 96.3,114.7" style="fill:none;stroke:#000000;stroke-width:2.0px;stroke-linecap:butt;stroke-linejoin:miter;stroke-miterlimit:10;stroke-opacity:1;"/>
<path d="M 96.7,88.1 L 96.7,86.6 L 95.6,86.0" style="fill:none;stroke:#000000;stroke-width:2.0px;stroke-linecap:butt;stroke-linejoin:miter;stroke-miterlimit:10;stroke-opacity:1;"/>
<path d="M 71.6,43.2 L 71.6,41.9 L 70.3,41.2" style="fill:none;stroke:#000000;stroke-width:2.0px;stroke-linecap:butt;stroke-linejoin:miter;stroke-miterlimit:10;stroke-opacity:1;"/>
<path d="M 47.4,27.6 L 46.1,26.8 L 45.1,27.4" style="fill:none;stroke:#000000;stroke-width:2.0px;stroke-linecap:butt;stroke-linejoin:miter;stroke-miterlimit:10;stroke-opacity:1;"/>
<path d="M 20.0,69.7 L 20.0,70.9 L 21.3,71.7" style="fill:none;stroke:#000000;stroke-width:2.0px;stroke-linecap:butt;stroke-linejoin:miter;stroke-miterlimit:10;stroke-opacity:1;"/>
<path d="M 44.2,85.2 L 45.4,86.0 L 46.5,85.4" style="fill:none;stroke:#000000;stroke-width:2.0px;stroke-linecap:butt;stroke-linejoin:miter;stroke-miterlimit:10;stroke-opacity:1;"/>
<path d="M 121.4,159.7 L 121.4,160.9 L 122.7,161.6" style="fill:none;stroke:#000000;stroke-width:2.0px;stroke-linecap:butt;stroke-linejoin:miter;stroke-miterlimit:10;stroke-opacity:1;"/>
<path d="M 146.5,204.1 L 146.5,205.6 L 147.8,206.3" style="fill:none;stroke:#000000;stroke-width:2.0px;stroke-linecap:butt;stroke-linejoin:miter;stroke-miterlimit:10;stroke-opacity:1;"/>
<path d="M 170.7,219.9 L 171.9,220.7 L 173.2,220.0" style="fill:none;stroke:#000000;stroke-width:2.0px;stroke-linecap:butt;stroke-linejoin:miter;stroke-miterlimit:10;stroke-opacity:1;"/>
<path d="M 198.1,178.1 L 198.1,176.6 L 196.8,175.9" style="fill:none;stroke:#000000;stroke-width:2.0px;stroke-linecap:butt;stroke-linejoin:miter;stroke-miterlimit:10;stroke-opacity:1;"/>
<path class="atom-3" d="M 203.6 92.6 L 206.4 97.0 Q 206.6 97.4, 207.1 98.2 Q 207.5 99.0, 207.5 99.1 L 207.5 92.6 L 208.6 92.6 L 208.6 100.9 L 207.5 100.9 L 204.5 96.1 Q 204.2 95.5, 203.8 94.9 Q 203.5 94.2, 203.4 94.0 L 203.4 100.9 L 202.3 100.9 L 202.3 92.6 L 203.6 92.6 " fill="#000000"/>
<path class="atom-6" d="M 211.2 14.6 L 214.0 19.1 Q 214.3 19.5, 214.7 20.3 Q 215.1 21.1, 215.2 21.1 L 215.2 14.6 L 216.3 14.6 L 216.3 23.0 L 215.1 23.0 L 212.2 18.2 Q 211.8 17.6, 211.5 16.9 Q 211.1 16.3, 211.0 16.1 L 211.0 23.0 L 209.9 23.0 L 209.9 14.6 L 211.2 14.6 " fill="#000000"/>
<path class="atom-15" d="M 150.9 82.5 Q 150.9 80.5, 151.9 79.4 Q 152.8 78.2, 154.7 78.2 Q 156.6 78.2, 157.6 79.4 Q 158.6 80.5, 158.6 82.5 Q 158.6 84.5, 157.5 85.7 Q 156.5 86.8, 154.7 86.8 Q 152.9 86.8, 151.9 85.7 Q 150.9 84.5, 150.9 82.5 M 154.7 85.9 Q 156.0 85.9, 156.7 85.0 Q 157.4 84.2, 157.4 82.5 Q 157.4 80.9, 156.7 80.0 Q 156.0 79.2, 154.7 79.2 Q 153.4 79.2, 152.7 80.0 Q 152.0 80.8, 152.0 82.5 Q 152.0 84.2, 152.7 85.0 Q 153.4 85.9, 154.7 85.9 " fill="#000000"/>
<path class="atom-18" d="M 119.9 127.1 L 122.7 131.6 Q 122.9 132.0, 123.4 132.8 Q 123.8 133.6, 123.8 133.6 L 123.8 127.1 L 124.9 127.1 L 124.9 135.5 L 123.8 135.5 L 120.8 130.6 Q 120.5 130.1, 120.1 129.4 Q 119.8 128.8, 119.7 128.6 L 119.7 135.5 L 118.6 135.5 L 118.6 127.1 L 119.9 127.1 " fill="#000000"/>
<path class="atom-21" d="M 69.4 67.3 L 72.1 71.8 Q 72.4 72.2, 72.8 73.0 Q 73.3 73.8, 73.3 73.8 L 73.3 67.3 L 74.4 67.3 L 74.4 75.7 L 73.3 75.7 L 70.3 70.9 Q 70.0 70.3, 69.6 69.6 Q 69.2 69.0, 69.1 68.8 L 69.1 75.7 L 68.1 75.7 L 68.1 67.3 L 69.4 67.3 " fill="#000000"/>
<path class="atom-24" d="M 16.5 41.3 Q 16.5 39.3, 17.5 38.2 Q 18.5 37.1, 20.3 37.1 Q 22.2 37.1, 23.2 38.2 Q 24.2 39.3, 24.2 41.3 Q 24.2 43.4, 23.2 44.5 Q 22.2 45.7, 20.3 45.7 Q 18.5 45.7, 17.5 44.5 Q 16.5 43.4, 16.5 41.3 M 20.3 44.7 Q 21.6 44.7, 22.3 43.9 Q 23.0 43.0, 23.0 41.3 Q 23.0 39.7, 22.3 38.9 Q 21.6 38.0, 20.3 38.0 Q 19.1 38.0, 18.4 38.8 Q 17.7 39.7, 17.7 41.3 Q 17.7 43.0, 18.4 43.9 Q 19.1 44.7, 20.3 44.7 " fill="#000000"/>
<path class="atom-28" d="M 91.8 175.4 Q 91.8 173.4, 92.7 172.3 Q 93.7 171.1, 95.6 171.1 Q 97.5 171.1, 98.5 172.3 Q 99.4 173.4, 99.4 175.4 Q 99.4 177.4, 98.4 178.6 Q 97.4 179.7, 95.6 179.7 Q 93.8 179.7, 92.7 178.6 Q 91.8 177.4, 91.8 175.4 M 95.6 178.8 Q 96.9 178.8, 97.6 177.9 Q 98.3 177.1, 98.3 175.4 Q 98.3 173.8, 97.6 172.9 Q 96.9 172.1, 95.6 172.1 Q 94.3 172.1, 93.6 172.9 Q 92.9 173.7, 92.9 175.4 Q 92.9 177.1, 93.6 177.9 Q 94.3 178.8, 95.6 178.8 " fill="#000000"/>
<path class="atom-33" d="M 219.9 221.6 Q 219.9 219.5, 220.9 218.4 Q 221.9 217.3, 223.8 217.3 Q 225.5 217.3, 226.4 218.5 L 225.6 219.2 Q 224.9 218.3, 223.8 218.3 Q 222.5 218.3, 221.8 219.1 Q 221.1 220.0, 221.1 221.6 Q 221.1 223.3, 221.8 224.1 Q 222.5 225.0, 223.9 225.0 Q 224.8 225.0, 225.9 224.4 L 226.2 225.3 Q 225.8 225.6, 225.1 225.7 Q 224.5 225.9, 223.7 225.9 Q 221.9 225.9, 220.9 224.8 Q 219.9 223.7, 219.9 221.6 " fill="#000000"/>
<path class="atom-33" d="M 227.3 216.8 L 228.3 216.8 L 228.3 225.8 L 227.3 225.8 L 227.3 216.8 " fill="#000000"/>
<path class="legend" d="M 35.5 239.9 Q 37.2 239.9, 38.1 241.0 Q 39.1 242.0, 39.1 244.0 Q 39.1 246.1, 37.9 247.3 Q 36.8 248.4, 34.9 248.4 Q 33.9 248.4, 33.1 248.2 L 33.1 252.2 L 31.6 252.2 L 31.6 240.1 L 32.9 240.1 L 33.0 241.0 Q 33.5 240.5, 34.1 240.2 Q 34.7 239.9, 35.5 239.9 M 34.8 247.2 Q 36.1 247.2, 36.8 246.4 Q 37.5 245.5, 37.5 244.0 Q 37.5 242.6, 37.0 241.9 Q 36.4 241.1, 35.4 241.1 Q 34.6 241.1, 34.0 241.5 Q 33.4 242.0, 33.1 242.7 L 33.1 247.0 Q 34.0 247.2, 34.8 247.2 " fill="#000000"/>
<path class="legend" d="M 41.5 240.1 L 41.6 241.2 Q 42.5 239.9, 43.9 239.9 Q 44.4 239.9, 45.0 240.1 L 44.7 241.4 Q 44.0 241.3, 43.7 241.3 Q 43.0 241.3, 42.5 241.5 Q 42.1 241.8, 41.8 242.4 L 41.8 248.3 L 40.3 248.3 L 40.3 240.1 L 41.5 240.1 " fill="#000000"/>
<path class="legend" d="M 45.7 244.2 Q 45.7 242.1, 46.7 241.0 Q 47.7 239.9, 49.5 239.9 Q 51.3 239.9, 52.1 241.0 Q 52.9 242.1, 52.9 244.1 L 52.9 244.4 L 47.2 244.4 Q 47.2 245.8, 47.9 246.5 Q 48.5 247.2, 49.7 247.2 Q 50.3 247.2, 50.9 247.1 Q 51.5 246.9, 52.2 246.6 L 52.6 247.6 Q 51.8 248.0, 51.1 248.2 Q 50.3 248.4, 49.6 248.4 Q 47.7 248.4, 46.7 247.3 Q 45.7 246.2, 45.7 244.2 M 49.5 241.1 Q 48.6 241.1, 48.0 241.6 Q 47.4 242.2, 47.3 243.2 L 51.4 243.2 Q 51.3 242.1, 50.8 241.6 Q 50.4 241.1, 49.5 241.1 " fill="#000000"/>
<path class="legend" d="M 61.5 236.1 L 61.5 248.3 L 60.3 248.3 L 60.1 247.3 Q 59.1 248.4, 57.6 248.4 Q 55.9 248.4, 55.0 247.4 Q 54.0 246.3, 54.0 244.3 Q 54.0 242.2, 55.1 241.1 Q 56.3 239.9, 58.2 239.9 Q 59.1 239.9, 60.0 240.1 L 60.0 236.1 L 61.5 236.1 M 57.7 247.2 Q 58.6 247.2, 59.1 246.8 Q 59.8 246.3, 60.0 245.5 L 60.0 241.3 Q 59.2 241.1, 58.3 241.1 Q 57.0 241.1, 56.3 241.9 Q 55.5 242.8, 55.5 244.3 Q 55.5 245.7, 56.1 246.5 Q 56.7 247.2, 57.7 247.2 " fill="#000000"/>
<path class="legend" d="M 63.2 246.7 L 64.8 246.7 L 64.8 248.3 L 63.2 248.3 L 63.2 246.7 " fill="#000000"/>
<path class="legend" d="" fill="#000000"/>
<path class="legend" d="M 75.9 239.9 Q 77.6 239.9, 78.6 241.0 Q 79.5 242.0, 79.5 244.0 Q 79.5 246.1, 78.4 247.3 Q 77.3 248.4, 75.3 248.4 Q 74.4 248.4, 73.6 248.2 L 73.6 252.2 L 72.1 252.2 L 72.1 240.1 L 73.3 240.1 L 73.5 241.0 Q 73.9 240.5, 74.6 240.2 Q 75.2 239.9, 75.9 239.9 M 75.3 247.2 Q 76.6 247.2, 77.3 246.4 Q 78.0 245.5, 78.0 244.0 Q 78.0 242.6, 77.4 241.9 Q 76.9 241.1, 75.8 241.1 Q 75.0 241.1, 74.4 241.5 Q 73.8 242.0, 73.6 242.7 L 73.6 247.0 Q 74.4 247.2, 75.3 247.2 " fill="#000000"/>
<path class="legend" d="M 80.7 236.9 L 82.2 236.9 L 82.2 248.3 L 80.7 248.3 L 80.7 236.9 " fill="#000000"/>
<path class="legend" d="M 84.1 242.6 Q 84.1 239.8, 85.4 238.3 Q 86.7 236.8, 89.3 236.8 Q 91.6 236.8, 92.8 238.5 L 91.8 239.3 Q 90.9 238.1, 89.3 238.1 Q 87.5 238.1, 86.6 239.3 Q 85.7 240.4, 85.7 242.6 Q 85.7 244.8, 86.7 246.0 Q 87.6 247.1, 89.4 247.1 Q 90.7 247.1, 92.1 246.4 L 92.6 247.6 Q 92.0 248.0, 91.1 248.2 Q 90.2 248.4, 89.2 248.4 Q 86.7 248.4, 85.4 246.9 Q 84.1 245.4, 84.1 242.6 " fill="#000000"/>
<path class="legend" d="M 98.0 241.2 Q 99.0 241.2, 99.9 241.6 Q 100.7 242.0, 101.1 242.8 Q 101.6 243.6, 101.6 244.7 Q 101.6 245.9, 101.0 246.7 Q 100.5 247.5, 99.5 248.0 Q 98.6 248.4, 97.5 248.4 Q 96.5 248.4, 95.5 248.0 Q 94.6 247.6, 93.9 246.9 L 94.9 245.9 Q 95.4 246.5, 96.1 246.8 Q 96.9 247.1, 97.6 247.1 Q 98.6 247.1, 99.3 246.5 Q 100.0 245.9, 100.0 244.7 Q 100.0 243.5, 99.3 243.0 Q 98.6 242.4, 97.5 242.4 Q 96.5 242.4, 95.4 242.8 L 94.5 242.4 L 95.1 237.0 L 100.9 237.0 L 100.7 238.2 L 96.4 238.2 L 96.0 241.6 Q 97.1 241.2, 98.0 241.2 " fill="#000000"/>
<path class="legend" d="M 107.0 248.4 Q 104.9 248.4, 103.8 246.9 Q 102.8 245.3, 102.8 242.6 Q 102.8 239.9, 103.8 238.3 Q 104.9 236.8, 107.0 236.8 Q 109.1 236.8, 110.1 238.3 Q 111.1 239.9, 111.1 242.6 Q 111.1 245.3, 110.1 246.9 Q 109.0 248.4, 107.0 248.4 M 107.0 247.1 Q 108.2 247.1, 108.9 246.0 Q 109.5 244.8, 109.5 242.6 Q 109.5 240.4, 108.9 239.2 Q 108.2 238.1, 107.0 238.1 Q 105.7 238.1, 105.1 239.2 Q 104.4 240.4, 104.4 242.6 Q 104.4 244.8, 105.1 246.0 Q 105.7 247.1, 107.0 247.1 " fill="#000000"/>
<path class="legend" d="M 112.6 246.4 L 114.2 246.4 L 114.2 248.0 L 112.6 248.0 L 112.6 246.4 M 112.6 240.9 L 114.2 240.9 L 114.2 242.5 L 112.6 242.5 L 112.6 240.9 " fill="#000000"/>
<path class="legend" d="" fill="#000000"/>
<path class="legend" d="M 127.6 238.2 L 121.6 238.2 L 121.6 237.0 L 129.2 237.0 L 129.2 238.1 L 124.6 248.3 L 123.1 248.3 L 127.6 238.2 " fill="#000000"/>
<path class="legend" d="M 130.1 246.7 L 131.7 246.7 L 131.7 248.3 L 130.1 248.3 L 130.1 246.7 " fill="#000000"/>
<path class="legend" d="M 137.3 241.2 Q 138.3 241.2, 139.1 241.6 Q 139.9 242.0, 140.4 242.8 Q 140.8 243.6, 140.8 244.7 Q 140.8 245.9, 140.3 246.7 Q 139.7 247.5, 138.8 248.0 Q 137.9 248.4, 136.8 248.4 Q 135.8 248.4, 134.8 248.0 Q 133.8 247.6, 133.2 246.9 L 134.1 245.9 Q 134.7 246.5, 135.4 246.8 Q 136.1 247.1, 136.8 247.1 Q 137.9 247.1, 138.5 246.5 Q 139.2 245.9, 139.2 244.7 Q 139.2 243.5, 138.5 243.0 Q 137.9 242.4, 136.7 242.4 Q 135.8 242.4, 134.7 242.8 L 133.8 242.4 L 134.3 237.0 L 140.1 237.0 L 140.0 238.2 L 135.6 238.2 L 135.3 241.6 Q 136.3 241.2, 137.3 241.2 " fill="#000000"/>
<path class="legend" d="M 146.5 241.2 Q 147.5 241.2, 148.3 241.6 Q 149.1 242.1, 149.5 242.9 Q 149.9 243.6, 149.9 244.6 Q 149.9 245.7, 149.4 246.6 Q 148.9 247.4, 148.1 247.9 Q 147.2 248.4, 146.1 248.4 Q 144.1 248.4, 143.1 247.0 Q 142.1 245.7, 142.1 243.0 Q 142.1 239.9, 143.3 238.4 Q 144.6 236.8, 147.0 236.8 Q 147.7 236.8, 148.3 237.0 Q 148.9 237.1, 149.5 237.5 L 148.9 238.6 Q 148.0 238.1, 147.0 238.1 Q 145.4 238.1, 144.6 239.1 Q 143.8 240.2, 143.7 242.3 Q 144.3 241.8, 145.0 241.5 Q 145.7 241.2, 146.5 241.2 M 146.1 247.1 Q 146.7 247.1, 147.2 246.8 Q 147.7 246.5, 148.0 245.9 Q 148.3 245.3, 148.3 244.6 Q 148.3 243.6, 147.8 243.1 Q 147.2 242.5, 146.2 242.5 Q 145.5 242.5, 144.8 242.8 Q 144.2 243.0, 143.7 243.5 Q 143.7 245.4, 144.3 246.2 Q 144.9 247.1, 146.1 247.1 " fill="#000000"/>
<path class="legend" d="" fill="#000000"/>
<path class="legend" d="" fill="#000000"/>
<path class="legend" d="" fill="#000000"/>
<path class="legend" d="" fill="#000000"/>
<path class="legend" d="" fill="#000000"/>
<path class="legend" d="M 180.2 244.2 Q 180.2 242.1, 181.2 241.0 Q 182.2 239.9, 184.1 239.9 Q 185.9 239.9, 186.7 241.0 Q 187.5 242.1, 187.5 244.1 L 187.5 244.4 L 181.7 244.4 Q 181.8 245.8, 182.4 246.5 Q 183.0 247.2, 184.2 247.2 Q 184.8 247.2, 185.4 247.1 Q 186.0 246.9, 186.7 246.6 L 187.2 247.6 Q 186.3 248.0, 185.6 248.2 Q 184.9 248.4, 184.1 248.4 Q 182.3 248.4, 181.2 247.3 Q 180.2 246.2, 180.2 244.2 M 184.1 241.1 Q 183.1 241.1, 182.5 241.6 Q 182.0 242.2, 181.8 243.2 L 185.9 243.2 Q 185.8 242.1, 185.3 241.6 Q 184.9 241.1, 184.1 241.1 " fill="#000000"/>
<path class="legend" d="M 191.5 244.0 L 188.8 240.1 L 190.5 240.1 L 192.5 242.9 L 194.4 240.1 L 196.1 240.1 L 193.3 244.0 L 196.3 248.3 L 194.5 248.3 L 192.4 245.2 L 190.2 248.3 L 188.5 248.3 L 191.5 244.0 " fill="#000000"/>
<path class="legend" d="M 200.7 239.9 Q 202.4 239.9, 203.4 241.0 Q 204.3 242.0, 204.3 244.0 Q 204.3 246.1, 203.2 247.3 Q 202.1 248.4, 200.1 248.4 Q 199.2 248.4, 198.4 248.2 L 198.4 252.2 L 196.9 252.2 L 196.9 240.1 L 198.1 240.1 L 198.3 241.0 Q 198.7 240.5, 199.4 240.2 Q 200.0 239.9, 200.7 239.9 M 200.1 247.2 Q 201.4 247.2, 202.1 246.4 Q 202.8 245.5, 202.8 244.0 Q 202.8 242.6, 202.2 241.9 Q 201.7 241.1, 200.6 241.1 Q 199.8 241.1, 199.2 241.5 Q 198.6 242.0, 198.4 242.7 L 198.4 247.0 Q 199.2 247.2, 200.1 247.2 " fill="#000000"/>
<path class="legend" d="M 205.5 246.7 L 207.1 246.7 L 207.1 248.3 L 205.5 248.3 L 205.5 246.7 " fill="#000000"/>
<path class="legend" d="" fill="#000000"/>
<path class="legend" d="M 218.2 239.9 Q 219.9 239.9, 220.9 241.0 Q 221.8 242.0, 221.8 244.0 Q 221.8 246.1, 220.7 247.3 Q 219.6 248.4, 217.6 248.4 Q 216.7 248.4, 215.9 248.2 L 215.9 252.2 L 214.4 252.2 L 214.4 240.1 L 215.6 240.1 L 215.8 241.0 Q 216.2 240.5, 216.9 240.2 Q 217.5 239.9, 218.2 239.9 M 217.6 247.2 Q 218.9 247.2, 219.6 246.4 Q 220.3 245.5, 220.3 244.0 Q 220.3 242.6, 219.7 241.9 Q 219.2 241.1, 218.1 241.1 Q 217.3 241.1, 216.7 241.5 Q 216.1 242.0, 215.9 242.7 L 215.9 247.0 Q 216.7 247.2, 217.6 247.2 " fill="#000000"/>
<path class="legend" d="M 223.0 236.9 L 224.5 236.9 L 224.5 248.3 L 223.0 248.3 L 223.0 236.9 " fill="#000000"/>
<path class="legend" d="M 226.4 242.6 Q 226.4 239.8, 227.7 238.3 Q 229.0 236.8, 231.6 236.8 Q 233.9 236.8, 235.1 238.5 L 234.1 239.3 Q 233.2 238.1, 231.6 238.1 Q 229.8 238.1, 228.9 239.3 Q 228.0 240.4, 228.0 242.6 Q 228.0 244.8, 229.0 246.0 Q 229.9 247.1, 231.7 247.1 Q 233.0 247.1, 234.4 246.4 L 234.9 247.6 Q 234.3 248.0, 233.4 248.2 Q 232.5 248.4, 231.5 248.4 Q 229.0 248.4, 227.7 246.9 Q 226.4 245.4, 226.4 242.6 " fill="#000000"/>
<path class="legend" d="M 240.3 241.2 Q 241.3 241.2, 242.2 241.6 Q 243.0 242.0, 243.4 242.8 Q 243.9 243.6, 243.9 244.7 Q 243.9 245.9, 243.3 246.7 Q 242.8 247.5, 241.8 248.0 Q 240.9 248.4, 239.8 248.4 Q 238.8 248.4, 237.8 248.0 Q 236.9 247.6, 236.2 246.9 L 237.2 245.9 Q 237.7 246.5, 238.4 246.8 Q 239.2 247.1, 239.9 247.1 Q 240.9 247.1, 241.6 246.5 Q 242.3 245.9, 242.3 244.7 Q 242.3 243.5, 241.6 243.0 Q 240.9 242.4, 239.8 242.4 Q 238.8 242.4, 237.7 242.8 L 236.8 242.4 L 237.4 237.0 L 243.2 237.0 L 243.0 238.2 L 238.7 238.2 L 238.3 241.6 Q 239.4 241.2, 240.3 241.2 " fill="#000000"/>
<path class="legend" d="M 249.3 248.4 Q 247.2 248.4, 246.1 246.9 Q 245.1 245.3, 245.1 242.6 Q 245.1 239.9, 246.1 238.3 Q 247.2 236.8, 249.3 236.8 Q 251.4 236.8, 252.4 238.3 Q 253.4 239.9, 253.4 242.6 Q 253.4 245.3, 252.4 246.9 Q 251.3 248.4, 249.3 248.4 M 249.3 247.1 Q 250.5 247.1, 251.2 246.0 Q 251.8 244.8, 251.8 242.6 Q 251.8 240.4, 251.2 239.2 Q 250.5 238.1, 249.3 238.1 Q 248.0 238.1, 247.4 239.2 Q 246.7 240.4, 246.7 242.6 Q 246.7 244.8, 247.4 246.0 Q 248.0 247.1, 249.3 247.1 " fill="#000000"/>
<path class="legend" d="M 254.9 246.4 L 256.5 246.4 L 256.5 248.0 L 254.9 248.0 L 254.9 246.4 M 254.9 240.9 L 256.5 240.9 L 256.5 242.5 L 254.9 242.5 L 254.9 240.9 " fill="#000000"/>
<path class="legend" d="" fill="#000000"/>
<path class="legend" d="M 269.9 238.2 L 263.9 238.2 L 263.9 237.0 L 271.5 237.0 L 271.5 238.1 L 266.9 248.3 L 265.4 248.3 L 269.9 238.2 " fill="#000000"/>
<path class="legend" d="M 272.4 246.7 L 274.0 246.7 L 274.0 248.3 L 272.4 248.3 L 272.4 246.7 " fill="#000000"/>
<path class="legend" d="M 279.9 241.2 Q 280.9 241.2, 281.7 241.6 Q 282.5 242.1, 282.9 242.9 Q 283.3 243.6, 283.3 244.6 Q 283.3 245.7, 282.8 246.6 Q 282.4 247.4, 281.5 247.9 Q 280.6 248.4, 279.5 248.4 Q 277.5 248.4, 276.5 247.0 Q 275.5 245.7, 275.5 243.0 Q 275.5 239.9, 276.7 238.4 Q 278.0 236.8, 280.4 236.8 Q 281.1 236.8, 281.7 237.0 Q 282.3 237.1, 282.9 237.5 L 282.3 238.6 Q 281.4 238.1, 280.4 238.1 Q 278.8 238.1, 278.0 239.1 Q 277.2 240.2, 277.1 242.3 Q 277.7 241.8, 278.4 241.5 Q 279.1 241.2, 279.9 241.2 M 279.5 247.1 Q 280.2 247.1, 280.7 246.8 Q 281.2 246.5, 281.5 245.9 Q 281.7 245.3, 281.7 244.6 Q 281.7 243.6, 281.2 243.1 Q 280.6 242.5, 279.6 242.5 Q 278.9 242.5, 278.3 242.8 Q 277.6 243.0, 277.1 243.5 Q 277.2 245.4, 277.8 246.2 Q 278.3 247.1, 279.5 247.1 " fill="#000000"/>
<path class="legend" d="M 288.8 248.4 Q 286.7 248.4, 285.7 246.9 Q 284.7 245.3, 284.7 242.6 Q 284.7 239.9, 285.7 238.3 Q 286.7 236.8, 288.8 236.8 Q 290.9 236.8, 291.9 238.3 Q 293.0 239.9, 293.0 242.6 Q 293.0 245.3, 291.9 246.9 Q 290.9 248.4, 288.8 248.4 M 288.8 247.1 Q 290.0 247.1, 290.7 246.0 Q 291.4 244.8, 291.4 242.6 Q 291.4 240.4, 290.7 239.2 Q 290.0 238.1, 288.8 238.1 Q 287.6 238.1, 286.9 239.2 Q 286.3 240.4, 286.3 242.6 Q 286.3 244.8, 286.9 246.0 Q 287.6 247.1, 288.8 247.1 " fill="#000000"/>
</svg>