<svg xmlns="http://www.w3.org/2000/svg" xmlns:rdkit="http://www.rdkit.org/xml" xmlns:xlink="http://www.w3.org/1999/xlink" version="1.1" baseProfile="full" xml:space="preserve" width="319px" height="269px" viewBox="0 0 319 269">
<!-- END OF HEADER -->
<rect style="opacity:1.0;fill:#FFFFFF;stroke:none" width="319.0" height="269.0" x="0.0" y="0.0"> </rect>
<ellipse cx="240.6" cy="172.5" rx="7.2" ry="7.2" class="atom-0" style="fill:#7F7FFF;fill-rule:evenodd;stroke:#7F7FFF;stroke-width:1.0px;stroke-linecap:butt;stroke-linejoin:miter;stroke-opacity:1"/>
<ellipse cx="221.1" cy="150.4" rx="7.2" ry="7.2" class="atom-1" style="fill:#7F7FFF;fill-rule:evenodd;stroke:#7F7FFF;stroke-width:1.0px;stroke-linecap:butt;stroke-linejoin:miter;stroke-opacity:1"/>
<ellipse cx="234.2" cy="124.0" rx="7.2" ry="7.2" class="atom-2" style="fill:#7F7FFF;fill-rule:evenodd;stroke:#7F7FFF;stroke-width:1.0px;stroke-linecap:butt;stroke-linejoin:miter;stroke-opacity:1"/>
<ellipse cx="213.2" cy="103.4" rx="7.2" ry="7.2" class="atom-3" style="fill:#7F7FFF;fill-rule:evenodd;stroke:#7F7FFF;stroke-width:1.0px;stroke-linecap:butt;stroke-linejoin:miter;stroke-opacity:1"/>
<ellipse cx="217.5" cy="74.3" rx="2.5" ry="2.5" class="atom-4" style="fill:#FF7F7F;fill-rule:evenodd;stroke:#FF7F7F;stroke-width:1.0px;stroke-linecap:butt;stroke-linejoin:miter;stroke-opacity:1"/>
<ellipse cx="194.4" cy="55.9" rx="2.5" ry="2.5" class="atom-5" style="fill:#FF7F7F;fill-rule:evenodd;stroke:#FF7F7F;stroke-width:1.0px;stroke-linecap:butt;stroke-linejoin:miter;stroke-opacity:1"/>
<ellipse cx="198.8" cy="26.8" rx="2.5" ry="2.5" class="atom-6" style="fill:#FF7F7F;fill-rule:evenodd;stroke:#FF7F7F;stroke-width:1.0px;stroke-linecap:butt;stroke-linejoin:miter;stroke-opacity:1"/>
<ellipse cx="226.2" cy="16.0" rx="2.5" ry="2.5" class="atom-7" style="fill:#FF7F7F;fill-rule:evenodd;stroke:#FF7F7F;stroke-width:1.0px;stroke-linecap:butt;stroke-linejoin:miter;stroke-opacity:1"/>
<ellipse cx="249.3" cy="34.3" rx="2.5" ry="2.5" class="atom-8" style="fill:#FF7F7F;fill-rule:evenodd;stroke:#FF7F7F;stroke-width:1.0px;stroke-linecap:butt;stroke-linejoin:miter;stroke-opacity:1"/>
<ellipse cx="276.7" cy="23.5" rx="2.5" ry="2.5" class="atom-9" style="fill:#FF7F7F;fill-rule:evenodd;stroke:#FF7F7F;stroke-width:1.0px;stroke-linecap:butt;stroke-linejoin:miter;stroke-opacity:1"/>
<ellipse cx="299.8" cy="41.8" rx="2.5" ry="2.5" class="atom-10" style="fill:#FF7F7F;fill-rule:evenodd;stroke:#FF7F7F;stroke-width:1.0px;stroke-linecap:butt;stroke-linejoin:miter;stroke-opacity:1"/>
<ellipse cx="295.4" cy="71.0" rx="2.5" ry="2.5" class="atom-11" style="fill:#FF7F7F;fill-rule:evenodd;stroke:#FF7F7F;stroke-width:1.0px;stroke-linecap:butt;stroke-linejoin:miter;stroke-opacity:1"/>
<ellipse cx="268.0" cy="81.8" rx="2.5" ry="2.5" class="atom-12" style="fill:#FF7F7F;fill-rule:evenodd;stroke:#FF7F7F;stroke-width:1.0px;stroke-linecap:butt;stroke-linejoin:miter;stroke-opacity:1"/>
<ellipse cx="244.9" cy="63.4" rx="2.5" ry="2.5" class="atom-13" style="fill:#FF7F7F;fill-rule:evenodd;stroke:#FF7F7F;stroke-width:1.0px;stroke-linecap:butt;stroke-linejoin:miter;stroke-opacity:1"/>
<ellipse cx="187.0" cy="117.0" rx="7.2" ry="7.2" class="atom-14" style="fill:#7F7FFF;fill-rule:evenodd;stroke:#7F7FFF;stroke-width:1.0px;stroke-linecap:butt;stroke-linejoin:miter;stroke-opacity:1"/>
<ellipse cx="160.7" cy="103.9" rx="7.2" ry="7.2" class="atom-15" style="fill:#7F7FFF;fill-rule:evenodd;stroke:#7F7FFF;stroke-width:1.0px;stroke-linecap:butt;stroke-linejoin:miter;stroke-opacity:1"/>
<ellipse cx="191.9" cy="146.1" rx="7.2" ry="7.2" class="atom-16" style="fill:#7F7FFF;fill-rule:evenodd;stroke:#7F7FFF;stroke-width:1.0px;stroke-linecap:butt;stroke-linejoin:miter;stroke-opacity:1"/>
<ellipse cx="163.4" cy="138.7" rx="7.2" ry="7.2" class="atom-17" style="fill:#7F7FFF;fill-rule:evenodd;stroke:#7F7FFF;stroke-width:1.0px;stroke-linecap:butt;stroke-linejoin:miter;stroke-opacity:1"/>
<ellipse cx="142.7" cy="159.7" rx="7.2" ry="7.2" class="atom-18" style="fill:#7F7FFF;fill-rule:evenodd;stroke:#7F7FFF;stroke-width:1.0px;stroke-linecap:butt;stroke-linejoin:miter;stroke-opacity:1"/>
<ellipse cx="114.2" cy="152.4" rx="0.1" ry="0.1" class="atom-19" style="fill:#7F7FFF;fill-rule:evenodd;stroke:#7F7FFF;stroke-width:1.0px;stroke-linecap:butt;stroke-linejoin:miter;stroke-opacity:1"/>
<ellipse cx="106.3" cy="124.0" rx="0.1" ry="0.1" class="atom-20" style="fill:#7F7FFF;fill-rule:evenodd;stroke:#7F7FFF;stroke-width:1.0px;stroke-linecap:butt;stroke-linejoin:miter;stroke-opacity:1"/>
<ellipse cx="127.0" cy="103.0" rx="0.1" ry="0.1" class="atom-21" style="fill:#7F7FFF;fill-rule:evenodd;stroke:#7F7FFF;stroke-width:1.0px;stroke-linecap:butt;stroke-linejoin:miter;stroke-opacity:1"/>
<ellipse cx="77.8" cy="116.6" rx="0.3" ry="0.3" class="atom-22" style="fill:#7F7FFF;fill-rule:evenodd;stroke:#7F7FFF;stroke-width:1.0px;stroke-linecap:butt;stroke-linejoin:miter;stroke-opacity:1"/>
<ellipse cx="69.9" cy="88.2" rx="0.1" ry="0.1" class="atom-23" style="fill:#7F7FFF;fill-rule:evenodd;stroke:#7F7FFF;stroke-width:1.0px;stroke-linecap:butt;stroke-linejoin:miter;stroke-opacity:1"/>
<ellipse cx="41.4" cy="80.9" rx="0.4" ry="0.4" class="atom-24" style="fill:#7F7FFF;fill-rule:evenodd;stroke:#7F7FFF;stroke-width:1.0px;stroke-linecap:butt;stroke-linejoin:miter;stroke-opacity:1"/>
<ellipse cx="29.2" cy="107.7" rx="0.4" ry="0.4" class="atom-25" style="fill:#7F7FFF;fill-rule:evenodd;stroke:#7F7FFF;stroke-width:1.0px;stroke-linecap:butt;stroke-linejoin:miter;stroke-opacity:1"/>
<ellipse cx="17.1" cy="64.2" rx="0.4" ry="0.4" class="atom-26" style="fill:#7F7FFF;fill-rule:evenodd;stroke:#7F7FFF;stroke-width:1.0px;stroke-linecap:butt;stroke-linejoin:miter;stroke-opacity:1"/>
<ellipse cx="43.7" cy="51.5" rx="0.4" ry="0.4" class="atom-27" style="fill:#7F7FFF;fill-rule:evenodd;stroke:#7F7FFF;stroke-width:1.0px;stroke-linecap:butt;stroke-linejoin:miter;stroke-opacity:1"/>
<ellipse cx="150.6" cy="188.1" rx="7.2" ry="7.2" class="atom-28" style="fill:#7F7FFF;fill-rule:evenodd;stroke:#7F7FFF;stroke-width:1.0px;stroke-linecap:butt;stroke-linejoin:miter;stroke-opacity:1"/>
<ellipse cx="130.0" cy="209.2" rx="7.2" ry="7.2" class="atom-29" style="fill:#7F7FFF;fill-rule:evenodd;stroke:#7F7FFF;stroke-width:1.0px;stroke-linecap:butt;stroke-linejoin:miter;stroke-opacity:1"/>
<ellipse cx="179.2" cy="195.5" rx="7.2" ry="7.2" class="atom-30" style="fill:#7F7FFF;fill-rule:evenodd;stroke:#7F7FFF;stroke-width:1.0px;stroke-linecap:butt;stroke-linejoin:miter;stroke-opacity:1"/>
<ellipse cx="187.0" cy="223.9" rx="7.2" ry="7.2" class="atom-31" style="fill:#7F7FFF;fill-rule:evenodd;stroke:#7F7FFF;stroke-width:1.0px;stroke-linecap:butt;stroke-linejoin:miter;stroke-opacity:1"/>
<ellipse cx="215.6" cy="231.3" rx="7.2" ry="7.2" class="atom-32" style="fill:#7F7FFF;fill-rule:evenodd;stroke:#7F7FFF;stroke-width:1.0px;stroke-linecap:butt;stroke-linejoin:miter;stroke-opacity:1"/>
<ellipse cx="236.2" cy="210.2" rx="7.2" ry="7.2" class="atom-33" style="fill:#7F7FFF;fill-rule:evenodd;stroke:#7F7FFF;stroke-width:1.0px;stroke-linecap:butt;stroke-linejoin:miter;stroke-opacity:1"/>
<ellipse cx="264.8" cy="217.6" rx="7.2" ry="7.2" class="atom-34" style="fill:#7F7FFF;fill-rule:evenodd;stroke:#7F7FFF;stroke-width:1.0px;stroke-linecap:butt;stroke-linejoin:miter;stroke-opacity:1"/>
<ellipse cx="228.3" cy="181.8" rx="7.2" ry="7.2" class="atom-35" style="fill:#7F7FFF;fill-rule:evenodd;stroke:#7F7FFF;stroke-width:1.0px;stroke-linecap:butt;stroke-linejoin:miter;stroke-opacity:1"/>
<ellipse cx="199.8" cy="174.5" rx="7.2" ry="7.2" class="atom-36" style="fill:#7F7FFF;fill-rule:evenodd;stroke:#7F7FFF;stroke-width:1.0px;stroke-linecap:butt;stroke-linejoin:miter;stroke-opacity:1"/>
<path class="bond-0 atom-1 atom-0" d="M 223.7,153.0 L 223.3,153.4" style="fill:none;fill-rule:evenodd;stroke:#000000;stroke-width:1.0px;stroke-linecap:butt;stroke-linejoin:miter;stroke-opacity:1"/>
<path class="bond-0 atom-1 atom-0" d="M 226.4,155.6 L 225.5,156.3" style="fill:none;fill-rule:evenodd;stroke:#000000;stroke-width:1.0px;stroke-linecap:butt;stroke-linejoin:miter;stroke-opacity:1"/>
<path class="bond-0 atom-1 atom-0" d="M 229.0,158.1 L 227.8,159.2" style="fill:none;fill-rule:evenodd;stroke:#000000;stroke-width:1.0px;stroke-linecap:butt;stroke-linejoin:miter;stroke-opacity:1"/>
<path class="bond-0 atom-1 atom-0" d="M 231.7,160.7 L 230.0,162.2" style="fill:none;fill-rule:evenodd;stroke:#000000;stroke-width:1.0px;stroke-linecap:butt;stroke-linejoin:miter;stroke-opacity:1"/>
<path class="bond-0 atom-1 atom-0" d="M 234.3,163.3 L 232.2,165.1" style="fill:none;fill-rule:evenodd;stroke:#000000;stroke-width:1.0px;stroke-linecap:butt;stroke-linejoin:miter;stroke-opacity:1"/>
<path class="bond-0 atom-1 atom-0" d="M 237.0,165.9 L 234.5,168.1" style="fill:none;fill-rule:evenodd;stroke:#000000;stroke-width:1.0px;stroke-linecap:butt;stroke-linejoin:miter;stroke-opacity:1"/>
<path class="bond-0 atom-1 atom-0" d="M 239.6,168.4 L 236.7,171.0" style="fill:none;fill-rule:evenodd;stroke:#000000;stroke-width:1.0px;stroke-linecap:butt;stroke-linejoin:miter;stroke-opacity:1"/>
<path class="bond-0 atom-1 atom-0" d="M 242.3,171.0 L 238.9,173.9" style="fill:none;fill-rule:evenodd;stroke:#000000;stroke-width:1.0px;stroke-linecap:butt;stroke-linejoin:miter;stroke-opacity:1"/>
<path class="bond-1 atom-1 atom-2" d="M 221.1,150.4 L 234.2,124.0" style="fill:none;fill-rule:evenodd;stroke:#000000;stroke-width:2.0px;stroke-linecap:butt;stroke-linejoin:miter;stroke-opacity:1"/>
<path class="bond-2 atom-2 atom-3" d="M 234.2,124.0 L 217.3,107.5" style="fill:none;fill-rule:evenodd;stroke:#000000;stroke-width:2.0px;stroke-linecap:butt;stroke-linejoin:miter;stroke-opacity:1"/>
<path class="bond-3 atom-3 atom-4" d="M 213.9,98.3 L 217.5,74.3" style="fill:none;fill-rule:evenodd;stroke:#000000;stroke-width:2.0px;stroke-linecap:butt;stroke-linejoin:miter;stroke-opacity:1"/>
<path class="bond-4 atom-4 atom-5" d="M 217.5,74.3 L 194.4,55.9" style="fill:none;fill-rule:evenodd;stroke:#000000;stroke-width:2.0px;stroke-linecap:butt;stroke-linejoin:miter;stroke-opacity:1"/>
<path class="bond-4 atom-4 atom-5" d="M 218.3,69.2 L 199.2,54.0" style="fill:none;fill-rule:evenodd;stroke:#000000;stroke-width:2.0px;stroke-linecap:butt;stroke-linejoin:miter;stroke-opacity:1"/>
<path class="bond-5 atom-5 atom-6" d="M 194.4,55.9 L 198.0,31.9" style="fill:none;fill-rule:evenodd;stroke:#000000;stroke-width:2.0px;stroke-linecap:butt;stroke-linejoin:miter;stroke-opacity:1"/>
<path class="bond-6 atom-6 atom-7" d="M 202.9,25.1 L 226.2,16.0" style="fill:none;fill-rule:evenodd;stroke:#000000;stroke-width:2.0px;stroke-linecap:butt;stroke-linejoin:miter;stroke-opacity:1"/>
<path class="bond-6 atom-6 atom-7" d="M 204.5,29.3 L 225.4,21.0" style="fill:none;fill-rule:evenodd;stroke:#000000;stroke-width:2.0px;stroke-linecap:butt;stroke-linejoin:miter;stroke-opacity:1"/>
<path class="bond-7 atom-7 atom-8" d="M 226.2,16.0 L 249.3,34.3" style="fill:none;fill-rule:evenodd;stroke:#000000;stroke-width:2.0px;stroke-linecap:butt;stroke-linejoin:miter;stroke-opacity:1"/>
<path class="bond-8 atom-8 atom-9" d="M 249.3,34.3 L 276.7,23.5" style="fill:none;fill-rule:evenodd;stroke:#000000;stroke-width:2.0px;stroke-linecap:butt;stroke-linejoin:miter;stroke-opacity:1"/>
<path class="bond-8 atom-8 atom-9" d="M 253.3,37.5 L 275.9,28.5" style="fill:none;fill-rule:evenodd;stroke:#000000;stroke-width:2.0px;stroke-linecap:butt;stroke-linejoin:miter;stroke-opacity:1"/>
<path class="bond-9 atom-9 atom-10" d="M 276.7,23.5 L 299.8,41.8" style="fill:none;fill-rule:evenodd;stroke:#000000;stroke-width:2.0px;stroke-linecap:butt;stroke-linejoin:miter;stroke-opacity:1"/>
<path class="bond-10 atom-10 atom-11" d="M 299.8,41.8 L 295.4,71.0" style="fill:none;fill-rule:evenodd;stroke:#000000;stroke-width:2.0px;stroke-linecap:butt;stroke-linejoin:miter;stroke-opacity:1"/>
<path class="bond-10 atom-10 atom-11" d="M 295.0,43.7 L 291.4,67.8" style="fill:none;fill-rule:evenodd;stroke:#000000;stroke-width:2.0px;stroke-linecap:butt;stroke-linejoin:miter;stroke-opacity:1"/>
<path class="bond-11 atom-11 atom-12" d="M 295.4,71.0 L 268.0,81.8" style="fill:none;fill-rule:evenodd;stroke:#000000;stroke-width:2.0px;stroke-linecap:butt;stroke-linejoin:miter;stroke-opacity:1"/>
<path class="bond-12 atom-12 atom-13" d="M 268.0,81.8 L 244.9,63.4" style="fill:none;fill-rule:evenodd;stroke:#000000;stroke-width:2.0px;stroke-linecap:butt;stroke-linejoin:miter;stroke-opacity:1"/>
<path class="bond-12 atom-12 atom-13" d="M 268.7,76.7 L 249.7,61.6" style="fill:none;fill-rule:evenodd;stroke:#000000;stroke-width:2.0px;stroke-linecap:butt;stroke-linejoin:miter;stroke-opacity:1"/>
<path class="bond-13 atom-3 atom-14" d="M 209.0,105.6 L 187.0,117.0" style="fill:none;fill-rule:evenodd;stroke:#000000;stroke-width:2.0px;stroke-linecap:butt;stroke-linejoin:miter;stroke-opacity:1"/>
<path class="bond-14 atom-14 atom-15" d="M 189.5,115.8 L 166.5,104.3" style="fill:none;fill-rule:evenodd;stroke:#000000;stroke-width:2.0px;stroke-linecap:butt;stroke-linejoin:miter;stroke-opacity:1"/>
<path class="bond-14 atom-14 atom-15" d="M 187.5,119.7 L 164.5,108.2" style="fill:none;fill-rule:evenodd;stroke:#000000;stroke-width:2.0px;stroke-linecap:butt;stroke-linejoin:miter;stroke-opacity:1"/>
<path class="bond-15 atom-14 atom-16" d="M 187.0,117.0 L 191.9,146.1" style="fill:none;fill-rule:evenodd;stroke:#000000;stroke-width:2.0px;stroke-linecap:butt;stroke-linejoin:miter;stroke-opacity:1"/>
<path class="bond-16 atom-16 atom-17" d="M 188.4,144.9 L 188.3,145.5" style="fill:none;fill-rule:evenodd;stroke:#000000;stroke-width:1.0px;stroke-linecap:butt;stroke-linejoin:miter;stroke-opacity:1"/>
<path class="bond-16 atom-16 atom-17" d="M 184.9,143.6 L 184.6,144.8" style="fill:none;fill-rule:evenodd;stroke:#000000;stroke-width:1.0px;stroke-linecap:butt;stroke-linejoin:miter;stroke-opacity:1"/>
<path class="bond-16 atom-16 atom-17" d="M 181.5,142.4 L 181.0,144.2" style="fill:none;fill-rule:evenodd;stroke:#000000;stroke-width:1.0px;stroke-linecap:butt;stroke-linejoin:miter;stroke-opacity:1"/>
<path class="bond-16 atom-16 atom-17" d="M 178.0,141.2 L 177.3,143.6" style="fill:none;fill-rule:evenodd;stroke:#000000;stroke-width:1.0px;stroke-linecap:butt;stroke-linejoin:miter;stroke-opacity:1"/>
<path class="bond-16 atom-16 atom-17" d="M 174.5,139.9 L 173.7,143.0" style="fill:none;fill-rule:evenodd;stroke:#000000;stroke-width:1.0px;stroke-linecap:butt;stroke-linejoin:miter;stroke-opacity:1"/>
<path class="bond-16 atom-16 atom-17" d="M 171.0,138.7 L 170.1,142.4" style="fill:none;fill-rule:evenodd;stroke:#000000;stroke-width:1.0px;stroke-linecap:butt;stroke-linejoin:miter;stroke-opacity:1"/>
<path class="bond-16 atom-16 atom-17" d="M 167.5,137.5 L 166.4,141.8" style="fill:none;fill-rule:evenodd;stroke:#000000;stroke-width:1.0px;stroke-linecap:butt;stroke-linejoin:miter;stroke-opacity:1"/>
<path class="bond-17 atom-17 atom-18" d="M 163.4,138.7 L 146.9,155.5" style="fill:none;fill-rule:evenodd;stroke:#000000;stroke-width:2.0px;stroke-linecap:butt;stroke-linejoin:miter;stroke-opacity:1"/>
<path class="bond-18 atom-18 atom-19" d="M 138.6,158.7 L 114.2,152.4" style="fill:none;fill-rule:evenodd;stroke:#000000;stroke-width:2.0px;stroke-linecap:butt;stroke-linejoin:miter;stroke-opacity:1"/>
<path class="bond-19 atom-19 atom-20" d="M 114.2,152.4 L 106.3,124.0" style="fill:none;fill-rule:evenodd;stroke:#000000;stroke-width:2.0px;stroke-linecap:butt;stroke-linejoin:miter;stroke-opacity:1"/>
<path class="bond-20 atom-20 atom-21" d="M 107.0,126.4 L 123.7,109.4" style="fill:none;fill-rule:evenodd;stroke:#000000;stroke-width:2.0px;stroke-linecap:butt;stroke-linejoin:miter;stroke-opacity:1"/>
<path class="bond-20 atom-20 atom-21" d="M 103.9,123.3 L 120.6,106.3" style="fill:none;fill-rule:evenodd;stroke:#000000;stroke-width:2.0px;stroke-linecap:butt;stroke-linejoin:miter;stroke-opacity:1"/>
<path class="bond-21 atom-20 atom-22" d="M 106.3,124.0 L 81.9,117.7" style="fill:none;fill-rule:evenodd;stroke:#000000;stroke-width:2.0px;stroke-linecap:butt;stroke-linejoin:miter;stroke-opacity:1"/>
<path class="bond-22 atom-22 atom-23" d="M 76.4,111.5 L 69.9,88.2" style="fill:none;fill-rule:evenodd;stroke:#000000;stroke-width:2.0px;stroke-linecap:butt;stroke-linejoin:miter;stroke-opacity:1"/>
<path class="bond-23 atom-23 atom-24" d="M 69.9,88.2 L 41.4,80.9" style="fill:none;fill-rule:evenodd;stroke:#000000;stroke-width:2.0px;stroke-linecap:butt;stroke-linejoin:miter;stroke-opacity:1"/>
<path class="bond-24 atom-24 atom-25" d="M 41.4,80.9 L 31.5,102.5" style="fill:none;fill-rule:evenodd;stroke:#000000;stroke-width:2.0px;stroke-linecap:butt;stroke-linejoin:miter;stroke-opacity:1"/>
<path class="bond-25 atom-24 atom-26" d="M 41.4,80.9 L 17.1,64.2" style="fill:none;fill-rule:evenodd;stroke:#000000;stroke-width:2.0px;stroke-linecap:butt;stroke-linejoin:miter;stroke-opacity:1"/>
<path class="bond-26 atom-26 atom-27" d="M 17.1,64.2 L 43.7,51.5" style="fill:none;fill-rule:evenodd;stroke:#000000;stroke-width:2.0px;stroke-linecap:butt;stroke-linejoin:miter;stroke-opacity:1"/>
<path class="bond-27 atom-18 atom-28" d="M 144.2,164.9 L 150.6,188.1" style="fill:none;fill-rule:evenodd;stroke:#000000;stroke-width:2.0px;stroke-linecap:butt;stroke-linejoin:miter;stroke-opacity:1"/>
<path class="bond-28 atom-28 atom-29" d="M 149.9,185.7 L 133.2,202.7" style="fill:none;fill-rule:evenodd;stroke:#000000;stroke-width:2.0px;stroke-linecap:butt;stroke-linejoin:miter;stroke-opacity:1"/>
<path class="bond-28 atom-28 atom-29" d="M 153.1,188.8 L 136.4,205.8" style="fill:none;fill-rule:evenodd;stroke:#000000;stroke-width:2.0px;stroke-linecap:butt;stroke-linejoin:miter;stroke-opacity:1"/>
<path class="bond-29 atom-28 atom-30" d="M 150.6,188.1 L 179.2,195.5" style="fill:none;fill-rule:evenodd;stroke:#000000;stroke-width:2.0px;stroke-linecap:butt;stroke-linejoin:miter;stroke-opacity:1"/>
<path class="bond-30 atom-30 atom-31" d="M 179.2,195.5 L 187.0,223.9" style="fill:none;fill-rule:evenodd;stroke:#000000;stroke-width:2.0px;stroke-linecap:butt;stroke-linejoin:miter;stroke-opacity:1"/>
<path class="bond-30 atom-30 atom-31" d="M 184.1,196.8 L 190.6,220.2" style="fill:none;fill-rule:evenodd;stroke:#000000;stroke-width:2.0px;stroke-linecap:butt;stroke-linejoin:miter;stroke-opacity:1"/>
<path class="bond-31 atom-31 atom-32" d="M 187.0,223.9 L 215.6,231.3" style="fill:none;fill-rule:evenodd;stroke:#000000;stroke-width:2.0px;stroke-linecap:butt;stroke-linejoin:miter;stroke-opacity:1"/>
<path class="bond-32 atom-32 atom-33" d="M 215.6,231.3 L 236.2,210.2" style="fill:none;fill-rule:evenodd;stroke:#000000;stroke-width:2.0px;stroke-linecap:butt;stroke-linejoin:miter;stroke-opacity:1"/>
<path class="bond-32 atom-32 atom-33" d="M 214.2,226.3 L 231.3,208.9" style="fill:none;fill-rule:evenodd;stroke:#000000;stroke-width:2.0px;stroke-linecap:butt;stroke-linejoin:miter;stroke-opacity:1"/>
<path class="bond-33 atom-33 atom-34" d="M 236.2,210.2 L 261.3,216.7" style="fill:none;fill-rule:evenodd;stroke:#000000;stroke-width:2.0px;stroke-linecap:butt;stroke-linejoin:miter;stroke-opacity:1"/>
<path class="bond-34 atom-33 atom-35" d="M 236.2,210.2 L 228.3,181.8" style="fill:none;fill-rule:evenodd;stroke:#000000;stroke-width:2.0px;stroke-linecap:butt;stroke-linejoin:miter;stroke-opacity:1"/>
<path class="bond-35 atom-35 atom-36" d="M 228.3,181.8 L 199.8,174.5" style="fill:none;fill-rule:evenodd;stroke:#000000;stroke-width:2.0px;stroke-linecap:butt;stroke-linejoin:miter;stroke-opacity:1"/>
<path class="bond-35 atom-35 atom-36" d="M 224.8,185.5 L 201.2,179.4" style="fill:none;fill-rule:evenodd;stroke:#000000;stroke-width:2.0px;stroke-linecap:butt;stroke-linejoin:miter;stroke-opacity:1"/>
<path class="bond-36 atom-16 atom-1" d="M 191.9,146.1 L 221.1,150.4" style="fill:none;fill-rule:evenodd;stroke:#000000;stroke-width:2.0px;stroke-linecap:butt;stroke-linejoin:miter;stroke-opacity:1"/>
<path class="bond-37 atom-27 atom-24" d="M 43.7,51.5 L 41.4,80.9" style="fill:none;fill-rule:evenodd;stroke:#000000;stroke-width:2.0px;stroke-linecap:butt;stroke-linejoin:miter;stroke-opacity:1"/>
<path class="bond-38 atom-36 atom-30" d="M 199.8,174.5 L 179.2,195.5" style="fill:none;fill-rule:evenodd;stroke:#000000;stroke-width:2.0px;stroke-linecap:butt;stroke-linejoin:miter;stroke-opacity:1"/>
<path class="bond-39 atom-13 atom-4" d="M 244.9,63.4 L 217.5,74.3" style="fill:none;fill-rule:evenodd;stroke:#000000;stroke-width:2.0px;stroke-linecap:butt;stroke-linejoin:miter;stroke-opacity:1"/>
<path class="bond-40 atom-36 atom-16" d="M 199.8,174.5 L 191.9,146.1" style="fill:none;fill-rule:evenodd;stroke:#000000;stroke-width:2.0px;stroke-linecap:butt;stroke-linejoin:miter;stroke-opacity:1"/>
<path class="bond-41 atom-13 atom-8" d="M 244.9,63.4 L 249.3,34.3" style="fill:none;fill-rule:evenodd;stroke:#000000;stroke-width:2.0px;stroke-linecap:butt;stroke-linejoin:miter;stroke-opacity:1"/>
<path d="M 221.7,149.1 L 221.1,150.4 L 219.6,150.2" style="fill:none;stroke:#000000;stroke-width:2.0px;stroke-linecap:butt;stroke-linejoin:miter;stroke-miterlimit:10;stroke-opacity:1;"/>
<path d="M 233.5,125.4 L 234.2,124.0 L 233.4,123.2" style="fill:none;stroke:#000000;stroke-width:2.0px;stroke-linecap:butt;stroke-linejoin:miter;stroke-miterlimit:10;stroke-opacity:1;"/>
<path d="M 195.6,56.8 L 194.4,55.9 L 194.6,54.7" style="fill:none;stroke:#000000;stroke-width:2.0px;stroke-linecap:butt;stroke-linejoin:miter;stroke-miterlimit:10;stroke-opacity:1;"/>
<path d="M 225.0,16.4 L 226.2,16.0 L 227.4,16.9" style="fill:none;stroke:#000000;stroke-width:2.0px;stroke-linecap:butt;stroke-linejoin:miter;stroke-miterlimit:10;stroke-opacity:1;"/>
<path d="M 275.3,24.0 L 276.7,23.5 L 277.8,24.4" style="fill:none;stroke:#000000;stroke-width:2.0px;stroke-linecap:butt;stroke-linejoin:miter;stroke-miterlimit:10;stroke-opacity:1;"/>
<path d="M 298.6,40.9 L 299.8,41.8 L 299.5,43.3" style="fill:none;stroke:#000000;stroke-width:2.0px;stroke-linecap:butt;stroke-linejoin:miter;stroke-miterlimit:10;stroke-opacity:1;"/>
<path d="M 295.6,69.5 L 295.4,71.0 L 294.0,71.5" style="fill:none;stroke:#000000;stroke-width:2.0px;stroke-linecap:butt;stroke-linejoin:miter;stroke-miterlimit:10;stroke-opacity:1;"/>
<path d="M 269.4,81.2 L 268.0,81.8 L 266.8,80.9" style="fill:none;stroke:#000000;stroke-width:2.0px;stroke-linecap:butt;stroke-linejoin:miter;stroke-miterlimit:10;stroke-opacity:1;"/>
<path d="M 188.1,116.4 L 187.0,117.0 L 187.3,118.5" style="fill:none;stroke:#000000;stroke-width:2.0px;stroke-linecap:butt;stroke-linejoin:miter;stroke-miterlimit:10;stroke-opacity:1;"/>
<path d="M 115.4,152.7 L 114.2,152.4 L 113.8,151.0" style="fill:none;stroke:#000000;stroke-width:2.0px;stroke-linecap:butt;stroke-linejoin:miter;stroke-miterlimit:10;stroke-opacity:1;"/>
<path d="M 106.7,125.4 L 106.3,124.0 L 105.1,123.7" style="fill:none;stroke:#000000;stroke-width:2.0px;stroke-linecap:butt;stroke-linejoin:miter;stroke-miterlimit:10;stroke-opacity:1;"/>
<path d="M 70.2,89.4 L 69.9,88.2 L 68.5,87.9" style="fill:none;stroke:#000000;stroke-width:2.0px;stroke-linecap:butt;stroke-linejoin:miter;stroke-miterlimit:10;stroke-opacity:1;"/>
<path d="M 18.3,65.0 L 17.1,64.2 L 18.4,63.5" style="fill:none;stroke:#000000;stroke-width:2.0px;stroke-linecap:butt;stroke-linejoin:miter;stroke-miterlimit:10;stroke-opacity:1;"/>
<path d="M 42.3,52.1 L 43.7,51.5 L 43.6,52.9" style="fill:none;stroke:#000000;stroke-width:2.0px;stroke-linecap:butt;stroke-linejoin:miter;stroke-miterlimit:10;stroke-opacity:1;"/>
<path d="M 150.3,187.0 L 150.6,188.1 L 152.1,188.5" style="fill:none;stroke:#000000;stroke-width:2.0px;stroke-linecap:butt;stroke-linejoin:miter;stroke-miterlimit:10;stroke-opacity:1;"/>
<path d="M 186.7,222.5 L 187.0,223.9 L 188.5,224.3" style="fill:none;stroke:#000000;stroke-width:2.0px;stroke-linecap:butt;stroke-linejoin:miter;stroke-miterlimit:10;stroke-opacity:1;"/>
<path d="M 214.2,230.9 L 215.6,231.3 L 216.6,230.2" style="fill:none;stroke:#000000;stroke-width:2.0px;stroke-linecap:butt;stroke-linejoin:miter;stroke-miterlimit:10;stroke-opacity:1;"/>
<path d="M 228.7,183.3 L 228.3,181.8 L 226.9,181.5" style="fill:none;stroke:#000000;stroke-width:2.0px;stroke-linecap:butt;stroke-linejoin:miter;stroke-miterlimit:10;stroke-opacity:1;"/>
<path class="atom-3" d="M 211.3 99.2 L 214.1 103.6 Q 214.3 104.1, 214.8 104.9 Q 215.2 105.7, 215.2 105.7 L 215.2 99.2 L 216.3 99.2 L 216.3 107.6 L 215.2 107.6 L 212.3 102.7 Q 211.9 102.2, 211.6 101.5 Q 211.2 100.9, 211.1 100.7 L 211.1 107.6 L 210.0 107.6 L 210.0 99.2 L 211.3 99.2 " fill="#000000"/>
<path class="atom-6" d="M 196.9 22.6 L 199.7 27.0 Q 200.0 27.5, 200.4 28.2 Q 200.8 29.0, 200.8 29.1 L 200.8 22.6 L 202.0 22.6 L 202.0 30.9 L 200.8 30.9 L 197.9 26.1 Q 197.5 25.5, 197.2 24.9 Q 196.8 24.3, 196.7 24.1 L 196.7 30.9 L 195.6 30.9 L 195.6 22.6 L 196.9 22.6 " fill="#000000"/>
<path class="atom-15" d="M 156.8 103.9 Q 156.8 101.9, 157.8 100.8 Q 158.8 99.7, 160.7 99.7 Q 162.5 99.7, 163.5 100.8 Q 164.5 101.9, 164.5 103.9 Q 164.5 105.9, 163.5 107.1 Q 162.5 108.2, 160.7 108.2 Q 158.8 108.2, 157.8 107.1 Q 156.8 105.9, 156.8 103.9 M 160.7 107.3 Q 161.9 107.3, 162.6 106.4 Q 163.3 105.6, 163.3 103.9 Q 163.3 102.3, 162.6 101.4 Q 161.9 100.6, 160.7 100.6 Q 159.4 100.6, 158.7 101.4 Q 158.0 102.3, 158.0 103.9 Q 158.0 105.6, 158.7 106.4 Q 159.4 107.3, 160.7 107.3 " fill="#000000"/>
<path class="atom-18" d="M 140.9 155.6 L 143.6 160.0 Q 143.9 160.4, 144.3 161.2 Q 144.8 162.0, 144.8 162.0 L 144.8 155.6 L 145.9 155.6 L 145.9 163.9 L 144.8 163.9 L 141.8 159.1 Q 141.5 158.5, 141.1 157.9 Q 140.8 157.2, 140.7 157.0 L 140.7 163.9 L 139.6 163.9 L 139.6 155.6 L 140.9 155.6 " fill="#000000"/>
<path class="atom-21" d="M 123.1 103.0 Q 123.1 101.0, 124.1 99.9 Q 125.1 98.7, 127.0 98.7 Q 128.8 98.7, 129.8 99.9 Q 130.8 101.0, 130.8 103.0 Q 130.8 105.0, 129.8 106.2 Q 128.8 107.3, 127.0 107.3 Q 125.1 107.3, 124.1 106.2 Q 123.1 105.0, 123.1 103.0 M 127.0 106.4 Q 128.2 106.4, 128.9 105.5 Q 129.6 104.7, 129.6 103.0 Q 129.6 101.3, 128.9 100.5 Q 128.2 99.7, 127.0 99.7 Q 125.7 99.7, 125.0 100.5 Q 124.3 101.3, 124.3 103.0 Q 124.3 104.7, 125.0 105.5 Q 125.7 106.4, 127.0 106.4 " fill="#000000"/>
<path class="atom-22" d="M 66.5 112.4 L 67.6 112.4 L 67.6 116.0 L 71.8 116.0 L 71.8 112.4 L 73.0 112.4 L 73.0 120.8 L 71.8 120.8 L 71.8 116.9 L 67.6 116.9 L 67.6 120.8 L 66.5 120.8 L 66.5 112.4 " fill="#000000"/>
<path class="atom-22" d="M 75.9 112.4 L 78.7 116.9 Q 79.0 117.3, 79.4 118.1 Q 79.8 118.9, 79.8 118.9 L 79.8 112.4 L 81.0 112.4 L 81.0 120.8 L 79.8 120.8 L 76.9 116.0 Q 76.5 115.4, 76.2 114.7 Q 75.8 114.1, 75.7 113.9 L 75.7 120.8 L 74.6 120.8 L 74.6 112.4 L 75.9 112.4 " fill="#000000"/>
<path class="atom-25" d="M 26.7 103.5 L 31.6 103.5 L 31.6 104.5 L 27.8 104.5 L 27.8 107.0 L 31.2 107.0 L 31.2 108.0 L 27.8 108.0 L 27.8 111.8 L 26.7 111.8 L 26.7 103.5 " fill="#000000"/>
<path class="atom-29" d="M 126.2 209.2 Q 126.2 207.2, 127.1 206.1 Q 128.1 204.9, 130.0 204.9 Q 131.8 204.9, 132.8 206.1 Q 133.8 207.2, 133.8 209.2 Q 133.8 211.2, 132.8 212.4 Q 131.8 213.5, 130.0 213.5 Q 128.1 213.5, 127.1 212.4 Q 126.2 211.2, 126.2 209.2 M 130.0 212.6 Q 131.3 212.6, 131.9 211.7 Q 132.6 210.9, 132.6 209.2 Q 132.6 207.5, 131.9 206.7 Q 131.3 205.9, 130.0 205.9 Q 128.7 205.9, 128.0 206.7 Q 127.3 207.5, 127.3 209.2 Q 127.3 210.9, 128.0 211.7 Q 128.7 212.6, 130.0 212.6 " fill="#000000"/>
<path class="atom-34" d="M 262.3 213.4 L 267.2 213.4 L 267.2 214.4 L 263.4 214.4 L 263.4 216.9 L 266.8 216.9 L 266.8 217.9 L 263.4 217.9 L 263.4 221.8 L 262.3 221.8 L 262.3 213.4 " fill="#000000"/>
<path class="legend" d="M 31.4 244.2 Q 33.1 244.2, 34.0 245.2 Q 35.0 246.3, 35.0 248.3 Q 35.0 250.3, 33.8 251.5 Q 32.7 252.7, 30.8 252.7 Q 29.8 252.7, 29.0 252.4 L 29.0 256.4 L 27.5 256.4 L 27.5 244.3 L 28.8 244.3 L 28.9 245.3 Q 29.4 244.7, 30.0 244.4 Q 30.6 244.2, 31.4 244.2 M 30.7 251.5 Q 32.0 251.5, 32.7 250.6 Q 33.4 249.8, 33.4 248.3 Q 33.4 246.9, 32.9 246.1 Q 32.3 245.3, 31.3 245.3 Q 30.4 245.3, 29.9 245.8 Q 29.3 246.2, 29.0 247.0 L 29.0 251.2 Q 29.9 251.5, 30.7 251.5 " fill="#000000"/>
<path class="legend" d="M 37.4 244.3 L 37.5 245.4 Q 38.4 244.2, 39.8 244.2 Q 40.3 244.2, 40.9 244.3 L 40.6 245.7 Q 39.9 245.5, 39.6 245.5 Q 38.9 245.5, 38.4 245.8 Q 38.0 246.0, 37.7 246.7 L 37.7 252.5 L 36.2 252.5 L 36.2 244.3 L 37.4 244.3 " fill="#000000"/>
<path class="legend" d="M 41.6 248.4 Q 41.6 246.4, 42.6 245.3 Q 43.6 244.2, 45.4 244.2 Q 47.2 244.2, 48.0 245.2 Q 48.8 246.3, 48.8 248.4 L 48.8 248.6 L 43.1 248.6 Q 43.1 250.0, 43.8 250.7 Q 44.4 251.5, 45.6 251.5 Q 46.2 251.5, 46.8 251.3 Q 47.4 251.2, 48.1 250.8 L 48.5 251.9 Q 47.7 252.3, 47.0 252.5 Q 46.2 252.7, 45.5 252.7 Q 43.6 252.7, 42.6 251.5 Q 41.6 250.4, 41.6 248.4 M 45.4 245.3 Q 44.5 245.3, 43.9 245.9 Q 43.3 246.4, 43.2 247.5 L 47.3 247.5 Q 47.2 246.4, 46.7 245.9 Q 46.3 245.3, 45.4 245.3 " fill="#000000"/>
<path class="legend" d="M 57.4 240.4 L 57.4 252.5 L 56.2 252.5 L 56.0 251.5 Q 55.0 252.7, 53.5 252.7 Q 51.8 252.7, 50.9 251.6 Q 49.9 250.5, 49.9 248.5 Q 49.9 246.5, 51.0 245.3 Q 52.2 244.2, 54.1 244.2 Q 55.0 244.2, 55.9 244.4 L 55.9 240.4 L 57.4 240.4 M 53.6 251.5 Q 54.5 251.5, 55.0 251.0 Q 55.7 250.6, 55.9 249.7 L 55.9 245.6 Q 55.1 245.3, 54.2 245.3 Q 52.9 245.3, 52.2 246.2 Q 51.4 247.0, 51.4 248.5 Q 51.4 250.0, 52.0 250.7 Q 52.6 251.5, 53.6 251.5 " fill="#000000"/>
<path class="legend" d="M 59.1 250.9 L 60.7 250.9 L 60.7 252.5 L 59.1 252.5 L 59.1 250.9 " fill="#000000"/>
<path class="legend" d="" fill="#000000"/>
<path class="legend" d="M 71.8 244.2 Q 73.5 244.2, 74.5 245.2 Q 75.4 246.3, 75.4 248.3 Q 75.4 250.3, 74.3 251.5 Q 73.2 252.7, 71.2 252.7 Q 70.3 252.7, 69.5 252.4 L 69.5 256.4 L 68.0 256.4 L 68.0 244.3 L 69.2 244.3 L 69.4 245.3 Q 69.8 244.7, 70.5 244.4 Q 71.1 244.2, 71.8 244.2 M 71.2 251.5 Q 72.5 251.5, 73.2 250.6 Q 73.9 249.8, 73.9 248.3 Q 73.9 246.9, 73.3 246.1 Q 72.8 245.3, 71.7 245.3 Q 70.9 245.3, 70.3 245.8 Q 69.7 246.2, 69.5 247.0 L 69.5 251.2 Q 70.3 251.5, 71.2 251.5 " fill="#000000"/>
<path class="legend" d="M 76.6 241.2 L 78.1 241.2 L 78.1 252.5 L 76.6 252.5 L 76.6 241.2 " fill="#000000"/>
<path class="legend" d="M 80.0 246.8 Q 80.0 244.0, 81.3 242.6 Q 82.6 241.1, 85.2 241.1 Q 87.5 241.1, 88.7 242.7 L 87.7 243.6 Q 86.8 242.4, 85.2 242.4 Q 83.4 242.4, 82.5 243.5 Q 81.6 244.7, 81.6 246.8 Q 81.6 249.1, 82.6 250.2 Q 83.5 251.4, 85.3 251.4 Q 86.6 251.4, 88.0 250.6 L 88.5 251.8 Q 87.9 252.2, 87.0 252.4 Q 86.1 252.7, 85.1 252.7 Q 82.6 252.7, 81.3 251.2 Q 80.0 249.7, 80.0 246.8 " fill="#000000"/>
<path class="legend" d="M 94.0 245.4 Q 94.9 245.4, 95.8 245.9 Q 96.6 246.3, 97.0 247.1 Q 97.5 247.9, 97.5 248.9 Q 97.5 250.1, 96.9 251.0 Q 96.4 251.8, 95.4 252.2 Q 94.5 252.7, 93.5 252.7 Q 92.4 252.7, 91.5 252.3 Q 90.5 251.9, 89.8 251.2 L 90.8 250.2 Q 91.3 250.7, 92.0 251.1 Q 92.8 251.4, 93.5 251.4 Q 94.5 251.4, 95.2 250.7 Q 95.9 250.1, 95.9 249.0 Q 95.9 247.8, 95.2 247.2 Q 94.5 246.6, 93.4 246.6 Q 92.4 246.6, 91.3 247.1 L 90.4 246.7 L 91.0 241.2 L 96.8 241.2 L 96.6 242.5 L 92.3 242.5 L 92.0 245.8 Q 93.0 245.4, 94.0 245.4 " fill="#000000"/>
<path class="legend" d="M 102.9 252.7 Q 100.8 252.7, 99.8 251.1 Q 98.7 249.6, 98.7 246.8 Q 98.7 244.1, 99.8 242.6 Q 100.8 241.1, 102.9 241.1 Q 105.0 241.1, 106.0 242.6 Q 107.0 244.1, 107.0 246.8 Q 107.0 249.6, 106.0 251.1 Q 105.0 252.7, 102.9 252.7 M 102.9 251.4 Q 104.1 251.4, 104.8 250.2 Q 105.4 249.1, 105.4 246.8 Q 105.4 244.6, 104.8 243.5 Q 104.1 242.4, 102.9 242.4 Q 101.7 242.4, 101.0 243.5 Q 100.3 244.6, 100.3 246.8 Q 100.3 249.1, 101.0 250.2 Q 101.7 251.4, 102.9 251.4 " fill="#000000"/>
<path class="legend" d="M 108.5 250.7 L 110.1 250.7 L 110.1 252.3 L 108.5 252.3 L 108.5 250.7 M 108.5 245.2 L 110.1 245.2 L 110.1 246.8 L 108.5 246.8 L 108.5 245.2 " fill="#000000"/>
<path class="legend" d="" fill="#000000"/>
<path class="legend" d="M 122.0 245.5 Q 123.0 245.5, 123.8 245.9 Q 124.5 246.3, 125.0 247.1 Q 125.4 247.9, 125.4 248.9 Q 125.4 250.0, 124.9 250.8 Q 124.4 251.7, 123.6 252.2 Q 122.7 252.7, 121.6 252.7 Q 119.6 252.7, 118.6 251.3 Q 117.6 249.9, 117.6 247.2 Q 117.6 244.2, 118.8 242.6 Q 120.1 241.1, 122.5 241.1 Q 123.2 241.1, 123.8 241.2 Q 124.4 241.4, 125.0 241.7 L 124.3 242.8 Q 123.5 242.4, 122.5 242.4 Q 120.9 242.4, 120.1 243.4 Q 119.3 244.4, 119.2 246.5 Q 119.7 246.0, 120.5 245.7 Q 121.2 245.5, 122.0 245.5 M 121.6 251.3 Q 122.2 251.3, 122.7 251.0 Q 123.2 250.7, 123.5 250.1 Q 123.8 249.6, 123.8 248.9 Q 123.8 247.9, 123.3 247.3 Q 122.7 246.7, 121.7 246.7 Q 121.0 246.7, 120.3 247.0 Q 119.7 247.3, 119.2 247.8 Q 119.2 249.6, 119.8 250.5 Q 120.4 251.3, 121.6 251.3 " fill="#000000"/>
<path class="legend" d="M 126.7 250.9 L 128.3 250.9 L 128.3 252.5 L 126.7 252.5 L 126.7 250.9 " fill="#000000"/>
<path class="legend" d="M 134.3 245.5 Q 135.3 245.5, 136.1 245.9 Q 136.8 246.3, 137.3 247.1 Q 137.7 247.9, 137.7 248.9 Q 137.7 250.0, 137.2 250.8 Q 136.7 251.7, 135.9 252.2 Q 135.0 252.7, 133.9 252.7 Q 131.9 252.7, 130.9 251.3 Q 129.8 249.9, 129.8 247.2 Q 129.8 244.2, 131.1 242.6 Q 132.4 241.1, 134.8 241.1 Q 135.5 241.1, 136.1 241.2 Q 136.7 241.4, 137.3 241.7 L 136.6 242.8 Q 135.8 242.4, 134.8 242.4 Q 133.2 242.4, 132.4 243.4 Q 131.6 244.4, 131.5 246.5 Q 132.0 246.0, 132.8 245.7 Q 133.5 245.5, 134.3 245.5 M 133.9 251.3 Q 134.5 251.3, 135.0 251.0 Q 135.5 250.7, 135.8 250.1 Q 136.1 249.6, 136.1 248.9 Q 136.1 247.9, 135.5 247.3 Q 135.0 246.7, 134.0 246.7 Q 133.3 246.7, 132.6 247.0 Q 131.9 247.3, 131.5 247.8 Q 131.5 249.6, 132.1 250.5 Q 132.7 251.3, 133.9 251.3 " fill="#000000"/>
<path class="legend" d="M 144.5 246.6 Q 145.6 246.9, 146.1 247.6 Q 146.7 248.3, 146.7 249.4 Q 146.7 250.4, 146.2 251.1 Q 145.7 251.9, 144.8 252.3 Q 143.9 252.7, 142.8 252.7 Q 141.6 252.7, 140.7 252.3 Q 139.8 251.8, 139.0 251.0 L 139.9 250.0 Q 140.7 250.8, 141.2 251.1 Q 141.8 251.4, 142.8 251.4 Q 143.8 251.4, 144.4 250.9 Q 145.1 250.3, 145.1 249.4 Q 145.1 248.3, 144.4 247.7 Q 143.8 247.2, 142.4 247.2 L 141.5 247.2 L 141.5 246.1 L 142.3 246.1 Q 143.5 246.0, 144.2 245.5 Q 144.8 245.0, 144.8 244.0 Q 144.8 243.2, 144.3 242.8 Q 143.7 242.4, 142.8 242.4 Q 141.9 242.4, 141.3 242.7 Q 140.7 243.0, 140.2 243.9 L 139.1 243.3 Q 139.5 242.3, 140.5 241.7 Q 141.5 241.1, 142.8 241.1 Q 144.5 241.1, 145.4 241.9 Q 146.4 242.6, 146.4 244.0 Q 146.4 244.9, 145.9 245.5 Q 145.4 246.2, 144.5 246.6 " fill="#000000"/>
<path class="legend" d="" fill="#000000"/>
<path class="legend" d="" fill="#000000"/>
<path class="legend" d="" fill="#000000"/>
<path class="legend" d="" fill="#000000"/>
<path class="legend" d="" fill="#000000"/>
<path class="legend" d="M 177.0 248.4 Q 177.0 246.4, 178.0 245.3 Q 179.0 244.2, 180.9 244.2 Q 182.7 244.2, 183.5 245.2 Q 184.3 246.3, 184.3 248.4 L 184.3 248.6 L 178.5 248.6 Q 178.6 250.0, 179.2 250.7 Q 179.8 251.5, 181.0 251.5 Q 181.6 251.5, 182.2 251.3 Q 182.8 251.2, 183.5 250.8 L 184.0 251.9 Q 183.1 252.3, 182.4 252.5 Q 181.7 252.7, 180.9 252.7 Q 179.0 252.7, 178.0 251.5 Q 177.0 250.4, 177.0 248.4 M 180.9 245.3 Q 179.9 245.3, 179.3 245.9 Q 178.8 246.4, 178.6 247.5 L 182.7 247.5 Q 182.6 246.4, 182.1 245.9 Q 181.7 245.3, 180.9 245.3 " fill="#000000"/>
<path class="legend" d="M 188.3 248.3 L 185.6 244.3 L 187.3 244.3 L 189.3 247.1 L 191.2 244.3 L 192.9 244.3 L 190.1 248.3 L 193.1 252.5 L 191.3 252.5 L 189.2 249.4 L 187.0 252.5 L 185.3 252.5 L 188.3 248.3 " fill="#000000"/>
<path class="legend" d="M 197.5 244.2 Q 199.2 244.2, 200.2 245.2 Q 201.1 246.3, 201.1 248.3 Q 201.1 250.3, 200.0 251.5 Q 198.9 252.7, 196.9 252.7 Q 196.0 252.7, 195.2 252.4 L 195.2 256.4 L 193.7 256.4 L 193.7 244.3 L 194.9 244.3 L 195.1 245.3 Q 195.5 244.7, 196.2 244.4 Q 196.8 244.2, 197.5 244.2 M 196.9 251.5 Q 198.2 251.5, 198.9 250.6 Q 199.6 249.8, 199.6 248.3 Q 199.6 246.9, 199.0 246.1 Q 198.5 245.3, 197.4 245.3 Q 196.6 245.3, 196.0 245.8 Q 195.4 246.2, 195.2 247.0 L 195.2 251.2 Q 196.0 251.5, 196.9 251.5 " fill="#000000"/>
<path class="legend" d="M 202.3 250.9 L 203.9 250.9 L 203.9 252.5 L 202.3 252.5 L 202.3 250.9 " fill="#000000"/>
<path class="legend" d="" fill="#000000"/>
<path class="legend" d="M 215.0 244.2 Q 216.7 244.2, 217.7 245.2 Q 218.6 246.3, 218.6 248.3 Q 218.6 250.3, 217.5 251.5 Q 216.4 252.7, 214.4 252.7 Q 213.5 252.7, 212.7 252.4 L 212.7 256.4 L 211.2 256.4 L 211.2 244.3 L 212.4 244.3 L 212.6 245.3 Q 213.0 244.7, 213.7 244.4 Q 214.3 244.2, 215.0 244.2 M 214.4 251.5 Q 215.7 251.5, 216.4 250.6 Q 217.1 249.8, 217.1 248.3 Q 217.1 246.9, 216.5 246.1 Q 216.0 245.3, 214.9 245.3 Q 214.1 245.3, 213.5 245.8 Q 212.9 246.2, 212.7 247.0 L 212.7 251.2 Q 213.5 251.5, 214.4 251.5 " fill="#000000"/>
<path class="legend" d="M 219.8 241.2 L 221.3 241.2 L 221.3 252.5 L 219.8 252.5 L 219.8 241.2 " fill="#000000"/>
<path class="legend" d="M 223.2 246.8 Q 223.2 244.0, 224.5 242.6 Q 225.8 241.1, 228.4 241.1 Q 230.7 241.1, 231.9 242.7 L 230.9 243.6 Q 230.0 242.4, 228.4 242.4 Q 226.6 242.4, 225.7 243.5 Q 224.8 244.7, 224.8 246.8 Q 224.8 249.1, 225.8 250.2 Q 226.7 251.4, 228.5 251.4 Q 229.8 251.4, 231.2 250.6 L 231.7 251.8 Q 231.1 252.2, 230.2 252.4 Q 229.3 252.7, 228.3 252.7 Q 225.8 252.7, 224.5 251.2 Q 223.2 249.7, 223.2 246.8 " fill="#000000"/>
<path class="legend" d="M 237.2 245.4 Q 238.1 245.4, 239.0 245.9 Q 239.8 246.3, 240.2 247.1 Q 240.7 247.9, 240.7 248.9 Q 240.7 250.1, 240.1 251.0 Q 239.6 251.8, 238.6 252.2 Q 237.7 252.7, 236.7 252.7 Q 235.6 252.7, 234.7 252.3 Q 233.7 251.9, 233.0 251.2 L 234.0 250.2 Q 234.5 250.7, 235.2 251.1 Q 236.0 251.4, 236.7 251.4 Q 237.7 251.4, 238.4 250.7 Q 239.1 250.1, 239.1 249.0 Q 239.1 247.8, 238.4 247.2 Q 237.7 246.6, 236.6 246.6 Q 235.6 246.6, 234.5 247.1 L 233.6 246.7 L 234.2 241.2 L 240.0 241.2 L 239.8 242.5 L 235.5 242.5 L 235.2 245.8 Q 236.2 245.4, 237.2 245.4 " fill="#000000"/>
<path class="legend" d="M 246.1 252.7 Q 244.0 252.7, 243.0 251.1 Q 241.9 249.6, 241.9 246.8 Q 241.9 244.1, 243.0 242.6 Q 244.0 241.1, 246.1 241.1 Q 248.2 241.1, 249.2 242.6 Q 250.2 244.1, 250.2 246.8 Q 250.2 249.6, 249.2 251.1 Q 248.2 252.7, 246.1 252.7 M 246.1 251.4 Q 247.3 251.4, 248.0 250.2 Q 248.6 249.1, 248.6 246.8 Q 248.6 244.6, 248.0 243.5 Q 247.3 242.4, 246.1 242.4 Q 244.9 242.4, 244.2 243.5 Q 243.5 244.6, 243.5 246.8 Q 243.5 249.1, 244.2 250.2 Q 244.9 251.4, 246.1 251.4 " fill="#000000"/>
<path class="legend" d="M 251.7 250.7 L 253.3 250.7 L 253.3 252.3 L 251.7 252.3 L 251.7 250.7 M 251.7 245.2 L 253.3 245.2 L 253.3 246.8 L 251.7 246.8 L 251.7 245.2 " fill="#000000"/>
<path class="legend" d="" fill="#000000"/>
<path class="legend" d="M 265.2 245.5 Q 266.2 245.5, 267.0 245.9 Q 267.7 246.3, 268.2 247.1 Q 268.6 247.9, 268.6 248.9 Q 268.6 250.0, 268.1 250.8 Q 267.6 251.7, 266.8 252.2 Q 265.9 252.7, 264.8 252.7 Q 262.8 252.7, 261.8 251.3 Q 260.8 249.9, 260.8 247.2 Q 260.8 244.2, 262.0 242.6 Q 263.3 241.1, 265.7 241.1 Q 266.4 241.1, 267.0 241.2 Q 267.6 241.4, 268.2 241.7 L 267.5 242.8 Q 266.7 242.4, 265.7 242.4 Q 264.1 242.4, 263.3 243.4 Q 262.5 244.4, 262.4 246.5 Q 262.9 246.0, 263.7 245.7 Q 264.4 245.5, 265.2 245.5 M 264.8 251.3 Q 265.4 251.3, 265.9 251.0 Q 266.4 250.7, 266.7 250.1 Q 267.0 249.6, 267.0 248.9 Q 267.0 247.9, 266.5 247.3 Q 265.9 246.7, 264.9 246.7 Q 264.2 246.7, 263.5 247.0 Q 262.9 247.3, 262.4 247.8 Q 262.4 249.6, 263.0 250.5 Q 263.6 251.3, 264.8 251.3 " fill="#000000"/>
<path class="legend" d="M 269.9 250.9 L 271.5 250.9 L 271.5 252.5 L 269.9 252.5 L 269.9 250.9 " fill="#000000"/>
<path class="legend" d="M 278.8 246.5 Q 279.9 247.0, 280.5 247.6 Q 281.0 248.3, 281.0 249.4 Q 281.0 250.4, 280.5 251.1 Q 280.1 251.9, 279.2 252.3 Q 278.3 252.7, 277.1 252.7 Q 275.2 252.7, 274.1 251.8 Q 273.0 250.9, 273.0 249.4 Q 273.0 248.5, 273.5 247.8 Q 274.0 247.1, 275.0 246.6 Q 274.3 246.2, 273.9 245.6 Q 273.5 244.9, 273.5 244.0 Q 273.5 242.6, 274.4 241.9 Q 275.4 241.1, 277.0 241.1 Q 278.7 241.1, 279.7 241.9 Q 280.6 242.6, 280.6 244.0 Q 280.6 244.8, 280.2 245.4 Q 279.7 246.0, 278.8 246.5 M 277.0 242.3 Q 276.1 242.3, 275.6 242.7 Q 275.1 243.2, 275.1 244.0 Q 275.1 244.6, 275.4 245.0 Q 275.8 245.3, 276.3 245.6 Q 276.8 245.8, 277.7 246.1 Q 278.4 245.6, 278.7 245.1 Q 279.0 244.6, 279.0 244.0 Q 279.0 243.2, 278.5 242.7 Q 278.0 242.3, 277.0 242.3 M 277.1 251.5 Q 278.2 251.5, 278.8 250.9 Q 279.4 250.4, 279.4 249.4 Q 279.4 248.8, 279.1 248.4 Q 278.8 248.0, 278.3 247.8 Q 277.8 247.6, 276.9 247.3 L 276.1 247.1 Q 275.3 247.5, 275.0 248.1 Q 274.6 248.7, 274.6 249.4 Q 274.6 250.4, 275.3 250.9 Q 276.0 251.5, 277.1 251.5 " fill="#000000"/>
<path class="legend" d="M 286.3 241.1 Q 288.3 241.1, 289.3 242.4 Q 290.4 243.8, 290.4 246.5 Q 290.4 249.5, 289.1 251.1 Q 287.9 252.7, 285.4 252.7 Q 284.7 252.7, 284.1 252.5 Q 283.5 252.3, 283.0 252.0 L 283.6 250.9 Q 284.4 251.4, 285.4 251.4 Q 287.0 251.4, 287.8 250.4 Q 288.7 249.3, 288.7 247.2 Q 288.2 247.7, 287.4 248.0 Q 286.7 248.3, 285.9 248.3 Q 284.9 248.3, 284.2 247.8 Q 283.4 247.4, 282.9 246.6 Q 282.5 245.8, 282.5 244.8 Q 282.5 243.7, 283.0 242.9 Q 283.5 242.0, 284.3 241.6 Q 285.2 241.1, 286.3 241.1 M 284.1 244.8 Q 284.1 245.8, 284.7 246.4 Q 285.2 247.0, 286.2 247.0 Q 286.9 247.0, 287.6 246.7 Q 288.3 246.4, 288.7 246.0 Q 288.7 244.1, 288.1 243.2 Q 287.5 242.4, 286.3 242.4 Q 285.7 242.4, 285.2 242.7 Q 284.7 243.0, 284.4 243.6 Q 284.1 244.1, 284.1 244.8 " fill="#000000"/>
</svg>