<svg xmlns="http://www.w3.org/2000/svg" xmlns:rdkit="http://www.rdkit.org/xml" xmlns:xlink="http://www.w3.org/1999/xlink" version="1.1" baseProfile="full" xml:space="preserve" width="365px" height="254px" viewBox="0 0 365 254">
<!-- END OF HEADER -->
<rect style="opacity:1.0;fill:#FFFFFF;stroke:none" width="365.0" height="254.0" x="0.0" y="0.0"> </rect>
<path class="bond-0 atom-1 atom-0" d="M 283.8,150.7 L 307.1,169.0 L 302.0,175.5 L 278.7,157.3 Z" style="fill:#7474FF;fill-rule:evenodd;fill-opacity:1;stroke:#7474FF;stroke-width:2.0px;stroke-linecap:butt;stroke-linejoin:miter;stroke-miterlimit:10;stroke-opacity:1;"/>
<path class="bond-1 atom-1 atom-2" d="M 277.3,152.9 L 285.4,124.4 L 293.4,126.7 L 285.2,155.1 Z" style="fill:#7474FF;fill-rule:evenodd;fill-opacity:1;stroke:#7474FF;stroke-width:2.0px;stroke-linecap:butt;stroke-linejoin:miter;stroke-miterlimit:10;stroke-opacity:1;"/>
<path class="bond-2 atom-2 atom-3" d="M 287.1,129.0 L 262.6,112.4 L 267.2,105.6 L 291.7,122.2 Z" style="fill:#7474FF;fill-rule:evenodd;fill-opacity:1;stroke:#7474FF;stroke-width:2.0px;stroke-linecap:butt;stroke-linejoin:miter;stroke-miterlimit:10;stroke-opacity:1;"/>
<path class="bond-4 atom-4 atom-5" d="M 262.0,83.1 L 235.9,69.2 L 239.8,61.9 L 265.9,75.8 Z" style="fill:#FFDEDE;fill-rule:evenodd;fill-opacity:1;stroke:#FFDEDE;stroke-width:2.0px;stroke-linecap:butt;stroke-linejoin:miter;stroke-miterlimit:10;stroke-opacity:1;"/>
<path class="bond-5 atom-5 atom-6" d="M 233.7,65.7 L 232.7,36.1 L 241.0,35.8 L 242.0,65.4 Z" style="fill:#FFDEDE;fill-rule:evenodd;fill-opacity:1;stroke:#FFDEDE;stroke-width:2.0px;stroke-linecap:butt;stroke-linejoin:miter;stroke-miterlimit:10;stroke-opacity:1;"/>
<path class="bond-6 atom-6 atom-7" d="M 234.6,32.5 L 259.7,16.8 L 264.1,23.9 L 239.0,39.5 Z" style="fill:#FFDEDE;fill-rule:evenodd;fill-opacity:1;stroke:#FFDEDE;stroke-width:2.0px;stroke-linecap:butt;stroke-linejoin:miter;stroke-miterlimit:10;stroke-opacity:1;"/>
<path class="bond-7 atom-7 atom-8" d="M 263.9,16.7 L 290.0,30.6 L 286.1,37.9 L 260.0,24.0 Z" style="fill:#FFDEDE;fill-rule:evenodd;fill-opacity:1;stroke:#FFDEDE;stroke-width:2.0px;stroke-linecap:butt;stroke-linejoin:miter;stroke-miterlimit:10;stroke-opacity:1;"/>
<path class="bond-8 atom-8 atom-9" d="M 285.8,30.7 L 310.9,15.1 L 315.3,22.1 L 290.2,37.8 Z" style="fill:#FFDEDE;fill-rule:evenodd;fill-opacity:1;stroke:#FFDEDE;stroke-width:2.0px;stroke-linecap:butt;stroke-linejoin:miter;stroke-miterlimit:10;stroke-opacity:1;"/>
<path class="bond-9 atom-9 atom-10" d="M 315.1,15.0 L 341.2,28.9 L 337.3,36.2 L 311.2,22.3 Z" style="fill:#FFDEDE;fill-rule:evenodd;fill-opacity:1;stroke:#FFDEDE;stroke-width:2.0px;stroke-linecap:butt;stroke-linejoin:miter;stroke-miterlimit:10;stroke-opacity:1;"/>
<path class="bond-10 atom-10 atom-11" d="M 343.4,32.4 L 344.4,61.9 L 336.1,62.2 L 335.1,32.7 Z" style="fill:#FFDEDE;fill-rule:evenodd;fill-opacity:1;stroke:#FFDEDE;stroke-width:2.0px;stroke-linecap:butt;stroke-linejoin:miter;stroke-miterlimit:10;stroke-opacity:1;"/>
<path class="bond-11 atom-11 atom-12" d="M 342.4,65.6 L 317.3,81.2 L 312.9,74.2 L 338.0,58.6 Z" style="fill:#FFDEDE;fill-rule:evenodd;fill-opacity:1;stroke:#FFDEDE;stroke-width:2.0px;stroke-linecap:butt;stroke-linejoin:miter;stroke-miterlimit:10;stroke-opacity:1;"/>
<path class="bond-12 atom-12 atom-13" d="M 313.2,81.4 L 287.1,67.5 L 291.0,60.2 L 317.1,74.1 Z" style="fill:#FFDEDE;fill-rule:evenodd;fill-opacity:1;stroke:#FFDEDE;stroke-width:2.0px;stroke-linecap:butt;stroke-linejoin:miter;stroke-miterlimit:10;stroke-opacity:1;"/>
<path class="bond-13 atom-3 atom-14" d="M 267.5,112.3 L 244.1,130.5 L 239.1,123.9 L 262.4,105.7 Z" style="fill:#7474FF;fill-rule:evenodd;fill-opacity:1;stroke:#7474FF;stroke-width:2.0px;stroke-linecap:butt;stroke-linejoin:miter;stroke-miterlimit:10;stroke-opacity:1;"/>
<path class="bond-14 atom-14 atom-15" d="M 240.5,131.2 L 212.0,123.0 L 214.3,115.0 L 242.7,123.2 Z" style="fill:#7474FF;fill-rule:evenodd;fill-opacity:1;stroke:#7474FF;stroke-width:2.0px;stroke-linecap:butt;stroke-linejoin:miter;stroke-miterlimit:10;stroke-opacity:1;"/>
<path class="bond-15 atom-14 atom-16" d="M 245.5,125.8 L 255.6,153.6 L 247.8,156.4 L 237.7,128.6 Z" style="fill:#7474FF;fill-rule:evenodd;fill-opacity:1;stroke:#7474FF;stroke-width:2.0px;stroke-linecap:butt;stroke-linejoin:miter;stroke-miterlimit:10;stroke-opacity:1;"/>
<path class="bond-16 atom-16 atom-17" d="M 251.4,159.1 L 221.9,157.0 L 222.5,148.8 L 252.0,150.9 Z" style="fill:#7474FF;fill-rule:evenodd;fill-opacity:1;stroke:#7474FF;stroke-width:2.0px;stroke-linecap:butt;stroke-linejoin:miter;stroke-miterlimit:10;stroke-opacity:1;"/>
<path class="bond-17 atom-17 atom-18" d="M 225.6,155.2 L 209.0,179.7 L 202.2,175.1 L 218.8,150.6 Z" style="fill:#7474FF;fill-rule:evenodd;fill-opacity:1;stroke:#7474FF;stroke-width:2.0px;stroke-linecap:butt;stroke-linejoin:miter;stroke-miterlimit:10;stroke-opacity:1;"/>
<path class="bond-19 atom-19 atom-20" d="M 172.4,177.1 L 159.5,150.5 L 166.9,146.9 L 179.8,173.5 Z" style="fill:#FFFAFA;fill-rule:evenodd;fill-opacity:1;stroke:#FFFAFA;stroke-width:2.0px;stroke-linecap:butt;stroke-linejoin:miter;stroke-miterlimit:10;stroke-opacity:1;"/>
<path class="bond-20 atom-20 atom-21" d="M 159.8,146.4 L 176.3,121.9 L 183.2,126.5 L 166.6,151.0 Z" style="fill:#FFFAFA;fill-rule:evenodd;fill-opacity:1;stroke:#FFFAFA;stroke-width:2.0px;stroke-linecap:butt;stroke-linejoin:miter;stroke-miterlimit:10;stroke-opacity:1;"/>
<path class="bond-24 atom-24 atom-25" d="M 94.4,120.6 L 75.4,143.2 L 69.0,137.9 L 88.1,115.2 Z" style="fill:#FFEEEE;fill-rule:evenodd;fill-opacity:1;stroke:#FFEEEE;stroke-width:2.0px;stroke-linecap:butt;stroke-linejoin:miter;stroke-miterlimit:10;stroke-opacity:1;"/>
<path class="bond-25 atom-25 atom-26" d="M 70.7,144.4 L 43.3,133.3 L 46.4,125.6 L 73.8,136.7 Z" style="fill:#FFEEEE;fill-rule:evenodd;fill-opacity:1;stroke:#FFEEEE;stroke-width:2.0px;stroke-linecap:butt;stroke-linejoin:miter;stroke-miterlimit:10;stroke-opacity:1;"/>
<path class="bond-26 atom-26 atom-27" d="M 40.7,129.1 L 42.8,99.6 L 51.0,100.2 L 48.9,129.7 Z" style="fill:#FFEEEE;fill-rule:evenodd;fill-opacity:1;stroke:#FFEEEE;stroke-width:2.0px;stroke-linecap:butt;stroke-linejoin:miter;stroke-miterlimit:10;stroke-opacity:1;"/>
<path class="bond-27 atom-27 atom-28" d="M 44.2,103.1 L 21.6,84.1 L 26.9,77.7 L 49.6,96.8 Z" style="fill:#FFEEEE;fill-rule:evenodd;fill-opacity:1;stroke:#FFEEEE;stroke-width:2.0px;stroke-linecap:butt;stroke-linejoin:miter;stroke-miterlimit:10;stroke-opacity:1;"/>
<path class="bond-28 atom-27 atom-29" d="M 45.9,95.9 L 74.6,88.8 L 76.6,96.8 L 47.9,103.9 Z" style="fill:#FFEEEE;fill-rule:evenodd;fill-opacity:1;stroke:#FFEEEE;stroke-width:2.0px;stroke-linecap:butt;stroke-linejoin:miter;stroke-miterlimit:10;stroke-opacity:1;"/>
<path class="bond-29 atom-18 atom-30" d="M 209.3,175.6 L 222.3,202.2 L 214.8,205.8 L 201.9,179.2 Z" style="fill:#7474FF;fill-rule:evenodd;fill-opacity:1;stroke:#7474FF;stroke-width:2.0px;stroke-linecap:butt;stroke-linejoin:miter;stroke-miterlimit:10;stroke-opacity:1;"/>
<path class="bond-30 atom-30 atom-31" d="M 222.0,206.3 L 205.4,230.8 L 198.6,226.2 L 215.1,201.7 Z" style="fill:#7474FF;fill-rule:evenodd;fill-opacity:1;stroke:#7474FF;stroke-width:2.0px;stroke-linecap:butt;stroke-linejoin:miter;stroke-miterlimit:10;stroke-opacity:1;"/>
<path class="bond-31 atom-30 atom-32" d="M 218.8,199.9 L 248.3,202.0 L 247.8,210.2 L 218.3,208.1 Z" style="fill:#7474FF;fill-rule:evenodd;fill-opacity:1;stroke:#7474FF;stroke-width:2.0px;stroke-linecap:butt;stroke-linejoin:miter;stroke-miterlimit:10;stroke-opacity:1;"/>
<path class="bond-32 atom-32 atom-33" d="M 251.8,204.3 L 264.7,230.9 L 257.3,234.5 L 244.3,207.9 Z" style="fill:#7474FF;fill-rule:evenodd;fill-opacity:1;stroke:#7474FF;stroke-width:2.0px;stroke-linecap:butt;stroke-linejoin:miter;stroke-miterlimit:10;stroke-opacity:1;"/>
<path class="bond-33 atom-33 atom-34" d="M 261.3,228.6 L 290.8,230.7 L 290.2,238.9 L 260.7,236.8 Z" style="fill:#7474FF;fill-rule:evenodd;fill-opacity:1;stroke:#7474FF;stroke-width:2.0px;stroke-linecap:butt;stroke-linejoin:miter;stroke-miterlimit:10;stroke-opacity:1;"/>
<path class="bond-34 atom-34 atom-35" d="M 287.1,232.5 L 303.6,208.0 L 310.5,212.6 L 293.9,237.1 Z" style="fill:#7474FF;fill-rule:evenodd;fill-opacity:1;stroke:#7474FF;stroke-width:2.0px;stroke-linecap:butt;stroke-linejoin:miter;stroke-miterlimit:10;stroke-opacity:1;"/>
<path class="bond-35 atom-35 atom-36" d="M 307.3,206.2 L 336.8,208.3 L 336.3,216.5 L 306.8,214.4 Z" style="fill:#7474FF;fill-rule:evenodd;fill-opacity:1;stroke:#7474FF;stroke-width:2.0px;stroke-linecap:butt;stroke-linejoin:miter;stroke-miterlimit:10;stroke-opacity:1;"/>
<path class="bond-36 atom-35 atom-37" d="M 303.3,212.1 L 290.4,185.5 L 297.8,181.9 L 310.8,208.5 Z" style="fill:#7474FF;fill-rule:evenodd;fill-opacity:1;stroke:#7474FF;stroke-width:2.0px;stroke-linecap:butt;stroke-linejoin:miter;stroke-miterlimit:10;stroke-opacity:1;"/>
<path class="bond-37 atom-37 atom-38" d="M 293.8,187.8 L 264.3,185.7 L 264.9,177.5 L 294.4,179.6 Z" style="fill:#7474FF;fill-rule:evenodd;fill-opacity:1;stroke:#7474FF;stroke-width:2.0px;stroke-linecap:butt;stroke-linejoin:miter;stroke-miterlimit:10;stroke-opacity:1;"/>
<path class="bond-38 atom-16 atom-1" d="M 251.5,150.9 L 281.1,149.9 L 281.4,158.1 L 251.8,159.1 Z" style="fill:#7474FF;fill-rule:evenodd;fill-opacity:1;stroke:#7474FF;stroke-width:2.0px;stroke-linecap:butt;stroke-linejoin:miter;stroke-miterlimit:10;stroke-opacity:1;"/>
<path class="bond-39 atom-29 atom-24" d="M 79.1,90.6 L 94.8,115.7 L 87.7,120.1 L 72.1,95.0 Z" style="fill:#FFEEEE;fill-rule:evenodd;fill-opacity:1;stroke:#FFEEEE;stroke-width:2.0px;stroke-linecap:butt;stroke-linejoin:miter;stroke-miterlimit:10;stroke-opacity:1;"/>
<path class="bond-40 atom-38 atom-32" d="M 268.0,183.9 L 251.5,208.4 L 244.6,203.8 L 261.2,179.3 Z" style="fill:#7474FF;fill-rule:evenodd;fill-opacity:1;stroke:#7474FF;stroke-width:2.0px;stroke-linecap:butt;stroke-linejoin:miter;stroke-miterlimit:10;stroke-opacity:1;"/>
<path class="bond-41 atom-13 atom-4" d="M 291.2,67.3 L 266.1,83.0 L 261.7,75.9 L 286.8,60.3 Z" style="fill:#FFDEDE;fill-rule:evenodd;fill-opacity:1;stroke:#FFDEDE;stroke-width:2.0px;stroke-linecap:butt;stroke-linejoin:miter;stroke-miterlimit:10;stroke-opacity:1;"/>
<path class="bond-42 atom-38 atom-16" d="M 260.9,183.4 L 248.0,156.8 L 255.4,153.2 L 268.3,179.8 Z" style="fill:#7474FF;fill-rule:evenodd;fill-opacity:1;stroke:#7474FF;stroke-width:2.0px;stroke-linecap:butt;stroke-linejoin:miter;stroke-miterlimit:10;stroke-opacity:1;"/>
<path class="bond-43 atom-13 atom-8" d="M 284.9,64.0 L 283.9,34.4 L 292.2,34.1 L 293.2,63.7 Z" style="fill:#FFDEDE;fill-rule:evenodd;fill-opacity:1;stroke:#FFDEDE;stroke-width:2.0px;stroke-linecap:butt;stroke-linejoin:miter;stroke-miterlimit:10;stroke-opacity:1;"/>
<ellipse cx="304.5" cy="172.2" rx="5.9" ry="5.9" class="atom-0" style="fill:#7474FF;fill-rule:evenodd;stroke:#7474FF;stroke-width:1.0px;stroke-linecap:butt;stroke-linejoin:miter;stroke-opacity:1"/>
<ellipse cx="281.2" cy="154.0" rx="5.9" ry="5.9" class="atom-1" style="fill:#7474FF;fill-rule:evenodd;stroke:#7474FF;stroke-width:1.0px;stroke-linecap:butt;stroke-linejoin:miter;stroke-opacity:1"/>
<ellipse cx="289.4" cy="125.6" rx="5.9" ry="5.9" class="atom-2" style="fill:#7474FF;fill-rule:evenodd;stroke:#7474FF;stroke-width:1.0px;stroke-linecap:butt;stroke-linejoin:miter;stroke-opacity:1"/>
<ellipse cx="264.9" cy="109.0" rx="5.9" ry="5.9" class="atom-3" style="fill:#7474FF;fill-rule:evenodd;stroke:#7474FF;stroke-width:1.0px;stroke-linecap:butt;stroke-linejoin:miter;stroke-opacity:1"/>
<ellipse cx="263.9" cy="79.5" rx="5.9" ry="5.9" class="atom-4" style="fill:#FFDEDE;fill-rule:evenodd;stroke:#FFDEDE;stroke-width:1.0px;stroke-linecap:butt;stroke-linejoin:miter;stroke-opacity:1"/>
<ellipse cx="237.8" cy="65.5" rx="5.9" ry="5.9" class="atom-5" style="fill:#FFDEDE;fill-rule:evenodd;stroke:#FFDEDE;stroke-width:1.0px;stroke-linecap:butt;stroke-linejoin:miter;stroke-opacity:1"/>
<ellipse cx="236.8" cy="36.0" rx="5.9" ry="5.9" class="atom-6" style="fill:#FFDEDE;fill-rule:evenodd;stroke:#FFDEDE;stroke-width:1.0px;stroke-linecap:butt;stroke-linejoin:miter;stroke-opacity:1"/>
<ellipse cx="261.9" cy="20.3" rx="5.9" ry="5.9" class="atom-7" style="fill:#FFDEDE;fill-rule:evenodd;stroke:#FFDEDE;stroke-width:1.0px;stroke-linecap:butt;stroke-linejoin:miter;stroke-opacity:1"/>
<ellipse cx="288.0" cy="34.3" rx="5.9" ry="5.9" class="atom-8" style="fill:#FFDEDE;fill-rule:evenodd;stroke:#FFDEDE;stroke-width:1.0px;stroke-linecap:butt;stroke-linejoin:miter;stroke-opacity:1"/>
<ellipse cx="313.1" cy="18.6" rx="5.9" ry="5.9" class="atom-9" style="fill:#FFDEDE;fill-rule:evenodd;stroke:#FFDEDE;stroke-width:1.0px;stroke-linecap:butt;stroke-linejoin:miter;stroke-opacity:1"/>
<ellipse cx="339.2" cy="32.5" rx="5.9" ry="5.9" class="atom-10" style="fill:#FFDEDE;fill-rule:evenodd;stroke:#FFDEDE;stroke-width:1.0px;stroke-linecap:butt;stroke-linejoin:miter;stroke-opacity:1"/>
<ellipse cx="340.2" cy="62.1" rx="5.9" ry="5.9" class="atom-11" style="fill:#FFDEDE;fill-rule:evenodd;stroke:#FFDEDE;stroke-width:1.0px;stroke-linecap:butt;stroke-linejoin:miter;stroke-opacity:1"/>
<ellipse cx="315.1" cy="77.7" rx="5.9" ry="5.9" class="atom-12" style="fill:#FFDEDE;fill-rule:evenodd;stroke:#FFDEDE;stroke-width:1.0px;stroke-linecap:butt;stroke-linejoin:miter;stroke-opacity:1"/>
<ellipse cx="289.0" cy="63.8" rx="5.9" ry="5.9" class="atom-13" style="fill:#FFDEDE;fill-rule:evenodd;stroke:#FFDEDE;stroke-width:1.0px;stroke-linecap:butt;stroke-linejoin:miter;stroke-opacity:1"/>
<ellipse cx="241.6" cy="127.2" rx="5.9" ry="5.9" class="atom-14" style="fill:#7474FF;fill-rule:evenodd;stroke:#7474FF;stroke-width:1.0px;stroke-linecap:butt;stroke-linejoin:miter;stroke-opacity:1"/>
<ellipse cx="213.2" cy="119.0" rx="5.9" ry="5.9" class="atom-15" style="fill:#7474FF;fill-rule:evenodd;stroke:#7474FF;stroke-width:1.0px;stroke-linecap:butt;stroke-linejoin:miter;stroke-opacity:1"/>
<ellipse cx="251.7" cy="155.0" rx="5.9" ry="5.9" class="atom-16" style="fill:#7474FF;fill-rule:evenodd;stroke:#7474FF;stroke-width:1.0px;stroke-linecap:butt;stroke-linejoin:miter;stroke-opacity:1"/>
<ellipse cx="222.2" cy="152.9" rx="5.9" ry="5.9" class="atom-17" style="fill:#7474FF;fill-rule:evenodd;stroke:#7474FF;stroke-width:1.0px;stroke-linecap:butt;stroke-linejoin:miter;stroke-opacity:1"/>
<ellipse cx="205.6" cy="177.4" rx="5.9" ry="5.9" class="atom-18" style="fill:#7474FF;fill-rule:evenodd;stroke:#7474FF;stroke-width:1.0px;stroke-linecap:butt;stroke-linejoin:miter;stroke-opacity:1"/>
<ellipse cx="176.1" cy="175.3" rx="5.9" ry="5.9" class="atom-19" style="fill:#FFFAFA;fill-rule:evenodd;stroke:#FFFAFA;stroke-width:1.0px;stroke-linecap:butt;stroke-linejoin:miter;stroke-opacity:1"/>
<ellipse cx="163.2" cy="148.7" rx="5.9" ry="5.9" class="atom-20" style="fill:#FFFAFA;fill-rule:evenodd;stroke:#FFFAFA;stroke-width:1.0px;stroke-linecap:butt;stroke-linejoin:miter;stroke-opacity:1"/>
<ellipse cx="179.8" cy="124.2" rx="5.9" ry="5.9" class="atom-21" style="fill:#FFFAFA;fill-rule:evenodd;stroke:#FFFAFA;stroke-width:1.0px;stroke-linecap:butt;stroke-linejoin:miter;stroke-opacity:1"/>
<ellipse cx="133.7" cy="146.6" rx="5.9" ry="5.9" class="atom-22" style="fill:#F2F2FF;fill-rule:evenodd;stroke:#F2F2FF;stroke-width:1.0px;stroke-linecap:butt;stroke-linejoin:miter;stroke-opacity:1"/>
<ellipse cx="120.8" cy="120.0" rx="5.9" ry="5.9" class="atom-23" style="fill:#FEFEFF;fill-rule:evenodd;stroke:#FEFEFF;stroke-width:1.0px;stroke-linecap:butt;stroke-linejoin:miter;stroke-opacity:1"/>
<ellipse cx="91.3" cy="117.9" rx="5.9" ry="5.9" class="atom-24" style="fill:#FFEEEE;fill-rule:evenodd;stroke:#FFEEEE;stroke-width:1.0px;stroke-linecap:butt;stroke-linejoin:miter;stroke-opacity:1"/>
<ellipse cx="72.2" cy="140.5" rx="5.9" ry="5.9" class="atom-25" style="fill:#FFEEEE;fill-rule:evenodd;stroke:#FFEEEE;stroke-width:1.0px;stroke-linecap:butt;stroke-linejoin:miter;stroke-opacity:1"/>
<ellipse cx="44.8" cy="129.4" rx="5.9" ry="5.9" class="atom-26" style="fill:#FFEEEE;fill-rule:evenodd;stroke:#FFEEEE;stroke-width:1.0px;stroke-linecap:butt;stroke-linejoin:miter;stroke-opacity:1"/>
<ellipse cx="46.9" cy="99.9" rx="5.9" ry="5.9" class="atom-27" style="fill:#FFEEEE;fill-rule:evenodd;stroke:#FFEEEE;stroke-width:1.0px;stroke-linecap:butt;stroke-linejoin:miter;stroke-opacity:1"/>
<ellipse cx="24.3" cy="80.9" rx="5.9" ry="5.9" class="atom-28" style="fill:#FFEEEE;fill-rule:evenodd;stroke:#FFEEEE;stroke-width:1.0px;stroke-linecap:butt;stroke-linejoin:miter;stroke-opacity:1"/>
<ellipse cx="75.6" cy="92.8" rx="5.9" ry="5.9" class="atom-29" style="fill:#FFEEEE;fill-rule:evenodd;stroke:#FFEEEE;stroke-width:1.0px;stroke-linecap:butt;stroke-linejoin:miter;stroke-opacity:1"/>
<ellipse cx="218.6" cy="204.0" rx="5.9" ry="5.9" class="atom-30" style="fill:#7474FF;fill-rule:evenodd;stroke:#7474FF;stroke-width:1.0px;stroke-linecap:butt;stroke-linejoin:miter;stroke-opacity:1"/>
<ellipse cx="202.0" cy="228.5" rx="5.9" ry="5.9" class="atom-31" style="fill:#7474FF;fill-rule:evenodd;stroke:#7474FF;stroke-width:1.0px;stroke-linecap:butt;stroke-linejoin:miter;stroke-opacity:1"/>
<ellipse cx="248.0" cy="206.1" rx="5.9" ry="5.9" class="atom-32" style="fill:#7474FF;fill-rule:evenodd;stroke:#7474FF;stroke-width:1.0px;stroke-linecap:butt;stroke-linejoin:miter;stroke-opacity:1"/>
<ellipse cx="261.0" cy="232.7" rx="5.9" ry="5.9" class="atom-33" style="fill:#7474FF;fill-rule:evenodd;stroke:#7474FF;stroke-width:1.0px;stroke-linecap:butt;stroke-linejoin:miter;stroke-opacity:1"/>
<ellipse cx="290.5" cy="234.8" rx="5.9" ry="5.9" class="atom-34" style="fill:#7474FF;fill-rule:evenodd;stroke:#7474FF;stroke-width:1.0px;stroke-linecap:butt;stroke-linejoin:miter;stroke-opacity:1"/>
<ellipse cx="307.0" cy="210.3" rx="5.9" ry="5.9" class="atom-35" style="fill:#7474FF;fill-rule:evenodd;stroke:#7474FF;stroke-width:1.0px;stroke-linecap:butt;stroke-linejoin:miter;stroke-opacity:1"/>
<ellipse cx="336.5" cy="212.4" rx="5.9" ry="5.9" class="atom-36" style="fill:#7474FF;fill-rule:evenodd;stroke:#7474FF;stroke-width:1.0px;stroke-linecap:butt;stroke-linejoin:miter;stroke-opacity:1"/>
<ellipse cx="294.1" cy="183.7" rx="5.9" ry="5.9" class="atom-37" style="fill:#7474FF;fill-rule:evenodd;stroke:#7474FF;stroke-width:1.0px;stroke-linecap:butt;stroke-linejoin:miter;stroke-opacity:1"/>
<ellipse cx="264.6" cy="181.6" rx="5.9" ry="5.9" class="atom-38" style="fill:#7474FF;fill-rule:evenodd;stroke:#7474FF;stroke-width:1.0px;stroke-linecap:butt;stroke-linejoin:miter;stroke-opacity:1"/>
<path class="bond-0 atom-1 atom-0" d="M 284.3,156.1 L 284.0,156.5" style="fill:none;fill-rule:evenodd;stroke:#000000;stroke-width:1.0px;stroke-linecap:butt;stroke-linejoin:miter;stroke-opacity:1"/>
<path class="bond-0 atom-1 atom-0" d="M 287.4,158.1 L 286.7,159.0" style="fill:none;fill-rule:evenodd;stroke:#000000;stroke-width:1.0px;stroke-linecap:butt;stroke-linejoin:miter;stroke-opacity:1"/>
<path class="bond-0 atom-1 atom-0" d="M 290.5,160.2 L 289.5,161.5" style="fill:none;fill-rule:evenodd;stroke:#000000;stroke-width:1.0px;stroke-linecap:butt;stroke-linejoin:miter;stroke-opacity:1"/>
<path class="bond-0 atom-1 atom-0" d="M 293.6,162.2 L 292.2,164.0" style="fill:none;fill-rule:evenodd;stroke:#000000;stroke-width:1.0px;stroke-linecap:butt;stroke-linejoin:miter;stroke-opacity:1"/>
<path class="bond-0 atom-1 atom-0" d="M 296.6,164.3 L 294.9,166.5" style="fill:none;fill-rule:evenodd;stroke:#000000;stroke-width:1.0px;stroke-linecap:butt;stroke-linejoin:miter;stroke-opacity:1"/>
<path class="bond-0 atom-1 atom-0" d="M 299.7,166.4 L 297.7,169.0" style="fill:none;fill-rule:evenodd;stroke:#000000;stroke-width:1.0px;stroke-linecap:butt;stroke-linejoin:miter;stroke-opacity:1"/>
<path class="bond-0 atom-1 atom-0" d="M 302.8,168.4 L 300.4,171.5" style="fill:none;fill-rule:evenodd;stroke:#000000;stroke-width:1.0px;stroke-linecap:butt;stroke-linejoin:miter;stroke-opacity:1"/>
<path class="bond-0 atom-1 atom-0" d="M 305.9,170.5 L 303.2,174.0" style="fill:none;fill-rule:evenodd;stroke:#000000;stroke-width:1.0px;stroke-linecap:butt;stroke-linejoin:miter;stroke-opacity:1"/>
<path class="bond-1 atom-1 atom-2" d="M 281.2,154.0 L 289.4,125.6" style="fill:none;fill-rule:evenodd;stroke:#000000;stroke-width:2.0px;stroke-linecap:butt;stroke-linejoin:miter;stroke-opacity:1"/>
<path class="bond-2 atom-2 atom-3" d="M 289.4,125.6 L 269.1,111.8" style="fill:none;fill-rule:evenodd;stroke:#000000;stroke-width:2.0px;stroke-linecap:butt;stroke-linejoin:miter;stroke-opacity:1"/>
<path class="bond-3 atom-3 atom-4" d="M 264.8,103.8 L 263.9,79.5" style="fill:none;fill-rule:evenodd;stroke:#000000;stroke-width:2.0px;stroke-linecap:butt;stroke-linejoin:miter;stroke-opacity:1"/>
<path class="bond-4 atom-4 atom-5" d="M 263.9,79.5 L 237.8,65.5" style="fill:none;fill-rule:evenodd;stroke:#000000;stroke-width:2.0px;stroke-linecap:butt;stroke-linejoin:miter;stroke-opacity:1"/>
<path class="bond-4 atom-4 atom-5" d="M 263.8,74.3 L 242.2,62.8" style="fill:none;fill-rule:evenodd;stroke:#000000;stroke-width:2.0px;stroke-linecap:butt;stroke-linejoin:miter;stroke-opacity:1"/>
<path class="bond-5 atom-5 atom-6" d="M 237.8,65.5 L 237.0,41.1" style="fill:none;fill-rule:evenodd;stroke:#000000;stroke-width:2.0px;stroke-linecap:butt;stroke-linejoin:miter;stroke-opacity:1"/>
<path class="bond-6 atom-6 atom-7" d="M 241.0,33.4 L 261.9,20.3" style="fill:none;fill-rule:evenodd;stroke:#000000;stroke-width:2.0px;stroke-linecap:butt;stroke-linejoin:miter;stroke-opacity:1"/>
<path class="bond-6 atom-6 atom-7" d="M 243.3,37.2 L 262.1,25.5" style="fill:none;fill-rule:evenodd;stroke:#000000;stroke-width:2.0px;stroke-linecap:butt;stroke-linejoin:miter;stroke-opacity:1"/>
<path class="bond-7 atom-7 atom-8" d="M 261.9,20.3 L 288.0,34.3" style="fill:none;fill-rule:evenodd;stroke:#000000;stroke-width:2.0px;stroke-linecap:butt;stroke-linejoin:miter;stroke-opacity:1"/>
<path class="bond-8 atom-8 atom-9" d="M 288.0,34.3 L 313.1,18.6" style="fill:none;fill-rule:evenodd;stroke:#000000;stroke-width:2.0px;stroke-linecap:butt;stroke-linejoin:miter;stroke-opacity:1"/>
<path class="bond-8 atom-8 atom-9" d="M 292.6,36.7 L 313.3,23.7" style="fill:none;fill-rule:evenodd;stroke:#000000;stroke-width:2.0px;stroke-linecap:butt;stroke-linejoin:miter;stroke-opacity:1"/>
<path class="bond-9 atom-9 atom-10" d="M 313.1,18.6 L 339.2,32.5" style="fill:none;fill-rule:evenodd;stroke:#000000;stroke-width:2.0px;stroke-linecap:butt;stroke-linejoin:miter;stroke-opacity:1"/>
<path class="bond-10 atom-10 atom-11" d="M 339.2,32.5 L 340.2,62.1" style="fill:none;fill-rule:evenodd;stroke:#000000;stroke-width:2.0px;stroke-linecap:butt;stroke-linejoin:miter;stroke-opacity:1"/>
<path class="bond-10 atom-10 atom-11" d="M 334.9,35.2 L 335.7,59.7" style="fill:none;fill-rule:evenodd;stroke:#000000;stroke-width:2.0px;stroke-linecap:butt;stroke-linejoin:miter;stroke-opacity:1"/>
<path class="bond-11 atom-11 atom-12" d="M 340.2,62.1 L 315.1,77.7" style="fill:none;fill-rule:evenodd;stroke:#000000;stroke-width:2.0px;stroke-linecap:butt;stroke-linejoin:miter;stroke-opacity:1"/>
<path class="bond-12 atom-12 atom-13" d="M 315.1,77.7 L 289.0,63.8" style="fill:none;fill-rule:evenodd;stroke:#000000;stroke-width:2.0px;stroke-linecap:butt;stroke-linejoin:miter;stroke-opacity:1"/>
<path class="bond-12 atom-12 atom-13" d="M 315.0,72.6 L 293.4,61.1" style="fill:none;fill-rule:evenodd;stroke:#000000;stroke-width:2.0px;stroke-linecap:butt;stroke-linejoin:miter;stroke-opacity:1"/>
<path class="bond-13 atom-3 atom-14" d="M 260.8,112.2 L 241.6,127.2" style="fill:none;fill-rule:evenodd;stroke:#000000;stroke-width:2.0px;stroke-linecap:butt;stroke-linejoin:miter;stroke-opacity:1"/>
<path class="bond-14 atom-14 atom-15" d="M 243.8,125.5 L 218.6,118.3" style="fill:none;fill-rule:evenodd;stroke:#000000;stroke-width:2.0px;stroke-linecap:butt;stroke-linejoin:miter;stroke-opacity:1"/>
<path class="bond-14 atom-14 atom-15" d="M 242.5,129.8 L 217.4,122.5" style="fill:none;fill-rule:evenodd;stroke:#000000;stroke-width:2.0px;stroke-linecap:butt;stroke-linejoin:miter;stroke-opacity:1"/>
<path class="bond-15 atom-14 atom-16" d="M 241.6,127.2 L 251.7,155.0" style="fill:none;fill-rule:evenodd;stroke:#000000;stroke-width:2.0px;stroke-linecap:butt;stroke-linejoin:miter;stroke-opacity:1"/>
<path class="bond-16 atom-16 atom-17" d="M 248.0,154.4 L 248.0,155.0" style="fill:none;fill-rule:evenodd;stroke:#000000;stroke-width:1.0px;stroke-linecap:butt;stroke-linejoin:miter;stroke-opacity:1"/>
<path class="bond-16 atom-16 atom-17" d="M 244.4,153.8 L 244.3,155.1" style="fill:none;fill-rule:evenodd;stroke:#000000;stroke-width:1.0px;stroke-linecap:butt;stroke-linejoin:miter;stroke-opacity:1"/>
<path class="bond-16 atom-16 atom-17" d="M 240.7,153.3 L 240.6,155.2" style="fill:none;fill-rule:evenodd;stroke:#000000;stroke-width:1.0px;stroke-linecap:butt;stroke-linejoin:miter;stroke-opacity:1"/>
<path class="bond-16 atom-16 atom-17" d="M 237.0,152.7 L 236.9,155.2" style="fill:none;fill-rule:evenodd;stroke:#000000;stroke-width:1.0px;stroke-linecap:butt;stroke-linejoin:miter;stroke-opacity:1"/>
<path class="bond-16 atom-16 atom-17" d="M 233.4,152.1 L 233.2,155.3" style="fill:none;fill-rule:evenodd;stroke:#000000;stroke-width:1.0px;stroke-linecap:butt;stroke-linejoin:miter;stroke-opacity:1"/>
<path class="bond-16 atom-16 atom-17" d="M 229.7,151.5 L 229.4,155.3" style="fill:none;fill-rule:evenodd;stroke:#000000;stroke-width:1.0px;stroke-linecap:butt;stroke-linejoin:miter;stroke-opacity:1"/>
<path class="bond-16 atom-16 atom-17" d="M 226.1,151.0 L 225.7,155.4" style="fill:none;fill-rule:evenodd;stroke:#000000;stroke-width:1.0px;stroke-linecap:butt;stroke-linejoin:miter;stroke-opacity:1"/>
<path class="bond-17 atom-17 atom-18" d="M 222.2,152.9 L 209.1,172.2" style="fill:none;fill-rule:evenodd;stroke:#000000;stroke-width:2.0px;stroke-linecap:butt;stroke-linejoin:miter;stroke-opacity:1"/>
<path class="bond-18 atom-18 atom-19" d="M 201.5,177.1 L 176.1,175.3" style="fill:none;fill-rule:evenodd;stroke:#000000;stroke-width:2.0px;stroke-linecap:butt;stroke-linejoin:miter;stroke-opacity:1"/>
<path class="bond-19 atom-19 atom-20" d="M 176.1,175.3 L 163.2,148.7" style="fill:none;fill-rule:evenodd;stroke:#000000;stroke-width:2.0px;stroke-linecap:butt;stroke-linejoin:miter;stroke-opacity:1"/>
<path class="bond-20 atom-20 atom-21" d="M 164.3,151.0 L 178.0,130.8" style="fill:none;fill-rule:evenodd;stroke:#000000;stroke-width:2.0px;stroke-linecap:butt;stroke-linejoin:miter;stroke-opacity:1"/>
<path class="bond-20 atom-20 atom-21" d="M 160.6,148.5 L 174.3,128.3" style="fill:none;fill-rule:evenodd;stroke:#000000;stroke-width:2.0px;stroke-linecap:butt;stroke-linejoin:miter;stroke-opacity:1"/>
<path class="bond-21 atom-20 atom-22" d="M 163.2,148.7 L 137.8,146.9" style="fill:none;fill-rule:evenodd;stroke:#000000;stroke-width:2.0px;stroke-linecap:butt;stroke-linejoin:miter;stroke-opacity:1"/>
<path class="bond-22 atom-22 atom-23" d="M 131.2,141.4 L 120.8,120.0" style="fill:none;fill-rule:evenodd;stroke:#000000;stroke-width:2.0px;stroke-linecap:butt;stroke-linejoin:miter;stroke-opacity:1"/>
<path class="bond-23 atom-23 atom-24" d="M 120.8,120.0 L 91.3,117.9" style="fill:none;fill-rule:evenodd;stroke:#000000;stroke-width:2.0px;stroke-linecap:butt;stroke-linejoin:miter;stroke-opacity:1"/>
<path class="bond-24 atom-24 atom-25" d="M 91.3,117.9 L 72.2,140.5" style="fill:none;fill-rule:evenodd;stroke:#000000;stroke-width:2.0px;stroke-linecap:butt;stroke-linejoin:miter;stroke-opacity:1"/>
<path class="bond-25 atom-25 atom-26" d="M 72.2,140.5 L 44.8,129.4" style="fill:none;fill-rule:evenodd;stroke:#000000;stroke-width:2.0px;stroke-linecap:butt;stroke-linejoin:miter;stroke-opacity:1"/>
<path class="bond-25 atom-25 atom-26" d="M 70.9,135.2 L 49.5,126.5" style="fill:none;fill-rule:evenodd;stroke:#000000;stroke-width:2.0px;stroke-linecap:butt;stroke-linejoin:miter;stroke-opacity:1"/>
<path class="bond-26 atom-26 atom-27" d="M 44.8,129.4 L 46.5,105.1" style="fill:none;fill-rule:evenodd;stroke:#000000;stroke-width:2.0px;stroke-linecap:butt;stroke-linejoin:miter;stroke-opacity:1"/>
<path class="bond-27 atom-27 atom-28" d="M 42.8,96.4 L 24.3,80.9" style="fill:none;fill-rule:evenodd;stroke:#000000;stroke-width:2.0px;stroke-linecap:butt;stroke-linejoin:miter;stroke-opacity:1"/>
<path class="bond-28 atom-27 atom-29" d="M 51.1,98.9 L 71.5,93.8" style="fill:none;fill-rule:evenodd;stroke:#000000;stroke-width:2.0px;stroke-linecap:butt;stroke-linejoin:miter;stroke-opacity:1"/>
<path class="bond-29 atom-18 atom-30" d="M 208.1,182.6 L 218.6,204.0" style="fill:none;fill-rule:evenodd;stroke:#000000;stroke-width:2.0px;stroke-linecap:butt;stroke-linejoin:miter;stroke-opacity:1"/>
<path class="bond-30 atom-30 atom-31" d="M 217.4,201.7 L 203.7,222.0" style="fill:none;fill-rule:evenodd;stroke:#000000;stroke-width:2.0px;stroke-linecap:butt;stroke-linejoin:miter;stroke-opacity:1"/>
<path class="bond-30 atom-30 atom-31" d="M 221.1,204.2 L 207.3,224.5" style="fill:none;fill-rule:evenodd;stroke:#000000;stroke-width:2.0px;stroke-linecap:butt;stroke-linejoin:miter;stroke-opacity:1"/>
<path class="bond-31 atom-30 atom-32" d="M 218.6,204.0 L 248.0,206.1" style="fill:none;fill-rule:evenodd;stroke:#000000;stroke-width:2.0px;stroke-linecap:butt;stroke-linejoin:miter;stroke-opacity:1"/>
<path class="bond-32 atom-32 atom-33" d="M 248.0,206.1 L 261.0,232.7" style="fill:none;fill-rule:evenodd;stroke:#000000;stroke-width:2.0px;stroke-linecap:butt;stroke-linejoin:miter;stroke-opacity:1"/>
<path class="bond-32 atom-32 atom-33" d="M 253.2,206.5 L 263.9,228.4" style="fill:none;fill-rule:evenodd;stroke:#000000;stroke-width:2.0px;stroke-linecap:butt;stroke-linejoin:miter;stroke-opacity:1"/>
<path class="bond-33 atom-33 atom-34" d="M 261.0,232.7 L 290.5,234.8" style="fill:none;fill-rule:evenodd;stroke:#000000;stroke-width:2.0px;stroke-linecap:butt;stroke-linejoin:miter;stroke-opacity:1"/>
<path class="bond-34 atom-34 atom-35" d="M 290.5,234.8 L 307.0,210.3" style="fill:none;fill-rule:evenodd;stroke:#000000;stroke-width:2.0px;stroke-linecap:butt;stroke-linejoin:miter;stroke-opacity:1"/>
<path class="bond-34 atom-34 atom-35" d="M 288.2,230.2 L 301.9,209.9" style="fill:none;fill-rule:evenodd;stroke:#000000;stroke-width:2.0px;stroke-linecap:butt;stroke-linejoin:miter;stroke-opacity:1"/>
<path class="bond-35 atom-35 atom-36" d="M 307.0,210.3 L 332.3,212.1" style="fill:none;fill-rule:evenodd;stroke:#000000;stroke-width:2.0px;stroke-linecap:butt;stroke-linejoin:miter;stroke-opacity:1"/>
<path class="bond-36 atom-35 atom-37" d="M 307.0,210.3 L 294.1,183.7" style="fill:none;fill-rule:evenodd;stroke:#000000;stroke-width:2.0px;stroke-linecap:butt;stroke-linejoin:miter;stroke-opacity:1"/>
<path class="bond-37 atom-37 atom-38" d="M 294.1,183.7 L 264.6,181.6" style="fill:none;fill-rule:evenodd;stroke:#000000;stroke-width:2.0px;stroke-linecap:butt;stroke-linejoin:miter;stroke-opacity:1"/>
<path class="bond-37 atom-37 atom-38" d="M 291.2,187.9 L 266.9,186.2" style="fill:none;fill-rule:evenodd;stroke:#000000;stroke-width:2.0px;stroke-linecap:butt;stroke-linejoin:miter;stroke-opacity:1"/>
<path class="bond-38 atom-16 atom-1" d="M 251.7,155.0 L 281.2,154.0" style="fill:none;fill-rule:evenodd;stroke:#000000;stroke-width:2.0px;stroke-linecap:butt;stroke-linejoin:miter;stroke-opacity:1"/>
<path class="bond-39 atom-29 atom-24" d="M 78.8,98.0 L 91.3,117.9" style="fill:none;fill-rule:evenodd;stroke:#000000;stroke-width:2.0px;stroke-linecap:butt;stroke-linejoin:miter;stroke-opacity:1"/>
<path class="bond-39 atom-29 atom-24" d="M 75.1,100.3 L 85.8,117.5" style="fill:none;fill-rule:evenodd;stroke:#000000;stroke-width:2.0px;stroke-linecap:butt;stroke-linejoin:miter;stroke-opacity:1"/>
<path class="bond-40 atom-38 atom-32" d="M 264.6,181.6 L 248.0,206.1" style="fill:none;fill-rule:evenodd;stroke:#000000;stroke-width:2.0px;stroke-linecap:butt;stroke-linejoin:miter;stroke-opacity:1"/>
<path class="bond-41 atom-13 atom-4" d="M 289.0,63.8 L 263.9,79.5" style="fill:none;fill-rule:evenodd;stroke:#000000;stroke-width:2.0px;stroke-linecap:butt;stroke-linejoin:miter;stroke-opacity:1"/>
<path class="bond-42 atom-38 atom-16" d="M 264.6,181.6 L 251.7,155.0" style="fill:none;fill-rule:evenodd;stroke:#000000;stroke-width:2.0px;stroke-linecap:butt;stroke-linejoin:miter;stroke-opacity:1"/>
<path class="bond-43 atom-13 atom-8" d="M 289.0,63.8 L 288.0,34.3" style="fill:none;fill-rule:evenodd;stroke:#000000;stroke-width:2.0px;stroke-linecap:butt;stroke-linejoin:miter;stroke-opacity:1"/>
<path d="M 281.7,152.6 L 281.2,154.0 L 279.8,154.0" style="fill:none;stroke:#000000;stroke-width:2.0px;stroke-linecap:butt;stroke-linejoin:miter;stroke-miterlimit:10;stroke-opacity:1;"/>
<path d="M 289.0,127.0 L 289.4,125.6 L 288.4,124.9" style="fill:none;stroke:#000000;stroke-width:2.0px;stroke-linecap:butt;stroke-linejoin:miter;stroke-miterlimit:10;stroke-opacity:1;"/>
<path d="M 239.1,66.2 L 237.8,65.5 L 237.8,64.3" style="fill:none;stroke:#000000;stroke-width:2.0px;stroke-linecap:butt;stroke-linejoin:miter;stroke-miterlimit:10;stroke-opacity:1;"/>
<path d="M 260.9,21.0 L 261.9,20.3 L 263.2,21.0" style="fill:none;stroke:#000000;stroke-width:2.0px;stroke-linecap:butt;stroke-linejoin:miter;stroke-miterlimit:10;stroke-opacity:1;"/>
<path d="M 311.9,19.4 L 313.1,18.6 L 314.4,19.3" style="fill:none;stroke:#000000;stroke-width:2.0px;stroke-linecap:butt;stroke-linejoin:miter;stroke-miterlimit:10;stroke-opacity:1;"/>
<path d="M 337.9,31.8 L 339.2,32.5 L 339.3,34.0" style="fill:none;stroke:#000000;stroke-width:2.0px;stroke-linecap:butt;stroke-linejoin:miter;stroke-miterlimit:10;stroke-opacity:1;"/>
<path d="M 340.2,60.6 L 340.2,62.1 L 339.0,62.9" style="fill:none;stroke:#000000;stroke-width:2.0px;stroke-linecap:butt;stroke-linejoin:miter;stroke-miterlimit:10;stroke-opacity:1;"/>
<path d="M 316.4,76.9 L 315.1,77.7 L 313.8,77.0" style="fill:none;stroke:#000000;stroke-width:2.0px;stroke-linecap:butt;stroke-linejoin:miter;stroke-miterlimit:10;stroke-opacity:1;"/>
<path d="M 242.6,126.4 L 241.6,127.2 L 242.1,128.6" style="fill:none;stroke:#000000;stroke-width:2.0px;stroke-linecap:butt;stroke-linejoin:miter;stroke-miterlimit:10;stroke-opacity:1;"/>
<path d="M 177.4,175.4 L 176.1,175.3 L 175.5,174.0" style="fill:none;stroke:#000000;stroke-width:2.0px;stroke-linecap:butt;stroke-linejoin:miter;stroke-miterlimit:10;stroke-opacity:1;"/>
<path d="M 163.8,150.0 L 163.2,148.7 L 161.9,148.6" style="fill:none;stroke:#000000;stroke-width:2.0px;stroke-linecap:butt;stroke-linejoin:miter;stroke-miterlimit:10;stroke-opacity:1;"/>
<path d="M 121.3,121.1 L 120.8,120.0 L 119.3,119.9" style="fill:none;stroke:#000000;stroke-width:2.0px;stroke-linecap:butt;stroke-linejoin:miter;stroke-miterlimit:10;stroke-opacity:1;"/>
<path d="M 73.2,139.4 L 72.2,140.5 L 70.8,140.0" style="fill:none;stroke:#000000;stroke-width:2.0px;stroke-linecap:butt;stroke-linejoin:miter;stroke-miterlimit:10;stroke-opacity:1;"/>
<path d="M 46.2,130.0 L 44.8,129.4 L 44.9,128.2" style="fill:none;stroke:#000000;stroke-width:2.0px;stroke-linecap:butt;stroke-linejoin:miter;stroke-miterlimit:10;stroke-opacity:1;"/>
<path d="M 218.0,202.9 L 218.6,204.0 L 220.0,204.1" style="fill:none;stroke:#000000;stroke-width:2.0px;stroke-linecap:butt;stroke-linejoin:miter;stroke-miterlimit:10;stroke-opacity:1;"/>
<path d="M 260.3,231.4 L 261.0,232.7 L 262.5,232.8" style="fill:none;stroke:#000000;stroke-width:2.0px;stroke-linecap:butt;stroke-linejoin:miter;stroke-miterlimit:10;stroke-opacity:1;"/>
<path d="M 289.0,234.7 L 290.5,234.8 L 291.3,233.6" style="fill:none;stroke:#000000;stroke-width:2.0px;stroke-linecap:butt;stroke-linejoin:miter;stroke-miterlimit:10;stroke-opacity:1;"/>
<path d="M 294.8,185.0 L 294.1,183.7 L 292.6,183.6" style="fill:none;stroke:#000000;stroke-width:2.0px;stroke-linecap:butt;stroke-linejoin:miter;stroke-miterlimit:10;stroke-opacity:1;"/>
<path class="atom-3" d="M 263.1 104.8 L 265.8 109.3 Q 266.1 109.7, 266.5 110.5 Q 267.0 111.3, 267.0 111.3 L 267.0 104.8 L 268.1 104.8 L 268.1 113.2 L 267.0 113.2 L 264.0 108.4 Q 263.7 107.8, 263.3 107.1 Q 262.9 106.5, 262.8 106.3 L 262.8 113.2 L 261.8 113.2 L 261.8 104.8 L 263.1 104.8 " fill="#000000"/>
<path class="atom-6" d="M 235.0 31.8 L 237.7 36.2 Q 238.0 36.7, 238.4 37.5 Q 238.9 38.3, 238.9 38.3 L 238.9 31.8 L 240.0 31.8 L 240.0 40.2 L 238.9 40.2 L 235.9 35.3 Q 235.6 34.8, 235.2 34.1 Q 234.9 33.5, 234.8 33.3 L 234.8 40.2 L 233.7 40.2 L 233.7 31.8 L 235.0 31.8 " fill="#000000"/>
<path class="atom-15" d="M 209.3 119.0 Q 209.3 117.0, 210.3 115.9 Q 211.3 114.8, 213.2 114.8 Q 215.0 114.8, 216.0 115.9 Q 217.0 117.0, 217.0 119.0 Q 217.0 121.1, 216.0 122.2 Q 215.0 123.4, 213.2 123.4 Q 211.3 123.4, 210.3 122.2 Q 209.3 121.1, 209.3 119.0 M 213.2 122.4 Q 214.5 122.4, 215.1 121.6 Q 215.8 120.7, 215.8 119.0 Q 215.8 117.4, 215.1 116.6 Q 214.5 115.7, 213.2 115.7 Q 211.9 115.7, 211.2 116.5 Q 210.5 117.4, 210.5 119.0 Q 210.5 120.7, 211.2 121.6 Q 211.9 122.4, 213.2 122.4 " fill="#000000"/>
<path class="atom-18" d="M 203.8 173.2 L 206.5 177.6 Q 206.8 178.1, 207.2 178.9 Q 207.7 179.7, 207.7 179.7 L 207.7 173.2 L 208.8 173.2 L 208.8 181.6 L 207.6 181.6 L 204.7 176.7 Q 204.4 176.2, 204.0 175.5 Q 203.6 174.9, 203.5 174.7 L 203.5 181.6 L 202.4 181.6 L 202.4 173.2 L 203.8 173.2 " fill="#000000"/>
<path class="atom-21" d="M 175.9 124.2 Q 175.9 122.2, 176.9 121.1 Q 177.9 120.0, 179.8 120.0 Q 181.6 120.0, 182.6 121.1 Q 183.6 122.2, 183.6 124.2 Q 183.6 126.3, 182.6 127.4 Q 181.6 128.6, 179.8 128.6 Q 177.9 128.6, 176.9 127.4 Q 175.9 126.3, 175.9 124.2 M 179.8 127.6 Q 181.0 127.6, 181.7 126.8 Q 182.4 125.9, 182.4 124.2 Q 182.4 122.6, 181.7 121.8 Q 181.0 120.9, 179.8 120.9 Q 178.5 120.9, 177.8 121.7 Q 177.1 122.6, 177.1 124.2 Q 177.1 125.9, 177.8 126.8 Q 178.5 127.6, 179.8 127.6 " fill="#000000"/>
<path class="atom-22" d="M 122.3 142.4 L 123.4 142.4 L 123.4 146.0 L 127.7 146.0 L 127.7 142.4 L 128.9 142.4 L 128.9 150.8 L 127.7 150.8 L 127.7 146.9 L 123.4 146.9 L 123.4 150.8 L 122.3 150.8 L 122.3 142.4 " fill="#000000"/>
<path class="atom-22" d="M 131.8 142.4 L 134.6 146.9 Q 134.9 147.3, 135.3 148.1 Q 135.7 148.9, 135.7 148.9 L 135.7 142.4 L 136.9 142.4 L 136.9 150.8 L 135.7 150.8 L 132.8 145.9 Q 132.4 145.4, 132.1 144.7 Q 131.7 144.1, 131.6 143.9 L 131.6 150.8 L 130.5 150.8 L 130.5 142.4 L 131.8 142.4 " fill="#000000"/>
<path class="atom-27" d="M 45.1 95.7 L 47.8 100.2 Q 48.1 100.6, 48.5 101.4 Q 48.9 102.2, 49.0 102.2 L 49.0 95.7 L 50.1 95.7 L 50.1 104.1 L 48.9 104.1 L 46.0 99.3 Q 45.6 98.7, 45.3 98.0 Q 44.9 97.4, 44.8 97.2 L 44.8 104.1 L 43.7 104.1 L 43.7 95.7 L 45.1 95.7 " fill="#000000"/>
<path class="atom-29" d="M 73.8 88.6 L 76.5 93.1 Q 76.8 93.5, 77.2 94.3 Q 77.7 95.1, 77.7 95.1 L 77.7 88.6 L 78.8 88.6 L 78.8 97.0 L 77.6 97.0 L 74.7 92.1 Q 74.4 91.6, 74.0 90.9 Q 73.6 90.3, 73.5 90.1 L 73.5 97.0 L 72.4 97.0 L 72.4 88.6 L 73.8 88.6 " fill="#000000"/>
<path class="atom-31" d="M 198.1 228.5 Q 198.1 226.5, 199.1 225.4 Q 200.1 224.3, 202.0 224.3 Q 203.8 224.3, 204.8 225.4 Q 205.8 226.5, 205.8 228.5 Q 205.8 230.5, 204.8 231.7 Q 203.8 232.9, 202.0 232.9 Q 200.1 232.9, 199.1 231.7 Q 198.1 230.6, 198.1 228.5 M 202.0 231.9 Q 203.3 231.9, 203.9 231.1 Q 204.6 230.2, 204.6 228.5 Q 204.6 226.9, 203.9 226.0 Q 203.3 225.2, 202.0 225.2 Q 200.7 225.2, 200.0 226.0 Q 199.3 226.9, 199.3 228.5 Q 199.3 230.2, 200.0 231.1 Q 200.7 231.9, 202.0 231.9 " fill="#000000"/>
<path class="atom-36" d="M 333.3 212.7 Q 333.3 210.6, 334.3 209.5 Q 335.3 208.4, 337.1 208.4 Q 338.9 208.4, 339.8 209.6 L 339.0 210.3 Q 338.3 209.4, 337.1 209.4 Q 335.9 209.4, 335.2 210.2 Q 334.5 211.1, 334.5 212.7 Q 334.5 214.3, 335.2 215.2 Q 335.9 216.0, 337.3 216.0 Q 338.2 216.0, 339.3 215.5 L 339.6 216.4 Q 339.2 216.6, 338.5 216.8 Q 337.8 217.0, 337.1 217.0 Q 335.3 217.0, 334.3 215.9 Q 333.3 214.8, 333.3 212.7 " fill="#000000"/>
<path class="atom-36" d="M 340.6 207.9 L 341.7 207.9 L 341.7 216.9 L 340.6 216.9 L 340.6 207.9 " fill="#000000"/>
</svg>