<svg xmlns="http://www.w3.org/2000/svg" xmlns:rdkit="http://www.rdkit.org/xml" xmlns:xlink="http://www.w3.org/1999/xlink" version="1.1" baseProfile="full" xml:space="preserve" width="270px" height="243px" viewBox="0 0 270 243">
<!-- END OF HEADER -->
<rect style="opacity:1.0;fill:#FFFFFF;stroke:none" width="270.0" height="243.0" x="0.0" y="0.0"> </rect>
<path class="bond-0 atom-0 atom-1" d="M 123.6,44.3 L 149.2,58.9 L 145.2,66.1 L 119.5,51.5 Z" style="fill:#F4F4FF;fill-rule:evenodd;fill-opacity:1;stroke:#F4F4FF;stroke-width:2.0px;stroke-linecap:butt;stroke-linejoin:miter;stroke-miterlimit:10;stroke-opacity:1;"/>
<path class="bond-2 atom-2 atom-3" d="M 168.5,47.6 L 168.3,18.1 L 176.6,18.0 L 176.8,47.5 Z" style="fill:#FAFAFF;fill-rule:evenodd;fill-opacity:1;stroke:#FAFAFF;stroke-width:2.0px;stroke-linecap:butt;stroke-linejoin:miter;stroke-miterlimit:10;stroke-opacity:1;"/>
<path class="bond-3 atom-2 atom-4" d="M 174.7,44.0 L 200.3,58.5 L 196.3,65.7 L 170.6,51.2 Z" style="fill:#FAFAFF;fill-rule:evenodd;fill-opacity:1;stroke:#FAFAFF;stroke-width:2.0px;stroke-linecap:butt;stroke-linejoin:miter;stroke-miterlimit:10;stroke-opacity:1;"/>
<path class="bond-5 atom-5 atom-6" d="M 200.6,95.2 L 175.2,110.1 L 171.0,103.0 L 196.4,88.1 Z" style="fill:#B0B0FF;fill-rule:evenodd;fill-opacity:1;stroke:#B0B0FF;stroke-width:2.0px;stroke-linecap:butt;stroke-linejoin:miter;stroke-miterlimit:10;stroke-opacity:1;"/>
<path class="bond-6 atom-6 atom-7" d="M 177.2,106.6 L 177.4,136.1 L 169.1,136.1 L 168.9,106.6 Z" style="fill:#B0B0FF;fill-rule:evenodd;fill-opacity:1;stroke:#B0B0FF;stroke-width:2.0px;stroke-linecap:butt;stroke-linejoin:miter;stroke-miterlimit:10;stroke-opacity:1;"/>
<path class="bond-7 atom-7 atom-8" d="M 175.4,139.7 L 149.9,154.6 L 145.7,147.5 L 171.2,132.5 Z" style="fill:#B0B0FF;fill-rule:evenodd;fill-opacity:1;stroke:#B0B0FF;stroke-width:2.0px;stroke-linecap:butt;stroke-linejoin:miter;stroke-miterlimit:10;stroke-opacity:1;"/>
<path class="bond-8 atom-8 atom-9" d="M 152.0,151.0 L 152.2,180.5 L 143.9,180.6 L 143.7,151.1 Z" style="fill:#B0B0FF;fill-rule:evenodd;fill-opacity:1;stroke:#B0B0FF;stroke-width:2.0px;stroke-linecap:butt;stroke-linejoin:miter;stroke-miterlimit:10;stroke-opacity:1;"/>
<path class="bond-11 atom-11 atom-12" d="M 100.9,151.4 L 101.1,180.9 L 92.8,180.9 L 92.6,151.4 Z" style="fill:#FFDEDE;fill-rule:evenodd;fill-opacity:1;stroke:#FFDEDE;stroke-width:2.0px;stroke-linecap:butt;stroke-linejoin:miter;stroke-miterlimit:10;stroke-opacity:1;"/>
<path class="bond-12 atom-12 atom-13" d="M 99.0,184.5 L 73.6,199.4 L 69.4,192.3 L 94.8,177.3 Z" style="fill:#FFDEDE;fill-rule:evenodd;fill-opacity:1;stroke:#FFDEDE;stroke-width:2.0px;stroke-linecap:butt;stroke-linejoin:miter;stroke-miterlimit:10;stroke-opacity:1;"/>
<path class="bond-13 atom-13 atom-14" d="M 69.4,199.4 L 43.8,184.9 L 47.9,177.7 L 73.5,192.3 Z" style="fill:#FFDEDE;fill-rule:evenodd;fill-opacity:1;stroke:#FFDEDE;stroke-width:2.0px;stroke-linecap:butt;stroke-linejoin:miter;stroke-miterlimit:10;stroke-opacity:1;"/>
<path class="bond-14 atom-14 atom-15" d="M 41.7,181.3 L 41.5,151.8 L 49.7,151.7 L 50.0,181.2 Z" style="fill:#FFDEDE;fill-rule:evenodd;fill-opacity:1;stroke:#FFDEDE;stroke-width:2.0px;stroke-linecap:butt;stroke-linejoin:miter;stroke-miterlimit:10;stroke-opacity:1;"/>
<path class="bond-15 atom-15 atom-16" d="M 43.6,155.4 L 17.9,140.8 L 22.0,133.6 L 47.6,148.2 Z" style="fill:#FFDEDE;fill-rule:evenodd;fill-opacity:1;stroke:#FFDEDE;stroke-width:2.0px;stroke-linecap:butt;stroke-linejoin:miter;stroke-miterlimit:10;stroke-opacity:1;"/>
<path class="bond-16 atom-16 atom-17" d="M 15.8,137.2 L 15.6,107.7 L 23.9,107.7 L 24.1,137.2 Z" style="fill:#FFDEDE;fill-rule:evenodd;fill-opacity:1;stroke:#FFDEDE;stroke-width:2.0px;stroke-linecap:butt;stroke-linejoin:miter;stroke-miterlimit:10;stroke-opacity:1;"/>
<path class="bond-17 atom-17 atom-18" d="M 17.6,104.1 L 43.1,89.2 L 47.3,96.3 L 21.8,111.3 Z" style="fill:#FFDEDE;fill-rule:evenodd;fill-opacity:1;stroke:#FFDEDE;stroke-width:2.0px;stroke-linecap:butt;stroke-linejoin:miter;stroke-miterlimit:10;stroke-opacity:1;"/>
<path class="bond-18 atom-18 atom-19" d="M 47.2,89.2 L 72.9,103.7 L 68.8,110.9 L 43.1,96.3 Z" style="fill:#FFDEDE;fill-rule:evenodd;fill-opacity:1;stroke:#FFDEDE;stroke-width:2.0px;stroke-linecap:butt;stroke-linejoin:miter;stroke-miterlimit:10;stroke-opacity:1;"/>
<path class="bond-19 atom-19 atom-20" d="M 75.0,107.3 L 75.2,136.8 L 66.9,136.9 L 66.7,107.3 Z" style="fill:#FFDEDE;fill-rule:evenodd;fill-opacity:1;stroke:#FFDEDE;stroke-width:2.0px;stroke-linecap:butt;stroke-linejoin:miter;stroke-miterlimit:10;stroke-opacity:1;"/>
<path class="bond-20 atom-7 atom-21" d="M 175.3,132.5 L 201.0,147.1 L 196.9,154.3 L 171.2,139.7 Z" style="fill:#B0B0FF;fill-rule:evenodd;fill-opacity:1;stroke:#B0B0FF;stroke-width:2.0px;stroke-linecap:butt;stroke-linejoin:miter;stroke-miterlimit:10;stroke-opacity:1;"/>
<path class="bond-21 atom-21 atom-22" d="M 203.1,150.6 L 203.3,180.1 L 195.0,180.2 L 194.8,150.7 Z" style="fill:#B0B0FF;fill-rule:evenodd;fill-opacity:1;stroke:#B0B0FF;stroke-width:2.0px;stroke-linecap:butt;stroke-linejoin:miter;stroke-miterlimit:10;stroke-opacity:1;"/>
<path class="bond-22 atom-22 atom-23" d="M 201.2,176.6 L 226.9,191.1 L 222.8,198.3 L 197.1,183.8 Z" style="fill:#B0B0FF;fill-rule:evenodd;fill-opacity:1;stroke:#B0B0FF;stroke-width:2.0px;stroke-linecap:butt;stroke-linejoin:miter;stroke-miterlimit:10;stroke-opacity:1;"/>
<path class="bond-23 atom-23 atom-24" d="M 228.9,194.7 L 229.2,224.2 L 220.9,224.3 L 220.7,194.8 Z" style="fill:#B0B0FF;fill-rule:evenodd;fill-opacity:1;stroke:#B0B0FF;stroke-width:2.0px;stroke-linecap:butt;stroke-linejoin:miter;stroke-miterlimit:10;stroke-opacity:1;"/>
<path class="bond-24 atom-23 atom-25" d="M 222.7,191.2 L 248.2,176.2 L 252.4,183.4 L 226.9,198.3 Z" style="fill:#B0B0FF;fill-rule:evenodd;fill-opacity:1;stroke:#B0B0FF;stroke-width:2.0px;stroke-linecap:butt;stroke-linejoin:miter;stroke-miterlimit:10;stroke-opacity:1;"/>
<path class="bond-25 atom-25 atom-26" d="M 246.1,179.8 L 245.9,150.3 L 254.2,150.3 L 254.4,179.8 Z" style="fill:#B0B0FF;fill-rule:evenodd;fill-opacity:1;stroke:#B0B0FF;stroke-width:2.0px;stroke-linecap:butt;stroke-linejoin:miter;stroke-miterlimit:10;stroke-opacity:1;"/>
<path class="bond-26 atom-26 atom-27" d="M 248.0,153.9 L 222.4,139.3 L 226.4,132.1 L 252.1,146.7 Z" style="fill:#B0B0FF;fill-rule:evenodd;fill-opacity:1;stroke:#B0B0FF;stroke-width:2.0px;stroke-linecap:butt;stroke-linejoin:miter;stroke-miterlimit:10;stroke-opacity:1;"/>
<path class="bond-27 atom-27 atom-28" d="M 220.3,135.7 L 220.0,106.2 L 228.3,106.2 L 228.5,135.7 Z" style="fill:#B0B0FF;fill-rule:evenodd;fill-opacity:1;stroke:#B0B0FF;stroke-width:2.0px;stroke-linecap:butt;stroke-linejoin:miter;stroke-miterlimit:10;stroke-opacity:1;"/>
<path class="bond-28 atom-28 atom-29" d="M 222.1,102.6 L 247.5,87.7 L 251.7,94.8 L 226.3,109.8 Z" style="fill:#B0B0FF;fill-rule:evenodd;fill-opacity:1;stroke:#B0B0FF;stroke-width:2.0px;stroke-linecap:butt;stroke-linejoin:miter;stroke-miterlimit:10;stroke-opacity:1;"/>
<path class="bond-29 atom-28 atom-5" d="M 222.1,109.8 L 196.5,95.2 L 200.6,88.0 L 226.2,102.6 Z" style="fill:#B0B0FF;fill-rule:evenodd;fill-opacity:1;stroke:#B0B0FF;stroke-width:2.0px;stroke-linecap:butt;stroke-linejoin:miter;stroke-miterlimit:10;stroke-opacity:1;"/>
<path class="bond-30 atom-20 atom-11" d="M 73.1,133.2 L 98.8,147.8 L 94.7,155.0 L 69.0,140.4 Z" style="fill:#FFDEDE;fill-rule:evenodd;fill-opacity:1;stroke:#FFDEDE;stroke-width:2.0px;stroke-linecap:butt;stroke-linejoin:miter;stroke-miterlimit:10;stroke-opacity:1;"/>
<path class="bond-31 atom-27 atom-21" d="M 226.5,139.3 L 201.0,154.2 L 196.9,147.1 L 222.3,132.2 Z" style="fill:#B0B0FF;fill-rule:evenodd;fill-opacity:1;stroke:#B0B0FF;stroke-width:2.0px;stroke-linecap:butt;stroke-linejoin:miter;stroke-miterlimit:10;stroke-opacity:1;"/>
<path class="bond-32 atom-20 atom-15" d="M 73.1,140.4 L 47.7,155.3 L 43.5,148.2 L 69.0,133.3 Z" style="fill:#FFDEDE;fill-rule:evenodd;fill-opacity:1;stroke:#FFDEDE;stroke-width:2.0px;stroke-linecap:butt;stroke-linejoin:miter;stroke-miterlimit:10;stroke-opacity:1;"/>
<ellipse cx="121.5" cy="47.9" rx="5.9" ry="5.9" class="atom-0" style="fill:#F4F4FF;fill-rule:evenodd;stroke:#F4F4FF;stroke-width:1.0px;stroke-linecap:butt;stroke-linejoin:miter;stroke-opacity:1"/>
<ellipse cx="147.2" cy="62.5" rx="5.9" ry="5.9" class="atom-1" style="fill:#F4F4FF;fill-rule:evenodd;stroke:#F4F4FF;stroke-width:1.0px;stroke-linecap:butt;stroke-linejoin:miter;stroke-opacity:1"/>
<ellipse cx="172.6" cy="47.6" rx="5.9" ry="5.9" class="atom-2" style="fill:#FAFAFF;fill-rule:evenodd;stroke:#FAFAFF;stroke-width:1.0px;stroke-linecap:butt;stroke-linejoin:miter;stroke-opacity:1"/>
<ellipse cx="172.4" cy="18.1" rx="5.9" ry="5.9" class="atom-3" style="fill:#FAFAFF;fill-rule:evenodd;stroke:#FAFAFF;stroke-width:1.0px;stroke-linecap:butt;stroke-linejoin:miter;stroke-opacity:1"/>
<ellipse cx="198.3" cy="62.1" rx="5.9" ry="5.9" class="atom-4" style="fill:#FAFAFF;fill-rule:evenodd;stroke:#FAFAFF;stroke-width:1.0px;stroke-linecap:butt;stroke-linejoin:miter;stroke-opacity:1"/>
<ellipse cx="198.5" cy="91.6" rx="5.9" ry="5.9" class="atom-5" style="fill:#B0B0FF;fill-rule:evenodd;stroke:#B0B0FF;stroke-width:1.0px;stroke-linecap:butt;stroke-linejoin:miter;stroke-opacity:1"/>
<ellipse cx="173.1" cy="106.6" rx="5.9" ry="5.9" class="atom-6" style="fill:#B0B0FF;fill-rule:evenodd;stroke:#B0B0FF;stroke-width:1.0px;stroke-linecap:butt;stroke-linejoin:miter;stroke-opacity:1"/>
<ellipse cx="173.3" cy="136.1" rx="5.9" ry="5.9" class="atom-7" style="fill:#B0B0FF;fill-rule:evenodd;stroke:#B0B0FF;stroke-width:1.0px;stroke-linecap:butt;stroke-linejoin:miter;stroke-opacity:1"/>
<ellipse cx="147.8" cy="151.0" rx="5.9" ry="5.9" class="atom-8" style="fill:#B0B0FF;fill-rule:evenodd;stroke:#B0B0FF;stroke-width:1.0px;stroke-linecap:butt;stroke-linejoin:miter;stroke-opacity:1"/>
<ellipse cx="148.0" cy="180.5" rx="5.9" ry="5.9" class="atom-9" style="fill:#B0B0FF;fill-rule:evenodd;stroke:#B0B0FF;stroke-width:1.0px;stroke-linecap:butt;stroke-linejoin:miter;stroke-opacity:1"/>
<ellipse cx="122.2" cy="136.5" rx="5.9" ry="5.9" class="atom-10" style="fill:#FCFCFF;fill-rule:evenodd;stroke:#FCFCFF;stroke-width:1.0px;stroke-linecap:butt;stroke-linejoin:miter;stroke-opacity:1"/>
<ellipse cx="96.7" cy="151.4" rx="5.9" ry="5.9" class="atom-11" style="fill:#FFDEDE;fill-rule:evenodd;stroke:#FFDEDE;stroke-width:1.0px;stroke-linecap:butt;stroke-linejoin:miter;stroke-opacity:1"/>
<ellipse cx="96.9" cy="180.9" rx="5.9" ry="5.9" class="atom-12" style="fill:#FFDEDE;fill-rule:evenodd;stroke:#FFDEDE;stroke-width:1.0px;stroke-linecap:butt;stroke-linejoin:miter;stroke-opacity:1"/>
<ellipse cx="71.5" cy="195.8" rx="5.9" ry="5.9" class="atom-13" style="fill:#FFDEDE;fill-rule:evenodd;stroke:#FFDEDE;stroke-width:1.0px;stroke-linecap:butt;stroke-linejoin:miter;stroke-opacity:1"/>
<ellipse cx="45.8" cy="181.3" rx="5.9" ry="5.9" class="atom-14" style="fill:#FFDEDE;fill-rule:evenodd;stroke:#FFDEDE;stroke-width:1.0px;stroke-linecap:butt;stroke-linejoin:miter;stroke-opacity:1"/>
<ellipse cx="45.6" cy="151.8" rx="5.9" ry="5.9" class="atom-15" style="fill:#FFDEDE;fill-rule:evenodd;stroke:#FFDEDE;stroke-width:1.0px;stroke-linecap:butt;stroke-linejoin:miter;stroke-opacity:1"/>
<ellipse cx="19.9" cy="137.2" rx="5.9" ry="5.9" class="atom-16" style="fill:#FFDEDE;fill-rule:evenodd;stroke:#FFDEDE;stroke-width:1.0px;stroke-linecap:butt;stroke-linejoin:miter;stroke-opacity:1"/>
<ellipse cx="19.7" cy="107.7" rx="5.9" ry="5.9" class="atom-17" style="fill:#FFDEDE;fill-rule:evenodd;stroke:#FFDEDE;stroke-width:1.0px;stroke-linecap:butt;stroke-linejoin:miter;stroke-opacity:1"/>
<ellipse cx="45.2" cy="92.7" rx="5.9" ry="5.9" class="atom-18" style="fill:#FFDEDE;fill-rule:evenodd;stroke:#FFDEDE;stroke-width:1.0px;stroke-linecap:butt;stroke-linejoin:miter;stroke-opacity:1"/>
<ellipse cx="70.8" cy="107.3" rx="5.9" ry="5.9" class="atom-19" style="fill:#FFDEDE;fill-rule:evenodd;stroke:#FFDEDE;stroke-width:1.0px;stroke-linecap:butt;stroke-linejoin:miter;stroke-opacity:1"/>
<ellipse cx="71.1" cy="136.8" rx="5.9" ry="5.9" class="atom-20" style="fill:#FFDEDE;fill-rule:evenodd;stroke:#FFDEDE;stroke-width:1.0px;stroke-linecap:butt;stroke-linejoin:miter;stroke-opacity:1"/>
<ellipse cx="198.9" cy="150.7" rx="5.9" ry="5.9" class="atom-21" style="fill:#B0B0FF;fill-rule:evenodd;stroke:#B0B0FF;stroke-width:1.0px;stroke-linecap:butt;stroke-linejoin:miter;stroke-opacity:1"/>
<ellipse cx="199.2" cy="180.2" rx="5.9" ry="5.9" class="atom-22" style="fill:#B0B0FF;fill-rule:evenodd;stroke:#B0B0FF;stroke-width:1.0px;stroke-linecap:butt;stroke-linejoin:miter;stroke-opacity:1"/>
<ellipse cx="224.8" cy="194.7" rx="5.9" ry="5.9" class="atom-23" style="fill:#B0B0FF;fill-rule:evenodd;stroke:#B0B0FF;stroke-width:1.0px;stroke-linecap:butt;stroke-linejoin:miter;stroke-opacity:1"/>
<ellipse cx="225.0" cy="224.2" rx="5.9" ry="5.9" class="atom-24" style="fill:#B0B0FF;fill-rule:evenodd;stroke:#B0B0FF;stroke-width:1.0px;stroke-linecap:butt;stroke-linejoin:miter;stroke-opacity:1"/>
<ellipse cx="250.3" cy="179.8" rx="5.9" ry="5.9" class="atom-25" style="fill:#B0B0FF;fill-rule:evenodd;stroke:#B0B0FF;stroke-width:1.0px;stroke-linecap:butt;stroke-linejoin:miter;stroke-opacity:1"/>
<ellipse cx="250.1" cy="150.3" rx="5.9" ry="5.9" class="atom-26" style="fill:#B0B0FF;fill-rule:evenodd;stroke:#B0B0FF;stroke-width:1.0px;stroke-linecap:butt;stroke-linejoin:miter;stroke-opacity:1"/>
<ellipse cx="224.4" cy="135.7" rx="5.9" ry="5.9" class="atom-27" style="fill:#B0B0FF;fill-rule:evenodd;stroke:#B0B0FF;stroke-width:1.0px;stroke-linecap:butt;stroke-linejoin:miter;stroke-opacity:1"/>
<ellipse cx="224.2" cy="106.2" rx="5.9" ry="5.9" class="atom-28" style="fill:#B0B0FF;fill-rule:evenodd;stroke:#B0B0FF;stroke-width:1.0px;stroke-linecap:butt;stroke-linejoin:miter;stroke-opacity:1"/>
<ellipse cx="249.6" cy="91.3" rx="5.9" ry="5.9" class="atom-29" style="fill:#B0B0FF;fill-rule:evenodd;stroke:#B0B0FF;stroke-width:1.0px;stroke-linecap:butt;stroke-linejoin:miter;stroke-opacity:1"/>
<path class="bond-0 atom-0 atom-1" d="M 121.5,47.9 L 143.0,60.1" style="fill:none;fill-rule:evenodd;stroke:#000000;stroke-width:2.0px;stroke-linecap:butt;stroke-linejoin:miter;stroke-opacity:1"/>
<path class="bond-1 atom-1 atom-2" d="M 151.3,60.1 L 172.6,47.6" style="fill:none;fill-rule:evenodd;stroke:#000000;stroke-width:2.0px;stroke-linecap:butt;stroke-linejoin:miter;stroke-opacity:1"/>
<path class="bond-2 atom-2 atom-3" d="M 172.3,43.9 L 172.9,43.9" style="fill:none;fill-rule:evenodd;stroke:#000000;stroke-width:1.0px;stroke-linecap:butt;stroke-linejoin:miter;stroke-opacity:1"/>
<path class="bond-2 atom-2 atom-3" d="M 172.0,40.2 L 173.1,40.2" style="fill:none;fill-rule:evenodd;stroke:#000000;stroke-width:1.0px;stroke-linecap:butt;stroke-linejoin:miter;stroke-opacity:1"/>
<path class="bond-2 atom-2 atom-3" d="M 171.7,36.5 L 173.4,36.5" style="fill:none;fill-rule:evenodd;stroke:#000000;stroke-width:1.0px;stroke-linecap:butt;stroke-linejoin:miter;stroke-opacity:1"/>
<path class="bond-2 atom-2 atom-3" d="M 171.4,32.8 L 173.6,32.8" style="fill:none;fill-rule:evenodd;stroke:#000000;stroke-width:1.0px;stroke-linecap:butt;stroke-linejoin:miter;stroke-opacity:1"/>
<path class="bond-2 atom-2 atom-3" d="M 171.1,29.1 L 173.9,29.1" style="fill:none;fill-rule:evenodd;stroke:#000000;stroke-width:1.0px;stroke-linecap:butt;stroke-linejoin:miter;stroke-opacity:1"/>
<path class="bond-2 atom-2 atom-3" d="M 170.8,25.4 L 174.1,25.4" style="fill:none;fill-rule:evenodd;stroke:#000000;stroke-width:1.0px;stroke-linecap:butt;stroke-linejoin:miter;stroke-opacity:1"/>
<path class="bond-2 atom-2 atom-3" d="M 170.5,21.8 L 174.4,21.7" style="fill:none;fill-rule:evenodd;stroke:#000000;stroke-width:1.0px;stroke-linecap:butt;stroke-linejoin:miter;stroke-opacity:1"/>
<path class="bond-2 atom-2 atom-3" d="M 170.2,18.1 L 174.6,18.0" style="fill:none;fill-rule:evenodd;stroke:#000000;stroke-width:1.0px;stroke-linecap:butt;stroke-linejoin:miter;stroke-opacity:1"/>
<path class="bond-3 atom-2 atom-4" d="M 172.6,47.6 L 198.3,62.1" style="fill:none;fill-rule:evenodd;stroke:#000000;stroke-width:2.0px;stroke-linecap:butt;stroke-linejoin:miter;stroke-opacity:1"/>
<path class="bond-4 atom-4 atom-5" d="M 198.3,62.1 L 198.5,86.5" style="fill:none;fill-rule:evenodd;stroke:#000000;stroke-width:2.0px;stroke-linecap:butt;stroke-linejoin:miter;stroke-opacity:1"/>
<path class="bond-5 atom-5 atom-6" d="M 194.4,94.1 L 173.1,106.6" style="fill:none;fill-rule:evenodd;stroke:#000000;stroke-width:2.0px;stroke-linecap:butt;stroke-linejoin:miter;stroke-opacity:1"/>
<path class="bond-6 atom-6 atom-7" d="M 173.1,106.6 L 173.3,136.1" style="fill:none;fill-rule:evenodd;stroke:#000000;stroke-width:2.0px;stroke-linecap:butt;stroke-linejoin:miter;stroke-opacity:1"/>
<path class="bond-7 atom-7 atom-8" d="M 173.3,136.1 L 150.0,152.2 L 145.5,149.7 Z" style="fill:#000000;fill-rule:evenodd;fill-opacity:1;stroke:#000000;stroke-width:0.5px;stroke-linecap:butt;stroke-linejoin:miter;stroke-miterlimit:10;stroke-opacity:1;"/>
<path class="bond-8 atom-8 atom-9" d="M 145.6,149.8 L 145.8,175.4" style="fill:none;fill-rule:evenodd;stroke:#000000;stroke-width:2.0px;stroke-linecap:butt;stroke-linejoin:miter;stroke-opacity:1"/>
<path class="bond-8 atom-8 atom-9" d="M 150.0,149.7 L 150.2,175.3" style="fill:none;fill-rule:evenodd;stroke:#000000;stroke-width:2.0px;stroke-linecap:butt;stroke-linejoin:miter;stroke-opacity:1"/>
<path class="bond-9 atom-8 atom-10" d="M 147.8,151.0 L 126.3,138.8" style="fill:none;fill-rule:evenodd;stroke:#000000;stroke-width:2.0px;stroke-linecap:butt;stroke-linejoin:miter;stroke-opacity:1"/>
<path class="bond-10 atom-10 atom-11" d="M 118.0,138.9 L 96.7,151.4" style="fill:none;fill-rule:evenodd;stroke:#000000;stroke-width:2.0px;stroke-linecap:butt;stroke-linejoin:miter;stroke-opacity:1"/>
<path class="bond-11 atom-11 atom-12" d="M 96.7,151.4 L 96.9,180.9" style="fill:none;fill-rule:evenodd;stroke:#000000;stroke-width:2.0px;stroke-linecap:butt;stroke-linejoin:miter;stroke-opacity:1"/>
<path class="bond-11 atom-11 atom-12" d="M 92.3,154.0 L 92.5,178.4" style="fill:none;fill-rule:evenodd;stroke:#000000;stroke-width:2.0px;stroke-linecap:butt;stroke-linejoin:miter;stroke-opacity:1"/>
<path class="bond-12 atom-12 atom-13" d="M 96.9,180.9 L 75.6,193.4" style="fill:none;fill-rule:evenodd;stroke:#000000;stroke-width:2.0px;stroke-linecap:butt;stroke-linejoin:miter;stroke-opacity:1"/>
<path class="bond-13 atom-13 atom-14" d="M 67.3,193.5 L 45.8,181.3" style="fill:none;fill-rule:evenodd;stroke:#000000;stroke-width:2.0px;stroke-linecap:butt;stroke-linejoin:miter;stroke-opacity:1"/>
<path class="bond-13 atom-13 atom-14" d="M 69.5,189.6 L 50.2,178.7" style="fill:none;fill-rule:evenodd;stroke:#000000;stroke-width:2.0px;stroke-linecap:butt;stroke-linejoin:miter;stroke-opacity:1"/>
<path class="bond-14 atom-14 atom-15" d="M 45.8,181.3 L 45.6,151.8" style="fill:none;fill-rule:evenodd;stroke:#000000;stroke-width:2.0px;stroke-linecap:butt;stroke-linejoin:miter;stroke-opacity:1"/>
<path class="bond-15 atom-15 atom-16" d="M 45.6,151.8 L 19.9,137.2" style="fill:none;fill-rule:evenodd;stroke:#000000;stroke-width:2.0px;stroke-linecap:butt;stroke-linejoin:miter;stroke-opacity:1"/>
<path class="bond-15 atom-15 atom-16" d="M 45.6,146.7 L 24.4,134.6" style="fill:none;fill-rule:evenodd;stroke:#000000;stroke-width:2.0px;stroke-linecap:butt;stroke-linejoin:miter;stroke-opacity:1"/>
<path class="bond-16 atom-16 atom-17" d="M 19.9,137.2 L 19.7,107.7" style="fill:none;fill-rule:evenodd;stroke:#000000;stroke-width:2.0px;stroke-linecap:butt;stroke-linejoin:miter;stroke-opacity:1"/>
<path class="bond-17 atom-17 atom-18" d="M 19.7,107.7 L 45.2,92.7" style="fill:none;fill-rule:evenodd;stroke:#000000;stroke-width:2.0px;stroke-linecap:butt;stroke-linejoin:miter;stroke-opacity:1"/>
<path class="bond-17 atom-17 atom-18" d="M 24.2,110.2 L 45.2,97.9" style="fill:none;fill-rule:evenodd;stroke:#000000;stroke-width:2.0px;stroke-linecap:butt;stroke-linejoin:miter;stroke-opacity:1"/>
<path class="bond-18 atom-18 atom-19" d="M 45.2,92.7 L 70.8,107.3" style="fill:none;fill-rule:evenodd;stroke:#000000;stroke-width:2.0px;stroke-linecap:butt;stroke-linejoin:miter;stroke-opacity:1"/>
<path class="bond-19 atom-19 atom-20" d="M 70.8,107.3 L 71.1,136.8" style="fill:none;fill-rule:evenodd;stroke:#000000;stroke-width:2.0px;stroke-linecap:butt;stroke-linejoin:miter;stroke-opacity:1"/>
<path class="bond-19 atom-19 atom-20" d="M 66.4,109.9 L 66.6,134.3" style="fill:none;fill-rule:evenodd;stroke:#000000;stroke-width:2.0px;stroke-linecap:butt;stroke-linejoin:miter;stroke-opacity:1"/>
<path class="bond-20 atom-7 atom-21" d="M 173.3,136.1 L 198.9,150.7" style="fill:none;fill-rule:evenodd;stroke:#000000;stroke-width:2.0px;stroke-linecap:butt;stroke-linejoin:miter;stroke-opacity:1"/>
<path class="bond-21 atom-21 atom-22" d="M 198.9,150.7 L 199.2,180.2" style="fill:none;fill-rule:evenodd;stroke:#000000;stroke-width:2.0px;stroke-linecap:butt;stroke-linejoin:miter;stroke-opacity:1"/>
<path class="bond-21 atom-21 atom-22" d="M 203.4,153.2 L 203.6,177.6" style="fill:none;fill-rule:evenodd;stroke:#000000;stroke-width:2.0px;stroke-linecap:butt;stroke-linejoin:miter;stroke-opacity:1"/>
<path class="bond-22 atom-22 atom-23" d="M 199.2,180.2 L 224.8,194.7" style="fill:none;fill-rule:evenodd;stroke:#000000;stroke-width:2.0px;stroke-linecap:butt;stroke-linejoin:miter;stroke-opacity:1"/>
<path class="bond-23 atom-23 atom-24" d="M 224.8,194.7 L 225.0,219.3" style="fill:none;fill-rule:evenodd;stroke:#000000;stroke-width:2.0px;stroke-linecap:butt;stroke-linejoin:miter;stroke-opacity:1"/>
<path class="bond-24 atom-23 atom-25" d="M 224.8,194.7 L 250.3,179.8" style="fill:none;fill-rule:evenodd;stroke:#000000;stroke-width:2.0px;stroke-linecap:butt;stroke-linejoin:miter;stroke-opacity:1"/>
<path class="bond-24 atom-23 atom-25" d="M 224.8,189.6 L 245.8,177.3" style="fill:none;fill-rule:evenodd;stroke:#000000;stroke-width:2.0px;stroke-linecap:butt;stroke-linejoin:miter;stroke-opacity:1"/>
<path class="bond-25 atom-25 atom-26" d="M 250.3,179.8 L 250.1,150.3" style="fill:none;fill-rule:evenodd;stroke:#000000;stroke-width:2.0px;stroke-linecap:butt;stroke-linejoin:miter;stroke-opacity:1"/>
<path class="bond-26 atom-26 atom-27" d="M 250.1,150.3 L 224.4,135.7" style="fill:none;fill-rule:evenodd;stroke:#000000;stroke-width:2.0px;stroke-linecap:butt;stroke-linejoin:miter;stroke-opacity:1"/>
<path class="bond-26 atom-26 atom-27" d="M 245.6,152.9 L 224.4,140.8" style="fill:none;fill-rule:evenodd;stroke:#000000;stroke-width:2.0px;stroke-linecap:butt;stroke-linejoin:miter;stroke-opacity:1"/>
<path class="bond-27 atom-27 atom-28" d="M 224.4,135.7 L 224.2,106.2" style="fill:none;fill-rule:evenodd;stroke:#000000;stroke-width:2.0px;stroke-linecap:butt;stroke-linejoin:miter;stroke-opacity:1"/>
<path class="bond-28 atom-28 atom-29" d="M 224.2,108.8 L 245.9,96.0" style="fill:none;fill-rule:evenodd;stroke:#000000;stroke-width:2.0px;stroke-linecap:butt;stroke-linejoin:miter;stroke-opacity:1"/>
<path class="bond-28 atom-28 atom-29" d="M 222.0,104.9 L 243.7,92.2" style="fill:none;fill-rule:evenodd;stroke:#000000;stroke-width:2.0px;stroke-linecap:butt;stroke-linejoin:miter;stroke-opacity:1"/>
<path class="bond-29 atom-28 atom-5" d="M 224.2,106.2 L 202.7,94.0" style="fill:none;fill-rule:evenodd;stroke:#000000;stroke-width:2.0px;stroke-linecap:butt;stroke-linejoin:miter;stroke-opacity:1"/>
<path class="bond-30 atom-20 atom-11" d="M 71.1,136.8 L 96.7,151.4" style="fill:none;fill-rule:evenodd;stroke:#000000;stroke-width:2.0px;stroke-linecap:butt;stroke-linejoin:miter;stroke-opacity:1"/>
<path class="bond-31 atom-27 atom-21" d="M 224.4,135.7 L 198.9,150.7" style="fill:none;fill-rule:evenodd;stroke:#000000;stroke-width:2.0px;stroke-linecap:butt;stroke-linejoin:miter;stroke-opacity:1"/>
<path class="bond-32 atom-20 atom-15" d="M 71.1,136.8 L 45.6,151.8" style="fill:none;fill-rule:evenodd;stroke:#000000;stroke-width:2.0px;stroke-linecap:butt;stroke-linejoin:miter;stroke-opacity:1"/>
<path d="M 171.6,48.2 L 172.6,47.6 L 173.9,48.3" style="fill:none;stroke:#000000;stroke-width:2.0px;stroke-linecap:butt;stroke-linejoin:miter;stroke-miterlimit:10;stroke-opacity:1;"/>
<path d="M 197.0,61.4 L 198.3,62.1 L 198.3,63.3" style="fill:none;stroke:#000000;stroke-width:2.0px;stroke-linecap:butt;stroke-linejoin:miter;stroke-miterlimit:10;stroke-opacity:1;"/>
<path d="M 174.1,106.0 L 173.1,106.6 L 173.1,108.1" style="fill:none;stroke:#000000;stroke-width:2.0px;stroke-linecap:butt;stroke-linejoin:miter;stroke-miterlimit:10;stroke-opacity:1;"/>
<path d="M 173.3,134.6 L 173.3,136.1 L 174.6,136.8" style="fill:none;stroke:#000000;stroke-width:2.0px;stroke-linecap:butt;stroke-linejoin:miter;stroke-miterlimit:10;stroke-opacity:1;"/>
<path d="M 96.9,179.4 L 96.9,180.9 L 95.9,181.5" style="fill:none;stroke:#000000;stroke-width:2.0px;stroke-linecap:butt;stroke-linejoin:miter;stroke-miterlimit:10;stroke-opacity:1;"/>
<path d="M 46.9,181.9 L 45.8,181.3 L 45.8,179.8" style="fill:none;stroke:#000000;stroke-width:2.0px;stroke-linecap:butt;stroke-linejoin:miter;stroke-miterlimit:10;stroke-opacity:1;"/>
<path d="M 21.2,137.9 L 19.9,137.2 L 19.9,135.7" style="fill:none;stroke:#000000;stroke-width:2.0px;stroke-linecap:butt;stroke-linejoin:miter;stroke-miterlimit:10;stroke-opacity:1;"/>
<path d="M 19.7,109.2 L 19.7,107.7 L 21.0,106.9" style="fill:none;stroke:#000000;stroke-width:2.0px;stroke-linecap:butt;stroke-linejoin:miter;stroke-miterlimit:10;stroke-opacity:1;"/>
<path d="M 43.9,93.5 L 45.2,92.7 L 46.5,93.5" style="fill:none;stroke:#000000;stroke-width:2.0px;stroke-linecap:butt;stroke-linejoin:miter;stroke-miterlimit:10;stroke-opacity:1;"/>
<path d="M 69.6,106.6 L 70.8,107.3 L 70.9,108.8" style="fill:none;stroke:#000000;stroke-width:2.0px;stroke-linecap:butt;stroke-linejoin:miter;stroke-miterlimit:10;stroke-opacity:1;"/>
<path d="M 199.1,178.7 L 199.2,180.2 L 200.4,180.9" style="fill:none;stroke:#000000;stroke-width:2.0px;stroke-linecap:butt;stroke-linejoin:miter;stroke-miterlimit:10;stroke-opacity:1;"/>
<path d="M 249.0,180.5 L 250.3,179.8 L 250.3,178.3" style="fill:none;stroke:#000000;stroke-width:2.0px;stroke-linecap:butt;stroke-linejoin:miter;stroke-miterlimit:10;stroke-opacity:1;"/>
<path d="M 250.1,151.8 L 250.1,150.3 L 248.8,149.6" style="fill:none;stroke:#000000;stroke-width:2.0px;stroke-linecap:butt;stroke-linejoin:miter;stroke-miterlimit:10;stroke-opacity:1;"/>
<path d="M 224.2,107.7 L 224.2,106.2 L 223.1,105.6" style="fill:none;stroke:#000000;stroke-width:2.0px;stroke-linecap:butt;stroke-linejoin:miter;stroke-miterlimit:10;stroke-opacity:1;"/>
<path class="atom-1" d="M 145.3 58.3 L 148.1 62.7 Q 148.4 63.2, 148.8 64.0 Q 149.2 64.8, 149.3 64.8 L 149.3 58.3 L 150.4 58.3 L 150.4 66.7 L 149.2 66.7 L 146.3 61.8 Q 145.9 61.3, 145.6 60.6 Q 145.2 60.0, 145.1 59.8 L 145.1 66.7 L 144.0 66.7 L 144.0 58.3 L 145.3 58.3 " fill="#000000"/>
<path class="atom-1" d="M 143.9 67.5 L 145.1 67.5 L 145.1 71.1 L 149.3 71.1 L 149.3 67.5 L 150.5 67.5 L 150.5 75.9 L 149.3 75.9 L 149.3 72.0 L 145.1 72.0 L 145.1 75.9 L 143.9 75.9 L 143.9 67.5 " fill="#000000"/>
<path class="atom-5" d="M 196.7 87.5 L 199.4 91.9 Q 199.7 92.3, 200.1 93.1 Q 200.6 93.9, 200.6 94.0 L 200.6 87.5 L 201.7 87.5 L 201.7 95.8 L 200.5 95.8 L 197.6 91.0 Q 197.3 90.4, 196.9 89.8 Q 196.5 89.1, 196.4 88.9 L 196.4 95.8 L 195.3 95.8 L 195.3 87.5 L 196.7 87.5 " fill="#000000"/>
<path class="atom-9" d="M 144.2 180.6 Q 144.2 178.6, 145.2 177.4 Q 146.2 176.3, 148.0 176.3 Q 149.9 176.3, 150.9 177.4 Q 151.9 178.6, 151.9 180.6 Q 151.9 182.6, 150.9 183.7 Q 149.9 184.9, 148.0 184.9 Q 146.2 184.9, 145.2 183.7 Q 144.2 182.6, 144.2 180.6 M 148.0 183.9 Q 149.3 183.9, 150.0 183.1 Q 150.7 182.2, 150.7 180.6 Q 150.7 178.9, 150.0 178.1 Q 149.3 177.3, 148.0 177.3 Q 146.8 177.3, 146.1 178.1 Q 145.4 178.9, 145.4 180.6 Q 145.4 182.2, 146.1 183.1 Q 146.8 183.9, 148.0 183.9 " fill="#000000"/>
<path class="atom-10" d="M 120.3 132.3 L 123.1 136.7 Q 123.3 137.1, 123.8 137.9 Q 124.2 138.7, 124.2 138.8 L 124.2 132.3 L 125.3 132.3 L 125.3 140.6 L 124.2 140.6 L 121.3 135.8 Q 120.9 135.2, 120.5 134.6 Q 120.2 133.9, 120.1 133.7 L 120.1 140.6 L 119.0 140.6 L 119.0 132.3 L 120.3 132.3 " fill="#000000"/>
<path class="atom-10" d="M 118.9 123.1 L 120.0 123.1 L 120.0 126.6 L 124.3 126.6 L 124.3 123.1 L 125.4 123.1 L 125.4 131.4 L 124.3 131.4 L 124.3 127.6 L 120.0 127.6 L 120.0 131.4 L 118.9 131.4 L 118.9 123.1 " fill="#000000"/>
<path class="atom-13" d="M 69.6 191.7 L 72.4 196.1 Q 72.6 196.5, 73.1 197.3 Q 73.5 198.1, 73.5 198.2 L 73.5 191.7 L 74.7 191.7 L 74.7 200.0 L 73.5 200.0 L 70.6 195.2 Q 70.2 194.6, 69.9 194.0 Q 69.5 193.3, 69.4 193.1 L 69.4 200.0 L 68.3 200.0 L 68.3 191.7 L 69.6 191.7 " fill="#000000"/>
<path class="atom-24" d="M 221.8 224.5 Q 221.8 222.5, 222.8 221.4 Q 223.8 220.3, 225.6 220.3 Q 227.3 220.3, 228.3 221.5 L 227.5 222.1 Q 226.8 221.2, 225.6 221.2 Q 224.3 221.2, 223.7 222.1 Q 223.0 222.9, 223.0 224.5 Q 223.0 226.2, 223.7 227.0 Q 224.4 227.9, 225.7 227.9 Q 226.7 227.9, 227.7 227.3 L 228.1 228.2 Q 227.6 228.5, 227.0 228.7 Q 226.3 228.8, 225.6 228.8 Q 223.8 228.8, 222.8 227.7 Q 221.8 226.6, 221.8 224.5 " fill="#000000"/>
<path class="atom-24" d="M 229.1 219.8 L 230.2 219.8 L 230.2 228.7 L 229.1 228.7 L 229.1 219.8 " fill="#000000"/>
<path class="atom-29" d="M 245.8 91.3 Q 245.8 89.3, 246.8 88.2 Q 247.8 87.0, 249.6 87.0 Q 251.5 87.0, 252.5 88.2 Q 253.5 89.3, 253.5 91.3 Q 253.5 93.3, 252.5 94.5 Q 251.5 95.6, 249.6 95.6 Q 247.8 95.6, 246.8 94.5 Q 245.8 93.3, 245.8 91.3 M 249.6 94.7 Q 250.9 94.7, 251.6 93.8 Q 252.3 93.0, 252.3 91.3 Q 252.3 89.7, 251.6 88.8 Q 250.9 88.0, 249.6 88.0 Q 248.4 88.0, 247.7 88.8 Q 247.0 89.6, 247.0 91.3 Q 247.0 93.0, 247.7 93.8 Q 248.4 94.7, 249.6 94.7 " fill="#000000"/>
</svg>