<svg xmlns="http://www.w3.org/2000/svg" xmlns:rdkit="http://www.rdkit.org/xml" xmlns:xlink="http://www.w3.org/1999/xlink" version="1.1" baseProfile="full" xml:space="preserve" width="326px" height="264px" viewBox="0 0 326 264">
<!-- END OF HEADER -->
<rect style="opacity:1.0;fill:#FFFFFF;stroke:none" width="326.0" height="264.0" x="0.0" y="0.0"> </rect>
<ellipse cx="212.5" cy="171.0" rx="12.9" ry="12.9" class="atom-0" style="fill:#7F7FFF;fill-rule:evenodd;stroke:#7F7FFF;stroke-width:1.0px;stroke-linecap:butt;stroke-linejoin:miter;stroke-opacity:1"/>
<ellipse cx="199.9" cy="144.3" rx="12.9" ry="12.9" class="atom-1" style="fill:#7F7FFF;fill-rule:evenodd;stroke:#7F7FFF;stroke-width:1.0px;stroke-linecap:butt;stroke-linejoin:miter;stroke-opacity:1"/>
<ellipse cx="219.9" cy="122.5" rx="12.9" ry="12.9" class="atom-2" style="fill:#7F7FFF;fill-rule:evenodd;stroke:#7F7FFF;stroke-width:1.0px;stroke-linecap:butt;stroke-linejoin:miter;stroke-opacity:1"/>
<ellipse cx="205.5" cy="96.7" rx="12.9" ry="12.9" class="atom-3" style="fill:#7F7FFF;fill-rule:evenodd;stroke:#7F7FFF;stroke-width:1.0px;stroke-linecap:butt;stroke-linejoin:miter;stroke-opacity:1"/>
<ellipse cx="217.8" cy="69.9" rx="2.9" ry="2.9" class="atom-4" style="fill:#FF7F7F;fill-rule:evenodd;stroke:#FF7F7F;stroke-width:1.0px;stroke-linecap:butt;stroke-linejoin:miter;stroke-opacity:1"/>
<ellipse cx="200.7" cy="45.7" rx="2.9" ry="2.9" class="atom-5" style="fill:#FF7F7F;fill-rule:evenodd;stroke:#FF7F7F;stroke-width:1.0px;stroke-linecap:butt;stroke-linejoin:miter;stroke-opacity:1"/>
<ellipse cx="213.1" cy="18.8" rx="2.9" ry="2.9" class="atom-6" style="fill:#FF7F7F;fill-rule:evenodd;stroke:#FF7F7F;stroke-width:1.0px;stroke-linecap:butt;stroke-linejoin:miter;stroke-opacity:1"/>
<ellipse cx="242.5" cy="16.1" rx="2.9" ry="2.9" class="atom-7" style="fill:#FF7F7F;fill-rule:evenodd;stroke:#FF7F7F;stroke-width:1.0px;stroke-linecap:butt;stroke-linejoin:miter;stroke-opacity:1"/>
<ellipse cx="259.6" cy="40.2" rx="2.9" ry="2.9" class="atom-8" style="fill:#FF7F7F;fill-rule:evenodd;stroke:#FF7F7F;stroke-width:1.0px;stroke-linecap:butt;stroke-linejoin:miter;stroke-opacity:1"/>
<ellipse cx="289.1" cy="37.5" rx="2.9" ry="2.9" class="atom-9" style="fill:#FF7F7F;fill-rule:evenodd;stroke:#FF7F7F;stroke-width:1.0px;stroke-linecap:butt;stroke-linejoin:miter;stroke-opacity:1"/>
<ellipse cx="306.2" cy="61.6" rx="2.9" ry="2.9" class="atom-10" style="fill:#FF7F7F;fill-rule:evenodd;stroke:#FF7F7F;stroke-width:1.0px;stroke-linecap:butt;stroke-linejoin:miter;stroke-opacity:1"/>
<ellipse cx="293.8" cy="88.5" rx="2.9" ry="2.9" class="atom-11" style="fill:#FF7F7F;fill-rule:evenodd;stroke:#FF7F7F;stroke-width:1.0px;stroke-linecap:butt;stroke-linejoin:miter;stroke-opacity:1"/>
<ellipse cx="264.4" cy="91.3" rx="2.9" ry="2.9" class="atom-12" style="fill:#FF7F7F;fill-rule:evenodd;stroke:#FF7F7F;stroke-width:1.0px;stroke-linecap:butt;stroke-linejoin:miter;stroke-opacity:1"/>
<ellipse cx="247.3" cy="67.1" rx="2.9" ry="2.9" class="atom-13" style="fill:#FF7F7F;fill-rule:evenodd;stroke:#FF7F7F;stroke-width:1.0px;stroke-linecap:butt;stroke-linejoin:miter;stroke-opacity:1"/>
<ellipse cx="176.5" cy="102.5" rx="12.9" ry="12.9" class="atom-14" style="fill:#7F7FFF;fill-rule:evenodd;stroke:#7F7FFF;stroke-width:1.0px;stroke-linecap:butt;stroke-linejoin:miter;stroke-opacity:1"/>
<ellipse cx="154.7" cy="82.5" rx="12.9" ry="12.9" class="atom-15" style="fill:#7F7FFF;fill-rule:evenodd;stroke:#7F7FFF;stroke-width:1.0px;stroke-linecap:butt;stroke-linejoin:miter;stroke-opacity:1"/>
<ellipse cx="173.0" cy="131.9" rx="12.9" ry="12.9" class="atom-16" style="fill:#7F7FFF;fill-rule:evenodd;stroke:#7F7FFF;stroke-width:1.0px;stroke-linecap:butt;stroke-linejoin:miter;stroke-opacity:1"/>
<ellipse cx="147.6" cy="116.8" rx="12.9" ry="12.9" class="atom-17" style="fill:#7F7FFF;fill-rule:evenodd;stroke:#7F7FFF;stroke-width:1.0px;stroke-linecap:butt;stroke-linejoin:miter;stroke-opacity:1"/>
<ellipse cx="121.8" cy="131.3" rx="12.9" ry="12.9" class="atom-18" style="fill:#7F7FFF;fill-rule:evenodd;stroke:#7F7FFF;stroke-width:1.0px;stroke-linecap:butt;stroke-linejoin:miter;stroke-opacity:1"/>
<ellipse cx="96.3" cy="116.2" rx="1.1" ry="1.1" class="atom-19" style="fill:#7F7FFF;fill-rule:evenodd;stroke:#7F7FFF;stroke-width:1.0px;stroke-linecap:butt;stroke-linejoin:miter;stroke-opacity:1"/>
<ellipse cx="96.7" cy="86.6" rx="1.1" ry="1.1" class="atom-20" style="fill:#7F7FFF;fill-rule:evenodd;stroke:#7F7FFF;stroke-width:1.0px;stroke-linecap:butt;stroke-linejoin:miter;stroke-opacity:1"/>
<ellipse cx="71.2" cy="71.5" rx="0.0" ry="0.0" class="atom-21" style="fill:#7F7FFF;fill-rule:evenodd;stroke:#7F7FFF;stroke-width:1.0px;stroke-linecap:butt;stroke-linejoin:miter;stroke-opacity:1"/>
<ellipse cx="71.6" cy="41.9" rx="0.0" ry="0.0" class="atom-22" style="fill:#7F7FFF;fill-rule:evenodd;stroke:#7F7FFF;stroke-width:1.0px;stroke-linecap:butt;stroke-linejoin:miter;stroke-opacity:1"/>
<ellipse cx="46.1" cy="26.8" rx="0.0" ry="0.0" class="atom-23" style="fill:#7F7FFF;fill-rule:evenodd;stroke:#7F7FFF;stroke-width:1.0px;stroke-linecap:butt;stroke-linejoin:miter;stroke-opacity:1"/>
<ellipse cx="20.3" cy="41.3" rx="0.0" ry="0.0" class="atom-24" style="fill:#7F7FFF;fill-rule:evenodd;stroke:#7F7FFF;stroke-width:1.0px;stroke-linecap:butt;stroke-linejoin:miter;stroke-opacity:1"/>
<ellipse cx="20.0" cy="70.9" rx="0.0" ry="0.0" class="atom-25" style="fill:#7F7FFF;fill-rule:evenodd;stroke:#7F7FFF;stroke-width:1.0px;stroke-linecap:butt;stroke-linejoin:miter;stroke-opacity:1"/>
<ellipse cx="45.4" cy="86.0" rx="0.0" ry="0.0" class="atom-26" style="fill:#7F7FFF;fill-rule:evenodd;stroke:#7F7FFF;stroke-width:1.0px;stroke-linecap:butt;stroke-linejoin:miter;stroke-opacity:1"/>
<ellipse cx="121.4" cy="160.9" rx="12.9" ry="12.9" class="atom-27" style="fill:#7F7FFF;fill-rule:evenodd;stroke:#7F7FFF;stroke-width:1.0px;stroke-linecap:butt;stroke-linejoin:miter;stroke-opacity:1"/>
<ellipse cx="95.6" cy="175.4" rx="12.9" ry="12.9" class="atom-28" style="fill:#7F7FFF;fill-rule:evenodd;stroke:#7F7FFF;stroke-width:1.0px;stroke-linecap:butt;stroke-linejoin:miter;stroke-opacity:1"/>
<ellipse cx="146.8" cy="176.0" rx="12.9" ry="12.9" class="atom-29" style="fill:#7F7FFF;fill-rule:evenodd;stroke:#7F7FFF;stroke-width:1.0px;stroke-linecap:butt;stroke-linejoin:miter;stroke-opacity:1"/>
<ellipse cx="146.5" cy="205.6" rx="12.9" ry="12.9" class="atom-30" style="fill:#7F7FFF;fill-rule:evenodd;stroke:#7F7FFF;stroke-width:1.0px;stroke-linecap:butt;stroke-linejoin:miter;stroke-opacity:1"/>
<ellipse cx="171.9" cy="220.7" rx="12.9" ry="12.9" class="atom-31" style="fill:#7F7FFF;fill-rule:evenodd;stroke:#7F7FFF;stroke-width:1.0px;stroke-linecap:butt;stroke-linejoin:miter;stroke-opacity:1"/>
<ellipse cx="197.7" cy="206.2" rx="12.9" ry="12.9" class="atom-32" style="fill:#7F7FFF;fill-rule:evenodd;stroke:#7F7FFF;stroke-width:1.0px;stroke-linecap:butt;stroke-linejoin:miter;stroke-opacity:1"/>
<ellipse cx="223.2" cy="221.3" rx="12.9" ry="12.9" class="atom-33" style="fill:#7F7FFF;fill-rule:evenodd;stroke:#7F7FFF;stroke-width:1.0px;stroke-linecap:butt;stroke-linejoin:miter;stroke-opacity:1"/>
<ellipse cx="198.1" cy="176.6" rx="12.9" ry="12.9" class="atom-34" style="fill:#7F7FFF;fill-rule:evenodd;stroke:#7F7FFF;stroke-width:1.0px;stroke-linecap:butt;stroke-linejoin:miter;stroke-opacity:1"/>
<ellipse cx="172.6" cy="161.5" rx="12.9" ry="12.9" class="atom-35" style="fill:#7F7FFF;fill-rule:evenodd;stroke:#7F7FFF;stroke-width:1.0px;stroke-linecap:butt;stroke-linejoin:miter;stroke-opacity:1"/>
<path class="bond-0 atom-1 atom-0" d="M 201.7,147.5 L 201.2,147.7" style="fill:none;fill-rule:evenodd;stroke:#000000;stroke-width:1.0px;stroke-linecap:butt;stroke-linejoin:miter;stroke-opacity:1"/>
<path class="bond-0 atom-1 atom-0" d="M 203.5,150.7 L 202.5,151.2" style="fill:none;fill-rule:evenodd;stroke:#000000;stroke-width:1.0px;stroke-linecap:butt;stroke-linejoin:miter;stroke-opacity:1"/>
<path class="bond-0 atom-1 atom-0" d="M 205.4,154.0 L 203.9,154.7" style="fill:none;fill-rule:evenodd;stroke:#000000;stroke-width:1.0px;stroke-linecap:butt;stroke-linejoin:miter;stroke-opacity:1"/>
<path class="bond-0 atom-1 atom-0" d="M 207.2,157.2 L 205.2,158.1" style="fill:none;fill-rule:evenodd;stroke:#000000;stroke-width:1.0px;stroke-linecap:butt;stroke-linejoin:miter;stroke-opacity:1"/>
<path class="bond-0 atom-1 atom-0" d="M 209.0,160.4 L 206.5,161.6" style="fill:none;fill-rule:evenodd;stroke:#000000;stroke-width:1.0px;stroke-linecap:butt;stroke-linejoin:miter;stroke-opacity:1"/>
<path class="bond-0 atom-1 atom-0" d="M 210.9,163.6 L 207.9,165.1" style="fill:none;fill-rule:evenodd;stroke:#000000;stroke-width:1.0px;stroke-linecap:butt;stroke-linejoin:miter;stroke-opacity:1"/>
<path class="bond-0 atom-1 atom-0" d="M 212.7,166.9 L 209.2,168.5" style="fill:none;fill-rule:evenodd;stroke:#000000;stroke-width:1.0px;stroke-linecap:butt;stroke-linejoin:miter;stroke-opacity:1"/>
<path class="bond-0 atom-1 atom-0" d="M 214.5,170.1 L 210.5,172.0" style="fill:none;fill-rule:evenodd;stroke:#000000;stroke-width:1.0px;stroke-linecap:butt;stroke-linejoin:miter;stroke-opacity:1"/>
<path class="bond-1 atom-1 atom-2" d="M 199.9,144.3 L 219.9,122.5" style="fill:none;fill-rule:evenodd;stroke:#000000;stroke-width:2.0px;stroke-linecap:butt;stroke-linejoin:miter;stroke-opacity:1"/>
<path class="bond-2 atom-2 atom-3" d="M 219.9,122.5 L 208.4,101.9" style="fill:none;fill-rule:evenodd;stroke:#000000;stroke-width:2.0px;stroke-linecap:butt;stroke-linejoin:miter;stroke-opacity:1"/>
<path class="bond-3 atom-3 atom-4" d="M 207.8,91.6 L 217.8,69.9" style="fill:none;fill-rule:evenodd;stroke:#000000;stroke-width:2.0px;stroke-linecap:butt;stroke-linejoin:miter;stroke-opacity:1"/>
<path class="bond-4 atom-4 atom-5" d="M 217.8,69.9 L 200.7,45.7" style="fill:none;fill-rule:evenodd;stroke:#000000;stroke-width:2.0px;stroke-linecap:butt;stroke-linejoin:miter;stroke-opacity:1"/>
<path class="bond-4 atom-4 atom-5" d="M 220.0,65.2 L 205.8,45.2" style="fill:none;fill-rule:evenodd;stroke:#000000;stroke-width:2.0px;stroke-linecap:butt;stroke-linejoin:miter;stroke-opacity:1"/>
<path class="bond-5 atom-5 atom-6" d="M 200.7,45.7 L 210.7,24.0" style="fill:none;fill-rule:evenodd;stroke:#000000;stroke-width:2.0px;stroke-linecap:butt;stroke-linejoin:miter;stroke-opacity:1"/>
<path class="bond-6 atom-6 atom-7" d="M 217.2,18.4 L 242.5,16.1" style="fill:none;fill-rule:evenodd;stroke:#000000;stroke-width:2.0px;stroke-linecap:butt;stroke-linejoin:miter;stroke-opacity:1"/>
<path class="bond-6 atom-6 atom-7" d="M 217.6,22.9 L 240.4,20.7" style="fill:none;fill-rule:evenodd;stroke:#000000;stroke-width:2.0px;stroke-linecap:butt;stroke-linejoin:miter;stroke-opacity:1"/>
<path class="bond-7 atom-7 atom-8" d="M 242.5,16.1 L 259.6,40.2" style="fill:none;fill-rule:evenodd;stroke:#000000;stroke-width:2.0px;stroke-linecap:butt;stroke-linejoin:miter;stroke-opacity:1"/>
<path class="bond-8 atom-8 atom-9" d="M 259.6,40.2 L 289.1,37.5" style="fill:none;fill-rule:evenodd;stroke:#000000;stroke-width:2.0px;stroke-linecap:butt;stroke-linejoin:miter;stroke-opacity:1"/>
<path class="bond-8 atom-8 atom-9" d="M 262.6,44.4 L 287.0,42.2" style="fill:none;fill-rule:evenodd;stroke:#000000;stroke-width:2.0px;stroke-linecap:butt;stroke-linejoin:miter;stroke-opacity:1"/>
<path class="bond-9 atom-9 atom-10" d="M 289.1,37.5 L 306.2,61.6" style="fill:none;fill-rule:evenodd;stroke:#000000;stroke-width:2.0px;stroke-linecap:butt;stroke-linejoin:miter;stroke-opacity:1"/>
<path class="bond-10 atom-10 atom-11" d="M 306.2,61.6 L 293.8,88.5" style="fill:none;fill-rule:evenodd;stroke:#000000;stroke-width:2.0px;stroke-linecap:butt;stroke-linejoin:miter;stroke-opacity:1"/>
<path class="bond-10 atom-10 atom-11" d="M 301.1,62.1 L 290.9,84.3" style="fill:none;fill-rule:evenodd;stroke:#000000;stroke-width:2.0px;stroke-linecap:butt;stroke-linejoin:miter;stroke-opacity:1"/>
<path class="bond-11 atom-11 atom-12" d="M 293.8,88.5 L 264.4,91.3" style="fill:none;fill-rule:evenodd;stroke:#000000;stroke-width:2.0px;stroke-linecap:butt;stroke-linejoin:miter;stroke-opacity:1"/>
<path class="bond-12 atom-12 atom-13" d="M 264.4,91.3 L 247.3,67.1" style="fill:none;fill-rule:evenodd;stroke:#000000;stroke-width:2.0px;stroke-linecap:butt;stroke-linejoin:miter;stroke-opacity:1"/>
<path class="bond-12 atom-12 atom-13" d="M 266.5,86.6 L 252.4,66.6" style="fill:none;fill-rule:evenodd;stroke:#000000;stroke-width:2.0px;stroke-linecap:butt;stroke-linejoin:miter;stroke-opacity:1"/>
<path class="bond-13 atom-3 atom-14" d="M 201.3,97.6 L 176.5,102.5" style="fill:none;fill-rule:evenodd;stroke:#000000;stroke-width:2.0px;stroke-linecap:butt;stroke-linejoin:miter;stroke-opacity:1"/>
<path class="bond-14 atom-14 atom-15" d="M 179.1,102.0 L 161.0,85.3" style="fill:none;fill-rule:evenodd;stroke:#000000;stroke-width:2.0px;stroke-linecap:butt;stroke-linejoin:miter;stroke-opacity:1"/>
<path class="bond-14 atom-14 atom-15" d="M 176.1,105.3 L 158.0,88.6" style="fill:none;fill-rule:evenodd;stroke:#000000;stroke-width:2.0px;stroke-linecap:butt;stroke-linejoin:miter;stroke-opacity:1"/>
<path class="bond-15 atom-14 atom-16" d="M 176.5,102.5 L 173.0,131.9" style="fill:none;fill-rule:evenodd;stroke:#000000;stroke-width:2.0px;stroke-linecap:butt;stroke-linejoin:miter;stroke-opacity:1"/>
<path class="bond-16 atom-16 atom-17" d="M 170.0,129.8 L 169.7,130.3" style="fill:none;fill-rule:evenodd;stroke:#000000;stroke-width:1.0px;stroke-linecap:butt;stroke-linejoin:miter;stroke-opacity:1"/>
<path class="bond-16 atom-16 atom-17" d="M 167.0,127.6 L 166.3,128.7" style="fill:none;fill-rule:evenodd;stroke:#000000;stroke-width:1.0px;stroke-linecap:butt;stroke-linejoin:miter;stroke-opacity:1"/>
<path class="bond-16 atom-16 atom-17" d="M 164.0,125.5 L 163.0,127.1" style="fill:none;fill-rule:evenodd;stroke:#000000;stroke-width:1.0px;stroke-linecap:butt;stroke-linejoin:miter;stroke-opacity:1"/>
<path class="bond-16 atom-16 atom-17" d="M 160.9,123.3 L 159.6,125.5" style="fill:none;fill-rule:evenodd;stroke:#000000;stroke-width:1.0px;stroke-linecap:butt;stroke-linejoin:miter;stroke-opacity:1"/>
<path class="bond-16 atom-16 atom-17" d="M 157.9,121.1 L 156.3,123.9" style="fill:none;fill-rule:evenodd;stroke:#000000;stroke-width:1.0px;stroke-linecap:butt;stroke-linejoin:miter;stroke-opacity:1"/>
<path class="bond-16 atom-16 atom-17" d="M 154.9,119.0 L 153.0,122.2" style="fill:none;fill-rule:evenodd;stroke:#000000;stroke-width:1.0px;stroke-linecap:butt;stroke-linejoin:miter;stroke-opacity:1"/>
<path class="bond-16 atom-16 atom-17" d="M 151.9,116.8 L 149.6,120.6" style="fill:none;fill-rule:evenodd;stroke:#000000;stroke-width:1.0px;stroke-linecap:butt;stroke-linejoin:miter;stroke-opacity:1"/>
<path class="bond-17 atom-17 atom-18" d="M 147.6,116.8 L 125.9,129.0" style="fill:none;fill-rule:evenodd;stroke:#000000;stroke-width:2.0px;stroke-linecap:butt;stroke-linejoin:miter;stroke-opacity:1"/>
<path class="bond-18 atom-18 atom-19" d="M 117.6,128.8 L 96.3,116.2" style="fill:none;fill-rule:evenodd;stroke:#000000;stroke-width:2.0px;stroke-linecap:butt;stroke-linejoin:miter;stroke-opacity:1"/>
<path class="bond-19 atom-19 atom-20" d="M 96.3,116.2 L 96.7,86.6" style="fill:none;fill-rule:evenodd;stroke:#000000;stroke-width:2.0px;stroke-linecap:butt;stroke-linejoin:miter;stroke-opacity:1"/>
<path class="bond-20 atom-20 atom-21" d="M 96.7,86.6 L 75.4,74.0" style="fill:none;fill-rule:evenodd;stroke:#000000;stroke-width:2.0px;stroke-linecap:butt;stroke-linejoin:miter;stroke-opacity:1"/>
<path class="bond-21 atom-21 atom-22" d="M 71.3,66.4 L 71.6,41.9" style="fill:none;fill-rule:evenodd;stroke:#000000;stroke-width:2.0px;stroke-linecap:butt;stroke-linejoin:miter;stroke-opacity:1"/>
<path class="bond-22 atom-22 atom-23" d="M 71.6,41.9 L 46.1,26.8" style="fill:none;fill-rule:evenodd;stroke:#000000;stroke-width:2.0px;stroke-linecap:butt;stroke-linejoin:miter;stroke-opacity:1"/>
<path class="bond-23 atom-23 atom-24" d="M 46.1,26.8 L 25.2,38.6" style="fill:none;fill-rule:evenodd;stroke:#000000;stroke-width:2.0px;stroke-linecap:butt;stroke-linejoin:miter;stroke-opacity:1"/>
<path class="bond-24 atom-24 atom-25" d="M 20.3,46.7 L 20.0,70.9" style="fill:none;fill-rule:evenodd;stroke:#000000;stroke-width:2.0px;stroke-linecap:butt;stroke-linejoin:miter;stroke-opacity:1"/>
<path class="bond-25 atom-25 atom-26" d="M 20.0,70.9 L 45.4,86.0" style="fill:none;fill-rule:evenodd;stroke:#000000;stroke-width:2.0px;stroke-linecap:butt;stroke-linejoin:miter;stroke-opacity:1"/>
<path class="bond-26 atom-18 atom-27" d="M 121.7,136.5 L 121.4,160.9" style="fill:none;fill-rule:evenodd;stroke:#000000;stroke-width:2.0px;stroke-linecap:butt;stroke-linejoin:miter;stroke-opacity:1"/>
<path class="bond-27 atom-27 atom-28" d="M 121.4,158.3 L 99.3,170.7" style="fill:none;fill-rule:evenodd;stroke:#000000;stroke-width:2.0px;stroke-linecap:butt;stroke-linejoin:miter;stroke-opacity:1"/>
<path class="bond-27 atom-27 atom-28" d="M 123.6,162.2 L 101.5,174.6" style="fill:none;fill-rule:evenodd;stroke:#000000;stroke-width:2.0px;stroke-linecap:butt;stroke-linejoin:miter;stroke-opacity:1"/>
<path class="bond-28 atom-27 atom-29" d="M 121.4,160.9 L 146.8,176.0" style="fill:none;fill-rule:evenodd;stroke:#000000;stroke-width:2.0px;stroke-linecap:butt;stroke-linejoin:miter;stroke-opacity:1"/>
<path class="bond-29 atom-29 atom-30" d="M 146.8,176.0 L 146.5,205.6" style="fill:none;fill-rule:evenodd;stroke:#000000;stroke-width:2.0px;stroke-linecap:butt;stroke-linejoin:miter;stroke-opacity:1"/>
<path class="bond-29 atom-29 atom-30" d="M 151.3,178.6 L 151.0,203.1" style="fill:none;fill-rule:evenodd;stroke:#000000;stroke-width:2.0px;stroke-linecap:butt;stroke-linejoin:miter;stroke-opacity:1"/>
<path class="bond-30 atom-30 atom-31" d="M 146.5,205.6 L 171.9,220.7" style="fill:none;fill-rule:evenodd;stroke:#000000;stroke-width:2.0px;stroke-linecap:butt;stroke-linejoin:miter;stroke-opacity:1"/>
<path class="bond-31 atom-31 atom-32" d="M 171.9,220.7 L 197.7,206.2" style="fill:none;fill-rule:evenodd;stroke:#000000;stroke-width:2.0px;stroke-linecap:butt;stroke-linejoin:miter;stroke-opacity:1"/>
<path class="bond-31 atom-31 atom-32" d="M 172.0,215.6 L 193.3,203.6" style="fill:none;fill-rule:evenodd;stroke:#000000;stroke-width:2.0px;stroke-linecap:butt;stroke-linejoin:miter;stroke-opacity:1"/>
<path class="bond-32 atom-32 atom-33" d="M 197.7,206.2 L 219.0,218.8" style="fill:none;fill-rule:evenodd;stroke:#000000;stroke-width:2.0px;stroke-linecap:butt;stroke-linejoin:miter;stroke-opacity:1"/>
<path class="bond-33 atom-32 atom-34" d="M 197.7,206.2 L 198.1,176.6" style="fill:none;fill-rule:evenodd;stroke:#000000;stroke-width:2.0px;stroke-linecap:butt;stroke-linejoin:miter;stroke-opacity:1"/>
<path class="bond-34 atom-34 atom-35" d="M 198.1,176.6 L 172.6,161.5" style="fill:none;fill-rule:evenodd;stroke:#000000;stroke-width:2.0px;stroke-linecap:butt;stroke-linejoin:miter;stroke-opacity:1"/>
<path class="bond-34 atom-34 atom-35" d="M 193.6,179.1 L 172.6,166.6" style="fill:none;fill-rule:evenodd;stroke:#000000;stroke-width:2.0px;stroke-linecap:butt;stroke-linejoin:miter;stroke-opacity:1"/>
<path class="bond-35 atom-16 atom-1" d="M 173.0,131.9 L 199.9,144.3" style="fill:none;fill-rule:evenodd;stroke:#000000;stroke-width:2.0px;stroke-linecap:butt;stroke-linejoin:miter;stroke-opacity:1"/>
<path class="bond-36 atom-26 atom-21" d="M 45.4,86.0 L 67.1,73.8" style="fill:none;fill-rule:evenodd;stroke:#000000;stroke-width:2.0px;stroke-linecap:butt;stroke-linejoin:miter;stroke-opacity:1"/>
<path class="bond-37 atom-35 atom-29" d="M 172.6,161.5 L 146.8,176.0" style="fill:none;fill-rule:evenodd;stroke:#000000;stroke-width:2.0px;stroke-linecap:butt;stroke-linejoin:miter;stroke-opacity:1"/>
<path class="bond-38 atom-13 atom-4" d="M 247.3,67.1 L 217.8,69.9" style="fill:none;fill-rule:evenodd;stroke:#000000;stroke-width:2.0px;stroke-linecap:butt;stroke-linejoin:miter;stroke-opacity:1"/>
<path class="bond-39 atom-35 atom-16" d="M 172.6,161.5 L 173.0,131.9" style="fill:none;fill-rule:evenodd;stroke:#000000;stroke-width:2.0px;stroke-linecap:butt;stroke-linejoin:miter;stroke-opacity:1"/>
<path class="bond-40 atom-13 atom-8" d="M 247.3,67.1 L 259.6,40.2" style="fill:none;fill-rule:evenodd;stroke:#000000;stroke-width:2.0px;stroke-linecap:butt;stroke-linejoin:miter;stroke-opacity:1"/>
<path d="M 200.9,143.2 L 199.9,144.3 L 198.5,143.7" style="fill:none;stroke:#000000;stroke-width:2.0px;stroke-linecap:butt;stroke-linejoin:miter;stroke-miterlimit:10;stroke-opacity:1;"/>
<path d="M 218.9,123.6 L 219.9,122.5 L 219.4,121.5" style="fill:none;stroke:#000000;stroke-width:2.0px;stroke-linecap:butt;stroke-linejoin:miter;stroke-miterlimit:10;stroke-opacity:1;"/>
<path d="M 201.6,46.9 L 200.7,45.7 L 201.2,44.6" style="fill:none;stroke:#000000;stroke-width:2.0px;stroke-linecap:butt;stroke-linejoin:miter;stroke-miterlimit:10;stroke-opacity:1;"/>
<path d="M 241.3,16.2 L 242.5,16.1 L 243.4,17.3" style="fill:none;stroke:#000000;stroke-width:2.0px;stroke-linecap:butt;stroke-linejoin:miter;stroke-miterlimit:10;stroke-opacity:1;"/>
<path d="M 287.6,37.6 L 289.1,37.5 L 290.0,38.7" style="fill:none;stroke:#000000;stroke-width:2.0px;stroke-linecap:butt;stroke-linejoin:miter;stroke-miterlimit:10;stroke-opacity:1;"/>
<path d="M 305.4,60.4 L 306.2,61.6 L 305.6,63.0" style="fill:none;stroke:#000000;stroke-width:2.0px;stroke-linecap:butt;stroke-linejoin:miter;stroke-miterlimit:10;stroke-opacity:1;"/>
<path d="M 294.5,87.2 L 293.8,88.5 L 292.4,88.7" style="fill:none;stroke:#000000;stroke-width:2.0px;stroke-linecap:butt;stroke-linejoin:miter;stroke-miterlimit:10;stroke-opacity:1;"/>
<path d="M 265.9,91.1 L 264.4,91.3 L 263.5,90.1" style="fill:none;stroke:#000000;stroke-width:2.0px;stroke-linecap:butt;stroke-linejoin:miter;stroke-miterlimit:10;stroke-opacity:1;"/>
<path d="M 177.7,102.3 L 176.5,102.5 L 176.3,104.0" style="fill:none;stroke:#000000;stroke-width:2.0px;stroke-linecap:butt;stroke-linejoin:miter;stroke-miterlimit:10;stroke-opacity:1;"/>
<path d="M 97.4,116.8 L 96.3,116.2 L 96.3,114.7" style="fill:none;stroke:#000000;stroke-width:2.0px;stroke-linecap:butt;stroke-linejoin:miter;stroke-miterlimit:10;stroke-opacity:1;"/>
<path d="M 96.7,88.1 L 96.7,86.6 L 95.6,86.0" style="fill:none;stroke:#000000;stroke-width:2.0px;stroke-linecap:butt;stroke-linejoin:miter;stroke-miterlimit:10;stroke-opacity:1;"/>
<path d="M 71.6,43.2 L 71.6,41.9 L 70.3,41.2" style="fill:none;stroke:#000000;stroke-width:2.0px;stroke-linecap:butt;stroke-linejoin:miter;stroke-miterlimit:10;stroke-opacity:1;"/>
<path d="M 47.4,27.6 L 46.1,26.8 L 45.1,27.4" style="fill:none;stroke:#000000;stroke-width:2.0px;stroke-linecap:butt;stroke-linejoin:miter;stroke-miterlimit:10;stroke-opacity:1;"/>
<path d="M 20.0,69.7 L 20.0,70.9 L 21.3,71.7" style="fill:none;stroke:#000000;stroke-width:2.0px;stroke-linecap:butt;stroke-linejoin:miter;stroke-miterlimit:10;stroke-opacity:1;"/>
<path d="M 44.2,85.2 L 45.4,86.0 L 46.5,85.4" style="fill:none;stroke:#000000;stroke-width:2.0px;stroke-linecap:butt;stroke-linejoin:miter;stroke-miterlimit:10;stroke-opacity:1;"/>
<path d="M 121.4,159.7 L 121.4,160.9 L 122.7,161.6" style="fill:none;stroke:#000000;stroke-width:2.0px;stroke-linecap:butt;stroke-linejoin:miter;stroke-miterlimit:10;stroke-opacity:1;"/>
<path d="M 146.5,204.1 L 146.5,205.6 L 147.8,206.3" style="fill:none;stroke:#000000;stroke-width:2.0px;stroke-linecap:butt;stroke-linejoin:miter;stroke-miterlimit:10;stroke-opacity:1;"/>
<path d="M 170.7,219.9 L 171.9,220.7 L 173.2,220.0" style="fill:none;stroke:#000000;stroke-width:2.0px;stroke-linecap:butt;stroke-linejoin:miter;stroke-miterlimit:10;stroke-opacity:1;"/>
<path d="M 198.1,178.1 L 198.1,176.6 L 196.8,175.9" style="fill:none;stroke:#000000;stroke-width:2.0px;stroke-linecap:butt;stroke-linejoin:miter;stroke-miterlimit:10;stroke-opacity:1;"/>
<path class="atom-3" d="M 203.6 92.6 L 206.4 97.0 Q 206.6 97.4, 207.1 98.2 Q 207.5 99.0, 207.5 99.1 L 207.5 92.6 L 208.6 92.6 L 208.6 100.9 L 207.5 100.9 L 204.5 96.1 Q 204.2 95.5, 203.8 94.9 Q 203.5 94.2, 203.4 94.0 L 203.4 100.9 L 202.3 100.9 L 202.3 92.6 L 203.6 92.6 " fill="#000000"/>
<path class="atom-6" d="M 211.2 14.6 L 214.0 19.1 Q 214.3 19.5, 214.7 20.3 Q 215.1 21.1, 215.2 21.1 L 215.2 14.6 L 216.3 14.6 L 216.3 23.0 L 215.1 23.0 L 212.2 18.2 Q 211.8 17.6, 211.5 16.9 Q 211.1 16.3, 211.0 16.1 L 211.0 23.0 L 209.9 23.0 L 209.9 14.6 L 211.2 14.6 " fill="#000000"/>
<path class="atom-15" d="M 150.9 82.5 Q 150.9 80.5, 151.9 79.4 Q 152.8 78.2, 154.7 78.2 Q 156.6 78.2, 157.6 79.4 Q 158.6 80.5, 158.6 82.5 Q 158.6 84.5, 157.5 85.7 Q 156.5 86.8, 154.7 86.8 Q 152.9 86.8, 151.9 85.7 Q 150.9 84.5, 150.9 82.5 M 154.7 85.9 Q 156.0 85.9, 156.7 85.0 Q 157.4 84.2, 157.4 82.5 Q 157.4 80.9, 156.7 80.0 Q 156.0 79.2, 154.7 79.2 Q 153.4 79.2, 152.7 80.0 Q 152.0 80.8, 152.0 82.5 Q 152.0 84.2, 152.7 85.0 Q 153.4 85.9, 154.7 85.9 " fill="#000000"/>
<path class="atom-18" d="M 119.9 127.1 L 122.7 131.6 Q 122.9 132.0, 123.4 132.8 Q 123.8 133.6, 123.8 133.6 L 123.8 127.1 L 124.9 127.1 L 124.9 135.5 L 123.8 135.5 L 120.8 130.6 Q 120.5 130.1, 120.1 129.4 Q 119.8 128.8, 119.7 128.6 L 119.7 135.5 L 118.6 135.5 L 118.6 127.1 L 119.9 127.1 " fill="#000000"/>
<path class="atom-21" d="M 69.4 67.3 L 72.1 71.8 Q 72.4 72.2, 72.8 73.0 Q 73.3 73.8, 73.3 73.8 L 73.3 67.3 L 74.4 67.3 L 74.4 75.7 L 73.3 75.7 L 70.3 70.9 Q 70.0 70.3, 69.6 69.6 Q 69.2 69.0, 69.1 68.8 L 69.1 75.7 L 68.1 75.7 L 68.1 67.3 L 69.4 67.3 " fill="#000000"/>
<path class="atom-24" d="M 16.5 41.3 Q 16.5 39.3, 17.5 38.2 Q 18.5 37.1, 20.3 37.1 Q 22.2 37.1, 23.2 38.2 Q 24.2 39.3, 24.2 41.3 Q 24.2 43.4, 23.2 44.5 Q 22.2 45.7, 20.3 45.7 Q 18.5 45.7, 17.5 44.5 Q 16.5 43.4, 16.5 41.3 M 20.3 44.7 Q 21.6 44.7, 22.3 43.9 Q 23.0 43.0, 23.0 41.3 Q 23.0 39.7, 22.3 38.9 Q 21.6 38.0, 20.3 38.0 Q 19.1 38.0, 18.4 38.8 Q 17.7 39.7, 17.7 41.3 Q 17.7 43.0, 18.4 43.9 Q 19.1 44.7, 20.3 44.7 " fill="#000000"/>
<path class="atom-28" d="M 91.8 175.4 Q 91.8 173.4, 92.7 172.3 Q 93.7 171.1, 95.6 171.1 Q 97.5 171.1, 98.5 172.3 Q 99.4 173.4, 99.4 175.4 Q 99.4 177.4, 98.4 178.6 Q 97.4 179.7, 95.6 179.7 Q 93.8 179.7, 92.7 178.6 Q 91.8 177.4, 91.8 175.4 M 95.6 178.8 Q 96.9 178.8, 97.6 177.9 Q 98.3 177.1, 98.3 175.4 Q 98.3 173.8, 97.6 172.9 Q 96.9 172.1, 95.6 172.1 Q 94.3 172.1, 93.6 172.9 Q 92.9 173.7, 92.9 175.4 Q 92.9 177.1, 93.6 177.9 Q 94.3 178.8, 95.6 178.8 " fill="#000000"/>
<path class="atom-33" d="M 219.9 221.6 Q 219.9 219.5, 220.9 218.4 Q 221.9 217.3, 223.8 217.3 Q 225.5 217.3, 226.4 218.5 L 225.6 219.2 Q 224.9 218.3, 223.8 218.3 Q 222.5 218.3, 221.8 219.1 Q 221.1 220.0, 221.1 221.6 Q 221.1 223.3, 221.8 224.1 Q 222.5 225.0, 223.9 225.0 Q 224.8 225.0, 225.9 224.4 L 226.2 225.3 Q 225.8 225.6, 225.1 225.7 Q 224.5 225.9, 223.7 225.9 Q 221.9 225.9, 220.9 224.8 Q 219.9 223.7, 219.9 221.6 " fill="#000000"/>
<path class="atom-33" d="M 227.3 216.8 L 228.3 216.8 L 228.3 225.8 L 227.3 225.8 L 227.3 216.8 " fill="#000000"/>
<path class="legend" d="M 32.7 239.9 Q 34.4 239.9, 35.4 241.0 Q 36.3 242.0, 36.3 244.0 Q 36.3 246.1, 35.2 247.3 Q 34.1 248.4, 32.1 248.4 Q 31.2 248.4, 30.4 248.2 L 30.4 252.2 L 28.9 252.2 L 28.9 240.1 L 30.1 240.1 L 30.3 241.0 Q 30.7 240.5, 31.3 240.2 Q 31.9 239.9, 32.7 239.9 M 32.1 247.2 Q 33.3 247.2, 34.1 246.4 Q 34.8 245.5, 34.8 244.0 Q 34.8 242.6, 34.2 241.9 Q 33.6 241.1, 32.6 241.1 Q 31.8 241.1, 31.2 241.5 Q 30.6 242.0, 30.4 242.7 L 30.4 247.0 Q 31.2 247.2, 32.1 247.2 " fill="#000000"/>
<path class="legend" d="M 38.7 240.1 L 38.9 241.2 Q 39.7 239.9, 41.2 239.9 Q 41.6 239.9, 42.2 240.1 L 42.0 241.4 Q 41.3 241.3, 40.9 241.3 Q 40.2 241.3, 39.8 241.5 Q 39.3 241.8, 39.0 242.4 L 39.0 248.3 L 37.5 248.3 L 37.5 240.1 L 38.7 240.1 " fill="#000000"/>
<path class="legend" d="M 42.9 244.2 Q 42.9 242.1, 43.9 241.0 Q 44.9 239.9, 46.8 239.9 Q 48.6 239.9, 49.4 241.0 Q 50.2 242.1, 50.2 244.1 L 50.2 244.4 L 44.4 244.4 Q 44.5 245.8, 45.1 246.5 Q 45.7 247.2, 46.9 247.2 Q 47.5 247.2, 48.1 247.1 Q 48.7 246.9, 49.4 246.6 L 49.9 247.6 Q 49.0 248.0, 48.3 248.2 Q 47.6 248.4, 46.8 248.4 Q 45.0 248.4, 43.9 247.3 Q 42.9 246.2, 42.9 244.2 M 46.8 241.1 Q 45.8 241.1, 45.2 241.6 Q 44.7 242.2, 44.5 243.2 L 48.6 243.2 Q 48.5 242.1, 48.0 241.6 Q 47.6 241.1, 46.8 241.1 " fill="#000000"/>
<path class="legend" d="M 58.7 236.1 L 58.7 248.3 L 57.5 248.3 L 57.3 247.3 Q 56.4 248.4, 54.9 248.4 Q 53.2 248.4, 52.2 247.4 Q 51.2 246.3, 51.2 244.3 Q 51.2 242.2, 52.4 241.1 Q 53.5 239.9, 55.5 239.9 Q 56.3 239.9, 57.2 240.1 L 57.2 236.1 L 58.7 236.1 M 55.0 247.2 Q 55.8 247.2, 56.4 246.8 Q 57.0 246.3, 57.2 245.5 L 57.2 241.3 Q 56.4 241.1, 55.5 241.1 Q 54.2 241.1, 53.5 241.9 Q 52.8 242.8, 52.8 244.3 Q 52.8 245.7, 53.3 246.5 Q 53.9 247.2, 55.0 247.2 " fill="#000000"/>
<path class="legend" d="M 60.5 246.7 L 62.1 246.7 L 62.1 248.3 L 60.5 248.3 L 60.5 246.7 " fill="#000000"/>
<path class="legend" d="" fill="#000000"/>
<path class="legend" d="M 73.2 239.9 Q 74.9 239.9, 75.8 241.0 Q 76.8 242.0, 76.8 244.0 Q 76.8 246.1, 75.6 247.3 Q 74.5 248.4, 72.6 248.4 Q 71.6 248.4, 70.8 248.2 L 70.8 252.2 L 69.3 252.2 L 69.3 240.1 L 70.6 240.1 L 70.7 241.0 Q 71.2 240.5, 71.8 240.2 Q 72.4 239.9, 73.2 239.9 M 72.5 247.2 Q 73.8 247.2, 74.5 246.4 Q 75.2 245.5, 75.2 244.0 Q 75.2 242.6, 74.7 241.9 Q 74.1 241.1, 73.1 241.1 Q 72.3 241.1, 71.7 241.5 Q 71.1 242.0, 70.8 242.7 L 70.8 247.0 Q 71.7 247.2, 72.5 247.2 " fill="#000000"/>
<path class="legend" d="M 78.0 236.9 L 79.5 236.9 L 79.5 248.3 L 78.0 248.3 L 78.0 236.9 " fill="#000000"/>
<path class="legend" d="M 88.0 245.0 Q 88.0 246.1, 87.4 246.9 Q 86.7 247.6, 85.5 247.8 L 85.5 249.6 L 84.2 249.6 L 84.2 247.9 Q 83.0 247.8, 81.5 247.2 L 81.3 247.1 L 81.8 245.8 L 82.1 246.0 Q 82.7 246.2, 83.3 246.4 Q 83.8 246.5, 84.5 246.5 Q 85.4 246.5, 85.9 246.1 Q 86.5 245.7, 86.5 245.0 Q 86.5 244.5, 86.2 244.2 Q 85.9 243.9, 85.5 243.7 Q 85.1 243.5, 84.4 243.3 Q 83.5 243.1, 82.9 242.8 Q 82.4 242.6, 82.0 242.0 Q 81.6 241.5, 81.6 240.6 Q 81.6 239.5, 82.2 238.7 Q 82.9 238.0, 84.2 237.8 L 84.2 235.9 L 85.5 235.9 L 85.5 237.7 Q 86.6 237.8, 87.7 238.3 L 87.4 239.6 Q 86.1 239.1, 85.2 239.1 Q 84.2 239.1, 83.7 239.4 Q 83.2 239.8, 83.2 240.4 Q 83.2 240.9, 83.4 241.2 Q 83.7 241.5, 84.1 241.6 Q 84.5 241.8, 85.2 242.0 Q 86.1 242.3, 86.7 242.6 Q 87.2 242.8, 87.6 243.4 Q 88.0 244.0, 88.0 245.0 " fill="#000000"/>
<path class="legend" d="M 97.8 249.1 L 97.8 250.4 L 89.6 250.4 L 89.6 249.1 L 97.8 249.1 " fill="#000000"/>
<path class="legend" d="M 102.3 241.2 Q 103.3 241.2, 104.1 241.6 Q 105.0 242.0, 105.4 242.8 Q 105.9 243.6, 105.9 244.7 Q 105.9 245.9, 105.3 246.7 Q 104.7 247.5, 103.8 248.0 Q 102.9 248.4, 101.8 248.4 Q 100.8 248.4, 99.8 248.0 Q 98.9 247.6, 98.2 246.9 L 99.2 245.9 Q 99.7 246.5, 100.4 246.8 Q 101.1 247.1, 101.9 247.1 Q 102.9 247.1, 103.6 246.5 Q 104.3 245.9, 104.3 244.7 Q 104.3 243.5, 103.6 243.0 Q 102.9 242.4, 101.8 242.4 Q 100.8 242.4, 99.7 242.8 L 98.8 242.4 L 99.4 237.0 L 105.2 237.0 L 105.0 238.2 L 100.7 238.2 L 100.3 241.6 Q 101.3 241.2, 102.3 241.2 " fill="#000000"/>
<path class="legend" d="M 113.8 245.0 Q 113.8 246.1, 113.1 246.9 Q 112.5 247.6, 111.3 247.8 L 111.3 249.6 L 110.0 249.6 L 110.0 247.9 Q 108.8 247.8, 107.3 247.2 L 107.1 247.1 L 107.6 245.8 L 107.9 246.0 Q 108.5 246.2, 109.0 246.4 Q 109.6 246.5, 110.2 246.5 Q 111.2 246.5, 111.7 246.1 Q 112.2 245.7, 112.2 245.0 Q 112.2 244.5, 112.0 244.2 Q 111.7 243.9, 111.3 243.7 Q 110.8 243.5, 110.1 243.3 Q 109.2 243.1, 108.7 242.8 Q 108.1 242.6, 107.7 242.0 Q 107.3 241.5, 107.3 240.6 Q 107.3 239.5, 108.0 238.7 Q 108.7 238.0, 110.0 237.8 L 110.0 235.9 L 111.3 235.9 L 111.3 237.7 Q 112.4 237.8, 113.5 238.3 L 113.1 239.6 Q 111.9 239.1, 110.9 239.1 Q 110.0 239.1, 109.5 239.4 Q 108.9 239.8, 108.9 240.4 Q 108.9 240.9, 109.2 241.2 Q 109.5 241.5, 109.9 241.6 Q 110.3 241.8, 111.0 242.0 Q 111.9 242.3, 112.4 242.6 Q 113.0 242.8, 113.4 243.4 Q 113.8 244.0, 113.8 245.0 " fill="#000000"/>
<path class="legend" d="M 115.4 246.4 L 117.0 246.4 L 117.0 248.0 L 115.4 248.0 L 115.4 246.4 M 115.4 240.9 L 117.0 240.9 L 117.0 242.5 L 115.4 242.5 L 115.4 240.9 " fill="#000000"/>
<path class="legend" d="" fill="#000000"/>
<path class="legend" d="M 130.3 238.2 L 124.4 238.2 L 124.4 237.0 L 131.9 237.0 L 131.9 238.1 L 127.4 248.3 L 125.8 248.3 L 130.3 238.2 " fill="#000000"/>
<path class="legend" d="M 132.8 246.7 L 134.4 246.7 L 134.4 248.3 L 132.8 248.3 L 132.8 246.7 " fill="#000000"/>
<path class="legend" d="M 140.1 241.2 Q 141.0 241.2, 141.9 241.6 Q 142.7 242.0, 143.1 242.8 Q 143.6 243.6, 143.6 244.7 Q 143.6 245.9, 143.0 246.7 Q 142.5 247.5, 141.5 248.0 Q 140.6 248.4, 139.6 248.4 Q 138.5 248.4, 137.6 248.0 Q 136.6 247.6, 135.9 246.9 L 136.9 245.9 Q 137.4 246.5, 138.2 246.8 Q 138.9 247.1, 139.6 247.1 Q 140.6 247.1, 141.3 246.5 Q 142.0 245.9, 142.0 244.7 Q 142.0 243.5, 141.3 243.0 Q 140.6 242.4, 139.5 242.4 Q 138.5 242.4, 137.4 242.8 L 136.5 242.4 L 137.1 237.0 L 142.9 237.0 L 142.7 238.2 L 138.4 238.2 L 138.1 241.6 Q 139.1 241.2, 140.1 241.2 " fill="#000000"/>
<path class="legend" d="M 149.3 241.2 Q 150.3 241.2, 151.0 241.6 Q 151.8 242.1, 152.3 242.9 Q 152.7 243.6, 152.7 244.6 Q 152.7 245.7, 152.2 246.6 Q 151.7 247.4, 150.8 247.9 Q 150.0 248.4, 148.9 248.4 Q 146.9 248.4, 145.8 247.0 Q 144.8 245.7, 144.8 243.0 Q 144.8 239.9, 146.1 238.4 Q 147.3 236.8, 149.8 236.8 Q 150.5 236.8, 151.1 237.0 Q 151.7 237.1, 152.2 237.5 L 151.6 238.6 Q 150.8 238.1, 149.8 238.1 Q 148.2 238.1, 147.4 239.1 Q 146.5 240.2, 146.4 242.3 Q 147.0 241.8, 147.7 241.5 Q 148.5 241.2, 149.3 241.2 M 148.9 247.1 Q 149.5 247.1, 150.0 246.8 Q 150.5 246.5, 150.8 245.9 Q 151.1 245.3, 151.1 244.6 Q 151.1 243.6, 150.5 243.1 Q 150.0 242.5, 149.0 242.5 Q 148.3 242.5, 147.6 242.8 Q 146.9 243.0, 146.4 243.5 Q 146.5 245.4, 147.1 246.2 Q 147.7 247.1, 148.9 247.1 " fill="#000000"/>
<path class="legend" d="" fill="#000000"/>
<path class="legend" d="" fill="#000000"/>
<path class="legend" d="" fill="#000000"/>
<path class="legend" d="" fill="#000000"/>
<path class="legend" d="" fill="#000000"/>
<path class="legend" d="M 183.0 244.2 Q 183.0 242.1, 184.0 241.0 Q 185.0 239.9, 186.8 239.9 Q 188.6 239.9, 189.4 241.0 Q 190.2 242.1, 190.2 244.1 L 190.2 244.4 L 184.5 244.4 Q 184.5 245.8, 185.2 246.5 Q 185.8 247.2, 187.0 247.2 Q 187.6 247.2, 188.2 247.1 Q 188.8 246.9, 189.5 246.6 L 189.9 247.6 Q 189.1 248.0, 188.4 248.2 Q 187.6 248.4, 186.9 248.4 Q 185.0 248.4, 184.0 247.3 Q 183.0 246.2, 183.0 244.2 M 186.8 241.1 Q 185.9 241.1, 185.3 241.6 Q 184.7 242.2, 184.6 243.2 L 188.7 243.2 Q 188.6 242.1, 188.1 241.6 Q 187.7 241.1, 186.8 241.1 " fill="#000000"/>
<path class="legend" d="M 194.3 244.0 L 191.5 240.1 L 193.3 240.1 L 195.2 242.9 L 197.2 240.1 L 198.8 240.1 L 196.0 244.0 L 199.1 248.3 L 197.3 248.3 L 195.1 245.2 L 192.9 248.3 L 191.3 248.3 L 194.3 244.0 " fill="#000000"/>
<path class="legend" d="M 203.5 239.9 Q 205.2 239.9, 206.1 241.0 Q 207.1 242.0, 207.1 244.0 Q 207.1 246.1, 206.0 247.3 Q 204.9 248.4, 202.9 248.4 Q 202.0 248.4, 201.2 248.2 L 201.2 252.2 L 199.7 252.2 L 199.7 240.1 L 200.9 240.1 L 201.1 241.0 Q 201.5 240.5, 202.1 240.2 Q 202.7 239.9, 203.5 239.9 M 202.9 247.2 Q 204.1 247.2, 204.9 246.4 Q 205.6 245.5, 205.6 244.0 Q 205.6 242.6, 205.0 241.9 Q 204.4 241.1, 203.4 241.1 Q 202.6 241.1, 202.0 241.5 Q 201.4 242.0, 201.2 242.7 L 201.2 247.0 Q 202.0 247.2, 202.9 247.2 " fill="#000000"/>
<path class="legend" d="M 208.3 246.7 L 209.9 246.7 L 209.9 248.3 L 208.3 248.3 L 208.3 246.7 " fill="#000000"/>
<path class="legend" d="" fill="#000000"/>
<path class="legend" d="M 221.0 239.9 Q 222.7 239.9, 223.6 241.0 Q 224.6 242.0, 224.6 244.0 Q 224.6 246.1, 223.5 247.3 Q 222.4 248.4, 220.4 248.4 Q 219.5 248.4, 218.7 248.2 L 218.7 252.2 L 217.2 252.2 L 217.2 240.1 L 218.4 240.1 L 218.6 241.0 Q 219.0 240.5, 219.6 240.2 Q 220.2 239.9, 221.0 239.9 M 220.4 247.2 Q 221.6 247.2, 222.4 246.4 Q 223.1 245.5, 223.1 244.0 Q 223.1 242.6, 222.5 241.9 Q 221.9 241.1, 220.9 241.1 Q 220.1 241.1, 219.5 241.5 Q 218.9 242.0, 218.7 242.7 L 218.7 247.0 Q 219.5 247.2, 220.4 247.2 " fill="#000000"/>
<path class="legend" d="M 225.8 236.9 L 227.3 236.9 L 227.3 248.3 L 225.8 248.3 L 225.8 236.9 " fill="#000000"/>
<path class="legend" d="M 229.2 242.6 Q 229.2 239.8, 230.5 238.3 Q 231.8 236.8, 234.3 236.8 Q 236.7 236.8, 237.9 238.5 L 236.8 239.3 Q 235.9 238.1, 234.3 238.1 Q 232.6 238.1, 231.7 239.3 Q 230.8 240.4, 230.8 242.6 Q 230.8 244.8, 231.7 246.0 Q 232.7 247.1, 234.5 247.1 Q 235.7 247.1, 237.2 246.4 L 237.6 247.6 Q 237.1 248.0, 236.2 248.2 Q 235.3 248.4, 234.3 248.4 Q 231.8 248.4, 230.5 246.9 Q 229.2 245.4, 229.2 242.6 " fill="#000000"/>
<path class="legend" d="M 243.1 241.2 Q 244.1 241.2, 244.9 241.6 Q 245.7 242.0, 246.2 242.8 Q 246.7 243.6, 246.7 244.7 Q 246.7 245.9, 246.1 246.7 Q 245.5 247.5, 244.6 248.0 Q 243.7 248.4, 242.6 248.4 Q 241.6 248.4, 240.6 248.0 Q 239.7 247.6, 239.0 246.9 L 240.0 245.9 Q 240.5 246.5, 241.2 246.8 Q 241.9 247.1, 242.7 247.1 Q 243.7 247.1, 244.4 246.5 Q 245.1 245.9, 245.1 244.7 Q 245.1 243.5, 244.4 243.0 Q 243.7 242.4, 242.6 242.4 Q 241.6 242.4, 240.5 242.8 L 239.6 242.4 L 240.1 237.0 L 246.0 237.0 L 245.8 238.2 L 241.4 238.2 L 241.1 241.6 Q 242.1 241.2, 243.1 241.2 " fill="#000000"/>
<path class="legend" d="M 252.0 248.4 Q 249.9 248.4, 248.9 246.9 Q 247.9 245.3, 247.9 242.6 Q 247.9 239.9, 248.9 238.3 Q 249.9 236.8, 252.0 236.8 Q 254.1 236.8, 255.1 238.3 Q 256.2 239.9, 256.2 242.6 Q 256.2 245.3, 255.1 246.9 Q 254.1 248.4, 252.0 248.4 M 252.0 247.1 Q 253.3 247.1, 253.9 246.0 Q 254.6 244.8, 254.6 242.6 Q 254.6 240.4, 253.9 239.2 Q 253.3 238.1, 252.0 238.1 Q 250.8 238.1, 250.1 239.2 Q 249.5 240.4, 249.5 242.6 Q 249.5 244.8, 250.1 246.0 Q 250.8 247.1, 252.0 247.1 " fill="#000000"/>
<path class="legend" d="M 257.7 246.4 L 259.3 246.4 L 259.3 248.0 L 257.7 248.0 L 257.7 246.4 M 257.7 240.9 L 259.3 240.9 L 259.3 242.5 L 257.7 242.5 L 257.7 240.9 " fill="#000000"/>
<path class="legend" d="" fill="#000000"/>
<path class="legend" d="M 272.6 238.2 L 266.7 238.2 L 266.7 237.0 L 274.2 237.0 L 274.2 238.1 L 269.7 248.3 L 268.1 248.3 L 272.6 238.2 " fill="#000000"/>
<path class="legend" d="M 275.2 246.7 L 276.8 246.7 L 276.8 248.3 L 275.2 248.3 L 275.2 246.7 " fill="#000000"/>
<path class="legend" d="M 282.7 241.2 Q 283.7 241.2, 284.5 241.6 Q 285.2 242.1, 285.7 242.9 Q 286.1 243.6, 286.1 244.6 Q 286.1 245.7, 285.6 246.6 Q 285.1 247.4, 284.3 247.9 Q 283.4 248.4, 282.3 248.4 Q 280.3 248.4, 279.3 247.0 Q 278.2 245.7, 278.2 243.0 Q 278.2 239.9, 279.5 238.4 Q 280.8 236.8, 283.2 236.8 Q 283.9 236.8, 284.5 237.0 Q 285.1 237.1, 285.7 237.5 L 285.0 238.6 Q 284.2 238.1, 283.2 238.1 Q 281.6 238.1, 280.8 239.1 Q 280.0 240.2, 279.9 242.3 Q 280.4 241.8, 281.2 241.5 Q 281.9 241.2, 282.7 241.2 M 282.3 247.1 Q 282.9 247.1, 283.4 246.8 Q 283.9 246.5, 284.2 245.9 Q 284.5 245.3, 284.5 244.6 Q 284.5 243.6, 283.9 243.1 Q 283.4 242.5, 282.4 242.5 Q 281.7 242.5, 281.0 242.8 Q 280.3 243.0, 279.9 243.5 Q 279.9 245.4, 280.5 246.2 Q 281.1 247.1, 282.3 247.1 " fill="#000000"/>
<path class="legend" d="M 291.6 248.4 Q 289.5 248.4, 288.5 246.9 Q 287.4 245.3, 287.4 242.6 Q 287.4 239.9, 288.5 238.3 Q 289.5 236.8, 291.6 236.8 Q 293.7 236.8, 294.7 238.3 Q 295.7 239.9, 295.7 242.6 Q 295.7 245.3, 294.7 246.9 Q 293.7 248.4, 291.6 248.4 M 291.6 247.1 Q 292.8 247.1, 293.5 246.0 Q 294.1 244.8, 294.1 242.6 Q 294.1 240.4, 293.5 239.2 Q 292.8 238.1, 291.6 238.1 Q 290.4 238.1, 289.7 239.2 Q 289.0 240.4, 289.0 242.6 Q 289.0 244.8, 289.7 246.0 Q 290.4 247.1, 291.6 247.1 " fill="#000000"/>
</svg>