<svg xmlns="http://www.w3.org/2000/svg" xmlns:rdkit="http://www.rdkit.org/xml" xmlns:xlink="http://www.w3.org/1999/xlink" version="1.1" baseProfile="full" xml:space="preserve" width="332px" height="242px" viewBox="0 0 332 242">
<!-- END OF HEADER -->
<rect style="opacity:1.0;fill:#FFFFFF;stroke:none" width="332.0" height="242.0" x="0.0" y="0.0"> </rect>
<path class="bond-0 atom-1 atom-0" d="M 206.1,144.4 L 218.8,171.2 L 211.3,174.7 L 198.6,148.0 Z" style="fill:#4646FF;fill-rule:evenodd;fill-opacity:1;stroke:#4646FF;stroke-width:2.0px;stroke-linecap:butt;stroke-linejoin:miter;stroke-miterlimit:10;stroke-opacity:1;"/>
<path class="bond-1 atom-1 atom-2" d="M 199.3,143.4 L 219.4,121.6 L 225.5,127.2 L 205.4,149.0 Z" style="fill:#4646FF;fill-rule:evenodd;fill-opacity:1;stroke:#4646FF;stroke-width:2.0px;stroke-linecap:butt;stroke-linejoin:miter;stroke-miterlimit:10;stroke-opacity:1;"/>
<path class="bond-2 atom-2 atom-3" d="M 218.8,126.5 L 204.3,100.7 L 211.6,96.6 L 226.0,122.4 Z" style="fill:#4646FF;fill-rule:evenodd;fill-opacity:1;stroke:#4646FF;stroke-width:2.0px;stroke-linecap:butt;stroke-linejoin:miter;stroke-miterlimit:10;stroke-opacity:1;"/>
<path class="bond-4 atom-4 atom-5" d="M 216.9,74.2 L 199.8,50.0 L 206.6,45.2 L 223.7,69.4 Z" style="fill:#FFD6D6;fill-rule:evenodd;fill-opacity:1;stroke:#FFD6D6;stroke-width:2.0px;stroke-linecap:butt;stroke-linejoin:miter;stroke-miterlimit:10;stroke-opacity:1;"/>
<path class="bond-5 atom-5 atom-6" d="M 199.5,45.9 L 211.8,19.0 L 219.3,22.5 L 207.0,49.4 Z" style="fill:#FFD6D6;fill-rule:evenodd;fill-opacity:1;stroke:#FFD6D6;stroke-width:2.0px;stroke-linecap:butt;stroke-linejoin:miter;stroke-miterlimit:10;stroke-opacity:1;"/>
<path class="bond-6 atom-6 atom-7" d="M 215.2,16.6 L 244.6,13.9 L 245.4,22.1 L 216.0,24.9 Z" style="fill:#FFD6D6;fill-rule:evenodd;fill-opacity:1;stroke:#FFD6D6;stroke-width:2.0px;stroke-linecap:butt;stroke-linejoin:miter;stroke-miterlimit:10;stroke-opacity:1;"/>
<path class="bond-7 atom-7 atom-8" d="M 248.4,15.6 L 265.5,39.8 L 258.7,44.6 L 241.7,20.4 Z" style="fill:#FFD6D6;fill-rule:evenodd;fill-opacity:1;stroke:#FFD6D6;stroke-width:2.0px;stroke-linecap:butt;stroke-linejoin:miter;stroke-miterlimit:10;stroke-opacity:1;"/>
<path class="bond-8 atom-8 atom-9" d="M 261.7,38.0 L 291.2,35.3 L 292.0,43.5 L 262.5,46.3 Z" style="fill:#FFD6D6;fill-rule:evenodd;fill-opacity:1;stroke:#FFD6D6;stroke-width:2.0px;stroke-linecap:butt;stroke-linejoin:miter;stroke-miterlimit:10;stroke-opacity:1;"/>
<path class="bond-9 atom-9 atom-10" d="M 295.0,37.0 L 312.1,61.2 L 305.3,66.0 L 288.2,41.8 Z" style="fill:#FFD6D6;fill-rule:evenodd;fill-opacity:1;stroke:#FFD6D6;stroke-width:2.0px;stroke-linecap:butt;stroke-linejoin:miter;stroke-miterlimit:10;stroke-opacity:1;"/>
<path class="bond-10 atom-10 atom-11" d="M 312.4,65.3 L 300.1,92.2 L 292.6,88.7 L 304.9,61.8 Z" style="fill:#FFD6D6;fill-rule:evenodd;fill-opacity:1;stroke:#FFD6D6;stroke-width:2.0px;stroke-linecap:butt;stroke-linejoin:miter;stroke-miterlimit:10;stroke-opacity:1;"/>
<path class="bond-11 atom-11 atom-12" d="M 296.7,94.6 L 267.3,97.3 L 266.5,89.1 L 295.9,86.3 Z" style="fill:#FFD6D6;fill-rule:evenodd;fill-opacity:1;stroke:#FFD6D6;stroke-width:2.0px;stroke-linecap:butt;stroke-linejoin:miter;stroke-miterlimit:10;stroke-opacity:1;"/>
<path class="bond-12 atom-12 atom-13" d="M 263.5,95.6 L 246.4,71.4 L 253.2,66.6 L 270.2,90.8 Z" style="fill:#FFD6D6;fill-rule:evenodd;fill-opacity:1;stroke:#FFD6D6;stroke-width:2.0px;stroke-linecap:butt;stroke-linejoin:miter;stroke-miterlimit:10;stroke-opacity:1;"/>
<path class="bond-13 atom-3 atom-14" d="M 208.8,102.7 L 179.8,108.5 L 178.1,100.4 L 207.1,94.6 Z" style="fill:#4646FF;fill-rule:evenodd;fill-opacity:1;stroke:#4646FF;stroke-width:2.0px;stroke-linecap:butt;stroke-linejoin:miter;stroke-miterlimit:10;stroke-opacity:1;"/>
<path class="bond-14 atom-14 atom-15" d="M 176.1,107.5 L 154.4,87.4 L 160.0,81.3 L 181.8,101.4 Z" style="fill:#4646FF;fill-rule:evenodd;fill-opacity:1;stroke:#4646FF;stroke-width:2.0px;stroke-linecap:butt;stroke-linejoin:miter;stroke-miterlimit:10;stroke-opacity:1;"/>
<path class="bond-15 atom-14 atom-16" d="M 183.1,104.9 L 179.6,134.3 L 171.4,133.3 L 174.8,104.0 Z" style="fill:#4646FF;fill-rule:evenodd;fill-opacity:1;stroke:#4646FF;stroke-width:2.0px;stroke-linecap:butt;stroke-linejoin:miter;stroke-miterlimit:10;stroke-opacity:1;"/>
<path class="bond-16 atom-16 atom-17" d="M 173.4,137.4 L 148.0,122.3 L 152.2,115.2 L 177.6,130.3 Z" style="fill:#4646FF;fill-rule:evenodd;fill-opacity:1;stroke:#4646FF;stroke-width:2.0px;stroke-linecap:butt;stroke-linejoin:miter;stroke-miterlimit:10;stroke-opacity:1;"/>
<path class="bond-17 atom-17 atom-18" d="M 152.1,122.3 L 126.3,136.8 L 122.2,129.6 L 148.0,115.1 Z" style="fill:#4646FF;fill-rule:evenodd;fill-opacity:1;stroke:#4646FF;stroke-width:2.0px;stroke-linecap:butt;stroke-linejoin:miter;stroke-miterlimit:10;stroke-opacity:1;"/>
<path class="bond-19 atom-19 atom-20" d="M 94.7,118.1 L 95.0,88.5 L 103.3,88.6 L 103.0,118.2 Z" style="fill:#F0F0FF;fill-rule:evenodd;fill-opacity:1;stroke:#F0F0FF;stroke-width:2.0px;stroke-linecap:butt;stroke-linejoin:miter;stroke-miterlimit:10;stroke-opacity:1;"/>
<path class="bond-21 atom-21 atom-22" d="M 69.6,73.4 L 70.0,43.8 L 78.3,43.9 L 77.9,73.5 Z" style="fill:#FEFEFF;fill-rule:evenodd;fill-opacity:1;stroke:#FEFEFF;stroke-width:2.0px;stroke-linecap:butt;stroke-linejoin:miter;stroke-miterlimit:10;stroke-opacity:1;"/>
<path class="bond-22 atom-22 atom-23" d="M 72.0,47.4 L 46.6,32.3 L 50.8,25.2 L 76.2,40.3 Z" style="fill:#FEFEFF;fill-rule:evenodd;fill-opacity:1;stroke:#FEFEFF;stroke-width:2.0px;stroke-linecap:butt;stroke-linejoin:miter;stroke-miterlimit:10;stroke-opacity:1;"/>
<path class="bond-23 atom-23 atom-24" d="M 50.7,32.4 L 24.9,46.8 L 20.9,39.6 L 46.6,25.1 Z" style="fill:#FEFEFF;fill-rule:evenodd;fill-opacity:1;stroke:#FEFEFF;stroke-width:2.0px;stroke-linecap:butt;stroke-linejoin:miter;stroke-miterlimit:10;stroke-opacity:1;"/>
<path class="bond-24 atom-24 atom-25" d="M 27.0,43.3 L 26.7,72.9 L 18.4,72.8 L 18.7,43.2 Z" style="fill:#FEFEFF;fill-rule:evenodd;fill-opacity:1;stroke:#FEFEFF;stroke-width:2.0px;stroke-linecap:butt;stroke-linejoin:miter;stroke-miterlimit:10;stroke-opacity:1;"/>
<path class="bond-25 atom-25 atom-26" d="M 24.6,69.2 L 50.1,84.3 L 45.8,91.5 L 20.4,76.4 Z" style="fill:#FEFEFF;fill-rule:evenodd;fill-opacity:1;stroke:#FEFEFF;stroke-width:2.0px;stroke-linecap:butt;stroke-linejoin:miter;stroke-miterlimit:10;stroke-opacity:1;"/>
<path class="bond-26 atom-18 atom-27" d="M 128.4,133.3 L 128.1,162.8 L 119.8,162.7 L 120.1,133.2 Z" style="fill:#4646FF;fill-rule:evenodd;fill-opacity:1;stroke:#4646FF;stroke-width:2.0px;stroke-linecap:butt;stroke-linejoin:miter;stroke-miterlimit:10;stroke-opacity:1;"/>
<path class="bond-27 atom-27 atom-28" d="M 125.9,166.4 L 100.1,180.9 L 96.1,173.7 L 121.9,159.2 Z" style="fill:#4646FF;fill-rule:evenodd;fill-opacity:1;stroke:#4646FF;stroke-width:2.0px;stroke-linecap:butt;stroke-linejoin:miter;stroke-miterlimit:10;stroke-opacity:1;"/>
<path class="bond-28 atom-27 atom-29" d="M 126.0,159.2 L 151.5,174.3 L 147.2,181.4 L 121.8,166.3 Z" style="fill:#4646FF;fill-rule:evenodd;fill-opacity:1;stroke:#4646FF;stroke-width:2.0px;stroke-linecap:butt;stroke-linejoin:miter;stroke-miterlimit:10;stroke-opacity:1;"/>
<path class="bond-29 atom-29 atom-30" d="M 153.5,177.9 L 153.1,207.5 L 144.9,207.4 L 145.2,177.8 Z" style="fill:#4646FF;fill-rule:evenodd;fill-opacity:1;stroke:#4646FF;stroke-width:2.0px;stroke-linecap:butt;stroke-linejoin:miter;stroke-miterlimit:10;stroke-opacity:1;"/>
<path class="bond-30 atom-30 atom-31" d="M 151.1,203.9 L 176.5,219.0 L 172.3,226.1 L 146.9,211.0 Z" style="fill:#4646FF;fill-rule:evenodd;fill-opacity:1;stroke:#4646FF;stroke-width:2.0px;stroke-linecap:butt;stroke-linejoin:miter;stroke-miterlimit:10;stroke-opacity:1;"/>
<path class="bond-31 atom-31 atom-32" d="M 172.4,219.0 L 198.2,204.5 L 202.3,211.7 L 176.5,226.2 Z" style="fill:#4646FF;fill-rule:evenodd;fill-opacity:1;stroke:#4646FF;stroke-width:2.0px;stroke-linecap:butt;stroke-linejoin:miter;stroke-miterlimit:10;stroke-opacity:1;"/>
<path class="bond-32 atom-32 atom-33" d="M 202.3,204.5 L 227.8,219.6 L 223.5,226.7 L 198.1,211.6 Z" style="fill:#4646FF;fill-rule:evenodd;fill-opacity:1;stroke:#4646FF;stroke-width:2.0px;stroke-linecap:butt;stroke-linejoin:miter;stroke-miterlimit:10;stroke-opacity:1;"/>
<path class="bond-33 atom-32 atom-34" d="M 196.1,208.0 L 196.4,178.5 L 204.7,178.6 L 204.4,208.1 Z" style="fill:#4646FF;fill-rule:evenodd;fill-opacity:1;stroke:#4646FF;stroke-width:2.0px;stroke-linecap:butt;stroke-linejoin:miter;stroke-miterlimit:10;stroke-opacity:1;"/>
<path class="bond-34 atom-34 atom-35" d="M 198.5,182.1 L 173.0,167.0 L 177.3,159.8 L 202.7,174.9 Z" style="fill:#4646FF;fill-rule:evenodd;fill-opacity:1;stroke:#4646FF;stroke-width:2.0px;stroke-linecap:butt;stroke-linejoin:miter;stroke-miterlimit:10;stroke-opacity:1;"/>
<path class="bond-35 atom-16 atom-1" d="M 177.2,130.1 L 204.1,142.4 L 200.6,149.9 L 173.8,137.6 Z" style="fill:#4646FF;fill-rule:evenodd;fill-opacity:1;stroke:#4646FF;stroke-width:2.0px;stroke-linecap:butt;stroke-linejoin:miter;stroke-miterlimit:10;stroke-opacity:1;"/>
<path class="bond-36 atom-26 atom-21" d="M 45.9,84.3 L 71.7,69.8 L 75.8,77.0 L 50.0,91.5 Z" style="fill:#FEFEFF;fill-rule:evenodd;fill-opacity:1;stroke:#FEFEFF;stroke-width:2.0px;stroke-linecap:butt;stroke-linejoin:miter;stroke-miterlimit:10;stroke-opacity:1;"/>
<path class="bond-37 atom-35 atom-29" d="M 177.2,167.0 L 151.4,181.5 L 147.3,174.3 L 173.1,159.8 Z" style="fill:#4646FF;fill-rule:evenodd;fill-opacity:1;stroke:#4646FF;stroke-width:2.0px;stroke-linecap:butt;stroke-linejoin:miter;stroke-miterlimit:10;stroke-opacity:1;"/>
<path class="bond-38 atom-13 atom-4" d="M 250.2,73.2 L 220.7,75.9 L 219.9,67.6 L 249.4,64.9 Z" style="fill:#FFD6D6;fill-rule:evenodd;fill-opacity:1;stroke:#FFD6D6;stroke-width:2.0px;stroke-linecap:butt;stroke-linejoin:miter;stroke-miterlimit:10;stroke-opacity:1;"/>
<path class="bond-39 atom-35 atom-16" d="M 171.0,163.4 L 171.4,133.8 L 179.6,133.9 L 179.3,163.5 Z" style="fill:#4646FF;fill-rule:evenodd;fill-opacity:1;stroke:#4646FF;stroke-width:2.0px;stroke-linecap:butt;stroke-linejoin:miter;stroke-miterlimit:10;stroke-opacity:1;"/>
<path class="bond-40 atom-13 atom-8" d="M 246.0,67.3 L 258.4,40.4 L 265.9,43.9 L 253.5,70.8 Z" style="fill:#FFD6D6;fill-rule:evenodd;fill-opacity:1;stroke:#FFD6D6;stroke-width:2.0px;stroke-linecap:butt;stroke-linejoin:miter;stroke-miterlimit:10;stroke-opacity:1;"/>
<ellipse cx="215.0" cy="172.9" rx="5.9" ry="5.9" class="atom-0" style="fill:#4646FF;fill-rule:evenodd;stroke:#4646FF;stroke-width:1.0px;stroke-linecap:butt;stroke-linejoin:miter;stroke-opacity:1"/>
<ellipse cx="202.4" cy="146.2" rx="5.9" ry="5.9" class="atom-1" style="fill:#4646FF;fill-rule:evenodd;stroke:#4646FF;stroke-width:1.0px;stroke-linecap:butt;stroke-linejoin:miter;stroke-opacity:1"/>
<ellipse cx="222.4" cy="124.4" rx="5.9" ry="5.9" class="atom-2" style="fill:#4646FF;fill-rule:evenodd;stroke:#4646FF;stroke-width:1.0px;stroke-linecap:butt;stroke-linejoin:miter;stroke-opacity:1"/>
<ellipse cx="208.0" cy="98.6" rx="5.9" ry="5.9" class="atom-3" style="fill:#4646FF;fill-rule:evenodd;stroke:#4646FF;stroke-width:1.0px;stroke-linecap:butt;stroke-linejoin:miter;stroke-opacity:1"/>
<ellipse cx="220.3" cy="71.8" rx="5.9" ry="5.9" class="atom-4" style="fill:#FFD6D6;fill-rule:evenodd;stroke:#FFD6D6;stroke-width:1.0px;stroke-linecap:butt;stroke-linejoin:miter;stroke-opacity:1"/>
<ellipse cx="203.2" cy="47.6" rx="5.9" ry="5.9" class="atom-5" style="fill:#FFD6D6;fill-rule:evenodd;stroke:#FFD6D6;stroke-width:1.0px;stroke-linecap:butt;stroke-linejoin:miter;stroke-opacity:1"/>
<ellipse cx="215.6" cy="20.8" rx="5.9" ry="5.9" class="atom-6" style="fill:#FFD6D6;fill-rule:evenodd;stroke:#FFD6D6;stroke-width:1.0px;stroke-linecap:butt;stroke-linejoin:miter;stroke-opacity:1"/>
<ellipse cx="245.0" cy="18.0" rx="5.9" ry="5.9" class="atom-7" style="fill:#FFD6D6;fill-rule:evenodd;stroke:#FFD6D6;stroke-width:1.0px;stroke-linecap:butt;stroke-linejoin:miter;stroke-opacity:1"/>
<ellipse cx="262.1" cy="42.2" rx="5.9" ry="5.9" class="atom-8" style="fill:#FFD6D6;fill-rule:evenodd;stroke:#FFD6D6;stroke-width:1.0px;stroke-linecap:butt;stroke-linejoin:miter;stroke-opacity:1"/>
<ellipse cx="291.6" cy="39.4" rx="5.9" ry="5.9" class="atom-9" style="fill:#FFD6D6;fill-rule:evenodd;stroke:#FFD6D6;stroke-width:1.0px;stroke-linecap:butt;stroke-linejoin:miter;stroke-opacity:1"/>
<ellipse cx="308.7" cy="63.6" rx="5.9" ry="5.9" class="atom-10" style="fill:#FFD6D6;fill-rule:evenodd;stroke:#FFD6D6;stroke-width:1.0px;stroke-linecap:butt;stroke-linejoin:miter;stroke-opacity:1"/>
<ellipse cx="296.3" cy="90.4" rx="5.9" ry="5.9" class="atom-11" style="fill:#FFD6D6;fill-rule:evenodd;stroke:#FFD6D6;stroke-width:1.0px;stroke-linecap:butt;stroke-linejoin:miter;stroke-opacity:1"/>
<ellipse cx="266.9" cy="93.2" rx="5.9" ry="5.9" class="atom-12" style="fill:#FFD6D6;fill-rule:evenodd;stroke:#FFD6D6;stroke-width:1.0px;stroke-linecap:butt;stroke-linejoin:miter;stroke-opacity:1"/>
<ellipse cx="249.8" cy="69.0" rx="5.9" ry="5.9" class="atom-13" style="fill:#FFD6D6;fill-rule:evenodd;stroke:#FFD6D6;stroke-width:1.0px;stroke-linecap:butt;stroke-linejoin:miter;stroke-opacity:1"/>
<ellipse cx="179.0" cy="104.4" rx="5.9" ry="5.9" class="atom-14" style="fill:#4646FF;fill-rule:evenodd;stroke:#4646FF;stroke-width:1.0px;stroke-linecap:butt;stroke-linejoin:miter;stroke-opacity:1"/>
<ellipse cx="157.2" cy="84.4" rx="5.9" ry="5.9" class="atom-15" style="fill:#4646FF;fill-rule:evenodd;stroke:#4646FF;stroke-width:1.0px;stroke-linecap:butt;stroke-linejoin:miter;stroke-opacity:1"/>
<ellipse cx="175.5" cy="133.8" rx="5.9" ry="5.9" class="atom-16" style="fill:#4646FF;fill-rule:evenodd;stroke:#4646FF;stroke-width:1.0px;stroke-linecap:butt;stroke-linejoin:miter;stroke-opacity:1"/>
<ellipse cx="150.1" cy="118.7" rx="5.9" ry="5.9" class="atom-17" style="fill:#4646FF;fill-rule:evenodd;stroke:#4646FF;stroke-width:1.0px;stroke-linecap:butt;stroke-linejoin:miter;stroke-opacity:1"/>
<ellipse cx="124.3" cy="133.2" rx="5.9" ry="5.9" class="atom-18" style="fill:#4646FF;fill-rule:evenodd;stroke:#4646FF;stroke-width:1.0px;stroke-linecap:butt;stroke-linejoin:miter;stroke-opacity:1"/>
<ellipse cx="98.8" cy="118.1" rx="5.9" ry="5.9" class="atom-19" style="fill:#F0F0FF;fill-rule:evenodd;stroke:#F0F0FF;stroke-width:1.0px;stroke-linecap:butt;stroke-linejoin:miter;stroke-opacity:1"/>
<ellipse cx="99.2" cy="88.5" rx="5.9" ry="5.9" class="atom-20" style="fill:#F0F0FF;fill-rule:evenodd;stroke:#F0F0FF;stroke-width:1.0px;stroke-linecap:butt;stroke-linejoin:miter;stroke-opacity:1"/>
<ellipse cx="73.8" cy="73.4" rx="5.9" ry="5.9" class="atom-21" style="fill:#FEFEFF;fill-rule:evenodd;stroke:#FEFEFF;stroke-width:1.0px;stroke-linecap:butt;stroke-linejoin:miter;stroke-opacity:1"/>
<ellipse cx="74.1" cy="43.8" rx="5.9" ry="5.9" class="atom-22" style="fill:#FEFEFF;fill-rule:evenodd;stroke:#FEFEFF;stroke-width:1.0px;stroke-linecap:butt;stroke-linejoin:miter;stroke-opacity:1"/>
<ellipse cx="48.7" cy="28.7" rx="5.9" ry="5.9" class="atom-23" style="fill:#FEFEFF;fill-rule:evenodd;stroke:#FEFEFF;stroke-width:1.0px;stroke-linecap:butt;stroke-linejoin:miter;stroke-opacity:1"/>
<ellipse cx="22.9" cy="43.2" rx="5.9" ry="5.9" class="atom-24" style="fill:#FEFEFF;fill-rule:evenodd;stroke:#FEFEFF;stroke-width:1.0px;stroke-linecap:butt;stroke-linejoin:miter;stroke-opacity:1"/>
<ellipse cx="22.5" cy="72.8" rx="5.9" ry="5.9" class="atom-25" style="fill:#FEFEFF;fill-rule:evenodd;stroke:#FEFEFF;stroke-width:1.0px;stroke-linecap:butt;stroke-linejoin:miter;stroke-opacity:1"/>
<ellipse cx="48.0" cy="87.9" rx="5.9" ry="5.9" class="atom-26" style="fill:#FEFEFF;fill-rule:evenodd;stroke:#FEFEFF;stroke-width:1.0px;stroke-linecap:butt;stroke-linejoin:miter;stroke-opacity:1"/>
<ellipse cx="123.9" cy="162.8" rx="5.9" ry="5.9" class="atom-27" style="fill:#4646FF;fill-rule:evenodd;stroke:#4646FF;stroke-width:1.0px;stroke-linecap:butt;stroke-linejoin:miter;stroke-opacity:1"/>
<ellipse cx="98.1" cy="177.3" rx="5.9" ry="5.9" class="atom-28" style="fill:#4646FF;fill-rule:evenodd;stroke:#4646FF;stroke-width:1.0px;stroke-linecap:butt;stroke-linejoin:miter;stroke-opacity:1"/>
<ellipse cx="149.4" cy="177.9" rx="5.9" ry="5.9" class="atom-29" style="fill:#4646FF;fill-rule:evenodd;stroke:#4646FF;stroke-width:1.0px;stroke-linecap:butt;stroke-linejoin:miter;stroke-opacity:1"/>
<ellipse cx="149.0" cy="207.5" rx="5.9" ry="5.9" class="atom-30" style="fill:#4646FF;fill-rule:evenodd;stroke:#4646FF;stroke-width:1.0px;stroke-linecap:butt;stroke-linejoin:miter;stroke-opacity:1"/>
<ellipse cx="174.4" cy="222.6" rx="5.9" ry="5.9" class="atom-31" style="fill:#4646FF;fill-rule:evenodd;stroke:#4646FF;stroke-width:1.0px;stroke-linecap:butt;stroke-linejoin:miter;stroke-opacity:1"/>
<ellipse cx="200.2" cy="208.1" rx="5.9" ry="5.9" class="atom-32" style="fill:#4646FF;fill-rule:evenodd;stroke:#4646FF;stroke-width:1.0px;stroke-linecap:butt;stroke-linejoin:miter;stroke-opacity:1"/>
<ellipse cx="225.7" cy="223.2" rx="5.9" ry="5.9" class="atom-33" style="fill:#4646FF;fill-rule:evenodd;stroke:#4646FF;stroke-width:1.0px;stroke-linecap:butt;stroke-linejoin:miter;stroke-opacity:1"/>
<ellipse cx="200.6" cy="178.5" rx="5.9" ry="5.9" class="atom-34" style="fill:#4646FF;fill-rule:evenodd;stroke:#4646FF;stroke-width:1.0px;stroke-linecap:butt;stroke-linejoin:miter;stroke-opacity:1"/>
<ellipse cx="175.1" cy="163.4" rx="5.9" ry="5.9" class="atom-35" style="fill:#4646FF;fill-rule:evenodd;stroke:#4646FF;stroke-width:1.0px;stroke-linecap:butt;stroke-linejoin:miter;stroke-opacity:1"/>
<path class="bond-0 atom-1 atom-0" d="M 204.2,149.4 L 203.7,149.6" style="fill:none;fill-rule:evenodd;stroke:#000000;stroke-width:1.0px;stroke-linecap:butt;stroke-linejoin:miter;stroke-opacity:1"/>
<path class="bond-0 atom-1 atom-0" d="M 206.0,152.6 L 205.0,153.1" style="fill:none;fill-rule:evenodd;stroke:#000000;stroke-width:1.0px;stroke-linecap:butt;stroke-linejoin:miter;stroke-opacity:1"/>
<path class="bond-0 atom-1 atom-0" d="M 207.9,155.9 L 206.4,156.6" style="fill:none;fill-rule:evenodd;stroke:#000000;stroke-width:1.0px;stroke-linecap:butt;stroke-linejoin:miter;stroke-opacity:1"/>
<path class="bond-0 atom-1 atom-0" d="M 209.7,159.1 L 207.7,160.0" style="fill:none;fill-rule:evenodd;stroke:#000000;stroke-width:1.0px;stroke-linecap:butt;stroke-linejoin:miter;stroke-opacity:1"/>
<path class="bond-0 atom-1 atom-0" d="M 211.5,162.3 L 209.0,163.5" style="fill:none;fill-rule:evenodd;stroke:#000000;stroke-width:1.0px;stroke-linecap:butt;stroke-linejoin:miter;stroke-opacity:1"/>
<path class="bond-0 atom-1 atom-0" d="M 213.4,165.5 L 210.4,167.0" style="fill:none;fill-rule:evenodd;stroke:#000000;stroke-width:1.0px;stroke-linecap:butt;stroke-linejoin:miter;stroke-opacity:1"/>
<path class="bond-0 atom-1 atom-0" d="M 215.2,168.8 L 211.7,170.4" style="fill:none;fill-rule:evenodd;stroke:#000000;stroke-width:1.0px;stroke-linecap:butt;stroke-linejoin:miter;stroke-opacity:1"/>
<path class="bond-0 atom-1 atom-0" d="M 217.0,172.0 L 213.0,173.9" style="fill:none;fill-rule:evenodd;stroke:#000000;stroke-width:1.0px;stroke-linecap:butt;stroke-linejoin:miter;stroke-opacity:1"/>
<path class="bond-1 atom-1 atom-2" d="M 202.4,146.2 L 222.4,124.4" style="fill:none;fill-rule:evenodd;stroke:#000000;stroke-width:2.0px;stroke-linecap:butt;stroke-linejoin:miter;stroke-opacity:1"/>
<path class="bond-2 atom-2 atom-3" d="M 222.4,124.4 L 210.9,103.8" style="fill:none;fill-rule:evenodd;stroke:#000000;stroke-width:2.0px;stroke-linecap:butt;stroke-linejoin:miter;stroke-opacity:1"/>
<path class="bond-3 atom-3 atom-4" d="M 210.3,93.5 L 220.3,71.8" style="fill:none;fill-rule:evenodd;stroke:#000000;stroke-width:2.0px;stroke-linecap:butt;stroke-linejoin:miter;stroke-opacity:1"/>
<path class="bond-4 atom-4 atom-5" d="M 220.3,71.8 L 203.2,47.6" style="fill:none;fill-rule:evenodd;stroke:#000000;stroke-width:2.0px;stroke-linecap:butt;stroke-linejoin:miter;stroke-opacity:1"/>
<path class="bond-4 atom-4 atom-5" d="M 222.5,67.1 L 208.3,47.2" style="fill:none;fill-rule:evenodd;stroke:#000000;stroke-width:2.0px;stroke-linecap:butt;stroke-linejoin:miter;stroke-opacity:1"/>
<path class="bond-5 atom-5 atom-6" d="M 203.2,47.6 L 213.2,25.9" style="fill:none;fill-rule:evenodd;stroke:#000000;stroke-width:2.0px;stroke-linecap:butt;stroke-linejoin:miter;stroke-opacity:1"/>
<path class="bond-6 atom-6 atom-7" d="M 219.7,20.4 L 245.0,18.0" style="fill:none;fill-rule:evenodd;stroke:#000000;stroke-width:2.0px;stroke-linecap:butt;stroke-linejoin:miter;stroke-opacity:1"/>
<path class="bond-6 atom-6 atom-7" d="M 220.1,24.8 L 242.9,22.7" style="fill:none;fill-rule:evenodd;stroke:#000000;stroke-width:2.0px;stroke-linecap:butt;stroke-linejoin:miter;stroke-opacity:1"/>
<path class="bond-7 atom-7 atom-8" d="M 245.0,18.0 L 262.1,42.2" style="fill:none;fill-rule:evenodd;stroke:#000000;stroke-width:2.0px;stroke-linecap:butt;stroke-linejoin:miter;stroke-opacity:1"/>
<path class="bond-8 atom-8 atom-9" d="M 262.1,42.2 L 291.6,39.4" style="fill:none;fill-rule:evenodd;stroke:#000000;stroke-width:2.0px;stroke-linecap:butt;stroke-linejoin:miter;stroke-opacity:1"/>
<path class="bond-8 atom-8 atom-9" d="M 265.1,46.3 L 289.4,44.1" style="fill:none;fill-rule:evenodd;stroke:#000000;stroke-width:2.0px;stroke-linecap:butt;stroke-linejoin:miter;stroke-opacity:1"/>
<path class="bond-9 atom-9 atom-10" d="M 291.6,39.4 L 308.7,63.6" style="fill:none;fill-rule:evenodd;stroke:#000000;stroke-width:2.0px;stroke-linecap:butt;stroke-linejoin:miter;stroke-opacity:1"/>
<path class="bond-10 atom-10 atom-11" d="M 308.7,63.6 L 296.3,90.4" style="fill:none;fill-rule:evenodd;stroke:#000000;stroke-width:2.0px;stroke-linecap:butt;stroke-linejoin:miter;stroke-opacity:1"/>
<path class="bond-10 atom-10 atom-11" d="M 303.6,64.0 L 293.4,86.3" style="fill:none;fill-rule:evenodd;stroke:#000000;stroke-width:2.0px;stroke-linecap:butt;stroke-linejoin:miter;stroke-opacity:1"/>
<path class="bond-11 atom-11 atom-12" d="M 296.3,90.4 L 266.9,93.2" style="fill:none;fill-rule:evenodd;stroke:#000000;stroke-width:2.0px;stroke-linecap:butt;stroke-linejoin:miter;stroke-opacity:1"/>
<path class="bond-12 atom-12 atom-13" d="M 266.9,93.2 L 249.8,69.0" style="fill:none;fill-rule:evenodd;stroke:#000000;stroke-width:2.0px;stroke-linecap:butt;stroke-linejoin:miter;stroke-opacity:1"/>
<path class="bond-12 atom-12 atom-13" d="M 269.0,88.5 L 254.9,68.6" style="fill:none;fill-rule:evenodd;stroke:#000000;stroke-width:2.0px;stroke-linecap:butt;stroke-linejoin:miter;stroke-opacity:1"/>
<path class="bond-13 atom-3 atom-14" d="M 203.8,99.5 L 179.0,104.4" style="fill:none;fill-rule:evenodd;stroke:#000000;stroke-width:2.0px;stroke-linecap:butt;stroke-linejoin:miter;stroke-opacity:1"/>
<path class="bond-14 atom-14 atom-15" d="M 181.6,103.9 L 163.5,87.2" style="fill:none;fill-rule:evenodd;stroke:#000000;stroke-width:2.0px;stroke-linecap:butt;stroke-linejoin:miter;stroke-opacity:1"/>
<path class="bond-14 atom-14 atom-15" d="M 178.6,107.2 L 160.5,90.5" style="fill:none;fill-rule:evenodd;stroke:#000000;stroke-width:2.0px;stroke-linecap:butt;stroke-linejoin:miter;stroke-opacity:1"/>
<path class="bond-15 atom-14 atom-16" d="M 179.0,104.4 L 175.5,133.8" style="fill:none;fill-rule:evenodd;stroke:#000000;stroke-width:2.0px;stroke-linecap:butt;stroke-linejoin:miter;stroke-opacity:1"/>
<path class="bond-16 atom-16 atom-17" d="M 172.5,131.7 L 172.2,132.2" style="fill:none;fill-rule:evenodd;stroke:#000000;stroke-width:1.0px;stroke-linecap:butt;stroke-linejoin:miter;stroke-opacity:1"/>
<path class="bond-16 atom-16 atom-17" d="M 169.5,129.5 L 168.8,130.6" style="fill:none;fill-rule:evenodd;stroke:#000000;stroke-width:1.0px;stroke-linecap:butt;stroke-linejoin:miter;stroke-opacity:1"/>
<path class="bond-16 atom-16 atom-17" d="M 166.5,127.4 L 165.5,129.0" style="fill:none;fill-rule:evenodd;stroke:#000000;stroke-width:1.0px;stroke-linecap:butt;stroke-linejoin:miter;stroke-opacity:1"/>
<path class="bond-16 atom-16 atom-17" d="M 163.4,125.2 L 162.1,127.4" style="fill:none;fill-rule:evenodd;stroke:#000000;stroke-width:1.0px;stroke-linecap:butt;stroke-linejoin:miter;stroke-opacity:1"/>
<path class="bond-16 atom-16 atom-17" d="M 160.4,123.0 L 158.8,125.8" style="fill:none;fill-rule:evenodd;stroke:#000000;stroke-width:1.0px;stroke-linecap:butt;stroke-linejoin:miter;stroke-opacity:1"/>
<path class="bond-16 atom-16 atom-17" d="M 157.4,120.9 L 155.5,124.1" style="fill:none;fill-rule:evenodd;stroke:#000000;stroke-width:1.0px;stroke-linecap:butt;stroke-linejoin:miter;stroke-opacity:1"/>
<path class="bond-16 atom-16 atom-17" d="M 154.4,118.7 L 152.1,122.5" style="fill:none;fill-rule:evenodd;stroke:#000000;stroke-width:1.0px;stroke-linecap:butt;stroke-linejoin:miter;stroke-opacity:1"/>
<path class="bond-17 atom-17 atom-18" d="M 150.1,118.7 L 128.4,130.9" style="fill:none;fill-rule:evenodd;stroke:#000000;stroke-width:2.0px;stroke-linecap:butt;stroke-linejoin:miter;stroke-opacity:1"/>
<path class="bond-18 atom-18 atom-19" d="M 120.1,130.7 L 98.8,118.1" style="fill:none;fill-rule:evenodd;stroke:#000000;stroke-width:2.0px;stroke-linecap:butt;stroke-linejoin:miter;stroke-opacity:1"/>
<path class="bond-19 atom-19 atom-20" d="M 98.8,118.1 L 99.2,88.5" style="fill:none;fill-rule:evenodd;stroke:#000000;stroke-width:2.0px;stroke-linecap:butt;stroke-linejoin:miter;stroke-opacity:1"/>
<path class="bond-20 atom-20 atom-21" d="M 99.2,88.5 L 77.9,75.9" style="fill:none;fill-rule:evenodd;stroke:#000000;stroke-width:2.0px;stroke-linecap:butt;stroke-linejoin:miter;stroke-opacity:1"/>
<path class="bond-21 atom-21 atom-22" d="M 73.8,68.3 L 74.1,43.8" style="fill:none;fill-rule:evenodd;stroke:#000000;stroke-width:2.0px;stroke-linecap:butt;stroke-linejoin:miter;stroke-opacity:1"/>
<path class="bond-22 atom-22 atom-23" d="M 74.1,43.8 L 48.7,28.7" style="fill:none;fill-rule:evenodd;stroke:#000000;stroke-width:2.0px;stroke-linecap:butt;stroke-linejoin:miter;stroke-opacity:1"/>
<path class="bond-23 atom-23 atom-24" d="M 48.7,28.7 L 27.7,40.5" style="fill:none;fill-rule:evenodd;stroke:#000000;stroke-width:2.0px;stroke-linecap:butt;stroke-linejoin:miter;stroke-opacity:1"/>
<path class="bond-24 atom-24 atom-25" d="M 22.8,48.6 L 22.5,72.8" style="fill:none;fill-rule:evenodd;stroke:#000000;stroke-width:2.0px;stroke-linecap:butt;stroke-linejoin:miter;stroke-opacity:1"/>
<path class="bond-25 atom-25 atom-26" d="M 22.5,72.8 L 48.0,87.9" style="fill:none;fill-rule:evenodd;stroke:#000000;stroke-width:2.0px;stroke-linecap:butt;stroke-linejoin:miter;stroke-opacity:1"/>
<path class="bond-26 atom-18 atom-27" d="M 124.2,138.4 L 123.9,162.8" style="fill:none;fill-rule:evenodd;stroke:#000000;stroke-width:2.0px;stroke-linecap:butt;stroke-linejoin:miter;stroke-opacity:1"/>
<path class="bond-27 atom-27 atom-28" d="M 123.9,160.2 L 101.9,172.6" style="fill:none;fill-rule:evenodd;stroke:#000000;stroke-width:2.0px;stroke-linecap:butt;stroke-linejoin:miter;stroke-opacity:1"/>
<path class="bond-27 atom-27 atom-28" d="M 126.1,164.1 L 104.0,176.5" style="fill:none;fill-rule:evenodd;stroke:#000000;stroke-width:2.0px;stroke-linecap:butt;stroke-linejoin:miter;stroke-opacity:1"/>
<path class="bond-28 atom-27 atom-29" d="M 123.9,162.8 L 149.4,177.9" style="fill:none;fill-rule:evenodd;stroke:#000000;stroke-width:2.0px;stroke-linecap:butt;stroke-linejoin:miter;stroke-opacity:1"/>
<path class="bond-29 atom-29 atom-30" d="M 149.4,177.9 L 149.0,207.5" style="fill:none;fill-rule:evenodd;stroke:#000000;stroke-width:2.0px;stroke-linecap:butt;stroke-linejoin:miter;stroke-opacity:1"/>
<path class="bond-29 atom-29 atom-30" d="M 153.8,180.5 L 153.5,205.0" style="fill:none;fill-rule:evenodd;stroke:#000000;stroke-width:2.0px;stroke-linecap:butt;stroke-linejoin:miter;stroke-opacity:1"/>
<path class="bond-30 atom-30 atom-31" d="M 149.0,207.5 L 174.4,222.6" style="fill:none;fill-rule:evenodd;stroke:#000000;stroke-width:2.0px;stroke-linecap:butt;stroke-linejoin:miter;stroke-opacity:1"/>
<path class="bond-31 atom-31 atom-32" d="M 174.4,222.6 L 200.2,208.1" style="fill:none;fill-rule:evenodd;stroke:#000000;stroke-width:2.0px;stroke-linecap:butt;stroke-linejoin:miter;stroke-opacity:1"/>
<path class="bond-31 atom-31 atom-32" d="M 174.5,217.4 L 195.8,205.5" style="fill:none;fill-rule:evenodd;stroke:#000000;stroke-width:2.0px;stroke-linecap:butt;stroke-linejoin:miter;stroke-opacity:1"/>
<path class="bond-32 atom-32 atom-33" d="M 200.2,208.1 L 221.5,220.7" style="fill:none;fill-rule:evenodd;stroke:#000000;stroke-width:2.0px;stroke-linecap:butt;stroke-linejoin:miter;stroke-opacity:1"/>
<path class="bond-33 atom-32 atom-34" d="M 200.2,208.1 L 200.6,178.5" style="fill:none;fill-rule:evenodd;stroke:#000000;stroke-width:2.0px;stroke-linecap:butt;stroke-linejoin:miter;stroke-opacity:1"/>
<path class="bond-34 atom-34 atom-35" d="M 200.6,178.5 L 175.1,163.4" style="fill:none;fill-rule:evenodd;stroke:#000000;stroke-width:2.0px;stroke-linecap:butt;stroke-linejoin:miter;stroke-opacity:1"/>
<path class="bond-34 atom-34 atom-35" d="M 196.1,181.0 L 175.1,168.5" style="fill:none;fill-rule:evenodd;stroke:#000000;stroke-width:2.0px;stroke-linecap:butt;stroke-linejoin:miter;stroke-opacity:1"/>
<path class="bond-35 atom-16 atom-1" d="M 175.5,133.8 L 202.4,146.2" style="fill:none;fill-rule:evenodd;stroke:#000000;stroke-width:2.0px;stroke-linecap:butt;stroke-linejoin:miter;stroke-opacity:1"/>
<path class="bond-36 atom-26 atom-21" d="M 48.0,87.9 L 69.6,75.8" style="fill:none;fill-rule:evenodd;stroke:#000000;stroke-width:2.0px;stroke-linecap:butt;stroke-linejoin:miter;stroke-opacity:1"/>
<path class="bond-37 atom-35 atom-29" d="M 175.1,163.4 L 149.4,177.9" style="fill:none;fill-rule:evenodd;stroke:#000000;stroke-width:2.0px;stroke-linecap:butt;stroke-linejoin:miter;stroke-opacity:1"/>
<path class="bond-38 atom-13 atom-4" d="M 249.8,69.0 L 220.3,71.8" style="fill:none;fill-rule:evenodd;stroke:#000000;stroke-width:2.0px;stroke-linecap:butt;stroke-linejoin:miter;stroke-opacity:1"/>
<path class="bond-39 atom-35 atom-16" d="M 175.1,163.4 L 175.5,133.8" style="fill:none;fill-rule:evenodd;stroke:#000000;stroke-width:2.0px;stroke-linecap:butt;stroke-linejoin:miter;stroke-opacity:1"/>
<path class="bond-40 atom-13 atom-8" d="M 249.8,69.0 L 262.1,42.2" style="fill:none;fill-rule:evenodd;stroke:#000000;stroke-width:2.0px;stroke-linecap:butt;stroke-linejoin:miter;stroke-opacity:1"/>
<path d="M 203.4,145.1 L 202.4,146.2 L 201.0,145.6" style="fill:none;stroke:#000000;stroke-width:2.0px;stroke-linecap:butt;stroke-linejoin:miter;stroke-miterlimit:10;stroke-opacity:1;"/>
<path d="M 221.4,125.5 L 222.4,124.4 L 221.9,123.4" style="fill:none;stroke:#000000;stroke-width:2.0px;stroke-linecap:butt;stroke-linejoin:miter;stroke-miterlimit:10;stroke-opacity:1;"/>
<path d="M 204.1,48.8 L 203.2,47.6 L 203.7,46.5" style="fill:none;stroke:#000000;stroke-width:2.0px;stroke-linecap:butt;stroke-linejoin:miter;stroke-miterlimit:10;stroke-opacity:1;"/>
<path d="M 243.8,18.1 L 245.0,18.0 L 245.9,19.2" style="fill:none;stroke:#000000;stroke-width:2.0px;stroke-linecap:butt;stroke-linejoin:miter;stroke-miterlimit:10;stroke-opacity:1;"/>
<path d="M 290.1,39.6 L 291.6,39.4 L 292.4,40.6" style="fill:none;stroke:#000000;stroke-width:2.0px;stroke-linecap:butt;stroke-linejoin:miter;stroke-miterlimit:10;stroke-opacity:1;"/>
<path d="M 307.8,62.4 L 308.7,63.6 L 308.1,64.9" style="fill:none;stroke:#000000;stroke-width:2.0px;stroke-linecap:butt;stroke-linejoin:miter;stroke-miterlimit:10;stroke-opacity:1;"/>
<path d="M 296.9,89.1 L 296.3,90.4 L 294.8,90.6" style="fill:none;stroke:#000000;stroke-width:2.0px;stroke-linecap:butt;stroke-linejoin:miter;stroke-miterlimit:10;stroke-opacity:1;"/>
<path d="M 268.3,93.0 L 266.9,93.2 L 266.0,92.0" style="fill:none;stroke:#000000;stroke-width:2.0px;stroke-linecap:butt;stroke-linejoin:miter;stroke-miterlimit:10;stroke-opacity:1;"/>
<path d="M 180.2,104.2 L 179.0,104.4 L 178.8,105.9" style="fill:none;stroke:#000000;stroke-width:2.0px;stroke-linecap:butt;stroke-linejoin:miter;stroke-miterlimit:10;stroke-opacity:1;"/>
<path d="M 99.9,118.7 L 98.8,118.1 L 98.9,116.6" style="fill:none;stroke:#000000;stroke-width:2.0px;stroke-linecap:butt;stroke-linejoin:miter;stroke-miterlimit:10;stroke-opacity:1;"/>
<path d="M 99.2,90.0 L 99.2,88.5 L 98.1,87.9" style="fill:none;stroke:#000000;stroke-width:2.0px;stroke-linecap:butt;stroke-linejoin:miter;stroke-miterlimit:10;stroke-opacity:1;"/>
<path d="M 74.1,45.1 L 74.1,43.8 L 72.8,43.1" style="fill:none;stroke:#000000;stroke-width:2.0px;stroke-linecap:butt;stroke-linejoin:miter;stroke-miterlimit:10;stroke-opacity:1;"/>
<path d="M 49.9,29.5 L 48.7,28.7 L 47.6,29.3" style="fill:none;stroke:#000000;stroke-width:2.0px;stroke-linecap:butt;stroke-linejoin:miter;stroke-miterlimit:10;stroke-opacity:1;"/>
<path d="M 22.5,71.6 L 22.5,72.8 L 23.8,73.6" style="fill:none;stroke:#000000;stroke-width:2.0px;stroke-linecap:butt;stroke-linejoin:miter;stroke-miterlimit:10;stroke-opacity:1;"/>
<path d="M 46.7,87.2 L 48.0,87.9 L 49.0,87.3" style="fill:none;stroke:#000000;stroke-width:2.0px;stroke-linecap:butt;stroke-linejoin:miter;stroke-miterlimit:10;stroke-opacity:1;"/>
<path d="M 123.9,161.6 L 123.9,162.8 L 125.2,163.5" style="fill:none;stroke:#000000;stroke-width:2.0px;stroke-linecap:butt;stroke-linejoin:miter;stroke-miterlimit:10;stroke-opacity:1;"/>
<path d="M 149.0,206.0 L 149.0,207.5 L 150.3,208.2" style="fill:none;stroke:#000000;stroke-width:2.0px;stroke-linecap:butt;stroke-linejoin:miter;stroke-miterlimit:10;stroke-opacity:1;"/>
<path d="M 173.2,221.8 L 174.4,222.6 L 175.7,221.8" style="fill:none;stroke:#000000;stroke-width:2.0px;stroke-linecap:butt;stroke-linejoin:miter;stroke-miterlimit:10;stroke-opacity:1;"/>
<path d="M 200.6,180.0 L 200.6,178.5 L 199.3,177.7" style="fill:none;stroke:#000000;stroke-width:2.0px;stroke-linecap:butt;stroke-linejoin:miter;stroke-miterlimit:10;stroke-opacity:1;"/>
<path class="atom-3" d="M 206.1 94.5 L 208.9 98.9 Q 209.1 99.3, 209.6 100.1 Q 210.0 100.9, 210.0 101.0 L 210.0 94.5 L 211.1 94.5 L 211.1 102.8 L 210.0 102.8 L 207.0 98.0 Q 206.7 97.4, 206.3 96.8 Q 206.0 96.1, 205.9 95.9 L 205.9 102.8 L 204.8 102.8 L 204.8 94.5 L 206.1 94.5 " fill="#000000"/>
<path class="atom-6" d="M 213.7 16.6 L 216.5 21.0 Q 216.7 21.4, 217.2 22.2 Q 217.6 23.0, 217.6 23.1 L 217.6 16.6 L 218.8 16.6 L 218.8 24.9 L 217.6 24.9 L 214.7 20.1 Q 214.3 19.5, 213.9 18.9 Q 213.6 18.2, 213.5 18.0 L 213.5 24.9 L 212.4 24.9 L 212.4 16.6 L 213.7 16.6 " fill="#000000"/>
<path class="atom-15" d="M 153.4 84.4 Q 153.4 82.4, 154.4 81.3 Q 155.4 80.2, 157.2 80.2 Q 159.1 80.2, 160.1 81.3 Q 161.1 82.4, 161.1 84.4 Q 161.1 86.4, 160.0 87.6 Q 159.0 88.8, 157.2 88.8 Q 155.4 88.8, 154.4 87.6 Q 153.4 86.5, 153.4 84.4 M 157.2 87.8 Q 158.5 87.8, 159.2 87.0 Q 159.9 86.1, 159.9 84.4 Q 159.9 82.8, 159.2 81.9 Q 158.5 81.1, 157.2 81.1 Q 155.9 81.1, 155.2 81.9 Q 154.5 82.8, 154.5 84.4 Q 154.5 86.1, 155.2 87.0 Q 155.9 87.8, 157.2 87.8 " fill="#000000"/>
<path class="atom-18" d="M 122.4 129.0 L 125.2 133.5 Q 125.4 133.9, 125.9 134.7 Q 126.3 135.5, 126.3 135.5 L 126.3 129.0 L 127.4 129.0 L 127.4 137.4 L 126.3 137.4 L 123.4 132.5 Q 123.0 132.0, 122.6 131.3 Q 122.3 130.7, 122.2 130.5 L 122.2 137.4 L 121.1 137.4 L 121.1 129.0 L 122.4 129.0 " fill="#000000"/>
<path class="atom-21" d="M 71.9 69.2 L 74.6 73.7 Q 74.9 74.1, 75.4 74.9 Q 75.8 75.7, 75.8 75.7 L 75.8 69.2 L 76.9 69.2 L 76.9 77.6 L 75.8 77.6 L 72.8 72.8 Q 72.5 72.2, 72.1 71.5 Q 71.8 70.9, 71.7 70.7 L 71.7 77.6 L 70.6 77.6 L 70.6 69.2 L 71.9 69.2 " fill="#000000"/>
<path class="atom-24" d="M 19.0 43.3 Q 19.0 41.2, 20.0 40.1 Q 21.0 39.0, 22.9 39.0 Q 24.7 39.0, 25.7 40.1 Q 26.7 41.2, 26.7 43.3 Q 26.7 45.3, 25.7 46.4 Q 24.7 47.6, 22.9 47.6 Q 21.0 47.6, 20.0 46.4 Q 19.0 45.3, 19.0 43.3 M 22.9 46.6 Q 24.2 46.6, 24.8 45.8 Q 25.5 44.9, 25.5 43.3 Q 25.5 41.6, 24.8 40.8 Q 24.2 39.9, 22.9 39.9 Q 21.6 39.9, 20.9 40.8 Q 20.2 41.6, 20.2 43.3 Q 20.2 44.9, 20.9 45.8 Q 21.6 46.6, 22.9 46.6 " fill="#000000"/>
<path class="atom-28" d="M 94.3 177.3 Q 94.3 175.3, 95.3 174.2 Q 96.3 173.0, 98.1 173.0 Q 100.0 173.0, 101.0 174.2 Q 102.0 175.3, 102.0 177.3 Q 102.0 179.3, 101.0 180.5 Q 100.0 181.6, 98.1 181.6 Q 96.3 181.6, 95.3 180.5 Q 94.3 179.3, 94.3 177.3 M 98.1 180.7 Q 99.4 180.7, 100.1 179.8 Q 100.8 179.0, 100.8 177.3 Q 100.8 175.6, 100.1 174.8 Q 99.4 174.0, 98.1 174.0 Q 96.8 174.0, 96.1 174.8 Q 95.5 175.6, 95.5 177.3 Q 95.5 179.0, 96.1 179.8 Q 96.8 180.7, 98.1 180.7 " fill="#000000"/>
<path class="atom-33" d="M 222.4 223.5 Q 222.4 221.4, 223.4 220.3 Q 224.4 219.2, 226.2 219.2 Q 228.0 219.2, 228.9 220.4 L 228.1 221.1 Q 227.4 220.2, 226.2 220.2 Q 225.0 220.2, 224.3 221.0 Q 223.6 221.9, 223.6 223.5 Q 223.6 225.1, 224.3 226.0 Q 225.0 226.8, 226.4 226.8 Q 227.3 226.8, 228.4 226.3 L 228.7 227.2 Q 228.3 227.4, 227.6 227.6 Q 226.9 227.8, 226.2 227.8 Q 224.4 227.8, 223.4 226.7 Q 222.4 225.6, 222.4 223.5 " fill="#000000"/>
<path class="atom-33" d="M 229.7 218.7 L 230.8 218.7 L 230.8 227.7 L 229.7 227.7 L 229.7 218.7 " fill="#000000"/>
</svg>