<svg xmlns="http://www.w3.org/2000/svg" xmlns:rdkit="http://www.rdkit.org/xml" xmlns:xlink="http://www.w3.org/1999/xlink" version="1.1" baseProfile="full" xml:space="preserve" width="329px" height="254px" viewBox="0 0 329 254">
<!-- END OF HEADER -->
<rect style="opacity:1.0;fill:#FFFFFF;stroke:none" width="329.0" height="254.0" x="0.0" y="0.0"> </rect>
<path class="bond-0 atom-1 atom-0" d="M 230.5,150.9 L 250.1,173.0 L 243.9,178.5 L 224.3,156.4 Z" style="fill:#9696FF;fill-rule:evenodd;fill-opacity:1;stroke:#9696FF;stroke-width:2.0px;stroke-linecap:butt;stroke-linejoin:miter;stroke-miterlimit:10;stroke-opacity:1;"/>
<path class="bond-1 atom-1 atom-2" d="M 223.6,151.8 L 236.8,125.3 L 244.2,129.0 L 231.1,155.5 Z" style="fill:#9696FF;fill-rule:evenodd;fill-opacity:1;stroke:#9696FF;stroke-width:2.0px;stroke-linecap:butt;stroke-linejoin:miter;stroke-miterlimit:10;stroke-opacity:1;"/>
<path class="bond-2 atom-2 atom-3" d="M 237.6,130.1 L 216.5,109.4 L 222.3,103.5 L 243.4,124.2 Z" style="fill:#9696FF;fill-rule:evenodd;fill-opacity:1;stroke:#9696FF;stroke-width:2.0px;stroke-linecap:butt;stroke-linejoin:miter;stroke-miterlimit:10;stroke-opacity:1;"/>
<path class="bond-4 atom-4 atom-5" d="M 221.2,80.4 L 198.1,62.0 L 203.2,55.5 L 226.4,73.9 Z" style="fill:#FFDADA;fill-rule:evenodd;fill-opacity:1;stroke:#FFDADA;stroke-width:2.0px;stroke-linecap:butt;stroke-linejoin:miter;stroke-miterlimit:10;stroke-opacity:1;"/>
<path class="bond-5 atom-5 atom-6" d="M 196.5,58.1 L 200.9,28.9 L 209.1,30.1 L 204.7,59.3 Z" style="fill:#FFDADA;fill-rule:evenodd;fill-opacity:1;stroke:#FFDADA;stroke-width:2.0px;stroke-linecap:butt;stroke-linejoin:miter;stroke-miterlimit:10;stroke-opacity:1;"/>
<path class="bond-6 atom-6 atom-7" d="M 203.5,25.6 L 231.0,14.8 L 234.0,22.5 L 206.5,33.3 Z" style="fill:#FFDADA;fill-rule:evenodd;fill-opacity:1;stroke:#FFDADA;stroke-width:2.0px;stroke-linecap:butt;stroke-linejoin:miter;stroke-miterlimit:10;stroke-opacity:1;"/>
<path class="bond-7 atom-7 atom-8" d="M 235.1,15.4 L 258.3,33.8 L 253.1,40.3 L 229.9,21.9 Z" style="fill:#FFDADA;fill-rule:evenodd;fill-opacity:1;stroke:#FFDADA;stroke-width:2.0px;stroke-linecap:butt;stroke-linejoin:miter;stroke-miterlimit:10;stroke-opacity:1;"/>
<path class="bond-8 atom-8 atom-9" d="M 254.2,33.2 L 281.7,22.3 L 284.7,30.0 L 257.2,40.9 Z" style="fill:#FFDADA;fill-rule:evenodd;fill-opacity:1;stroke:#FFDADA;stroke-width:2.0px;stroke-linecap:butt;stroke-linejoin:miter;stroke-miterlimit:10;stroke-opacity:1;"/>
<path class="bond-9 atom-9 atom-10" d="M 285.8,22.9 L 308.9,41.3 L 303.8,47.8 L 280.6,29.4 Z" style="fill:#FFDADA;fill-rule:evenodd;fill-opacity:1;stroke:#FFDADA;stroke-width:2.0px;stroke-linecap:butt;stroke-linejoin:miter;stroke-miterlimit:10;stroke-opacity:1;"/>
<path class="bond-10 atom-10 atom-11" d="M 310.5,45.2 L 306.1,74.5 L 297.9,73.2 L 302.3,44.0 Z" style="fill:#FFDADA;fill-rule:evenodd;fill-opacity:1;stroke:#FFDADA;stroke-width:2.0px;stroke-linecap:butt;stroke-linejoin:miter;stroke-miterlimit:10;stroke-opacity:1;"/>
<path class="bond-11 atom-11 atom-12" d="M 303.5,77.7 L 276.0,88.6 L 273.0,80.8 L 300.5,70.0 Z" style="fill:#FFDADA;fill-rule:evenodd;fill-opacity:1;stroke:#FFDADA;stroke-width:2.0px;stroke-linecap:butt;stroke-linejoin:miter;stroke-miterlimit:10;stroke-opacity:1;"/>
<path class="bond-12 atom-12 atom-13" d="M 271.9,87.9 L 248.7,69.5 L 253.9,63.0 L 277.1,81.5 Z" style="fill:#FFDADA;fill-rule:evenodd;fill-opacity:1;stroke:#FFDADA;stroke-width:2.0px;stroke-linecap:butt;stroke-linejoin:miter;stroke-miterlimit:10;stroke-opacity:1;"/>
<path class="bond-13 atom-3 atom-14" d="M 221.3,110.1 L 195.1,123.8 L 191.3,116.4 L 217.5,102.7 Z" style="fill:#9696FF;fill-rule:evenodd;fill-opacity:1;stroke:#9696FF;stroke-width:2.0px;stroke-linecap:butt;stroke-linejoin:miter;stroke-miterlimit:10;stroke-opacity:1;"/>
<path class="bond-14 atom-14 atom-15" d="M 191.3,123.8 L 164.9,110.6 L 168.6,103.2 L 195.0,116.4 Z" style="fill:#9696FF;fill-rule:evenodd;fill-opacity:1;stroke:#9696FF;stroke-width:2.0px;stroke-linecap:butt;stroke-linejoin:miter;stroke-miterlimit:10;stroke-opacity:1;"/>
<path class="bond-15 atom-14 atom-16" d="M 197.3,119.4 L 202.2,148.6 L 194.0,149.9 L 189.1,120.8 Z" style="fill:#9696FF;fill-rule:evenodd;fill-opacity:1;stroke:#9696FF;stroke-width:2.0px;stroke-linecap:butt;stroke-linejoin:miter;stroke-miterlimit:10;stroke-opacity:1;"/>
<path class="bond-16 atom-16 atom-17" d="M 197.1,153.3 L 168.4,145.9 L 170.5,137.9 L 199.1,145.2 Z" style="fill:#9696FF;fill-rule:evenodd;fill-opacity:1;stroke:#9696FF;stroke-width:2.0px;stroke-linecap:butt;stroke-linejoin:miter;stroke-miterlimit:10;stroke-opacity:1;"/>
<path class="bond-17 atom-17 atom-18" d="M 172.4,144.8 L 151.7,165.9 L 145.8,160.1 L 166.5,139.0 Z" style="fill:#9696FF;fill-rule:evenodd;fill-opacity:1;stroke:#9696FF;stroke-width:2.0px;stroke-linecap:butt;stroke-linejoin:miter;stroke-miterlimit:10;stroke-opacity:1;"/>
<path class="bond-19 atom-19 atom-20" d="M 116.1,156.7 L 108.2,128.2 L 116.1,126.0 L 124.1,154.5 Z" style="fill:#FEFEFF;fill-rule:evenodd;fill-opacity:1;stroke:#FEFEFF;stroke-width:2.0px;stroke-linecap:butt;stroke-linejoin:miter;stroke-miterlimit:10;stroke-opacity:1;"/>
<path class="bond-20 atom-20 atom-21" d="M 109.2,124.2 L 129.9,103.1 L 135.8,108.9 L 115.1,130.0 Z" style="fill:#FEFEFF;fill-rule:evenodd;fill-opacity:1;stroke:#FEFEFF;stroke-width:2.0px;stroke-linecap:butt;stroke-linejoin:miter;stroke-miterlimit:10;stroke-opacity:1;"/>
<path class="bond-24 atom-24 atom-25" d="M 50.7,85.5 L 38.4,112.4 L 30.9,109.0 L 43.2,82.1 Z" style="fill:#F8F8FF;fill-rule:evenodd;fill-opacity:1;stroke:#F8F8FF;stroke-width:2.0px;stroke-linecap:butt;stroke-linejoin:miter;stroke-miterlimit:10;stroke-opacity:1;"/>
<path class="bond-25 atom-24 atom-26" d="M 44.6,87.2 L 20.2,70.4 L 24.9,63.6 L 49.3,80.4 Z" style="fill:#F8F8FF;fill-rule:evenodd;fill-opacity:1;stroke:#F8F8FF;stroke-width:2.0px;stroke-linecap:butt;stroke-linejoin:miter;stroke-miterlimit:10;stroke-opacity:1;"/>
<path class="bond-26 atom-26 atom-27" d="M 20.8,63.3 L 47.5,50.5 L 51.0,58.0 L 24.3,70.8 Z" style="fill:#F8F8FF;fill-rule:evenodd;fill-opacity:1;stroke:#F8F8FF;stroke-width:2.0px;stroke-linecap:butt;stroke-linejoin:miter;stroke-miterlimit:10;stroke-opacity:1;"/>
<path class="bond-27 atom-18 atom-28" d="M 152.7,161.9 L 160.6,190.4 L 152.6,192.6 L 144.7,164.1 Z" style="fill:#9696FF;fill-rule:evenodd;fill-opacity:1;stroke:#9696FF;stroke-width:2.0px;stroke-linecap:butt;stroke-linejoin:miter;stroke-miterlimit:10;stroke-opacity:1;"/>
<path class="bond-28 atom-28 atom-29" d="M 159.6,194.4 L 138.9,215.5 L 132.9,209.7 L 153.7,188.6 Z" style="fill:#9696FF;fill-rule:evenodd;fill-opacity:1;stroke:#9696FF;stroke-width:2.0px;stroke-linecap:butt;stroke-linejoin:miter;stroke-miterlimit:10;stroke-opacity:1;"/>
<path class="bond-29 atom-28 atom-30" d="M 157.7,187.5 L 186.3,194.9 L 184.2,202.9 L 155.6,195.5 Z" style="fill:#9696FF;fill-rule:evenodd;fill-opacity:1;stroke:#9696FF;stroke-width:2.0px;stroke-linecap:butt;stroke-linejoin:miter;stroke-miterlimit:10;stroke-opacity:1;"/>
<path class="bond-30 atom-30 atom-31" d="M 189.3,197.8 L 197.2,226.3 L 189.2,228.5 L 181.3,200.0 Z" style="fill:#9696FF;fill-rule:evenodd;fill-opacity:1;stroke:#9696FF;stroke-width:2.0px;stroke-linecap:butt;stroke-linejoin:miter;stroke-miterlimit:10;stroke-opacity:1;"/>
<path class="bond-31 atom-31 atom-32" d="M 194.2,223.4 L 222.9,230.8 L 220.8,238.8 L 192.2,231.4 Z" style="fill:#9696FF;fill-rule:evenodd;fill-opacity:1;stroke:#9696FF;stroke-width:2.0px;stroke-linecap:butt;stroke-linejoin:miter;stroke-miterlimit:10;stroke-opacity:1;"/>
<path class="bond-32 atom-32 atom-33" d="M 218.9,231.9 L 239.6,210.8 L 245.5,216.6 L 224.8,237.7 Z" style="fill:#9696FF;fill-rule:evenodd;fill-opacity:1;stroke:#9696FF;stroke-width:2.0px;stroke-linecap:butt;stroke-linejoin:miter;stroke-miterlimit:10;stroke-opacity:1;"/>
<path class="bond-33 atom-33 atom-34" d="M 243.6,209.7 L 272.3,217.1 L 270.2,225.1 L 241.5,217.7 Z" style="fill:#9696FF;fill-rule:evenodd;fill-opacity:1;stroke:#9696FF;stroke-width:2.0px;stroke-linecap:butt;stroke-linejoin:miter;stroke-miterlimit:10;stroke-opacity:1;"/>
<path class="bond-34 atom-33 atom-35" d="M 238.6,214.8 L 230.7,186.3 L 238.6,184.1 L 246.6,212.6 Z" style="fill:#9696FF;fill-rule:evenodd;fill-opacity:1;stroke:#9696FF;stroke-width:2.0px;stroke-linecap:butt;stroke-linejoin:miter;stroke-miterlimit:10;stroke-opacity:1;"/>
<path class="bond-35 atom-35 atom-36" d="M 233.6,189.2 L 205.0,181.8 L 207.0,173.8 L 235.7,181.2 Z" style="fill:#9696FF;fill-rule:evenodd;fill-opacity:1;stroke:#9696FF;stroke-width:2.0px;stroke-linecap:butt;stroke-linejoin:miter;stroke-miterlimit:10;stroke-opacity:1;"/>
<path class="bond-36 atom-16 atom-1" d="M 198.7,145.2 L 228.0,149.5 L 226.7,157.7 L 197.5,153.4 Z" style="fill:#9696FF;fill-rule:evenodd;fill-opacity:1;stroke:#9696FF;stroke-width:2.0px;stroke-linecap:butt;stroke-linejoin:miter;stroke-miterlimit:10;stroke-opacity:1;"/>
<path class="bond-37 atom-27 atom-24" d="M 53.4,54.6 L 51.1,84.1 L 42.8,83.5 L 45.1,54.0 Z" style="fill:#F8F8FF;fill-rule:evenodd;fill-opacity:1;stroke:#F8F8FF;stroke-width:2.0px;stroke-linecap:butt;stroke-linejoin:miter;stroke-miterlimit:10;stroke-opacity:1;"/>
<path class="bond-38 atom-36 atom-30" d="M 209.0,180.7 L 188.2,201.8 L 182.3,196.0 L 203.1,174.9 Z" style="fill:#9696FF;fill-rule:evenodd;fill-opacity:1;stroke:#9696FF;stroke-width:2.0px;stroke-linecap:butt;stroke-linejoin:miter;stroke-miterlimit:10;stroke-opacity:1;"/>
<path class="bond-39 atom-13 atom-4" d="M 252.8,70.1 L 225.3,81.0 L 222.3,73.3 L 249.8,62.4 Z" style="fill:#FFDADA;fill-rule:evenodd;fill-opacity:1;stroke:#FFDADA;stroke-width:2.0px;stroke-linecap:butt;stroke-linejoin:miter;stroke-miterlimit:10;stroke-opacity:1;"/>
<path class="bond-40 atom-36 atom-16" d="M 202.0,178.9 L 194.1,150.4 L 202.1,148.2 L 210.0,176.7 Z" style="fill:#9696FF;fill-rule:evenodd;fill-opacity:1;stroke:#9696FF;stroke-width:2.0px;stroke-linecap:butt;stroke-linejoin:miter;stroke-miterlimit:10;stroke-opacity:1;"/>
<path class="bond-41 atom-13 atom-8" d="M 247.2,65.7 L 251.6,36.4 L 259.8,37.6 L 255.4,66.9 Z" style="fill:#FFDADA;fill-rule:evenodd;fill-opacity:1;stroke:#FFDADA;stroke-width:2.0px;stroke-linecap:butt;stroke-linejoin:miter;stroke-miterlimit:10;stroke-opacity:1;"/>
<ellipse cx="247.0" cy="175.8" rx="5.9" ry="5.9" class="atom-0" style="fill:#9696FF;fill-rule:evenodd;stroke:#9696FF;stroke-width:1.0px;stroke-linecap:butt;stroke-linejoin:miter;stroke-opacity:1"/>
<ellipse cx="227.4" cy="153.6" rx="5.9" ry="5.9" class="atom-1" style="fill:#9696FF;fill-rule:evenodd;stroke:#9696FF;stroke-width:1.0px;stroke-linecap:butt;stroke-linejoin:miter;stroke-opacity:1"/>
<ellipse cx="240.5" cy="127.1" rx="5.9" ry="5.9" class="atom-2" style="fill:#9696FF;fill-rule:evenodd;stroke:#9696FF;stroke-width:1.0px;stroke-linecap:butt;stroke-linejoin:miter;stroke-opacity:1"/>
<ellipse cx="219.4" cy="106.4" rx="5.9" ry="5.9" class="atom-3" style="fill:#9696FF;fill-rule:evenodd;stroke:#9696FF;stroke-width:1.0px;stroke-linecap:butt;stroke-linejoin:miter;stroke-opacity:1"/>
<ellipse cx="223.8" cy="77.1" rx="5.9" ry="5.9" class="atom-4" style="fill:#FFDADA;fill-rule:evenodd;stroke:#FFDADA;stroke-width:1.0px;stroke-linecap:butt;stroke-linejoin:miter;stroke-opacity:1"/>
<ellipse cx="200.6" cy="58.7" rx="5.9" ry="5.9" class="atom-5" style="fill:#FFDADA;fill-rule:evenodd;stroke:#FFDADA;stroke-width:1.0px;stroke-linecap:butt;stroke-linejoin:miter;stroke-opacity:1"/>
<ellipse cx="205.0" cy="29.5" rx="5.9" ry="5.9" class="atom-6" style="fill:#FFDADA;fill-rule:evenodd;stroke:#FFDADA;stroke-width:1.0px;stroke-linecap:butt;stroke-linejoin:miter;stroke-opacity:1"/>
<ellipse cx="232.5" cy="18.6" rx="5.9" ry="5.9" class="atom-7" style="fill:#FFDADA;fill-rule:evenodd;stroke:#FFDADA;stroke-width:1.0px;stroke-linecap:butt;stroke-linejoin:miter;stroke-opacity:1"/>
<ellipse cx="255.7" cy="37.0" rx="5.9" ry="5.9" class="atom-8" style="fill:#FFDADA;fill-rule:evenodd;stroke:#FFDADA;stroke-width:1.0px;stroke-linecap:butt;stroke-linejoin:miter;stroke-opacity:1"/>
<ellipse cx="283.2" cy="26.2" rx="5.9" ry="5.9" class="atom-9" style="fill:#FFDADA;fill-rule:evenodd;stroke:#FFDADA;stroke-width:1.0px;stroke-linecap:butt;stroke-linejoin:miter;stroke-opacity:1"/>
<ellipse cx="306.4" cy="44.6" rx="5.9" ry="5.9" class="atom-10" style="fill:#FFDADA;fill-rule:evenodd;stroke:#FFDADA;stroke-width:1.0px;stroke-linecap:butt;stroke-linejoin:miter;stroke-opacity:1"/>
<ellipse cx="302.0" cy="73.8" rx="5.9" ry="5.9" class="atom-11" style="fill:#FFDADA;fill-rule:evenodd;stroke:#FFDADA;stroke-width:1.0px;stroke-linecap:butt;stroke-linejoin:miter;stroke-opacity:1"/>
<ellipse cx="274.5" cy="84.7" rx="5.9" ry="5.9" class="atom-12" style="fill:#FFDADA;fill-rule:evenodd;stroke:#FFDADA;stroke-width:1.0px;stroke-linecap:butt;stroke-linejoin:miter;stroke-opacity:1"/>
<ellipse cx="251.3" cy="66.3" rx="5.9" ry="5.9" class="atom-13" style="fill:#FFDADA;fill-rule:evenodd;stroke:#FFDADA;stroke-width:1.0px;stroke-linecap:butt;stroke-linejoin:miter;stroke-opacity:1"/>
<ellipse cx="193.2" cy="120.1" rx="5.9" ry="5.9" class="atom-14" style="fill:#9696FF;fill-rule:evenodd;stroke:#9696FF;stroke-width:1.0px;stroke-linecap:butt;stroke-linejoin:miter;stroke-opacity:1"/>
<ellipse cx="166.7" cy="106.9" rx="5.9" ry="5.9" class="atom-15" style="fill:#9696FF;fill-rule:evenodd;stroke:#9696FF;stroke-width:1.0px;stroke-linecap:butt;stroke-linejoin:miter;stroke-opacity:1"/>
<ellipse cx="198.1" cy="149.3" rx="5.9" ry="5.9" class="atom-16" style="fill:#9696FF;fill-rule:evenodd;stroke:#9696FF;stroke-width:1.0px;stroke-linecap:butt;stroke-linejoin:miter;stroke-opacity:1"/>
<ellipse cx="169.4" cy="141.9" rx="5.9" ry="5.9" class="atom-17" style="fill:#9696FF;fill-rule:evenodd;stroke:#9696FF;stroke-width:1.0px;stroke-linecap:butt;stroke-linejoin:miter;stroke-opacity:1"/>
<ellipse cx="148.7" cy="163.0" rx="5.9" ry="5.9" class="atom-18" style="fill:#9696FF;fill-rule:evenodd;stroke:#9696FF;stroke-width:1.0px;stroke-linecap:butt;stroke-linejoin:miter;stroke-opacity:1"/>
<ellipse cx="120.1" cy="155.6" rx="5.9" ry="5.9" class="atom-19" style="fill:#FEFEFF;fill-rule:evenodd;stroke:#FEFEFF;stroke-width:1.0px;stroke-linecap:butt;stroke-linejoin:miter;stroke-opacity:1"/>
<ellipse cx="112.1" cy="127.1" rx="5.9" ry="5.9" class="atom-20" style="fill:#FEFEFF;fill-rule:evenodd;stroke:#FEFEFF;stroke-width:1.0px;stroke-linecap:butt;stroke-linejoin:miter;stroke-opacity:1"/>
<ellipse cx="132.9" cy="106.0" rx="5.9" ry="5.9" class="atom-21" style="fill:#FEFEFF;fill-rule:evenodd;stroke:#FEFEFF;stroke-width:1.0px;stroke-linecap:butt;stroke-linejoin:miter;stroke-opacity:1"/>
<ellipse cx="83.5" cy="119.7" rx="5.9" ry="5.9" class="atom-22" style="fill:#FAFAFF;fill-rule:evenodd;stroke:#FAFAFF;stroke-width:1.0px;stroke-linecap:butt;stroke-linejoin:miter;stroke-opacity:1"/>
<ellipse cx="75.6" cy="91.2" rx="5.9" ry="5.9" class="atom-23" style="fill:#FEFEFF;fill-rule:evenodd;stroke:#FEFEFF;stroke-width:1.0px;stroke-linecap:butt;stroke-linejoin:miter;stroke-opacity:1"/>
<ellipse cx="46.9" cy="83.8" rx="5.9" ry="5.9" class="atom-24" style="fill:#F8F8FF;fill-rule:evenodd;stroke:#F8F8FF;stroke-width:1.0px;stroke-linecap:butt;stroke-linejoin:miter;stroke-opacity:1"/>
<ellipse cx="34.7" cy="110.7" rx="5.9" ry="5.9" class="atom-25" style="fill:#F8F8FF;fill-rule:evenodd;stroke:#F8F8FF;stroke-width:1.0px;stroke-linecap:butt;stroke-linejoin:miter;stroke-opacity:1"/>
<ellipse cx="22.5" cy="67.0" rx="5.9" ry="5.9" class="atom-26" style="fill:#F8F8FF;fill-rule:evenodd;stroke:#F8F8FF;stroke-width:1.0px;stroke-linecap:butt;stroke-linejoin:miter;stroke-opacity:1"/>
<ellipse cx="49.2" cy="54.3" rx="5.9" ry="5.9" class="atom-27" style="fill:#F8F8FF;fill-rule:evenodd;stroke:#F8F8FF;stroke-width:1.0px;stroke-linecap:butt;stroke-linejoin:miter;stroke-opacity:1"/>
<ellipse cx="156.6" cy="191.5" rx="5.9" ry="5.9" class="atom-28" style="fill:#9696FF;fill-rule:evenodd;stroke:#9696FF;stroke-width:1.0px;stroke-linecap:butt;stroke-linejoin:miter;stroke-opacity:1"/>
<ellipse cx="135.9" cy="212.6" rx="5.9" ry="5.9" class="atom-29" style="fill:#9696FF;fill-rule:evenodd;stroke:#9696FF;stroke-width:1.0px;stroke-linecap:butt;stroke-linejoin:miter;stroke-opacity:1"/>
<ellipse cx="185.3" cy="198.9" rx="5.9" ry="5.9" class="atom-30" style="fill:#9696FF;fill-rule:evenodd;stroke:#9696FF;stroke-width:1.0px;stroke-linecap:butt;stroke-linejoin:miter;stroke-opacity:1"/>
<ellipse cx="193.2" cy="227.4" rx="5.9" ry="5.9" class="atom-31" style="fill:#9696FF;fill-rule:evenodd;stroke:#9696FF;stroke-width:1.0px;stroke-linecap:butt;stroke-linejoin:miter;stroke-opacity:1"/>
<ellipse cx="221.8" cy="234.8" rx="5.9" ry="5.9" class="atom-32" style="fill:#9696FF;fill-rule:evenodd;stroke:#9696FF;stroke-width:1.0px;stroke-linecap:butt;stroke-linejoin:miter;stroke-opacity:1"/>
<ellipse cx="242.6" cy="213.7" rx="5.9" ry="5.9" class="atom-33" style="fill:#9696FF;fill-rule:evenodd;stroke:#9696FF;stroke-width:1.0px;stroke-linecap:butt;stroke-linejoin:miter;stroke-opacity:1"/>
<ellipse cx="271.2" cy="221.1" rx="5.9" ry="5.9" class="atom-34" style="fill:#9696FF;fill-rule:evenodd;stroke:#9696FF;stroke-width:1.0px;stroke-linecap:butt;stroke-linejoin:miter;stroke-opacity:1"/>
<ellipse cx="234.7" cy="185.2" rx="5.9" ry="5.9" class="atom-35" style="fill:#9696FF;fill-rule:evenodd;stroke:#9696FF;stroke-width:1.0px;stroke-linecap:butt;stroke-linejoin:miter;stroke-opacity:1"/>
<ellipse cx="206.0" cy="177.8" rx="5.9" ry="5.9" class="atom-36" style="fill:#9696FF;fill-rule:evenodd;stroke:#9696FF;stroke-width:1.0px;stroke-linecap:butt;stroke-linejoin:miter;stroke-opacity:1"/>
<path class="bond-0 atom-1 atom-0" d="M 230.0,156.2 L 229.6,156.6" style="fill:none;fill-rule:evenodd;stroke:#000000;stroke-width:1.0px;stroke-linecap:butt;stroke-linejoin:miter;stroke-opacity:1"/>
<path class="bond-0 atom-1 atom-0" d="M 232.7,158.8 L 231.8,159.5" style="fill:none;fill-rule:evenodd;stroke:#000000;stroke-width:1.0px;stroke-linecap:butt;stroke-linejoin:miter;stroke-opacity:1"/>
<path class="bond-0 atom-1 atom-0" d="M 235.3,161.4 L 234.1,162.5" style="fill:none;fill-rule:evenodd;stroke:#000000;stroke-width:1.0px;stroke-linecap:butt;stroke-linejoin:miter;stroke-opacity:1"/>
<path class="bond-0 atom-1 atom-0" d="M 238.0,164.0 L 236.3,165.4" style="fill:none;fill-rule:evenodd;stroke:#000000;stroke-width:1.0px;stroke-linecap:butt;stroke-linejoin:miter;stroke-opacity:1"/>
<path class="bond-0 atom-1 atom-0" d="M 240.6,166.5 L 238.6,168.4" style="fill:none;fill-rule:evenodd;stroke:#000000;stroke-width:1.0px;stroke-linecap:butt;stroke-linejoin:miter;stroke-opacity:1"/>
<path class="bond-0 atom-1 atom-0" d="M 243.3,169.1 L 240.8,171.3" style="fill:none;fill-rule:evenodd;stroke:#000000;stroke-width:1.0px;stroke-linecap:butt;stroke-linejoin:miter;stroke-opacity:1"/>
<path class="bond-0 atom-1 atom-0" d="M 246.0,171.7 L 243.1,174.3" style="fill:none;fill-rule:evenodd;stroke:#000000;stroke-width:1.0px;stroke-linecap:butt;stroke-linejoin:miter;stroke-opacity:1"/>
<path class="bond-0 atom-1 atom-0" d="M 248.6,174.3 L 245.3,177.2" style="fill:none;fill-rule:evenodd;stroke:#000000;stroke-width:1.0px;stroke-linecap:butt;stroke-linejoin:miter;stroke-opacity:1"/>
<path class="bond-1 atom-1 atom-2" d="M 227.4,153.6 L 240.5,127.1" style="fill:none;fill-rule:evenodd;stroke:#000000;stroke-width:2.0px;stroke-linecap:butt;stroke-linejoin:miter;stroke-opacity:1"/>
<path class="bond-2 atom-2 atom-3" d="M 240.5,127.1 L 223.6,110.5" style="fill:none;fill-rule:evenodd;stroke:#000000;stroke-width:2.0px;stroke-linecap:butt;stroke-linejoin:miter;stroke-opacity:1"/>
<path class="bond-3 atom-3 atom-4" d="M 220.2,101.2 L 223.8,77.1" style="fill:none;fill-rule:evenodd;stroke:#000000;stroke-width:2.0px;stroke-linecap:butt;stroke-linejoin:miter;stroke-opacity:1"/>
<path class="bond-4 atom-4 atom-5" d="M 223.8,77.1 L 200.6,58.7" style="fill:none;fill-rule:evenodd;stroke:#000000;stroke-width:2.0px;stroke-linecap:butt;stroke-linejoin:miter;stroke-opacity:1"/>
<path class="bond-4 atom-4 atom-5" d="M 224.5,72.1 L 205.4,56.9" style="fill:none;fill-rule:evenodd;stroke:#000000;stroke-width:2.0px;stroke-linecap:butt;stroke-linejoin:miter;stroke-opacity:1"/>
<path class="bond-5 atom-5 atom-6" d="M 200.6,58.7 L 204.2,34.6" style="fill:none;fill-rule:evenodd;stroke:#000000;stroke-width:2.0px;stroke-linecap:butt;stroke-linejoin:miter;stroke-opacity:1"/>
<path class="bond-6 atom-6 atom-7" d="M 209.1,27.8 L 232.5,18.6" style="fill:none;fill-rule:evenodd;stroke:#000000;stroke-width:2.0px;stroke-linecap:butt;stroke-linejoin:miter;stroke-opacity:1"/>
<path class="bond-6 atom-6 atom-7" d="M 210.8,32.0 L 231.8,23.7" style="fill:none;fill-rule:evenodd;stroke:#000000;stroke-width:2.0px;stroke-linecap:butt;stroke-linejoin:miter;stroke-opacity:1"/>
<path class="bond-7 atom-7 atom-8" d="M 232.5,18.6 L 255.7,37.0" style="fill:none;fill-rule:evenodd;stroke:#000000;stroke-width:2.0px;stroke-linecap:butt;stroke-linejoin:miter;stroke-opacity:1"/>
<path class="bond-8 atom-8 atom-9" d="M 255.7,37.0 L 283.2,26.2" style="fill:none;fill-rule:evenodd;stroke:#000000;stroke-width:2.0px;stroke-linecap:butt;stroke-linejoin:miter;stroke-opacity:1"/>
<path class="bond-8 atom-8 atom-9" d="M 259.7,40.2 L 282.4,31.2" style="fill:none;fill-rule:evenodd;stroke:#000000;stroke-width:2.0px;stroke-linecap:butt;stroke-linejoin:miter;stroke-opacity:1"/>
<path class="bond-9 atom-9 atom-10" d="M 283.2,26.2 L 306.4,44.6" style="fill:none;fill-rule:evenodd;stroke:#000000;stroke-width:2.0px;stroke-linecap:butt;stroke-linejoin:miter;stroke-opacity:1"/>
<path class="bond-10 atom-10 atom-11" d="M 306.4,44.6 L 302.0,73.8" style="fill:none;fill-rule:evenodd;stroke:#000000;stroke-width:2.0px;stroke-linecap:butt;stroke-linejoin:miter;stroke-opacity:1"/>
<path class="bond-10 atom-10 atom-11" d="M 301.6,46.5 L 298.0,70.7" style="fill:none;fill-rule:evenodd;stroke:#000000;stroke-width:2.0px;stroke-linecap:butt;stroke-linejoin:miter;stroke-opacity:1"/>
<path class="bond-11 atom-11 atom-12" d="M 302.0,73.8 L 274.5,84.7" style="fill:none;fill-rule:evenodd;stroke:#000000;stroke-width:2.0px;stroke-linecap:butt;stroke-linejoin:miter;stroke-opacity:1"/>
<path class="bond-12 atom-12 atom-13" d="M 274.5,84.7 L 251.3,66.3" style="fill:none;fill-rule:evenodd;stroke:#000000;stroke-width:2.0px;stroke-linecap:butt;stroke-linejoin:miter;stroke-opacity:1"/>
<path class="bond-12 atom-12 atom-13" d="M 275.2,79.6 L 256.1,64.4" style="fill:none;fill-rule:evenodd;stroke:#000000;stroke-width:2.0px;stroke-linecap:butt;stroke-linejoin:miter;stroke-opacity:1"/>
<path class="bond-13 atom-3 atom-14" d="M 215.3,108.6 L 193.2,120.1" style="fill:none;fill-rule:evenodd;stroke:#000000;stroke-width:2.0px;stroke-linecap:butt;stroke-linejoin:miter;stroke-opacity:1"/>
<path class="bond-14 atom-14 atom-15" d="M 195.6,118.8 L 172.5,107.3" style="fill:none;fill-rule:evenodd;stroke:#000000;stroke-width:2.0px;stroke-linecap:butt;stroke-linejoin:miter;stroke-opacity:1"/>
<path class="bond-14 atom-14 atom-15" d="M 193.6,122.8 L 170.5,111.3" style="fill:none;fill-rule:evenodd;stroke:#000000;stroke-width:2.0px;stroke-linecap:butt;stroke-linejoin:miter;stroke-opacity:1"/>
<path class="bond-15 atom-14 atom-16" d="M 193.2,120.1 L 198.1,149.3" style="fill:none;fill-rule:evenodd;stroke:#000000;stroke-width:2.0px;stroke-linecap:butt;stroke-linejoin:miter;stroke-opacity:1"/>
<path class="bond-16 atom-16 atom-17" d="M 194.6,148.0 L 194.4,148.6" style="fill:none;fill-rule:evenodd;stroke:#000000;stroke-width:1.0px;stroke-linecap:butt;stroke-linejoin:miter;stroke-opacity:1"/>
<path class="bond-16 atom-16 atom-17" d="M 191.1,146.8 L 190.8,148.0" style="fill:none;fill-rule:evenodd;stroke:#000000;stroke-width:1.0px;stroke-linecap:butt;stroke-linejoin:miter;stroke-opacity:1"/>
<path class="bond-16 atom-16 atom-17" d="M 187.6,145.6 L 187.1,147.4" style="fill:none;fill-rule:evenodd;stroke:#000000;stroke-width:1.0px;stroke-linecap:butt;stroke-linejoin:miter;stroke-opacity:1"/>
<path class="bond-16 atom-16 atom-17" d="M 184.1,144.3 L 183.5,146.8" style="fill:none;fill-rule:evenodd;stroke:#000000;stroke-width:1.0px;stroke-linecap:butt;stroke-linejoin:miter;stroke-opacity:1"/>
<path class="bond-16 atom-16 atom-17" d="M 180.6,143.1 L 179.8,146.2" style="fill:none;fill-rule:evenodd;stroke:#000000;stroke-width:1.0px;stroke-linecap:butt;stroke-linejoin:miter;stroke-opacity:1"/>
<path class="bond-16 atom-16 atom-17" d="M 177.1,141.9 L 176.1,145.6" style="fill:none;fill-rule:evenodd;stroke:#000000;stroke-width:1.0px;stroke-linecap:butt;stroke-linejoin:miter;stroke-opacity:1"/>
<path class="bond-16 atom-16 atom-17" d="M 173.6,140.6 L 172.5,144.9" style="fill:none;fill-rule:evenodd;stroke:#000000;stroke-width:1.0px;stroke-linecap:butt;stroke-linejoin:miter;stroke-opacity:1"/>
<path class="bond-17 atom-17 atom-18" d="M 169.4,141.9 L 152.9,158.7" style="fill:none;fill-rule:evenodd;stroke:#000000;stroke-width:2.0px;stroke-linecap:butt;stroke-linejoin:miter;stroke-opacity:1"/>
<path class="bond-18 atom-18 atom-19" d="M 144.6,161.9 L 120.1,155.6" style="fill:none;fill-rule:evenodd;stroke:#000000;stroke-width:2.0px;stroke-linecap:butt;stroke-linejoin:miter;stroke-opacity:1"/>
<path class="bond-19 atom-19 atom-20" d="M 120.1,155.6 L 112.1,127.1" style="fill:none;fill-rule:evenodd;stroke:#000000;stroke-width:2.0px;stroke-linecap:butt;stroke-linejoin:miter;stroke-opacity:1"/>
<path class="bond-20 atom-20 atom-21" d="M 112.8,129.5 L 129.6,112.4" style="fill:none;fill-rule:evenodd;stroke:#000000;stroke-width:2.0px;stroke-linecap:butt;stroke-linejoin:miter;stroke-opacity:1"/>
<path class="bond-20 atom-20 atom-21" d="M 109.7,126.4 L 126.5,109.3" style="fill:none;fill-rule:evenodd;stroke:#000000;stroke-width:2.0px;stroke-linecap:butt;stroke-linejoin:miter;stroke-opacity:1"/>
<path class="bond-21 atom-20 atom-22" d="M 112.1,127.1 L 87.7,120.8" style="fill:none;fill-rule:evenodd;stroke:#000000;stroke-width:2.0px;stroke-linecap:butt;stroke-linejoin:miter;stroke-opacity:1"/>
<path class="bond-22 atom-22 atom-23" d="M 82.1,114.5 L 75.6,91.2" style="fill:none;fill-rule:evenodd;stroke:#000000;stroke-width:2.0px;stroke-linecap:butt;stroke-linejoin:miter;stroke-opacity:1"/>
<path class="bond-23 atom-23 atom-24" d="M 75.6,91.2 L 46.9,83.8" style="fill:none;fill-rule:evenodd;stroke:#000000;stroke-width:2.0px;stroke-linecap:butt;stroke-linejoin:miter;stroke-opacity:1"/>
<path class="bond-24 atom-24 atom-25" d="M 46.9,83.8 L 37.0,105.5" style="fill:none;fill-rule:evenodd;stroke:#000000;stroke-width:2.0px;stroke-linecap:butt;stroke-linejoin:miter;stroke-opacity:1"/>
<path class="bond-25 atom-24 atom-26" d="M 46.9,83.8 L 22.5,67.0" style="fill:none;fill-rule:evenodd;stroke:#000000;stroke-width:2.0px;stroke-linecap:butt;stroke-linejoin:miter;stroke-opacity:1"/>
<path class="bond-26 atom-26 atom-27" d="M 22.5,67.0 L 49.2,54.3" style="fill:none;fill-rule:evenodd;stroke:#000000;stroke-width:2.0px;stroke-linecap:butt;stroke-linejoin:miter;stroke-opacity:1"/>
<path class="bond-27 atom-18 atom-28" d="M 150.1,168.1 L 156.6,191.5" style="fill:none;fill-rule:evenodd;stroke:#000000;stroke-width:2.0px;stroke-linecap:butt;stroke-linejoin:miter;stroke-opacity:1"/>
<path class="bond-28 atom-28 atom-29" d="M 155.9,189.0 L 139.1,206.1" style="fill:none;fill-rule:evenodd;stroke:#000000;stroke-width:2.0px;stroke-linecap:butt;stroke-linejoin:miter;stroke-opacity:1"/>
<path class="bond-28 atom-28 atom-29" d="M 159.1,192.1 L 142.3,209.2" style="fill:none;fill-rule:evenodd;stroke:#000000;stroke-width:2.0px;stroke-linecap:butt;stroke-linejoin:miter;stroke-opacity:1"/>
<path class="bond-29 atom-28 atom-30" d="M 156.6,191.5 L 185.3,198.9" style="fill:none;fill-rule:evenodd;stroke:#000000;stroke-width:2.0px;stroke-linecap:butt;stroke-linejoin:miter;stroke-opacity:1"/>
<path class="bond-30 atom-30 atom-31" d="M 185.3,198.9 L 193.2,227.4" style="fill:none;fill-rule:evenodd;stroke:#000000;stroke-width:2.0px;stroke-linecap:butt;stroke-linejoin:miter;stroke-opacity:1"/>
<path class="bond-30 atom-30 atom-31" d="M 190.2,200.2 L 196.8,223.7" style="fill:none;fill-rule:evenodd;stroke:#000000;stroke-width:2.0px;stroke-linecap:butt;stroke-linejoin:miter;stroke-opacity:1"/>
<path class="bond-31 atom-31 atom-32" d="M 193.2,227.4 L 221.8,234.8" style="fill:none;fill-rule:evenodd;stroke:#000000;stroke-width:2.0px;stroke-linecap:butt;stroke-linejoin:miter;stroke-opacity:1"/>
<path class="bond-32 atom-32 atom-33" d="M 221.8,234.8 L 242.6,213.7" style="fill:none;fill-rule:evenodd;stroke:#000000;stroke-width:2.0px;stroke-linecap:butt;stroke-linejoin:miter;stroke-opacity:1"/>
<path class="bond-32 atom-32 atom-33" d="M 220.5,229.8 L 237.6,212.4" style="fill:none;fill-rule:evenodd;stroke:#000000;stroke-width:2.0px;stroke-linecap:butt;stroke-linejoin:miter;stroke-opacity:1"/>
<path class="bond-33 atom-33 atom-34" d="M 242.6,213.7 L 267.8,220.2" style="fill:none;fill-rule:evenodd;stroke:#000000;stroke-width:2.0px;stroke-linecap:butt;stroke-linejoin:miter;stroke-opacity:1"/>
<path class="bond-34 atom-33 atom-35" d="M 242.6,213.7 L 234.7,185.2" style="fill:none;fill-rule:evenodd;stroke:#000000;stroke-width:2.0px;stroke-linecap:butt;stroke-linejoin:miter;stroke-opacity:1"/>
<path class="bond-35 atom-35 atom-36" d="M 234.7,185.2 L 206.0,177.8" style="fill:none;fill-rule:evenodd;stroke:#000000;stroke-width:2.0px;stroke-linecap:butt;stroke-linejoin:miter;stroke-opacity:1"/>
<path class="bond-35 atom-35 atom-36" d="M 231.1,188.8 L 207.4,182.7" style="fill:none;fill-rule:evenodd;stroke:#000000;stroke-width:2.0px;stroke-linecap:butt;stroke-linejoin:miter;stroke-opacity:1"/>
<path class="bond-36 atom-16 atom-1" d="M 198.1,149.3 L 227.4,153.6" style="fill:none;fill-rule:evenodd;stroke:#000000;stroke-width:2.0px;stroke-linecap:butt;stroke-linejoin:miter;stroke-opacity:1"/>
<path class="bond-37 atom-27 atom-24" d="M 49.2,54.3 L 46.9,83.8" style="fill:none;fill-rule:evenodd;stroke:#000000;stroke-width:2.0px;stroke-linecap:butt;stroke-linejoin:miter;stroke-opacity:1"/>
<path class="bond-38 atom-36 atom-30" d="M 206.0,177.8 L 185.3,198.9" style="fill:none;fill-rule:evenodd;stroke:#000000;stroke-width:2.0px;stroke-linecap:butt;stroke-linejoin:miter;stroke-opacity:1"/>
<path class="bond-39 atom-13 atom-4" d="M 251.3,66.3 L 223.8,77.1" style="fill:none;fill-rule:evenodd;stroke:#000000;stroke-width:2.0px;stroke-linecap:butt;stroke-linejoin:miter;stroke-opacity:1"/>
<path class="bond-40 atom-36 atom-16" d="M 206.0,177.8 L 198.1,149.3" style="fill:none;fill-rule:evenodd;stroke:#000000;stroke-width:2.0px;stroke-linecap:butt;stroke-linejoin:miter;stroke-opacity:1"/>
<path class="bond-41 atom-13 atom-8" d="M 251.3,66.3 L 255.7,37.0" style="fill:none;fill-rule:evenodd;stroke:#000000;stroke-width:2.0px;stroke-linecap:butt;stroke-linejoin:miter;stroke-opacity:1"/>
<path d="M 228.0,152.3 L 227.4,153.6 L 225.9,153.4" style="fill:none;stroke:#000000;stroke-width:2.0px;stroke-linecap:butt;stroke-linejoin:miter;stroke-miterlimit:10;stroke-opacity:1;"/>
<path d="M 239.9,128.5 L 240.5,127.1 L 239.7,126.3" style="fill:none;stroke:#000000;stroke-width:2.0px;stroke-linecap:butt;stroke-linejoin:miter;stroke-miterlimit:10;stroke-opacity:1;"/>
<path d="M 201.8,59.7 L 200.6,58.7 L 200.8,57.5" style="fill:none;stroke:#000000;stroke-width:2.0px;stroke-linecap:butt;stroke-linejoin:miter;stroke-miterlimit:10;stroke-opacity:1;"/>
<path d="M 231.3,19.1 L 232.5,18.6 L 233.7,19.5" style="fill:none;stroke:#000000;stroke-width:2.0px;stroke-linecap:butt;stroke-linejoin:miter;stroke-miterlimit:10;stroke-opacity:1;"/>
<path d="M 281.8,26.7 L 283.2,26.2 L 284.4,27.1" style="fill:none;stroke:#000000;stroke-width:2.0px;stroke-linecap:butt;stroke-linejoin:miter;stroke-miterlimit:10;stroke-opacity:1;"/>
<path d="M 305.2,43.7 L 306.4,44.6 L 306.1,46.0" style="fill:none;stroke:#000000;stroke-width:2.0px;stroke-linecap:butt;stroke-linejoin:miter;stroke-miterlimit:10;stroke-opacity:1;"/>
<path d="M 302.2,72.4 L 302.0,73.8 L 300.6,74.4" style="fill:none;stroke:#000000;stroke-width:2.0px;stroke-linecap:butt;stroke-linejoin:miter;stroke-miterlimit:10;stroke-opacity:1;"/>
<path d="M 275.9,84.2 L 274.5,84.7 L 273.3,83.8" style="fill:none;stroke:#000000;stroke-width:2.0px;stroke-linecap:butt;stroke-linejoin:miter;stroke-miterlimit:10;stroke-opacity:1;"/>
<path d="M 194.3,119.5 L 193.2,120.1 L 193.4,121.5" style="fill:none;stroke:#000000;stroke-width:2.0px;stroke-linecap:butt;stroke-linejoin:miter;stroke-miterlimit:10;stroke-opacity:1;"/>
<path d="M 121.3,155.9 L 120.1,155.6 L 119.7,154.2" style="fill:none;stroke:#000000;stroke-width:2.0px;stroke-linecap:butt;stroke-linejoin:miter;stroke-miterlimit:10;stroke-opacity:1;"/>
<path d="M 112.5,128.5 L 112.1,127.1 L 110.9,126.8" style="fill:none;stroke:#000000;stroke-width:2.0px;stroke-linecap:butt;stroke-linejoin:miter;stroke-miterlimit:10;stroke-opacity:1;"/>
<path d="M 75.9,92.3 L 75.6,91.2 L 74.1,90.8" style="fill:none;stroke:#000000;stroke-width:2.0px;stroke-linecap:butt;stroke-linejoin:miter;stroke-miterlimit:10;stroke-opacity:1;"/>
<path d="M 23.8,67.9 L 22.5,67.0 L 23.9,66.4" style="fill:none;stroke:#000000;stroke-width:2.0px;stroke-linecap:butt;stroke-linejoin:miter;stroke-miterlimit:10;stroke-opacity:1;"/>
<path d="M 47.9,54.9 L 49.2,54.3 L 49.1,55.8" style="fill:none;stroke:#000000;stroke-width:2.0px;stroke-linecap:butt;stroke-linejoin:miter;stroke-miterlimit:10;stroke-opacity:1;"/>
<path d="M 156.3,190.3 L 156.6,191.5 L 158.1,191.9" style="fill:none;stroke:#000000;stroke-width:2.0px;stroke-linecap:butt;stroke-linejoin:miter;stroke-miterlimit:10;stroke-opacity:1;"/>
<path d="M 192.8,226.0 L 193.2,227.4 L 194.6,227.8" style="fill:none;stroke:#000000;stroke-width:2.0px;stroke-linecap:butt;stroke-linejoin:miter;stroke-miterlimit:10;stroke-opacity:1;"/>
<path d="M 220.4,234.4 L 221.8,234.8 L 222.9,233.7" style="fill:none;stroke:#000000;stroke-width:2.0px;stroke-linecap:butt;stroke-linejoin:miter;stroke-miterlimit:10;stroke-opacity:1;"/>
<path d="M 235.1,186.6 L 234.7,185.2 L 233.2,184.8" style="fill:none;stroke:#000000;stroke-width:2.0px;stroke-linecap:butt;stroke-linejoin:miter;stroke-miterlimit:10;stroke-opacity:1;"/>
<path class="atom-3" d="M 217.6 102.2 L 220.3 106.7 Q 220.6 107.1, 221.0 107.9 Q 221.5 108.7, 221.5 108.7 L 221.5 102.2 L 222.6 102.2 L 222.6 110.6 L 221.5 110.6 L 218.5 105.7 Q 218.2 105.2, 217.8 104.5 Q 217.4 103.9, 217.3 103.7 L 217.3 110.6 L 216.3 110.6 L 216.3 102.2 L 217.6 102.2 " fill="#000000"/>
<path class="atom-6" d="M 203.1 25.3 L 205.9 29.7 Q 206.2 30.2, 206.6 31.0 Q 207.0 31.7, 207.1 31.8 L 207.1 25.3 L 208.2 25.3 L 208.2 33.7 L 207.0 33.7 L 204.1 28.8 Q 203.7 28.2, 203.4 27.6 Q 203.0 26.9, 202.9 26.7 L 202.9 33.7 L 201.8 33.7 L 201.8 25.3 L 203.1 25.3 " fill="#000000"/>
<path class="atom-15" d="M 162.9 106.9 Q 162.9 104.9, 163.9 103.8 Q 164.8 102.7, 166.7 102.7 Q 168.6 102.7, 169.6 103.8 Q 170.6 104.9, 170.6 106.9 Q 170.6 109.0, 169.5 110.1 Q 168.5 111.3, 166.7 111.3 Q 164.9 111.3, 163.9 110.1 Q 162.9 109.0, 162.9 106.9 M 166.7 110.3 Q 168.0 110.3, 168.7 109.5 Q 169.4 108.6, 169.4 106.9 Q 169.4 105.3, 168.7 104.4 Q 168.0 103.6, 166.7 103.6 Q 165.4 103.6, 164.7 104.4 Q 164.0 105.3, 164.0 106.9 Q 164.0 108.6, 164.7 109.5 Q 165.4 110.3, 166.7 110.3 " fill="#000000"/>
<path class="atom-18" d="M 146.9 158.8 L 149.6 163.2 Q 149.9 163.7, 150.3 164.5 Q 150.8 165.2, 150.8 165.3 L 150.8 158.8 L 151.9 158.8 L 151.9 167.2 L 150.7 167.2 L 147.8 162.3 Q 147.5 161.7, 147.1 161.1 Q 146.7 160.4, 146.6 160.2 L 146.6 167.2 L 145.5 167.2 L 145.5 158.8 L 146.9 158.8 " fill="#000000"/>
<path class="atom-21" d="M 129.0 106.0 Q 129.0 104.0, 130.0 102.8 Q 131.0 101.7, 132.9 101.7 Q 134.7 101.7, 135.7 102.8 Q 136.7 104.0, 136.7 106.0 Q 136.7 108.0, 135.7 109.2 Q 134.7 110.3, 132.9 110.3 Q 131.0 110.3, 130.0 109.2 Q 129.0 108.0, 129.0 106.0 M 132.9 109.4 Q 134.2 109.4, 134.8 108.5 Q 135.5 107.7, 135.5 106.0 Q 135.5 104.3, 134.8 103.5 Q 134.2 102.7, 132.9 102.7 Q 131.6 102.7, 130.9 103.5 Q 130.2 104.3, 130.2 106.0 Q 130.2 107.7, 130.9 108.5 Q 131.6 109.4, 132.9 109.4 " fill="#000000"/>
<path class="atom-22" d="M 72.1 115.5 L 73.2 115.5 L 73.2 119.1 L 77.5 119.1 L 77.5 115.5 L 78.7 115.5 L 78.7 123.9 L 77.5 123.9 L 77.5 120.0 L 73.2 120.0 L 73.2 123.9 L 72.1 123.9 L 72.1 115.5 " fill="#000000"/>
<path class="atom-22" d="M 81.6 115.5 L 84.4 119.9 Q 84.7 120.4, 85.1 121.2 Q 85.5 122.0, 85.6 122.0 L 85.6 115.5 L 86.7 115.5 L 86.7 123.9 L 85.5 123.9 L 82.6 119.0 Q 82.2 118.4, 81.9 117.8 Q 81.5 117.1, 81.4 116.9 L 81.4 123.9 L 80.3 123.9 L 80.3 115.5 L 81.6 115.5 " fill="#000000"/>
<path class="atom-25" d="M 32.2 106.5 L 37.2 106.5 L 37.2 107.5 L 33.3 107.5 L 33.3 110.0 L 36.7 110.0 L 36.7 111.0 L 33.3 111.0 L 33.3 114.9 L 32.2 114.9 L 32.2 106.5 " fill="#000000"/>
<path class="atom-29" d="M 132.1 212.6 Q 132.1 210.6, 133.0 209.5 Q 134.0 208.4, 135.9 208.4 Q 137.8 208.4, 138.8 209.5 Q 139.7 210.6, 139.7 212.6 Q 139.7 214.7, 138.7 215.8 Q 137.7 217.0, 135.9 217.0 Q 134.1 217.0, 133.0 215.8 Q 132.1 214.7, 132.1 212.6 M 135.9 216.0 Q 137.2 216.0, 137.9 215.2 Q 138.6 214.3, 138.6 212.6 Q 138.6 211.0, 137.9 210.1 Q 137.2 209.3, 135.9 209.3 Q 134.6 209.3, 133.9 210.1 Q 133.2 211.0, 133.2 212.6 Q 133.2 214.3, 133.9 215.2 Q 134.6 216.0, 135.9 216.0 " fill="#000000"/>
<path class="atom-34" d="M 268.7 216.9 L 273.7 216.9 L 273.7 217.8 L 269.9 217.8 L 269.9 220.4 L 273.3 220.4 L 273.3 221.4 L 269.9 221.4 L 269.9 225.3 L 268.7 225.3 L 268.7 216.9 " fill="#000000"/>
</svg>