<svg xmlns="http://www.w3.org/2000/svg" xmlns:rdkit="http://www.rdkit.org/xml" xmlns:xlink="http://www.w3.org/1999/xlink" version="1.1" baseProfile="full" xml:space="preserve" width="335px" height="283px" viewBox="0 0 335 283">
<!-- END OF HEADER -->
<rect style="opacity:1.0;fill:#FFFFFF;stroke:none" width="335.0" height="283.0" x="0.0" y="0.0"> </rect>
<ellipse cx="17.0" cy="156.4" rx="0.2" ry="0.2" class="atom-0" style="fill:#7F7FFF;fill-rule:evenodd;stroke:#7F7FFF;stroke-width:1.0px;stroke-linecap:butt;stroke-linejoin:miter;stroke-opacity:1"/>
<ellipse cx="45.3" cy="165.0" rx="0.2" ry="0.2" class="atom-1" style="fill:#7F7FFF;fill-rule:evenodd;stroke:#7F7FFF;stroke-width:1.0px;stroke-linecap:butt;stroke-linejoin:miter;stroke-opacity:1"/>
<ellipse cx="66.9" cy="144.8" rx="0.3" ry="0.3" class="atom-2" style="fill:#7F7FFF;fill-rule:evenodd;stroke:#7F7FFF;stroke-width:1.0px;stroke-linecap:butt;stroke-linejoin:miter;stroke-opacity:1"/>
<ellipse cx="60.2" cy="116.0" rx="0.3" ry="0.3" class="atom-3" style="fill:#7F7FFF;fill-rule:evenodd;stroke:#7F7FFF;stroke-width:1.0px;stroke-linecap:butt;stroke-linejoin:miter;stroke-opacity:1"/>
<ellipse cx="95.2" cy="153.4" rx="0.3" ry="0.3" class="atom-4" style="fill:#7F7FFF;fill-rule:evenodd;stroke:#7F7FFF;stroke-width:1.0px;stroke-linecap:butt;stroke-linejoin:miter;stroke-opacity:1"/>
<ellipse cx="116.8" cy="133.1" rx="9.3" ry="9.3" class="atom-5" style="fill:#7F7FFF;fill-rule:evenodd;stroke:#7F7FFF;stroke-width:1.0px;stroke-linecap:butt;stroke-linejoin:miter;stroke-opacity:1"/>
<ellipse cx="145.1" cy="141.7" rx="9.3" ry="9.3" class="atom-6" style="fill:#7F7FFF;fill-rule:evenodd;stroke:#7F7FFF;stroke-width:1.0px;stroke-linecap:butt;stroke-linejoin:miter;stroke-opacity:1"/>
<ellipse cx="166.7" cy="121.5" rx="9.3" ry="9.3" class="atom-7" style="fill:#7F7FFF;fill-rule:evenodd;stroke:#7F7FFF;stroke-width:1.0px;stroke-linecap:butt;stroke-linejoin:miter;stroke-opacity:1"/>
<ellipse cx="190.3" cy="103.7" rx="9.3" ry="9.3" class="atom-8" style="fill:#7F7FFF;fill-rule:evenodd;stroke:#7F7FFF;stroke-width:1.0px;stroke-linecap:butt;stroke-linejoin:miter;stroke-opacity:1"/>
<ellipse cx="195.6" cy="80.3" rx="9.3" ry="9.3" class="atom-9" style="fill:#7F7FFF;fill-rule:evenodd;stroke:#7F7FFF;stroke-width:1.0px;stroke-linecap:butt;stroke-linejoin:miter;stroke-opacity:1"/>
<ellipse cx="214.5" cy="120.6" rx="9.3" ry="9.3" class="atom-10" style="fill:#7F7FFF;fill-rule:evenodd;stroke:#7F7FFF;stroke-width:1.0px;stroke-linecap:butt;stroke-linejoin:miter;stroke-opacity:1"/>
<ellipse cx="242.5" cy="110.9" rx="2.5" ry="2.5" class="atom-11" style="fill:#FF7F7F;fill-rule:evenodd;stroke:#FF7F7F;stroke-width:1.0px;stroke-linecap:butt;stroke-linejoin:miter;stroke-opacity:1"/>
<ellipse cx="248.0" cy="81.8" rx="2.5" ry="2.5" class="atom-12" style="fill:#FF7F7F;fill-rule:evenodd;stroke:#FF7F7F;stroke-width:1.0px;stroke-linecap:butt;stroke-linejoin:miter;stroke-opacity:1"/>
<ellipse cx="276.0" cy="72.2" rx="2.5" ry="2.5" class="atom-13" style="fill:#FF7F7F;fill-rule:evenodd;stroke:#FF7F7F;stroke-width:1.0px;stroke-linecap:butt;stroke-linejoin:miter;stroke-opacity:1"/>
<ellipse cx="298.3" cy="91.5" rx="2.5" ry="2.5" class="atom-14" style="fill:#FF7F7F;fill-rule:evenodd;stroke:#FF7F7F;stroke-width:1.0px;stroke-linecap:butt;stroke-linejoin:miter;stroke-opacity:1"/>
<ellipse cx="292.8" cy="120.5" rx="2.5" ry="2.5" class="atom-15" style="fill:#FF7F7F;fill-rule:evenodd;stroke:#FF7F7F;stroke-width:1.0px;stroke-linecap:butt;stroke-linejoin:miter;stroke-opacity:1"/>
<ellipse cx="315.1" cy="139.9" rx="2.5" ry="2.5" class="atom-16" style="fill:#FF7F7F;fill-rule:evenodd;stroke:#FF7F7F;stroke-width:1.0px;stroke-linecap:butt;stroke-linejoin:miter;stroke-opacity:1"/>
<ellipse cx="309.5" cy="168.9" rx="2.5" ry="2.5" class="atom-17" style="fill:#FF7F7F;fill-rule:evenodd;stroke:#FF7F7F;stroke-width:1.0px;stroke-linecap:butt;stroke-linejoin:miter;stroke-opacity:1"/>
<ellipse cx="281.6" cy="178.6" rx="2.5" ry="2.5" class="atom-18" style="fill:#FF7F7F;fill-rule:evenodd;stroke:#FF7F7F;stroke-width:1.0px;stroke-linecap:butt;stroke-linejoin:miter;stroke-opacity:1"/>
<ellipse cx="259.2" cy="159.3" rx="2.5" ry="2.5" class="atom-19" style="fill:#FF7F7F;fill-rule:evenodd;stroke:#FF7F7F;stroke-width:1.0px;stroke-linecap:butt;stroke-linejoin:miter;stroke-opacity:1"/>
<ellipse cx="264.8" cy="130.2" rx="2.5" ry="2.5" class="atom-20" style="fill:#FF7F7F;fill-rule:evenodd;stroke:#FF7F7F;stroke-width:1.0px;stroke-linecap:butt;stroke-linejoin:miter;stroke-opacity:1"/>
<ellipse cx="205.9" cy="148.9" rx="9.3" ry="9.3" class="atom-21" style="fill:#7F7FFF;fill-rule:evenodd;stroke:#7F7FFF;stroke-width:1.0px;stroke-linecap:butt;stroke-linejoin:miter;stroke-opacity:1"/>
<ellipse cx="176.4" cy="149.4" rx="9.3" ry="9.3" class="atom-22" style="fill:#7F7FFF;fill-rule:evenodd;stroke:#7F7FFF;stroke-width:1.0px;stroke-linecap:butt;stroke-linejoin:miter;stroke-opacity:1"/>
<ellipse cx="159.5" cy="173.7" rx="0.0" ry="0.0" class="atom-23" style="fill:#FF7F7F;fill-rule:evenodd;stroke:#FF7F7F;stroke-width:1.0px;stroke-linecap:butt;stroke-linejoin:miter;stroke-opacity:1"/>
<ellipse cx="172.0" cy="200.5" rx="1.2" ry="1.2" class="atom-24" style="fill:#FF7F7F;fill-rule:evenodd;stroke:#FF7F7F;stroke-width:1.0px;stroke-linecap:butt;stroke-linejoin:miter;stroke-opacity:1"/>
<ellipse cx="201.1" cy="206.1" rx="1.2" ry="1.2" class="atom-25" style="fill:#FF7F7F;fill-rule:evenodd;stroke:#FF7F7F;stroke-width:1.0px;stroke-linecap:butt;stroke-linejoin:miter;stroke-opacity:1"/>
<ellipse cx="204.7" cy="235.4" rx="1.2" ry="1.2" class="atom-26" style="fill:#FF7F7F;fill-rule:evenodd;stroke:#FF7F7F;stroke-width:1.0px;stroke-linecap:butt;stroke-linejoin:miter;stroke-opacity:1"/>
<ellipse cx="178.0" cy="248.0" rx="1.2" ry="1.2" class="atom-27" style="fill:#FF7F7F;fill-rule:evenodd;stroke:#FF7F7F;stroke-width:1.0px;stroke-linecap:butt;stroke-linejoin:miter;stroke-opacity:1"/>
<ellipse cx="157.7" cy="226.4" rx="1.2" ry="1.2" class="atom-28" style="fill:#FF7F7F;fill-rule:evenodd;stroke:#FF7F7F;stroke-width:1.0px;stroke-linecap:butt;stroke-linejoin:miter;stroke-opacity:1"/>
<ellipse cx="160.0" cy="92.7" rx="9.3" ry="9.3" class="atom-29" style="fill:#7F7FFF;fill-rule:evenodd;stroke:#7F7FFF;stroke-width:1.0px;stroke-linecap:butt;stroke-linejoin:miter;stroke-opacity:1"/>
<ellipse cx="181.6" cy="72.5" rx="9.3" ry="9.3" class="atom-30" style="fill:#7F7FFF;fill-rule:evenodd;stroke:#7F7FFF;stroke-width:1.0px;stroke-linecap:butt;stroke-linejoin:miter;stroke-opacity:1"/>
<ellipse cx="174.8" cy="43.7" rx="9.3" ry="9.3" class="atom-31" style="fill:#7F7FFF;fill-rule:evenodd;stroke:#7F7FFF;stroke-width:1.0px;stroke-linecap:butt;stroke-linejoin:miter;stroke-opacity:1"/>
<ellipse cx="196.4" cy="23.5" rx="9.3" ry="9.3" class="atom-32" style="fill:#7F7FFF;fill-rule:evenodd;stroke:#7F7FFF;stroke-width:1.0px;stroke-linecap:butt;stroke-linejoin:miter;stroke-opacity:1"/>
<ellipse cx="146.5" cy="35.1" rx="9.3" ry="9.3" class="atom-33" style="fill:#7F7FFF;fill-rule:evenodd;stroke:#7F7FFF;stroke-width:1.0px;stroke-linecap:butt;stroke-linejoin:miter;stroke-opacity:1"/>
<ellipse cx="125.0" cy="55.3" rx="9.3" ry="9.3" class="atom-34" style="fill:#7F7FFF;fill-rule:evenodd;stroke:#7F7FFF;stroke-width:1.0px;stroke-linecap:butt;stroke-linejoin:miter;stroke-opacity:1"/>
<ellipse cx="131.7" cy="84.1" rx="9.3" ry="9.3" class="atom-35" style="fill:#7F7FFF;fill-rule:evenodd;stroke:#7F7FFF;stroke-width:1.0px;stroke-linecap:butt;stroke-linejoin:miter;stroke-opacity:1"/>
<ellipse cx="110.1" cy="104.3" rx="9.3" ry="9.3" class="atom-36" style="fill:#7F7FFF;fill-rule:evenodd;stroke:#7F7FFF;stroke-width:1.0px;stroke-linecap:butt;stroke-linejoin:miter;stroke-opacity:1"/>
<ellipse cx="81.8" cy="95.7" rx="9.3" ry="9.3" class="atom-37" style="fill:#7F7FFF;fill-rule:evenodd;stroke:#7F7FFF;stroke-width:1.0px;stroke-linecap:butt;stroke-linejoin:miter;stroke-opacity:1"/>
<path class="bond-0 atom-0 atom-1" d="M 17.0,156.4 L 41.2,163.7" style="fill:none;fill-rule:evenodd;stroke:#000000;stroke-width:2.0px;stroke-linecap:butt;stroke-linejoin:miter;stroke-opacity:1"/>
<path class="bond-1 atom-1 atom-2" d="M 49.5,161.1 L 66.9,144.8" style="fill:none;fill-rule:evenodd;stroke:#000000;stroke-width:2.0px;stroke-linecap:butt;stroke-linejoin:miter;stroke-opacity:1"/>
<path class="bond-2 atom-2 atom-3" d="M 69.4,145.5 L 63.6,120.8" style="fill:none;fill-rule:evenodd;stroke:#000000;stroke-width:2.0px;stroke-linecap:butt;stroke-linejoin:miter;stroke-opacity:1"/>
<path class="bond-2 atom-2 atom-3" d="M 65.1,146.5 L 59.3,121.8" style="fill:none;fill-rule:evenodd;stroke:#000000;stroke-width:2.0px;stroke-linecap:butt;stroke-linejoin:miter;stroke-opacity:1"/>
<path class="bond-3 atom-2 atom-4" d="M 66.9,144.8 L 95.2,153.4" style="fill:none;fill-rule:evenodd;stroke:#000000;stroke-width:2.0px;stroke-linecap:butt;stroke-linejoin:miter;stroke-opacity:1"/>
<path class="bond-4 atom-4 atom-5" d="M 95.2,153.4 L 112.7,137.0" style="fill:none;fill-rule:evenodd;stroke:#000000;stroke-width:2.0px;stroke-linecap:butt;stroke-linejoin:miter;stroke-opacity:1"/>
<path class="bond-5 atom-5 atom-6" d="M 121.0,134.4 L 145.1,141.7" style="fill:none;fill-rule:evenodd;stroke:#000000;stroke-width:2.0px;stroke-linecap:butt;stroke-linejoin:miter;stroke-opacity:1"/>
<path class="bond-6 atom-7 atom-6" d="M 163.8,123.8 L 164.2,124.3" style="fill:none;fill-rule:evenodd;stroke:#000000;stroke-width:1.0px;stroke-linecap:butt;stroke-linejoin:miter;stroke-opacity:1"/>
<path class="bond-6 atom-7 atom-6" d="M 160.9,126.1 L 161.7,127.0" style="fill:none;fill-rule:evenodd;stroke:#000000;stroke-width:1.0px;stroke-linecap:butt;stroke-linejoin:miter;stroke-opacity:1"/>
<path class="bond-6 atom-7 atom-6" d="M 158.0,128.4 L 159.2,129.8" style="fill:none;fill-rule:evenodd;stroke:#000000;stroke-width:1.0px;stroke-linecap:butt;stroke-linejoin:miter;stroke-opacity:1"/>
<path class="bond-6 atom-7 atom-6" d="M 155.0,130.7 L 156.8,132.5" style="fill:none;fill-rule:evenodd;stroke:#000000;stroke-width:1.0px;stroke-linecap:butt;stroke-linejoin:miter;stroke-opacity:1"/>
<path class="bond-6 atom-7 atom-6" d="M 152.1,133.0 L 154.3,135.3" style="fill:none;fill-rule:evenodd;stroke:#000000;stroke-width:1.0px;stroke-linecap:butt;stroke-linejoin:miter;stroke-opacity:1"/>
<path class="bond-6 atom-7 atom-6" d="M 149.2,135.3 L 151.8,138.0" style="fill:none;fill-rule:evenodd;stroke:#000000;stroke-width:1.0px;stroke-linecap:butt;stroke-linejoin:miter;stroke-opacity:1"/>
<path class="bond-6 atom-7 atom-6" d="M 146.3,137.6 L 149.3,140.8" style="fill:none;fill-rule:evenodd;stroke:#000000;stroke-width:1.0px;stroke-linecap:butt;stroke-linejoin:miter;stroke-opacity:1"/>
<path class="bond-7 atom-7 atom-8" d="M 166.7,121.5 L 190.3,103.7" style="fill:none;fill-rule:evenodd;stroke:#000000;stroke-width:2.0px;stroke-linecap:butt;stroke-linejoin:miter;stroke-opacity:1"/>
<path class="bond-8 atom-8 atom-9" d="M 192.2,105.0 L 196.5,86.1" style="fill:none;fill-rule:evenodd;stroke:#000000;stroke-width:2.0px;stroke-linecap:butt;stroke-linejoin:miter;stroke-opacity:1"/>
<path class="bond-8 atom-8 atom-9" d="M 187.5,105.7 L 192.2,85.2" style="fill:none;fill-rule:evenodd;stroke:#000000;stroke-width:2.0px;stroke-linecap:butt;stroke-linejoin:miter;stroke-opacity:1"/>
<path class="bond-9 atom-8 atom-10" d="M 190.3,103.7 L 210.4,117.7" style="fill:none;fill-rule:evenodd;stroke:#000000;stroke-width:2.0px;stroke-linecap:butt;stroke-linejoin:miter;stroke-opacity:1"/>
<path class="bond-10 atom-10 atom-11" d="M 218.7,119.1 L 242.5,110.9" style="fill:none;fill-rule:evenodd;stroke:#000000;stroke-width:2.0px;stroke-linecap:butt;stroke-linejoin:miter;stroke-opacity:1"/>
<path class="bond-11 atom-11 atom-12" d="M 242.5,110.9 L 248.0,81.8" style="fill:none;fill-rule:evenodd;stroke:#000000;stroke-width:2.0px;stroke-linecap:butt;stroke-linejoin:miter;stroke-opacity:1"/>
<path class="bond-11 atom-11 atom-12" d="M 247.3,109.2 L 251.9,85.2" style="fill:none;fill-rule:evenodd;stroke:#000000;stroke-width:2.0px;stroke-linecap:butt;stroke-linejoin:miter;stroke-opacity:1"/>
<path class="bond-12 atom-12 atom-13" d="M 248.0,81.8 L 271.8,73.6" style="fill:none;fill-rule:evenodd;stroke:#000000;stroke-width:2.0px;stroke-linecap:butt;stroke-linejoin:miter;stroke-opacity:1"/>
<path class="bond-13 atom-13 atom-14" d="M 280.1,75.7 L 298.3,91.5" style="fill:none;fill-rule:evenodd;stroke:#000000;stroke-width:2.0px;stroke-linecap:butt;stroke-linejoin:miter;stroke-opacity:1"/>
<path class="bond-13 atom-13 atom-14" d="M 277.2,79.1 L 293.5,93.2" style="fill:none;fill-rule:evenodd;stroke:#000000;stroke-width:2.0px;stroke-linecap:butt;stroke-linejoin:miter;stroke-opacity:1"/>
<path class="bond-14 atom-14 atom-15" d="M 298.3,91.5 L 292.8,120.5" style="fill:none;fill-rule:evenodd;stroke:#000000;stroke-width:2.0px;stroke-linecap:butt;stroke-linejoin:miter;stroke-opacity:1"/>
<path class="bond-15 atom-15 atom-16" d="M 292.8,120.5 L 315.1,139.9" style="fill:none;fill-rule:evenodd;stroke:#000000;stroke-width:2.0px;stroke-linecap:butt;stroke-linejoin:miter;stroke-opacity:1"/>
<path class="bond-15 atom-15 atom-16" d="M 291.8,125.6 L 310.3,141.6" style="fill:none;fill-rule:evenodd;stroke:#000000;stroke-width:2.0px;stroke-linecap:butt;stroke-linejoin:miter;stroke-opacity:1"/>
<path class="bond-16 atom-16 atom-17" d="M 315.1,139.9 L 309.5,168.9" style="fill:none;fill-rule:evenodd;stroke:#000000;stroke-width:2.0px;stroke-linecap:butt;stroke-linejoin:miter;stroke-opacity:1"/>
<path class="bond-17 atom-17 atom-18" d="M 309.5,168.9 L 281.6,178.6" style="fill:none;fill-rule:evenodd;stroke:#000000;stroke-width:2.0px;stroke-linecap:butt;stroke-linejoin:miter;stroke-opacity:1"/>
<path class="bond-17 atom-17 atom-18" d="M 305.7,165.6 L 282.6,173.6" style="fill:none;fill-rule:evenodd;stroke:#000000;stroke-width:2.0px;stroke-linecap:butt;stroke-linejoin:miter;stroke-opacity:1"/>
<path class="bond-18 atom-18 atom-19" d="M 281.6,178.6 L 259.2,159.3" style="fill:none;fill-rule:evenodd;stroke:#000000;stroke-width:2.0px;stroke-linecap:butt;stroke-linejoin:miter;stroke-opacity:1"/>
<path class="bond-19 atom-19 atom-20" d="M 259.2,159.3 L 264.8,130.2" style="fill:none;fill-rule:evenodd;stroke:#000000;stroke-width:2.0px;stroke-linecap:butt;stroke-linejoin:miter;stroke-opacity:1"/>
<path class="bond-19 atom-19 atom-20" d="M 264.1,157.6 L 268.7,133.6" style="fill:none;fill-rule:evenodd;stroke:#000000;stroke-width:2.0px;stroke-linecap:butt;stroke-linejoin:miter;stroke-opacity:1"/>
<path class="bond-20 atom-10 atom-21" d="M 213.0,125.7 L 205.9,148.9" style="fill:none;fill-rule:evenodd;stroke:#000000;stroke-width:2.0px;stroke-linecap:butt;stroke-linejoin:miter;stroke-opacity:1"/>
<path class="bond-21 atom-21 atom-22" d="M 205.9,148.9 L 176.4,149.4" style="fill:none;fill-rule:evenodd;stroke:#000000;stroke-width:2.0px;stroke-linecap:butt;stroke-linejoin:miter;stroke-opacity:1"/>
<path class="bond-22 atom-22 atom-23" d="M 174.0,152.3 L 174.5,152.7" style="fill:none;fill-rule:evenodd;stroke:#000000;stroke-width:1.0px;stroke-linecap:butt;stroke-linejoin:miter;stroke-opacity:1"/>
<path class="bond-22 atom-22 atom-23" d="M 171.6,155.1 L 172.7,155.9" style="fill:none;fill-rule:evenodd;stroke:#000000;stroke-width:1.0px;stroke-linecap:butt;stroke-linejoin:miter;stroke-opacity:1"/>
<path class="bond-22 atom-22 atom-23" d="M 169.3,158.0 L 170.8,159.1" style="fill:none;fill-rule:evenodd;stroke:#000000;stroke-width:1.0px;stroke-linecap:butt;stroke-linejoin:miter;stroke-opacity:1"/>
<path class="bond-22 atom-22 atom-23" d="M 166.9,160.8 L 169.0,162.3" style="fill:none;fill-rule:evenodd;stroke:#000000;stroke-width:1.0px;stroke-linecap:butt;stroke-linejoin:miter;stroke-opacity:1"/>
<path class="bond-22 atom-22 atom-23" d="M 164.5,163.7 L 167.1,165.5" style="fill:none;fill-rule:evenodd;stroke:#000000;stroke-width:1.0px;stroke-linecap:butt;stroke-linejoin:miter;stroke-opacity:1"/>
<path class="bond-22 atom-22 atom-23" d="M 162.2,166.5 L 165.3,168.7" style="fill:none;fill-rule:evenodd;stroke:#000000;stroke-width:1.0px;stroke-linecap:butt;stroke-linejoin:miter;stroke-opacity:1"/>
<path class="bond-22 atom-22 atom-23" d="M 159.8,169.4 L 163.4,171.9" style="fill:none;fill-rule:evenodd;stroke:#000000;stroke-width:1.0px;stroke-linecap:butt;stroke-linejoin:miter;stroke-opacity:1"/>
<path class="bond-23 atom-23 atom-24" d="M 159.5,173.7 L 169.6,195.3" style="fill:none;fill-rule:evenodd;stroke:#000000;stroke-width:2.0px;stroke-linecap:butt;stroke-linejoin:miter;stroke-opacity:1"/>
<path class="bond-24 atom-24 atom-25" d="M 176.2,201.3 L 201.1,206.1" style="fill:none;fill-rule:evenodd;stroke:#000000;stroke-width:2.0px;stroke-linecap:butt;stroke-linejoin:miter;stroke-opacity:1"/>
<path class="bond-25 atom-25 atom-26" d="M 201.1,206.1 L 204.7,235.4" style="fill:none;fill-rule:evenodd;stroke:#000000;stroke-width:2.0px;stroke-linecap:butt;stroke-linejoin:miter;stroke-opacity:1"/>
<path class="bond-25 atom-25 atom-26" d="M 197.1,209.8 L 199.9,232.8" style="fill:none;fill-rule:evenodd;stroke:#000000;stroke-width:2.0px;stroke-linecap:butt;stroke-linejoin:miter;stroke-opacity:1"/>
<path class="bond-26 atom-26 atom-27" d="M 204.7,235.4 L 182.1,246.0" style="fill:none;fill-rule:evenodd;stroke:#000000;stroke-width:2.0px;stroke-linecap:butt;stroke-linejoin:miter;stroke-opacity:1"/>
<path class="bond-27 atom-27 atom-28" d="M 173.8,243.5 L 161.9,230.8" style="fill:none;fill-rule:evenodd;stroke:#000000;stroke-width:2.0px;stroke-linecap:butt;stroke-linejoin:miter;stroke-opacity:1"/>
<path class="bond-27 atom-27 atom-28" d="M 177.0,240.5 L 165.1,227.8" style="fill:none;fill-rule:evenodd;stroke:#000000;stroke-width:2.0px;stroke-linecap:butt;stroke-linejoin:miter;stroke-opacity:1"/>
<path class="bond-28 atom-7 atom-29" d="M 166.7,121.5 L 160.0,92.7" style="fill:none;fill-rule:evenodd;stroke:#000000;stroke-width:2.0px;stroke-linecap:butt;stroke-linejoin:miter;stroke-opacity:1"/>
<path class="bond-29 atom-29 atom-30" d="M 160.0,92.7 L 181.6,72.5" style="fill:none;fill-rule:evenodd;stroke:#000000;stroke-width:2.0px;stroke-linecap:butt;stroke-linejoin:miter;stroke-opacity:1"/>
<path class="bond-29 atom-29 atom-30" d="M 158.8,87.7 L 176.7,71.0" style="fill:none;fill-rule:evenodd;stroke:#000000;stroke-width:2.0px;stroke-linecap:butt;stroke-linejoin:miter;stroke-opacity:1"/>
<path class="bond-30 atom-30 atom-31" d="M 181.6,72.5 L 174.8,43.7" style="fill:none;fill-rule:evenodd;stroke:#000000;stroke-width:2.0px;stroke-linecap:butt;stroke-linejoin:miter;stroke-opacity:1"/>
<path class="bond-31 atom-31 atom-32" d="M 174.8,43.7 L 193.0,26.7" style="fill:none;fill-rule:evenodd;stroke:#000000;stroke-width:2.0px;stroke-linecap:butt;stroke-linejoin:miter;stroke-opacity:1"/>
<path class="bond-32 atom-31 atom-33" d="M 174.8,43.7 L 146.5,35.1" style="fill:none;fill-rule:evenodd;stroke:#000000;stroke-width:2.0px;stroke-linecap:butt;stroke-linejoin:miter;stroke-opacity:1"/>
<path class="bond-32 atom-31 atom-33" d="M 171.1,47.2 L 147.7,40.1" style="fill:none;fill-rule:evenodd;stroke:#000000;stroke-width:2.0px;stroke-linecap:butt;stroke-linejoin:miter;stroke-opacity:1"/>
<path class="bond-33 atom-33 atom-34" d="M 146.5,35.1 L 125.0,55.3" style="fill:none;fill-rule:evenodd;stroke:#000000;stroke-width:2.0px;stroke-linecap:butt;stroke-linejoin:miter;stroke-opacity:1"/>
<path class="bond-34 atom-34 atom-35" d="M 125.0,55.3 L 131.7,84.1" style="fill:none;fill-rule:evenodd;stroke:#000000;stroke-width:2.0px;stroke-linecap:butt;stroke-linejoin:miter;stroke-opacity:1"/>
<path class="bond-34 atom-34 atom-35" d="M 129.8,56.8 L 135.4,80.6" style="fill:none;fill-rule:evenodd;stroke:#000000;stroke-width:2.0px;stroke-linecap:butt;stroke-linejoin:miter;stroke-opacity:1"/>
<path class="bond-35 atom-35 atom-36" d="M 131.7,84.1 L 110.1,104.3" style="fill:none;fill-rule:evenodd;stroke:#000000;stroke-width:2.0px;stroke-linecap:butt;stroke-linejoin:miter;stroke-opacity:1"/>
<path class="bond-36 atom-36 atom-37" d="M 112.0,102.6 L 87.2,95.1" style="fill:none;fill-rule:evenodd;stroke:#000000;stroke-width:2.0px;stroke-linecap:butt;stroke-linejoin:miter;stroke-opacity:1"/>
<path class="bond-36 atom-36 atom-37" d="M 110.7,106.8 L 86.0,99.3" style="fill:none;fill-rule:evenodd;stroke:#000000;stroke-width:2.0px;stroke-linecap:butt;stroke-linejoin:miter;stroke-opacity:1"/>
<path class="bond-37 atom-36 atom-5" d="M 110.1,104.3 L 115.6,128.0" style="fill:none;fill-rule:evenodd;stroke:#000000;stroke-width:2.0px;stroke-linecap:butt;stroke-linejoin:miter;stroke-opacity:1"/>
<path class="bond-38 atom-22 atom-7" d="M 176.4,149.4 L 166.7,121.5" style="fill:none;fill-rule:evenodd;stroke:#000000;stroke-width:2.0px;stroke-linecap:butt;stroke-linejoin:miter;stroke-opacity:1"/>
<path class="bond-39 atom-28 atom-24" d="M 160.6,221.2 L 169.2,205.6" style="fill:none;fill-rule:evenodd;stroke:#000000;stroke-width:2.0px;stroke-linecap:butt;stroke-linejoin:miter;stroke-opacity:1"/>
<path class="bond-40 atom-35 atom-29" d="M 131.7,84.1 L 160.0,92.7" style="fill:none;fill-rule:evenodd;stroke:#000000;stroke-width:2.0px;stroke-linecap:butt;stroke-linejoin:miter;stroke-opacity:1"/>
<path class="bond-41 atom-20 atom-11" d="M 264.8,130.2 L 242.5,110.9" style="fill:none;fill-rule:evenodd;stroke:#000000;stroke-width:2.0px;stroke-linecap:butt;stroke-linejoin:miter;stroke-opacity:1"/>
<path class="bond-42 atom-20 atom-15" d="M 264.8,130.2 L 292.8,120.5" style="fill:none;fill-rule:evenodd;stroke:#000000;stroke-width:2.0px;stroke-linecap:butt;stroke-linejoin:miter;stroke-opacity:1"/>
<path d="M 66.0,145.6 L 66.9,144.8 L 68.3,145.2" style="fill:none;stroke:#000000;stroke-width:2.0px;stroke-linecap:butt;stroke-linejoin:miter;stroke-miterlimit:10;stroke-opacity:1;"/>
<path d="M 93.8,152.9 L 95.2,153.4 L 96.1,152.5" style="fill:none;stroke:#000000;stroke-width:2.0px;stroke-linecap:butt;stroke-linejoin:miter;stroke-miterlimit:10;stroke-opacity:1;"/>
<path d="M 189.1,104.6 L 190.3,103.7 L 191.3,104.4" style="fill:none;stroke:#000000;stroke-width:2.0px;stroke-linecap:butt;stroke-linejoin:miter;stroke-miterlimit:10;stroke-opacity:1;"/>
<path d="M 247.8,83.3 L 248.0,81.8 L 249.2,81.4" style="fill:none;stroke:#000000;stroke-width:2.0px;stroke-linecap:butt;stroke-linejoin:miter;stroke-miterlimit:10;stroke-opacity:1;"/>
<path d="M 297.4,90.7 L 298.3,91.5 L 298.1,93.0" style="fill:none;stroke:#000000;stroke-width:2.0px;stroke-linecap:butt;stroke-linejoin:miter;stroke-miterlimit:10;stroke-opacity:1;"/>
<path d="M 314.0,138.9 L 315.1,139.9 L 314.9,141.4" style="fill:none;stroke:#000000;stroke-width:2.0px;stroke-linecap:butt;stroke-linejoin:miter;stroke-miterlimit:10;stroke-opacity:1;"/>
<path d="M 309.8,167.5 L 309.5,168.9 L 308.2,169.4" style="fill:none;stroke:#000000;stroke-width:2.0px;stroke-linecap:butt;stroke-linejoin:miter;stroke-miterlimit:10;stroke-opacity:1;"/>
<path d="M 283.0,178.1 L 281.6,178.6 L 280.5,177.7" style="fill:none;stroke:#000000;stroke-width:2.0px;stroke-linecap:butt;stroke-linejoin:miter;stroke-miterlimit:10;stroke-opacity:1;"/>
<path d="M 260.4,160.2 L 259.2,159.3 L 259.5,157.8" style="fill:none;stroke:#000000;stroke-width:2.0px;stroke-linecap:butt;stroke-linejoin:miter;stroke-miterlimit:10;stroke-opacity:1;"/>
<path d="M 206.3,147.7 L 205.9,148.9 L 204.5,148.9" style="fill:none;stroke:#000000;stroke-width:2.0px;stroke-linecap:butt;stroke-linejoin:miter;stroke-miterlimit:10;stroke-opacity:1;"/>
<path d="M 177.9,149.4 L 176.4,149.4 L 175.9,148.0" style="fill:none;stroke:#000000;stroke-width:2.0px;stroke-linecap:butt;stroke-linejoin:miter;stroke-miterlimit:10;stroke-opacity:1;"/>
<path d="M 199.8,205.8 L 201.1,206.1 L 201.2,207.5" style="fill:none;stroke:#000000;stroke-width:2.0px;stroke-linecap:butt;stroke-linejoin:miter;stroke-miterlimit:10;stroke-opacity:1;"/>
<path d="M 204.5,233.9 L 204.7,235.4 L 203.6,235.9" style="fill:none;stroke:#000000;stroke-width:2.0px;stroke-linecap:butt;stroke-linejoin:miter;stroke-miterlimit:10;stroke-opacity:1;"/>
<path d="M 180.5,73.5 L 181.6,72.5 L 181.2,71.1" style="fill:none;stroke:#000000;stroke-width:2.0px;stroke-linecap:butt;stroke-linejoin:miter;stroke-miterlimit:10;stroke-opacity:1;"/>
<path d="M 148.0,35.5 L 146.5,35.1 L 145.5,36.1" style="fill:none;stroke:#000000;stroke-width:2.0px;stroke-linecap:butt;stroke-linejoin:miter;stroke-miterlimit:10;stroke-opacity:1;"/>
<path d="M 126.0,54.3 L 125.0,55.3 L 125.3,56.8" style="fill:none;stroke:#000000;stroke-width:2.0px;stroke-linecap:butt;stroke-linejoin:miter;stroke-miterlimit:10;stroke-opacity:1;"/>
<path d="M 111.2,103.3 L 110.1,104.3 L 110.4,105.5" style="fill:none;stroke:#000000;stroke-width:2.0px;stroke-linecap:butt;stroke-linejoin:miter;stroke-miterlimit:10;stroke-opacity:1;"/>
<path class="atom-1" d="M 43.5 160.8 L 46.2 165.2 Q 46.5 165.7, 46.9 166.5 Q 47.4 167.3, 47.4 167.3 L 47.4 160.8 L 48.5 160.8 L 48.5 169.2 L 47.4 169.2 L 44.4 164.3 Q 44.1 163.7, 43.7 163.1 Q 43.4 162.4, 43.2 162.2 L 43.2 169.2 L 42.2 169.2 L 42.2 160.8 L 43.5 160.8 " fill="#000000"/>
<path class="atom-1" d="M 42.1 170.0 L 43.2 170.0 L 43.2 173.6 L 47.5 173.6 L 47.5 170.0 L 48.6 170.0 L 48.6 178.4 L 47.5 178.4 L 47.5 174.5 L 43.2 174.5 L 43.2 178.4 L 42.1 178.4 L 42.1 170.0 " fill="#000000"/>
<path class="atom-3" d="M 56.4 116.0 Q 56.4 114.0, 57.4 112.9 Q 58.3 111.7, 60.2 111.7 Q 62.1 111.7, 63.1 112.9 Q 64.0 114.0, 64.0 116.0 Q 64.0 118.0, 63.0 119.2 Q 62.0 120.3, 60.2 120.3 Q 58.4 120.3, 57.4 119.2 Q 56.4 118.0, 56.4 116.0 M 60.2 119.4 Q 61.5 119.4, 62.2 118.5 Q 62.9 117.7, 62.9 116.0 Q 62.9 114.3, 62.2 113.5 Q 61.5 112.7, 60.2 112.7 Q 58.9 112.7, 58.2 113.5 Q 57.5 114.3, 57.5 116.0 Q 57.5 117.7, 58.2 118.5 Q 58.9 119.4, 60.2 119.4 " fill="#000000"/>
<path class="atom-5" d="M 115.0 128.9 L 117.7 133.4 Q 118.0 133.8, 118.4 134.6 Q 118.8 135.4, 118.9 135.5 L 118.9 128.9 L 120.0 128.9 L 120.0 137.3 L 118.8 137.3 L 115.9 132.5 Q 115.5 131.9, 115.2 131.3 Q 114.8 130.6, 114.7 130.4 L 114.7 137.3 L 113.6 137.3 L 113.6 128.9 L 115.0 128.9 " fill="#000000"/>
<path class="atom-9" d="M 191.8 80.3 Q 191.8 78.3, 192.8 77.2 Q 193.7 76.1, 195.6 76.1 Q 197.5 76.1, 198.5 77.2 Q 199.5 78.3, 199.5 80.3 Q 199.5 82.4, 198.4 83.5 Q 197.4 84.7, 195.6 84.7 Q 193.8 84.7, 192.8 83.5 Q 191.8 82.4, 191.8 80.3 M 195.6 83.7 Q 196.9 83.7, 197.6 82.9 Q 198.3 82.0, 198.3 80.3 Q 198.3 78.7, 197.6 77.9 Q 196.9 77.0, 195.6 77.0 Q 194.3 77.0, 193.6 77.8 Q 192.9 78.7, 192.9 80.3 Q 192.9 82.0, 193.6 82.9 Q 194.3 83.7, 195.6 83.7 " fill="#000000"/>
<path class="atom-10" d="M 212.7 116.4 L 215.4 120.8 Q 215.7 121.3, 216.1 122.0 Q 216.6 122.8, 216.6 122.9 L 216.6 116.4 L 217.7 116.4 L 217.7 124.8 L 216.6 124.8 L 213.6 119.9 Q 213.3 119.3, 212.9 118.7 Q 212.5 118.0, 212.4 117.8 L 212.4 124.8 L 211.4 124.8 L 211.4 116.4 L 212.7 116.4 " fill="#000000"/>
<path class="atom-13" d="M 274.1 68.0 L 276.9 72.4 Q 277.2 72.8, 277.6 73.6 Q 278.0 74.4, 278.1 74.5 L 278.1 68.0 L 279.2 68.0 L 279.2 76.3 L 278.0 76.3 L 275.1 71.5 Q 274.7 70.9, 274.4 70.3 Q 274.0 69.6, 273.9 69.4 L 273.9 76.3 L 272.8 76.3 L 272.8 68.0 L 274.1 68.0 " fill="#000000"/>
<path class="atom-24" d="M 170.2 196.3 L 172.9 200.7 Q 173.2 201.2, 173.6 202.0 Q 174.1 202.8, 174.1 202.8 L 174.1 196.3 L 175.2 196.3 L 175.2 204.7 L 174.0 204.7 L 171.1 199.8 Q 170.8 199.3, 170.4 198.6 Q 170.0 198.0, 169.9 197.7 L 169.9 204.7 L 168.8 204.7 L 168.8 196.3 L 170.2 196.3 " fill="#000000"/>
<path class="atom-27" d="M 176.1 243.8 L 178.8 248.2 Q 179.1 248.6, 179.6 249.4 Q 180.0 250.2, 180.0 250.3 L 180.0 243.8 L 181.1 243.8 L 181.1 252.1 L 180.0 252.1 L 177.0 247.3 Q 176.7 246.7, 176.3 246.1 Q 176.0 245.4, 175.9 245.2 L 175.9 252.1 L 174.8 252.1 L 174.8 243.8 L 176.1 243.8 " fill="#000000"/>
<path class="atom-28" d="M 155.9 222.2 L 158.6 226.6 Q 158.9 227.1, 159.3 227.9 Q 159.8 228.6, 159.8 228.7 L 159.8 222.2 L 160.9 222.2 L 160.9 230.6 L 159.8 230.6 L 156.8 225.7 Q 156.5 225.1, 156.1 224.5 Q 155.8 223.8, 155.7 223.6 L 155.7 230.6 L 154.6 230.6 L 154.6 222.2 L 155.9 222.2 " fill="#000000"/>
<path class="atom-32" d="M 193.9 19.3 L 198.9 19.3 L 198.9 20.2 L 195.1 20.2 L 195.1 22.8 L 198.5 22.8 L 198.5 23.8 L 195.1 23.8 L 195.1 27.7 L 193.9 27.7 L 193.9 19.3 " fill="#000000"/>
<path class="atom-37" d="M 77.9 95.8 Q 77.9 93.8, 78.9 92.6 Q 79.9 91.5, 81.8 91.5 Q 83.6 91.5, 84.6 92.6 Q 85.6 93.8, 85.6 95.8 Q 85.6 97.8, 84.6 99.0 Q 83.6 100.1, 81.8 100.1 Q 79.9 100.1, 78.9 99.0 Q 77.9 97.8, 77.9 95.8 M 81.8 99.2 Q 83.1 99.2, 83.8 98.3 Q 84.5 97.5, 84.5 95.8 Q 84.5 94.1, 83.8 93.3 Q 83.1 92.5, 81.8 92.5 Q 80.5 92.5, 79.8 93.3 Q 79.1 94.1, 79.1 95.8 Q 79.1 97.5, 79.8 98.3 Q 80.5 99.2, 81.8 99.2 " fill="#000000"/>
<path class="legend" d="M 39.5 257.9 Q 41.3 257.9, 42.2 258.9 Q 43.2 260.0, 43.2 262.0 Q 43.2 264.0, 42.0 265.2 Q 40.9 266.4, 38.9 266.4 Q 38.0 266.4, 37.2 266.1 L 37.2 270.1 L 35.7 270.1 L 35.7 258.0 L 36.9 258.0 L 37.1 259.0 Q 37.6 258.4, 38.2 258.1 Q 38.8 257.9, 39.5 257.9 M 38.9 265.2 Q 40.2 265.2, 40.9 264.3 Q 41.6 263.5, 41.6 262.0 Q 41.6 260.6, 41.0 259.8 Q 40.5 259.0, 39.4 259.0 Q 38.6 259.0, 38.0 259.5 Q 37.5 259.9, 37.2 260.7 L 37.2 264.9 Q 38.0 265.2, 38.9 265.2 " fill="#000000"/>
<path class="legend" d="M 45.6 258.0 L 45.7 259.1 Q 46.6 257.9, 48.0 257.9 Q 48.4 257.9, 49.1 258.0 L 48.8 259.4 Q 48.1 259.2, 47.7 259.2 Q 47.1 259.2, 46.6 259.5 Q 46.2 259.7, 45.8 260.4 L 45.8 266.2 L 44.3 266.2 L 44.3 258.0 L 45.6 258.0 " fill="#000000"/>
<path class="legend" d="M 49.8 262.1 Q 49.8 260.1, 50.8 259.0 Q 51.8 257.9, 53.6 257.9 Q 55.4 257.9, 56.2 258.9 Q 57.0 260.0, 57.0 262.1 L 57.0 262.3 L 51.3 262.3 Q 51.3 263.7, 51.9 264.4 Q 52.6 265.2, 53.7 265.2 Q 54.4 265.2, 55.0 265.0 Q 55.6 264.9, 56.3 264.5 L 56.7 265.6 Q 55.9 266.0, 55.2 266.2 Q 54.4 266.4, 53.7 266.4 Q 51.8 266.4, 50.8 265.2 Q 49.8 264.1, 49.8 262.1 M 53.6 259.0 Q 52.7 259.0, 52.1 259.6 Q 51.5 260.1, 51.4 261.2 L 55.4 261.2 Q 55.3 260.1, 54.9 259.6 Q 54.4 259.0, 53.6 259.0 " fill="#000000"/>
<path class="legend" d="M 65.6 254.1 L 65.6 266.2 L 64.4 266.2 L 64.1 265.2 Q 63.2 266.4, 61.7 266.4 Q 60.0 266.4, 59.0 265.3 Q 58.1 264.2, 58.1 262.2 Q 58.1 260.2, 59.2 259.0 Q 60.4 257.9, 62.3 257.9 Q 63.2 257.9, 64.1 258.1 L 64.1 254.1 L 65.6 254.1 M 61.8 265.2 Q 62.6 265.2, 63.2 264.7 Q 63.8 264.3, 64.1 263.4 L 64.1 259.3 Q 63.2 259.0, 62.3 259.0 Q 61.1 259.0, 60.4 259.9 Q 59.6 260.7, 59.6 262.2 Q 59.6 263.7, 60.2 264.4 Q 60.8 265.2, 61.8 265.2 " fill="#000000"/>
<path class="legend" d="M 67.3 264.6 L 68.9 264.6 L 68.9 266.2 L 67.3 266.2 L 67.3 264.6 " fill="#000000"/>
<path class="legend" d="" fill="#000000"/>
<path class="legend" d="M 80.0 257.9 Q 81.7 257.9, 82.7 258.9 Q 83.6 260.0, 83.6 262.0 Q 83.6 264.0, 82.5 265.2 Q 81.4 266.4, 79.4 266.4 Q 78.5 266.4, 77.7 266.1 L 77.7 270.1 L 76.2 270.1 L 76.2 258.0 L 77.4 258.0 L 77.6 259.0 Q 78.0 258.4, 78.6 258.1 Q 79.3 257.9, 80.0 257.9 M 79.4 265.2 Q 80.6 265.2, 81.4 264.3 Q 82.1 263.5, 82.1 262.0 Q 82.1 260.6, 81.5 259.8 Q 81.0 259.0, 79.9 259.0 Q 79.1 259.0, 78.5 259.5 Q 77.9 259.9, 77.7 260.7 L 77.7 264.9 Q 78.5 265.2, 79.4 265.2 " fill="#000000"/>
<path class="legend" d="M 84.8 254.9 L 86.3 254.9 L 86.3 266.2 L 84.8 266.2 L 84.8 254.9 " fill="#000000"/>
<path class="legend" d="M 88.2 260.5 Q 88.2 257.7, 89.5 256.3 Q 90.8 254.8, 93.3 254.8 Q 95.7 254.8, 96.9 256.4 L 95.9 257.3 Q 95.0 256.1, 93.3 256.1 Q 91.6 256.1, 90.7 257.2 Q 89.8 258.4, 89.8 260.5 Q 89.8 262.8, 90.7 263.9 Q 91.7 265.1, 93.5 265.1 Q 94.8 265.1, 96.2 264.3 L 96.7 265.5 Q 96.1 265.9, 95.2 266.1 Q 94.3 266.4, 93.3 266.4 Q 90.8 266.4, 89.5 264.9 Q 88.2 263.4, 88.2 260.5 " fill="#000000"/>
<path class="legend" d="M 102.1 259.1 Q 103.1 259.1, 103.9 259.6 Q 104.8 260.0, 105.2 260.8 Q 105.7 261.6, 105.7 262.6 Q 105.7 263.8, 105.1 264.7 Q 104.5 265.5, 103.6 265.9 Q 102.7 266.4, 101.6 266.4 Q 100.6 266.4, 99.6 266.0 Q 98.7 265.6, 98.0 264.9 L 99.0 263.9 Q 99.5 264.4, 100.2 264.8 Q 100.9 265.1, 101.7 265.1 Q 102.7 265.1, 103.4 264.4 Q 104.1 263.8, 104.1 262.7 Q 104.1 261.5, 103.4 260.9 Q 102.7 260.3, 101.6 260.3 Q 100.6 260.3, 99.5 260.8 L 98.6 260.4 L 99.2 254.9 L 105.0 254.9 L 104.8 256.2 L 100.5 256.2 L 100.1 259.5 Q 101.1 259.1, 102.1 259.1 " fill="#000000"/>
<path class="legend" d="M 111.0 266.4 Q 109.0 266.4, 107.9 264.8 Q 106.9 263.3, 106.9 260.5 Q 106.9 257.8, 107.9 256.3 Q 109.0 254.8, 111.0 254.8 Q 113.1 254.8, 114.2 256.3 Q 115.2 257.8, 115.2 260.5 Q 115.2 263.3, 114.2 264.8 Q 113.1 266.4, 111.0 266.4 M 111.0 265.1 Q 112.3 265.1, 112.9 263.9 Q 113.6 262.8, 113.6 260.5 Q 113.6 258.3, 112.9 257.2 Q 112.3 256.1, 111.0 256.1 Q 109.8 256.1, 109.2 257.2 Q 108.5 258.3, 108.5 260.5 Q 108.5 262.8, 109.2 263.9 Q 109.8 265.1, 111.0 265.1 " fill="#000000"/>
<path class="legend" d="M 116.7 264.4 L 118.3 264.4 L 118.3 266.0 L 116.7 266.0 L 116.7 264.4 M 116.7 258.9 L 118.3 258.9 L 118.3 260.5 L 116.7 260.5 L 116.7 258.9 " fill="#000000"/>
<path class="legend" d="" fill="#000000"/>
<path class="legend" d="M 130.2 259.2 Q 131.2 259.2, 131.9 259.6 Q 132.7 260.0, 133.2 260.8 Q 133.6 261.6, 133.6 262.6 Q 133.6 263.7, 133.1 264.5 Q 132.6 265.4, 131.7 265.9 Q 130.9 266.4, 129.8 266.4 Q 127.8 266.4, 126.7 265.0 Q 125.7 263.6, 125.7 260.9 Q 125.7 257.9, 127.0 256.3 Q 128.2 254.8, 130.7 254.8 Q 131.4 254.8, 132.0 254.9 Q 132.6 255.1, 133.1 255.4 L 132.5 256.5 Q 131.7 256.1, 130.7 256.1 Q 129.1 256.1, 128.3 257.1 Q 127.4 258.1, 127.3 260.2 Q 127.9 259.7, 128.6 259.4 Q 129.4 259.2, 130.2 259.2 M 129.8 265.0 Q 130.4 265.0, 130.9 264.7 Q 131.4 264.4, 131.7 263.8 Q 132.0 263.3, 132.0 262.6 Q 132.0 261.6, 131.4 261.0 Q 130.9 260.4, 129.9 260.4 Q 129.2 260.4, 128.5 260.7 Q 127.8 261.0, 127.3 261.5 Q 127.4 263.3, 128.0 264.2 Q 128.6 265.0, 129.8 265.0 " fill="#000000"/>
<path class="legend" d="M 134.9 264.6 L 136.5 264.6 L 136.5 266.2 L 134.9 266.2 L 134.9 264.6 " fill="#000000"/>
<path class="legend" d="M 144.0 256.2 L 138.0 256.2 L 138.0 254.9 L 145.5 254.9 L 145.5 256.0 L 141.0 266.2 L 139.4 266.2 L 144.0 256.2 " fill="#000000"/>
<path class="legend" d="M 150.6 266.4 Q 148.5 266.4, 147.5 264.8 Q 146.5 263.3, 146.5 260.5 Q 146.5 257.8, 147.5 256.3 Q 148.5 254.8, 150.6 254.8 Q 152.7 254.8, 153.7 256.3 Q 154.7 257.8, 154.7 260.5 Q 154.7 263.3, 153.7 264.8 Q 152.7 266.4, 150.6 266.4 M 150.6 265.1 Q 151.8 265.1, 152.5 263.9 Q 153.1 262.8, 153.1 260.5 Q 153.1 258.3, 152.5 257.2 Q 151.8 256.1, 150.6 256.1 Q 149.4 256.1, 148.7 257.2 Q 148.1 258.3, 148.1 260.5 Q 148.1 262.8, 148.7 263.9 Q 149.4 265.1, 150.6 265.1 " fill="#000000"/>
<path class="legend" d="" fill="#000000"/>
<path class="legend" d="" fill="#000000"/>
<path class="legend" d="" fill="#000000"/>
<path class="legend" d="" fill="#000000"/>
<path class="legend" d="" fill="#000000"/>
<path class="legend" d="M 185.2 262.1 Q 185.2 260.1, 186.2 259.0 Q 187.2 257.9, 189.0 257.9 Q 190.8 257.9, 191.6 258.9 Q 192.5 260.0, 192.5 262.1 L 192.5 262.3 L 186.7 262.3 Q 186.7 263.7, 187.4 264.4 Q 188.0 265.2, 189.2 265.2 Q 189.8 265.2, 190.4 265.0 Q 191.0 264.9, 191.7 264.5 L 192.1 265.6 Q 191.3 266.0, 190.6 266.2 Q 189.9 266.4, 189.1 266.4 Q 187.2 266.4, 186.2 265.2 Q 185.2 264.1, 185.2 262.1 M 189.0 259.0 Q 188.1 259.0, 187.5 259.6 Q 187.0 260.1, 186.8 261.2 L 190.9 261.2 Q 190.8 260.1, 190.3 259.6 Q 189.9 259.0, 189.0 259.0 " fill="#000000"/>
<path class="legend" d="M 196.5 262.0 L 193.7 258.0 L 195.5 258.0 L 197.5 260.8 L 199.4 258.0 L 201.0 258.0 L 198.3 262.0 L 201.3 266.2 L 199.5 266.2 L 197.3 263.1 L 195.2 266.2 L 193.5 266.2 L 196.5 262.0 " fill="#000000"/>
<path class="legend" d="M 205.7 257.9 Q 207.4 257.9, 208.4 258.9 Q 209.3 260.0, 209.3 262.0 Q 209.3 264.0, 208.2 265.2 Q 207.1 266.4, 205.1 266.4 Q 204.2 266.4, 203.4 266.1 L 203.4 270.1 L 201.9 270.1 L 201.9 258.0 L 203.1 258.0 L 203.3 259.0 Q 203.7 258.4, 204.3 258.1 Q 205.0 257.9, 205.7 257.9 M 205.1 265.2 Q 206.3 265.2, 207.1 264.3 Q 207.8 263.5, 207.8 262.0 Q 207.8 260.6, 207.2 259.8 Q 206.7 259.0, 205.6 259.0 Q 204.8 259.0, 204.2 259.5 Q 203.6 259.9, 203.4 260.7 L 203.4 264.9 Q 204.2 265.2, 205.1 265.2 " fill="#000000"/>
<path class="legend" d="M 210.5 264.6 L 212.1 264.6 L 212.1 266.2 L 210.5 266.2 L 210.5 264.6 " fill="#000000"/>
<path class="legend" d="" fill="#000000"/>
<path class="legend" d="M 223.2 257.9 Q 224.9 257.9, 225.9 258.9 Q 226.8 260.0, 226.8 262.0 Q 226.8 264.0, 225.7 265.2 Q 224.6 266.4, 222.6 266.4 Q 221.7 266.4, 220.9 266.1 L 220.9 270.1 L 219.4 270.1 L 219.4 258.0 L 220.6 258.0 L 220.8 259.0 Q 221.2 258.4, 221.8 258.1 Q 222.5 257.9, 223.2 257.9 M 222.6 265.2 Q 223.8 265.2, 224.6 264.3 Q 225.3 263.5, 225.3 262.0 Q 225.3 260.6, 224.7 259.8 Q 224.1 259.0, 223.1 259.0 Q 222.3 259.0, 221.7 259.5 Q 221.1 259.9, 220.9 260.7 L 220.9 264.9 Q 221.7 265.2, 222.6 265.2 " fill="#000000"/>
<path class="legend" d="M 228.0 254.9 L 229.5 254.9 L 229.5 266.2 L 228.0 266.2 L 228.0 254.9 " fill="#000000"/>
<path class="legend" d="M 231.4 260.5 Q 231.4 257.7, 232.7 256.3 Q 234.0 254.8, 236.5 254.8 Q 238.9 254.8, 240.1 256.4 L 239.1 257.3 Q 238.1 256.1, 236.5 256.1 Q 234.8 256.1, 233.9 257.2 Q 233.0 258.4, 233.0 260.5 Q 233.0 262.8, 233.9 263.9 Q 234.9 265.1, 236.7 265.1 Q 238.0 265.1, 239.4 264.3 L 239.9 265.5 Q 239.3 265.9, 238.4 266.1 Q 237.5 266.4, 236.5 266.4 Q 234.0 266.4, 232.7 264.9 Q 231.4 263.4, 231.4 260.5 " fill="#000000"/>
<path class="legend" d="M 245.3 259.1 Q 246.3 259.1, 247.1 259.6 Q 247.9 260.0, 248.4 260.8 Q 248.9 261.6, 248.9 262.6 Q 248.9 263.8, 248.3 264.7 Q 247.7 265.5, 246.8 265.9 Q 245.9 266.4, 244.8 266.4 Q 243.8 266.4, 242.8 266.0 Q 241.9 265.6, 241.2 264.9 L 242.2 263.9 Q 242.7 264.4, 243.4 264.8 Q 244.1 265.1, 244.9 265.1 Q 245.9 265.1, 246.6 264.4 Q 247.3 263.8, 247.3 262.7 Q 247.3 261.5, 246.6 260.9 Q 245.9 260.3, 244.8 260.3 Q 243.8 260.3, 242.7 260.8 L 241.8 260.4 L 242.3 254.9 L 248.2 254.9 L 248.0 256.2 L 243.7 256.2 L 243.3 259.5 Q 244.3 259.1, 245.3 259.1 " fill="#000000"/>
<path class="legend" d="M 254.2 266.4 Q 252.2 266.4, 251.1 264.8 Q 250.1 263.3, 250.1 260.5 Q 250.1 257.8, 251.1 256.3 Q 252.1 254.8, 254.2 254.8 Q 256.3 254.8, 257.4 256.3 Q 258.4 257.8, 258.4 260.5 Q 258.4 263.3, 257.3 264.8 Q 256.3 266.4, 254.2 266.4 M 254.2 265.1 Q 255.5 265.1, 256.1 263.9 Q 256.8 262.8, 256.8 260.5 Q 256.8 258.3, 256.1 257.2 Q 255.5 256.1, 254.2 256.1 Q 253.0 256.1, 252.4 257.2 Q 251.7 258.3, 251.7 260.5 Q 251.7 262.8, 252.4 263.9 Q 253.0 265.1, 254.2 265.1 " fill="#000000"/>
<path class="legend" d="M 259.9 264.4 L 261.5 264.4 L 261.5 266.0 L 259.9 266.0 L 259.9 264.4 M 259.9 258.9 L 261.5 258.9 L 261.5 260.5 L 259.9 260.5 L 259.9 258.9 " fill="#000000"/>
<path class="legend" d="" fill="#000000"/>
<path class="legend" d="M 273.4 259.2 Q 274.3 259.2, 275.1 259.6 Q 275.9 260.0, 276.3 260.8 Q 276.8 261.6, 276.8 262.6 Q 276.8 263.7, 276.3 264.5 Q 275.8 265.4, 274.9 265.9 Q 274.1 266.4, 273.0 266.4 Q 271.0 266.4, 269.9 265.0 Q 268.9 263.6, 268.9 260.9 Q 268.9 257.9, 270.2 256.3 Q 271.4 254.8, 273.9 254.8 Q 274.6 254.8, 275.1 254.9 Q 275.8 255.1, 276.3 255.4 L 275.7 256.5 Q 274.9 256.1, 273.9 256.1 Q 272.3 256.1, 271.5 257.1 Q 270.6 258.1, 270.5 260.2 Q 271.1 259.7, 271.8 259.4 Q 272.6 259.2, 273.4 259.2 M 273.0 265.0 Q 273.6 265.0, 274.1 264.7 Q 274.6 264.4, 274.9 263.8 Q 275.2 263.3, 275.2 262.6 Q 275.2 261.6, 274.6 261.0 Q 274.1 260.4, 273.1 260.4 Q 272.4 260.4, 271.7 260.7 Q 271.0 261.0, 270.5 261.5 Q 270.6 263.3, 271.2 264.2 Q 271.8 265.0, 273.0 265.0 " fill="#000000"/>
<path class="legend" d="M 278.1 264.6 L 279.7 264.6 L 279.7 266.2 L 278.1 266.2 L 278.1 264.6 " fill="#000000"/>
<path class="legend" d="M 281.2 257.0 Q 281.7 256.0, 282.7 255.4 Q 283.6 254.8, 285.0 254.8 Q 286.7 254.8, 287.7 255.7 Q 288.7 256.6, 288.7 258.3 Q 288.7 260.0, 287.4 261.5 Q 286.2 263.1, 283.6 264.9 L 288.8 264.9 L 288.8 266.2 L 281.2 266.2 L 281.2 265.2 Q 283.3 263.7, 284.6 262.5 Q 285.8 261.4, 286.4 260.4 Q 287.1 259.4, 287.1 258.4 Q 287.1 257.3, 286.5 256.7 Q 286.0 256.1, 285.0 256.1 Q 284.1 256.1, 283.5 256.4 Q 282.9 256.8, 282.5 257.6 L 281.2 257.0 " fill="#000000"/>
<path class="legend" d="M 296.2 256.2 L 290.3 256.2 L 290.3 254.9 L 297.8 254.9 L 297.8 256.0 L 293.2 266.2 L 291.7 266.2 L 296.2 256.2 " fill="#000000"/>
</svg>