<svg xmlns="http://www.w3.org/2000/svg" xmlns:rdkit="http://www.rdkit.org/xml" xmlns:xlink="http://www.w3.org/1999/xlink" version="1.1" baseProfile="full" xml:space="preserve" width="360px" height="272px" viewBox="0 0 360 272">
<!-- END OF HEADER -->
<rect style="opacity:1.0;fill:#FFFFFF;stroke:none" width="360.0" height="272.0" x="0.0" y="0.0"> </rect>
<ellipse cx="299.8" cy="169.5" rx="9.6" ry="9.6" class="atom-0" style="fill:#7F7FFF;fill-rule:evenodd;stroke:#7F7FFF;stroke-width:1.0px;stroke-linecap:butt;stroke-linejoin:miter;stroke-opacity:1"/>
<ellipse cx="276.5" cy="151.2" rx="9.6" ry="9.6" class="atom-1" style="fill:#7F7FFF;fill-rule:evenodd;stroke:#7F7FFF;stroke-width:1.0px;stroke-linecap:butt;stroke-linejoin:miter;stroke-opacity:1"/>
<ellipse cx="284.7" cy="122.8" rx="9.6" ry="9.6" class="atom-2" style="fill:#7F7FFF;fill-rule:evenodd;stroke:#7F7FFF;stroke-width:1.0px;stroke-linecap:butt;stroke-linejoin:miter;stroke-opacity:1"/>
<ellipse cx="260.2" cy="106.3" rx="9.6" ry="9.6" class="atom-3" style="fill:#7F7FFF;fill-rule:evenodd;stroke:#7F7FFF;stroke-width:1.0px;stroke-linecap:butt;stroke-linejoin:miter;stroke-opacity:1"/>
<ellipse cx="259.2" cy="76.7" rx="2.3" ry="2.3" class="atom-4" style="fill:#FF7F7F;fill-rule:evenodd;stroke:#FF7F7F;stroke-width:1.0px;stroke-linecap:butt;stroke-linejoin:miter;stroke-opacity:1"/>
<ellipse cx="233.2" cy="62.8" rx="2.3" ry="2.3" class="atom-5" style="fill:#FF7F7F;fill-rule:evenodd;stroke:#FF7F7F;stroke-width:1.0px;stroke-linecap:butt;stroke-linejoin:miter;stroke-opacity:1"/>
<ellipse cx="232.2" cy="33.3" rx="2.3" ry="2.3" class="atom-6" style="fill:#FF7F7F;fill-rule:evenodd;stroke:#FF7F7F;stroke-width:1.0px;stroke-linecap:butt;stroke-linejoin:miter;stroke-opacity:1"/>
<ellipse cx="257.3" cy="17.6" rx="2.3" ry="2.3" class="atom-7" style="fill:#FF7F7F;fill-rule:evenodd;stroke:#FF7F7F;stroke-width:1.0px;stroke-linecap:butt;stroke-linejoin:miter;stroke-opacity:1"/>
<ellipse cx="283.3" cy="31.5" rx="2.3" ry="2.3" class="atom-8" style="fill:#FF7F7F;fill-rule:evenodd;stroke:#FF7F7F;stroke-width:1.0px;stroke-linecap:butt;stroke-linejoin:miter;stroke-opacity:1"/>
<ellipse cx="308.4" cy="15.9" rx="2.3" ry="2.3" class="atom-9" style="fill:#FF7F7F;fill-rule:evenodd;stroke:#FF7F7F;stroke-width:1.0px;stroke-linecap:butt;stroke-linejoin:miter;stroke-opacity:1"/>
<ellipse cx="334.5" cy="29.8" rx="2.3" ry="2.3" class="atom-10" style="fill:#FF7F7F;fill-rule:evenodd;stroke:#FF7F7F;stroke-width:1.0px;stroke-linecap:butt;stroke-linejoin:miter;stroke-opacity:1"/>
<ellipse cx="335.5" cy="59.4" rx="2.3" ry="2.3" class="atom-11" style="fill:#FF7F7F;fill-rule:evenodd;stroke:#FF7F7F;stroke-width:1.0px;stroke-linecap:butt;stroke-linejoin:miter;stroke-opacity:1"/>
<ellipse cx="310.4" cy="75.0" rx="2.3" ry="2.3" class="atom-12" style="fill:#FF7F7F;fill-rule:evenodd;stroke:#FF7F7F;stroke-width:1.0px;stroke-linecap:butt;stroke-linejoin:miter;stroke-opacity:1"/>
<ellipse cx="284.3" cy="61.1" rx="2.3" ry="2.3" class="atom-13" style="fill:#FF7F7F;fill-rule:evenodd;stroke:#FF7F7F;stroke-width:1.0px;stroke-linecap:butt;stroke-linejoin:miter;stroke-opacity:1"/>
<ellipse cx="236.9" cy="124.4" rx="9.6" ry="9.6" class="atom-14" style="fill:#7F7FFF;fill-rule:evenodd;stroke:#7F7FFF;stroke-width:1.0px;stroke-linecap:butt;stroke-linejoin:miter;stroke-opacity:1"/>
<ellipse cx="208.5" cy="116.3" rx="9.6" ry="9.6" class="atom-15" style="fill:#7F7FFF;fill-rule:evenodd;stroke:#7F7FFF;stroke-width:1.0px;stroke-linecap:butt;stroke-linejoin:miter;stroke-opacity:1"/>
<ellipse cx="247.0" cy="152.2" rx="9.6" ry="9.6" class="atom-16" style="fill:#7F7FFF;fill-rule:evenodd;stroke:#7F7FFF;stroke-width:1.0px;stroke-linecap:butt;stroke-linejoin:miter;stroke-opacity:1"/>
<ellipse cx="217.5" cy="150.1" rx="9.6" ry="9.6" class="atom-17" style="fill:#7F7FFF;fill-rule:evenodd;stroke:#7F7FFF;stroke-width:1.0px;stroke-linecap:butt;stroke-linejoin:miter;stroke-opacity:1"/>
<ellipse cx="201.0" cy="174.6" rx="9.6" ry="9.6" class="atom-18" style="fill:#7F7FFF;fill-rule:evenodd;stroke:#7F7FFF;stroke-width:1.0px;stroke-linecap:butt;stroke-linejoin:miter;stroke-opacity:1"/>
<ellipse cx="171.5" cy="172.5" rx="0.4" ry="0.4" class="atom-19" style="fill:#FF7F7F;fill-rule:evenodd;stroke:#FF7F7F;stroke-width:1.0px;stroke-linecap:butt;stroke-linejoin:miter;stroke-opacity:1"/>
<ellipse cx="158.5" cy="145.9" rx="0.4" ry="0.4" class="atom-20" style="fill:#FF7F7F;fill-rule:evenodd;stroke:#FF7F7F;stroke-width:1.0px;stroke-linecap:butt;stroke-linejoin:miter;stroke-opacity:1"/>
<ellipse cx="175.1" cy="121.4" rx="0.4" ry="0.4" class="atom-21" style="fill:#FF7F7F;fill-rule:evenodd;stroke:#FF7F7F;stroke-width:1.0px;stroke-linecap:butt;stroke-linejoin:miter;stroke-opacity:1"/>
<ellipse cx="129.1" cy="143.8" rx="0.9" ry="0.9" class="atom-22" style="fill:#7F7FFF;fill-rule:evenodd;stroke:#7F7FFF;stroke-width:1.0px;stroke-linecap:butt;stroke-linejoin:miter;stroke-opacity:1"/>
<ellipse cx="116.1" cy="117.3" rx="0.0" ry="0.0" class="atom-23" style="fill:#7F7FFF;fill-rule:evenodd;stroke:#7F7FFF;stroke-width:1.0px;stroke-linecap:butt;stroke-linejoin:miter;stroke-opacity:1"/>
<ellipse cx="86.7" cy="115.2" rx="1.2" ry="1.2" class="atom-24" style="fill:#FF7F7F;fill-rule:evenodd;stroke:#FF7F7F;stroke-width:1.0px;stroke-linecap:butt;stroke-linejoin:miter;stroke-opacity:1"/>
<ellipse cx="67.6" cy="137.8" rx="1.2" ry="1.2" class="atom-25" style="fill:#FF7F7F;fill-rule:evenodd;stroke:#FF7F7F;stroke-width:1.0px;stroke-linecap:butt;stroke-linejoin:miter;stroke-opacity:1"/>
<ellipse cx="40.2" cy="126.7" rx="1.2" ry="1.2" class="atom-26" style="fill:#FF7F7F;fill-rule:evenodd;stroke:#FF7F7F;stroke-width:1.0px;stroke-linecap:butt;stroke-linejoin:miter;stroke-opacity:1"/>
<ellipse cx="42.3" cy="97.2" rx="1.2" ry="1.2" class="atom-27" style="fill:#FF7F7F;fill-rule:evenodd;stroke:#FF7F7F;stroke-width:1.0px;stroke-linecap:butt;stroke-linejoin:miter;stroke-opacity:1"/>
<ellipse cx="19.7" cy="78.2" rx="1.2" ry="1.2" class="atom-28" style="fill:#FF7F7F;fill-rule:evenodd;stroke:#FF7F7F;stroke-width:1.0px;stroke-linecap:butt;stroke-linejoin:miter;stroke-opacity:1"/>
<ellipse cx="71.0" cy="90.1" rx="1.2" ry="1.2" class="atom-29" style="fill:#FF7F7F;fill-rule:evenodd;stroke:#FF7F7F;stroke-width:1.0px;stroke-linecap:butt;stroke-linejoin:miter;stroke-opacity:1"/>
<ellipse cx="213.9" cy="201.2" rx="9.6" ry="9.6" class="atom-30" style="fill:#7F7FFF;fill-rule:evenodd;stroke:#7F7FFF;stroke-width:1.0px;stroke-linecap:butt;stroke-linejoin:miter;stroke-opacity:1"/>
<ellipse cx="197.3" cy="225.7" rx="9.6" ry="9.6" class="atom-31" style="fill:#7F7FFF;fill-rule:evenodd;stroke:#7F7FFF;stroke-width:1.0px;stroke-linecap:butt;stroke-linejoin:miter;stroke-opacity:1"/>
<ellipse cx="243.4" cy="203.3" rx="9.6" ry="9.6" class="atom-32" style="fill:#7F7FFF;fill-rule:evenodd;stroke:#7F7FFF;stroke-width:1.0px;stroke-linecap:butt;stroke-linejoin:miter;stroke-opacity:1"/>
<ellipse cx="256.3" cy="229.9" rx="9.6" ry="9.6" class="atom-33" style="fill:#7F7FFF;fill-rule:evenodd;stroke:#7F7FFF;stroke-width:1.0px;stroke-linecap:butt;stroke-linejoin:miter;stroke-opacity:1"/>
<ellipse cx="285.8" cy="232.0" rx="9.6" ry="9.6" class="atom-34" style="fill:#7F7FFF;fill-rule:evenodd;stroke:#7F7FFF;stroke-width:1.0px;stroke-linecap:butt;stroke-linejoin:miter;stroke-opacity:1"/>
<ellipse cx="302.3" cy="207.5" rx="9.6" ry="9.6" class="atom-35" style="fill:#7F7FFF;fill-rule:evenodd;stroke:#7F7FFF;stroke-width:1.0px;stroke-linecap:butt;stroke-linejoin:miter;stroke-opacity:1"/>
<ellipse cx="331.8" cy="209.6" rx="9.6" ry="9.6" class="atom-36" style="fill:#7F7FFF;fill-rule:evenodd;stroke:#7F7FFF;stroke-width:1.0px;stroke-linecap:butt;stroke-linejoin:miter;stroke-opacity:1"/>
<ellipse cx="289.4" cy="180.9" rx="9.6" ry="9.6" class="atom-37" style="fill:#7F7FFF;fill-rule:evenodd;stroke:#7F7FFF;stroke-width:1.0px;stroke-linecap:butt;stroke-linejoin:miter;stroke-opacity:1"/>
<ellipse cx="259.9" cy="178.8" rx="9.6" ry="9.6" class="atom-38" style="fill:#7F7FFF;fill-rule:evenodd;stroke:#7F7FFF;stroke-width:1.0px;stroke-linecap:butt;stroke-linejoin:miter;stroke-opacity:1"/>
<path class="bond-0 atom-1 atom-0" d="M 279.6,153.3 L 279.3,153.7" style="fill:none;fill-rule:evenodd;stroke:#000000;stroke-width:1.0px;stroke-linecap:butt;stroke-linejoin:miter;stroke-opacity:1"/>
<path class="bond-0 atom-1 atom-0" d="M 282.7,155.3 L 282.0,156.2" style="fill:none;fill-rule:evenodd;stroke:#000000;stroke-width:1.0px;stroke-linecap:butt;stroke-linejoin:miter;stroke-opacity:1"/>
<path class="bond-0 atom-1 atom-0" d="M 285.8,157.4 L 284.8,158.7" style="fill:none;fill-rule:evenodd;stroke:#000000;stroke-width:1.0px;stroke-linecap:butt;stroke-linejoin:miter;stroke-opacity:1"/>
<path class="bond-0 atom-1 atom-0" d="M 288.9,159.5 L 287.5,161.2" style="fill:none;fill-rule:evenodd;stroke:#000000;stroke-width:1.0px;stroke-linecap:butt;stroke-linejoin:miter;stroke-opacity:1"/>
<path class="bond-0 atom-1 atom-0" d="M 291.9,161.5 L 290.2,163.7" style="fill:none;fill-rule:evenodd;stroke:#000000;stroke-width:1.0px;stroke-linecap:butt;stroke-linejoin:miter;stroke-opacity:1"/>
<path class="bond-0 atom-1 atom-0" d="M 295.0,163.6 L 293.0,166.2" style="fill:none;fill-rule:evenodd;stroke:#000000;stroke-width:1.0px;stroke-linecap:butt;stroke-linejoin:miter;stroke-opacity:1"/>
<path class="bond-0 atom-1 atom-0" d="M 298.1,165.6 L 295.7,168.7" style="fill:none;fill-rule:evenodd;stroke:#000000;stroke-width:1.0px;stroke-linecap:butt;stroke-linejoin:miter;stroke-opacity:1"/>
<path class="bond-0 atom-1 atom-0" d="M 301.2,167.7 L 298.5,171.2" style="fill:none;fill-rule:evenodd;stroke:#000000;stroke-width:1.0px;stroke-linecap:butt;stroke-linejoin:miter;stroke-opacity:1"/>
<path class="bond-1 atom-1 atom-2" d="M 276.5,151.2 L 284.7,122.8" style="fill:none;fill-rule:evenodd;stroke:#000000;stroke-width:2.0px;stroke-linecap:butt;stroke-linejoin:miter;stroke-opacity:1"/>
<path class="bond-2 atom-2 atom-3" d="M 284.7,122.8 L 264.4,109.1" style="fill:none;fill-rule:evenodd;stroke:#000000;stroke-width:2.0px;stroke-linecap:butt;stroke-linejoin:miter;stroke-opacity:1"/>
<path class="bond-3 atom-3 atom-4" d="M 260.1,101.1 L 259.2,76.7" style="fill:none;fill-rule:evenodd;stroke:#000000;stroke-width:2.0px;stroke-linecap:butt;stroke-linejoin:miter;stroke-opacity:1"/>
<path class="bond-4 atom-4 atom-5" d="M 259.2,76.7 L 233.2,62.8" style="fill:none;fill-rule:evenodd;stroke:#000000;stroke-width:2.0px;stroke-linecap:butt;stroke-linejoin:miter;stroke-opacity:1"/>
<path class="bond-4 atom-4 atom-5" d="M 259.1,71.6 L 237.5,60.1" style="fill:none;fill-rule:evenodd;stroke:#000000;stroke-width:2.0px;stroke-linecap:butt;stroke-linejoin:miter;stroke-opacity:1"/>
<path class="bond-5 atom-5 atom-6" d="M 233.2,62.8 L 232.3,38.4" style="fill:none;fill-rule:evenodd;stroke:#000000;stroke-width:2.0px;stroke-linecap:butt;stroke-linejoin:miter;stroke-opacity:1"/>
<path class="bond-6 atom-6 atom-7" d="M 236.3,30.7 L 257.3,17.6" style="fill:none;fill-rule:evenodd;stroke:#000000;stroke-width:2.0px;stroke-linecap:butt;stroke-linejoin:miter;stroke-opacity:1"/>
<path class="bond-6 atom-6 atom-7" d="M 238.7,34.4 L 257.4,22.8" style="fill:none;fill-rule:evenodd;stroke:#000000;stroke-width:2.0px;stroke-linecap:butt;stroke-linejoin:miter;stroke-opacity:1"/>
<path class="bond-7 atom-7 atom-8" d="M 257.3,17.6 L 283.3,31.5" style="fill:none;fill-rule:evenodd;stroke:#000000;stroke-width:2.0px;stroke-linecap:butt;stroke-linejoin:miter;stroke-opacity:1"/>
<path class="bond-8 atom-8 atom-9" d="M 283.3,31.5 L 308.4,15.9" style="fill:none;fill-rule:evenodd;stroke:#000000;stroke-width:2.0px;stroke-linecap:butt;stroke-linejoin:miter;stroke-opacity:1"/>
<path class="bond-8 atom-8 atom-9" d="M 287.9,34.0 L 308.6,21.0" style="fill:none;fill-rule:evenodd;stroke:#000000;stroke-width:2.0px;stroke-linecap:butt;stroke-linejoin:miter;stroke-opacity:1"/>
<path class="bond-9 atom-9 atom-10" d="M 308.4,15.9 L 334.5,29.8" style="fill:none;fill-rule:evenodd;stroke:#000000;stroke-width:2.0px;stroke-linecap:butt;stroke-linejoin:miter;stroke-opacity:1"/>
<path class="bond-10 atom-10 atom-11" d="M 334.5,29.8 L 335.5,59.4" style="fill:none;fill-rule:evenodd;stroke:#000000;stroke-width:2.0px;stroke-linecap:butt;stroke-linejoin:miter;stroke-opacity:1"/>
<path class="bond-10 atom-10 atom-11" d="M 330.2,32.5 L 331.0,57.0" style="fill:none;fill-rule:evenodd;stroke:#000000;stroke-width:2.0px;stroke-linecap:butt;stroke-linejoin:miter;stroke-opacity:1"/>
<path class="bond-11 atom-11 atom-12" d="M 335.5,59.4 L 310.4,75.0" style="fill:none;fill-rule:evenodd;stroke:#000000;stroke-width:2.0px;stroke-linecap:butt;stroke-linejoin:miter;stroke-opacity:1"/>
<path class="bond-12 atom-12 atom-13" d="M 310.4,75.0 L 284.3,61.1" style="fill:none;fill-rule:evenodd;stroke:#000000;stroke-width:2.0px;stroke-linecap:butt;stroke-linejoin:miter;stroke-opacity:1"/>
<path class="bond-12 atom-12 atom-13" d="M 310.2,69.9 L 288.7,58.4" style="fill:none;fill-rule:evenodd;stroke:#000000;stroke-width:2.0px;stroke-linecap:butt;stroke-linejoin:miter;stroke-opacity:1"/>
<path class="bond-13 atom-3 atom-14" d="M 256.1,109.5 L 236.9,124.4" style="fill:none;fill-rule:evenodd;stroke:#000000;stroke-width:2.0px;stroke-linecap:butt;stroke-linejoin:miter;stroke-opacity:1"/>
<path class="bond-14 atom-14 atom-15" d="M 239.1,122.7 L 214.0,115.5" style="fill:none;fill-rule:evenodd;stroke:#000000;stroke-width:2.0px;stroke-linecap:butt;stroke-linejoin:miter;stroke-opacity:1"/>
<path class="bond-14 atom-14 atom-15" d="M 237.9,127.0 L 212.7,119.8" style="fill:none;fill-rule:evenodd;stroke:#000000;stroke-width:2.0px;stroke-linecap:butt;stroke-linejoin:miter;stroke-opacity:1"/>
<path class="bond-15 atom-14 atom-16" d="M 236.9,124.4 L 247.0,152.2" style="fill:none;fill-rule:evenodd;stroke:#000000;stroke-width:2.0px;stroke-linecap:butt;stroke-linejoin:miter;stroke-opacity:1"/>
<path class="bond-16 atom-16 atom-17" d="M 243.3,151.6 L 243.3,152.3" style="fill:none;fill-rule:evenodd;stroke:#000000;stroke-width:1.0px;stroke-linecap:butt;stroke-linejoin:miter;stroke-opacity:1"/>
<path class="bond-16 atom-16 atom-17" d="M 239.7,151.1 L 239.6,152.3" style="fill:none;fill-rule:evenodd;stroke:#000000;stroke-width:1.0px;stroke-linecap:butt;stroke-linejoin:miter;stroke-opacity:1"/>
<path class="bond-16 atom-16 atom-17" d="M 236.0,150.5 L 235.9,152.4" style="fill:none;fill-rule:evenodd;stroke:#000000;stroke-width:1.0px;stroke-linecap:butt;stroke-linejoin:miter;stroke-opacity:1"/>
<path class="bond-16 atom-16 atom-17" d="M 232.4,149.9 L 232.2,152.4" style="fill:none;fill-rule:evenodd;stroke:#000000;stroke-width:1.0px;stroke-linecap:butt;stroke-linejoin:miter;stroke-opacity:1"/>
<path class="bond-16 atom-16 atom-17" d="M 228.7,149.3 L 228.5,152.5" style="fill:none;fill-rule:evenodd;stroke:#000000;stroke-width:1.0px;stroke-linecap:butt;stroke-linejoin:miter;stroke-opacity:1"/>
<path class="bond-16 atom-16 atom-17" d="M 225.0,148.8 L 224.8,152.5" style="fill:none;fill-rule:evenodd;stroke:#000000;stroke-width:1.0px;stroke-linecap:butt;stroke-linejoin:miter;stroke-opacity:1"/>
<path class="bond-16 atom-16 atom-17" d="M 221.4,148.2 L 221.1,152.6" style="fill:none;fill-rule:evenodd;stroke:#000000;stroke-width:1.0px;stroke-linecap:butt;stroke-linejoin:miter;stroke-opacity:1"/>
<path class="bond-17 atom-17 atom-18" d="M 217.5,150.1 L 204.4,169.5" style="fill:none;fill-rule:evenodd;stroke:#000000;stroke-width:2.0px;stroke-linecap:butt;stroke-linejoin:miter;stroke-opacity:1"/>
<path class="bond-18 atom-18 atom-19" d="M 196.8,174.3 L 171.5,172.5" style="fill:none;fill-rule:evenodd;stroke:#000000;stroke-width:2.0px;stroke-linecap:butt;stroke-linejoin:miter;stroke-opacity:1"/>
<path class="bond-19 atom-19 atom-20" d="M 171.5,172.5 L 158.5,145.9" style="fill:none;fill-rule:evenodd;stroke:#000000;stroke-width:2.0px;stroke-linecap:butt;stroke-linejoin:miter;stroke-opacity:1"/>
<path class="bond-20 atom-20 atom-21" d="M 159.7,148.2 L 173.3,128.0" style="fill:none;fill-rule:evenodd;stroke:#000000;stroke-width:2.0px;stroke-linecap:butt;stroke-linejoin:miter;stroke-opacity:1"/>
<path class="bond-20 atom-20 atom-21" d="M 156.0,145.7 L 169.7,125.5" style="fill:none;fill-rule:evenodd;stroke:#000000;stroke-width:2.0px;stroke-linecap:butt;stroke-linejoin:miter;stroke-opacity:1"/>
<path class="bond-21 atom-20 atom-22" d="M 158.5,145.9 L 133.2,144.1" style="fill:none;fill-rule:evenodd;stroke:#000000;stroke-width:2.0px;stroke-linecap:butt;stroke-linejoin:miter;stroke-opacity:1"/>
<path class="bond-22 atom-22 atom-23" d="M 126.6,138.7 L 116.1,117.3" style="fill:none;fill-rule:evenodd;stroke:#000000;stroke-width:2.0px;stroke-linecap:butt;stroke-linejoin:miter;stroke-opacity:1"/>
<path class="bond-23 atom-23 atom-24" d="M 116.1,117.3 L 86.7,115.2" style="fill:none;fill-rule:evenodd;stroke:#000000;stroke-width:2.0px;stroke-linecap:butt;stroke-linejoin:miter;stroke-opacity:1"/>
<path class="bond-24 atom-24 atom-25" d="M 86.7,115.2 L 67.6,137.8" style="fill:none;fill-rule:evenodd;stroke:#000000;stroke-width:2.0px;stroke-linecap:butt;stroke-linejoin:miter;stroke-opacity:1"/>
<path class="bond-25 atom-25 atom-26" d="M 67.6,137.8 L 40.2,126.7" style="fill:none;fill-rule:evenodd;stroke:#000000;stroke-width:2.0px;stroke-linecap:butt;stroke-linejoin:miter;stroke-opacity:1"/>
<path class="bond-25 atom-25 atom-26" d="M 66.3,132.5 L 44.9,123.8" style="fill:none;fill-rule:evenodd;stroke:#000000;stroke-width:2.0px;stroke-linecap:butt;stroke-linejoin:miter;stroke-opacity:1"/>
<path class="bond-26 atom-26 atom-27" d="M 40.2,126.7 L 42.0,102.3" style="fill:none;fill-rule:evenodd;stroke:#000000;stroke-width:2.0px;stroke-linecap:butt;stroke-linejoin:miter;stroke-opacity:1"/>
<path class="bond-27 atom-27 atom-28" d="M 38.2,93.7 L 19.7,78.2" style="fill:none;fill-rule:evenodd;stroke:#000000;stroke-width:2.0px;stroke-linecap:butt;stroke-linejoin:miter;stroke-opacity:1"/>
<path class="bond-28 atom-27 atom-29" d="M 46.5,96.2 L 66.9,91.1" style="fill:none;fill-rule:evenodd;stroke:#000000;stroke-width:2.0px;stroke-linecap:butt;stroke-linejoin:miter;stroke-opacity:1"/>
<path class="bond-29 atom-18 atom-30" d="M 203.5,179.8 L 213.9,201.2" style="fill:none;fill-rule:evenodd;stroke:#000000;stroke-width:2.0px;stroke-linecap:butt;stroke-linejoin:miter;stroke-opacity:1"/>
<path class="bond-30 atom-30 atom-31" d="M 212.8,198.9 L 199.0,219.2" style="fill:none;fill-rule:evenodd;stroke:#000000;stroke-width:2.0px;stroke-linecap:butt;stroke-linejoin:miter;stroke-opacity:1"/>
<path class="bond-30 atom-30 atom-31" d="M 216.4,201.4 L 202.7,221.7" style="fill:none;fill-rule:evenodd;stroke:#000000;stroke-width:2.0px;stroke-linecap:butt;stroke-linejoin:miter;stroke-opacity:1"/>
<path class="bond-31 atom-30 atom-32" d="M 213.9,201.2 L 243.4,203.3" style="fill:none;fill-rule:evenodd;stroke:#000000;stroke-width:2.0px;stroke-linecap:butt;stroke-linejoin:miter;stroke-opacity:1"/>
<path class="bond-32 atom-32 atom-33" d="M 243.4,203.3 L 256.3,229.9" style="fill:none;fill-rule:evenodd;stroke:#000000;stroke-width:2.0px;stroke-linecap:butt;stroke-linejoin:miter;stroke-opacity:1"/>
<path class="bond-32 atom-32 atom-33" d="M 248.5,203.7 L 259.2,225.6" style="fill:none;fill-rule:evenodd;stroke:#000000;stroke-width:2.0px;stroke-linecap:butt;stroke-linejoin:miter;stroke-opacity:1"/>
<path class="bond-33 atom-33 atom-34" d="M 256.3,229.9 L 285.8,232.0" style="fill:none;fill-rule:evenodd;stroke:#000000;stroke-width:2.0px;stroke-linecap:butt;stroke-linejoin:miter;stroke-opacity:1"/>
<path class="bond-34 atom-34 atom-35" d="M 285.8,232.0 L 302.3,207.5" style="fill:none;fill-rule:evenodd;stroke:#000000;stroke-width:2.0px;stroke-linecap:butt;stroke-linejoin:miter;stroke-opacity:1"/>
<path class="bond-34 atom-34 atom-35" d="M 283.5,227.4 L 297.2,207.1" style="fill:none;fill-rule:evenodd;stroke:#000000;stroke-width:2.0px;stroke-linecap:butt;stroke-linejoin:miter;stroke-opacity:1"/>
<path class="bond-35 atom-35 atom-36" d="M 302.3,207.5 L 327.6,209.3" style="fill:none;fill-rule:evenodd;stroke:#000000;stroke-width:2.0px;stroke-linecap:butt;stroke-linejoin:miter;stroke-opacity:1"/>
<path class="bond-36 atom-35 atom-37" d="M 302.3,207.5 L 289.4,180.9" style="fill:none;fill-rule:evenodd;stroke:#000000;stroke-width:2.0px;stroke-linecap:butt;stroke-linejoin:miter;stroke-opacity:1"/>
<path class="bond-37 atom-37 atom-38" d="M 289.4,180.9 L 259.9,178.8" style="fill:none;fill-rule:evenodd;stroke:#000000;stroke-width:2.0px;stroke-linecap:butt;stroke-linejoin:miter;stroke-opacity:1"/>
<path class="bond-37 atom-37 atom-38" d="M 286.5,185.1 L 262.2,183.4" style="fill:none;fill-rule:evenodd;stroke:#000000;stroke-width:2.0px;stroke-linecap:butt;stroke-linejoin:miter;stroke-opacity:1"/>
<path class="bond-38 atom-16 atom-1" d="M 247.0,152.2 L 276.5,151.2" style="fill:none;fill-rule:evenodd;stroke:#000000;stroke-width:2.0px;stroke-linecap:butt;stroke-linejoin:miter;stroke-opacity:1"/>
<path class="bond-39 atom-29 atom-24" d="M 74.2,95.2 L 86.7,115.2" style="fill:none;fill-rule:evenodd;stroke:#000000;stroke-width:2.0px;stroke-linecap:butt;stroke-linejoin:miter;stroke-opacity:1"/>
<path class="bond-39 atom-29 atom-24" d="M 70.5,97.6 L 81.2,114.8" style="fill:none;fill-rule:evenodd;stroke:#000000;stroke-width:2.0px;stroke-linecap:butt;stroke-linejoin:miter;stroke-opacity:1"/>
<path class="bond-40 atom-38 atom-32" d="M 259.9,178.8 L 243.4,203.3" style="fill:none;fill-rule:evenodd;stroke:#000000;stroke-width:2.0px;stroke-linecap:butt;stroke-linejoin:miter;stroke-opacity:1"/>
<path class="bond-41 atom-13 atom-4" d="M 284.3,61.1 L 259.2,76.7" style="fill:none;fill-rule:evenodd;stroke:#000000;stroke-width:2.0px;stroke-linecap:butt;stroke-linejoin:miter;stroke-opacity:1"/>
<path class="bond-42 atom-38 atom-16" d="M 259.9,178.8 L 247.0,152.2" style="fill:none;fill-rule:evenodd;stroke:#000000;stroke-width:2.0px;stroke-linecap:butt;stroke-linejoin:miter;stroke-opacity:1"/>
<path class="bond-43 atom-13 atom-8" d="M 284.3,61.1 L 283.3,31.5" style="fill:none;fill-rule:evenodd;stroke:#000000;stroke-width:2.0px;stroke-linecap:butt;stroke-linejoin:miter;stroke-opacity:1"/>
<path d="M 277.0,149.8 L 276.5,151.2 L 275.1,151.3" style="fill:none;stroke:#000000;stroke-width:2.0px;stroke-linecap:butt;stroke-linejoin:miter;stroke-miterlimit:10;stroke-opacity:1;"/>
<path d="M 284.3,124.2 L 284.7,122.8 L 283.7,122.1" style="fill:none;stroke:#000000;stroke-width:2.0px;stroke-linecap:butt;stroke-linejoin:miter;stroke-miterlimit:10;stroke-opacity:1;"/>
<path d="M 234.5,63.5 L 233.2,62.8 L 233.1,61.6" style="fill:none;stroke:#000000;stroke-width:2.0px;stroke-linecap:butt;stroke-linejoin:miter;stroke-miterlimit:10;stroke-opacity:1;"/>
<path d="M 256.2,18.3 L 257.3,17.6 L 258.6,18.3" style="fill:none;stroke:#000000;stroke-width:2.0px;stroke-linecap:butt;stroke-linejoin:miter;stroke-miterlimit:10;stroke-opacity:1;"/>
<path d="M 307.2,16.7 L 308.4,15.9 L 309.7,16.6" style="fill:none;stroke:#000000;stroke-width:2.0px;stroke-linecap:butt;stroke-linejoin:miter;stroke-miterlimit:10;stroke-opacity:1;"/>
<path d="M 333.2,29.1 L 334.5,29.8 L 334.6,31.3" style="fill:none;stroke:#000000;stroke-width:2.0px;stroke-linecap:butt;stroke-linejoin:miter;stroke-miterlimit:10;stroke-opacity:1;"/>
<path d="M 335.5,57.9 L 335.5,59.4 L 334.2,60.1" style="fill:none;stroke:#000000;stroke-width:2.0px;stroke-linecap:butt;stroke-linejoin:miter;stroke-miterlimit:10;stroke-opacity:1;"/>
<path d="M 311.7,74.2 L 310.4,75.0 L 309.1,74.3" style="fill:none;stroke:#000000;stroke-width:2.0px;stroke-linecap:butt;stroke-linejoin:miter;stroke-miterlimit:10;stroke-opacity:1;"/>
<path d="M 237.9,123.7 L 236.9,124.4 L 237.4,125.8" style="fill:none;stroke:#000000;stroke-width:2.0px;stroke-linecap:butt;stroke-linejoin:miter;stroke-miterlimit:10;stroke-opacity:1;"/>
<path d="M 172.7,172.6 L 171.5,172.5 L 170.8,171.2" style="fill:none;stroke:#000000;stroke-width:2.0px;stroke-linecap:butt;stroke-linejoin:miter;stroke-miterlimit:10;stroke-opacity:1;"/>
<path d="M 159.2,147.3 L 158.5,145.9 L 157.3,145.8" style="fill:none;stroke:#000000;stroke-width:2.0px;stroke-linecap:butt;stroke-linejoin:miter;stroke-miterlimit:10;stroke-opacity:1;"/>
<path d="M 116.7,118.3 L 116.1,117.3 L 114.7,117.1" style="fill:none;stroke:#000000;stroke-width:2.0px;stroke-linecap:butt;stroke-linejoin:miter;stroke-miterlimit:10;stroke-opacity:1;"/>
<path d="M 68.6,136.6 L 67.6,137.8 L 66.3,137.2" style="fill:none;stroke:#000000;stroke-width:2.0px;stroke-linecap:butt;stroke-linejoin:miter;stroke-miterlimit:10;stroke-opacity:1;"/>
<path d="M 41.6,127.2 L 40.2,126.7 L 40.3,125.5" style="fill:none;stroke:#000000;stroke-width:2.0px;stroke-linecap:butt;stroke-linejoin:miter;stroke-miterlimit:10;stroke-opacity:1;"/>
<path d="M 213.4,200.1 L 213.9,201.2 L 215.4,201.3" style="fill:none;stroke:#000000;stroke-width:2.0px;stroke-linecap:butt;stroke-linejoin:miter;stroke-miterlimit:10;stroke-opacity:1;"/>
<path d="M 255.7,228.5 L 256.3,229.9 L 257.8,230.0" style="fill:none;stroke:#000000;stroke-width:2.0px;stroke-linecap:butt;stroke-linejoin:miter;stroke-miterlimit:10;stroke-opacity:1;"/>
<path d="M 284.3,231.9 L 285.8,232.0 L 286.6,230.7" style="fill:none;stroke:#000000;stroke-width:2.0px;stroke-linecap:butt;stroke-linejoin:miter;stroke-miterlimit:10;stroke-opacity:1;"/>
<path d="M 290.1,182.2 L 289.4,180.9 L 287.9,180.8" style="fill:none;stroke:#000000;stroke-width:2.0px;stroke-linecap:butt;stroke-linejoin:miter;stroke-miterlimit:10;stroke-opacity:1;"/>
<path class="atom-3" d="M 258.4 102.1 L 261.1 106.5 Q 261.4 106.9, 261.8 107.7 Q 262.3 108.5, 262.3 108.6 L 262.3 102.1 L 263.4 102.1 L 263.4 110.4 L 262.3 110.4 L 259.3 105.6 Q 259.0 105.0, 258.6 104.4 Q 258.3 103.7, 258.2 103.5 L 258.2 110.4 L 257.1 110.4 L 257.1 102.1 L 258.4 102.1 " fill="#000000"/>
<path class="atom-6" d="M 230.3 29.1 L 233.1 33.5 Q 233.3 34.0, 233.8 34.7 Q 234.2 35.5, 234.2 35.6 L 234.2 29.1 L 235.3 29.1 L 235.3 37.5 L 234.2 37.5 L 231.2 32.6 Q 230.9 32.0, 230.5 31.4 Q 230.2 30.7, 230.1 30.5 L 230.1 37.5 L 229.0 37.5 L 229.0 29.1 L 230.3 29.1 " fill="#000000"/>
<path class="atom-15" d="M 204.7 116.3 Q 204.7 114.3, 205.7 113.1 Q 206.7 112.0, 208.5 112.0 Q 210.4 112.0, 211.4 113.1 Q 212.4 114.3, 212.4 116.3 Q 212.4 118.3, 211.4 119.5 Q 210.4 120.6, 208.5 120.6 Q 206.7 120.6, 205.7 119.5 Q 204.7 118.3, 204.7 116.3 M 208.5 119.7 Q 209.8 119.7, 210.5 118.8 Q 211.2 118.0, 211.2 116.3 Q 211.2 114.6, 210.5 113.8 Q 209.8 113.0, 208.5 113.0 Q 207.2 113.0, 206.5 113.8 Q 205.9 114.6, 205.9 116.3 Q 205.9 118.0, 206.5 118.8 Q 207.2 119.7, 208.5 119.7 " fill="#000000"/>
<path class="atom-18" d="M 199.1 170.4 L 201.9 174.9 Q 202.1 175.3, 202.6 176.1 Q 203.0 176.9, 203.0 176.9 L 203.0 170.4 L 204.1 170.4 L 204.1 178.8 L 203.0 178.8 L 200.0 173.9 Q 199.7 173.4, 199.3 172.7 Q 199.0 172.1, 198.9 171.9 L 198.9 178.8 L 197.8 178.8 L 197.8 170.4 L 199.1 170.4 " fill="#000000"/>
<path class="atom-21" d="M 171.3 121.5 Q 171.3 119.5, 172.3 118.3 Q 173.3 117.2, 175.1 117.2 Q 177.0 117.2, 178.0 118.3 Q 178.9 119.5, 178.9 121.5 Q 178.9 123.5, 177.9 124.7 Q 176.9 125.8, 175.1 125.8 Q 173.3 125.8, 172.3 124.7 Q 171.3 123.5, 171.3 121.5 M 175.1 124.9 Q 176.4 124.9, 177.1 124.0 Q 177.8 123.1, 177.8 121.5 Q 177.8 119.8, 177.1 119.0 Q 176.4 118.2, 175.1 118.2 Q 173.8 118.2, 173.1 119.0 Q 172.4 119.8, 172.4 121.5 Q 172.4 123.2, 173.1 124.0 Q 173.8 124.9, 175.1 124.9 " fill="#000000"/>
<path class="atom-22" d="M 117.7 139.6 L 118.8 139.6 L 118.8 143.2 L 123.1 143.2 L 123.1 139.6 L 124.2 139.6 L 124.2 148.0 L 123.1 148.0 L 123.1 144.2 L 118.8 144.2 L 118.8 148.0 L 117.7 148.0 L 117.7 139.6 " fill="#000000"/>
<path class="atom-22" d="M 127.2 139.6 L 130.0 144.1 Q 130.2 144.5, 130.7 145.3 Q 131.1 146.1, 131.1 146.2 L 131.1 139.6 L 132.2 139.6 L 132.2 148.0 L 131.1 148.0 L 128.1 143.2 Q 127.8 142.6, 127.4 142.0 Q 127.1 141.3, 127.0 141.1 L 127.0 148.0 L 125.9 148.0 L 125.9 139.6 L 127.2 139.6 " fill="#000000"/>
<path class="atom-27" d="M 40.5 93.0 L 43.2 97.4 Q 43.5 97.9, 43.9 98.7 Q 44.4 99.5, 44.4 99.5 L 44.4 93.0 L 45.5 93.0 L 45.5 101.4 L 44.4 101.4 L 41.4 96.5 Q 41.1 96.0, 40.7 95.3 Q 40.3 94.7, 40.2 94.5 L 40.2 101.4 L 39.2 101.4 L 39.2 93.0 L 40.5 93.0 " fill="#000000"/>
<path class="atom-29" d="M 69.2 85.9 L 71.9 90.3 Q 72.2 90.8, 72.6 91.5 Q 73.1 92.3, 73.1 92.4 L 73.1 85.9 L 74.2 85.9 L 74.2 94.3 L 73.0 94.3 L 70.1 89.4 Q 69.8 88.8, 69.4 88.2 Q 69.0 87.5, 68.9 87.3 L 68.9 94.3 L 67.8 94.3 L 67.8 85.9 L 69.2 85.9 " fill="#000000"/>
<path class="atom-31" d="M 193.5 225.7 Q 193.5 223.7, 194.5 222.6 Q 195.5 221.4, 197.3 221.4 Q 199.2 221.4, 200.2 222.6 Q 201.2 223.7, 201.2 225.7 Q 201.2 227.7, 200.2 228.9 Q 199.2 230.0, 197.3 230.0 Q 195.5 230.0, 194.5 228.9 Q 193.5 227.8, 193.5 225.7 M 197.3 229.1 Q 198.6 229.1, 199.3 228.2 Q 200.0 227.4, 200.0 225.7 Q 200.0 224.1, 199.3 223.2 Q 198.6 222.4, 197.3 222.4 Q 196.1 222.4, 195.4 223.2 Q 194.7 224.0, 194.7 225.7 Q 194.7 227.4, 195.4 228.2 Q 196.1 229.1, 197.3 229.1 " fill="#000000"/>
<path class="atom-36" d="M 328.6 209.9 Q 328.6 207.8, 329.6 206.7 Q 330.5 205.6, 332.4 205.6 Q 334.1 205.6, 335.1 206.8 L 334.3 207.5 Q 333.6 206.6, 332.4 206.6 Q 331.1 206.6, 330.5 207.4 Q 329.8 208.3, 329.8 209.9 Q 329.8 211.5, 330.5 212.4 Q 331.2 213.2, 332.5 213.2 Q 333.5 213.2, 334.5 212.7 L 334.9 213.6 Q 334.4 213.8, 333.8 214.0 Q 333.1 214.2, 332.4 214.2 Q 330.5 214.2, 329.6 213.1 Q 328.6 212.0, 328.6 209.9 " fill="#000000"/>
<path class="atom-36" d="M 335.9 205.1 L 337.0 205.1 L 337.0 214.1 L 335.9 214.1 L 335.9 205.1 " fill="#000000"/>
<path class="legend" d="M 50.1 247.3 Q 51.8 247.3, 52.7 248.4 Q 53.7 249.4, 53.7 251.4 Q 53.7 253.5, 52.6 254.7 Q 51.4 255.8, 49.5 255.8 Q 48.6 255.8, 47.8 255.6 L 47.8 259.6 L 46.3 259.6 L 46.3 247.5 L 47.5 247.5 L 47.7 248.4 Q 48.1 247.9, 48.7 247.6 Q 49.3 247.3, 50.1 247.3 M 49.5 254.6 Q 50.7 254.6, 51.4 253.8 Q 52.2 252.9, 52.2 251.4 Q 52.2 250.0, 51.6 249.3 Q 51.0 248.5, 50.0 248.5 Q 49.2 248.5, 48.6 248.9 Q 48.0 249.4, 47.8 250.1 L 47.8 254.4 Q 48.6 254.6, 49.5 254.6 " fill="#000000"/>
<path class="legend" d="M 56.1 247.5 L 56.3 248.6 Q 57.1 247.3, 58.5 247.3 Q 59.0 247.3, 59.6 247.5 L 59.4 248.8 Q 58.7 248.7, 58.3 248.7 Q 57.6 248.7, 57.2 248.9 Q 56.7 249.2, 56.4 249.8 L 56.4 255.7 L 54.9 255.7 L 54.9 247.5 L 56.1 247.5 " fill="#000000"/>
<path class="legend" d="M 60.3 251.6 Q 60.3 249.5, 61.3 248.4 Q 62.3 247.3, 64.1 247.3 Q 66.0 247.3, 66.8 248.4 Q 67.6 249.5, 67.6 251.5 L 67.6 251.8 L 61.8 251.8 Q 61.9 253.2, 62.5 253.9 Q 63.1 254.6, 64.3 254.6 Q 64.9 254.6, 65.5 254.5 Q 66.1 254.3, 66.8 254.0 L 67.3 255.0 Q 66.4 255.4, 65.7 255.6 Q 65.0 255.8, 64.2 255.8 Q 62.3 255.8, 61.3 254.7 Q 60.3 253.6, 60.3 251.6 M 64.1 248.5 Q 63.2 248.5, 62.6 249.0 Q 62.1 249.6, 61.9 250.6 L 66.0 250.6 Q 65.9 249.5, 65.4 249.0 Q 65.0 248.5, 64.1 248.5 " fill="#000000"/>
<path class="legend" d="M 76.1 243.5 L 76.1 255.7 L 74.9 255.7 L 74.7 254.7 Q 73.8 255.8, 72.2 255.8 Q 70.5 255.8, 69.6 254.8 Q 68.6 253.7, 68.6 251.7 Q 68.6 249.6, 69.8 248.5 Q 70.9 247.3, 72.9 247.3 Q 73.7 247.3, 74.6 247.5 L 74.6 243.5 L 76.1 243.5 M 72.3 254.6 Q 73.2 254.6, 73.8 254.2 Q 74.4 253.7, 74.6 252.9 L 74.6 248.7 Q 73.8 248.5, 72.9 248.5 Q 71.6 248.5, 70.9 249.3 Q 70.2 250.2, 70.2 251.7 Q 70.2 253.1, 70.7 253.9 Q 71.3 254.6, 72.3 254.6 " fill="#000000"/>
<path class="legend" d="M 77.8 254.1 L 79.4 254.1 L 79.4 255.7 L 77.8 255.7 L 77.8 254.1 " fill="#000000"/>
<path class="legend" d="" fill="#000000"/>
<path class="legend" d="M 90.5 247.3 Q 92.3 247.3, 93.2 248.4 Q 94.2 249.4, 94.2 251.4 Q 94.2 253.5, 93.0 254.7 Q 91.9 255.8, 89.9 255.8 Q 89.0 255.8, 88.2 255.6 L 88.2 259.6 L 86.7 259.6 L 86.7 247.5 L 87.9 247.5 L 88.1 248.4 Q 88.6 247.9, 89.2 247.6 Q 89.8 247.3, 90.5 247.3 M 89.9 254.6 Q 91.2 254.6, 91.9 253.8 Q 92.6 252.9, 92.6 251.4 Q 92.6 250.0, 92.0 249.3 Q 91.5 248.5, 90.4 248.5 Q 89.6 248.5, 89.0 248.9 Q 88.5 249.4, 88.2 250.1 L 88.2 254.4 Q 89.0 254.6, 89.9 254.6 " fill="#000000"/>
<path class="legend" d="M 95.3 244.3 L 96.9 244.3 L 96.9 255.7 L 95.3 255.7 L 95.3 244.3 " fill="#000000"/>
<path class="legend" d="M 105.4 252.4 Q 105.4 253.5, 104.7 254.3 Q 104.1 255.0, 102.9 255.2 L 102.9 257.0 L 101.6 257.0 L 101.6 255.3 Q 100.4 255.2, 98.9 254.6 L 98.7 254.5 L 99.2 253.2 L 99.5 253.4 Q 100.1 253.6, 100.6 253.8 Q 101.2 253.9, 101.8 253.9 Q 102.8 253.9, 103.3 253.5 Q 103.8 253.1, 103.8 252.4 Q 103.8 251.9, 103.6 251.6 Q 103.3 251.3, 102.9 251.1 Q 102.5 250.9, 101.8 250.7 Q 100.8 250.5, 100.3 250.2 Q 99.7 250.0, 99.3 249.4 Q 99.0 248.9, 99.0 248.0 Q 99.0 246.9, 99.6 246.1 Q 100.3 245.4, 101.6 245.2 L 101.6 243.3 L 102.9 243.3 L 102.9 245.1 Q 104.0 245.2, 105.1 245.7 L 104.7 247.0 Q 103.5 246.5, 102.5 246.5 Q 101.6 246.5, 101.1 246.8 Q 100.6 247.2, 100.6 247.8 Q 100.6 248.3, 100.8 248.6 Q 101.1 248.9, 101.5 249.0 Q 101.9 249.2, 102.6 249.4 Q 103.5 249.7, 104.0 250.0 Q 104.6 250.2, 105.0 250.8 Q 105.4 251.4, 105.4 252.4 " fill="#000000"/>
<path class="legend" d="M 115.1 256.5 L 115.1 257.8 L 107.0 257.8 L 107.0 256.5 L 115.1 256.5 " fill="#000000"/>
<path class="legend" d="M 119.7 248.6 Q 120.7 248.6, 121.5 249.0 Q 122.3 249.4, 122.8 250.2 Q 123.3 251.0, 123.3 252.1 Q 123.3 253.3, 122.7 254.1 Q 122.1 254.9, 121.2 255.4 Q 120.3 255.8, 119.2 255.8 Q 118.2 255.8, 117.2 255.4 Q 116.2 255.0, 115.6 254.3 L 116.5 253.3 Q 117.1 253.9, 117.8 254.2 Q 118.5 254.5, 119.3 254.5 Q 120.3 254.5, 120.9 253.9 Q 121.7 253.3, 121.7 252.1 Q 121.7 250.9, 120.9 250.4 Q 120.3 249.8, 119.2 249.8 Q 118.2 249.8, 117.1 250.2 L 116.2 249.8 L 116.7 244.4 L 122.5 244.4 L 122.4 245.6 L 118.0 245.6 L 117.7 249.0 Q 118.7 248.6, 119.7 248.6 " fill="#000000"/>
<path class="legend" d="M 131.2 252.4 Q 131.2 253.5, 130.5 254.3 Q 129.8 255.0, 128.7 255.2 L 128.7 257.0 L 127.3 257.0 L 127.3 255.3 Q 126.1 255.2, 124.7 254.6 L 124.5 254.5 L 124.9 253.2 L 125.2 253.4 Q 125.8 253.6, 126.4 253.8 Q 126.9 253.9, 127.6 253.9 Q 128.5 253.9, 129.0 253.5 Q 129.6 253.1, 129.6 252.4 Q 129.6 251.9, 129.3 251.6 Q 129.0 251.3, 128.6 251.1 Q 128.2 250.9, 127.5 250.7 Q 126.6 250.5, 126.0 250.2 Q 125.5 250.0, 125.1 249.4 Q 124.7 248.9, 124.7 248.0 Q 124.7 246.9, 125.4 246.1 Q 126.0 245.4, 127.3 245.2 L 127.3 243.3 L 128.7 243.3 L 128.7 245.1 Q 129.8 245.2, 130.9 245.7 L 130.5 247.0 Q 129.3 246.5, 128.3 246.5 Q 127.3 246.5, 126.8 246.8 Q 126.3 247.2, 126.3 247.8 Q 126.3 248.3, 126.6 248.6 Q 126.9 248.9, 127.2 249.0 Q 127.6 249.2, 128.3 249.4 Q 129.2 249.7, 129.8 250.0 Q 130.4 250.2, 130.8 250.8 Q 131.2 251.4, 131.2 252.4 " fill="#000000"/>
<path class="legend" d="M 132.7 253.8 L 134.3 253.8 L 134.3 255.4 L 132.7 255.4 L 132.7 253.8 M 132.7 248.3 L 134.3 248.3 L 134.3 249.9 L 132.7 249.9 L 132.7 248.3 " fill="#000000"/>
<path class="legend" d="" fill="#000000"/>
<path class="legend" d="M 146.2 248.6 Q 147.2 248.6, 148.0 249.0 Q 148.8 249.5, 149.2 250.3 Q 149.6 251.0, 149.6 252.0 Q 149.6 253.1, 149.1 254.0 Q 148.7 254.8, 147.8 255.3 Q 146.9 255.8, 145.8 255.8 Q 143.8 255.8, 142.8 254.4 Q 141.8 253.1, 141.8 250.4 Q 141.8 247.3, 143.0 245.8 Q 144.3 244.2, 146.7 244.2 Q 147.4 244.2, 148.0 244.4 Q 148.6 244.5, 149.2 244.9 L 148.6 246.0 Q 147.7 245.5, 146.7 245.5 Q 145.1 245.5, 144.3 246.5 Q 143.5 247.6, 143.4 249.7 Q 144.0 249.2, 144.7 248.9 Q 145.4 248.6, 146.2 248.6 M 145.8 254.5 Q 146.4 254.5, 146.9 254.2 Q 147.5 253.9, 147.7 253.3 Q 148.0 252.7, 148.0 252.0 Q 148.0 251.0, 147.5 250.5 Q 146.9 249.9, 145.9 249.9 Q 145.2 249.9, 144.5 250.2 Q 143.9 250.4, 143.4 250.9 Q 143.5 252.8, 144.0 253.6 Q 144.6 254.5, 145.8 254.5 " fill="#000000"/>
<path class="legend" d="M 151.0 254.1 L 152.6 254.1 L 152.6 255.7 L 151.0 255.7 L 151.0 254.1 " fill="#000000"/>
<path class="legend" d="M 159.8 249.7 Q 160.9 250.1, 161.5 250.8 Q 162.1 251.5, 162.1 252.6 Q 162.1 253.5, 161.6 254.3 Q 161.1 255.0, 160.2 255.4 Q 159.3 255.8, 158.1 255.8 Q 156.2 255.8, 155.1 255.0 Q 154.1 254.1, 154.1 252.6 Q 154.1 251.6, 154.5 251.0 Q 155.0 250.3, 156.0 249.7 Q 155.3 249.3, 154.9 248.7 Q 154.5 248.1, 154.5 247.1 Q 154.5 245.8, 155.4 245.0 Q 156.4 244.2, 158.1 244.2 Q 159.7 244.2, 160.7 245.0 Q 161.6 245.8, 161.6 247.1 Q 161.6 248.0, 161.2 248.6 Q 160.7 249.2, 159.8 249.7 M 158.1 245.4 Q 157.1 245.4, 156.6 245.9 Q 156.1 246.3, 156.1 247.1 Q 156.1 247.7, 156.4 248.1 Q 156.8 248.5, 157.3 248.7 Q 157.8 248.9, 158.8 249.3 Q 159.5 248.8, 159.7 248.3 Q 160.0 247.8, 160.0 247.1 Q 160.0 246.3, 159.5 245.9 Q 159.0 245.4, 158.1 245.4 M 158.1 254.6 Q 159.2 254.6, 159.8 254.1 Q 160.5 253.5, 160.5 252.6 Q 160.5 252.0, 160.1 251.6 Q 159.8 251.2, 159.3 251.0 Q 158.8 250.7, 157.9 250.4 L 157.2 250.2 Q 156.4 250.7, 156.0 251.3 Q 155.7 251.8, 155.7 252.6 Q 155.7 253.5, 156.3 254.1 Q 157.0 254.6, 158.1 254.6 " fill="#000000"/>
<path class="legend" d="M 163.6 246.5 Q 164.0 245.4, 165.0 244.8 Q 166.0 244.2, 167.3 244.2 Q 169.0 244.2, 170.0 245.2 Q 171.0 246.1, 171.0 247.7 Q 171.0 249.4, 169.7 251.0 Q 168.5 252.5, 165.9 254.4 L 171.2 254.4 L 171.2 255.7 L 163.5 255.7 L 163.5 254.6 Q 165.6 253.1, 166.9 252.0 Q 168.1 250.9, 168.8 249.9 Q 169.4 248.8, 169.4 247.8 Q 169.4 246.7, 168.8 246.1 Q 168.3 245.5, 167.3 245.5 Q 166.4 245.5, 165.8 245.9 Q 165.2 246.2, 164.8 247.1 L 163.6 246.5 " fill="#000000"/>
<path class="legend" d="" fill="#000000"/>
<path class="legend" d="" fill="#000000"/>
<path class="legend" d="" fill="#000000"/>
<path class="legend" d="" fill="#000000"/>
<path class="legend" d="" fill="#000000"/>
<path class="legend" d="M 201.5 251.6 Q 201.5 249.5, 202.5 248.4 Q 203.5 247.3, 205.4 247.3 Q 207.2 247.3, 208.0 248.4 Q 208.8 249.5, 208.8 251.5 L 208.8 251.8 L 203.0 251.8 Q 203.1 253.2, 203.7 253.9 Q 204.3 254.6, 205.5 254.6 Q 206.1 254.6, 206.7 254.5 Q 207.3 254.3, 208.0 254.0 L 208.5 255.0 Q 207.6 255.4, 206.9 255.6 Q 206.2 255.8, 205.4 255.8 Q 203.5 255.8, 202.5 254.7 Q 201.5 253.6, 201.5 251.6 M 205.4 248.5 Q 204.4 248.5, 203.8 249.0 Q 203.3 249.6, 203.1 250.6 L 207.2 250.6 Q 207.1 249.5, 206.6 249.0 Q 206.2 248.5, 205.4 248.5 " fill="#000000"/>
<path class="legend" d="M 212.8 251.4 L 210.0 247.5 L 211.8 247.5 L 213.8 250.3 L 215.7 247.5 L 217.4 247.5 L 214.6 251.4 L 217.6 255.7 L 215.8 255.7 L 213.6 252.6 L 211.5 255.7 L 209.8 255.7 L 212.8 251.4 " fill="#000000"/>
<path class="legend" d="M 222.0 247.3 Q 223.7 247.3, 224.7 248.4 Q 225.6 249.4, 225.6 251.4 Q 225.6 253.5, 224.5 254.7 Q 223.4 255.8, 221.4 255.8 Q 220.5 255.8, 219.7 255.6 L 219.7 259.6 L 218.2 259.6 L 218.2 247.5 L 219.4 247.5 L 219.6 248.4 Q 220.0 247.9, 220.6 247.6 Q 221.3 247.3, 222.0 247.3 M 221.4 254.6 Q 222.7 254.6, 223.4 253.8 Q 224.1 252.9, 224.1 251.4 Q 224.1 250.0, 223.5 249.3 Q 223.0 248.5, 221.9 248.5 Q 221.1 248.5, 220.5 248.9 Q 219.9 249.4, 219.7 250.1 L 219.7 254.4 Q 220.5 254.6, 221.4 254.6 " fill="#000000"/>
<path class="legend" d="M 226.8 254.1 L 228.4 254.1 L 228.4 255.7 L 226.8 255.7 L 226.8 254.1 " fill="#000000"/>
<path class="legend" d="" fill="#000000"/>
<path class="legend" d="M 239.5 247.3 Q 241.2 247.3, 242.2 248.4 Q 243.1 249.4, 243.1 251.4 Q 243.1 253.5, 242.0 254.7 Q 240.9 255.8, 238.9 255.8 Q 238.0 255.8, 237.2 255.6 L 237.2 259.6 L 235.7 259.6 L 235.7 247.5 L 236.9 247.5 L 237.1 248.4 Q 237.5 247.9, 238.1 247.6 Q 238.8 247.3, 239.5 247.3 M 238.9 254.6 Q 240.2 254.6, 240.9 253.8 Q 241.6 252.9, 241.6 251.4 Q 241.6 250.0, 241.0 249.3 Q 240.5 248.5, 239.4 248.5 Q 238.6 248.5, 238.0 248.9 Q 237.4 249.4, 237.2 250.1 L 237.2 254.4 Q 238.0 254.6, 238.9 254.6 " fill="#000000"/>
<path class="legend" d="M 244.3 244.3 L 245.8 244.3 L 245.8 255.7 L 244.3 255.7 L 244.3 244.3 " fill="#000000"/>
<path class="legend" d="M 247.7 250.0 Q 247.7 247.2, 249.0 245.7 Q 250.3 244.2, 252.8 244.2 Q 255.2 244.2, 256.4 245.9 L 255.4 246.7 Q 254.5 245.5, 252.8 245.5 Q 251.1 245.5, 250.2 246.7 Q 249.3 247.8, 249.3 250.0 Q 249.3 252.2, 250.2 253.4 Q 251.2 254.5, 253.0 254.5 Q 254.3 254.5, 255.7 253.8 L 256.2 255.0 Q 255.6 255.4, 254.7 255.6 Q 253.8 255.8, 252.8 255.8 Q 250.3 255.8, 249.0 254.3 Q 247.7 252.8, 247.7 250.0 " fill="#000000"/>
<path class="legend" d="M 261.6 248.6 Q 262.6 248.6, 263.4 249.0 Q 264.3 249.4, 264.7 250.2 Q 265.2 251.0, 265.2 252.1 Q 265.2 253.3, 264.6 254.1 Q 264.0 254.9, 263.1 255.4 Q 262.2 255.8, 261.1 255.8 Q 260.1 255.8, 259.1 255.4 Q 258.2 255.0, 257.5 254.3 L 258.5 253.3 Q 259.0 253.9, 259.7 254.2 Q 260.4 254.5, 261.2 254.5 Q 262.2 254.5, 262.9 253.9 Q 263.6 253.3, 263.6 252.1 Q 263.6 250.9, 262.9 250.4 Q 262.2 249.8, 261.1 249.8 Q 260.1 249.8, 259.0 250.2 L 258.1 249.8 L 258.7 244.4 L 264.5 244.4 L 264.3 245.6 L 260.0 245.6 L 259.6 249.0 Q 260.6 248.6, 261.6 248.6 " fill="#000000"/>
<path class="legend" d="M 270.5 255.8 Q 268.5 255.8, 267.4 254.3 Q 266.4 252.7, 266.4 250.0 Q 266.4 247.3, 267.4 245.7 Q 268.5 244.2, 270.5 244.2 Q 272.6 244.2, 273.7 245.7 Q 274.7 247.3, 274.7 250.0 Q 274.7 252.7, 273.7 254.3 Q 272.6 255.8, 270.5 255.8 M 270.5 254.5 Q 271.8 254.5, 272.4 253.4 Q 273.1 252.2, 273.1 250.0 Q 273.1 247.8, 272.4 246.6 Q 271.8 245.5, 270.5 245.5 Q 269.3 245.5, 268.7 246.6 Q 268.0 247.8, 268.0 250.0 Q 268.0 252.2, 268.7 253.4 Q 269.3 254.5, 270.5 254.5 " fill="#000000"/>
<path class="legend" d="M 276.2 253.8 L 277.8 253.8 L 277.8 255.4 L 276.2 255.4 L 276.2 253.8 M 276.2 248.3 L 277.8 248.3 L 277.8 249.9 L 276.2 249.9 L 276.2 248.3 " fill="#000000"/>
<path class="legend" d="" fill="#000000"/>
<path class="legend" d="M 289.7 248.6 Q 290.6 248.6, 291.4 249.0 Q 292.2 249.5, 292.6 250.3 Q 293.1 251.0, 293.1 252.0 Q 293.1 253.1, 292.6 254.0 Q 292.1 254.8, 291.2 255.3 Q 290.4 255.8, 289.3 255.8 Q 287.3 255.8, 286.2 254.4 Q 285.2 253.1, 285.2 250.4 Q 285.2 247.3, 286.5 245.8 Q 287.7 244.2, 290.2 244.2 Q 290.9 244.2, 291.4 244.4 Q 292.1 244.5, 292.6 244.9 L 292.0 246.0 Q 291.2 245.5, 290.2 245.5 Q 288.6 245.5, 287.8 246.5 Q 286.9 247.6, 286.8 249.7 Q 287.4 249.2, 288.1 248.9 Q 288.9 248.6, 289.7 248.6 M 289.3 254.5 Q 289.9 254.5, 290.4 254.2 Q 290.9 253.9, 291.2 253.3 Q 291.5 252.7, 291.5 252.0 Q 291.5 251.0, 290.9 250.5 Q 290.4 249.9, 289.4 249.9 Q 288.7 249.9, 288.0 250.2 Q 287.3 250.4, 286.8 250.9 Q 286.9 252.8, 287.5 253.6 Q 288.1 254.5, 289.3 254.5 " fill="#000000"/>
<path class="legend" d="M 294.4 254.1 L 296.0 254.1 L 296.0 255.7 L 294.4 255.7 L 294.4 254.1 " fill="#000000"/>
<path class="legend" d="M 301.3 244.2 Q 303.3 244.2, 304.3 245.6 Q 305.4 247.0, 305.4 249.7 Q 305.4 252.7, 304.1 254.3 Q 302.9 255.8, 300.4 255.8 Q 299.7 255.8, 299.1 255.6 Q 298.5 255.5, 298.0 255.2 L 298.6 254.1 Q 299.4 254.5, 300.4 254.5 Q 302.0 254.5, 302.8 253.5 Q 303.7 252.5, 303.7 250.3 Q 303.2 250.9, 302.4 251.2 Q 301.7 251.4, 300.9 251.4 Q 299.9 251.4, 299.2 251.0 Q 298.4 250.6, 297.9 249.8 Q 297.5 249.0, 297.5 248.0 Q 297.5 246.9, 298.0 246.0 Q 298.5 245.2, 299.3 244.7 Q 300.2 244.2, 301.3 244.2 M 299.1 248.0 Q 299.1 249.0, 299.7 249.6 Q 300.2 250.1, 301.2 250.1 Q 301.9 250.1, 302.6 249.9 Q 303.3 249.6, 303.7 249.1 Q 303.7 247.2, 303.1 246.4 Q 302.5 245.5, 301.3 245.5 Q 300.7 245.5, 300.2 245.9 Q 299.7 246.2, 299.4 246.7 Q 299.1 247.3, 299.1 248.0 " fill="#000000"/>
<path class="legend" d="M 307.5 254.4 L 310.0 254.4 L 310.0 245.9 L 307.3 246.8 L 306.9 245.8 L 310.4 244.3 L 311.5 244.5 L 311.5 254.4 L 313.7 254.4 L 313.7 255.7 L 307.5 255.7 L 307.5 254.4 " fill="#000000"/>
</svg>