<svg xmlns="http://www.w3.org/2000/svg" xmlns:rdkit="http://www.rdkit.org/xml" xmlns:xlink="http://www.w3.org/1999/xlink" version="1.1" baseProfile="full" xml:space="preserve" width="335px" height="283px" viewBox="0 0 335 283">
<!-- END OF HEADER -->
<rect style="opacity:1.0;fill:#FFFFFF;stroke:none" width="335.0" height="283.0" x="0.0" y="0.0"> </rect>
<ellipse cx="17.0" cy="156.4" rx="0.2" ry="0.2" class="atom-0" style="fill:#7F7FFF;fill-rule:evenodd;stroke:#7F7FFF;stroke-width:1.0px;stroke-linecap:butt;stroke-linejoin:miter;stroke-opacity:1"/>
<ellipse cx="45.3" cy="165.0" rx="0.2" ry="0.2" class="atom-1" style="fill:#7F7FFF;fill-rule:evenodd;stroke:#7F7FFF;stroke-width:1.0px;stroke-linecap:butt;stroke-linejoin:miter;stroke-opacity:1"/>
<ellipse cx="66.9" cy="144.8" rx="0.3" ry="0.3" class="atom-2" style="fill:#7F7FFF;fill-rule:evenodd;stroke:#7F7FFF;stroke-width:1.0px;stroke-linecap:butt;stroke-linejoin:miter;stroke-opacity:1"/>
<ellipse cx="60.2" cy="116.0" rx="0.3" ry="0.3" class="atom-3" style="fill:#7F7FFF;fill-rule:evenodd;stroke:#7F7FFF;stroke-width:1.0px;stroke-linecap:butt;stroke-linejoin:miter;stroke-opacity:1"/>
<ellipse cx="95.2" cy="153.4" rx="0.3" ry="0.3" class="atom-4" style="fill:#7F7FFF;fill-rule:evenodd;stroke:#7F7FFF;stroke-width:1.0px;stroke-linecap:butt;stroke-linejoin:miter;stroke-opacity:1"/>
<ellipse cx="116.8" cy="133.1" rx="9.3" ry="9.3" class="atom-5" style="fill:#7F7FFF;fill-rule:evenodd;stroke:#7F7FFF;stroke-width:1.0px;stroke-linecap:butt;stroke-linejoin:miter;stroke-opacity:1"/>
<ellipse cx="145.1" cy="141.7" rx="9.3" ry="9.3" class="atom-6" style="fill:#7F7FFF;fill-rule:evenodd;stroke:#7F7FFF;stroke-width:1.0px;stroke-linecap:butt;stroke-linejoin:miter;stroke-opacity:1"/>
<ellipse cx="166.7" cy="121.5" rx="9.3" ry="9.3" class="atom-7" style="fill:#7F7FFF;fill-rule:evenodd;stroke:#7F7FFF;stroke-width:1.0px;stroke-linecap:butt;stroke-linejoin:miter;stroke-opacity:1"/>
<ellipse cx="190.3" cy="103.7" rx="9.3" ry="9.3" class="atom-8" style="fill:#7F7FFF;fill-rule:evenodd;stroke:#7F7FFF;stroke-width:1.0px;stroke-linecap:butt;stroke-linejoin:miter;stroke-opacity:1"/>
<ellipse cx="195.6" cy="80.3" rx="9.3" ry="9.3" class="atom-9" style="fill:#7F7FFF;fill-rule:evenodd;stroke:#7F7FFF;stroke-width:1.0px;stroke-linecap:butt;stroke-linejoin:miter;stroke-opacity:1"/>
<ellipse cx="214.5" cy="120.6" rx="9.3" ry="9.3" class="atom-10" style="fill:#7F7FFF;fill-rule:evenodd;stroke:#7F7FFF;stroke-width:1.0px;stroke-linecap:butt;stroke-linejoin:miter;stroke-opacity:1"/>
<ellipse cx="242.5" cy="110.9" rx="2.5" ry="2.5" class="atom-11" style="fill:#FF7F7F;fill-rule:evenodd;stroke:#FF7F7F;stroke-width:1.0px;stroke-linecap:butt;stroke-linejoin:miter;stroke-opacity:1"/>
<ellipse cx="248.0" cy="81.8" rx="2.5" ry="2.5" class="atom-12" style="fill:#FF7F7F;fill-rule:evenodd;stroke:#FF7F7F;stroke-width:1.0px;stroke-linecap:butt;stroke-linejoin:miter;stroke-opacity:1"/>
<ellipse cx="276.0" cy="72.2" rx="2.5" ry="2.5" class="atom-13" style="fill:#FF7F7F;fill-rule:evenodd;stroke:#FF7F7F;stroke-width:1.0px;stroke-linecap:butt;stroke-linejoin:miter;stroke-opacity:1"/>
<ellipse cx="298.3" cy="91.5" rx="2.5" ry="2.5" class="atom-14" style="fill:#FF7F7F;fill-rule:evenodd;stroke:#FF7F7F;stroke-width:1.0px;stroke-linecap:butt;stroke-linejoin:miter;stroke-opacity:1"/>
<ellipse cx="292.8" cy="120.5" rx="2.5" ry="2.5" class="atom-15" style="fill:#FF7F7F;fill-rule:evenodd;stroke:#FF7F7F;stroke-width:1.0px;stroke-linecap:butt;stroke-linejoin:miter;stroke-opacity:1"/>
<ellipse cx="315.1" cy="139.9" rx="2.5" ry="2.5" class="atom-16" style="fill:#FF7F7F;fill-rule:evenodd;stroke:#FF7F7F;stroke-width:1.0px;stroke-linecap:butt;stroke-linejoin:miter;stroke-opacity:1"/>
<ellipse cx="309.5" cy="168.9" rx="2.5" ry="2.5" class="atom-17" style="fill:#FF7F7F;fill-rule:evenodd;stroke:#FF7F7F;stroke-width:1.0px;stroke-linecap:butt;stroke-linejoin:miter;stroke-opacity:1"/>
<ellipse cx="281.6" cy="178.6" rx="2.5" ry="2.5" class="atom-18" style="fill:#FF7F7F;fill-rule:evenodd;stroke:#FF7F7F;stroke-width:1.0px;stroke-linecap:butt;stroke-linejoin:miter;stroke-opacity:1"/>
<ellipse cx="259.2" cy="159.3" rx="2.5" ry="2.5" class="atom-19" style="fill:#FF7F7F;fill-rule:evenodd;stroke:#FF7F7F;stroke-width:1.0px;stroke-linecap:butt;stroke-linejoin:miter;stroke-opacity:1"/>
<ellipse cx="264.8" cy="130.2" rx="2.5" ry="2.5" class="atom-20" style="fill:#FF7F7F;fill-rule:evenodd;stroke:#FF7F7F;stroke-width:1.0px;stroke-linecap:butt;stroke-linejoin:miter;stroke-opacity:1"/>
<ellipse cx="205.9" cy="148.9" rx="9.3" ry="9.3" class="atom-21" style="fill:#7F7FFF;fill-rule:evenodd;stroke:#7F7FFF;stroke-width:1.0px;stroke-linecap:butt;stroke-linejoin:miter;stroke-opacity:1"/>
<ellipse cx="176.4" cy="149.4" rx="9.3" ry="9.3" class="atom-22" style="fill:#7F7FFF;fill-rule:evenodd;stroke:#7F7FFF;stroke-width:1.0px;stroke-linecap:butt;stroke-linejoin:miter;stroke-opacity:1"/>
<ellipse cx="159.5" cy="173.7" rx="0.0" ry="0.0" class="atom-23" style="fill:#FF7F7F;fill-rule:evenodd;stroke:#FF7F7F;stroke-width:1.0px;stroke-linecap:butt;stroke-linejoin:miter;stroke-opacity:1"/>
<ellipse cx="172.0" cy="200.5" rx="1.2" ry="1.2" class="atom-24" style="fill:#FF7F7F;fill-rule:evenodd;stroke:#FF7F7F;stroke-width:1.0px;stroke-linecap:butt;stroke-linejoin:miter;stroke-opacity:1"/>
<ellipse cx="201.1" cy="206.1" rx="1.2" ry="1.2" class="atom-25" style="fill:#FF7F7F;fill-rule:evenodd;stroke:#FF7F7F;stroke-width:1.0px;stroke-linecap:butt;stroke-linejoin:miter;stroke-opacity:1"/>
<ellipse cx="204.7" cy="235.4" rx="1.2" ry="1.2" class="atom-26" style="fill:#FF7F7F;fill-rule:evenodd;stroke:#FF7F7F;stroke-width:1.0px;stroke-linecap:butt;stroke-linejoin:miter;stroke-opacity:1"/>
<ellipse cx="178.0" cy="248.0" rx="1.2" ry="1.2" class="atom-27" style="fill:#FF7F7F;fill-rule:evenodd;stroke:#FF7F7F;stroke-width:1.0px;stroke-linecap:butt;stroke-linejoin:miter;stroke-opacity:1"/>
<ellipse cx="157.7" cy="226.4" rx="1.2" ry="1.2" class="atom-28" style="fill:#FF7F7F;fill-rule:evenodd;stroke:#FF7F7F;stroke-width:1.0px;stroke-linecap:butt;stroke-linejoin:miter;stroke-opacity:1"/>
<ellipse cx="160.0" cy="92.7" rx="9.3" ry="9.3" class="atom-29" style="fill:#7F7FFF;fill-rule:evenodd;stroke:#7F7FFF;stroke-width:1.0px;stroke-linecap:butt;stroke-linejoin:miter;stroke-opacity:1"/>
<ellipse cx="181.6" cy="72.5" rx="9.3" ry="9.3" class="atom-30" style="fill:#7F7FFF;fill-rule:evenodd;stroke:#7F7FFF;stroke-width:1.0px;stroke-linecap:butt;stroke-linejoin:miter;stroke-opacity:1"/>
<ellipse cx="174.8" cy="43.7" rx="9.3" ry="9.3" class="atom-31" style="fill:#7F7FFF;fill-rule:evenodd;stroke:#7F7FFF;stroke-width:1.0px;stroke-linecap:butt;stroke-linejoin:miter;stroke-opacity:1"/>
<ellipse cx="196.4" cy="23.5" rx="9.3" ry="9.3" class="atom-32" style="fill:#7F7FFF;fill-rule:evenodd;stroke:#7F7FFF;stroke-width:1.0px;stroke-linecap:butt;stroke-linejoin:miter;stroke-opacity:1"/>
<ellipse cx="146.5" cy="35.1" rx="9.3" ry="9.3" class="atom-33" style="fill:#7F7FFF;fill-rule:evenodd;stroke:#7F7FFF;stroke-width:1.0px;stroke-linecap:butt;stroke-linejoin:miter;stroke-opacity:1"/>
<ellipse cx="125.0" cy="55.3" rx="9.3" ry="9.3" class="atom-34" style="fill:#7F7FFF;fill-rule:evenodd;stroke:#7F7FFF;stroke-width:1.0px;stroke-linecap:butt;stroke-linejoin:miter;stroke-opacity:1"/>
<ellipse cx="131.7" cy="84.1" rx="9.3" ry="9.3" class="atom-35" style="fill:#7F7FFF;fill-rule:evenodd;stroke:#7F7FFF;stroke-width:1.0px;stroke-linecap:butt;stroke-linejoin:miter;stroke-opacity:1"/>
<ellipse cx="110.1" cy="104.3" rx="9.3" ry="9.3" class="atom-36" style="fill:#7F7FFF;fill-rule:evenodd;stroke:#7F7FFF;stroke-width:1.0px;stroke-linecap:butt;stroke-linejoin:miter;stroke-opacity:1"/>
<ellipse cx="81.8" cy="95.7" rx="9.3" ry="9.3" class="atom-37" style="fill:#7F7FFF;fill-rule:evenodd;stroke:#7F7FFF;stroke-width:1.0px;stroke-linecap:butt;stroke-linejoin:miter;stroke-opacity:1"/>
<path class="bond-0 atom-0 atom-1" d="M 17.0,156.4 L 41.2,163.7" style="fill:none;fill-rule:evenodd;stroke:#000000;stroke-width:2.0px;stroke-linecap:butt;stroke-linejoin:miter;stroke-opacity:1"/>
<path class="bond-1 atom-1 atom-2" d="M 49.5,161.1 L 66.9,144.8" style="fill:none;fill-rule:evenodd;stroke:#000000;stroke-width:2.0px;stroke-linecap:butt;stroke-linejoin:miter;stroke-opacity:1"/>
<path class="bond-2 atom-2 atom-3" d="M 69.4,145.5 L 63.6,120.8" style="fill:none;fill-rule:evenodd;stroke:#000000;stroke-width:2.0px;stroke-linecap:butt;stroke-linejoin:miter;stroke-opacity:1"/>
<path class="bond-2 atom-2 atom-3" d="M 65.1,146.5 L 59.3,121.8" style="fill:none;fill-rule:evenodd;stroke:#000000;stroke-width:2.0px;stroke-linecap:butt;stroke-linejoin:miter;stroke-opacity:1"/>
<path class="bond-3 atom-2 atom-4" d="M 66.9,144.8 L 95.2,153.4" style="fill:none;fill-rule:evenodd;stroke:#000000;stroke-width:2.0px;stroke-linecap:butt;stroke-linejoin:miter;stroke-opacity:1"/>
<path class="bond-4 atom-4 atom-5" d="M 95.2,153.4 L 112.7,137.0" style="fill:none;fill-rule:evenodd;stroke:#000000;stroke-width:2.0px;stroke-linecap:butt;stroke-linejoin:miter;stroke-opacity:1"/>
<path class="bond-5 atom-5 atom-6" d="M 121.0,134.4 L 145.1,141.7" style="fill:none;fill-rule:evenodd;stroke:#000000;stroke-width:2.0px;stroke-linecap:butt;stroke-linejoin:miter;stroke-opacity:1"/>
<path class="bond-6 atom-7 atom-6" d="M 163.8,123.8 L 164.2,124.3" style="fill:none;fill-rule:evenodd;stroke:#000000;stroke-width:1.0px;stroke-linecap:butt;stroke-linejoin:miter;stroke-opacity:1"/>
<path class="bond-6 atom-7 atom-6" d="M 160.9,126.1 L 161.7,127.0" style="fill:none;fill-rule:evenodd;stroke:#000000;stroke-width:1.0px;stroke-linecap:butt;stroke-linejoin:miter;stroke-opacity:1"/>
<path class="bond-6 atom-7 atom-6" d="M 158.0,128.4 L 159.2,129.8" style="fill:none;fill-rule:evenodd;stroke:#000000;stroke-width:1.0px;stroke-linecap:butt;stroke-linejoin:miter;stroke-opacity:1"/>
<path class="bond-6 atom-7 atom-6" d="M 155.0,130.7 L 156.8,132.5" style="fill:none;fill-rule:evenodd;stroke:#000000;stroke-width:1.0px;stroke-linecap:butt;stroke-linejoin:miter;stroke-opacity:1"/>
<path class="bond-6 atom-7 atom-6" d="M 152.1,133.0 L 154.3,135.3" style="fill:none;fill-rule:evenodd;stroke:#000000;stroke-width:1.0px;stroke-linecap:butt;stroke-linejoin:miter;stroke-opacity:1"/>
<path class="bond-6 atom-7 atom-6" d="M 149.2,135.3 L 151.8,138.0" style="fill:none;fill-rule:evenodd;stroke:#000000;stroke-width:1.0px;stroke-linecap:butt;stroke-linejoin:miter;stroke-opacity:1"/>
<path class="bond-6 atom-7 atom-6" d="M 146.3,137.6 L 149.3,140.8" style="fill:none;fill-rule:evenodd;stroke:#000000;stroke-width:1.0px;stroke-linecap:butt;stroke-linejoin:miter;stroke-opacity:1"/>
<path class="bond-7 atom-7 atom-8" d="M 166.7,121.5 L 190.3,103.7" style="fill:none;fill-rule:evenodd;stroke:#000000;stroke-width:2.0px;stroke-linecap:butt;stroke-linejoin:miter;stroke-opacity:1"/>
<path class="bond-8 atom-8 atom-9" d="M 192.2,105.0 L 196.5,86.1" style="fill:none;fill-rule:evenodd;stroke:#000000;stroke-width:2.0px;stroke-linecap:butt;stroke-linejoin:miter;stroke-opacity:1"/>
<path class="bond-8 atom-8 atom-9" d="M 187.5,105.7 L 192.2,85.2" style="fill:none;fill-rule:evenodd;stroke:#000000;stroke-width:2.0px;stroke-linecap:butt;stroke-linejoin:miter;stroke-opacity:1"/>
<path class="bond-9 atom-8 atom-10" d="M 190.3,103.7 L 210.4,117.7" style="fill:none;fill-rule:evenodd;stroke:#000000;stroke-width:2.0px;stroke-linecap:butt;stroke-linejoin:miter;stroke-opacity:1"/>
<path class="bond-10 atom-10 atom-11" d="M 218.7,119.1 L 242.5,110.9" style="fill:none;fill-rule:evenodd;stroke:#000000;stroke-width:2.0px;stroke-linecap:butt;stroke-linejoin:miter;stroke-opacity:1"/>
<path class="bond-11 atom-11 atom-12" d="M 242.5,110.9 L 248.0,81.8" style="fill:none;fill-rule:evenodd;stroke:#000000;stroke-width:2.0px;stroke-linecap:butt;stroke-linejoin:miter;stroke-opacity:1"/>
<path class="bond-11 atom-11 atom-12" d="M 247.3,109.2 L 251.9,85.2" style="fill:none;fill-rule:evenodd;stroke:#000000;stroke-width:2.0px;stroke-linecap:butt;stroke-linejoin:miter;stroke-opacity:1"/>
<path class="bond-12 atom-12 atom-13" d="M 248.0,81.8 L 271.8,73.6" style="fill:none;fill-rule:evenodd;stroke:#000000;stroke-width:2.0px;stroke-linecap:butt;stroke-linejoin:miter;stroke-opacity:1"/>
<path class="bond-13 atom-13 atom-14" d="M 280.1,75.7 L 298.3,91.5" style="fill:none;fill-rule:evenodd;stroke:#000000;stroke-width:2.0px;stroke-linecap:butt;stroke-linejoin:miter;stroke-opacity:1"/>
<path class="bond-13 atom-13 atom-14" d="M 277.2,79.1 L 293.5,93.2" style="fill:none;fill-rule:evenodd;stroke:#000000;stroke-width:2.0px;stroke-linecap:butt;stroke-linejoin:miter;stroke-opacity:1"/>
<path class="bond-14 atom-14 atom-15" d="M 298.3,91.5 L 292.8,120.5" style="fill:none;fill-rule:evenodd;stroke:#000000;stroke-width:2.0px;stroke-linecap:butt;stroke-linejoin:miter;stroke-opacity:1"/>
<path class="bond-15 atom-15 atom-16" d="M 292.8,120.5 L 315.1,139.9" style="fill:none;fill-rule:evenodd;stroke:#000000;stroke-width:2.0px;stroke-linecap:butt;stroke-linejoin:miter;stroke-opacity:1"/>
<path class="bond-15 atom-15 atom-16" d="M 291.8,125.6 L 310.3,141.6" style="fill:none;fill-rule:evenodd;stroke:#000000;stroke-width:2.0px;stroke-linecap:butt;stroke-linejoin:miter;stroke-opacity:1"/>
<path class="bond-16 atom-16 atom-17" d="M 315.1,139.9 L 309.5,168.9" style="fill:none;fill-rule:evenodd;stroke:#000000;stroke-width:2.0px;stroke-linecap:butt;stroke-linejoin:miter;stroke-opacity:1"/>
<path class="bond-17 atom-17 atom-18" d="M 309.5,168.9 L 281.6,178.6" style="fill:none;fill-rule:evenodd;stroke:#000000;stroke-width:2.0px;stroke-linecap:butt;stroke-linejoin:miter;stroke-opacity:1"/>
<path class="bond-17 atom-17 atom-18" d="M 305.7,165.6 L 282.6,173.6" style="fill:none;fill-rule:evenodd;stroke:#000000;stroke-width:2.0px;stroke-linecap:butt;stroke-linejoin:miter;stroke-opacity:1"/>
<path class="bond-18 atom-18 atom-19" d="M 281.6,178.6 L 259.2,159.3" style="fill:none;fill-rule:evenodd;stroke:#000000;stroke-width:2.0px;stroke-linecap:butt;stroke-linejoin:miter;stroke-opacity:1"/>
<path class="bond-19 atom-19 atom-20" d="M 259.2,159.3 L 264.8,130.2" style="fill:none;fill-rule:evenodd;stroke:#000000;stroke-width:2.0px;stroke-linecap:butt;stroke-linejoin:miter;stroke-opacity:1"/>
<path class="bond-19 atom-19 atom-20" d="M 264.1,157.6 L 268.7,133.6" style="fill:none;fill-rule:evenodd;stroke:#000000;stroke-width:2.0px;stroke-linecap:butt;stroke-linejoin:miter;stroke-opacity:1"/>
<path class="bond-20 atom-10 atom-21" d="M 213.0,125.7 L 205.9,148.9" style="fill:none;fill-rule:evenodd;stroke:#000000;stroke-width:2.0px;stroke-linecap:butt;stroke-linejoin:miter;stroke-opacity:1"/>
<path class="bond-21 atom-21 atom-22" d="M 205.9,148.9 L 176.4,149.4" style="fill:none;fill-rule:evenodd;stroke:#000000;stroke-width:2.0px;stroke-linecap:butt;stroke-linejoin:miter;stroke-opacity:1"/>
<path class="bond-22 atom-22 atom-23" d="M 174.0,152.3 L 174.5,152.7" style="fill:none;fill-rule:evenodd;stroke:#000000;stroke-width:1.0px;stroke-linecap:butt;stroke-linejoin:miter;stroke-opacity:1"/>
<path class="bond-22 atom-22 atom-23" d="M 171.6,155.1 L 172.7,155.9" style="fill:none;fill-rule:evenodd;stroke:#000000;stroke-width:1.0px;stroke-linecap:butt;stroke-linejoin:miter;stroke-opacity:1"/>
<path class="bond-22 atom-22 atom-23" d="M 169.3,158.0 L 170.8,159.1" style="fill:none;fill-rule:evenodd;stroke:#000000;stroke-width:1.0px;stroke-linecap:butt;stroke-linejoin:miter;stroke-opacity:1"/>
<path class="bond-22 atom-22 atom-23" d="M 166.9,160.8 L 169.0,162.3" style="fill:none;fill-rule:evenodd;stroke:#000000;stroke-width:1.0px;stroke-linecap:butt;stroke-linejoin:miter;stroke-opacity:1"/>
<path class="bond-22 atom-22 atom-23" d="M 164.5,163.7 L 167.1,165.5" style="fill:none;fill-rule:evenodd;stroke:#000000;stroke-width:1.0px;stroke-linecap:butt;stroke-linejoin:miter;stroke-opacity:1"/>
<path class="bond-22 atom-22 atom-23" d="M 162.2,166.5 L 165.3,168.7" style="fill:none;fill-rule:evenodd;stroke:#000000;stroke-width:1.0px;stroke-linecap:butt;stroke-linejoin:miter;stroke-opacity:1"/>
<path class="bond-22 atom-22 atom-23" d="M 159.8,169.4 L 163.4,171.9" style="fill:none;fill-rule:evenodd;stroke:#000000;stroke-width:1.0px;stroke-linecap:butt;stroke-linejoin:miter;stroke-opacity:1"/>
<path class="bond-23 atom-23 atom-24" d="M 159.5,173.7 L 169.6,195.3" style="fill:none;fill-rule:evenodd;stroke:#000000;stroke-width:2.0px;stroke-linecap:butt;stroke-linejoin:miter;stroke-opacity:1"/>
<path class="bond-24 atom-24 atom-25" d="M 176.2,201.3 L 201.1,206.1" style="fill:none;fill-rule:evenodd;stroke:#000000;stroke-width:2.0px;stroke-linecap:butt;stroke-linejoin:miter;stroke-opacity:1"/>
<path class="bond-25 atom-25 atom-26" d="M 201.1,206.1 L 204.7,235.4" style="fill:none;fill-rule:evenodd;stroke:#000000;stroke-width:2.0px;stroke-linecap:butt;stroke-linejoin:miter;stroke-opacity:1"/>
<path class="bond-25 atom-25 atom-26" d="M 197.1,209.8 L 199.9,232.8" style="fill:none;fill-rule:evenodd;stroke:#000000;stroke-width:2.0px;stroke-linecap:butt;stroke-linejoin:miter;stroke-opacity:1"/>
<path class="bond-26 atom-26 atom-27" d="M 204.7,235.4 L 182.1,246.0" style="fill:none;fill-rule:evenodd;stroke:#000000;stroke-width:2.0px;stroke-linecap:butt;stroke-linejoin:miter;stroke-opacity:1"/>
<path class="bond-27 atom-27 atom-28" d="M 173.8,243.5 L 161.9,230.8" style="fill:none;fill-rule:evenodd;stroke:#000000;stroke-width:2.0px;stroke-linecap:butt;stroke-linejoin:miter;stroke-opacity:1"/>
<path class="bond-27 atom-27 atom-28" d="M 177.0,240.5 L 165.1,227.8" style="fill:none;fill-rule:evenodd;stroke:#000000;stroke-width:2.0px;stroke-linecap:butt;stroke-linejoin:miter;stroke-opacity:1"/>
<path class="bond-28 atom-7 atom-29" d="M 166.7,121.5 L 160.0,92.7" style="fill:none;fill-rule:evenodd;stroke:#000000;stroke-width:2.0px;stroke-linecap:butt;stroke-linejoin:miter;stroke-opacity:1"/>
<path class="bond-29 atom-29 atom-30" d="M 160.0,92.7 L 181.6,72.5" style="fill:none;fill-rule:evenodd;stroke:#000000;stroke-width:2.0px;stroke-linecap:butt;stroke-linejoin:miter;stroke-opacity:1"/>
<path class="bond-29 atom-29 atom-30" d="M 158.8,87.7 L 176.7,71.0" style="fill:none;fill-rule:evenodd;stroke:#000000;stroke-width:2.0px;stroke-linecap:butt;stroke-linejoin:miter;stroke-opacity:1"/>
<path class="bond-30 atom-30 atom-31" d="M 181.6,72.5 L 174.8,43.7" style="fill:none;fill-rule:evenodd;stroke:#000000;stroke-width:2.0px;stroke-linecap:butt;stroke-linejoin:miter;stroke-opacity:1"/>
<path class="bond-31 atom-31 atom-32" d="M 174.8,43.7 L 193.0,26.7" style="fill:none;fill-rule:evenodd;stroke:#000000;stroke-width:2.0px;stroke-linecap:butt;stroke-linejoin:miter;stroke-opacity:1"/>
<path class="bond-32 atom-31 atom-33" d="M 174.8,43.7 L 146.5,35.1" style="fill:none;fill-rule:evenodd;stroke:#000000;stroke-width:2.0px;stroke-linecap:butt;stroke-linejoin:miter;stroke-opacity:1"/>
<path class="bond-32 atom-31 atom-33" d="M 171.1,47.2 L 147.7,40.1" style="fill:none;fill-rule:evenodd;stroke:#000000;stroke-width:2.0px;stroke-linecap:butt;stroke-linejoin:miter;stroke-opacity:1"/>
<path class="bond-33 atom-33 atom-34" d="M 146.5,35.1 L 125.0,55.3" style="fill:none;fill-rule:evenodd;stroke:#000000;stroke-width:2.0px;stroke-linecap:butt;stroke-linejoin:miter;stroke-opacity:1"/>
<path class="bond-34 atom-34 atom-35" d="M 125.0,55.3 L 131.7,84.1" style="fill:none;fill-rule:evenodd;stroke:#000000;stroke-width:2.0px;stroke-linecap:butt;stroke-linejoin:miter;stroke-opacity:1"/>
<path class="bond-34 atom-34 atom-35" d="M 129.8,56.8 L 135.4,80.6" style="fill:none;fill-rule:evenodd;stroke:#000000;stroke-width:2.0px;stroke-linecap:butt;stroke-linejoin:miter;stroke-opacity:1"/>
<path class="bond-35 atom-35 atom-36" d="M 131.7,84.1 L 110.1,104.3" style="fill:none;fill-rule:evenodd;stroke:#000000;stroke-width:2.0px;stroke-linecap:butt;stroke-linejoin:miter;stroke-opacity:1"/>
<path class="bond-36 atom-36 atom-37" d="M 112.0,102.6 L 87.2,95.1" style="fill:none;fill-rule:evenodd;stroke:#000000;stroke-width:2.0px;stroke-linecap:butt;stroke-linejoin:miter;stroke-opacity:1"/>
<path class="bond-36 atom-36 atom-37" d="M 110.7,106.8 L 86.0,99.3" style="fill:none;fill-rule:evenodd;stroke:#000000;stroke-width:2.0px;stroke-linecap:butt;stroke-linejoin:miter;stroke-opacity:1"/>
<path class="bond-37 atom-36 atom-5" d="M 110.1,104.3 L 115.6,128.0" style="fill:none;fill-rule:evenodd;stroke:#000000;stroke-width:2.0px;stroke-linecap:butt;stroke-linejoin:miter;stroke-opacity:1"/>
<path class="bond-38 atom-22 atom-7" d="M 176.4,149.4 L 166.7,121.5" style="fill:none;fill-rule:evenodd;stroke:#000000;stroke-width:2.0px;stroke-linecap:butt;stroke-linejoin:miter;stroke-opacity:1"/>
<path class="bond-39 atom-28 atom-24" d="M 160.6,221.2 L 169.2,205.6" style="fill:none;fill-rule:evenodd;stroke:#000000;stroke-width:2.0px;stroke-linecap:butt;stroke-linejoin:miter;stroke-opacity:1"/>
<path class="bond-40 atom-35 atom-29" d="M 131.7,84.1 L 160.0,92.7" style="fill:none;fill-rule:evenodd;stroke:#000000;stroke-width:2.0px;stroke-linecap:butt;stroke-linejoin:miter;stroke-opacity:1"/>
<path class="bond-41 atom-20 atom-11" d="M 264.8,130.2 L 242.5,110.9" style="fill:none;fill-rule:evenodd;stroke:#000000;stroke-width:2.0px;stroke-linecap:butt;stroke-linejoin:miter;stroke-opacity:1"/>
<path class="bond-42 atom-20 atom-15" d="M 264.8,130.2 L 292.8,120.5" style="fill:none;fill-rule:evenodd;stroke:#000000;stroke-width:2.0px;stroke-linecap:butt;stroke-linejoin:miter;stroke-opacity:1"/>
<path d="M 66.0,145.6 L 66.9,144.8 L 68.3,145.2" style="fill:none;stroke:#000000;stroke-width:2.0px;stroke-linecap:butt;stroke-linejoin:miter;stroke-miterlimit:10;stroke-opacity:1;"/>
<path d="M 93.8,152.9 L 95.2,153.4 L 96.1,152.5" style="fill:none;stroke:#000000;stroke-width:2.0px;stroke-linecap:butt;stroke-linejoin:miter;stroke-miterlimit:10;stroke-opacity:1;"/>
<path d="M 189.1,104.6 L 190.3,103.7 L 191.3,104.4" style="fill:none;stroke:#000000;stroke-width:2.0px;stroke-linecap:butt;stroke-linejoin:miter;stroke-miterlimit:10;stroke-opacity:1;"/>
<path d="M 247.8,83.3 L 248.0,81.8 L 249.2,81.4" style="fill:none;stroke:#000000;stroke-width:2.0px;stroke-linecap:butt;stroke-linejoin:miter;stroke-miterlimit:10;stroke-opacity:1;"/>
<path d="M 297.4,90.7 L 298.3,91.5 L 298.1,93.0" style="fill:none;stroke:#000000;stroke-width:2.0px;stroke-linecap:butt;stroke-linejoin:miter;stroke-miterlimit:10;stroke-opacity:1;"/>
<path d="M 314.0,138.9 L 315.1,139.9 L 314.9,141.4" style="fill:none;stroke:#000000;stroke-width:2.0px;stroke-linecap:butt;stroke-linejoin:miter;stroke-miterlimit:10;stroke-opacity:1;"/>
<path d="M 309.8,167.5 L 309.5,168.9 L 308.2,169.4" style="fill:none;stroke:#000000;stroke-width:2.0px;stroke-linecap:butt;stroke-linejoin:miter;stroke-miterlimit:10;stroke-opacity:1;"/>
<path d="M 283.0,178.1 L 281.6,178.6 L 280.5,177.7" style="fill:none;stroke:#000000;stroke-width:2.0px;stroke-linecap:butt;stroke-linejoin:miter;stroke-miterlimit:10;stroke-opacity:1;"/>
<path d="M 260.4,160.2 L 259.2,159.3 L 259.5,157.8" style="fill:none;stroke:#000000;stroke-width:2.0px;stroke-linecap:butt;stroke-linejoin:miter;stroke-miterlimit:10;stroke-opacity:1;"/>
<path d="M 206.3,147.7 L 205.9,148.9 L 204.5,148.9" style="fill:none;stroke:#000000;stroke-width:2.0px;stroke-linecap:butt;stroke-linejoin:miter;stroke-miterlimit:10;stroke-opacity:1;"/>
<path d="M 177.9,149.4 L 176.4,149.4 L 175.9,148.0" style="fill:none;stroke:#000000;stroke-width:2.0px;stroke-linecap:butt;stroke-linejoin:miter;stroke-miterlimit:10;stroke-opacity:1;"/>
<path d="M 199.8,205.8 L 201.1,206.1 L 201.2,207.5" style="fill:none;stroke:#000000;stroke-width:2.0px;stroke-linecap:butt;stroke-linejoin:miter;stroke-miterlimit:10;stroke-opacity:1;"/>
<path d="M 204.5,233.9 L 204.7,235.4 L 203.6,235.9" style="fill:none;stroke:#000000;stroke-width:2.0px;stroke-linecap:butt;stroke-linejoin:miter;stroke-miterlimit:10;stroke-opacity:1;"/>
<path d="M 180.5,73.5 L 181.6,72.5 L 181.2,71.1" style="fill:none;stroke:#000000;stroke-width:2.0px;stroke-linecap:butt;stroke-linejoin:miter;stroke-miterlimit:10;stroke-opacity:1;"/>
<path d="M 148.0,35.5 L 146.5,35.1 L 145.5,36.1" style="fill:none;stroke:#000000;stroke-width:2.0px;stroke-linecap:butt;stroke-linejoin:miter;stroke-miterlimit:10;stroke-opacity:1;"/>
<path d="M 126.0,54.3 L 125.0,55.3 L 125.3,56.8" style="fill:none;stroke:#000000;stroke-width:2.0px;stroke-linecap:butt;stroke-linejoin:miter;stroke-miterlimit:10;stroke-opacity:1;"/>
<path d="M 111.2,103.3 L 110.1,104.3 L 110.4,105.5" style="fill:none;stroke:#000000;stroke-width:2.0px;stroke-linecap:butt;stroke-linejoin:miter;stroke-miterlimit:10;stroke-opacity:1;"/>
<path class="atom-1" d="M 43.5 160.8 L 46.2 165.2 Q 46.5 165.7, 46.9 166.5 Q 47.4 167.3, 47.4 167.3 L 47.4 160.8 L 48.5 160.8 L 48.5 169.2 L 47.4 169.2 L 44.4 164.3 Q 44.1 163.7, 43.7 163.1 Q 43.4 162.4, 43.2 162.2 L 43.2 169.2 L 42.2 169.2 L 42.2 160.8 L 43.5 160.8 " fill="#000000"/>
<path class="atom-1" d="M 42.1 170.0 L 43.2 170.0 L 43.2 173.6 L 47.5 173.6 L 47.5 170.0 L 48.6 170.0 L 48.6 178.4 L 47.5 178.4 L 47.5 174.5 L 43.2 174.5 L 43.2 178.4 L 42.1 178.4 L 42.1 170.0 " fill="#000000"/>
<path class="atom-3" d="M 56.4 116.0 Q 56.4 114.0, 57.4 112.9 Q 58.3 111.7, 60.2 111.7 Q 62.1 111.7, 63.1 112.9 Q 64.0 114.0, 64.0 116.0 Q 64.0 118.0, 63.0 119.2 Q 62.0 120.3, 60.2 120.3 Q 58.4 120.3, 57.4 119.2 Q 56.4 118.0, 56.4 116.0 M 60.2 119.4 Q 61.5 119.4, 62.2 118.5 Q 62.9 117.7, 62.9 116.0 Q 62.9 114.3, 62.2 113.5 Q 61.5 112.7, 60.2 112.7 Q 58.9 112.7, 58.2 113.5 Q 57.5 114.3, 57.5 116.0 Q 57.5 117.7, 58.2 118.5 Q 58.9 119.4, 60.2 119.4 " fill="#000000"/>
<path class="atom-5" d="M 115.0 128.9 L 117.7 133.4 Q 118.0 133.8, 118.4 134.6 Q 118.8 135.4, 118.9 135.5 L 118.9 128.9 L 120.0 128.9 L 120.0 137.3 L 118.8 137.3 L 115.9 132.5 Q 115.5 131.9, 115.2 131.3 Q 114.8 130.6, 114.7 130.4 L 114.7 137.3 L 113.6 137.3 L 113.6 128.9 L 115.0 128.9 " fill="#000000"/>
<path class="atom-9" d="M 191.8 80.3 Q 191.8 78.3, 192.8 77.2 Q 193.7 76.1, 195.6 76.1 Q 197.5 76.1, 198.5 77.2 Q 199.5 78.3, 199.5 80.3 Q 199.5 82.4, 198.4 83.5 Q 197.4 84.7, 195.6 84.7 Q 193.8 84.7, 192.8 83.5 Q 191.8 82.4, 191.8 80.3 M 195.6 83.7 Q 196.9 83.7, 197.6 82.9 Q 198.3 82.0, 198.3 80.3 Q 198.3 78.7, 197.6 77.9 Q 196.9 77.0, 195.6 77.0 Q 194.3 77.0, 193.6 77.8 Q 192.9 78.7, 192.9 80.3 Q 192.9 82.0, 193.6 82.9 Q 194.3 83.7, 195.6 83.7 " fill="#000000"/>
<path class="atom-10" d="M 212.7 116.4 L 215.4 120.8 Q 215.7 121.3, 216.1 122.0 Q 216.6 122.8, 216.6 122.9 L 216.6 116.4 L 217.7 116.4 L 217.7 124.8 L 216.6 124.8 L 213.6 119.9 Q 213.3 119.3, 212.9 118.7 Q 212.5 118.0, 212.4 117.8 L 212.4 124.8 L 211.4 124.8 L 211.4 116.4 L 212.7 116.4 " fill="#000000"/>
<path class="atom-13" d="M 274.1 68.0 L 276.9 72.4 Q 277.2 72.8, 277.6 73.6 Q 278.0 74.4, 278.1 74.5 L 278.1 68.0 L 279.2 68.0 L 279.2 76.3 L 278.0 76.3 L 275.1 71.5 Q 274.7 70.9, 274.4 70.3 Q 274.0 69.6, 273.9 69.4 L 273.9 76.3 L 272.8 76.3 L 272.8 68.0 L 274.1 68.0 " fill="#000000"/>
<path class="atom-24" d="M 170.2 196.3 L 172.9 200.7 Q 173.2 201.2, 173.6 202.0 Q 174.1 202.8, 174.1 202.8 L 174.1 196.3 L 175.2 196.3 L 175.2 204.7 L 174.0 204.7 L 171.1 199.8 Q 170.8 199.3, 170.4 198.6 Q 170.0 198.0, 169.9 197.7 L 169.9 204.7 L 168.8 204.7 L 168.8 196.3 L 170.2 196.3 " fill="#000000"/>
<path class="atom-27" d="M 176.1 243.8 L 178.8 248.2 Q 179.1 248.6, 179.6 249.4 Q 180.0 250.2, 180.0 250.3 L 180.0 243.8 L 181.1 243.8 L 181.1 252.1 L 180.0 252.1 L 177.0 247.3 Q 176.7 246.7, 176.3 246.1 Q 176.0 245.4, 175.9 245.2 L 175.9 252.1 L 174.8 252.1 L 174.8 243.8 L 176.1 243.8 " fill="#000000"/>
<path class="atom-28" d="M 155.9 222.2 L 158.6 226.6 Q 158.9 227.1, 159.3 227.9 Q 159.8 228.6, 159.8 228.7 L 159.8 222.2 L 160.9 222.2 L 160.9 230.6 L 159.8 230.6 L 156.8 225.7 Q 156.5 225.1, 156.1 224.5 Q 155.8 223.8, 155.7 223.6 L 155.7 230.6 L 154.6 230.6 L 154.6 222.2 L 155.9 222.2 " fill="#000000"/>
<path class="atom-32" d="M 193.9 19.3 L 198.9 19.3 L 198.9 20.2 L 195.1 20.2 L 195.1 22.8 L 198.5 22.8 L 198.5 23.8 L 195.1 23.8 L 195.1 27.7 L 193.9 27.7 L 193.9 19.3 " fill="#000000"/>
<path class="atom-37" d="M 77.9 95.8 Q 77.9 93.8, 78.9 92.6 Q 79.9 91.5, 81.8 91.5 Q 83.6 91.5, 84.6 92.6 Q 85.6 93.8, 85.6 95.8 Q 85.6 97.8, 84.6 99.0 Q 83.6 100.1, 81.8 100.1 Q 79.9 100.1, 78.9 99.0 Q 77.9 97.8, 77.9 95.8 M 81.8 99.2 Q 83.1 99.2, 83.8 98.3 Q 84.5 97.5, 84.5 95.8 Q 84.5 94.1, 83.8 93.3 Q 83.1 92.5, 81.8 92.5 Q 80.5 92.5, 79.8 93.3 Q 79.1 94.1, 79.1 95.8 Q 79.1 97.5, 79.8 98.3 Q 80.5 99.2, 81.8 99.2 " fill="#000000"/>
<path class="legend" d="M 36.8 257.9 Q 38.5 257.9, 39.4 258.9 Q 40.4 260.0, 40.4 262.0 Q 40.4 264.0, 39.3 265.2 Q 38.1 266.4, 36.2 266.4 Q 35.2 266.4, 34.5 266.1 L 34.5 270.1 L 33.0 270.1 L 33.0 258.0 L 34.2 258.0 L 34.4 259.0 Q 34.8 258.4, 35.4 258.1 Q 36.0 257.9, 36.8 257.9 M 36.2 265.2 Q 37.4 265.2, 38.1 264.3 Q 38.9 263.5, 38.9 262.0 Q 38.9 260.6, 38.3 259.8 Q 37.7 259.0, 36.7 259.0 Q 35.9 259.0, 35.3 259.5 Q 34.7 259.9, 34.5 260.7 L 34.5 264.9 Q 35.3 265.2, 36.2 265.2 " fill="#000000"/>
<path class="legend" d="M 42.8 258.0 L 43.0 259.1 Q 43.8 257.9, 45.2 257.9 Q 45.7 257.9, 46.3 258.0 L 46.1 259.4 Q 45.4 259.2, 45.0 259.2 Q 44.3 259.2, 43.9 259.5 Q 43.4 259.7, 43.1 260.4 L 43.1 266.2 L 41.6 266.2 L 41.6 258.0 L 42.8 258.0 " fill="#000000"/>
<path class="legend" d="M 47.0 262.1 Q 47.0 260.1, 48.0 259.0 Q 49.0 257.9, 50.8 257.9 Q 52.7 257.9, 53.5 258.9 Q 54.3 260.0, 54.3 262.1 L 54.3 262.3 L 48.5 262.3 Q 48.6 263.7, 49.2 264.4 Q 49.8 265.2, 51.0 265.2 Q 51.6 265.2, 52.2 265.0 Q 52.8 264.9, 53.5 264.5 L 53.9 265.6 Q 53.1 266.0, 52.4 266.2 Q 51.7 266.4, 50.9 266.4 Q 49.0 266.4, 48.0 265.2 Q 47.0 264.1, 47.0 262.1 M 50.8 259.0 Q 49.9 259.0, 49.3 259.6 Q 48.8 260.1, 48.6 261.2 L 52.7 261.2 Q 52.6 260.1, 52.1 259.6 Q 51.7 259.0, 50.8 259.0 " fill="#000000"/>
<path class="legend" d="M 62.8 254.1 L 62.8 266.2 L 61.6 266.2 L 61.4 265.2 Q 60.5 266.4, 58.9 266.4 Q 57.2 266.4, 56.3 265.3 Q 55.3 264.2, 55.3 262.2 Q 55.3 260.2, 56.5 259.0 Q 57.6 257.9, 59.6 257.9 Q 60.4 257.9, 61.3 258.1 L 61.3 254.1 L 62.8 254.1 M 59.0 265.2 Q 59.9 265.2, 60.5 264.7 Q 61.1 264.3, 61.3 263.4 L 61.3 259.3 Q 60.5 259.0, 59.6 259.0 Q 58.3 259.0, 57.6 259.9 Q 56.9 260.7, 56.9 262.2 Q 56.9 263.7, 57.4 264.4 Q 58.0 265.2, 59.0 265.2 " fill="#000000"/>
<path class="legend" d="M 64.5 264.6 L 66.1 264.6 L 66.1 266.2 L 64.5 266.2 L 64.5 264.6 " fill="#000000"/>
<path class="legend" d="" fill="#000000"/>
<path class="legend" d="M 77.2 257.9 Q 79.0 257.9, 79.9 258.9 Q 80.9 260.0, 80.9 262.0 Q 80.9 264.0, 79.7 265.2 Q 78.6 266.4, 76.6 266.4 Q 75.7 266.4, 74.9 266.1 L 74.9 270.1 L 73.4 270.1 L 73.4 258.0 L 74.6 258.0 L 74.8 259.0 Q 75.3 258.4, 75.9 258.1 Q 76.5 257.9, 77.2 257.9 M 76.6 265.2 Q 77.9 265.2, 78.6 264.3 Q 79.3 263.5, 79.3 262.0 Q 79.3 260.6, 78.8 259.8 Q 78.2 259.0, 77.2 259.0 Q 76.3 259.0, 75.7 259.5 Q 75.2 259.9, 74.9 260.7 L 74.9 264.9 Q 75.7 265.2, 76.6 265.2 " fill="#000000"/>
<path class="legend" d="M 82.0 254.9 L 83.6 254.9 L 83.6 266.2 L 82.0 266.2 L 82.0 254.9 " fill="#000000"/>
<path class="legend" d="M 92.1 262.9 Q 92.1 264.1, 91.5 264.8 Q 90.8 265.5, 89.6 265.7 L 89.6 267.6 L 88.3 267.6 L 88.3 265.8 Q 87.1 265.7, 85.6 265.2 L 85.4 265.1 L 85.9 263.8 L 86.2 263.9 Q 86.8 264.2, 87.3 264.3 Q 87.9 264.5, 88.5 264.5 Q 89.5 264.5, 90.0 264.1 Q 90.5 263.7, 90.5 262.9 Q 90.5 262.4, 90.3 262.1 Q 90.0 261.8, 89.6 261.7 Q 89.2 261.5, 88.5 261.3 Q 87.5 261.0, 87.0 260.8 Q 86.4 260.5, 86.0 260.0 Q 85.7 259.4, 85.7 258.5 Q 85.7 257.4, 86.3 256.7 Q 87.0 255.9, 88.3 255.7 L 88.3 253.8 L 89.6 253.8 L 89.6 255.7 Q 90.7 255.8, 91.8 256.2 L 91.4 257.5 Q 90.2 257.0, 89.2 257.0 Q 88.3 257.0, 87.8 257.4 Q 87.3 257.7, 87.3 258.3 Q 87.3 258.8, 87.5 259.1 Q 87.8 259.4, 88.2 259.6 Q 88.6 259.7, 89.3 260.0 Q 90.2 260.2, 90.7 260.5 Q 91.3 260.8, 91.7 261.4 Q 92.1 261.9, 92.1 262.9 " fill="#000000"/>
<path class="legend" d="M 101.8 267.0 L 101.8 268.3 L 93.7 268.3 L 93.7 267.0 L 101.8 267.0 " fill="#000000"/>
<path class="legend" d="M 106.4 259.1 Q 107.4 259.1, 108.2 259.6 Q 109.0 260.0, 109.5 260.8 Q 110.0 261.6, 110.0 262.6 Q 110.0 263.8, 109.4 264.7 Q 108.8 265.5, 107.9 265.9 Q 107.0 266.4, 105.9 266.4 Q 104.9 266.4, 103.9 266.0 Q 103.0 265.6, 102.3 264.9 L 103.3 263.9 Q 103.8 264.4, 104.5 264.8 Q 105.2 265.1, 106.0 265.1 Q 107.0 265.1, 107.7 264.4 Q 108.4 263.8, 108.4 262.7 Q 108.4 261.5, 107.7 260.9 Q 107.0 260.3, 105.9 260.3 Q 104.9 260.3, 103.8 260.8 L 102.9 260.4 L 103.4 254.9 L 109.3 254.9 L 109.1 256.2 L 104.7 256.2 L 104.4 259.5 Q 105.4 259.1, 106.4 259.1 " fill="#000000"/>
<path class="legend" d="M 117.9 262.9 Q 117.9 264.1, 117.2 264.8 Q 116.6 265.5, 115.4 265.7 L 115.4 267.6 L 114.1 267.6 L 114.1 265.8 Q 112.8 265.7, 111.4 265.2 L 111.2 265.1 L 111.7 263.8 L 112.0 263.9 Q 112.6 264.2, 113.1 264.3 Q 113.7 264.5, 114.3 264.5 Q 115.2 264.5, 115.8 264.1 Q 116.3 263.7, 116.3 262.9 Q 116.3 262.4, 116.0 262.1 Q 115.8 261.8, 115.3 261.7 Q 114.9 261.5, 114.2 261.3 Q 113.3 261.0, 112.8 260.8 Q 112.2 260.5, 111.8 260.0 Q 111.4 259.4, 111.4 258.5 Q 111.4 257.4, 112.1 256.7 Q 112.7 255.9, 114.1 255.7 L 114.1 253.8 L 115.4 253.8 L 115.4 255.7 Q 116.5 255.8, 117.6 256.2 L 117.2 257.5 Q 116.0 257.0, 115.0 257.0 Q 114.1 257.0, 113.5 257.4 Q 113.0 257.7, 113.0 258.3 Q 113.0 258.8, 113.3 259.1 Q 113.6 259.4, 114.0 259.6 Q 114.4 259.7, 115.0 260.0 Q 116.0 260.2, 116.5 260.5 Q 117.1 260.8, 117.5 261.4 Q 117.9 261.9, 117.9 262.9 " fill="#000000"/>
<path class="legend" d="M 119.4 264.4 L 121.0 264.4 L 121.0 266.0 L 119.4 266.0 L 119.4 264.4 M 119.4 258.9 L 121.0 258.9 L 121.0 260.5 L 119.4 260.5 L 119.4 258.9 " fill="#000000"/>
<path class="legend" d="" fill="#000000"/>
<path class="legend" d="M 132.9 259.2 Q 133.9 259.2, 134.7 259.6 Q 135.5 260.0, 135.9 260.8 Q 136.3 261.6, 136.3 262.6 Q 136.3 263.7, 135.9 264.5 Q 135.4 265.4, 134.5 265.9 Q 133.6 266.4, 132.5 266.4 Q 130.5 266.4, 129.5 265.0 Q 128.5 263.6, 128.5 260.9 Q 128.5 257.9, 129.7 256.3 Q 131.0 254.8, 133.4 254.8 Q 134.1 254.8, 134.7 254.9 Q 135.3 255.1, 135.9 255.4 L 135.3 256.5 Q 134.4 256.1, 133.4 256.1 Q 131.8 256.1, 131.0 257.1 Q 130.2 258.1, 130.1 260.2 Q 130.7 259.7, 131.4 259.4 Q 132.1 259.2, 132.9 259.2 M 132.6 265.0 Q 133.2 265.0, 133.7 264.7 Q 134.2 264.4, 134.5 263.8 Q 134.7 263.3, 134.7 262.6 Q 134.7 261.6, 134.2 261.0 Q 133.6 260.4, 132.6 260.4 Q 131.9 260.4, 131.3 260.7 Q 130.6 261.0, 130.1 261.5 Q 130.2 263.3, 130.8 264.2 Q 131.4 265.0, 132.6 265.0 " fill="#000000"/>
<path class="legend" d="M 137.7 264.6 L 139.3 264.6 L 139.3 266.2 L 137.7 266.2 L 137.7 264.6 " fill="#000000"/>
<path class="legend" d="M 146.7 256.2 L 140.8 256.2 L 140.8 254.9 L 148.3 254.9 L 148.3 256.0 L 143.7 266.2 L 142.2 266.2 L 146.7 256.2 " fill="#000000"/>
<path class="legend" d="M 153.4 266.4 Q 151.3 266.4, 150.2 264.8 Q 149.2 263.3, 149.2 260.5 Q 149.2 257.8, 150.2 256.3 Q 151.3 254.8, 153.4 254.8 Q 155.5 254.8, 156.5 256.3 Q 157.5 257.8, 157.5 260.5 Q 157.5 263.3, 156.5 264.8 Q 155.4 266.4, 153.4 266.4 M 153.4 265.1 Q 154.6 265.1, 155.3 263.9 Q 155.9 262.8, 155.9 260.5 Q 155.9 258.3, 155.3 257.2 Q 154.6 256.1, 153.4 256.1 Q 152.1 256.1, 151.5 257.2 Q 150.8 258.3, 150.8 260.5 Q 150.8 262.8, 151.5 263.9 Q 152.1 265.1, 153.4 265.1 " fill="#000000"/>
<path class="legend" d="" fill="#000000"/>
<path class="legend" d="" fill="#000000"/>
<path class="legend" d="" fill="#000000"/>
<path class="legend" d="" fill="#000000"/>
<path class="legend" d="" fill="#000000"/>
<path class="legend" d="M 187.9 262.1 Q 187.9 260.1, 189.0 259.0 Q 190.0 257.9, 191.8 257.9 Q 193.6 257.9, 194.4 258.9 Q 195.2 260.0, 195.2 262.1 L 195.2 262.3 L 189.5 262.3 Q 189.5 263.7, 190.1 264.4 Q 190.8 265.2, 191.9 265.2 Q 192.6 265.2, 193.2 265.0 Q 193.8 264.9, 194.5 264.5 L 194.9 265.6 Q 194.1 266.0, 193.4 266.2 Q 192.6 266.4, 191.8 266.4 Q 190.0 266.4, 189.0 265.2 Q 187.9 264.1, 187.9 262.1 M 191.8 259.0 Q 190.9 259.0, 190.3 259.6 Q 189.7 260.1, 189.5 261.2 L 193.6 261.2 Q 193.5 260.1, 193.1 259.6 Q 192.6 259.0, 191.8 259.0 " fill="#000000"/>
<path class="legend" d="M 199.3 262.0 L 196.5 258.0 L 198.2 258.0 L 200.2 260.8 L 202.2 258.0 L 203.8 258.0 L 201.0 262.0 L 204.0 266.2 L 202.3 266.2 L 200.1 263.1 L 197.9 266.2 L 196.3 266.2 L 199.3 262.0 " fill="#000000"/>
<path class="legend" d="M 208.5 257.9 Q 210.2 257.9, 211.1 258.9 Q 212.1 260.0, 212.1 262.0 Q 212.1 264.0, 211.0 265.2 Q 209.8 266.4, 207.9 266.4 Q 206.9 266.4, 206.2 266.1 L 206.2 270.1 L 204.6 270.1 L 204.6 258.0 L 205.9 258.0 L 206.1 259.0 Q 206.5 258.4, 207.1 258.1 Q 207.7 257.9, 208.5 257.9 M 207.8 265.2 Q 209.1 265.2, 209.8 264.3 Q 210.6 263.5, 210.6 262.0 Q 210.6 260.6, 210.0 259.8 Q 209.4 259.0, 208.4 259.0 Q 207.6 259.0, 207.0 259.5 Q 206.4 259.9, 206.2 260.7 L 206.2 264.9 Q 207.0 265.2, 207.8 265.2 " fill="#000000"/>
<path class="legend" d="M 213.3 264.6 L 214.9 264.6 L 214.9 266.2 L 213.3 266.2 L 213.3 264.6 " fill="#000000"/>
<path class="legend" d="" fill="#000000"/>
<path class="legend" d="M 226.0 257.9 Q 227.7 257.9, 228.6 258.9 Q 229.6 260.0, 229.6 262.0 Q 229.6 264.0, 228.4 265.2 Q 227.3 266.4, 225.4 266.4 Q 224.4 266.4, 223.6 266.1 L 223.6 270.1 L 222.1 270.1 L 222.1 258.0 L 223.4 258.0 L 223.6 259.0 Q 224.0 258.4, 224.6 258.1 Q 225.2 257.9, 226.0 257.9 M 225.3 265.2 Q 226.6 265.2, 227.3 264.3 Q 228.0 263.5, 228.0 262.0 Q 228.0 260.6, 227.5 259.8 Q 226.9 259.0, 225.9 259.0 Q 225.1 259.0, 224.5 259.5 Q 223.9 259.9, 223.6 260.7 L 223.6 264.9 Q 224.5 265.2, 225.3 265.2 " fill="#000000"/>
<path class="legend" d="M 230.8 254.9 L 232.3 254.9 L 232.3 266.2 L 230.8 266.2 L 230.8 254.9 " fill="#000000"/>
<path class="legend" d="M 234.1 260.5 Q 234.1 257.7, 235.5 256.3 Q 236.8 254.8, 239.3 254.8 Q 241.6 254.8, 242.9 256.4 L 241.8 257.3 Q 240.9 256.1, 239.3 256.1 Q 237.6 256.1, 236.7 257.2 Q 235.8 258.4, 235.8 260.5 Q 235.8 262.8, 236.7 263.9 Q 237.6 265.1, 239.5 265.1 Q 240.7 265.1, 242.2 264.3 L 242.6 265.5 Q 242.0 265.9, 241.1 266.1 Q 240.2 266.4, 239.2 266.4 Q 236.8 266.4, 235.5 264.9 Q 234.1 263.4, 234.1 260.5 " fill="#000000"/>
<path class="legend" d="M 248.1 259.1 Q 249.1 259.1, 249.9 259.6 Q 250.7 260.0, 251.2 260.8 Q 251.6 261.6, 251.6 262.6 Q 251.6 263.8, 251.1 264.7 Q 250.5 265.5, 249.6 265.9 Q 248.6 266.4, 247.6 266.4 Q 246.6 266.4, 245.6 266.0 Q 244.6 265.6, 244.0 264.9 L 244.9 263.9 Q 245.5 264.4, 246.2 264.8 Q 246.9 265.1, 247.6 265.1 Q 248.6 265.1, 249.3 264.4 Q 250.0 263.8, 250.0 262.7 Q 250.0 261.5, 249.3 260.9 Q 248.6 260.3, 247.5 260.3 Q 246.6 260.3, 245.4 260.8 L 244.6 260.4 L 245.1 254.9 L 250.9 254.9 L 250.8 256.2 L 246.4 256.2 L 246.1 259.5 Q 247.1 259.1, 248.1 259.1 " fill="#000000"/>
<path class="legend" d="M 257.0 266.4 Q 254.9 266.4, 253.9 264.8 Q 252.9 263.3, 252.9 260.5 Q 252.9 257.8, 253.9 256.3 Q 254.9 254.8, 257.0 254.8 Q 259.1 254.8, 260.1 256.3 Q 261.1 257.8, 261.1 260.5 Q 261.1 263.3, 260.1 264.8 Q 259.1 266.4, 257.0 266.4 M 257.0 265.1 Q 258.2 265.1, 258.9 263.9 Q 259.5 262.8, 259.5 260.5 Q 259.5 258.3, 258.9 257.2 Q 258.2 256.1, 257.0 256.1 Q 255.8 256.1, 255.1 257.2 Q 254.5 258.3, 254.5 260.5 Q 254.5 262.8, 255.1 263.9 Q 255.8 265.1, 257.0 265.1 " fill="#000000"/>
<path class="legend" d="M 262.6 264.4 L 264.2 264.4 L 264.2 266.0 L 262.6 266.0 L 262.6 264.4 M 262.6 258.9 L 264.2 258.9 L 264.2 260.5 L 262.6 260.5 L 262.6 258.9 " fill="#000000"/>
<path class="legend" d="" fill="#000000"/>
<path class="legend" d="M 276.1 259.2 Q 277.1 259.2, 277.9 259.6 Q 278.7 260.0, 279.1 260.8 Q 279.5 261.6, 279.5 262.6 Q 279.5 263.7, 279.0 264.5 Q 278.6 265.4, 277.7 265.9 Q 276.8 266.4, 275.7 266.4 Q 273.7 266.4, 272.7 265.0 Q 271.7 263.6, 271.7 260.9 Q 271.7 257.9, 272.9 256.3 Q 274.2 254.8, 276.6 254.8 Q 277.3 254.8, 277.9 254.9 Q 278.5 255.1, 279.1 255.4 L 278.5 256.5 Q 277.6 256.1, 276.6 256.1 Q 275.0 256.1, 274.2 257.1 Q 273.4 258.1, 273.3 260.2 Q 273.9 259.7, 274.6 259.4 Q 275.3 259.2, 276.1 259.2 M 275.8 265.0 Q 276.4 265.0, 276.9 264.7 Q 277.4 264.4, 277.7 263.8 Q 277.9 263.3, 277.9 262.6 Q 277.9 261.6, 277.4 261.0 Q 276.8 260.4, 275.8 260.4 Q 275.1 260.4, 274.5 260.7 Q 273.8 261.0, 273.3 261.5 Q 273.4 263.3, 274.0 264.2 Q 274.6 265.0, 275.8 265.0 " fill="#000000"/>
<path class="legend" d="M 280.9 264.6 L 282.5 264.6 L 282.5 266.2 L 280.9 266.2 L 280.9 264.6 " fill="#000000"/>
<path class="legend" d="M 284.0 257.0 Q 284.4 256.0, 285.4 255.4 Q 286.4 254.8, 287.8 254.8 Q 289.5 254.8, 290.5 255.7 Q 291.4 256.6, 291.4 258.3 Q 291.4 260.0, 290.2 261.5 Q 288.9 263.1, 286.4 264.9 L 291.6 264.9 L 291.6 266.2 L 284.0 266.2 L 284.0 265.2 Q 286.1 263.7, 287.3 262.5 Q 288.6 261.4, 289.2 260.4 Q 289.8 259.4, 289.8 258.4 Q 289.8 257.3, 289.3 256.7 Q 288.7 256.1, 287.8 256.1 Q 286.9 256.1, 286.3 256.4 Q 285.7 256.8, 285.2 257.6 L 284.0 257.0 " fill="#000000"/>
<path class="legend" d="M 299.0 256.2 L 293.0 256.2 L 293.0 254.9 L 300.5 254.9 L 300.5 256.0 L 296.0 266.2 L 294.4 266.2 L 299.0 256.2 " fill="#000000"/>
</svg>