<svg xmlns="http://www.w3.org/2000/svg" xmlns:rdkit="http://www.rdkit.org/xml" xmlns:xlink="http://www.w3.org/1999/xlink" version="1.1" baseProfile="full" xml:space="preserve" width="330px" height="182px" viewBox="0 0 330 182">
<!-- END OF HEADER -->
<rect style="opacity:1.0;fill:#FFFFFF;stroke:none" width="330.0" height="182.0" x="0.0" y="0.0"> </rect>
<path class="bond-0 atom-0 atom-1" d="M 24.3,101.8 L 52.9,109.1 L 50.8,117.1 L 22.3,109.8 Z" style="fill:#FEFEFF;fill-rule:evenodd;fill-opacity:1;stroke:#FEFEFF;stroke-width:2.0px;stroke-linecap:butt;stroke-linejoin:miter;stroke-miterlimit:10;stroke-opacity:1;"/>
<path class="bond-2 atom-2 atom-3" d="M 62.7,144.3 L 42.1,165.4 L 36.2,159.6 L 56.8,138.6 Z" style="fill:#FAFAFF;fill-rule:evenodd;fill-opacity:1;stroke:#FAFAFF;stroke-width:2.0px;stroke-linecap:butt;stroke-linejoin:miter;stroke-miterlimit:10;stroke-opacity:1;"/>
<path class="bond-3 atom-2 atom-4" d="M 60.8,137.5 L 89.4,144.8 L 87.3,152.8 L 58.8,145.5 Z" style="fill:#FAFAFF;fill-rule:evenodd;fill-opacity:1;stroke:#FAFAFF;stroke-width:2.0px;stroke-linecap:butt;stroke-linejoin:miter;stroke-miterlimit:10;stroke-opacity:1;"/>
<path class="bond-5 atom-5 atom-6" d="M 110.0,123.7 L 138.5,131.0 L 136.5,139.0 L 107.9,131.7 Z" style="fill:#7E7EFF;fill-rule:evenodd;fill-opacity:1;stroke:#7E7EFF;stroke-width:2.0px;stroke-linecap:butt;stroke-linejoin:miter;stroke-miterlimit:10;stroke-opacity:1;"/>
<path class="bond-6 atom-7 atom-6" d="M 161.1,116.8 L 140.5,137.9 L 134.6,132.1 L 155.2,111.0 Z" style="fill:#7E7EFF;fill-rule:evenodd;fill-opacity:1;stroke:#7E7EFF;stroke-width:2.0px;stroke-linecap:butt;stroke-linejoin:miter;stroke-miterlimit:10;stroke-opacity:1;"/>
<path class="bond-7 atom-7 atom-8" d="M 155.5,110.7 L 178.2,91.9 L 183.4,98.3 L 160.7,117.1 Z" style="fill:#7E7EFF;fill-rule:evenodd;fill-opacity:1;stroke:#7E7EFF;stroke-width:2.0px;stroke-linecap:butt;stroke-linejoin:miter;stroke-miterlimit:10;stroke-opacity:1;"/>
<path class="bond-8 atom-8 atom-9" d="M 176.7,94.4 L 181.0,70.9 L 189.1,72.4 L 184.9,95.8 Z" style="fill:#7E7EFF;fill-rule:evenodd;fill-opacity:1;stroke:#7E7EFF;stroke-width:2.0px;stroke-linecap:butt;stroke-linejoin:miter;stroke-miterlimit:10;stroke-opacity:1;"/>
<path class="bond-9 atom-8 atom-10" d="M 183.0,91.6 L 207.9,107.4 L 203.5,114.4 L 178.6,98.6 Z" style="fill:#7E7EFF;fill-rule:evenodd;fill-opacity:1;stroke:#7E7EFF;stroke-width:2.0px;stroke-linecap:butt;stroke-linejoin:miter;stroke-miterlimit:10;stroke-opacity:1;"/>
<path class="bond-11 atom-11 atom-12" d="M 229.0,99.4 L 233.3,70.2 L 241.5,71.4 L 237.2,100.6 Z" style="fill:#FFD6D6;fill-rule:evenodd;fill-opacity:1;stroke:#FFD6D6;stroke-width:2.0px;stroke-linecap:butt;stroke-linejoin:miter;stroke-miterlimit:10;stroke-opacity:1;"/>
<path class="bond-12 atom-12 atom-13" d="M 235.9,67.0 L 263.2,56.1 L 266.3,63.8 L 238.9,74.7 Z" style="fill:#FFD6D6;fill-rule:evenodd;fill-opacity:1;stroke:#FFD6D6;stroke-width:2.0px;stroke-linecap:butt;stroke-linejoin:miter;stroke-miterlimit:10;stroke-opacity:1;"/>
<path class="bond-13 atom-13 atom-14" d="M 267.3,56.7 L 290.4,75.0 L 285.3,81.5 L 262.2,63.2 Z" style="fill:#FFD6D6;fill-rule:evenodd;fill-opacity:1;stroke:#FFD6D6;stroke-width:2.0px;stroke-linecap:butt;stroke-linejoin:miter;stroke-miterlimit:10;stroke-opacity:1;"/>
<path class="bond-14 atom-14 atom-15" d="M 292.0,78.9 L 287.7,108.0 L 279.5,106.8 L 283.8,77.7 Z" style="fill:#FFD6D6;fill-rule:evenodd;fill-opacity:1;stroke:#FFD6D6;stroke-width:2.0px;stroke-linecap:butt;stroke-linejoin:miter;stroke-miterlimit:10;stroke-opacity:1;"/>
<path class="bond-15 atom-15 atom-16" d="M 286.2,104.2 L 309.3,122.5 L 304.2,128.9 L 281.0,110.7 Z" style="fill:#FFD6D6;fill-rule:evenodd;fill-opacity:1;stroke:#FFD6D6;stroke-width:2.0px;stroke-linecap:butt;stroke-linejoin:miter;stroke-miterlimit:10;stroke-opacity:1;"/>
<path class="bond-16 atom-16 atom-17" d="M 310.8,126.3 L 306.5,155.5 L 298.4,154.3 L 302.6,125.1 Z" style="fill:#FFD6D6;fill-rule:evenodd;fill-opacity:1;stroke:#FFD6D6;stroke-width:2.0px;stroke-linecap:butt;stroke-linejoin:miter;stroke-miterlimit:10;stroke-opacity:1;"/>
<path class="bond-17 atom-17 atom-18" d="M 304.0,158.7 L 276.6,169.6 L 273.5,161.9 L 300.9,151.0 Z" style="fill:#FFD6D6;fill-rule:evenodd;fill-opacity:1;stroke:#FFD6D6;stroke-width:2.0px;stroke-linecap:butt;stroke-linejoin:miter;stroke-miterlimit:10;stroke-opacity:1;"/>
<path class="bond-18 atom-18 atom-19" d="M 272.5,169.0 L 249.4,150.7 L 254.5,144.2 L 277.6,162.5 Z" style="fill:#FFD6D6;fill-rule:evenodd;fill-opacity:1;stroke:#FFD6D6;stroke-width:2.0px;stroke-linecap:butt;stroke-linejoin:miter;stroke-miterlimit:10;stroke-opacity:1;"/>
<path class="bond-19 atom-19 atom-20" d="M 247.8,146.9 L 252.1,117.7 L 260.3,118.9 L 256.0,148.0 Z" style="fill:#FFD6D6;fill-rule:evenodd;fill-opacity:1;stroke:#FFD6D6;stroke-width:2.0px;stroke-linecap:butt;stroke-linejoin:miter;stroke-miterlimit:10;stroke-opacity:1;"/>
<path class="bond-20 atom-10 atom-21" d="M 209.7,111.9 L 202.4,140.5 L 194.4,138.4 L 201.7,109.9 Z" style="fill:#7E7EFF;fill-rule:evenodd;fill-opacity:1;stroke:#7E7EFF;stroke-width:2.0px;stroke-linecap:butt;stroke-linejoin:miter;stroke-miterlimit:10;stroke-opacity:1;"/>
<path class="bond-21 atom-21 atom-22" d="M 198.7,143.5 L 169.2,145.4 L 168.7,137.2 L 198.1,135.3 Z" style="fill:#7E7EFF;fill-rule:evenodd;fill-opacity:1;stroke:#7E7EFF;stroke-width:2.0px;stroke-linecap:butt;stroke-linejoin:miter;stroke-miterlimit:10;stroke-opacity:1;"/>
<path class="bond-22 atom-22 atom-23" d="M 172.5,143.5 L 156.7,168.4 L 149.7,164.0 L 165.5,139.1 Z" style="fill:#7E7EFF;fill-rule:evenodd;fill-opacity:1;stroke:#7E7EFF;stroke-width:2.0px;stroke-linecap:butt;stroke-linejoin:miter;stroke-miterlimit:10;stroke-opacity:1;"/>
<path class="bond-23 atom-7 atom-24" d="M 154.1,115.0 L 146.2,86.6 L 154.1,84.4 L 162.1,112.8 Z" style="fill:#7E7EFF;fill-rule:evenodd;fill-opacity:1;stroke:#7E7EFF;stroke-width:2.0px;stroke-linecap:butt;stroke-linejoin:miter;stroke-miterlimit:10;stroke-opacity:1;"/>
<path class="bond-24 atom-24 atom-25" d="M 147.2,82.6 L 167.8,61.6 L 173.7,67.3 L 153.1,88.4 Z" style="fill:#7E7EFF;fill-rule:evenodd;fill-opacity:1;stroke:#7E7EFF;stroke-width:2.0px;stroke-linecap:butt;stroke-linejoin:miter;stroke-miterlimit:10;stroke-opacity:1;"/>
<path class="bond-25 atom-25 atom-26" d="M 166.8,65.6 L 158.8,37.2 L 166.8,35.0 L 174.7,63.3 Z" style="fill:#7E7EFF;fill-rule:evenodd;fill-opacity:1;stroke:#7E7EFF;stroke-width:2.0px;stroke-linecap:butt;stroke-linejoin:miter;stroke-miterlimit:10;stroke-opacity:1;"/>
<path class="bond-26 atom-26 atom-27" d="M 159.9,33.2 L 180.5,12.1 L 186.4,17.9 L 165.8,39.0 Z" style="fill:#7E7EFF;fill-rule:evenodd;fill-opacity:1;stroke:#7E7EFF;stroke-width:2.0px;stroke-linecap:butt;stroke-linejoin:miter;stroke-miterlimit:10;stroke-opacity:1;"/>
<path class="bond-27 atom-26 atom-28" d="M 161.8,40.1 L 133.2,32.8 L 135.3,24.8 L 163.8,32.1 Z" style="fill:#7E7EFF;fill-rule:evenodd;fill-opacity:1;stroke:#7E7EFF;stroke-width:2.0px;stroke-linecap:butt;stroke-linejoin:miter;stroke-miterlimit:10;stroke-opacity:1;"/>
<path class="bond-28 atom-28 atom-29" d="M 137.2,31.7 L 116.6,52.7 L 110.7,47.0 L 131.3,25.9 Z" style="fill:#7E7EFF;fill-rule:evenodd;fill-opacity:1;stroke:#7E7EFF;stroke-width:2.0px;stroke-linecap:butt;stroke-linejoin:miter;stroke-miterlimit:10;stroke-opacity:1;"/>
<path class="bond-29 atom-29 atom-30" d="M 117.6,48.7 L 125.6,77.1 L 117.6,79.3 L 109.7,51.0 Z" style="fill:#7E7EFF;fill-rule:evenodd;fill-opacity:1;stroke:#7E7EFF;stroke-width:2.0px;stroke-linecap:butt;stroke-linejoin:miter;stroke-miterlimit:10;stroke-opacity:1;"/>
<path class="bond-30 atom-30 atom-31" d="M 124.6,81.1 L 103.9,102.2 L 98.0,96.4 L 118.6,75.3 Z" style="fill:#7E7EFF;fill-rule:evenodd;fill-opacity:1;stroke:#7E7EFF;stroke-width:2.0px;stroke-linecap:butt;stroke-linejoin:miter;stroke-miterlimit:10;stroke-opacity:1;"/>
<path class="bond-31 atom-31 atom-32" d="M 100.0,103.3 L 71.4,96.0 L 73.5,88.0 L 102.0,95.3 Z" style="fill:#7E7EFF;fill-rule:evenodd;fill-opacity:1;stroke:#7E7EFF;stroke-width:2.0px;stroke-linecap:butt;stroke-linejoin:miter;stroke-miterlimit:10;stroke-opacity:1;"/>
<path class="bond-32 atom-31 atom-5" d="M 105.0,98.2 L 112.9,126.6 L 105.0,128.8 L 97.0,100.4 Z" style="fill:#7E7EFF;fill-rule:evenodd;fill-opacity:1;stroke:#7E7EFF;stroke-width:2.0px;stroke-linecap:butt;stroke-linejoin:miter;stroke-miterlimit:10;stroke-opacity:1;"/>
<path class="bond-33 atom-22 atom-7" d="M 165.1,142.8 L 154.3,115.4 L 161.9,112.4 L 172.8,139.8 Z" style="fill:#7E7EFF;fill-rule:evenodd;fill-opacity:1;stroke:#7E7EFF;stroke-width:2.0px;stroke-linecap:butt;stroke-linejoin:miter;stroke-miterlimit:10;stroke-opacity:1;"/>
<path class="bond-34 atom-30 atom-24" d="M 122.6,74.2 L 151.2,81.5 L 149.1,89.5 L 120.6,82.2 Z" style="fill:#7E7EFF;fill-rule:evenodd;fill-opacity:1;stroke:#7E7EFF;stroke-width:2.0px;stroke-linecap:butt;stroke-linejoin:miter;stroke-miterlimit:10;stroke-opacity:1;"/>
<path class="bond-35 atom-20 atom-11" d="M 253.6,121.5 L 230.5,103.2 L 235.7,96.8 L 258.8,115.1 Z" style="fill:#FFD6D6;fill-rule:evenodd;fill-opacity:1;stroke:#FFD6D6;stroke-width:2.0px;stroke-linecap:butt;stroke-linejoin:miter;stroke-miterlimit:10;stroke-opacity:1;"/>
<path class="bond-36 atom-20 atom-15" d="M 254.7,114.5 L 282.1,103.6 L 285.1,111.3 L 257.7,122.1 Z" style="fill:#FFD6D6;fill-rule:evenodd;fill-opacity:1;stroke:#FFD6D6;stroke-width:2.0px;stroke-linecap:butt;stroke-linejoin:miter;stroke-miterlimit:10;stroke-opacity:1;"/>
<ellipse cx="23.3" cy="105.8" rx="5.9" ry="5.9" class="atom-0" style="fill:#FEFEFF;fill-rule:evenodd;stroke:#FEFEFF;stroke-width:1.0px;stroke-linecap:butt;stroke-linejoin:miter;stroke-opacity:1"/>
<ellipse cx="51.8" cy="113.1" rx="5.9" ry="5.9" class="atom-1" style="fill:#FEFEFF;fill-rule:evenodd;stroke:#FEFEFF;stroke-width:1.0px;stroke-linecap:butt;stroke-linejoin:miter;stroke-opacity:1"/>
<ellipse cx="59.8" cy="141.5" rx="5.9" ry="5.9" class="atom-2" style="fill:#FAFAFF;fill-rule:evenodd;stroke:#FAFAFF;stroke-width:1.0px;stroke-linecap:butt;stroke-linejoin:miter;stroke-opacity:1"/>
<ellipse cx="39.2" cy="162.5" rx="5.9" ry="5.9" class="atom-3" style="fill:#FAFAFF;fill-rule:evenodd;stroke:#FAFAFF;stroke-width:1.0px;stroke-linecap:butt;stroke-linejoin:miter;stroke-opacity:1"/>
<ellipse cx="88.3" cy="148.8" rx="5.9" ry="5.9" class="atom-4" style="fill:#FAFAFF;fill-rule:evenodd;stroke:#FAFAFF;stroke-width:1.0px;stroke-linecap:butt;stroke-linejoin:miter;stroke-opacity:1"/>
<ellipse cx="108.9" cy="127.7" rx="5.9" ry="5.9" class="atom-5" style="fill:#7E7EFF;fill-rule:evenodd;stroke:#7E7EFF;stroke-width:1.0px;stroke-linecap:butt;stroke-linejoin:miter;stroke-opacity:1"/>
<ellipse cx="137.5" cy="135.0" rx="5.9" ry="5.9" class="atom-6" style="fill:#7E7EFF;fill-rule:evenodd;stroke:#7E7EFF;stroke-width:1.0px;stroke-linecap:butt;stroke-linejoin:miter;stroke-opacity:1"/>
<ellipse cx="158.1" cy="113.9" rx="5.9" ry="5.9" class="atom-7" style="fill:#7E7EFF;fill-rule:evenodd;stroke:#7E7EFF;stroke-width:1.0px;stroke-linecap:butt;stroke-linejoin:miter;stroke-opacity:1"/>
<ellipse cx="180.8" cy="95.1" rx="5.9" ry="5.9" class="atom-8" style="fill:#7E7EFF;fill-rule:evenodd;stroke:#7E7EFF;stroke-width:1.0px;stroke-linecap:butt;stroke-linejoin:miter;stroke-opacity:1"/>
<ellipse cx="185.1" cy="71.6" rx="5.9" ry="5.9" class="atom-9" style="fill:#7E7EFF;fill-rule:evenodd;stroke:#7E7EFF;stroke-width:1.0px;stroke-linecap:butt;stroke-linejoin:miter;stroke-opacity:1"/>
<ellipse cx="205.7" cy="110.9" rx="5.9" ry="5.9" class="atom-10" style="fill:#7E7EFF;fill-rule:evenodd;stroke:#7E7EFF;stroke-width:1.0px;stroke-linecap:butt;stroke-linejoin:miter;stroke-opacity:1"/>
<ellipse cx="233.1" cy="100.0" rx="5.9" ry="5.9" class="atom-11" style="fill:#FFD6D6;fill-rule:evenodd;stroke:#FFD6D6;stroke-width:1.0px;stroke-linecap:butt;stroke-linejoin:miter;stroke-opacity:1"/>
<ellipse cx="237.4" cy="70.8" rx="5.9" ry="5.9" class="atom-12" style="fill:#FFD6D6;fill-rule:evenodd;stroke:#FFD6D6;stroke-width:1.0px;stroke-linecap:butt;stroke-linejoin:miter;stroke-opacity:1"/>
<ellipse cx="264.8" cy="60.0" rx="5.9" ry="5.9" class="atom-13" style="fill:#FFD6D6;fill-rule:evenodd;stroke:#FFD6D6;stroke-width:1.0px;stroke-linecap:butt;stroke-linejoin:miter;stroke-opacity:1"/>
<ellipse cx="287.9" cy="78.3" rx="5.9" ry="5.9" class="atom-14" style="fill:#FFD6D6;fill-rule:evenodd;stroke:#FFD6D6;stroke-width:1.0px;stroke-linecap:butt;stroke-linejoin:miter;stroke-opacity:1"/>
<ellipse cx="283.6" cy="107.4" rx="5.9" ry="5.9" class="atom-15" style="fill:#FFD6D6;fill-rule:evenodd;stroke:#FFD6D6;stroke-width:1.0px;stroke-linecap:butt;stroke-linejoin:miter;stroke-opacity:1"/>
<ellipse cx="306.7" cy="125.7" rx="5.9" ry="5.9" class="atom-16" style="fill:#FFD6D6;fill-rule:evenodd;stroke:#FFD6D6;stroke-width:1.0px;stroke-linecap:butt;stroke-linejoin:miter;stroke-opacity:1"/>
<ellipse cx="302.4" cy="154.9" rx="5.9" ry="5.9" class="atom-17" style="fill:#FFD6D6;fill-rule:evenodd;stroke:#FFD6D6;stroke-width:1.0px;stroke-linecap:butt;stroke-linejoin:miter;stroke-opacity:1"/>
<ellipse cx="275.0" cy="165.7" rx="5.9" ry="5.9" class="atom-18" style="fill:#FFD6D6;fill-rule:evenodd;stroke:#FFD6D6;stroke-width:1.0px;stroke-linecap:butt;stroke-linejoin:miter;stroke-opacity:1"/>
<ellipse cx="251.9" cy="147.5" rx="5.9" ry="5.9" class="atom-19" style="fill:#FFD6D6;fill-rule:evenodd;stroke:#FFD6D6;stroke-width:1.0px;stroke-linecap:butt;stroke-linejoin:miter;stroke-opacity:1"/>
<ellipse cx="256.2" cy="118.3" rx="5.9" ry="5.9" class="atom-20" style="fill:#FFD6D6;fill-rule:evenodd;stroke:#FFD6D6;stroke-width:1.0px;stroke-linecap:butt;stroke-linejoin:miter;stroke-opacity:1"/>
<ellipse cx="198.4" cy="139.4" rx="5.9" ry="5.9" class="atom-21" style="fill:#7E7EFF;fill-rule:evenodd;stroke:#7E7EFF;stroke-width:1.0px;stroke-linecap:butt;stroke-linejoin:miter;stroke-opacity:1"/>
<ellipse cx="169.0" cy="141.3" rx="5.9" ry="5.9" class="atom-22" style="fill:#7E7EFF;fill-rule:evenodd;stroke:#7E7EFF;stroke-width:1.0px;stroke-linecap:butt;stroke-linejoin:miter;stroke-opacity:1"/>
<ellipse cx="153.2" cy="166.2" rx="5.9" ry="5.9" class="atom-23" style="fill:#7E7EFF;fill-rule:evenodd;stroke:#7E7EFF;stroke-width:1.0px;stroke-linecap:butt;stroke-linejoin:miter;stroke-opacity:1"/>
<ellipse cx="150.2" cy="85.5" rx="5.9" ry="5.9" class="atom-24" style="fill:#7E7EFF;fill-rule:evenodd;stroke:#7E7EFF;stroke-width:1.0px;stroke-linecap:butt;stroke-linejoin:miter;stroke-opacity:1"/>
<ellipse cx="170.8" cy="64.5" rx="5.9" ry="5.9" class="atom-25" style="fill:#7E7EFF;fill-rule:evenodd;stroke:#7E7EFF;stroke-width:1.0px;stroke-linecap:butt;stroke-linejoin:miter;stroke-opacity:1"/>
<ellipse cx="162.8" cy="36.1" rx="5.9" ry="5.9" class="atom-26" style="fill:#7E7EFF;fill-rule:evenodd;stroke:#7E7EFF;stroke-width:1.0px;stroke-linecap:butt;stroke-linejoin:miter;stroke-opacity:1"/>
<ellipse cx="183.4" cy="15.0" rx="5.9" ry="5.9" class="atom-27" style="fill:#7E7EFF;fill-rule:evenodd;stroke:#7E7EFF;stroke-width:1.0px;stroke-linecap:butt;stroke-linejoin:miter;stroke-opacity:1"/>
<ellipse cx="134.3" cy="28.8" rx="5.9" ry="5.9" class="atom-28" style="fill:#7E7EFF;fill-rule:evenodd;stroke:#7E7EFF;stroke-width:1.0px;stroke-linecap:butt;stroke-linejoin:miter;stroke-opacity:1"/>
<ellipse cx="113.6" cy="49.8" rx="5.9" ry="5.9" class="atom-29" style="fill:#7E7EFF;fill-rule:evenodd;stroke:#7E7EFF;stroke-width:1.0px;stroke-linecap:butt;stroke-linejoin:miter;stroke-opacity:1"/>
<ellipse cx="121.6" cy="78.2" rx="5.9" ry="5.9" class="atom-30" style="fill:#7E7EFF;fill-rule:evenodd;stroke:#7E7EFF;stroke-width:1.0px;stroke-linecap:butt;stroke-linejoin:miter;stroke-opacity:1"/>
<ellipse cx="101.0" cy="99.3" rx="5.9" ry="5.9" class="atom-31" style="fill:#7E7EFF;fill-rule:evenodd;stroke:#7E7EFF;stroke-width:1.0px;stroke-linecap:butt;stroke-linejoin:miter;stroke-opacity:1"/>
<ellipse cx="72.4" cy="92.0" rx="5.9" ry="5.9" class="atom-32" style="fill:#7E7EFF;fill-rule:evenodd;stroke:#7E7EFF;stroke-width:1.0px;stroke-linecap:butt;stroke-linejoin:miter;stroke-opacity:1"/>
<path class="bond-0 atom-0 atom-1" d="M 23.3,105.8 L 47.0,111.8" style="fill:none;fill-rule:evenodd;stroke:#000000;stroke-width:2.0px;stroke-linecap:butt;stroke-linejoin:miter;stroke-opacity:1"/>
<path class="bond-1 atom-1 atom-2" d="M 53.3,118.4 L 59.8,141.5" style="fill:none;fill-rule:evenodd;stroke:#000000;stroke-width:2.0px;stroke-linecap:butt;stroke-linejoin:miter;stroke-opacity:1"/>
<path class="bond-2 atom-2 atom-3" d="M 57.4,144.3 L 57.0,143.9" style="fill:none;fill-rule:evenodd;stroke:#000000;stroke-width:1.0px;stroke-linecap:butt;stroke-linejoin:miter;stroke-opacity:1"/>
<path class="bond-2 atom-2 atom-3" d="M 55.0,147.1 L 54.2,146.3" style="fill:none;fill-rule:evenodd;stroke:#000000;stroke-width:1.0px;stroke-linecap:butt;stroke-linejoin:miter;stroke-opacity:1"/>
<path class="bond-2 atom-2 atom-3" d="M 52.7,149.9 L 51.5,148.8" style="fill:none;fill-rule:evenodd;stroke:#000000;stroke-width:1.0px;stroke-linecap:butt;stroke-linejoin:miter;stroke-opacity:1"/>
<path class="bond-2 atom-2 atom-3" d="M 50.3,152.8 L 48.7,151.2" style="fill:none;fill-rule:evenodd;stroke:#000000;stroke-width:1.0px;stroke-linecap:butt;stroke-linejoin:miter;stroke-opacity:1"/>
<path class="bond-2 atom-2 atom-3" d="M 47.9,155.6 L 45.9,153.7" style="fill:none;fill-rule:evenodd;stroke:#000000;stroke-width:1.0px;stroke-linecap:butt;stroke-linejoin:miter;stroke-opacity:1"/>
<path class="bond-2 atom-2 atom-3" d="M 45.5,158.4 L 43.2,156.1" style="fill:none;fill-rule:evenodd;stroke:#000000;stroke-width:1.0px;stroke-linecap:butt;stroke-linejoin:miter;stroke-opacity:1"/>
<path class="bond-2 atom-2 atom-3" d="M 43.1,161.2 L 40.4,158.5" style="fill:none;fill-rule:evenodd;stroke:#000000;stroke-width:1.0px;stroke-linecap:butt;stroke-linejoin:miter;stroke-opacity:1"/>
<path class="bond-2 atom-2 atom-3" d="M 40.8,164.1 L 37.6,161.0" style="fill:none;fill-rule:evenodd;stroke:#000000;stroke-width:1.0px;stroke-linecap:butt;stroke-linejoin:miter;stroke-opacity:1"/>
<path class="bond-3 atom-2 atom-4" d="M 59.8,141.5 L 88.3,148.8" style="fill:none;fill-rule:evenodd;stroke:#000000;stroke-width:2.0px;stroke-linecap:butt;stroke-linejoin:miter;stroke-opacity:1"/>
<path class="bond-4 atom-4 atom-5" d="M 88.3,148.8 L 104.8,131.9" style="fill:none;fill-rule:evenodd;stroke:#000000;stroke-width:2.0px;stroke-linecap:butt;stroke-linejoin:miter;stroke-opacity:1"/>
<path class="bond-5 atom-5 atom-6" d="M 113.1,128.7 L 137.5,135.0" style="fill:none;fill-rule:evenodd;stroke:#000000;stroke-width:2.0px;stroke-linecap:butt;stroke-linejoin:miter;stroke-opacity:1"/>
<path class="bond-6 atom-7 atom-6" d="M 155.3,116.3 L 155.8,116.8" style="fill:none;fill-rule:evenodd;stroke:#000000;stroke-width:1.0px;stroke-linecap:butt;stroke-linejoin:miter;stroke-opacity:1"/>
<path class="bond-6 atom-7 atom-6" d="M 152.5,118.7 L 153.4,119.6" style="fill:none;fill-rule:evenodd;stroke:#000000;stroke-width:1.0px;stroke-linecap:butt;stroke-linejoin:miter;stroke-opacity:1"/>
<path class="bond-6 atom-7 atom-6" d="M 149.7,121.1 L 151.1,122.5" style="fill:none;fill-rule:evenodd;stroke:#000000;stroke-width:1.0px;stroke-linecap:butt;stroke-linejoin:miter;stroke-opacity:1"/>
<path class="bond-6 atom-7 atom-6" d="M 146.9,123.6 L 148.7,125.3" style="fill:none;fill-rule:evenodd;stroke:#000000;stroke-width:1.0px;stroke-linecap:butt;stroke-linejoin:miter;stroke-opacity:1"/>
<path class="bond-6 atom-7 atom-6" d="M 144.1,126.0 L 146.4,128.2" style="fill:none;fill-rule:evenodd;stroke:#000000;stroke-width:1.0px;stroke-linecap:butt;stroke-linejoin:miter;stroke-opacity:1"/>
<path class="bond-6 atom-7 atom-6" d="M 141.3,128.4 L 144.0,131.0" style="fill:none;fill-rule:evenodd;stroke:#000000;stroke-width:1.0px;stroke-linecap:butt;stroke-linejoin:miter;stroke-opacity:1"/>
<path class="bond-6 atom-7 atom-6" d="M 138.5,130.8 L 141.7,133.9" style="fill:none;fill-rule:evenodd;stroke:#000000;stroke-width:1.0px;stroke-linecap:butt;stroke-linejoin:miter;stroke-opacity:1"/>
<path class="bond-7 atom-7 atom-8" d="M 158.1,113.9 L 180.8,95.1" style="fill:none;fill-rule:evenodd;stroke:#000000;stroke-width:2.0px;stroke-linecap:butt;stroke-linejoin:miter;stroke-opacity:1"/>
<path class="bond-8 atom-8 atom-9" d="M 182.8,96.4 L 186.3,77.3" style="fill:none;fill-rule:evenodd;stroke:#000000;stroke-width:2.0px;stroke-linecap:butt;stroke-linejoin:miter;stroke-opacity:1"/>
<path class="bond-8 atom-8 atom-9" d="M 178.2,97.3 L 182.0,76.5" style="fill:none;fill-rule:evenodd;stroke:#000000;stroke-width:2.0px;stroke-linecap:butt;stroke-linejoin:miter;stroke-opacity:1"/>
<path class="bond-9 atom-8 atom-10" d="M 180.8,95.1 L 201.6,108.3" style="fill:none;fill-rule:evenodd;stroke:#000000;stroke-width:2.0px;stroke-linecap:butt;stroke-linejoin:miter;stroke-opacity:1"/>
<path class="bond-10 atom-10 atom-11" d="M 209.8,109.2 L 233.1,100.0" style="fill:none;fill-rule:evenodd;stroke:#000000;stroke-width:2.0px;stroke-linecap:butt;stroke-linejoin:miter;stroke-opacity:1"/>
<path class="bond-11 atom-11 atom-12" d="M 233.1,100.0 L 237.4,70.8" style="fill:none;fill-rule:evenodd;stroke:#000000;stroke-width:2.0px;stroke-linecap:butt;stroke-linejoin:miter;stroke-opacity:1"/>
<path class="bond-11 atom-11 atom-12" d="M 237.8,98.1 L 241.4,74.0" style="fill:none;fill-rule:evenodd;stroke:#000000;stroke-width:2.0px;stroke-linecap:butt;stroke-linejoin:miter;stroke-opacity:1"/>
<path class="bond-12 atom-12 atom-13" d="M 237.4,70.8 L 260.6,61.6" style="fill:none;fill-rule:evenodd;stroke:#000000;stroke-width:2.0px;stroke-linecap:butt;stroke-linejoin:miter;stroke-opacity:1"/>
<path class="bond-13 atom-13 atom-14" d="M 268.9,63.2 L 287.9,78.3" style="fill:none;fill-rule:evenodd;stroke:#000000;stroke-width:2.0px;stroke-linecap:butt;stroke-linejoin:miter;stroke-opacity:1"/>
<path class="bond-13 atom-13 atom-14" d="M 266.2,66.7 L 283.2,80.1" style="fill:none;fill-rule:evenodd;stroke:#000000;stroke-width:2.0px;stroke-linecap:butt;stroke-linejoin:miter;stroke-opacity:1"/>
<path class="bond-14 atom-14 atom-15" d="M 287.9,78.3 L 283.6,107.4" style="fill:none;fill-rule:evenodd;stroke:#000000;stroke-width:2.0px;stroke-linecap:butt;stroke-linejoin:miter;stroke-opacity:1"/>
<path class="bond-15 atom-15 atom-16" d="M 283.6,107.4 L 306.7,125.7" style="fill:none;fill-rule:evenodd;stroke:#000000;stroke-width:2.0px;stroke-linecap:butt;stroke-linejoin:miter;stroke-opacity:1"/>
<path class="bond-15 atom-15 atom-16" d="M 282.9,112.4 L 302.0,127.6" style="fill:none;fill-rule:evenodd;stroke:#000000;stroke-width:2.0px;stroke-linecap:butt;stroke-linejoin:miter;stroke-opacity:1"/>
<path class="bond-16 atom-16 atom-17" d="M 306.7,125.7 L 302.4,154.9" style="fill:none;fill-rule:evenodd;stroke:#000000;stroke-width:2.0px;stroke-linecap:butt;stroke-linejoin:miter;stroke-opacity:1"/>
<path class="bond-17 atom-17 atom-18" d="M 302.4,154.9 L 275.0,165.7" style="fill:none;fill-rule:evenodd;stroke:#000000;stroke-width:2.0px;stroke-linecap:butt;stroke-linejoin:miter;stroke-opacity:1"/>
<path class="bond-17 atom-17 atom-18" d="M 298.5,151.7 L 275.8,160.7" style="fill:none;fill-rule:evenodd;stroke:#000000;stroke-width:2.0px;stroke-linecap:butt;stroke-linejoin:miter;stroke-opacity:1"/>
<path class="bond-18 atom-18 atom-19" d="M 275.0,165.7 L 251.9,147.5" style="fill:none;fill-rule:evenodd;stroke:#000000;stroke-width:2.0px;stroke-linecap:butt;stroke-linejoin:miter;stroke-opacity:1"/>
<path class="bond-19 atom-19 atom-20" d="M 251.9,147.5 L 256.2,118.3" style="fill:none;fill-rule:evenodd;stroke:#000000;stroke-width:2.0px;stroke-linecap:butt;stroke-linejoin:miter;stroke-opacity:1"/>
<path class="bond-19 atom-19 atom-20" d="M 256.6,145.6 L 260.2,121.4" style="fill:none;fill-rule:evenodd;stroke:#000000;stroke-width:2.0px;stroke-linecap:butt;stroke-linejoin:miter;stroke-opacity:1"/>
<path class="bond-20 atom-10 atom-21" d="M 204.4,116.0 L 198.4,139.4" style="fill:none;fill-rule:evenodd;stroke:#000000;stroke-width:2.0px;stroke-linecap:butt;stroke-linejoin:miter;stroke-opacity:1"/>
<path class="bond-21 atom-21 atom-22" d="M 198.4,139.4 L 169.0,141.3" style="fill:none;fill-rule:evenodd;stroke:#000000;stroke-width:2.0px;stroke-linecap:butt;stroke-linejoin:miter;stroke-opacity:1"/>
<path class="bond-22 atom-22 atom-23" d="M 167.2,144.6 L 166.8,144.3" style="fill:none;fill-rule:evenodd;stroke:#000000;stroke-width:1.0px;stroke-linecap:butt;stroke-linejoin:miter;stroke-opacity:1"/>
<path class="bond-22 atom-22 atom-23" d="M 165.5,147.8 L 164.6,147.2" style="fill:none;fill-rule:evenodd;stroke:#000000;stroke-width:1.0px;stroke-linecap:butt;stroke-linejoin:miter;stroke-opacity:1"/>
<path class="bond-22 atom-22 atom-23" d="M 163.8,151.1 L 162.4,150.2" style="fill:none;fill-rule:evenodd;stroke:#000000;stroke-width:1.0px;stroke-linecap:butt;stroke-linejoin:miter;stroke-opacity:1"/>
<path class="bond-22 atom-22 atom-23" d="M 162.0,154.3 L 160.2,153.2" style="fill:none;fill-rule:evenodd;stroke:#000000;stroke-width:1.0px;stroke-linecap:butt;stroke-linejoin:miter;stroke-opacity:1"/>
<path class="bond-22 atom-22 atom-23" d="M 160.3,157.6 L 158.0,156.1" style="fill:none;fill-rule:evenodd;stroke:#000000;stroke-width:1.0px;stroke-linecap:butt;stroke-linejoin:miter;stroke-opacity:1"/>
<path class="bond-22 atom-22 atom-23" d="M 158.5,160.9 L 155.8,159.1" style="fill:none;fill-rule:evenodd;stroke:#000000;stroke-width:1.0px;stroke-linecap:butt;stroke-linejoin:miter;stroke-opacity:1"/>
<path class="bond-22 atom-22 atom-23" d="M 156.8,164.1 L 153.6,162.1" style="fill:none;fill-rule:evenodd;stroke:#000000;stroke-width:1.0px;stroke-linecap:butt;stroke-linejoin:miter;stroke-opacity:1"/>
<path class="bond-22 atom-22 atom-23" d="M 155.1,167.4 L 151.3,165.0" style="fill:none;fill-rule:evenodd;stroke:#000000;stroke-width:1.0px;stroke-linecap:butt;stroke-linejoin:miter;stroke-opacity:1"/>
<path class="bond-23 atom-7 atom-24" d="M 158.1,113.9 L 150.2,85.5" style="fill:none;fill-rule:evenodd;stroke:#000000;stroke-width:2.0px;stroke-linecap:butt;stroke-linejoin:miter;stroke-opacity:1"/>
<path class="bond-24 atom-24 atom-25" d="M 150.2,85.5 L 170.8,64.5" style="fill:none;fill-rule:evenodd;stroke:#000000;stroke-width:2.0px;stroke-linecap:butt;stroke-linejoin:miter;stroke-opacity:1"/>
<path class="bond-24 atom-24 atom-25" d="M 148.8,80.6 L 165.8,63.2" style="fill:none;fill-rule:evenodd;stroke:#000000;stroke-width:2.0px;stroke-linecap:butt;stroke-linejoin:miter;stroke-opacity:1"/>
<path class="bond-25 atom-25 atom-26" d="M 170.8,64.5 L 162.8,36.1" style="fill:none;fill-rule:evenodd;stroke:#000000;stroke-width:2.0px;stroke-linecap:butt;stroke-linejoin:miter;stroke-opacity:1"/>
<path class="bond-26 atom-26 atom-27" d="M 162.8,36.1 L 179.2,19.3" style="fill:none;fill-rule:evenodd;stroke:#000000;stroke-width:2.0px;stroke-linecap:butt;stroke-linejoin:miter;stroke-opacity:1"/>
<path class="bond-27 atom-26 atom-28" d="M 162.8,36.1 L 134.3,28.8" style="fill:none;fill-rule:evenodd;stroke:#000000;stroke-width:2.0px;stroke-linecap:butt;stroke-linejoin:miter;stroke-opacity:1"/>
<path class="bond-27 atom-26 atom-28" d="M 159.3,39.7 L 135.6,33.7" style="fill:none;fill-rule:evenodd;stroke:#000000;stroke-width:2.0px;stroke-linecap:butt;stroke-linejoin:miter;stroke-opacity:1"/>
<path class="bond-28 atom-28 atom-29" d="M 134.3,28.8 L 113.6,49.8" style="fill:none;fill-rule:evenodd;stroke:#000000;stroke-width:2.0px;stroke-linecap:butt;stroke-linejoin:miter;stroke-opacity:1"/>
<path class="bond-29 atom-29 atom-30" d="M 113.6,49.8 L 121.6,78.2" style="fill:none;fill-rule:evenodd;stroke:#000000;stroke-width:2.0px;stroke-linecap:butt;stroke-linejoin:miter;stroke-opacity:1"/>
<path class="bond-29 atom-29 atom-30" d="M 118.6,51.1 L 125.1,74.6" style="fill:none;fill-rule:evenodd;stroke:#000000;stroke-width:2.0px;stroke-linecap:butt;stroke-linejoin:miter;stroke-opacity:1"/>
<path class="bond-30 atom-30 atom-31" d="M 121.6,78.2 L 101.0,99.3" style="fill:none;fill-rule:evenodd;stroke:#000000;stroke-width:2.0px;stroke-linecap:butt;stroke-linejoin:miter;stroke-opacity:1"/>
<path class="bond-31 atom-31 atom-32" d="M 102.8,97.5 L 77.8,91.1" style="fill:none;fill-rule:evenodd;stroke:#000000;stroke-width:2.0px;stroke-linecap:butt;stroke-linejoin:miter;stroke-opacity:1"/>
<path class="bond-31 atom-31 atom-32" d="M 101.7,101.7 L 76.7,95.4" style="fill:none;fill-rule:evenodd;stroke:#000000;stroke-width:2.0px;stroke-linecap:butt;stroke-linejoin:miter;stroke-opacity:1"/>
<path class="bond-32 atom-31 atom-5" d="M 101.0,99.3 L 107.5,122.5" style="fill:none;fill-rule:evenodd;stroke:#000000;stroke-width:2.0px;stroke-linecap:butt;stroke-linejoin:miter;stroke-opacity:1"/>
<path class="bond-33 atom-22 atom-7" d="M 169.0,141.3 L 158.1,113.9" style="fill:none;fill-rule:evenodd;stroke:#000000;stroke-width:2.0px;stroke-linecap:butt;stroke-linejoin:miter;stroke-opacity:1"/>
<path class="bond-34 atom-30 atom-24" d="M 121.6,78.2 L 150.2,85.5" style="fill:none;fill-rule:evenodd;stroke:#000000;stroke-width:2.0px;stroke-linecap:butt;stroke-linejoin:miter;stroke-opacity:1"/>
<path class="bond-35 atom-20 atom-11" d="M 256.2,118.3 L 233.1,100.0" style="fill:none;fill-rule:evenodd;stroke:#000000;stroke-width:2.0px;stroke-linecap:butt;stroke-linejoin:miter;stroke-opacity:1"/>
<path class="bond-36 atom-20 atom-15" d="M 256.2,118.3 L 283.6,107.4" style="fill:none;fill-rule:evenodd;stroke:#000000;stroke-width:2.0px;stroke-linecap:butt;stroke-linejoin:miter;stroke-opacity:1"/>
<path d="M 59.5,140.3 L 59.8,141.5 L 61.2,141.8" style="fill:none;stroke:#000000;stroke-width:2.0px;stroke-linecap:butt;stroke-linejoin:miter;stroke-miterlimit:10;stroke-opacity:1;"/>
<path d="M 86.9,148.4 L 88.3,148.8 L 89.2,147.9" style="fill:none;stroke:#000000;stroke-width:2.0px;stroke-linecap:butt;stroke-linejoin:miter;stroke-miterlimit:10;stroke-opacity:1;"/>
<path d="M 179.7,96.0 L 180.8,95.1 L 181.8,95.8" style="fill:none;stroke:#000000;stroke-width:2.0px;stroke-linecap:butt;stroke-linejoin:miter;stroke-miterlimit:10;stroke-opacity:1;"/>
<path d="M 237.2,72.3 L 237.4,70.8 L 238.5,70.4" style="fill:none;stroke:#000000;stroke-width:2.0px;stroke-linecap:butt;stroke-linejoin:miter;stroke-miterlimit:10;stroke-opacity:1;"/>
<path d="M 286.9,77.5 L 287.9,78.3 L 287.7,79.7" style="fill:none;stroke:#000000;stroke-width:2.0px;stroke-linecap:butt;stroke-linejoin:miter;stroke-miterlimit:10;stroke-opacity:1;"/>
<path d="M 305.6,124.8 L 306.7,125.7 L 306.5,127.2" style="fill:none;stroke:#000000;stroke-width:2.0px;stroke-linecap:butt;stroke-linejoin:miter;stroke-miterlimit:10;stroke-opacity:1;"/>
<path d="M 302.7,153.4 L 302.4,154.9 L 301.1,155.4" style="fill:none;stroke:#000000;stroke-width:2.0px;stroke-linecap:butt;stroke-linejoin:miter;stroke-miterlimit:10;stroke-opacity:1;"/>
<path d="M 276.4,165.2 L 275.0,165.7 L 273.9,164.8" style="fill:none;stroke:#000000;stroke-width:2.0px;stroke-linecap:butt;stroke-linejoin:miter;stroke-miterlimit:10;stroke-opacity:1;"/>
<path d="M 253.1,148.4 L 251.9,147.5 L 252.1,146.0" style="fill:none;stroke:#000000;stroke-width:2.0px;stroke-linecap:butt;stroke-linejoin:miter;stroke-miterlimit:10;stroke-opacity:1;"/>
<path d="M 198.7,138.3 L 198.4,139.4 L 196.9,139.5" style="fill:none;stroke:#000000;stroke-width:2.0px;stroke-linecap:butt;stroke-linejoin:miter;stroke-miterlimit:10;stroke-opacity:1;"/>
<path d="M 170.4,141.2 L 169.0,141.3 L 168.4,139.9" style="fill:none;stroke:#000000;stroke-width:2.0px;stroke-linecap:butt;stroke-linejoin:miter;stroke-miterlimit:10;stroke-opacity:1;"/>
<path d="M 169.7,65.5 L 170.8,64.5 L 170.4,63.0" style="fill:none;stroke:#000000;stroke-width:2.0px;stroke-linecap:butt;stroke-linejoin:miter;stroke-miterlimit:10;stroke-opacity:1;"/>
<path d="M 135.7,29.1 L 134.3,28.8 L 133.2,29.8" style="fill:none;stroke:#000000;stroke-width:2.0px;stroke-linecap:butt;stroke-linejoin:miter;stroke-miterlimit:10;stroke-opacity:1;"/>
<path d="M 114.7,48.8 L 113.6,49.8 L 114.0,51.3" style="fill:none;stroke:#000000;stroke-width:2.0px;stroke-linecap:butt;stroke-linejoin:miter;stroke-miterlimit:10;stroke-opacity:1;"/>
<path d="M 102.0,98.2 L 101.0,99.3 L 101.3,100.5" style="fill:none;stroke:#000000;stroke-width:2.0px;stroke-linecap:butt;stroke-linejoin:miter;stroke-miterlimit:10;stroke-opacity:1;"/>
<path class="atom-1" d="M 48.0 113.1 Q 48.0 111.1, 49.0 110.0 Q 50.0 108.9, 51.8 108.9 Q 53.7 108.9, 54.7 110.0 Q 55.7 111.1, 55.7 113.1 Q 55.7 115.1, 54.7 116.3 Q 53.7 117.4, 51.8 117.4 Q 50.0 117.4, 49.0 116.3 Q 48.0 115.1, 48.0 113.1 M 51.8 116.5 Q 53.1 116.5, 53.8 115.6 Q 54.5 114.8, 54.5 113.1 Q 54.5 111.5, 53.8 110.6 Q 53.1 109.8, 51.8 109.8 Q 50.6 109.8, 49.9 110.6 Q 49.2 111.4, 49.2 113.1 Q 49.2 114.8, 49.9 115.6 Q 50.6 116.5, 51.8 116.5 " fill="#000000"/>
<path class="atom-5" d="M 107.1 123.5 L 109.8 127.9 Q 110.1 128.4, 110.5 129.2 Q 111.0 129.9, 111.0 130.0 L 111.0 123.5 L 112.1 123.5 L 112.1 131.9 L 111.0 131.9 L 108.0 127.0 Q 107.7 126.5, 107.3 125.8 Q 107.0 125.2, 106.9 125.0 L 106.9 131.9 L 105.8 131.9 L 105.8 123.5 L 107.1 123.5 " fill="#000000"/>
<path class="atom-9" d="M 181.3 71.6 Q 181.3 69.6, 182.2 68.5 Q 183.2 67.4, 185.1 67.4 Q 186.9 67.4, 187.9 68.5 Q 188.9 69.6, 188.9 71.6 Q 188.9 73.7, 187.9 74.8 Q 186.9 76.0, 185.1 76.0 Q 183.3 76.0, 182.2 74.8 Q 181.3 73.7, 181.3 71.6 M 185.1 75.0 Q 186.4 75.0, 187.0 74.2 Q 187.7 73.3, 187.7 71.6 Q 187.7 70.0, 187.0 69.2 Q 186.4 68.3, 185.1 68.3 Q 183.8 68.3, 183.1 69.2 Q 182.4 70.0, 182.4 71.6 Q 182.4 73.3, 183.1 74.2 Q 183.8 75.0, 185.1 75.0 " fill="#000000"/>
<path class="atom-10" d="M 203.9 106.7 L 206.6 111.1 Q 206.9 111.6, 207.3 112.3 Q 207.7 113.1, 207.8 113.2 L 207.8 106.7 L 208.9 106.7 L 208.9 115.0 L 207.7 115.0 L 204.8 110.2 Q 204.4 109.6, 204.1 109.0 Q 203.7 108.4, 203.6 108.2 L 203.6 115.0 L 202.5 115.0 L 202.5 106.7 L 203.9 106.7 " fill="#000000"/>
<path class="atom-13" d="M 262.9 55.8 L 265.7 60.2 Q 265.9 60.6, 266.4 61.4 Q 266.8 62.2, 266.8 62.3 L 266.8 55.8 L 267.9 55.8 L 267.9 64.1 L 266.8 64.1 L 263.9 59.3 Q 263.5 58.7, 263.1 58.1 Q 262.8 57.4, 262.7 57.2 L 262.7 64.1 L 261.6 64.1 L 261.6 55.8 L 262.9 55.8 " fill="#000000"/>
<path class="atom-27" d="M 180.2 15.3 Q 180.2 13.2, 181.2 12.1 Q 182.1 11.0, 184.0 11.0 Q 185.7 11.0, 186.6 12.2 L 185.9 12.9 Q 185.2 12.0, 184.0 12.0 Q 182.7 12.0, 182.1 12.8 Q 181.4 13.7, 181.4 15.3 Q 181.4 16.9, 182.1 17.8 Q 182.8 18.6, 184.1 18.6 Q 185.0 18.6, 186.1 18.1 L 186.4 19.0 Q 186.0 19.2, 185.3 19.4 Q 184.7 19.6, 184.0 19.6 Q 182.1 19.6, 181.2 18.5 Q 180.2 17.4, 180.2 15.3 " fill="#000000"/>
<path class="atom-27" d="M 187.5 10.5 L 188.6 10.5 L 188.6 19.5 L 187.5 19.5 L 187.5 10.5 " fill="#000000"/>
<path class="atom-32" d="M 68.6 92.0 Q 68.6 90.0, 69.6 88.9 Q 70.6 87.8, 72.4 87.8 Q 74.3 87.8, 75.3 88.9 Q 76.3 90.0, 76.3 92.0 Q 76.3 94.0, 75.3 95.2 Q 74.3 96.3, 72.4 96.3 Q 70.6 96.3, 69.6 95.2 Q 68.6 94.1, 68.6 92.0 M 72.4 95.4 Q 73.7 95.4, 74.4 94.6 Q 75.1 93.7, 75.1 92.0 Q 75.1 90.4, 74.4 89.6 Q 73.7 88.7, 72.4 88.7 Q 71.2 88.7, 70.5 89.5 Q 69.8 90.4, 69.8 92.0 Q 69.8 93.7, 70.5 94.6 Q 71.2 95.4, 72.4 95.4 " fill="#000000"/>
</svg>