<svg xmlns="http://www.w3.org/2000/svg" xmlns:rdkit="http://www.rdkit.org/xml" xmlns:xlink="http://www.w3.org/1999/xlink" version="1.1" baseProfile="full" xml:space="preserve" width="320px" height="207px" viewBox="0 0 320 207">
<!-- END OF HEADER -->
<rect style="opacity:1.0;fill:#FFFFFF;stroke:none" width="320.0" height="207.0" x="0.0" y="0.0"> </rect>
<ellipse cx="16.2" cy="110.6" rx="0.1" ry="0.1" class="atom-0" style="fill:#7F7FFF;fill-rule:evenodd;stroke:#7F7FFF;stroke-width:1.0px;stroke-linecap:butt;stroke-linejoin:miter;stroke-opacity:1"/>
<ellipse cx="44.9" cy="117.9" rx="0.1" ry="0.1" class="atom-1" style="fill:#7F7FFF;fill-rule:evenodd;stroke:#7F7FFF;stroke-width:1.0px;stroke-linecap:butt;stroke-linejoin:miter;stroke-opacity:1"/>
<ellipse cx="52.9" cy="146.5" rx="0.3" ry="0.3" class="atom-2" style="fill:#7F7FFF;fill-rule:evenodd;stroke:#7F7FFF;stroke-width:1.0px;stroke-linecap:butt;stroke-linejoin:miter;stroke-opacity:1"/>
<ellipse cx="32.2" cy="167.7" rx="0.3" ry="0.3" class="atom-3" style="fill:#7F7FFF;fill-rule:evenodd;stroke:#7F7FFF;stroke-width:1.0px;stroke-linecap:butt;stroke-linejoin:miter;stroke-opacity:1"/>
<ellipse cx="81.6" cy="153.8" rx="0.3" ry="0.3" class="atom-4" style="fill:#7F7FFF;fill-rule:evenodd;stroke:#7F7FFF;stroke-width:1.0px;stroke-linecap:butt;stroke-linejoin:miter;stroke-opacity:1"/>
<ellipse cx="102.3" cy="132.6" rx="9.0" ry="9.0" class="atom-5" style="fill:#7F7FFF;fill-rule:evenodd;stroke:#7F7FFF;stroke-width:1.0px;stroke-linecap:butt;stroke-linejoin:miter;stroke-opacity:1"/>
<ellipse cx="131.0" cy="140.0" rx="9.0" ry="9.0" class="atom-6" style="fill:#7F7FFF;fill-rule:evenodd;stroke:#7F7FFF;stroke-width:1.0px;stroke-linecap:butt;stroke-linejoin:miter;stroke-opacity:1"/>
<ellipse cx="151.7" cy="118.8" rx="9.0" ry="9.0" class="atom-7" style="fill:#7F7FFF;fill-rule:evenodd;stroke:#7F7FFF;stroke-width:1.0px;stroke-linecap:butt;stroke-linejoin:miter;stroke-opacity:1"/>
<ellipse cx="174.6" cy="99.9" rx="9.0" ry="9.0" class="atom-8" style="fill:#7F7FFF;fill-rule:evenodd;stroke:#7F7FFF;stroke-width:1.0px;stroke-linecap:butt;stroke-linejoin:miter;stroke-opacity:1"/>
<ellipse cx="178.9" cy="76.3" rx="9.0" ry="9.0" class="atom-9" style="fill:#7F7FFF;fill-rule:evenodd;stroke:#7F7FFF;stroke-width:1.0px;stroke-linecap:butt;stroke-linejoin:miter;stroke-opacity:1"/>
<ellipse cx="199.6" cy="115.7" rx="9.0" ry="9.0" class="atom-10" style="fill:#7F7FFF;fill-rule:evenodd;stroke:#7F7FFF;stroke-width:1.0px;stroke-linecap:butt;stroke-linejoin:miter;stroke-opacity:1"/>
<ellipse cx="227.1" cy="104.8" rx="2.8" ry="2.8" class="atom-11" style="fill:#FF7F7F;fill-rule:evenodd;stroke:#FF7F7F;stroke-width:1.0px;stroke-linecap:butt;stroke-linejoin:miter;stroke-opacity:1"/>
<ellipse cx="231.5" cy="75.5" rx="2.8" ry="2.8" class="atom-12" style="fill:#FF7F7F;fill-rule:evenodd;stroke:#FF7F7F;stroke-width:1.0px;stroke-linecap:butt;stroke-linejoin:miter;stroke-opacity:1"/>
<ellipse cx="259.0" cy="64.5" rx="2.8" ry="2.8" class="atom-13" style="fill:#FF7F7F;fill-rule:evenodd;stroke:#FF7F7F;stroke-width:1.0px;stroke-linecap:butt;stroke-linejoin:miter;stroke-opacity:1"/>
<ellipse cx="282.2" cy="82.9" rx="2.8" ry="2.8" class="atom-14" style="fill:#FF7F7F;fill-rule:evenodd;stroke:#FF7F7F;stroke-width:1.0px;stroke-linecap:butt;stroke-linejoin:miter;stroke-opacity:1"/>
<ellipse cx="277.9" cy="112.3" rx="2.8" ry="2.8" class="atom-15" style="fill:#FF7F7F;fill-rule:evenodd;stroke:#FF7F7F;stroke-width:1.0px;stroke-linecap:butt;stroke-linejoin:miter;stroke-opacity:1"/>
<ellipse cx="301.2" cy="130.6" rx="2.8" ry="2.8" class="atom-16" style="fill:#FF7F7F;fill-rule:evenodd;stroke:#FF7F7F;stroke-width:1.0px;stroke-linecap:butt;stroke-linejoin:miter;stroke-opacity:1"/>
<ellipse cx="296.9" cy="160.0" rx="2.8" ry="2.8" class="atom-17" style="fill:#FF7F7F;fill-rule:evenodd;stroke:#FF7F7F;stroke-width:1.0px;stroke-linecap:butt;stroke-linejoin:miter;stroke-opacity:1"/>
<ellipse cx="269.3" cy="170.9" rx="2.8" ry="2.8" class="atom-18" style="fill:#FF7F7F;fill-rule:evenodd;stroke:#FF7F7F;stroke-width:1.0px;stroke-linecap:butt;stroke-linejoin:miter;stroke-opacity:1"/>
<ellipse cx="246.1" cy="152.5" rx="2.8" ry="2.8" class="atom-19" style="fill:#FF7F7F;fill-rule:evenodd;stroke:#FF7F7F;stroke-width:1.0px;stroke-linecap:butt;stroke-linejoin:miter;stroke-opacity:1"/>
<ellipse cx="250.4" cy="123.2" rx="2.8" ry="2.8" class="atom-20" style="fill:#FF7F7F;fill-rule:evenodd;stroke:#FF7F7F;stroke-width:1.0px;stroke-linecap:butt;stroke-linejoin:miter;stroke-opacity:1"/>
<ellipse cx="192.3" cy="144.5" rx="9.0" ry="9.0" class="atom-21" style="fill:#7F7FFF;fill-rule:evenodd;stroke:#7F7FFF;stroke-width:1.0px;stroke-linecap:butt;stroke-linejoin:miter;stroke-opacity:1"/>
<ellipse cx="162.7" cy="146.3" rx="9.0" ry="9.0" class="atom-22" style="fill:#7F7FFF;fill-rule:evenodd;stroke:#7F7FFF;stroke-width:1.0px;stroke-linecap:butt;stroke-linejoin:miter;stroke-opacity:1"/>
<ellipse cx="146.8" cy="171.4" rx="9.0" ry="9.0" class="atom-23" style="fill:#7F7FFF;fill-rule:evenodd;stroke:#7F7FFF;stroke-width:1.0px;stroke-linecap:butt;stroke-linejoin:miter;stroke-opacity:1"/>
<ellipse cx="143.7" cy="90.3" rx="9.0" ry="9.0" class="atom-24" style="fill:#7F7FFF;fill-rule:evenodd;stroke:#7F7FFF;stroke-width:1.0px;stroke-linecap:butt;stroke-linejoin:miter;stroke-opacity:1"/>
<ellipse cx="164.5" cy="69.1" rx="9.0" ry="9.0" class="atom-25" style="fill:#7F7FFF;fill-rule:evenodd;stroke:#7F7FFF;stroke-width:1.0px;stroke-linecap:butt;stroke-linejoin:miter;stroke-opacity:1"/>
<ellipse cx="156.5" cy="40.5" rx="9.0" ry="9.0" class="atom-26" style="fill:#7F7FFF;fill-rule:evenodd;stroke:#7F7FFF;stroke-width:1.0px;stroke-linecap:butt;stroke-linejoin:miter;stroke-opacity:1"/>
<ellipse cx="177.2" cy="19.3" rx="9.0" ry="9.0" class="atom-27" style="fill:#7F7FFF;fill-rule:evenodd;stroke:#7F7FFF;stroke-width:1.0px;stroke-linecap:butt;stroke-linejoin:miter;stroke-opacity:1"/>
<ellipse cx="127.8" cy="33.2" rx="9.0" ry="9.0" class="atom-28" style="fill:#7F7FFF;fill-rule:evenodd;stroke:#7F7FFF;stroke-width:1.0px;stroke-linecap:butt;stroke-linejoin:miter;stroke-opacity:1"/>
<ellipse cx="107.0" cy="54.4" rx="9.0" ry="9.0" class="atom-29" style="fill:#7F7FFF;fill-rule:evenodd;stroke:#7F7FFF;stroke-width:1.0px;stroke-linecap:butt;stroke-linejoin:miter;stroke-opacity:1"/>
<ellipse cx="115.0" cy="82.9" rx="9.0" ry="9.0" class="atom-30" style="fill:#7F7FFF;fill-rule:evenodd;stroke:#7F7FFF;stroke-width:1.0px;stroke-linecap:butt;stroke-linejoin:miter;stroke-opacity:1"/>
<ellipse cx="94.3" cy="104.1" rx="9.0" ry="9.0" class="atom-31" style="fill:#7F7FFF;fill-rule:evenodd;stroke:#7F7FFF;stroke-width:1.0px;stroke-linecap:butt;stroke-linejoin:miter;stroke-opacity:1"/>
<ellipse cx="65.6" cy="96.8" rx="9.0" ry="9.0" class="atom-32" style="fill:#7F7FFF;fill-rule:evenodd;stroke:#7F7FFF;stroke-width:1.0px;stroke-linecap:butt;stroke-linejoin:miter;stroke-opacity:1"/>
<path class="bond-0 atom-0 atom-1" d="M 16.2,110.6 L 40.1,116.7" style="fill:none;fill-rule:evenodd;stroke:#000000;stroke-width:2.0px;stroke-linecap:butt;stroke-linejoin:miter;stroke-opacity:1"/>
<path class="bond-1 atom-1 atom-2" d="M 46.4,123.3 L 52.9,146.5" style="fill:none;fill-rule:evenodd;stroke:#000000;stroke-width:2.0px;stroke-linecap:butt;stroke-linejoin:miter;stroke-opacity:1"/>
<path class="bond-2 atom-2 atom-3" d="M 50.5,149.3 L 50.1,148.9" style="fill:none;fill-rule:evenodd;stroke:#000000;stroke-width:1.0px;stroke-linecap:butt;stroke-linejoin:miter;stroke-opacity:1"/>
<path class="bond-2 atom-2 atom-3" d="M 48.1,152.2 L 47.3,151.4" style="fill:none;fill-rule:evenodd;stroke:#000000;stroke-width:1.0px;stroke-linecap:butt;stroke-linejoin:miter;stroke-opacity:1"/>
<path class="bond-2 atom-2 atom-3" d="M 45.7,155.0 L 44.5,153.9" style="fill:none;fill-rule:evenodd;stroke:#000000;stroke-width:1.0px;stroke-linecap:butt;stroke-linejoin:miter;stroke-opacity:1"/>
<path class="bond-2 atom-2 atom-3" d="M 43.3,157.9 L 41.7,156.3" style="fill:none;fill-rule:evenodd;stroke:#000000;stroke-width:1.0px;stroke-linecap:butt;stroke-linejoin:miter;stroke-opacity:1"/>
<path class="bond-2 atom-2 atom-3" d="M 40.9,160.7 L 38.9,158.8" style="fill:none;fill-rule:evenodd;stroke:#000000;stroke-width:1.0px;stroke-linecap:butt;stroke-linejoin:miter;stroke-opacity:1"/>
<path class="bond-2 atom-2 atom-3" d="M 38.5,163.5 L 36.1,161.2" style="fill:none;fill-rule:evenodd;stroke:#000000;stroke-width:1.0px;stroke-linecap:butt;stroke-linejoin:miter;stroke-opacity:1"/>
<path class="bond-2 atom-2 atom-3" d="M 36.1,166.4 L 33.4,163.7" style="fill:none;fill-rule:evenodd;stroke:#000000;stroke-width:1.0px;stroke-linecap:butt;stroke-linejoin:miter;stroke-opacity:1"/>
<path class="bond-2 atom-2 atom-3" d="M 33.7,169.2 L 30.6,166.1" style="fill:none;fill-rule:evenodd;stroke:#000000;stroke-width:1.0px;stroke-linecap:butt;stroke-linejoin:miter;stroke-opacity:1"/>
<path class="bond-3 atom-2 atom-4" d="M 52.9,146.5 L 81.6,153.8" style="fill:none;fill-rule:evenodd;stroke:#000000;stroke-width:2.0px;stroke-linecap:butt;stroke-linejoin:miter;stroke-opacity:1"/>
<path class="bond-4 atom-4 atom-5" d="M 81.6,153.8 L 98.2,136.9" style="fill:none;fill-rule:evenodd;stroke:#000000;stroke-width:2.0px;stroke-linecap:butt;stroke-linejoin:miter;stroke-opacity:1"/>
<path class="bond-5 atom-5 atom-6" d="M 106.5,133.7 L 131.0,140.0" style="fill:none;fill-rule:evenodd;stroke:#000000;stroke-width:2.0px;stroke-linecap:butt;stroke-linejoin:miter;stroke-opacity:1"/>
<path class="bond-6 atom-7 atom-6" d="M 148.9,121.2 L 149.4,121.7" style="fill:none;fill-rule:evenodd;stroke:#000000;stroke-width:1.0px;stroke-linecap:butt;stroke-linejoin:miter;stroke-opacity:1"/>
<path class="bond-6 atom-7 atom-6" d="M 146.1,123.6 L 147.0,124.5" style="fill:none;fill-rule:evenodd;stroke:#000000;stroke-width:1.0px;stroke-linecap:butt;stroke-linejoin:miter;stroke-opacity:1"/>
<path class="bond-6 atom-7 atom-6" d="M 143.3,126.1 L 144.7,127.4" style="fill:none;fill-rule:evenodd;stroke:#000000;stroke-width:1.0px;stroke-linecap:butt;stroke-linejoin:miter;stroke-opacity:1"/>
<path class="bond-6 atom-7 atom-6" d="M 140.5,128.5 L 142.3,130.3" style="fill:none;fill-rule:evenodd;stroke:#000000;stroke-width:1.0px;stroke-linecap:butt;stroke-linejoin:miter;stroke-opacity:1"/>
<path class="bond-6 atom-7 atom-6" d="M 137.7,130.9 L 139.9,133.1" style="fill:none;fill-rule:evenodd;stroke:#000000;stroke-width:1.0px;stroke-linecap:butt;stroke-linejoin:miter;stroke-opacity:1"/>
<path class="bond-6 atom-7 atom-6" d="M 134.9,133.3 L 137.6,136.0" style="fill:none;fill-rule:evenodd;stroke:#000000;stroke-width:1.0px;stroke-linecap:butt;stroke-linejoin:miter;stroke-opacity:1"/>
<path class="bond-6 atom-7 atom-6" d="M 132.0,135.8 L 135.2,138.9" style="fill:none;fill-rule:evenodd;stroke:#000000;stroke-width:1.0px;stroke-linecap:butt;stroke-linejoin:miter;stroke-opacity:1"/>
<path class="bond-7 atom-7 atom-8" d="M 151.7,118.8 L 174.6,99.9" style="fill:none;fill-rule:evenodd;stroke:#000000;stroke-width:2.0px;stroke-linecap:butt;stroke-linejoin:miter;stroke-opacity:1"/>
<path class="bond-8 atom-8 atom-9" d="M 176.6,101.2 L 180.1,82.0" style="fill:none;fill-rule:evenodd;stroke:#000000;stroke-width:2.0px;stroke-linecap:butt;stroke-linejoin:miter;stroke-opacity:1"/>
<path class="bond-8 atom-8 atom-9" d="M 171.9,102.1 L 175.7,81.2" style="fill:none;fill-rule:evenodd;stroke:#000000;stroke-width:2.0px;stroke-linecap:butt;stroke-linejoin:miter;stroke-opacity:1"/>
<path class="bond-9 atom-8 atom-10" d="M 174.6,99.9 L 195.4,113.1" style="fill:none;fill-rule:evenodd;stroke:#000000;stroke-width:2.0px;stroke-linecap:butt;stroke-linejoin:miter;stroke-opacity:1"/>
<path class="bond-10 atom-10 atom-11" d="M 203.8,114.1 L 227.1,104.8" style="fill:none;fill-rule:evenodd;stroke:#000000;stroke-width:2.0px;stroke-linecap:butt;stroke-linejoin:miter;stroke-opacity:1"/>
<path class="bond-11 atom-11 atom-12" d="M 227.1,104.8 L 231.5,75.5" style="fill:none;fill-rule:evenodd;stroke:#000000;stroke-width:2.0px;stroke-linecap:butt;stroke-linejoin:miter;stroke-opacity:1"/>
<path class="bond-11 atom-11 atom-12" d="M 231.9,102.9 L 235.5,78.6" style="fill:none;fill-rule:evenodd;stroke:#000000;stroke-width:2.0px;stroke-linecap:butt;stroke-linejoin:miter;stroke-opacity:1"/>
<path class="bond-12 atom-12 atom-13" d="M 231.5,75.5 L 254.8,66.2" style="fill:none;fill-rule:evenodd;stroke:#000000;stroke-width:2.0px;stroke-linecap:butt;stroke-linejoin:miter;stroke-opacity:1"/>
<path class="bond-13 atom-13 atom-14" d="M 263.2,67.8 L 282.2,82.9" style="fill:none;fill-rule:evenodd;stroke:#000000;stroke-width:2.0px;stroke-linecap:butt;stroke-linejoin:miter;stroke-opacity:1"/>
<path class="bond-13 atom-13 atom-14" d="M 260.4,71.3 L 277.5,84.8" style="fill:none;fill-rule:evenodd;stroke:#000000;stroke-width:2.0px;stroke-linecap:butt;stroke-linejoin:miter;stroke-opacity:1"/>
<path class="bond-14 atom-14 atom-15" d="M 282.2,82.9 L 277.9,112.3" style="fill:none;fill-rule:evenodd;stroke:#000000;stroke-width:2.0px;stroke-linecap:butt;stroke-linejoin:miter;stroke-opacity:1"/>
<path class="bond-15 atom-15 atom-16" d="M 277.9,112.3 L 301.2,130.6" style="fill:none;fill-rule:evenodd;stroke:#000000;stroke-width:2.0px;stroke-linecap:butt;stroke-linejoin:miter;stroke-opacity:1"/>
<path class="bond-15 atom-15 atom-16" d="M 277.2,117.3 L 296.4,132.5" style="fill:none;fill-rule:evenodd;stroke:#000000;stroke-width:2.0px;stroke-linecap:butt;stroke-linejoin:miter;stroke-opacity:1"/>
<path class="bond-16 atom-16 atom-17" d="M 301.2,130.6 L 296.9,160.0" style="fill:none;fill-rule:evenodd;stroke:#000000;stroke-width:2.0px;stroke-linecap:butt;stroke-linejoin:miter;stroke-opacity:1"/>
<path class="bond-17 atom-17 atom-18" d="M 296.9,160.0 L 269.3,170.9" style="fill:none;fill-rule:evenodd;stroke:#000000;stroke-width:2.0px;stroke-linecap:butt;stroke-linejoin:miter;stroke-opacity:1"/>
<path class="bond-17 atom-17 atom-18" d="M 292.9,156.8 L 270.1,165.9" style="fill:none;fill-rule:evenodd;stroke:#000000;stroke-width:2.0px;stroke-linecap:butt;stroke-linejoin:miter;stroke-opacity:1"/>
<path class="bond-18 atom-18 atom-19" d="M 269.3,170.9 L 246.1,152.5" style="fill:none;fill-rule:evenodd;stroke:#000000;stroke-width:2.0px;stroke-linecap:butt;stroke-linejoin:miter;stroke-opacity:1"/>
<path class="bond-19 atom-19 atom-20" d="M 246.1,152.5 L 250.4,123.2" style="fill:none;fill-rule:evenodd;stroke:#000000;stroke-width:2.0px;stroke-linecap:butt;stroke-linejoin:miter;stroke-opacity:1"/>
<path class="bond-19 atom-19 atom-20" d="M 250.8,150.6 L 254.4,126.4" style="fill:none;fill-rule:evenodd;stroke:#000000;stroke-width:2.0px;stroke-linecap:butt;stroke-linejoin:miter;stroke-opacity:1"/>
<path class="bond-20 atom-10 atom-21" d="M 198.3,120.9 L 192.3,144.5" style="fill:none;fill-rule:evenodd;stroke:#000000;stroke-width:2.0px;stroke-linecap:butt;stroke-linejoin:miter;stroke-opacity:1"/>
<path class="bond-21 atom-21 atom-22" d="M 192.3,144.5 L 162.7,146.3" style="fill:none;fill-rule:evenodd;stroke:#000000;stroke-width:2.0px;stroke-linecap:butt;stroke-linejoin:miter;stroke-opacity:1"/>
<path class="bond-22 atom-22 atom-23" d="M 160.9,149.6 L 160.5,149.3" style="fill:none;fill-rule:evenodd;stroke:#000000;stroke-width:1.0px;stroke-linecap:butt;stroke-linejoin:miter;stroke-opacity:1"/>
<path class="bond-22 atom-22 atom-23" d="M 159.2,152.9 L 158.2,152.3" style="fill:none;fill-rule:evenodd;stroke:#000000;stroke-width:1.0px;stroke-linecap:butt;stroke-linejoin:miter;stroke-opacity:1"/>
<path class="bond-22 atom-22 atom-23" d="M 157.4,156.2 L 156.0,155.3" style="fill:none;fill-rule:evenodd;stroke:#000000;stroke-width:1.0px;stroke-linecap:butt;stroke-linejoin:miter;stroke-opacity:1"/>
<path class="bond-22 atom-22 atom-23" d="M 155.7,159.5 L 153.8,158.3" style="fill:none;fill-rule:evenodd;stroke:#000000;stroke-width:1.0px;stroke-linecap:butt;stroke-linejoin:miter;stroke-opacity:1"/>
<path class="bond-22 atom-22 atom-23" d="M 153.9,162.7 L 151.6,161.2" style="fill:none;fill-rule:evenodd;stroke:#000000;stroke-width:1.0px;stroke-linecap:butt;stroke-linejoin:miter;stroke-opacity:1"/>
<path class="bond-22 atom-22 atom-23" d="M 152.2,166.0 L 149.4,164.2" style="fill:none;fill-rule:evenodd;stroke:#000000;stroke-width:1.0px;stroke-linecap:butt;stroke-linejoin:miter;stroke-opacity:1"/>
<path class="bond-22 atom-22 atom-23" d="M 150.4,169.3 L 147.2,167.2" style="fill:none;fill-rule:evenodd;stroke:#000000;stroke-width:1.0px;stroke-linecap:butt;stroke-linejoin:miter;stroke-opacity:1"/>
<path class="bond-22 atom-22 atom-23" d="M 148.7,172.6 L 144.9,170.2" style="fill:none;fill-rule:evenodd;stroke:#000000;stroke-width:1.0px;stroke-linecap:butt;stroke-linejoin:miter;stroke-opacity:1"/>
<path class="bond-23 atom-7 atom-24" d="M 151.7,118.8 L 143.7,90.3" style="fill:none;fill-rule:evenodd;stroke:#000000;stroke-width:2.0px;stroke-linecap:butt;stroke-linejoin:miter;stroke-opacity:1"/>
<path class="bond-24 atom-24 atom-25" d="M 143.7,90.3 L 164.5,69.1" style="fill:none;fill-rule:evenodd;stroke:#000000;stroke-width:2.0px;stroke-linecap:butt;stroke-linejoin:miter;stroke-opacity:1"/>
<path class="bond-24 atom-24 atom-25" d="M 142.4,85.3 L 159.5,67.8" style="fill:none;fill-rule:evenodd;stroke:#000000;stroke-width:2.0px;stroke-linecap:butt;stroke-linejoin:miter;stroke-opacity:1"/>
<path class="bond-25 atom-25 atom-26" d="M 164.5,69.1 L 156.5,40.5" style="fill:none;fill-rule:evenodd;stroke:#000000;stroke-width:2.0px;stroke-linecap:butt;stroke-linejoin:miter;stroke-opacity:1"/>
<path class="bond-26 atom-26 atom-27" d="M 156.5,40.5 L 173.0,23.6" style="fill:none;fill-rule:evenodd;stroke:#000000;stroke-width:2.0px;stroke-linecap:butt;stroke-linejoin:miter;stroke-opacity:1"/>
<path class="bond-27 atom-26 atom-28" d="M 156.5,40.5 L 127.8,33.2" style="fill:none;fill-rule:evenodd;stroke:#000000;stroke-width:2.0px;stroke-linecap:butt;stroke-linejoin:miter;stroke-opacity:1"/>
<path class="bond-27 atom-26 atom-28" d="M 152.9,44.2 L 129.1,38.1" style="fill:none;fill-rule:evenodd;stroke:#000000;stroke-width:2.0px;stroke-linecap:butt;stroke-linejoin:miter;stroke-opacity:1"/>
<path class="bond-28 atom-28 atom-29" d="M 127.8,33.2 L 107.0,54.4" style="fill:none;fill-rule:evenodd;stroke:#000000;stroke-width:2.0px;stroke-linecap:butt;stroke-linejoin:miter;stroke-opacity:1"/>
<path class="bond-29 atom-29 atom-30" d="M 107.0,54.4 L 115.0,82.9" style="fill:none;fill-rule:evenodd;stroke:#000000;stroke-width:2.0px;stroke-linecap:butt;stroke-linejoin:miter;stroke-opacity:1"/>
<path class="bond-29 atom-29 atom-30" d="M 112.0,55.6 L 118.6,79.3" style="fill:none;fill-rule:evenodd;stroke:#000000;stroke-width:2.0px;stroke-linecap:butt;stroke-linejoin:miter;stroke-opacity:1"/>
<path class="bond-30 atom-30 atom-31" d="M 115.0,82.9 L 94.3,104.1" style="fill:none;fill-rule:evenodd;stroke:#000000;stroke-width:2.0px;stroke-linecap:butt;stroke-linejoin:miter;stroke-opacity:1"/>
<path class="bond-31 atom-31 atom-32" d="M 96.1,102.3 L 71.0,95.8" style="fill:none;fill-rule:evenodd;stroke:#000000;stroke-width:2.0px;stroke-linecap:butt;stroke-linejoin:miter;stroke-opacity:1"/>
<path class="bond-31 atom-31 atom-32" d="M 95.0,106.6 L 69.9,100.1" style="fill:none;fill-rule:evenodd;stroke:#000000;stroke-width:2.0px;stroke-linecap:butt;stroke-linejoin:miter;stroke-opacity:1"/>
<path class="bond-32 atom-31 atom-5" d="M 94.3,104.1 L 100.9,127.5" style="fill:none;fill-rule:evenodd;stroke:#000000;stroke-width:2.0px;stroke-linecap:butt;stroke-linejoin:miter;stroke-opacity:1"/>
<path class="bond-33 atom-22 atom-7" d="M 162.7,146.3 L 151.7,118.8" style="fill:none;fill-rule:evenodd;stroke:#000000;stroke-width:2.0px;stroke-linecap:butt;stroke-linejoin:miter;stroke-opacity:1"/>
<path class="bond-34 atom-30 atom-24" d="M 115.0,82.9 L 143.7,90.3" style="fill:none;fill-rule:evenodd;stroke:#000000;stroke-width:2.0px;stroke-linecap:butt;stroke-linejoin:miter;stroke-opacity:1"/>
<path class="bond-35 atom-20 atom-11" d="M 250.4,123.2 L 227.1,104.8" style="fill:none;fill-rule:evenodd;stroke:#000000;stroke-width:2.0px;stroke-linecap:butt;stroke-linejoin:miter;stroke-opacity:1"/>
<path class="bond-36 atom-20 atom-15" d="M 250.4,123.2 L 277.9,112.3" style="fill:none;fill-rule:evenodd;stroke:#000000;stroke-width:2.0px;stroke-linecap:butt;stroke-linejoin:miter;stroke-opacity:1"/>
<path d="M 52.5,145.3 L 52.9,146.5 L 54.3,146.9" style="fill:none;stroke:#000000;stroke-width:2.0px;stroke-linecap:butt;stroke-linejoin:miter;stroke-miterlimit:10;stroke-opacity:1;"/>
<path d="M 80.2,153.5 L 81.6,153.8 L 82.4,153.0" style="fill:none;stroke:#000000;stroke-width:2.0px;stroke-linecap:butt;stroke-linejoin:miter;stroke-miterlimit:10;stroke-opacity:1;"/>
<path d="M 173.4,100.8 L 174.6,99.9 L 175.6,100.5" style="fill:none;stroke:#000000;stroke-width:2.0px;stroke-linecap:butt;stroke-linejoin:miter;stroke-miterlimit:10;stroke-opacity:1;"/>
<path d="M 231.2,76.9 L 231.5,75.5 L 232.6,75.0" style="fill:none;stroke:#000000;stroke-width:2.0px;stroke-linecap:butt;stroke-linejoin:miter;stroke-miterlimit:10;stroke-opacity:1;"/>
<path d="M 281.3,82.2 L 282.2,82.9 L 282.0,84.4" style="fill:none;stroke:#000000;stroke-width:2.0px;stroke-linecap:butt;stroke-linejoin:miter;stroke-miterlimit:10;stroke-opacity:1;"/>
<path d="M 300.0,129.7 L 301.2,130.6 L 301.0,132.1" style="fill:none;stroke:#000000;stroke-width:2.0px;stroke-linecap:butt;stroke-linejoin:miter;stroke-miterlimit:10;stroke-opacity:1;"/>
<path d="M 297.1,158.5 L 296.9,160.0 L 295.5,160.5" style="fill:none;stroke:#000000;stroke-width:2.0px;stroke-linecap:butt;stroke-linejoin:miter;stroke-miterlimit:10;stroke-opacity:1;"/>
<path d="M 270.7,170.4 L 269.3,170.9 L 268.2,170.0" style="fill:none;stroke:#000000;stroke-width:2.0px;stroke-linecap:butt;stroke-linejoin:miter;stroke-miterlimit:10;stroke-opacity:1;"/>
<path d="M 247.2,153.4 L 246.1,152.5 L 246.3,151.1" style="fill:none;stroke:#000000;stroke-width:2.0px;stroke-linecap:butt;stroke-linejoin:miter;stroke-miterlimit:10;stroke-opacity:1;"/>
<path d="M 192.6,143.3 L 192.3,144.5 L 190.8,144.5" style="fill:none;stroke:#000000;stroke-width:2.0px;stroke-linecap:butt;stroke-linejoin:miter;stroke-miterlimit:10;stroke-opacity:1;"/>
<path d="M 164.2,146.2 L 162.7,146.3 L 162.1,145.0" style="fill:none;stroke:#000000;stroke-width:2.0px;stroke-linecap:butt;stroke-linejoin:miter;stroke-miterlimit:10;stroke-opacity:1;"/>
<path d="M 163.4,70.1 L 164.5,69.1 L 164.1,67.6" style="fill:none;stroke:#000000;stroke-width:2.0px;stroke-linecap:butt;stroke-linejoin:miter;stroke-miterlimit:10;stroke-opacity:1;"/>
<path d="M 129.2,33.5 L 127.8,33.2 L 126.7,34.2" style="fill:none;stroke:#000000;stroke-width:2.0px;stroke-linecap:butt;stroke-linejoin:miter;stroke-miterlimit:10;stroke-opacity:1;"/>
<path d="M 108.1,53.3 L 107.0,54.4 L 107.4,55.8" style="fill:none;stroke:#000000;stroke-width:2.0px;stroke-linecap:butt;stroke-linejoin:miter;stroke-miterlimit:10;stroke-opacity:1;"/>
<path d="M 95.3,103.0 L 94.3,104.1 L 94.6,105.3" style="fill:none;stroke:#000000;stroke-width:2.0px;stroke-linecap:butt;stroke-linejoin:miter;stroke-miterlimit:10;stroke-opacity:1;"/>
<path class="atom-1" d="M 41.0 118.0 Q 41.0 116.0, 42.0 114.8 Q 43.0 113.7, 44.9 113.7 Q 46.7 113.7, 47.7 114.8 Q 48.7 116.0, 48.7 118.0 Q 48.7 120.0, 47.7 121.2 Q 46.7 122.3, 44.9 122.3 Q 43.0 122.3, 42.0 121.2 Q 41.0 120.0, 41.0 118.0 M 44.9 121.4 Q 46.2 121.4, 46.8 120.5 Q 47.5 119.7, 47.5 118.0 Q 47.5 116.3, 46.8 115.5 Q 46.2 114.7, 44.9 114.7 Q 43.6 114.7, 42.9 115.5 Q 42.2 116.3, 42.2 118.0 Q 42.2 119.7, 42.9 120.5 Q 43.6 121.4, 44.9 121.4 " fill="#000000"/>
<path class="atom-5" d="M 100.5 128.4 L 103.2 132.9 Q 103.5 133.3, 103.9 134.1 Q 104.4 134.9, 104.4 135.0 L 104.4 128.4 L 105.5 128.4 L 105.5 136.8 L 104.3 136.8 L 101.4 132.0 Q 101.0 131.4, 100.7 130.8 Q 100.3 130.1, 100.2 129.9 L 100.2 136.8 L 99.1 136.8 L 99.1 128.4 L 100.5 128.4 " fill="#000000"/>
<path class="atom-9" d="M 175.0 76.3 Q 175.0 74.3, 176.0 73.1 Q 177.0 72.0, 178.9 72.0 Q 180.7 72.0, 181.7 73.1 Q 182.7 74.3, 182.7 76.3 Q 182.7 78.3, 181.7 79.5 Q 180.7 80.6, 178.9 80.6 Q 177.0 80.6, 176.0 79.5 Q 175.0 78.3, 175.0 76.3 M 178.9 79.7 Q 180.2 79.7, 180.8 78.8 Q 181.5 78.0, 181.5 76.3 Q 181.5 74.6, 180.8 73.8 Q 180.2 73.0, 178.9 73.0 Q 177.6 73.0, 176.9 73.8 Q 176.2 74.6, 176.2 76.3 Q 176.2 78.0, 176.9 78.8 Q 177.6 79.7, 178.9 79.7 " fill="#000000"/>
<path class="atom-10" d="M 197.7 111.5 L 200.5 116.0 Q 200.8 116.4, 201.2 117.2 Q 201.6 118.0, 201.7 118.1 L 201.7 111.5 L 202.8 111.5 L 202.8 119.9 L 201.6 119.9 L 198.7 115.1 Q 198.3 114.5, 198.0 113.9 Q 197.6 113.2, 197.5 113.0 L 197.5 119.9 L 196.4 119.9 L 196.4 111.5 L 197.7 111.5 " fill="#000000"/>
<path class="atom-13" d="M 257.1 60.3 L 259.9 64.8 Q 260.2 65.2, 260.6 66.0 Q 261.0 66.8, 261.1 66.9 L 261.1 60.3 L 262.2 60.3 L 262.2 68.7 L 261.0 68.7 L 258.1 63.9 Q 257.7 63.3, 257.4 62.7 Q 257.0 62.0, 256.9 61.8 L 256.9 68.7 L 255.8 68.7 L 255.8 60.3 L 257.1 60.3 " fill="#000000"/>
<path class="atom-27" d="M 174.0 19.6 Q 174.0 17.5, 174.9 16.4 Q 175.9 15.3, 177.8 15.3 Q 179.5 15.3, 180.4 16.6 L 179.6 17.2 Q 179.0 16.3, 177.8 16.3 Q 176.5 16.3, 175.8 17.2 Q 175.2 18.0, 175.2 19.6 Q 175.2 21.3, 175.8 22.1 Q 176.5 23.0, 177.9 23.0 Q 178.8 23.0, 179.9 22.4 L 180.2 23.3 Q 179.8 23.6, 179.1 23.8 Q 178.5 23.9, 177.7 23.9 Q 175.9 23.9, 174.9 22.8 Q 174.0 21.7, 174.0 19.6 " fill="#000000"/>
<path class="atom-27" d="M 181.3 14.8 L 182.4 14.8 L 182.4 23.8 L 181.3 23.8 L 181.3 14.8 " fill="#000000"/>
<path class="atom-32" d="M 61.7 96.8 Q 61.7 94.8, 62.7 93.6 Q 63.7 92.5, 65.6 92.5 Q 67.5 92.5, 68.5 93.6 Q 69.5 94.8, 69.5 96.8 Q 69.5 98.8, 68.4 100.0 Q 67.4 101.1, 65.6 101.1 Q 63.7 101.1, 62.7 100.0 Q 61.7 98.8, 61.7 96.8 M 65.6 100.2 Q 66.9 100.2, 67.6 99.3 Q 68.3 98.5, 68.3 96.8 Q 68.3 95.1, 67.6 94.3 Q 66.9 93.5, 65.6 93.5 Q 64.3 93.5, 63.6 94.3 Q 62.9 95.1, 62.9 96.8 Q 62.9 98.5, 63.6 99.3 Q 64.3 100.2, 65.6 100.2 " fill="#000000"/>
<path class="legend" d="M 31.6 186.1 Q 33.3 186.1, 34.3 187.1 Q 35.2 188.2, 35.2 190.2 Q 35.2 192.2, 34.1 193.4 Q 33.0 194.6, 31.0 194.6 Q 30.1 194.6, 29.3 194.3 L 29.3 198.3 L 27.8 198.3 L 27.8 186.2 L 29.0 186.2 L 29.2 187.2 Q 29.6 186.6, 30.2 186.3 Q 30.8 186.1, 31.6 186.1 M 31.0 193.4 Q 32.2 193.4, 33.0 192.5 Q 33.7 191.7, 33.7 190.2 Q 33.7 188.8, 33.1 188.0 Q 32.5 187.2, 31.5 187.2 Q 30.7 187.2, 30.1 187.7 Q 29.5 188.1, 29.3 188.9 L 29.3 193.1 Q 30.1 193.4, 31.0 193.4 " fill="#000000"/>
<path class="legend" d="M 37.6 186.2 L 37.8 187.3 Q 38.6 186.1, 40.0 186.1 Q 40.5 186.1, 41.1 186.2 L 40.9 187.6 Q 40.2 187.4, 39.8 187.4 Q 39.1 187.4, 38.7 187.7 Q 38.2 187.9, 37.9 188.6 L 37.9 194.4 L 36.4 194.4 L 36.4 186.2 L 37.6 186.2 " fill="#000000"/>
<path class="legend" d="M 41.8 190.3 Q 41.8 188.3, 42.8 187.2 Q 43.8 186.1, 45.6 186.1 Q 47.5 186.1, 48.3 187.2 Q 49.1 188.2, 49.1 190.3 L 49.1 190.5 L 43.3 190.5 Q 43.4 191.9, 44.0 192.6 Q 44.6 193.4, 45.8 193.4 Q 46.4 193.4, 47.0 193.2 Q 47.6 193.1, 48.3 192.8 L 48.8 193.8 Q 47.9 194.2, 47.2 194.4 Q 46.5 194.6, 45.7 194.6 Q 43.8 194.6, 42.8 193.4 Q 41.8 192.3, 41.8 190.3 M 45.6 187.2 Q 44.7 187.2, 44.1 187.8 Q 43.6 188.3, 43.4 189.4 L 47.5 189.4 Q 47.4 188.3, 46.9 187.8 Q 46.5 187.2, 45.6 187.2 " fill="#000000"/>
<path class="legend" d="M 57.6 182.3 L 57.6 194.4 L 56.4 194.4 L 56.2 193.4 Q 55.3 194.6, 53.7 194.6 Q 52.0 194.6, 51.1 193.5 Q 50.1 192.4, 50.1 190.4 Q 50.1 188.4, 51.3 187.2 Q 52.4 186.1, 54.4 186.1 Q 55.2 186.1, 56.1 186.3 L 56.1 182.3 L 57.6 182.3 M 53.8 193.4 Q 54.7 193.4, 55.3 192.9 Q 55.9 192.5, 56.1 191.6 L 56.1 187.5 Q 55.3 187.2, 54.4 187.2 Q 53.1 187.2, 52.4 188.1 Q 51.7 188.9, 51.7 190.4 Q 51.7 191.9, 52.2 192.6 Q 52.8 193.4, 53.8 193.4 " fill="#000000"/>
<path class="legend" d="M 59.3 192.8 L 60.9 192.8 L 60.9 194.4 L 59.3 194.4 L 59.3 192.8 " fill="#000000"/>
<path class="legend" d="" fill="#000000"/>
<path class="legend" d="M 72.0 186.1 Q 73.7 186.1, 74.7 187.1 Q 75.6 188.2, 75.6 190.2 Q 75.6 192.2, 74.5 193.4 Q 73.4 194.6, 71.4 194.6 Q 70.5 194.6, 69.7 194.3 L 69.7 198.3 L 68.2 198.3 L 68.2 186.2 L 69.4 186.2 L 69.6 187.2 Q 70.0 186.6, 70.7 186.3 Q 71.3 186.1, 72.0 186.1 M 71.4 193.4 Q 72.7 193.4, 73.4 192.5 Q 74.1 191.7, 74.1 190.2 Q 74.1 188.8, 73.5 188.0 Q 73.0 187.2, 71.9 187.2 Q 71.1 187.2, 70.5 187.7 Q 69.9 188.1, 69.7 188.9 L 69.7 193.1 Q 70.5 193.4, 71.4 193.4 " fill="#000000"/>
<path class="legend" d="M 76.8 183.1 L 78.3 183.1 L 78.3 194.4 L 76.8 194.4 L 76.8 183.1 " fill="#000000"/>
<path class="legend" d="M 86.9 191.1 Q 86.9 192.3, 86.2 193.0 Q 85.6 193.7, 84.4 193.9 L 84.4 195.8 L 83.1 195.8 L 83.1 194.0 Q 81.8 194.0, 80.4 193.4 L 80.2 193.3 L 80.7 192.0 L 81.0 192.1 Q 81.6 192.4, 82.1 192.5 Q 82.7 192.7, 83.3 192.7 Q 84.2 192.7, 84.8 192.3 Q 85.3 191.9, 85.3 191.1 Q 85.3 190.6, 85.0 190.3 Q 84.8 190.0, 84.4 189.9 Q 83.9 189.7, 83.2 189.5 Q 82.3 189.2, 81.8 189.0 Q 81.2 188.7, 80.8 188.2 Q 80.4 187.6, 80.4 186.7 Q 80.4 185.6, 81.1 184.9 Q 81.7 184.1, 83.1 183.9 L 83.1 182.0 L 84.4 182.0 L 84.4 183.9 Q 85.5 184.0, 86.6 184.4 L 86.2 185.7 Q 85.0 185.2, 84.0 185.2 Q 83.1 185.2, 82.5 185.6 Q 82.0 185.9, 82.0 186.5 Q 82.0 187.0, 82.3 187.3 Q 82.6 187.6, 83.0 187.8 Q 83.4 188.0, 84.0 188.2 Q 85.0 188.4, 85.5 188.7 Q 86.1 189.0, 86.5 189.6 Q 86.9 190.1, 86.9 191.1 " fill="#000000"/>
<path class="legend" d="M 96.6 195.2 L 96.6 196.5 L 88.4 196.5 L 88.4 195.2 L 96.6 195.2 " fill="#000000"/>
<path class="legend" d="M 101.2 187.3 Q 102.2 187.3, 103.0 187.8 Q 103.8 188.2, 104.3 189.0 Q 104.7 189.8, 104.7 190.8 Q 104.7 192.0, 104.1 192.9 Q 103.6 193.7, 102.7 194.1 Q 101.7 194.6, 100.7 194.6 Q 99.6 194.6, 98.7 194.2 Q 97.7 193.8, 97.1 193.1 L 98.0 192.1 Q 98.5 192.6, 99.3 193.0 Q 100.0 193.3, 100.7 193.3 Q 101.7 193.3, 102.4 192.6 Q 103.1 192.0, 103.1 190.9 Q 103.1 189.7, 102.4 189.1 Q 101.7 188.5, 100.6 188.5 Q 99.6 188.5, 98.5 189.0 L 97.6 188.6 L 98.2 183.1 L 104.0 183.1 L 103.9 184.4 L 99.5 184.4 L 99.2 187.7 Q 100.2 187.3, 101.2 187.3 " fill="#000000"/>
<path class="legend" d="M 112.6 191.1 Q 112.6 192.3, 112.0 193.0 Q 111.3 193.7, 110.1 193.9 L 110.1 195.8 L 108.8 195.8 L 108.8 194.0 Q 107.6 194.0, 106.1 193.4 L 105.9 193.3 L 106.4 192.0 L 106.7 192.1 Q 107.3 192.4, 107.9 192.5 Q 108.4 192.7, 109.1 192.7 Q 110.0 192.7, 110.5 192.3 Q 111.1 191.9, 111.1 191.1 Q 111.1 190.6, 110.8 190.3 Q 110.5 190.0, 110.1 189.9 Q 109.7 189.7, 109.0 189.5 Q 108.1 189.2, 107.5 189.0 Q 107.0 188.7, 106.6 188.2 Q 106.2 187.6, 106.2 186.7 Q 106.2 185.6, 106.8 184.9 Q 107.5 184.1, 108.8 183.9 L 108.8 182.0 L 110.1 182.0 L 110.1 183.9 Q 111.2 184.0, 112.3 184.4 L 112.0 185.7 Q 110.7 185.2, 109.8 185.2 Q 108.8 185.2, 108.3 185.6 Q 107.8 185.9, 107.8 186.5 Q 107.8 187.0, 108.1 187.3 Q 108.3 187.6, 108.7 187.8 Q 109.1 188.0, 109.8 188.2 Q 110.7 188.4, 111.3 188.7 Q 111.8 189.0, 112.2 189.6 Q 112.6 190.1, 112.6 191.1 " fill="#000000"/>
<path class="legend" d="M 114.2 192.6 L 115.8 192.6 L 115.8 194.2 L 114.2 194.2 L 114.2 192.6 M 114.2 187.1 L 115.8 187.1 L 115.8 188.7 L 114.2 188.7 L 114.2 187.1 " fill="#000000"/>
<path class="legend" d="" fill="#000000"/>
<path class="legend" d="M 127.7 187.4 Q 128.7 187.4, 129.4 187.8 Q 130.2 188.2, 130.7 189.0 Q 131.1 189.8, 131.1 190.8 Q 131.1 191.9, 130.6 192.8 Q 130.1 193.6, 129.2 194.1 Q 128.4 194.6, 127.3 194.6 Q 125.3 194.6, 124.2 193.2 Q 123.2 191.8, 123.2 189.1 Q 123.2 186.1, 124.5 184.5 Q 125.7 183.0, 128.2 183.0 Q 128.9 183.0, 129.5 183.1 Q 130.1 183.3, 130.6 183.6 L 130.0 184.7 Q 129.2 184.3, 128.2 184.3 Q 126.6 184.3, 125.8 185.3 Q 124.9 186.3, 124.8 188.4 Q 125.4 187.9, 126.1 187.6 Q 126.9 187.4, 127.7 187.4 M 127.3 193.2 Q 127.9 193.2, 128.4 192.9 Q 128.9 192.6, 129.2 192.0 Q 129.5 191.5, 129.5 190.8 Q 129.5 189.8, 128.9 189.2 Q 128.4 188.6, 127.4 188.6 Q 126.7 188.6, 126.0 188.9 Q 125.3 189.2, 124.8 189.7 Q 124.9 191.6, 125.5 192.4 Q 126.1 193.2, 127.3 193.2 " fill="#000000"/>
<path class="legend" d="M 132.4 192.8 L 134.0 192.8 L 134.0 194.4 L 132.4 194.4 L 132.4 192.8 " fill="#000000"/>
<path class="legend" d="M 141.4 184.4 L 135.5 184.4 L 135.5 183.1 L 143.0 183.1 L 143.0 184.2 L 138.4 194.4 L 136.9 194.4 L 141.4 184.4 " fill="#000000"/>
<path class="legend" d="M 147.7 183.0 Q 149.8 183.0, 150.8 184.4 Q 151.8 185.7, 151.8 188.4 Q 151.8 191.4, 150.5 193.0 Q 149.3 194.6, 146.9 194.6 Q 146.2 194.6, 145.6 194.4 Q 145.0 194.2, 144.4 193.9 L 145.0 192.8 Q 145.8 193.3, 146.8 193.3 Q 148.4 193.3, 149.3 192.3 Q 150.1 191.2, 150.2 189.1 Q 149.6 189.6, 148.9 189.9 Q 148.1 190.2, 147.4 190.2 Q 146.4 190.2, 145.6 189.7 Q 144.8 189.3, 144.4 188.5 Q 143.9 187.7, 143.9 186.8 Q 143.9 185.6, 144.4 184.8 Q 144.9 183.9, 145.8 183.5 Q 146.6 183.0, 147.7 183.0 M 145.5 186.7 Q 145.5 187.7, 146.1 188.3 Q 146.7 188.9, 147.6 188.9 Q 148.3 188.9, 149.0 188.6 Q 149.7 188.3, 150.2 187.9 Q 150.1 186.0, 149.5 185.1 Q 148.9 184.3, 147.7 184.3 Q 147.1 184.3, 146.6 184.6 Q 146.1 184.9, 145.8 185.5 Q 145.5 186.0, 145.5 186.7 " fill="#000000"/>
<path class="legend" d="" fill="#000000"/>
<path class="legend" d="" fill="#000000"/>
<path class="legend" d="" fill="#000000"/>
<path class="legend" d="" fill="#000000"/>
<path class="legend" d="" fill="#000000"/>
<path class="legend" d="M 182.2 190.3 Q 182.2 188.3, 183.3 187.2 Q 184.3 186.1, 186.1 186.1 Q 187.9 186.1, 188.7 187.2 Q 189.5 188.2, 189.5 190.3 L 189.5 190.5 L 183.8 190.5 Q 183.8 191.9, 184.4 192.6 Q 185.1 193.4, 186.2 193.4 Q 186.9 193.4, 187.5 193.2 Q 188.1 193.1, 188.8 192.8 L 189.2 193.8 Q 188.4 194.2, 187.7 194.4 Q 186.9 194.6, 186.1 194.6 Q 184.3 194.6, 183.3 193.4 Q 182.2 192.3, 182.2 190.3 M 186.1 187.2 Q 185.2 187.2, 184.6 187.8 Q 184.0 188.3, 183.8 189.4 L 187.9 189.4 Q 187.8 188.3, 187.4 187.8 Q 186.9 187.2, 186.1 187.2 " fill="#000000"/>
<path class="legend" d="M 193.6 190.2 L 190.8 186.2 L 192.5 186.2 L 194.5 189.0 L 196.5 186.2 L 198.1 186.2 L 195.3 190.2 L 198.3 194.4 L 196.6 194.4 L 194.4 191.3 L 192.2 194.4 L 190.6 194.4 L 193.6 190.2 " fill="#000000"/>
<path class="legend" d="M 202.8 186.1 Q 204.5 186.1, 205.4 187.1 Q 206.4 188.2, 206.4 190.2 Q 206.4 192.2, 205.2 193.4 Q 204.1 194.6, 202.1 194.6 Q 201.2 194.6, 200.4 194.3 L 200.4 198.3 L 198.9 198.3 L 198.9 186.2 L 200.1 186.2 L 200.3 187.2 Q 200.8 186.6, 201.4 186.3 Q 202.0 186.1, 202.8 186.1 M 202.1 193.4 Q 203.4 193.4, 204.1 192.5 Q 204.8 191.7, 204.8 190.2 Q 204.8 188.8, 204.3 188.0 Q 203.7 187.2, 202.7 187.2 Q 201.8 187.2, 201.3 187.7 Q 200.7 188.1, 200.4 188.9 L 200.4 193.1 Q 201.3 193.4, 202.1 193.4 " fill="#000000"/>
<path class="legend" d="M 207.5 192.8 L 209.1 192.8 L 209.1 194.4 L 207.5 194.4 L 207.5 192.8 " fill="#000000"/>
<path class="legend" d="" fill="#000000"/>
<path class="legend" d="M 220.2 186.1 Q 222.0 186.1, 222.9 187.1 Q 223.9 188.2, 223.9 190.2 Q 223.9 192.2, 222.7 193.4 Q 221.6 194.6, 219.6 194.6 Q 218.7 194.6, 217.9 194.3 L 217.9 198.3 L 216.4 198.3 L 216.4 186.2 L 217.6 186.2 L 217.8 187.2 Q 218.3 186.6, 218.9 186.3 Q 219.5 186.1, 220.2 186.1 M 219.6 193.4 Q 220.9 193.4, 221.6 192.5 Q 222.3 191.7, 222.3 190.2 Q 222.3 188.8, 221.7 188.0 Q 221.2 187.2, 220.1 187.2 Q 219.3 187.2, 218.7 187.7 Q 218.2 188.1, 217.9 188.9 L 217.9 193.1 Q 218.7 193.4, 219.6 193.4 " fill="#000000"/>
<path class="legend" d="M 225.0 183.1 L 226.5 183.1 L 226.5 194.4 L 225.0 194.4 L 225.0 183.1 " fill="#000000"/>
<path class="legend" d="M 228.4 188.8 Q 228.4 185.9, 229.7 184.5 Q 231.0 183.0, 233.6 183.0 Q 235.9 183.0, 237.1 184.6 L 236.1 185.5 Q 235.2 184.3, 233.6 184.3 Q 231.8 184.3, 230.9 185.4 Q 230.0 186.6, 230.0 188.8 Q 230.0 191.0, 231.0 192.1 Q 231.9 193.3, 233.7 193.3 Q 235.0 193.3, 236.4 192.5 L 236.9 193.7 Q 236.3 194.1, 235.4 194.3 Q 234.5 194.6, 233.5 194.6 Q 231.0 194.6, 229.7 193.1 Q 228.4 191.6, 228.4 188.8 " fill="#000000"/>
<path class="legend" d="M 242.3 187.3 Q 243.3 187.3, 244.1 187.8 Q 245.0 188.2, 245.4 189.0 Q 245.9 189.8, 245.9 190.8 Q 245.9 192.0, 245.3 192.9 Q 244.8 193.7, 243.8 194.1 Q 242.9 194.6, 241.8 194.6 Q 240.8 194.6, 239.8 194.2 Q 238.9 193.8, 238.2 193.1 L 239.2 192.1 Q 239.7 192.6, 240.4 193.0 Q 241.2 193.3, 241.9 193.3 Q 242.9 193.3, 243.6 192.6 Q 244.3 192.0, 244.3 190.9 Q 244.3 189.7, 243.6 189.1 Q 242.9 188.5, 241.8 188.5 Q 240.8 188.5, 239.7 189.0 L 238.8 188.6 L 239.4 183.1 L 245.2 183.1 L 245.0 184.4 L 240.7 184.4 L 240.3 187.7 Q 241.3 187.3, 242.3 187.3 " fill="#000000"/>
<path class="legend" d="M 251.3 194.6 Q 249.2 194.6, 248.1 193.0 Q 247.1 191.5, 247.1 188.8 Q 247.1 186.0, 248.1 184.5 Q 249.2 183.0, 251.3 183.0 Q 253.3 183.0, 254.4 184.5 Q 255.4 186.0, 255.4 188.8 Q 255.4 191.5, 254.4 193.0 Q 253.3 194.6, 251.3 194.6 M 251.3 193.3 Q 252.5 193.3, 253.1 192.1 Q 253.8 191.0, 253.8 188.8 Q 253.8 186.5, 253.1 185.4 Q 252.5 184.3, 251.3 184.3 Q 250.0 184.3, 249.4 185.4 Q 248.7 186.5, 248.7 188.8 Q 248.7 191.0, 249.4 192.1 Q 250.0 193.3, 251.3 193.3 " fill="#000000"/>
<path class="legend" d="M 256.9 192.6 L 258.5 192.6 L 258.5 194.2 L 256.9 194.2 L 256.9 192.6 M 256.9 187.1 L 258.5 187.1 L 258.5 188.7 L 256.9 188.7 L 256.9 187.1 " fill="#000000"/>
<path class="legend" d="" fill="#000000"/>
<path class="legend" d="M 271.9 184.4 L 265.9 184.4 L 265.9 183.1 L 273.4 183.1 L 273.4 184.2 L 268.9 194.4 L 267.3 194.4 L 271.9 184.4 " fill="#000000"/>
<path class="legend" d="M 274.4 192.8 L 276.0 192.8 L 276.0 194.4 L 274.4 194.4 L 274.4 192.8 " fill="#000000"/>
<path class="legend" d="M 278.1 193.2 L 280.5 193.2 L 280.5 184.7 L 277.8 185.5 L 277.4 184.6 L 280.9 183.0 L 282.0 183.2 L 282.0 193.2 L 284.3 193.2 L 284.3 194.4 L 278.1 194.4 L 278.1 193.2 " fill="#000000"/>
<path class="legend" d="M 286.0 193.2 L 288.5 193.2 L 288.5 184.7 L 285.8 185.5 L 285.4 184.6 L 288.9 183.0 L 290.0 183.2 L 290.0 193.2 L 292.2 193.2 L 292.2 194.4 L 286.0 194.4 L 286.0 193.2 " fill="#000000"/>
</svg>