<svg xmlns="http://www.w3.org/2000/svg" xmlns:rdkit="http://www.rdkit.org/xml" xmlns:xlink="http://www.w3.org/1999/xlink" version="1.1" baseProfile="full" xml:space="preserve" width="360px" height="272px" viewBox="0 0 360 272">
<!-- END OF HEADER -->
<rect style="opacity:1.0;fill:#FFFFFF;stroke:none" width="360.0" height="272.0" x="0.0" y="0.0"> </rect>
<ellipse cx="299.8" cy="169.5" rx="9.6" ry="9.6" class="atom-0" style="fill:#7F7FFF;fill-rule:evenodd;stroke:#7F7FFF;stroke-width:1.0px;stroke-linecap:butt;stroke-linejoin:miter;stroke-opacity:1"/>
<ellipse cx="276.5" cy="151.2" rx="9.6" ry="9.6" class="atom-1" style="fill:#7F7FFF;fill-rule:evenodd;stroke:#7F7FFF;stroke-width:1.0px;stroke-linecap:butt;stroke-linejoin:miter;stroke-opacity:1"/>
<ellipse cx="284.7" cy="122.8" rx="9.6" ry="9.6" class="atom-2" style="fill:#7F7FFF;fill-rule:evenodd;stroke:#7F7FFF;stroke-width:1.0px;stroke-linecap:butt;stroke-linejoin:miter;stroke-opacity:1"/>
<ellipse cx="260.2" cy="106.3" rx="9.6" ry="9.6" class="atom-3" style="fill:#7F7FFF;fill-rule:evenodd;stroke:#7F7FFF;stroke-width:1.0px;stroke-linecap:butt;stroke-linejoin:miter;stroke-opacity:1"/>
<ellipse cx="259.2" cy="76.7" rx="2.3" ry="2.3" class="atom-4" style="fill:#FF7F7F;fill-rule:evenodd;stroke:#FF7F7F;stroke-width:1.0px;stroke-linecap:butt;stroke-linejoin:miter;stroke-opacity:1"/>
<ellipse cx="233.2" cy="62.8" rx="2.3" ry="2.3" class="atom-5" style="fill:#FF7F7F;fill-rule:evenodd;stroke:#FF7F7F;stroke-width:1.0px;stroke-linecap:butt;stroke-linejoin:miter;stroke-opacity:1"/>
<ellipse cx="232.2" cy="33.3" rx="2.3" ry="2.3" class="atom-6" style="fill:#FF7F7F;fill-rule:evenodd;stroke:#FF7F7F;stroke-width:1.0px;stroke-linecap:butt;stroke-linejoin:miter;stroke-opacity:1"/>
<ellipse cx="257.3" cy="17.6" rx="2.3" ry="2.3" class="atom-7" style="fill:#FF7F7F;fill-rule:evenodd;stroke:#FF7F7F;stroke-width:1.0px;stroke-linecap:butt;stroke-linejoin:miter;stroke-opacity:1"/>
<ellipse cx="283.3" cy="31.5" rx="2.3" ry="2.3" class="atom-8" style="fill:#FF7F7F;fill-rule:evenodd;stroke:#FF7F7F;stroke-width:1.0px;stroke-linecap:butt;stroke-linejoin:miter;stroke-opacity:1"/>
<ellipse cx="308.4" cy="15.9" rx="2.3" ry="2.3" class="atom-9" style="fill:#FF7F7F;fill-rule:evenodd;stroke:#FF7F7F;stroke-width:1.0px;stroke-linecap:butt;stroke-linejoin:miter;stroke-opacity:1"/>
<ellipse cx="334.5" cy="29.8" rx="2.3" ry="2.3" class="atom-10" style="fill:#FF7F7F;fill-rule:evenodd;stroke:#FF7F7F;stroke-width:1.0px;stroke-linecap:butt;stroke-linejoin:miter;stroke-opacity:1"/>
<ellipse cx="335.5" cy="59.4" rx="2.3" ry="2.3" class="atom-11" style="fill:#FF7F7F;fill-rule:evenodd;stroke:#FF7F7F;stroke-width:1.0px;stroke-linecap:butt;stroke-linejoin:miter;stroke-opacity:1"/>
<ellipse cx="310.4" cy="75.0" rx="2.3" ry="2.3" class="atom-12" style="fill:#FF7F7F;fill-rule:evenodd;stroke:#FF7F7F;stroke-width:1.0px;stroke-linecap:butt;stroke-linejoin:miter;stroke-opacity:1"/>
<ellipse cx="284.3" cy="61.1" rx="2.3" ry="2.3" class="atom-13" style="fill:#FF7F7F;fill-rule:evenodd;stroke:#FF7F7F;stroke-width:1.0px;stroke-linecap:butt;stroke-linejoin:miter;stroke-opacity:1"/>
<ellipse cx="236.9" cy="124.4" rx="9.6" ry="9.6" class="atom-14" style="fill:#7F7FFF;fill-rule:evenodd;stroke:#7F7FFF;stroke-width:1.0px;stroke-linecap:butt;stroke-linejoin:miter;stroke-opacity:1"/>
<ellipse cx="208.5" cy="116.3" rx="9.6" ry="9.6" class="atom-15" style="fill:#7F7FFF;fill-rule:evenodd;stroke:#7F7FFF;stroke-width:1.0px;stroke-linecap:butt;stroke-linejoin:miter;stroke-opacity:1"/>
<ellipse cx="247.0" cy="152.2" rx="9.6" ry="9.6" class="atom-16" style="fill:#7F7FFF;fill-rule:evenodd;stroke:#7F7FFF;stroke-width:1.0px;stroke-linecap:butt;stroke-linejoin:miter;stroke-opacity:1"/>
<ellipse cx="217.5" cy="150.1" rx="9.6" ry="9.6" class="atom-17" style="fill:#7F7FFF;fill-rule:evenodd;stroke:#7F7FFF;stroke-width:1.0px;stroke-linecap:butt;stroke-linejoin:miter;stroke-opacity:1"/>
<ellipse cx="201.0" cy="174.6" rx="9.6" ry="9.6" class="atom-18" style="fill:#7F7FFF;fill-rule:evenodd;stroke:#7F7FFF;stroke-width:1.0px;stroke-linecap:butt;stroke-linejoin:miter;stroke-opacity:1"/>
<ellipse cx="171.5" cy="172.5" rx="0.4" ry="0.4" class="atom-19" style="fill:#FF7F7F;fill-rule:evenodd;stroke:#FF7F7F;stroke-width:1.0px;stroke-linecap:butt;stroke-linejoin:miter;stroke-opacity:1"/>
<ellipse cx="158.5" cy="145.9" rx="0.4" ry="0.4" class="atom-20" style="fill:#FF7F7F;fill-rule:evenodd;stroke:#FF7F7F;stroke-width:1.0px;stroke-linecap:butt;stroke-linejoin:miter;stroke-opacity:1"/>
<ellipse cx="175.1" cy="121.4" rx="0.4" ry="0.4" class="atom-21" style="fill:#FF7F7F;fill-rule:evenodd;stroke:#FF7F7F;stroke-width:1.0px;stroke-linecap:butt;stroke-linejoin:miter;stroke-opacity:1"/>
<ellipse cx="129.1" cy="143.8" rx="0.9" ry="0.9" class="atom-22" style="fill:#7F7FFF;fill-rule:evenodd;stroke:#7F7FFF;stroke-width:1.0px;stroke-linecap:butt;stroke-linejoin:miter;stroke-opacity:1"/>
<ellipse cx="116.1" cy="117.3" rx="0.0" ry="0.0" class="atom-23" style="fill:#7F7FFF;fill-rule:evenodd;stroke:#7F7FFF;stroke-width:1.0px;stroke-linecap:butt;stroke-linejoin:miter;stroke-opacity:1"/>
<ellipse cx="86.7" cy="115.2" rx="1.2" ry="1.2" class="atom-24" style="fill:#FF7F7F;fill-rule:evenodd;stroke:#FF7F7F;stroke-width:1.0px;stroke-linecap:butt;stroke-linejoin:miter;stroke-opacity:1"/>
<ellipse cx="67.6" cy="137.8" rx="1.2" ry="1.2" class="atom-25" style="fill:#FF7F7F;fill-rule:evenodd;stroke:#FF7F7F;stroke-width:1.0px;stroke-linecap:butt;stroke-linejoin:miter;stroke-opacity:1"/>
<ellipse cx="40.2" cy="126.7" rx="1.2" ry="1.2" class="atom-26" style="fill:#FF7F7F;fill-rule:evenodd;stroke:#FF7F7F;stroke-width:1.0px;stroke-linecap:butt;stroke-linejoin:miter;stroke-opacity:1"/>
<ellipse cx="42.3" cy="97.2" rx="1.2" ry="1.2" class="atom-27" style="fill:#FF7F7F;fill-rule:evenodd;stroke:#FF7F7F;stroke-width:1.0px;stroke-linecap:butt;stroke-linejoin:miter;stroke-opacity:1"/>
<ellipse cx="19.7" cy="78.2" rx="1.2" ry="1.2" class="atom-28" style="fill:#FF7F7F;fill-rule:evenodd;stroke:#FF7F7F;stroke-width:1.0px;stroke-linecap:butt;stroke-linejoin:miter;stroke-opacity:1"/>
<ellipse cx="71.0" cy="90.1" rx="1.2" ry="1.2" class="atom-29" style="fill:#FF7F7F;fill-rule:evenodd;stroke:#FF7F7F;stroke-width:1.0px;stroke-linecap:butt;stroke-linejoin:miter;stroke-opacity:1"/>
<ellipse cx="213.9" cy="201.2" rx="9.6" ry="9.6" class="atom-30" style="fill:#7F7FFF;fill-rule:evenodd;stroke:#7F7FFF;stroke-width:1.0px;stroke-linecap:butt;stroke-linejoin:miter;stroke-opacity:1"/>
<ellipse cx="197.3" cy="225.7" rx="9.6" ry="9.6" class="atom-31" style="fill:#7F7FFF;fill-rule:evenodd;stroke:#7F7FFF;stroke-width:1.0px;stroke-linecap:butt;stroke-linejoin:miter;stroke-opacity:1"/>
<ellipse cx="243.4" cy="203.3" rx="9.6" ry="9.6" class="atom-32" style="fill:#7F7FFF;fill-rule:evenodd;stroke:#7F7FFF;stroke-width:1.0px;stroke-linecap:butt;stroke-linejoin:miter;stroke-opacity:1"/>
<ellipse cx="256.3" cy="229.9" rx="9.6" ry="9.6" class="atom-33" style="fill:#7F7FFF;fill-rule:evenodd;stroke:#7F7FFF;stroke-width:1.0px;stroke-linecap:butt;stroke-linejoin:miter;stroke-opacity:1"/>
<ellipse cx="285.8" cy="232.0" rx="9.6" ry="9.6" class="atom-34" style="fill:#7F7FFF;fill-rule:evenodd;stroke:#7F7FFF;stroke-width:1.0px;stroke-linecap:butt;stroke-linejoin:miter;stroke-opacity:1"/>
<ellipse cx="302.3" cy="207.5" rx="9.6" ry="9.6" class="atom-35" style="fill:#7F7FFF;fill-rule:evenodd;stroke:#7F7FFF;stroke-width:1.0px;stroke-linecap:butt;stroke-linejoin:miter;stroke-opacity:1"/>
<ellipse cx="331.8" cy="209.6" rx="9.6" ry="9.6" class="atom-36" style="fill:#7F7FFF;fill-rule:evenodd;stroke:#7F7FFF;stroke-width:1.0px;stroke-linecap:butt;stroke-linejoin:miter;stroke-opacity:1"/>
<ellipse cx="289.4" cy="180.9" rx="9.6" ry="9.6" class="atom-37" style="fill:#7F7FFF;fill-rule:evenodd;stroke:#7F7FFF;stroke-width:1.0px;stroke-linecap:butt;stroke-linejoin:miter;stroke-opacity:1"/>
<ellipse cx="259.9" cy="178.8" rx="9.6" ry="9.6" class="atom-38" style="fill:#7F7FFF;fill-rule:evenodd;stroke:#7F7FFF;stroke-width:1.0px;stroke-linecap:butt;stroke-linejoin:miter;stroke-opacity:1"/>
<path class="bond-0 atom-1 atom-0" d="M 279.6,153.3 L 279.3,153.7" style="fill:none;fill-rule:evenodd;stroke:#000000;stroke-width:1.0px;stroke-linecap:butt;stroke-linejoin:miter;stroke-opacity:1"/>
<path class="bond-0 atom-1 atom-0" d="M 282.7,155.3 L 282.0,156.2" style="fill:none;fill-rule:evenodd;stroke:#000000;stroke-width:1.0px;stroke-linecap:butt;stroke-linejoin:miter;stroke-opacity:1"/>
<path class="bond-0 atom-1 atom-0" d="M 285.8,157.4 L 284.8,158.7" style="fill:none;fill-rule:evenodd;stroke:#000000;stroke-width:1.0px;stroke-linecap:butt;stroke-linejoin:miter;stroke-opacity:1"/>
<path class="bond-0 atom-1 atom-0" d="M 288.9,159.5 L 287.5,161.2" style="fill:none;fill-rule:evenodd;stroke:#000000;stroke-width:1.0px;stroke-linecap:butt;stroke-linejoin:miter;stroke-opacity:1"/>
<path class="bond-0 atom-1 atom-0" d="M 291.9,161.5 L 290.2,163.7" style="fill:none;fill-rule:evenodd;stroke:#000000;stroke-width:1.0px;stroke-linecap:butt;stroke-linejoin:miter;stroke-opacity:1"/>
<path class="bond-0 atom-1 atom-0" d="M 295.0,163.6 L 293.0,166.2" style="fill:none;fill-rule:evenodd;stroke:#000000;stroke-width:1.0px;stroke-linecap:butt;stroke-linejoin:miter;stroke-opacity:1"/>
<path class="bond-0 atom-1 atom-0" d="M 298.1,165.6 L 295.7,168.7" style="fill:none;fill-rule:evenodd;stroke:#000000;stroke-width:1.0px;stroke-linecap:butt;stroke-linejoin:miter;stroke-opacity:1"/>
<path class="bond-0 atom-1 atom-0" d="M 301.2,167.7 L 298.5,171.2" style="fill:none;fill-rule:evenodd;stroke:#000000;stroke-width:1.0px;stroke-linecap:butt;stroke-linejoin:miter;stroke-opacity:1"/>
<path class="bond-1 atom-1 atom-2" d="M 276.5,151.2 L 284.7,122.8" style="fill:none;fill-rule:evenodd;stroke:#000000;stroke-width:2.0px;stroke-linecap:butt;stroke-linejoin:miter;stroke-opacity:1"/>
<path class="bond-2 atom-2 atom-3" d="M 284.7,122.8 L 264.4,109.1" style="fill:none;fill-rule:evenodd;stroke:#000000;stroke-width:2.0px;stroke-linecap:butt;stroke-linejoin:miter;stroke-opacity:1"/>
<path class="bond-3 atom-3 atom-4" d="M 260.1,101.1 L 259.2,76.7" style="fill:none;fill-rule:evenodd;stroke:#000000;stroke-width:2.0px;stroke-linecap:butt;stroke-linejoin:miter;stroke-opacity:1"/>
<path class="bond-4 atom-4 atom-5" d="M 259.2,76.7 L 233.2,62.8" style="fill:none;fill-rule:evenodd;stroke:#000000;stroke-width:2.0px;stroke-linecap:butt;stroke-linejoin:miter;stroke-opacity:1"/>
<path class="bond-4 atom-4 atom-5" d="M 259.1,71.6 L 237.5,60.1" style="fill:none;fill-rule:evenodd;stroke:#000000;stroke-width:2.0px;stroke-linecap:butt;stroke-linejoin:miter;stroke-opacity:1"/>
<path class="bond-5 atom-5 atom-6" d="M 233.2,62.8 L 232.3,38.4" style="fill:none;fill-rule:evenodd;stroke:#000000;stroke-width:2.0px;stroke-linecap:butt;stroke-linejoin:miter;stroke-opacity:1"/>
<path class="bond-6 atom-6 atom-7" d="M 236.3,30.7 L 257.3,17.6" style="fill:none;fill-rule:evenodd;stroke:#000000;stroke-width:2.0px;stroke-linecap:butt;stroke-linejoin:miter;stroke-opacity:1"/>
<path class="bond-6 atom-6 atom-7" d="M 238.7,34.4 L 257.4,22.8" style="fill:none;fill-rule:evenodd;stroke:#000000;stroke-width:2.0px;stroke-linecap:butt;stroke-linejoin:miter;stroke-opacity:1"/>
<path class="bond-7 atom-7 atom-8" d="M 257.3,17.6 L 283.3,31.5" style="fill:none;fill-rule:evenodd;stroke:#000000;stroke-width:2.0px;stroke-linecap:butt;stroke-linejoin:miter;stroke-opacity:1"/>
<path class="bond-8 atom-8 atom-9" d="M 283.3,31.5 L 308.4,15.9" style="fill:none;fill-rule:evenodd;stroke:#000000;stroke-width:2.0px;stroke-linecap:butt;stroke-linejoin:miter;stroke-opacity:1"/>
<path class="bond-8 atom-8 atom-9" d="M 287.9,34.0 L 308.6,21.0" style="fill:none;fill-rule:evenodd;stroke:#000000;stroke-width:2.0px;stroke-linecap:butt;stroke-linejoin:miter;stroke-opacity:1"/>
<path class="bond-9 atom-9 atom-10" d="M 308.4,15.9 L 334.5,29.8" style="fill:none;fill-rule:evenodd;stroke:#000000;stroke-width:2.0px;stroke-linecap:butt;stroke-linejoin:miter;stroke-opacity:1"/>
<path class="bond-10 atom-10 atom-11" d="M 334.5,29.8 L 335.5,59.4" style="fill:none;fill-rule:evenodd;stroke:#000000;stroke-width:2.0px;stroke-linecap:butt;stroke-linejoin:miter;stroke-opacity:1"/>
<path class="bond-10 atom-10 atom-11" d="M 330.2,32.5 L 331.0,57.0" style="fill:none;fill-rule:evenodd;stroke:#000000;stroke-width:2.0px;stroke-linecap:butt;stroke-linejoin:miter;stroke-opacity:1"/>
<path class="bond-11 atom-11 atom-12" d="M 335.5,59.4 L 310.4,75.0" style="fill:none;fill-rule:evenodd;stroke:#000000;stroke-width:2.0px;stroke-linecap:butt;stroke-linejoin:miter;stroke-opacity:1"/>
<path class="bond-12 atom-12 atom-13" d="M 310.4,75.0 L 284.3,61.1" style="fill:none;fill-rule:evenodd;stroke:#000000;stroke-width:2.0px;stroke-linecap:butt;stroke-linejoin:miter;stroke-opacity:1"/>
<path class="bond-12 atom-12 atom-13" d="M 310.2,69.9 L 288.7,58.4" style="fill:none;fill-rule:evenodd;stroke:#000000;stroke-width:2.0px;stroke-linecap:butt;stroke-linejoin:miter;stroke-opacity:1"/>
<path class="bond-13 atom-3 atom-14" d="M 256.1,109.5 L 236.9,124.4" style="fill:none;fill-rule:evenodd;stroke:#000000;stroke-width:2.0px;stroke-linecap:butt;stroke-linejoin:miter;stroke-opacity:1"/>
<path class="bond-14 atom-14 atom-15" d="M 239.1,122.7 L 214.0,115.5" style="fill:none;fill-rule:evenodd;stroke:#000000;stroke-width:2.0px;stroke-linecap:butt;stroke-linejoin:miter;stroke-opacity:1"/>
<path class="bond-14 atom-14 atom-15" d="M 237.9,127.0 L 212.7,119.8" style="fill:none;fill-rule:evenodd;stroke:#000000;stroke-width:2.0px;stroke-linecap:butt;stroke-linejoin:miter;stroke-opacity:1"/>
<path class="bond-15 atom-14 atom-16" d="M 236.9,124.4 L 247.0,152.2" style="fill:none;fill-rule:evenodd;stroke:#000000;stroke-width:2.0px;stroke-linecap:butt;stroke-linejoin:miter;stroke-opacity:1"/>
<path class="bond-16 atom-16 atom-17" d="M 243.3,151.6 L 243.3,152.3" style="fill:none;fill-rule:evenodd;stroke:#000000;stroke-width:1.0px;stroke-linecap:butt;stroke-linejoin:miter;stroke-opacity:1"/>
<path class="bond-16 atom-16 atom-17" d="M 239.7,151.1 L 239.6,152.3" style="fill:none;fill-rule:evenodd;stroke:#000000;stroke-width:1.0px;stroke-linecap:butt;stroke-linejoin:miter;stroke-opacity:1"/>
<path class="bond-16 atom-16 atom-17" d="M 236.0,150.5 L 235.9,152.4" style="fill:none;fill-rule:evenodd;stroke:#000000;stroke-width:1.0px;stroke-linecap:butt;stroke-linejoin:miter;stroke-opacity:1"/>
<path class="bond-16 atom-16 atom-17" d="M 232.4,149.9 L 232.2,152.4" style="fill:none;fill-rule:evenodd;stroke:#000000;stroke-width:1.0px;stroke-linecap:butt;stroke-linejoin:miter;stroke-opacity:1"/>
<path class="bond-16 atom-16 atom-17" d="M 228.7,149.3 L 228.5,152.5" style="fill:none;fill-rule:evenodd;stroke:#000000;stroke-width:1.0px;stroke-linecap:butt;stroke-linejoin:miter;stroke-opacity:1"/>
<path class="bond-16 atom-16 atom-17" d="M 225.0,148.8 L 224.8,152.5" style="fill:none;fill-rule:evenodd;stroke:#000000;stroke-width:1.0px;stroke-linecap:butt;stroke-linejoin:miter;stroke-opacity:1"/>
<path class="bond-16 atom-16 atom-17" d="M 221.4,148.2 L 221.1,152.6" style="fill:none;fill-rule:evenodd;stroke:#000000;stroke-width:1.0px;stroke-linecap:butt;stroke-linejoin:miter;stroke-opacity:1"/>
<path class="bond-17 atom-17 atom-18" d="M 217.5,150.1 L 204.4,169.5" style="fill:none;fill-rule:evenodd;stroke:#000000;stroke-width:2.0px;stroke-linecap:butt;stroke-linejoin:miter;stroke-opacity:1"/>
<path class="bond-18 atom-18 atom-19" d="M 196.8,174.3 L 171.5,172.5" style="fill:none;fill-rule:evenodd;stroke:#000000;stroke-width:2.0px;stroke-linecap:butt;stroke-linejoin:miter;stroke-opacity:1"/>
<path class="bond-19 atom-19 atom-20" d="M 171.5,172.5 L 158.5,145.9" style="fill:none;fill-rule:evenodd;stroke:#000000;stroke-width:2.0px;stroke-linecap:butt;stroke-linejoin:miter;stroke-opacity:1"/>
<path class="bond-20 atom-20 atom-21" d="M 159.7,148.2 L 173.3,128.0" style="fill:none;fill-rule:evenodd;stroke:#000000;stroke-width:2.0px;stroke-linecap:butt;stroke-linejoin:miter;stroke-opacity:1"/>
<path class="bond-20 atom-20 atom-21" d="M 156.0,145.7 L 169.7,125.5" style="fill:none;fill-rule:evenodd;stroke:#000000;stroke-width:2.0px;stroke-linecap:butt;stroke-linejoin:miter;stroke-opacity:1"/>
<path class="bond-21 atom-20 atom-22" d="M 158.5,145.9 L 133.2,144.1" style="fill:none;fill-rule:evenodd;stroke:#000000;stroke-width:2.0px;stroke-linecap:butt;stroke-linejoin:miter;stroke-opacity:1"/>
<path class="bond-22 atom-22 atom-23" d="M 126.6,138.7 L 116.1,117.3" style="fill:none;fill-rule:evenodd;stroke:#000000;stroke-width:2.0px;stroke-linecap:butt;stroke-linejoin:miter;stroke-opacity:1"/>
<path class="bond-23 atom-23 atom-24" d="M 116.1,117.3 L 86.7,115.2" style="fill:none;fill-rule:evenodd;stroke:#000000;stroke-width:2.0px;stroke-linecap:butt;stroke-linejoin:miter;stroke-opacity:1"/>
<path class="bond-24 atom-24 atom-25" d="M 86.7,115.2 L 67.6,137.8" style="fill:none;fill-rule:evenodd;stroke:#000000;stroke-width:2.0px;stroke-linecap:butt;stroke-linejoin:miter;stroke-opacity:1"/>
<path class="bond-25 atom-25 atom-26" d="M 67.6,137.8 L 40.2,126.7" style="fill:none;fill-rule:evenodd;stroke:#000000;stroke-width:2.0px;stroke-linecap:butt;stroke-linejoin:miter;stroke-opacity:1"/>
<path class="bond-25 atom-25 atom-26" d="M 66.3,132.5 L 44.9,123.8" style="fill:none;fill-rule:evenodd;stroke:#000000;stroke-width:2.0px;stroke-linecap:butt;stroke-linejoin:miter;stroke-opacity:1"/>
<path class="bond-26 atom-26 atom-27" d="M 40.2,126.7 L 42.0,102.3" style="fill:none;fill-rule:evenodd;stroke:#000000;stroke-width:2.0px;stroke-linecap:butt;stroke-linejoin:miter;stroke-opacity:1"/>
<path class="bond-27 atom-27 atom-28" d="M 38.2,93.7 L 19.7,78.2" style="fill:none;fill-rule:evenodd;stroke:#000000;stroke-width:2.0px;stroke-linecap:butt;stroke-linejoin:miter;stroke-opacity:1"/>
<path class="bond-28 atom-27 atom-29" d="M 46.5,96.2 L 66.9,91.1" style="fill:none;fill-rule:evenodd;stroke:#000000;stroke-width:2.0px;stroke-linecap:butt;stroke-linejoin:miter;stroke-opacity:1"/>
<path class="bond-29 atom-18 atom-30" d="M 203.5,179.8 L 213.9,201.2" style="fill:none;fill-rule:evenodd;stroke:#000000;stroke-width:2.0px;stroke-linecap:butt;stroke-linejoin:miter;stroke-opacity:1"/>
<path class="bond-30 atom-30 atom-31" d="M 212.8,198.9 L 199.0,219.2" style="fill:none;fill-rule:evenodd;stroke:#000000;stroke-width:2.0px;stroke-linecap:butt;stroke-linejoin:miter;stroke-opacity:1"/>
<path class="bond-30 atom-30 atom-31" d="M 216.4,201.4 L 202.7,221.7" style="fill:none;fill-rule:evenodd;stroke:#000000;stroke-width:2.0px;stroke-linecap:butt;stroke-linejoin:miter;stroke-opacity:1"/>
<path class="bond-31 atom-30 atom-32" d="M 213.9,201.2 L 243.4,203.3" style="fill:none;fill-rule:evenodd;stroke:#000000;stroke-width:2.0px;stroke-linecap:butt;stroke-linejoin:miter;stroke-opacity:1"/>
<path class="bond-32 atom-32 atom-33" d="M 243.4,203.3 L 256.3,229.9" style="fill:none;fill-rule:evenodd;stroke:#000000;stroke-width:2.0px;stroke-linecap:butt;stroke-linejoin:miter;stroke-opacity:1"/>
<path class="bond-32 atom-32 atom-33" d="M 248.5,203.7 L 259.2,225.6" style="fill:none;fill-rule:evenodd;stroke:#000000;stroke-width:2.0px;stroke-linecap:butt;stroke-linejoin:miter;stroke-opacity:1"/>
<path class="bond-33 atom-33 atom-34" d="M 256.3,229.9 L 285.8,232.0" style="fill:none;fill-rule:evenodd;stroke:#000000;stroke-width:2.0px;stroke-linecap:butt;stroke-linejoin:miter;stroke-opacity:1"/>
<path class="bond-34 atom-34 atom-35" d="M 285.8,232.0 L 302.3,207.5" style="fill:none;fill-rule:evenodd;stroke:#000000;stroke-width:2.0px;stroke-linecap:butt;stroke-linejoin:miter;stroke-opacity:1"/>
<path class="bond-34 atom-34 atom-35" d="M 283.5,227.4 L 297.2,207.1" style="fill:none;fill-rule:evenodd;stroke:#000000;stroke-width:2.0px;stroke-linecap:butt;stroke-linejoin:miter;stroke-opacity:1"/>
<path class="bond-35 atom-35 atom-36" d="M 302.3,207.5 L 327.6,209.3" style="fill:none;fill-rule:evenodd;stroke:#000000;stroke-width:2.0px;stroke-linecap:butt;stroke-linejoin:miter;stroke-opacity:1"/>
<path class="bond-36 atom-35 atom-37" d="M 302.3,207.5 L 289.4,180.9" style="fill:none;fill-rule:evenodd;stroke:#000000;stroke-width:2.0px;stroke-linecap:butt;stroke-linejoin:miter;stroke-opacity:1"/>
<path class="bond-37 atom-37 atom-38" d="M 289.4,180.9 L 259.9,178.8" style="fill:none;fill-rule:evenodd;stroke:#000000;stroke-width:2.0px;stroke-linecap:butt;stroke-linejoin:miter;stroke-opacity:1"/>
<path class="bond-37 atom-37 atom-38" d="M 286.5,185.1 L 262.2,183.4" style="fill:none;fill-rule:evenodd;stroke:#000000;stroke-width:2.0px;stroke-linecap:butt;stroke-linejoin:miter;stroke-opacity:1"/>
<path class="bond-38 atom-16 atom-1" d="M 247.0,152.2 L 276.5,151.2" style="fill:none;fill-rule:evenodd;stroke:#000000;stroke-width:2.0px;stroke-linecap:butt;stroke-linejoin:miter;stroke-opacity:1"/>
<path class="bond-39 atom-29 atom-24" d="M 74.2,95.2 L 86.7,115.2" style="fill:none;fill-rule:evenodd;stroke:#000000;stroke-width:2.0px;stroke-linecap:butt;stroke-linejoin:miter;stroke-opacity:1"/>
<path class="bond-39 atom-29 atom-24" d="M 70.5,97.6 L 81.2,114.8" style="fill:none;fill-rule:evenodd;stroke:#000000;stroke-width:2.0px;stroke-linecap:butt;stroke-linejoin:miter;stroke-opacity:1"/>
<path class="bond-40 atom-38 atom-32" d="M 259.9,178.8 L 243.4,203.3" style="fill:none;fill-rule:evenodd;stroke:#000000;stroke-width:2.0px;stroke-linecap:butt;stroke-linejoin:miter;stroke-opacity:1"/>
<path class="bond-41 atom-13 atom-4" d="M 284.3,61.1 L 259.2,76.7" style="fill:none;fill-rule:evenodd;stroke:#000000;stroke-width:2.0px;stroke-linecap:butt;stroke-linejoin:miter;stroke-opacity:1"/>
<path class="bond-42 atom-38 atom-16" d="M 259.9,178.8 L 247.0,152.2" style="fill:none;fill-rule:evenodd;stroke:#000000;stroke-width:2.0px;stroke-linecap:butt;stroke-linejoin:miter;stroke-opacity:1"/>
<path class="bond-43 atom-13 atom-8" d="M 284.3,61.1 L 283.3,31.5" style="fill:none;fill-rule:evenodd;stroke:#000000;stroke-width:2.0px;stroke-linecap:butt;stroke-linejoin:miter;stroke-opacity:1"/>
<path d="M 277.0,149.8 L 276.5,151.2 L 275.1,151.3" style="fill:none;stroke:#000000;stroke-width:2.0px;stroke-linecap:butt;stroke-linejoin:miter;stroke-miterlimit:10;stroke-opacity:1;"/>
<path d="M 284.3,124.2 L 284.7,122.8 L 283.7,122.1" style="fill:none;stroke:#000000;stroke-width:2.0px;stroke-linecap:butt;stroke-linejoin:miter;stroke-miterlimit:10;stroke-opacity:1;"/>
<path d="M 234.5,63.5 L 233.2,62.8 L 233.1,61.6" style="fill:none;stroke:#000000;stroke-width:2.0px;stroke-linecap:butt;stroke-linejoin:miter;stroke-miterlimit:10;stroke-opacity:1;"/>
<path d="M 256.2,18.3 L 257.3,17.6 L 258.6,18.3" style="fill:none;stroke:#000000;stroke-width:2.0px;stroke-linecap:butt;stroke-linejoin:miter;stroke-miterlimit:10;stroke-opacity:1;"/>
<path d="M 307.2,16.7 L 308.4,15.9 L 309.7,16.6" style="fill:none;stroke:#000000;stroke-width:2.0px;stroke-linecap:butt;stroke-linejoin:miter;stroke-miterlimit:10;stroke-opacity:1;"/>
<path d="M 333.2,29.1 L 334.5,29.8 L 334.6,31.3" style="fill:none;stroke:#000000;stroke-width:2.0px;stroke-linecap:butt;stroke-linejoin:miter;stroke-miterlimit:10;stroke-opacity:1;"/>
<path d="M 335.5,57.9 L 335.5,59.4 L 334.2,60.1" style="fill:none;stroke:#000000;stroke-width:2.0px;stroke-linecap:butt;stroke-linejoin:miter;stroke-miterlimit:10;stroke-opacity:1;"/>
<path d="M 311.7,74.2 L 310.4,75.0 L 309.1,74.3" style="fill:none;stroke:#000000;stroke-width:2.0px;stroke-linecap:butt;stroke-linejoin:miter;stroke-miterlimit:10;stroke-opacity:1;"/>
<path d="M 237.9,123.7 L 236.9,124.4 L 237.4,125.8" style="fill:none;stroke:#000000;stroke-width:2.0px;stroke-linecap:butt;stroke-linejoin:miter;stroke-miterlimit:10;stroke-opacity:1;"/>
<path d="M 172.7,172.6 L 171.5,172.5 L 170.8,171.2" style="fill:none;stroke:#000000;stroke-width:2.0px;stroke-linecap:butt;stroke-linejoin:miter;stroke-miterlimit:10;stroke-opacity:1;"/>
<path d="M 159.2,147.3 L 158.5,145.9 L 157.3,145.8" style="fill:none;stroke:#000000;stroke-width:2.0px;stroke-linecap:butt;stroke-linejoin:miter;stroke-miterlimit:10;stroke-opacity:1;"/>
<path d="M 116.7,118.3 L 116.1,117.3 L 114.7,117.1" style="fill:none;stroke:#000000;stroke-width:2.0px;stroke-linecap:butt;stroke-linejoin:miter;stroke-miterlimit:10;stroke-opacity:1;"/>
<path d="M 68.6,136.6 L 67.6,137.8 L 66.3,137.2" style="fill:none;stroke:#000000;stroke-width:2.0px;stroke-linecap:butt;stroke-linejoin:miter;stroke-miterlimit:10;stroke-opacity:1;"/>
<path d="M 41.6,127.2 L 40.2,126.7 L 40.3,125.5" style="fill:none;stroke:#000000;stroke-width:2.0px;stroke-linecap:butt;stroke-linejoin:miter;stroke-miterlimit:10;stroke-opacity:1;"/>
<path d="M 213.4,200.1 L 213.9,201.2 L 215.4,201.3" style="fill:none;stroke:#000000;stroke-width:2.0px;stroke-linecap:butt;stroke-linejoin:miter;stroke-miterlimit:10;stroke-opacity:1;"/>
<path d="M 255.7,228.5 L 256.3,229.9 L 257.8,230.0" style="fill:none;stroke:#000000;stroke-width:2.0px;stroke-linecap:butt;stroke-linejoin:miter;stroke-miterlimit:10;stroke-opacity:1;"/>
<path d="M 284.3,231.9 L 285.8,232.0 L 286.6,230.7" style="fill:none;stroke:#000000;stroke-width:2.0px;stroke-linecap:butt;stroke-linejoin:miter;stroke-miterlimit:10;stroke-opacity:1;"/>
<path d="M 290.1,182.2 L 289.4,180.9 L 287.9,180.8" style="fill:none;stroke:#000000;stroke-width:2.0px;stroke-linecap:butt;stroke-linejoin:miter;stroke-miterlimit:10;stroke-opacity:1;"/>
<path class="atom-3" d="M 258.4 102.1 L 261.1 106.5 Q 261.4 106.9, 261.8 107.7 Q 262.3 108.5, 262.3 108.6 L 262.3 102.1 L 263.4 102.1 L 263.4 110.4 L 262.3 110.4 L 259.3 105.6 Q 259.0 105.0, 258.6 104.4 Q 258.3 103.7, 258.2 103.5 L 258.2 110.4 L 257.1 110.4 L 257.1 102.1 L 258.4 102.1 " fill="#000000"/>
<path class="atom-6" d="M 230.3 29.1 L 233.1 33.5 Q 233.3 34.0, 233.8 34.7 Q 234.2 35.5, 234.2 35.6 L 234.2 29.1 L 235.3 29.1 L 235.3 37.5 L 234.2 37.5 L 231.2 32.6 Q 230.9 32.0, 230.5 31.4 Q 230.2 30.7, 230.1 30.5 L 230.1 37.5 L 229.0 37.5 L 229.0 29.1 L 230.3 29.1 " fill="#000000"/>
<path class="atom-15" d="M 204.7 116.3 Q 204.7 114.3, 205.7 113.1 Q 206.7 112.0, 208.5 112.0 Q 210.4 112.0, 211.4 113.1 Q 212.4 114.3, 212.4 116.3 Q 212.4 118.3, 211.4 119.5 Q 210.4 120.6, 208.5 120.6 Q 206.7 120.6, 205.7 119.5 Q 204.7 118.3, 204.7 116.3 M 208.5 119.7 Q 209.8 119.7, 210.5 118.8 Q 211.2 118.0, 211.2 116.3 Q 211.2 114.6, 210.5 113.8 Q 209.8 113.0, 208.5 113.0 Q 207.2 113.0, 206.5 113.8 Q 205.9 114.6, 205.9 116.3 Q 205.9 118.0, 206.5 118.8 Q 207.2 119.7, 208.5 119.7 " fill="#000000"/>
<path class="atom-18" d="M 199.1 170.4 L 201.9 174.9 Q 202.1 175.3, 202.6 176.1 Q 203.0 176.9, 203.0 176.9 L 203.0 170.4 L 204.1 170.4 L 204.1 178.8 L 203.0 178.8 L 200.0 173.9 Q 199.7 173.4, 199.3 172.7 Q 199.0 172.1, 198.9 171.9 L 198.9 178.8 L 197.8 178.8 L 197.8 170.4 L 199.1 170.4 " fill="#000000"/>
<path class="atom-21" d="M 171.3 121.5 Q 171.3 119.5, 172.3 118.3 Q 173.3 117.2, 175.1 117.2 Q 177.0 117.2, 178.0 118.3 Q 178.9 119.5, 178.9 121.5 Q 178.9 123.5, 177.9 124.7 Q 176.9 125.8, 175.1 125.8 Q 173.3 125.8, 172.3 124.7 Q 171.3 123.5, 171.3 121.5 M 175.1 124.9 Q 176.4 124.9, 177.1 124.0 Q 177.8 123.1, 177.8 121.5 Q 177.8 119.8, 177.1 119.0 Q 176.4 118.2, 175.1 118.2 Q 173.8 118.2, 173.1 119.0 Q 172.4 119.8, 172.4 121.5 Q 172.4 123.2, 173.1 124.0 Q 173.8 124.9, 175.1 124.9 " fill="#000000"/>
<path class="atom-22" d="M 117.7 139.6 L 118.8 139.6 L 118.8 143.2 L 123.1 143.2 L 123.1 139.6 L 124.2 139.6 L 124.2 148.0 L 123.1 148.0 L 123.1 144.2 L 118.8 144.2 L 118.8 148.0 L 117.7 148.0 L 117.7 139.6 " fill="#000000"/>
<path class="atom-22" d="M 127.2 139.6 L 130.0 144.1 Q 130.2 144.5, 130.7 145.3 Q 131.1 146.1, 131.1 146.2 L 131.1 139.6 L 132.2 139.6 L 132.2 148.0 L 131.1 148.0 L 128.1 143.2 Q 127.8 142.6, 127.4 142.0 Q 127.1 141.3, 127.0 141.1 L 127.0 148.0 L 125.9 148.0 L 125.9 139.6 L 127.2 139.6 " fill="#000000"/>
<path class="atom-27" d="M 40.5 93.0 L 43.2 97.4 Q 43.5 97.9, 43.9 98.7 Q 44.4 99.5, 44.4 99.5 L 44.4 93.0 L 45.5 93.0 L 45.5 101.4 L 44.4 101.4 L 41.4 96.5 Q 41.1 96.0, 40.7 95.3 Q 40.3 94.7, 40.2 94.5 L 40.2 101.4 L 39.2 101.4 L 39.2 93.0 L 40.5 93.0 " fill="#000000"/>
<path class="atom-29" d="M 69.2 85.9 L 71.9 90.3 Q 72.2 90.8, 72.6 91.5 Q 73.1 92.3, 73.1 92.4 L 73.1 85.9 L 74.2 85.9 L 74.2 94.3 L 73.0 94.3 L 70.1 89.4 Q 69.8 88.8, 69.4 88.2 Q 69.0 87.5, 68.9 87.3 L 68.9 94.3 L 67.8 94.3 L 67.8 85.9 L 69.2 85.9 " fill="#000000"/>
<path class="atom-31" d="M 193.5 225.7 Q 193.5 223.7, 194.5 222.6 Q 195.5 221.4, 197.3 221.4 Q 199.2 221.4, 200.2 222.6 Q 201.2 223.7, 201.2 225.7 Q 201.2 227.7, 200.2 228.9 Q 199.2 230.0, 197.3 230.0 Q 195.5 230.0, 194.5 228.9 Q 193.5 227.8, 193.5 225.7 M 197.3 229.1 Q 198.6 229.1, 199.3 228.2 Q 200.0 227.4, 200.0 225.7 Q 200.0 224.1, 199.3 223.2 Q 198.6 222.4, 197.3 222.4 Q 196.1 222.4, 195.4 223.2 Q 194.7 224.0, 194.7 225.7 Q 194.7 227.4, 195.4 228.2 Q 196.1 229.1, 197.3 229.1 " fill="#000000"/>
<path class="atom-36" d="M 328.6 209.9 Q 328.6 207.8, 329.6 206.7 Q 330.5 205.6, 332.4 205.6 Q 334.1 205.6, 335.1 206.8 L 334.3 207.5 Q 333.6 206.6, 332.4 206.6 Q 331.1 206.6, 330.5 207.4 Q 329.8 208.3, 329.8 209.9 Q 329.8 211.5, 330.5 212.4 Q 331.2 213.2, 332.5 213.2 Q 333.5 213.2, 334.5 212.7 L 334.9 213.6 Q 334.4 213.8, 333.8 214.0 Q 333.1 214.2, 332.4 214.2 Q 330.5 214.2, 329.6 213.1 Q 328.6 212.0, 328.6 209.9 " fill="#000000"/>
<path class="atom-36" d="M 335.9 205.1 L 337.0 205.1 L 337.0 214.1 L 335.9 214.1 L 335.9 205.1 " fill="#000000"/>
<path class="legend" d="M 52.9 247.3 Q 54.6 247.3, 55.5 248.4 Q 56.5 249.4, 56.5 251.4 Q 56.5 253.5, 55.3 254.7 Q 54.2 255.8, 52.2 255.8 Q 51.3 255.8, 50.5 255.6 L 50.5 259.6 L 49.0 259.6 L 49.0 247.5 L 50.2 247.5 L 50.4 248.4 Q 50.9 247.9, 51.5 247.6 Q 52.1 247.3, 52.9 247.3 M 52.2 254.6 Q 53.5 254.6, 54.2 253.8 Q 54.9 252.9, 54.9 251.4 Q 54.9 250.0, 54.4 249.3 Q 53.8 248.5, 52.8 248.5 Q 51.9 248.5, 51.3 248.9 Q 50.8 249.4, 50.5 250.1 L 50.5 254.4 Q 51.3 254.6, 52.2 254.6 " fill="#000000"/>
<path class="legend" d="M 58.9 247.5 L 59.0 248.6 Q 59.9 247.3, 61.3 247.3 Q 61.8 247.3, 62.4 247.5 L 62.1 248.8 Q 61.4 248.7, 61.0 248.7 Q 60.4 248.7, 59.9 248.9 Q 59.5 249.2, 59.1 249.8 L 59.1 255.7 L 57.6 255.7 L 57.6 247.5 L 58.9 247.5 " fill="#000000"/>
<path class="legend" d="M 63.1 251.6 Q 63.1 249.5, 64.1 248.4 Q 65.1 247.3, 66.9 247.3 Q 68.7 247.3, 69.5 248.4 Q 70.3 249.5, 70.3 251.5 L 70.3 251.8 L 64.6 251.8 Q 64.6 253.2, 65.2 253.9 Q 65.9 254.6, 67.0 254.6 Q 67.7 254.6, 68.3 254.5 Q 68.9 254.3, 69.6 254.0 L 70.0 255.0 Q 69.2 255.4, 68.5 255.6 Q 67.7 255.8, 67.0 255.8 Q 65.1 255.8, 64.1 254.7 Q 63.1 253.6, 63.1 251.6 M 66.9 248.5 Q 66.0 248.5, 65.4 249.0 Q 64.8 249.6, 64.7 250.6 L 68.7 250.6 Q 68.6 249.5, 68.2 249.0 Q 67.7 248.5, 66.9 248.5 " fill="#000000"/>
<path class="legend" d="M 78.9 243.5 L 78.9 255.7 L 77.7 255.7 L 77.4 254.7 Q 76.5 255.8, 75.0 255.8 Q 73.3 255.8, 72.3 254.8 Q 71.4 253.7, 71.4 251.7 Q 71.4 249.6, 72.5 248.5 Q 73.7 247.3, 75.6 247.3 Q 76.5 247.3, 77.4 247.5 L 77.4 243.5 L 78.9 243.5 M 75.1 254.6 Q 75.9 254.6, 76.5 254.2 Q 77.1 253.7, 77.4 252.9 L 77.4 248.7 Q 76.5 248.5, 75.6 248.5 Q 74.4 248.5, 73.7 249.3 Q 72.9 250.2, 72.9 251.7 Q 72.9 253.1, 73.5 253.9 Q 74.1 254.6, 75.1 254.6 " fill="#000000"/>
<path class="legend" d="M 80.6 254.1 L 82.2 254.1 L 82.2 255.7 L 80.6 255.7 L 80.6 254.1 " fill="#000000"/>
<path class="legend" d="" fill="#000000"/>
<path class="legend" d="M 93.3 247.3 Q 95.0 247.3, 96.0 248.4 Q 96.9 249.4, 96.9 251.4 Q 96.9 253.5, 95.8 254.7 Q 94.7 255.8, 92.7 255.8 Q 91.8 255.8, 91.0 255.6 L 91.0 259.6 L 89.5 259.6 L 89.5 247.5 L 90.7 247.5 L 90.9 248.4 Q 91.3 247.9, 91.9 247.6 Q 92.6 247.3, 93.3 247.3 M 92.7 254.6 Q 93.9 254.6, 94.7 253.8 Q 95.4 252.9, 95.4 251.4 Q 95.4 250.0, 94.8 249.3 Q 94.2 248.5, 93.2 248.5 Q 92.4 248.5, 91.8 248.9 Q 91.2 249.4, 91.0 250.1 L 91.0 254.4 Q 91.8 254.6, 92.7 254.6 " fill="#000000"/>
<path class="legend" d="M 98.1 244.3 L 99.6 244.3 L 99.6 255.7 L 98.1 255.7 L 98.1 244.3 " fill="#000000"/>
<path class="legend" d="M 101.5 250.0 Q 101.5 247.2, 102.8 245.7 Q 104.1 244.2, 106.6 244.2 Q 109.0 244.2, 110.2 245.9 L 109.2 246.7 Q 108.2 245.5, 106.6 245.5 Q 104.9 245.5, 104.0 246.7 Q 103.1 247.8, 103.1 250.0 Q 103.1 252.2, 104.0 253.4 Q 105.0 254.5, 106.8 254.5 Q 108.1 254.5, 109.5 253.8 L 110.0 255.0 Q 109.4 255.4, 108.5 255.6 Q 107.6 255.8, 106.6 255.8 Q 104.1 255.8, 102.8 254.3 Q 101.5 252.8, 101.5 250.0 " fill="#000000"/>
<path class="legend" d="M 115.4 248.6 Q 116.4 248.6, 117.2 249.0 Q 118.0 249.4, 118.5 250.2 Q 119.0 251.0, 119.0 252.1 Q 119.0 253.3, 118.4 254.1 Q 117.8 254.9, 116.9 255.4 Q 116.0 255.8, 114.9 255.8 Q 113.9 255.8, 112.9 255.4 Q 112.0 255.0, 111.3 254.3 L 112.3 253.3 Q 112.8 253.9, 113.5 254.2 Q 114.2 254.5, 115.0 254.5 Q 116.0 254.5, 116.7 253.9 Q 117.4 253.3, 117.4 252.1 Q 117.4 250.9, 116.7 250.4 Q 116.0 249.8, 114.9 249.8 Q 113.9 249.8, 112.8 250.2 L 111.9 249.8 L 112.4 244.4 L 118.3 244.4 L 118.1 245.6 L 113.8 245.6 L 113.4 249.0 Q 114.4 248.6, 115.4 248.6 " fill="#000000"/>
<path class="legend" d="M 124.3 255.8 Q 122.3 255.8, 121.2 254.3 Q 120.2 252.7, 120.2 250.0 Q 120.2 247.3, 121.2 245.7 Q 122.2 244.2, 124.3 244.2 Q 126.4 244.2, 127.5 245.7 Q 128.5 247.3, 128.5 250.0 Q 128.5 252.7, 127.4 254.3 Q 126.4 255.8, 124.3 255.8 M 124.3 254.5 Q 125.6 254.5, 126.2 253.4 Q 126.9 252.2, 126.9 250.0 Q 126.9 247.8, 126.2 246.6 Q 125.6 245.5, 124.3 245.5 Q 123.1 245.5, 122.4 246.6 Q 121.8 247.8, 121.8 250.0 Q 121.8 252.2, 122.4 253.4 Q 123.1 254.5, 124.3 254.5 " fill="#000000"/>
<path class="legend" d="M 130.0 253.8 L 131.6 253.8 L 131.6 255.4 L 130.0 255.4 L 130.0 253.8 M 130.0 248.3 L 131.6 248.3 L 131.6 249.9 L 130.0 249.9 L 130.0 248.3 " fill="#000000"/>
<path class="legend" d="" fill="#000000"/>
<path class="legend" d="M 143.4 248.6 Q 144.4 248.6, 145.2 249.0 Q 146.0 249.5, 146.4 250.3 Q 146.9 251.0, 146.9 252.0 Q 146.9 253.1, 146.4 254.0 Q 145.9 254.8, 145.0 255.3 Q 144.2 255.8, 143.1 255.8 Q 141.0 255.8, 140.0 254.4 Q 139.0 253.1, 139.0 250.4 Q 139.0 247.3, 140.3 245.8 Q 141.5 244.2, 143.9 244.2 Q 144.6 244.2, 145.2 244.4 Q 145.8 244.5, 146.4 244.9 L 145.8 246.0 Q 145.0 245.5, 144.0 245.5 Q 142.4 245.5, 141.5 246.5 Q 140.7 247.6, 140.6 249.7 Q 141.2 249.2, 141.9 248.9 Q 142.7 248.6, 143.4 248.6 M 143.1 254.5 Q 143.7 254.5, 144.2 254.2 Q 144.7 253.9, 145.0 253.3 Q 145.3 252.7, 145.3 252.0 Q 145.3 251.0, 144.7 250.5 Q 144.1 249.9, 143.2 249.9 Q 142.5 249.9, 141.8 250.2 Q 141.1 250.4, 140.6 250.9 Q 140.7 252.8, 141.3 253.6 Q 141.9 254.5, 143.1 254.5 " fill="#000000"/>
<path class="legend" d="M 148.2 254.1 L 149.8 254.1 L 149.8 255.7 L 148.2 255.7 L 148.2 254.1 " fill="#000000"/>
<path class="legend" d="M 157.1 249.7 Q 158.1 250.1, 158.7 250.8 Q 159.3 251.5, 159.3 252.6 Q 159.3 253.5, 158.8 254.3 Q 158.3 255.0, 157.4 255.4 Q 156.5 255.8, 155.4 255.8 Q 153.5 255.8, 152.4 255.0 Q 151.3 254.1, 151.3 252.6 Q 151.3 251.6, 151.8 251.0 Q 152.3 250.3, 153.2 249.7 Q 152.5 249.3, 152.1 248.7 Q 151.7 248.1, 151.7 247.1 Q 151.7 245.8, 152.7 245.0 Q 153.6 244.2, 155.3 244.2 Q 156.9 244.2, 157.9 245.0 Q 158.9 245.8, 158.9 247.1 Q 158.9 248.0, 158.4 248.6 Q 158.0 249.2, 157.1 249.7 M 155.3 245.4 Q 154.4 245.4, 153.8 245.9 Q 153.3 246.3, 153.3 247.1 Q 153.3 247.7, 153.7 248.1 Q 154.0 248.5, 154.5 248.7 Q 155.0 248.9, 156.0 249.3 Q 156.7 248.8, 157.0 248.3 Q 157.3 247.8, 157.3 247.1 Q 157.3 246.3, 156.8 245.9 Q 156.2 245.4, 155.3 245.4 M 155.4 254.6 Q 156.4 254.6, 157.1 254.1 Q 157.7 253.5, 157.7 252.6 Q 157.7 252.0, 157.4 251.6 Q 157.0 251.2, 156.5 251.0 Q 156.0 250.7, 155.1 250.4 L 154.4 250.2 Q 153.6 250.7, 153.2 251.3 Q 152.9 251.8, 152.9 252.6 Q 152.9 253.5, 153.6 254.1 Q 154.2 254.6, 155.4 254.6 " fill="#000000"/>
<path class="legend" d="M 160.8 246.5 Q 161.2 245.4, 162.2 244.8 Q 163.2 244.2, 164.6 244.2 Q 166.3 244.2, 167.2 245.2 Q 168.2 246.1, 168.2 247.7 Q 168.2 249.4, 166.9 251.0 Q 165.7 252.5, 163.2 254.4 L 168.4 254.4 L 168.4 255.7 L 160.8 255.7 L 160.8 254.6 Q 162.9 253.1, 164.1 252.0 Q 165.4 250.9, 166.0 249.9 Q 166.6 248.8, 166.6 247.8 Q 166.6 246.7, 166.1 246.1 Q 165.5 245.5, 164.6 245.5 Q 163.7 245.5, 163.0 245.9 Q 162.4 246.2, 162.0 247.1 L 160.8 246.5 " fill="#000000"/>
<path class="legend" d="" fill="#000000"/>
<path class="legend" d="" fill="#000000"/>
<path class="legend" d="" fill="#000000"/>
<path class="legend" d="" fill="#000000"/>
<path class="legend" d="" fill="#000000"/>
<path class="legend" d="M 198.7 251.6 Q 198.7 249.5, 199.7 248.4 Q 200.8 247.3, 202.6 247.3 Q 204.4 247.3, 205.2 248.4 Q 206.0 249.5, 206.0 251.5 L 206.0 251.8 L 200.3 251.8 Q 200.3 253.2, 200.9 253.9 Q 201.6 254.6, 202.7 254.6 Q 203.4 254.6, 204.0 254.5 Q 204.5 254.3, 205.3 254.0 L 205.7 255.0 Q 204.9 255.4, 204.1 255.6 Q 203.4 255.8, 202.6 255.8 Q 200.8 255.8, 199.8 254.7 Q 198.7 253.6, 198.7 251.6 M 202.6 248.5 Q 201.6 248.5, 201.1 249.0 Q 200.5 249.6, 200.3 250.6 L 204.4 250.6 Q 204.3 249.5, 203.9 249.0 Q 203.4 248.5, 202.6 248.5 " fill="#000000"/>
<path class="legend" d="M 210.1 251.4 L 207.3 247.5 L 209.0 247.5 L 211.0 250.3 L 213.0 247.5 L 214.6 247.5 L 211.8 251.4 L 214.8 255.7 L 213.1 255.7 L 210.9 252.6 L 208.7 255.7 L 207.1 255.7 L 210.1 251.4 " fill="#000000"/>
<path class="legend" d="M 219.3 247.3 Q 221.0 247.3, 221.9 248.4 Q 222.9 249.4, 222.9 251.4 Q 222.9 253.5, 221.7 254.7 Q 220.6 255.8, 218.7 255.8 Q 217.7 255.8, 216.9 255.6 L 216.9 259.6 L 215.4 259.6 L 215.4 247.5 L 216.7 247.5 L 216.8 248.4 Q 217.3 247.9, 217.9 247.6 Q 218.5 247.3, 219.3 247.3 M 218.6 254.6 Q 219.9 254.6, 220.6 253.8 Q 221.3 252.9, 221.3 251.4 Q 221.3 250.0, 220.8 249.3 Q 220.2 248.5, 219.2 248.5 Q 218.3 248.5, 217.8 248.9 Q 217.2 249.4, 216.9 250.1 L 216.9 254.4 Q 217.8 254.6, 218.6 254.6 " fill="#000000"/>
<path class="legend" d="M 224.0 254.1 L 225.6 254.1 L 225.6 255.7 L 224.0 255.7 L 224.0 254.1 " fill="#000000"/>
<path class="legend" d="" fill="#000000"/>
<path class="legend" d="M 236.8 247.3 Q 238.5 247.3, 239.4 248.4 Q 240.4 249.4, 240.4 251.4 Q 240.4 253.5, 239.2 254.7 Q 238.1 255.8, 236.1 255.8 Q 235.2 255.8, 234.4 255.6 L 234.4 259.6 L 232.9 259.6 L 232.9 247.5 L 234.1 247.5 L 234.3 248.4 Q 234.8 247.9, 235.4 247.6 Q 236.0 247.3, 236.8 247.3 M 236.1 254.6 Q 237.4 254.6, 238.1 253.8 Q 238.8 252.9, 238.8 251.4 Q 238.8 250.0, 238.3 249.3 Q 237.7 248.5, 236.7 248.5 Q 235.8 248.5, 235.2 248.9 Q 234.7 249.4, 234.4 250.1 L 234.4 254.4 Q 235.2 254.6, 236.1 254.6 " fill="#000000"/>
<path class="legend" d="M 241.5 244.3 L 243.1 244.3 L 243.1 255.7 L 241.5 255.7 L 241.5 244.3 " fill="#000000"/>
<path class="legend" d="M 244.9 250.0 Q 244.9 247.2, 246.2 245.7 Q 247.6 244.2, 250.1 244.2 Q 252.4 244.2, 253.7 245.9 L 252.6 246.7 Q 251.7 245.5, 250.1 245.5 Q 248.4 245.5, 247.5 246.7 Q 246.6 247.8, 246.6 250.0 Q 246.6 252.2, 247.5 253.4 Q 248.4 254.5, 250.3 254.5 Q 251.5 254.5, 253.0 253.8 L 253.4 255.0 Q 252.8 255.4, 251.9 255.6 Q 251.0 255.8, 250.0 255.8 Q 247.6 255.8, 246.2 254.3 Q 244.9 252.8, 244.9 250.0 " fill="#000000"/>
<path class="legend" d="M 258.9 248.6 Q 259.9 248.6, 260.7 249.0 Q 261.5 249.4, 262.0 250.2 Q 262.4 251.0, 262.4 252.1 Q 262.4 253.3, 261.8 254.1 Q 261.3 254.9, 260.4 255.4 Q 259.4 255.8, 258.4 255.8 Q 257.3 255.8, 256.4 255.4 Q 255.4 255.0, 254.8 254.3 L 255.7 253.3 Q 256.2 253.9, 257.0 254.2 Q 257.7 254.5, 258.4 254.5 Q 259.4 254.5, 260.1 253.9 Q 260.8 253.3, 260.8 252.1 Q 260.8 250.9, 260.1 250.4 Q 259.4 249.8, 258.3 249.8 Q 257.3 249.8, 256.2 250.2 L 255.3 249.8 L 255.9 244.4 L 261.7 244.4 L 261.6 245.6 L 257.2 245.6 L 256.9 249.0 Q 257.9 248.6, 258.9 248.6 " fill="#000000"/>
<path class="legend" d="M 267.8 255.8 Q 265.7 255.8, 264.7 254.3 Q 263.6 252.7, 263.6 250.0 Q 263.6 247.3, 264.7 245.7 Q 265.7 244.2, 267.8 244.2 Q 269.9 244.2, 270.9 245.7 Q 271.9 247.3, 271.9 250.0 Q 271.9 252.7, 270.9 254.3 Q 269.9 255.8, 267.8 255.8 M 267.8 254.5 Q 269.0 254.5, 269.7 253.4 Q 270.3 252.2, 270.3 250.0 Q 270.3 247.8, 269.7 246.6 Q 269.0 245.5, 267.8 245.5 Q 266.6 245.5, 265.9 246.6 Q 265.2 247.8, 265.2 250.0 Q 265.2 252.2, 265.9 253.4 Q 266.6 254.5, 267.8 254.5 " fill="#000000"/>
<path class="legend" d="M 273.4 253.8 L 275.0 253.8 L 275.0 255.4 L 273.4 255.4 L 273.4 253.8 M 273.4 248.3 L 275.0 248.3 L 275.0 249.9 L 273.4 249.9 L 273.4 248.3 " fill="#000000"/>
<path class="legend" d="" fill="#000000"/>
<path class="legend" d="M 286.9 248.6 Q 287.9 248.6, 288.7 249.0 Q 289.5 249.5, 289.9 250.3 Q 290.3 251.0, 290.3 252.0 Q 290.3 253.1, 289.8 254.0 Q 289.3 254.8, 288.5 255.3 Q 287.6 255.8, 286.5 255.8 Q 284.5 255.8, 283.5 254.4 Q 282.5 253.1, 282.5 250.4 Q 282.5 247.3, 283.7 245.8 Q 285.0 244.2, 287.4 244.2 Q 288.1 244.2, 288.7 244.4 Q 289.3 244.5, 289.9 244.9 L 289.2 246.0 Q 288.4 245.5, 287.4 245.5 Q 285.8 245.5, 285.0 246.5 Q 284.2 247.6, 284.1 249.7 Q 284.7 249.2, 285.4 248.9 Q 286.1 248.6, 286.9 248.6 M 286.5 254.5 Q 287.1 254.5, 287.6 254.2 Q 288.1 253.9, 288.4 253.3 Q 288.7 252.7, 288.7 252.0 Q 288.7 251.0, 288.2 250.5 Q 287.6 249.9, 286.6 249.9 Q 285.9 249.9, 285.2 250.2 Q 284.6 250.4, 284.1 250.9 Q 284.1 252.8, 284.7 253.6 Q 285.3 254.5, 286.5 254.5 " fill="#000000"/>
<path class="legend" d="M 291.7 254.1 L 293.3 254.1 L 293.3 255.7 L 291.7 255.7 L 291.7 254.1 " fill="#000000"/>
<path class="legend" d="M 298.6 244.2 Q 300.6 244.2, 301.6 245.6 Q 302.6 247.0, 302.6 249.7 Q 302.6 252.7, 301.3 254.3 Q 300.1 255.8, 297.7 255.8 Q 297.0 255.8, 296.4 255.6 Q 295.8 255.5, 295.2 255.2 L 295.8 254.1 Q 296.6 254.5, 297.7 254.5 Q 299.3 254.5, 300.1 253.5 Q 300.9 252.5, 301.0 250.3 Q 300.4 250.9, 299.7 251.2 Q 299.0 251.4, 298.2 251.4 Q 297.2 251.4, 296.4 251.0 Q 295.6 250.6, 295.2 249.8 Q 294.7 249.0, 294.7 248.0 Q 294.7 246.9, 295.2 246.0 Q 295.7 245.2, 296.6 244.7 Q 297.4 244.2, 298.6 244.2 M 296.3 248.0 Q 296.3 249.0, 296.9 249.6 Q 297.5 250.1, 298.5 250.1 Q 299.1 250.1, 299.8 249.9 Q 300.5 249.6, 301.0 249.1 Q 300.9 247.2, 300.3 246.4 Q 299.7 245.5, 298.5 245.5 Q 297.9 245.5, 297.4 245.9 Q 296.9 246.2, 296.6 246.7 Q 296.3 247.3, 296.3 248.0 " fill="#000000"/>
<path class="legend" d="M 304.8 254.4 L 307.2 254.4 L 307.2 245.9 L 304.5 246.8 L 304.1 245.8 L 307.6 244.3 L 308.7 244.5 L 308.7 254.4 L 311.0 254.4 L 311.0 255.7 L 304.8 255.7 L 304.8 254.4 " fill="#000000"/>
</svg>