<svg xmlns="http://www.w3.org/2000/svg" xmlns:rdkit="http://www.rdkit.org/xml" xmlns:xlink="http://www.w3.org/1999/xlink" version="1.1" baseProfile="full" xml:space="preserve" width="290px" height="255px" viewBox="0 0 290 255">
<!-- END OF HEADER -->
<rect style="opacity:1.0;fill:#FFFFFF;stroke:none" width="290.0" height="255.0" x="0.0" y="0.0"> </rect>
<ellipse cx="130.9" cy="43.3" rx="0.7" ry="0.7" class="atom-0" style="fill:#7F7FFF;fill-rule:evenodd;stroke:#7F7FFF;stroke-width:1.0px;stroke-linecap:butt;stroke-linejoin:miter;stroke-opacity:1"/>
<ellipse cx="156.6" cy="57.9" rx="0.7" ry="0.7" class="atom-1" style="fill:#7F7FFF;fill-rule:evenodd;stroke:#7F7FFF;stroke-width:1.0px;stroke-linecap:butt;stroke-linejoin:miter;stroke-opacity:1"/>
<ellipse cx="182.1" cy="42.9" rx="0.4" ry="0.4" class="atom-2" style="fill:#7F7FFF;fill-rule:evenodd;stroke:#7F7FFF;stroke-width:1.0px;stroke-linecap:butt;stroke-linejoin:miter;stroke-opacity:1"/>
<ellipse cx="181.9" cy="13.3" rx="0.4" ry="0.4" class="atom-3" style="fill:#7F7FFF;fill-rule:evenodd;stroke:#7F7FFF;stroke-width:1.0px;stroke-linecap:butt;stroke-linejoin:miter;stroke-opacity:1"/>
<ellipse cx="207.9" cy="57.5" rx="0.4" ry="0.4" class="atom-4" style="fill:#7F7FFF;fill-rule:evenodd;stroke:#7F7FFF;stroke-width:1.0px;stroke-linecap:butt;stroke-linejoin:miter;stroke-opacity:1"/>
<ellipse cx="208.1" cy="87.1" rx="5.5" ry="5.5" class="atom-5" style="fill:#7F7FFF;fill-rule:evenodd;stroke:#7F7FFF;stroke-width:1.0px;stroke-linecap:butt;stroke-linejoin:miter;stroke-opacity:1"/>
<ellipse cx="182.6" cy="102.1" rx="5.5" ry="5.5" class="atom-6" style="fill:#7F7FFF;fill-rule:evenodd;stroke:#7F7FFF;stroke-width:1.0px;stroke-linecap:butt;stroke-linejoin:miter;stroke-opacity:1"/>
<ellipse cx="182.8" cy="131.7" rx="5.5" ry="5.5" class="atom-7" style="fill:#7F7FFF;fill-rule:evenodd;stroke:#7F7FFF;stroke-width:1.0px;stroke-linecap:butt;stroke-linejoin:miter;stroke-opacity:1"/>
<ellipse cx="157.3" cy="146.6" rx="5.5" ry="5.5" class="atom-8" style="fill:#7F7FFF;fill-rule:evenodd;stroke:#7F7FFF;stroke-width:1.0px;stroke-linecap:butt;stroke-linejoin:miter;stroke-opacity:1"/>
<ellipse cx="157.5" cy="176.2" rx="5.5" ry="5.5" class="atom-9" style="fill:#7F7FFF;fill-rule:evenodd;stroke:#7F7FFF;stroke-width:1.0px;stroke-linecap:butt;stroke-linejoin:miter;stroke-opacity:1"/>
<ellipse cx="131.5" cy="132.0" rx="0.3" ry="0.3" class="atom-10" style="fill:#7F7FFF;fill-rule:evenodd;stroke:#7F7FFF;stroke-width:1.0px;stroke-linecap:butt;stroke-linejoin:miter;stroke-opacity:1"/>
<ellipse cx="106.0" cy="147.0" rx="2.3" ry="2.3" class="atom-11" style="fill:#FF7F7F;fill-rule:evenodd;stroke:#FF7F7F;stroke-width:1.0px;stroke-linecap:butt;stroke-linejoin:miter;stroke-opacity:1"/>
<ellipse cx="106.2" cy="176.6" rx="2.3" ry="2.3" class="atom-12" style="fill:#FF7F7F;fill-rule:evenodd;stroke:#FF7F7F;stroke-width:1.0px;stroke-linecap:butt;stroke-linejoin:miter;stroke-opacity:1"/>
<ellipse cx="80.7" cy="191.6" rx="2.3" ry="2.3" class="atom-13" style="fill:#FF7F7F;fill-rule:evenodd;stroke:#FF7F7F;stroke-width:1.0px;stroke-linecap:butt;stroke-linejoin:miter;stroke-opacity:1"/>
<ellipse cx="55.0" cy="177.0" rx="2.3" ry="2.3" class="atom-14" style="fill:#FF7F7F;fill-rule:evenodd;stroke:#FF7F7F;stroke-width:1.0px;stroke-linecap:butt;stroke-linejoin:miter;stroke-opacity:1"/>
<ellipse cx="54.8" cy="147.4" rx="2.3" ry="2.3" class="atom-15" style="fill:#FF7F7F;fill-rule:evenodd;stroke:#FF7F7F;stroke-width:1.0px;stroke-linecap:butt;stroke-linejoin:miter;stroke-opacity:1"/>
<ellipse cx="29.0" cy="132.8" rx="2.3" ry="2.3" class="atom-16" style="fill:#FF7F7F;fill-rule:evenodd;stroke:#FF7F7F;stroke-width:1.0px;stroke-linecap:butt;stroke-linejoin:miter;stroke-opacity:1"/>
<ellipse cx="28.8" cy="103.2" rx="2.3" ry="2.3" class="atom-17" style="fill:#FF7F7F;fill-rule:evenodd;stroke:#FF7F7F;stroke-width:1.0px;stroke-linecap:butt;stroke-linejoin:miter;stroke-opacity:1"/>
<ellipse cx="54.3" cy="88.2" rx="2.3" ry="2.3" class="atom-18" style="fill:#FF7F7F;fill-rule:evenodd;stroke:#FF7F7F;stroke-width:1.0px;stroke-linecap:butt;stroke-linejoin:miter;stroke-opacity:1"/>
<ellipse cx="80.1" cy="102.8" rx="2.3" ry="2.3" class="atom-19" style="fill:#FF7F7F;fill-rule:evenodd;stroke:#FF7F7F;stroke-width:1.0px;stroke-linecap:butt;stroke-linejoin:miter;stroke-opacity:1"/>
<ellipse cx="80.3" cy="132.4" rx="2.3" ry="2.3" class="atom-20" style="fill:#FF7F7F;fill-rule:evenodd;stroke:#FF7F7F;stroke-width:1.0px;stroke-linecap:butt;stroke-linejoin:miter;stroke-opacity:1"/>
<ellipse cx="208.5" cy="146.3" rx="5.5" ry="5.5" class="atom-21" style="fill:#7F7FFF;fill-rule:evenodd;stroke:#7F7FFF;stroke-width:1.0px;stroke-linecap:butt;stroke-linejoin:miter;stroke-opacity:1"/>
<ellipse cx="208.7" cy="175.9" rx="5.5" ry="5.5" class="atom-22" style="fill:#7F7FFF;fill-rule:evenodd;stroke:#7F7FFF;stroke-width:1.0px;stroke-linecap:butt;stroke-linejoin:miter;stroke-opacity:1"/>
<ellipse cx="234.5" cy="190.5" rx="5.5" ry="5.5" class="atom-23" style="fill:#7F7FFF;fill-rule:evenodd;stroke:#7F7FFF;stroke-width:1.0px;stroke-linecap:butt;stroke-linejoin:miter;stroke-opacity:1"/>
<ellipse cx="234.7" cy="220.1" rx="5.5" ry="5.5" class="atom-24" style="fill:#7F7FFF;fill-rule:evenodd;stroke:#7F7FFF;stroke-width:1.0px;stroke-linecap:butt;stroke-linejoin:miter;stroke-opacity:1"/>
<ellipse cx="260.0" cy="175.5" rx="5.5" ry="5.5" class="atom-25" style="fill:#7F7FFF;fill-rule:evenodd;stroke:#7F7FFF;stroke-width:1.0px;stroke-linecap:butt;stroke-linejoin:miter;stroke-opacity:1"/>
<ellipse cx="259.8" cy="145.9" rx="5.5" ry="5.5" class="atom-26" style="fill:#7F7FFF;fill-rule:evenodd;stroke:#7F7FFF;stroke-width:1.0px;stroke-linecap:butt;stroke-linejoin:miter;stroke-opacity:1"/>
<ellipse cx="234.0" cy="131.3" rx="5.5" ry="5.5" class="atom-27" style="fill:#7F7FFF;fill-rule:evenodd;stroke:#7F7FFF;stroke-width:1.0px;stroke-linecap:butt;stroke-linejoin:miter;stroke-opacity:1"/>
<ellipse cx="233.8" cy="101.7" rx="5.5" ry="5.5" class="atom-28" style="fill:#7F7FFF;fill-rule:evenodd;stroke:#7F7FFF;stroke-width:1.0px;stroke-linecap:butt;stroke-linejoin:miter;stroke-opacity:1"/>
<ellipse cx="259.3" cy="86.7" rx="5.5" ry="5.5" class="atom-29" style="fill:#7F7FFF;fill-rule:evenodd;stroke:#7F7FFF;stroke-width:1.0px;stroke-linecap:butt;stroke-linejoin:miter;stroke-opacity:1"/>
<path class="bond-0 atom-0 atom-1" d="M 130.9,43.3 L 152.5,55.5" style="fill:none;fill-rule:evenodd;stroke:#000000;stroke-width:2.0px;stroke-linecap:butt;stroke-linejoin:miter;stroke-opacity:1"/>
<path class="bond-1 atom-1 atom-2" d="M 160.8,55.4 L 182.1,42.9" style="fill:none;fill-rule:evenodd;stroke:#000000;stroke-width:2.0px;stroke-linecap:butt;stroke-linejoin:miter;stroke-opacity:1"/>
<path class="bond-2 atom-2 atom-3" d="M 181.8,39.2 L 182.4,39.2" style="fill:none;fill-rule:evenodd;stroke:#000000;stroke-width:1.0px;stroke-linecap:butt;stroke-linejoin:miter;stroke-opacity:1"/>
<path class="bond-2 atom-2 atom-3" d="M 181.5,35.5 L 182.6,35.5" style="fill:none;fill-rule:evenodd;stroke:#000000;stroke-width:1.0px;stroke-linecap:butt;stroke-linejoin:miter;stroke-opacity:1"/>
<path class="bond-2 atom-2 atom-3" d="M 181.2,31.8 L 182.9,31.8" style="fill:none;fill-rule:evenodd;stroke:#000000;stroke-width:1.0px;stroke-linecap:butt;stroke-linejoin:miter;stroke-opacity:1"/>
<path class="bond-2 atom-2 atom-3" d="M 180.9,28.1 L 183.1,28.1" style="fill:none;fill-rule:evenodd;stroke:#000000;stroke-width:1.0px;stroke-linecap:butt;stroke-linejoin:miter;stroke-opacity:1"/>
<path class="bond-2 atom-2 atom-3" d="M 180.6,24.4 L 183.4,24.4" style="fill:none;fill-rule:evenodd;stroke:#000000;stroke-width:1.0px;stroke-linecap:butt;stroke-linejoin:miter;stroke-opacity:1"/>
<path class="bond-2 atom-2 atom-3" d="M 180.3,20.7 L 183.6,20.7" style="fill:none;fill-rule:evenodd;stroke:#000000;stroke-width:1.0px;stroke-linecap:butt;stroke-linejoin:miter;stroke-opacity:1"/>
<path class="bond-2 atom-2 atom-3" d="M 180.0,17.0 L 183.9,17.0" style="fill:none;fill-rule:evenodd;stroke:#000000;stroke-width:1.0px;stroke-linecap:butt;stroke-linejoin:miter;stroke-opacity:1"/>
<path class="bond-2 atom-2 atom-3" d="M 179.7,13.3 L 184.1,13.3" style="fill:none;fill-rule:evenodd;stroke:#000000;stroke-width:1.0px;stroke-linecap:butt;stroke-linejoin:miter;stroke-opacity:1"/>
<path class="bond-3 atom-2 atom-4" d="M 182.1,42.9 L 207.9,57.5" style="fill:none;fill-rule:evenodd;stroke:#000000;stroke-width:2.0px;stroke-linecap:butt;stroke-linejoin:miter;stroke-opacity:1"/>
<path class="bond-4 atom-4 atom-5" d="M 207.9,57.5 L 208.0,81.9" style="fill:none;fill-rule:evenodd;stroke:#000000;stroke-width:2.0px;stroke-linecap:butt;stroke-linejoin:miter;stroke-opacity:1"/>
<path class="bond-5 atom-5 atom-6" d="M 203.9,89.5 L 182.6,102.1" style="fill:none;fill-rule:evenodd;stroke:#000000;stroke-width:2.0px;stroke-linecap:butt;stroke-linejoin:miter;stroke-opacity:1"/>
<path class="bond-6 atom-6 atom-7" d="M 182.6,102.1 L 182.8,131.7" style="fill:none;fill-rule:evenodd;stroke:#000000;stroke-width:2.0px;stroke-linecap:butt;stroke-linejoin:miter;stroke-opacity:1"/>
<path class="bond-7 atom-7 atom-8" d="M 182.8,131.7 L 159.4,147.8 L 154.9,145.3 Z" style="fill:#000000;fill-rule:evenodd;fill-opacity:1;stroke:#000000;stroke-width:0.5px;stroke-linecap:butt;stroke-linejoin:miter;stroke-miterlimit:10;stroke-opacity:1;"/>
<path class="bond-8 atom-8 atom-9" d="M 155.0,145.4 L 155.2,171.0" style="fill:none;fill-rule:evenodd;stroke:#000000;stroke-width:2.0px;stroke-linecap:butt;stroke-linejoin:miter;stroke-opacity:1"/>
<path class="bond-8 atom-8 atom-9" d="M 159.5,145.3 L 159.7,171.0" style="fill:none;fill-rule:evenodd;stroke:#000000;stroke-width:2.0px;stroke-linecap:butt;stroke-linejoin:miter;stroke-opacity:1"/>
<path class="bond-9 atom-8 atom-10" d="M 157.3,146.6 L 135.7,134.4" style="fill:none;fill-rule:evenodd;stroke:#000000;stroke-width:2.0px;stroke-linecap:butt;stroke-linejoin:miter;stroke-opacity:1"/>
<path class="bond-10 atom-10 atom-11" d="M 127.4,134.5 L 106.0,147.0" style="fill:none;fill-rule:evenodd;stroke:#000000;stroke-width:2.0px;stroke-linecap:butt;stroke-linejoin:miter;stroke-opacity:1"/>
<path class="bond-11 atom-11 atom-12" d="M 106.0,147.0 L 106.2,176.6" style="fill:none;fill-rule:evenodd;stroke:#000000;stroke-width:2.0px;stroke-linecap:butt;stroke-linejoin:miter;stroke-opacity:1"/>
<path class="bond-11 atom-11 atom-12" d="M 101.6,149.6 L 101.8,174.1" style="fill:none;fill-rule:evenodd;stroke:#000000;stroke-width:2.0px;stroke-linecap:butt;stroke-linejoin:miter;stroke-opacity:1"/>
<path class="bond-12 atom-12 atom-13" d="M 106.2,176.6 L 84.9,189.1" style="fill:none;fill-rule:evenodd;stroke:#000000;stroke-width:2.0px;stroke-linecap:butt;stroke-linejoin:miter;stroke-opacity:1"/>
<path class="bond-13 atom-13 atom-14" d="M 76.5,189.2 L 55.0,177.0" style="fill:none;fill-rule:evenodd;stroke:#000000;stroke-width:2.0px;stroke-linecap:butt;stroke-linejoin:miter;stroke-opacity:1"/>
<path class="bond-13 atom-13 atom-14" d="M 78.7,185.4 L 59.4,174.4" style="fill:none;fill-rule:evenodd;stroke:#000000;stroke-width:2.0px;stroke-linecap:butt;stroke-linejoin:miter;stroke-opacity:1"/>
<path class="bond-14 atom-14 atom-15" d="M 55.0,177.0 L 54.8,147.4" style="fill:none;fill-rule:evenodd;stroke:#000000;stroke-width:2.0px;stroke-linecap:butt;stroke-linejoin:miter;stroke-opacity:1"/>
<path class="bond-15 atom-15 atom-16" d="M 54.8,147.4 L 29.0,132.8" style="fill:none;fill-rule:evenodd;stroke:#000000;stroke-width:2.0px;stroke-linecap:butt;stroke-linejoin:miter;stroke-opacity:1"/>
<path class="bond-15 atom-15 atom-16" d="M 54.7,142.2 L 33.4,130.2" style="fill:none;fill-rule:evenodd;stroke:#000000;stroke-width:2.0px;stroke-linecap:butt;stroke-linejoin:miter;stroke-opacity:1"/>
<path class="bond-16 atom-16 atom-17" d="M 29.0,132.8 L 28.8,103.2" style="fill:none;fill-rule:evenodd;stroke:#000000;stroke-width:2.0px;stroke-linecap:butt;stroke-linejoin:miter;stroke-opacity:1"/>
<path class="bond-17 atom-17 atom-18" d="M 28.8,103.2 L 54.3,88.2" style="fill:none;fill-rule:evenodd;stroke:#000000;stroke-width:2.0px;stroke-linecap:butt;stroke-linejoin:miter;stroke-opacity:1"/>
<path class="bond-17 atom-17 atom-18" d="M 33.3,105.7 L 54.4,93.3" style="fill:none;fill-rule:evenodd;stroke:#000000;stroke-width:2.0px;stroke-linecap:butt;stroke-linejoin:miter;stroke-opacity:1"/>
<path class="bond-18 atom-18 atom-19" d="M 54.3,88.2 L 80.1,102.8" style="fill:none;fill-rule:evenodd;stroke:#000000;stroke-width:2.0px;stroke-linecap:butt;stroke-linejoin:miter;stroke-opacity:1"/>
<path class="bond-19 atom-19 atom-20" d="M 80.1,102.8 L 80.3,132.4" style="fill:none;fill-rule:evenodd;stroke:#000000;stroke-width:2.0px;stroke-linecap:butt;stroke-linejoin:miter;stroke-opacity:1"/>
<path class="bond-19 atom-19 atom-20" d="M 75.6,105.4 L 75.8,129.9" style="fill:none;fill-rule:evenodd;stroke:#000000;stroke-width:2.0px;stroke-linecap:butt;stroke-linejoin:miter;stroke-opacity:1"/>
<path class="bond-20 atom-7 atom-21" d="M 182.8,131.7 L 208.5,146.3" style="fill:none;fill-rule:evenodd;stroke:#000000;stroke-width:2.0px;stroke-linecap:butt;stroke-linejoin:miter;stroke-opacity:1"/>
<path class="bond-21 atom-21 atom-22" d="M 208.5,146.3 L 208.7,175.9" style="fill:none;fill-rule:evenodd;stroke:#000000;stroke-width:2.0px;stroke-linecap:butt;stroke-linejoin:miter;stroke-opacity:1"/>
<path class="bond-21 atom-21 atom-22" d="M 213.0,148.8 L 213.1,173.3" style="fill:none;fill-rule:evenodd;stroke:#000000;stroke-width:2.0px;stroke-linecap:butt;stroke-linejoin:miter;stroke-opacity:1"/>
<path class="bond-22 atom-22 atom-23" d="M 208.7,175.9 L 234.5,190.5" style="fill:none;fill-rule:evenodd;stroke:#000000;stroke-width:2.0px;stroke-linecap:butt;stroke-linejoin:miter;stroke-opacity:1"/>
<path class="bond-23 atom-23 atom-24" d="M 234.5,190.5 L 234.6,215.1" style="fill:none;fill-rule:evenodd;stroke:#000000;stroke-width:2.0px;stroke-linecap:butt;stroke-linejoin:miter;stroke-opacity:1"/>
<path class="bond-24 atom-23 atom-25" d="M 234.5,190.5 L 260.0,175.5" style="fill:none;fill-rule:evenodd;stroke:#000000;stroke-width:2.0px;stroke-linecap:butt;stroke-linejoin:miter;stroke-opacity:1"/>
<path class="bond-24 atom-23 atom-25" d="M 234.4,185.3 L 255.5,173.0" style="fill:none;fill-rule:evenodd;stroke:#000000;stroke-width:2.0px;stroke-linecap:butt;stroke-linejoin:miter;stroke-opacity:1"/>
<path class="bond-25 atom-25 atom-26" d="M 260.0,175.5 L 259.8,145.9" style="fill:none;fill-rule:evenodd;stroke:#000000;stroke-width:2.0px;stroke-linecap:butt;stroke-linejoin:miter;stroke-opacity:1"/>
<path class="bond-26 atom-26 atom-27" d="M 259.8,145.9 L 234.0,131.3" style="fill:none;fill-rule:evenodd;stroke:#000000;stroke-width:2.0px;stroke-linecap:butt;stroke-linejoin:miter;stroke-opacity:1"/>
<path class="bond-26 atom-26 atom-27" d="M 255.3,148.5 L 234.1,136.4" style="fill:none;fill-rule:evenodd;stroke:#000000;stroke-width:2.0px;stroke-linecap:butt;stroke-linejoin:miter;stroke-opacity:1"/>
<path class="bond-27 atom-27 atom-28" d="M 234.0,131.3 L 233.8,101.7" style="fill:none;fill-rule:evenodd;stroke:#000000;stroke-width:2.0px;stroke-linecap:butt;stroke-linejoin:miter;stroke-opacity:1"/>
<path class="bond-28 atom-28 atom-29" d="M 233.8,104.3 L 255.6,91.5" style="fill:none;fill-rule:evenodd;stroke:#000000;stroke-width:2.0px;stroke-linecap:butt;stroke-linejoin:miter;stroke-opacity:1"/>
<path class="bond-28 atom-28 atom-29" d="M 231.6,100.4 L 253.4,87.6" style="fill:none;fill-rule:evenodd;stroke:#000000;stroke-width:2.0px;stroke-linecap:butt;stroke-linejoin:miter;stroke-opacity:1"/>
<path class="bond-29 atom-28 atom-5" d="M 233.8,101.7 L 212.2,89.4" style="fill:none;fill-rule:evenodd;stroke:#000000;stroke-width:2.0px;stroke-linecap:butt;stroke-linejoin:miter;stroke-opacity:1"/>
<path class="bond-30 atom-20 atom-11" d="M 80.3,132.4 L 106.0,147.0" style="fill:none;fill-rule:evenodd;stroke:#000000;stroke-width:2.0px;stroke-linecap:butt;stroke-linejoin:miter;stroke-opacity:1"/>
<path class="bond-31 atom-27 atom-21" d="M 234.0,131.3 L 208.5,146.3" style="fill:none;fill-rule:evenodd;stroke:#000000;stroke-width:2.0px;stroke-linecap:butt;stroke-linejoin:miter;stroke-opacity:1"/>
<path class="bond-32 atom-20 atom-15" d="M 80.3,132.4 L 54.8,147.4" style="fill:none;fill-rule:evenodd;stroke:#000000;stroke-width:2.0px;stroke-linecap:butt;stroke-linejoin:miter;stroke-opacity:1"/>
<path d="M 181.1,43.5 L 182.1,42.9 L 183.4,43.6" style="fill:none;stroke:#000000;stroke-width:2.0px;stroke-linecap:butt;stroke-linejoin:miter;stroke-miterlimit:10;stroke-opacity:1;"/>
<path d="M 206.6,56.8 L 207.9,57.5 L 207.9,58.7" style="fill:none;stroke:#000000;stroke-width:2.0px;stroke-linecap:butt;stroke-linejoin:miter;stroke-miterlimit:10;stroke-opacity:1;"/>
<path d="M 183.6,101.4 L 182.6,102.1 L 182.6,103.5" style="fill:none;stroke:#000000;stroke-width:2.0px;stroke-linecap:butt;stroke-linejoin:miter;stroke-miterlimit:10;stroke-opacity:1;"/>
<path d="M 182.8,130.2 L 182.8,131.7 L 184.1,132.4" style="fill:none;stroke:#000000;stroke-width:2.0px;stroke-linecap:butt;stroke-linejoin:miter;stroke-miterlimit:10;stroke-opacity:1;"/>
<path d="M 106.2,175.1 L 106.2,176.6 L 105.2,177.2" style="fill:none;stroke:#000000;stroke-width:2.0px;stroke-linecap:butt;stroke-linejoin:miter;stroke-miterlimit:10;stroke-opacity:1;"/>
<path d="M 56.0,177.6 L 55.0,177.0 L 55.0,175.5" style="fill:none;stroke:#000000;stroke-width:2.0px;stroke-linecap:butt;stroke-linejoin:miter;stroke-miterlimit:10;stroke-opacity:1;"/>
<path d="M 30.3,133.5 L 29.0,132.8 L 29.0,131.3" style="fill:none;stroke:#000000;stroke-width:2.0px;stroke-linecap:butt;stroke-linejoin:miter;stroke-miterlimit:10;stroke-opacity:1;"/>
<path d="M 28.8,104.7 L 28.8,103.2 L 30.1,102.4" style="fill:none;stroke:#000000;stroke-width:2.0px;stroke-linecap:butt;stroke-linejoin:miter;stroke-miterlimit:10;stroke-opacity:1;"/>
<path d="M 53.0,88.9 L 54.3,88.2 L 55.6,88.9" style="fill:none;stroke:#000000;stroke-width:2.0px;stroke-linecap:butt;stroke-linejoin:miter;stroke-miterlimit:10;stroke-opacity:1;"/>
<path d="M 78.8,102.1 L 80.1,102.8 L 80.1,104.3" style="fill:none;stroke:#000000;stroke-width:2.0px;stroke-linecap:butt;stroke-linejoin:miter;stroke-miterlimit:10;stroke-opacity:1;"/>
<path d="M 208.7,174.4 L 208.7,175.9 L 210.0,176.6" style="fill:none;stroke:#000000;stroke-width:2.0px;stroke-linecap:butt;stroke-linejoin:miter;stroke-miterlimit:10;stroke-opacity:1;"/>
<path d="M 258.7,176.2 L 260.0,175.5 L 260.0,174.0" style="fill:none;stroke:#000000;stroke-width:2.0px;stroke-linecap:butt;stroke-linejoin:miter;stroke-miterlimit:10;stroke-opacity:1;"/>
<path d="M 259.8,147.4 L 259.8,145.9 L 258.5,145.2" style="fill:none;stroke:#000000;stroke-width:2.0px;stroke-linecap:butt;stroke-linejoin:miter;stroke-miterlimit:10;stroke-opacity:1;"/>
<path d="M 233.8,103.2 L 233.8,101.7 L 232.7,101.1" style="fill:none;stroke:#000000;stroke-width:2.0px;stroke-linecap:butt;stroke-linejoin:miter;stroke-miterlimit:10;stroke-opacity:1;"/>
<path class="atom-1" d="M 154.8 53.7 L 157.5 58.1 Q 157.8 58.5, 158.2 59.3 Q 158.7 60.1, 158.7 60.2 L 158.7 53.7 L 159.8 53.7 L 159.8 62.1 L 158.6 62.1 L 155.7 57.2 Q 155.4 56.6, 155.0 56.0 Q 154.6 55.3, 154.5 55.1 L 154.5 62.1 L 153.4 62.1 L 153.4 53.7 L 154.8 53.7 " fill="#000000"/>
<path class="atom-1" d="M 153.3 62.9 L 154.5 62.9 L 154.5 66.5 L 158.8 66.5 L 158.8 62.9 L 159.9 62.9 L 159.9 71.3 L 158.8 71.3 L 158.8 67.4 L 154.5 67.4 L 154.5 71.3 L 153.3 71.3 L 153.3 62.9 " fill="#000000"/>
<path class="atom-5" d="M 206.2 82.9 L 209.0 87.3 Q 209.2 87.8, 209.7 88.6 Q 210.1 89.4, 210.1 89.4 L 210.1 82.9 L 211.3 82.9 L 211.3 91.3 L 210.1 91.3 L 207.2 86.4 Q 206.8 85.9, 206.5 85.2 Q 206.1 84.5, 206.0 84.3 L 206.0 91.3 L 204.9 91.3 L 204.9 82.9 L 206.2 82.9 " fill="#000000"/>
<path class="atom-9" d="M 153.6 176.2 Q 153.6 174.2, 154.6 173.1 Q 155.6 172.0, 157.5 172.0 Q 159.3 172.0, 160.3 173.1 Q 161.3 174.2, 161.3 176.2 Q 161.3 178.3, 160.3 179.4 Q 159.3 180.6, 157.5 180.6 Q 155.6 180.6, 154.6 179.4 Q 153.6 178.3, 153.6 176.2 M 157.5 179.6 Q 158.7 179.6, 159.4 178.8 Q 160.1 177.9, 160.1 176.2 Q 160.1 174.6, 159.4 173.8 Q 158.7 172.9, 157.5 172.9 Q 156.2 172.9, 155.5 173.8 Q 154.8 174.6, 154.8 176.2 Q 154.8 177.9, 155.5 178.8 Q 156.2 179.6, 157.5 179.6 " fill="#000000"/>
<path class="atom-10" d="M 129.7 127.8 L 132.4 132.3 Q 132.7 132.7, 133.1 133.5 Q 133.6 134.3, 133.6 134.3 L 133.6 127.8 L 134.7 127.8 L 134.7 136.2 L 133.6 136.2 L 130.6 131.4 Q 130.3 130.8, 129.9 130.1 Q 129.5 129.5, 129.4 129.3 L 129.4 136.2 L 128.3 136.2 L 128.3 127.8 L 129.7 127.8 " fill="#000000"/>
<path class="atom-10" d="M 128.2 118.6 L 129.4 118.6 L 129.4 122.2 L 133.7 122.2 L 133.7 118.6 L 134.8 118.6 L 134.8 127.0 L 133.7 127.0 L 133.7 123.1 L 129.4 123.1 L 129.4 127.0 L 128.2 127.0 L 128.2 118.6 " fill="#000000"/>
<path class="atom-13" d="M 78.8 187.4 L 81.6 191.8 Q 81.9 192.3, 82.3 193.1 Q 82.7 193.8, 82.8 193.9 L 82.8 187.4 L 83.9 187.4 L 83.9 195.8 L 82.7 195.8 L 79.8 190.9 Q 79.4 190.3, 79.1 189.7 Q 78.7 189.0, 78.6 188.8 L 78.6 195.8 L 77.5 195.8 L 77.5 187.4 L 78.8 187.4 " fill="#000000"/>
<path class="atom-24" d="M 231.4 220.3 Q 231.4 218.3, 232.4 217.2 Q 233.4 216.1, 235.3 216.1 Q 237.0 216.1, 237.9 217.3 L 237.1 217.9 Q 236.4 217.0, 235.3 217.0 Q 234.0 217.0, 233.3 217.9 Q 232.6 218.7, 232.6 220.3 Q 232.6 222.0, 233.3 222.9 Q 234.0 223.7, 235.4 223.7 Q 236.3 223.7, 237.4 223.1 L 237.7 224.0 Q 237.3 224.3, 236.6 224.5 Q 235.9 224.7, 235.2 224.7 Q 233.4 224.7, 232.4 223.5 Q 231.4 222.4, 231.4 220.3 " fill="#000000"/>
<path class="atom-24" d="M 238.8 215.6 L 239.8 215.6 L 239.8 224.5 L 238.8 224.5 L 238.8 215.6 " fill="#000000"/>
<path class="atom-29" d="M 255.5 86.7 Q 255.5 84.7, 256.5 83.6 Q 257.5 82.5, 259.3 82.5 Q 261.2 82.5, 262.2 83.6 Q 263.2 84.7, 263.2 86.7 Q 263.2 88.8, 262.2 89.9 Q 261.2 91.1, 259.3 91.1 Q 257.5 91.1, 256.5 89.9 Q 255.5 88.8, 255.5 86.7 M 259.3 90.1 Q 260.6 90.1, 261.3 89.3 Q 262.0 88.4, 262.0 86.7 Q 262.0 85.1, 261.3 84.3 Q 260.6 83.4, 259.3 83.4 Q 258.1 83.4, 257.4 84.2 Q 256.7 85.1, 256.7 86.7 Q 256.7 88.4, 257.4 89.3 Q 258.1 90.1, 259.3 90.1 " fill="#000000"/>
<path class="legend" d="M 17.5 231.5 Q 19.2 231.5, 20.1 232.5 Q 21.1 233.6, 21.1 235.6 Q 21.1 237.6, 19.9 238.8 Q 18.8 240.0, 16.9 240.0 Q 15.9 240.0, 15.1 239.7 L 15.1 243.8 L 13.6 243.8 L 13.6 231.6 L 14.9 231.6 L 15.1 232.6 Q 15.5 232.0, 16.1 231.8 Q 16.7 231.5, 17.5 231.5 M 16.8 238.8 Q 18.1 238.8, 18.8 237.9 Q 19.5 237.1, 19.5 235.6 Q 19.5 234.2, 19.0 233.4 Q 18.4 232.6, 17.4 232.6 Q 16.6 232.6, 16.0 233.1 Q 15.4 233.5, 15.1 234.3 L 15.1 238.5 Q 16.0 238.8, 16.8 238.8 " fill="#000000"/>
<path class="legend" d="M 23.5 231.6 L 23.7 232.7 Q 24.5 231.5, 25.9 231.5 Q 26.4 231.5, 27.0 231.6 L 26.7 233.0 Q 26.1 232.8, 25.7 232.8 Q 25.0 232.8, 24.5 233.1 Q 24.1 233.3, 23.8 234.0 L 23.8 239.8 L 22.3 239.8 L 22.3 231.6 L 23.5 231.6 " fill="#000000"/>
<path class="legend" d="M 27.7 235.7 Q 27.7 233.7, 28.7 232.6 Q 29.7 231.5, 31.5 231.5 Q 33.3 231.5, 34.1 232.6 Q 35.0 233.6, 35.0 235.7 L 35.0 235.9 L 29.2 235.9 Q 29.2 237.3, 29.9 238.0 Q 30.5 238.8, 31.7 238.8 Q 32.3 238.8, 32.9 238.6 Q 33.5 238.5, 34.2 238.2 L 34.6 239.2 Q 33.8 239.6, 33.1 239.8 Q 32.4 240.0, 31.6 240.0 Q 29.7 240.0, 28.7 238.8 Q 27.7 237.7, 27.7 235.7 M 31.5 232.6 Q 30.6 232.6, 30.0 233.2 Q 29.5 233.7, 29.3 234.8 L 33.4 234.8 Q 33.3 233.7, 32.8 233.2 Q 32.4 232.6, 31.5 232.6 " fill="#000000"/>
<path class="legend" d="M 43.5 227.7 L 43.5 239.8 L 42.3 239.8 L 42.1 238.8 Q 41.2 240.0, 39.6 240.0 Q 37.9 240.0, 37.0 238.9 Q 36.0 237.8, 36.0 235.8 Q 36.0 233.8, 37.1 232.6 Q 38.3 231.5, 40.3 231.5 Q 41.1 231.5, 42.0 231.7 L 42.0 227.7 L 43.5 227.7 M 39.7 238.8 Q 40.6 238.8, 41.2 238.3 Q 41.8 237.9, 42.0 237.0 L 42.0 232.9 Q 41.2 232.6, 40.3 232.6 Q 39.0 232.6, 38.3 233.5 Q 37.6 234.3, 37.6 235.8 Q 37.6 237.3, 38.1 238.0 Q 38.7 238.8, 39.7 238.8 " fill="#000000"/>
<path class="legend" d="M 45.2 238.2 L 46.8 238.2 L 46.8 239.8 L 45.2 239.8 L 45.2 238.2 " fill="#000000"/>
<path class="legend" d="" fill="#000000"/>
<path class="legend" d="M 58.0 231.5 Q 59.7 231.5, 60.6 232.5 Q 61.6 233.6, 61.6 235.6 Q 61.6 237.6, 60.4 238.8 Q 59.3 240.0, 57.3 240.0 Q 56.4 240.0, 55.6 239.7 L 55.6 243.8 L 54.1 243.8 L 54.1 231.6 L 55.3 231.6 L 55.5 232.6 Q 56.0 232.0, 56.6 231.8 Q 57.2 231.5, 58.0 231.5 M 57.3 238.8 Q 58.6 238.8, 59.3 237.9 Q 60.0 237.1, 60.0 235.6 Q 60.0 234.2, 59.5 233.4 Q 58.9 232.6, 57.9 232.6 Q 57.0 232.6, 56.4 233.1 Q 55.9 233.5, 55.6 234.3 L 55.6 238.5 Q 56.4 238.8, 57.3 238.8 " fill="#000000"/>
<path class="legend" d="M 62.7 228.5 L 64.3 228.5 L 64.3 239.8 L 62.7 239.8 L 62.7 228.5 " fill="#000000"/>
<path class="legend" d="M 66.1 234.2 Q 66.1 231.3, 67.4 229.9 Q 68.8 228.4, 71.3 228.4 Q 73.6 228.4, 74.9 230.0 L 73.8 230.9 Q 72.9 229.7, 71.3 229.7 Q 69.6 229.7, 68.7 230.8 Q 67.8 232.0, 67.8 234.2 Q 67.8 236.4, 68.7 237.5 Q 69.6 238.7, 71.5 238.7 Q 72.7 238.7, 74.2 237.9 L 74.6 239.1 Q 74.0 239.5, 73.1 239.8 Q 72.2 240.0, 71.2 240.0 Q 68.8 240.0, 67.4 238.5 Q 66.1 237.0, 66.1 234.2 " fill="#000000"/>
<path class="legend" d="M 80.1 232.7 Q 81.1 232.7, 81.9 233.2 Q 82.7 233.6, 83.2 234.4 Q 83.6 235.2, 83.6 236.2 Q 83.6 237.4, 83.1 238.3 Q 82.5 239.1, 81.6 239.5 Q 80.6 240.0, 79.6 240.0 Q 78.5 240.0, 77.6 239.6 Q 76.6 239.2, 76.0 238.5 L 76.9 237.5 Q 77.5 238.0, 78.2 238.4 Q 78.9 238.7, 79.6 238.7 Q 80.6 238.7, 81.3 238.0 Q 82.0 237.4, 82.0 236.3 Q 82.0 235.1, 81.3 234.5 Q 80.6 233.9, 79.5 233.9 Q 78.5 233.9, 77.4 234.4 L 76.6 234.0 L 77.1 228.5 L 82.9 228.5 L 82.8 229.8 L 78.4 229.8 L 78.1 233.1 Q 79.1 232.7, 80.1 232.7 " fill="#000000"/>
<path class="legend" d="M 89.0 240.0 Q 86.9 240.0, 85.9 238.4 Q 84.9 236.9, 84.9 234.2 Q 84.9 231.4, 85.9 229.9 Q 86.9 228.4, 89.0 228.4 Q 91.1 228.4, 92.1 229.9 Q 93.1 231.4, 93.1 234.2 Q 93.1 236.9, 92.1 238.4 Q 91.1 240.0, 89.0 240.0 M 89.0 238.7 Q 90.2 238.7, 90.9 237.5 Q 91.5 236.4, 91.5 234.2 Q 91.5 231.9, 90.9 230.8 Q 90.2 229.7, 89.0 229.7 Q 87.8 229.7, 87.1 230.8 Q 86.5 231.9, 86.5 234.2 Q 86.5 236.4, 87.1 237.5 Q 87.8 238.7, 89.0 238.7 " fill="#000000"/>
<path class="legend" d="M 94.6 238.0 L 96.2 238.0 L 96.2 239.6 L 94.6 239.6 L 94.6 238.0 M 94.6 232.5 L 96.2 232.5 L 96.2 234.1 L 94.6 234.1 L 94.6 232.5 " fill="#000000"/>
<path class="legend" d="" fill="#000000"/>
<path class="legend" d="M 108.1 232.8 Q 109.1 232.8, 109.9 233.2 Q 110.7 233.6, 111.1 234.4 Q 111.6 235.2, 111.6 236.2 Q 111.6 237.3, 111.1 238.2 Q 110.6 239.0, 109.7 239.5 Q 108.9 240.0, 107.7 240.0 Q 105.7 240.0, 104.7 238.6 Q 103.7 237.2, 103.7 234.5 Q 103.7 231.5, 104.9 229.9 Q 106.2 228.4, 108.6 228.4 Q 109.3 228.4, 109.9 228.5 Q 110.5 228.7, 111.1 229.0 L 110.5 230.1 Q 109.7 229.7, 108.6 229.7 Q 107.0 229.7, 106.2 230.7 Q 105.4 231.7, 105.3 233.8 Q 105.9 233.3, 106.6 233.0 Q 107.3 232.8, 108.1 232.8 M 107.8 238.6 Q 108.4 238.6, 108.9 238.3 Q 109.4 238.0, 109.7 237.4 Q 110.0 236.9, 110.0 236.2 Q 110.0 235.2, 109.4 234.6 Q 108.8 234.0, 107.8 234.0 Q 107.2 234.0, 106.5 234.3 Q 105.8 234.6, 105.3 235.1 Q 105.4 237.0, 106.0 237.8 Q 106.6 238.6, 107.8 238.6 " fill="#000000"/>
<path class="legend" d="M 112.9 238.2 L 114.5 238.2 L 114.5 239.8 L 112.9 239.8 L 112.9 238.2 " fill="#000000"/>
<path class="legend" d="M 123.4 235.9 L 124.7 235.9 L 124.7 237.2 L 123.4 237.2 L 123.4 239.8 L 121.8 239.8 L 121.8 237.2 L 116.0 237.2 L 116.0 236.2 L 121.0 228.5 L 123.4 228.5 L 123.4 235.9 M 117.8 235.9 L 121.8 235.9 L 121.8 229.5 L 117.8 235.9 " fill="#000000"/>
<path class="legend" d="M 130.1 232.7 Q 131.1 232.7, 131.9 233.2 Q 132.7 233.6, 133.2 234.4 Q 133.6 235.2, 133.6 236.2 Q 133.6 237.4, 133.0 238.3 Q 132.5 239.1, 131.6 239.5 Q 130.6 240.0, 129.6 240.0 Q 128.5 240.0, 127.6 239.6 Q 126.6 239.2, 126.0 238.5 L 126.9 237.5 Q 127.4 238.0, 128.2 238.4 Q 128.9 238.7, 129.6 238.7 Q 130.6 238.7, 131.3 238.0 Q 132.0 237.4, 132.0 236.3 Q 132.0 235.1, 131.3 234.5 Q 130.6 233.9, 129.5 233.9 Q 128.5 233.9, 127.4 234.4 L 126.5 234.0 L 127.1 228.5 L 132.9 228.5 L 132.8 229.8 L 128.4 229.8 L 128.1 233.1 Q 129.1 232.7, 130.1 232.7 " fill="#000000"/>
<path class="legend" d="" fill="#000000"/>
<path class="legend" d="" fill="#000000"/>
<path class="legend" d="" fill="#000000"/>
<path class="legend" d="" fill="#000000"/>
<path class="legend" d="" fill="#000000"/>
<path class="legend" d="M 163.8 235.7 Q 163.8 233.7, 164.8 232.6 Q 165.8 231.5, 167.7 231.5 Q 169.5 231.5, 170.3 232.6 Q 171.1 233.6, 171.1 235.7 L 171.1 235.9 L 165.3 235.9 Q 165.4 237.3, 166.0 238.0 Q 166.6 238.8, 167.8 238.8 Q 168.4 238.8, 169.0 238.6 Q 169.6 238.5, 170.3 238.2 L 170.8 239.2 Q 170.0 239.6, 169.2 239.8 Q 168.5 240.0, 167.7 240.0 Q 165.9 240.0, 164.8 238.8 Q 163.8 237.7, 163.8 235.7 M 167.7 232.6 Q 166.7 232.6, 166.1 233.2 Q 165.6 233.7, 165.4 234.8 L 169.5 234.8 Q 169.4 233.7, 168.9 233.2 Q 168.5 232.6, 167.7 232.6 " fill="#000000"/>
<path class="legend" d="M 175.1 235.6 L 172.4 231.6 L 174.1 231.6 L 176.1 234.4 L 178.1 231.6 L 179.7 231.6 L 176.9 235.6 L 179.9 239.8 L 178.2 239.8 L 176.0 236.7 L 173.8 239.8 L 172.2 239.8 L 175.1 235.6 " fill="#000000"/>
<path class="legend" d="M 184.3 231.5 Q 186.1 231.5, 187.0 232.5 Q 188.0 233.6, 188.0 235.6 Q 188.0 237.6, 186.8 238.8 Q 185.7 240.0, 183.7 240.0 Q 182.8 240.0, 182.0 239.7 L 182.0 243.8 L 180.5 243.8 L 180.5 231.6 L 181.7 231.6 L 181.9 232.6 Q 182.4 232.0, 183.0 231.8 Q 183.6 231.5, 184.3 231.5 M 183.7 238.8 Q 185.0 238.8, 185.7 237.9 Q 186.4 237.1, 186.4 235.6 Q 186.4 234.2, 185.8 233.4 Q 185.3 232.6, 184.2 232.6 Q 183.4 232.6, 182.8 233.1 Q 182.3 233.5, 182.0 234.3 L 182.0 238.5 Q 182.8 238.8, 183.7 238.8 " fill="#000000"/>
<path class="legend" d="M 189.1 238.2 L 190.7 238.2 L 190.7 239.8 L 189.1 239.8 L 189.1 238.2 " fill="#000000"/>
<path class="legend" d="" fill="#000000"/>
<path class="legend" d="M 201.9 231.5 Q 203.6 231.5, 204.5 232.5 Q 205.5 233.6, 205.5 235.6 Q 205.5 237.6, 204.3 238.8 Q 203.2 240.0, 201.2 240.0 Q 200.3 240.0, 199.5 239.7 L 199.5 243.8 L 198.0 243.8 L 198.0 231.6 L 199.2 231.6 L 199.4 232.6 Q 199.9 232.0, 200.5 231.8 Q 201.1 231.5, 201.9 231.5 M 201.2 238.8 Q 202.5 238.8, 203.2 237.9 Q 203.9 237.1, 203.9 235.6 Q 203.9 234.2, 203.4 233.4 Q 202.8 232.6, 201.8 232.6 Q 200.9 232.6, 200.3 233.1 Q 199.8 233.5, 199.5 234.3 L 199.5 238.5 Q 200.3 238.8, 201.2 238.8 " fill="#000000"/>
<path class="legend" d="M 206.6 228.5 L 208.2 228.5 L 208.2 239.8 L 206.6 239.8 L 206.6 228.5 " fill="#000000"/>
<path class="legend" d="M 210.0 234.2 Q 210.0 231.3, 211.3 229.9 Q 212.7 228.4, 215.2 228.4 Q 217.5 228.4, 218.8 230.0 L 217.7 230.9 Q 216.8 229.7, 215.2 229.7 Q 213.5 229.7, 212.6 230.8 Q 211.7 232.0, 211.7 234.2 Q 211.7 236.4, 212.6 237.5 Q 213.5 238.7, 215.4 238.7 Q 216.6 238.7, 218.1 237.9 L 218.5 239.1 Q 217.9 239.5, 217.0 239.8 Q 216.1 240.0, 215.1 240.0 Q 212.7 240.0, 211.3 238.5 Q 210.0 237.0, 210.0 234.2 " fill="#000000"/>
<path class="legend" d="M 224.0 232.7 Q 225.0 232.7, 225.8 233.2 Q 226.6 233.6, 227.1 234.4 Q 227.5 235.2, 227.5 236.2 Q 227.5 237.4, 227.0 238.3 Q 226.4 239.1, 225.5 239.5 Q 224.5 240.0, 223.5 240.0 Q 222.4 240.0, 221.5 239.6 Q 220.5 239.2, 219.9 238.5 L 220.8 237.5 Q 221.4 238.0, 222.1 238.4 Q 222.8 238.7, 223.5 238.7 Q 224.5 238.7, 225.2 238.0 Q 225.9 237.4, 225.9 236.3 Q 225.9 235.1, 225.2 234.5 Q 224.5 233.9, 223.4 233.9 Q 222.4 233.9, 221.3 234.4 L 220.5 234.0 L 221.0 228.5 L 226.8 228.5 L 226.7 229.8 L 222.3 229.8 L 222.0 233.1 Q 223.0 232.7, 224.0 232.7 " fill="#000000"/>
<path class="legend" d="M 232.9 240.0 Q 230.8 240.0, 229.8 238.4 Q 228.8 236.9, 228.8 234.2 Q 228.8 231.4, 229.8 229.9 Q 230.8 228.4, 232.9 228.4 Q 235.0 228.4, 236.0 229.9 Q 237.0 231.4, 237.0 234.2 Q 237.0 236.9, 236.0 238.4 Q 235.0 240.0, 232.9 240.0 M 232.9 238.7 Q 234.1 238.7, 234.8 237.5 Q 235.4 236.4, 235.4 234.2 Q 235.4 231.9, 234.8 230.8 Q 234.1 229.7, 232.9 229.7 Q 231.7 229.7, 231.0 230.8 Q 230.4 231.9, 230.4 234.2 Q 230.4 236.4, 231.0 237.5 Q 231.7 238.7, 232.9 238.7 " fill="#000000"/>
<path class="legend" d="M 238.5 238.0 L 240.1 238.0 L 240.1 239.6 L 238.5 239.6 L 238.5 238.0 M 238.5 232.5 L 240.1 232.5 L 240.1 234.1 L 238.5 234.1 L 238.5 232.5 " fill="#000000"/>
<path class="legend" d="" fill="#000000"/>
<path class="legend" d="M 252.0 232.8 Q 253.0 232.8, 253.8 233.2 Q 254.6 233.6, 255.0 234.4 Q 255.5 235.2, 255.5 236.2 Q 255.5 237.3, 255.0 238.2 Q 254.5 239.0, 253.6 239.5 Q 252.7 240.0, 251.6 240.0 Q 249.6 240.0, 248.6 238.6 Q 247.6 237.2, 247.6 234.5 Q 247.6 231.5, 248.8 229.9 Q 250.1 228.4, 252.5 228.4 Q 253.2 228.4, 253.8 228.5 Q 254.4 228.7, 255.0 229.0 L 254.4 230.1 Q 253.5 229.7, 252.5 229.7 Q 250.9 229.7, 250.1 230.7 Q 249.3 231.7, 249.2 233.8 Q 249.8 233.3, 250.5 233.0 Q 251.2 232.8, 252.0 232.8 M 251.7 238.6 Q 252.3 238.6, 252.8 238.3 Q 253.3 238.0, 253.6 237.4 Q 253.9 236.9, 253.9 236.2 Q 253.9 235.2, 253.3 234.6 Q 252.7 234.0, 251.7 234.0 Q 251.1 234.0, 250.4 234.3 Q 249.7 234.6, 249.2 235.1 Q 249.3 237.0, 249.9 237.8 Q 250.5 238.6, 251.7 238.6 " fill="#000000"/>
<path class="legend" d="M 256.8 238.2 L 258.4 238.2 L 258.4 239.8 L 256.8 239.8 L 256.8 238.2 " fill="#000000"/>
<path class="legend" d="M 265.7 233.8 Q 266.7 234.3, 267.3 235.0 Q 267.9 235.6, 267.9 236.7 Q 267.9 237.7, 267.4 238.4 Q 266.9 239.2, 266.0 239.6 Q 265.1 240.0, 264.0 240.0 Q 262.1 240.0, 261.0 239.1 Q 259.9 238.2, 259.9 236.7 Q 259.9 235.8, 260.4 235.1 Q 260.9 234.4, 261.8 233.9 Q 261.1 233.5, 260.7 232.9 Q 260.3 232.2, 260.3 231.3 Q 260.3 229.9, 261.3 229.2 Q 262.2 228.4, 263.9 228.4 Q 265.5 228.4, 266.5 229.2 Q 267.5 229.9, 267.5 231.3 Q 267.5 232.1, 267.0 232.7 Q 266.6 233.3, 265.7 233.8 M 263.9 229.6 Q 262.9 229.6, 262.4 230.0 Q 261.9 230.5, 261.9 231.3 Q 261.9 231.9, 262.3 232.3 Q 262.6 232.6, 263.1 232.9 Q 263.6 233.1, 264.6 233.4 Q 265.3 233.0, 265.6 232.4 Q 265.9 231.9, 265.9 231.3 Q 265.9 230.5, 265.3 230.0 Q 264.8 229.6, 263.9 229.6 M 264.0 238.8 Q 265.0 238.8, 265.7 238.2 Q 266.3 237.7, 266.3 236.7 Q 266.3 236.1, 266.0 235.7 Q 265.6 235.3, 265.1 235.1 Q 264.6 234.9, 263.7 234.6 L 263.0 234.4 Q 262.2 234.8, 261.8 235.4 Q 261.5 236.0, 261.5 236.7 Q 261.5 237.7, 262.2 238.2 Q 262.8 238.8, 264.0 238.8 " fill="#000000"/>
<path class="legend" d="M 275.1 233.8 Q 276.2 234.3, 276.8 235.0 Q 277.4 235.6, 277.4 236.7 Q 277.4 237.7, 276.9 238.4 Q 276.4 239.2, 275.5 239.6 Q 274.6 240.0, 273.4 240.0 Q 271.5 240.0, 270.4 239.1 Q 269.4 238.2, 269.4 236.7 Q 269.4 235.8, 269.8 235.1 Q 270.3 234.4, 271.3 233.9 Q 270.6 233.5, 270.2 232.9 Q 269.8 232.2, 269.8 231.3 Q 269.8 229.9, 270.7 229.2 Q 271.7 228.4, 273.4 228.4 Q 275.0 228.4, 276.0 229.2 Q 276.9 229.9, 276.9 231.3 Q 276.9 232.1, 276.5 232.7 Q 276.0 233.3, 275.1 233.8 M 273.4 229.6 Q 272.4 229.6, 271.9 230.0 Q 271.4 230.5, 271.4 231.3 Q 271.4 231.9, 271.7 232.3 Q 272.1 232.6, 272.6 232.9 Q 273.1 233.1, 274.1 233.4 Q 274.7 233.0, 275.0 232.4 Q 275.3 231.9, 275.3 231.3 Q 275.3 230.5, 274.8 230.0 Q 274.3 229.6, 273.4 229.6 M 273.4 238.8 Q 274.5 238.8, 275.1 238.2 Q 275.8 237.7, 275.8 236.7 Q 275.8 236.1, 275.4 235.7 Q 275.1 235.3, 274.6 235.1 Q 274.1 234.9, 273.2 234.6 L 272.5 234.4 Q 271.7 234.8, 271.3 235.4 Q 271.0 236.0, 271.0 236.7 Q 271.0 237.7, 271.6 238.2 Q 272.3 238.8, 273.4 238.8 " fill="#000000"/>
</svg>