<svg xmlns="http://www.w3.org/2000/svg" xmlns:rdkit="http://www.rdkit.org/xml" xmlns:xlink="http://www.w3.org/1999/xlink" version="1.1" baseProfile="full" xml:space="preserve" width="345px" height="263px" viewBox="0 0 345 263">
<!-- END OF HEADER -->
<rect style="opacity:1.0;fill:#FFFFFF;stroke:none" width="345.0" height="263.0" x="0.0" y="0.0"> </rect>
<path class="bond-0 atom-0 atom-1" d="M 24.6,147.8 L 52.9,156.4 L 50.5,164.3 L 22.2,155.8 Z" style="fill:#FCFCFF;fill-rule:evenodd;fill-opacity:1;stroke:#FCFCFF;stroke-width:2.0px;stroke-linecap:butt;stroke-linejoin:miter;stroke-miterlimit:10;stroke-opacity:1;"/>
<path class="bond-2 atom-2 atom-3" d="M 69.2,141.1 L 62.5,112.4 L 70.5,110.5 L 77.2,139.2 Z" style="fill:#FAFAFF;fill-rule:evenodd;fill-opacity:1;stroke:#FAFAFF;stroke-width:2.0px;stroke-linecap:butt;stroke-linejoin:miter;stroke-miterlimit:10;stroke-opacity:1;"/>
<path class="bond-3 atom-2 atom-4" d="M 74.4,136.2 L 102.7,144.8 L 100.3,152.7 L 72.0,144.1 Z" style="fill:#FAFAFF;fill-rule:evenodd;fill-opacity:1;stroke:#FAFAFF;stroke-width:2.0px;stroke-linecap:butt;stroke-linejoin:miter;stroke-miterlimit:10;stroke-opacity:1;"/>
<path class="bond-5 atom-5 atom-6" d="M 124.2,124.6 L 152.5,133.2 L 150.1,141.1 L 121.8,132.5 Z" style="fill:#7878FF;fill-rule:evenodd;fill-opacity:1;stroke:#7878FF;stroke-width:2.0px;stroke-linecap:butt;stroke-linejoin:miter;stroke-miterlimit:10;stroke-opacity:1;"/>
<path class="bond-6 atom-7 atom-6" d="M 175.7,120.0 L 154.1,140.2 L 148.5,134.1 L 170.0,113.9 Z" style="fill:#7878FF;fill-rule:evenodd;fill-opacity:1;stroke:#7878FF;stroke-width:2.0px;stroke-linecap:butt;stroke-linejoin:miter;stroke-miterlimit:10;stroke-opacity:1;"/>
<path class="bond-7 atom-7 atom-8" d="M 170.4,113.7 L 193.9,95.8 L 198.9,102.4 L 175.3,120.3 Z" style="fill:#7878FF;fill-rule:evenodd;fill-opacity:1;stroke:#7878FF;stroke-width:2.0px;stroke-linecap:butt;stroke-linejoin:miter;stroke-miterlimit:10;stroke-opacity:1;"/>
<path class="bond-8 atom-8 atom-9" d="M 192.4,98.2 L 197.7,74.9 L 205.8,76.7 L 200.4,100.1 Z" style="fill:#7878FF;fill-rule:evenodd;fill-opacity:1;stroke:#7878FF;stroke-width:2.0px;stroke-linecap:butt;stroke-linejoin:miter;stroke-miterlimit:10;stroke-opacity:1;"/>
<path class="bond-9 atom-8 atom-10" d="M 198.8,95.7 L 223.0,112.6 L 218.3,119.4 L 194.0,102.5 Z" style="fill:#7878FF;fill-rule:evenodd;fill-opacity:1;stroke:#7878FF;stroke-width:2.0px;stroke-linecap:butt;stroke-linejoin:miter;stroke-miterlimit:10;stroke-opacity:1;"/>
<path class="bond-11 atom-11 atom-12" d="M 244.5,105.6 L 250.0,76.6 L 258.2,78.1 L 252.6,107.1 Z" style="fill:#FFDCDC;fill-rule:evenodd;fill-opacity:1;stroke:#FFDCDC;stroke-width:2.0px;stroke-linecap:butt;stroke-linejoin:miter;stroke-miterlimit:10;stroke-opacity:1;"/>
<path class="bond-12 atom-12 atom-13" d="M 252.8,73.4 L 280.7,63.8 L 283.4,71.6 L 255.5,81.2 Z" style="fill:#FFDCDC;fill-rule:evenodd;fill-opacity:1;stroke:#FFDCDC;stroke-width:2.0px;stroke-linecap:butt;stroke-linejoin:miter;stroke-miterlimit:10;stroke-opacity:1;"/>
<path class="bond-13 atom-13 atom-14" d="M 284.7,64.5 L 307.0,83.9 L 301.6,90.1 L 279.3,70.8 Z" style="fill:#FFDCDC;fill-rule:evenodd;fill-opacity:1;stroke:#FFDCDC;stroke-width:2.0px;stroke-linecap:butt;stroke-linejoin:miter;stroke-miterlimit:10;stroke-opacity:1;"/>
<path class="bond-14 atom-14 atom-15" d="M 308.4,87.8 L 302.8,116.8 L 294.7,115.2 L 300.3,86.2 Z" style="fill:#FFDCDC;fill-rule:evenodd;fill-opacity:1;stroke:#FFDCDC;stroke-width:2.0px;stroke-linecap:butt;stroke-linejoin:miter;stroke-miterlimit:10;stroke-opacity:1;"/>
<path class="bond-15 atom-15 atom-16" d="M 301.5,112.9 L 323.8,132.2 L 318.4,138.5 L 296.1,119.1 Z" style="fill:#FFDCDC;fill-rule:evenodd;fill-opacity:1;stroke:#FFDCDC;stroke-width:2.0px;stroke-linecap:butt;stroke-linejoin:miter;stroke-miterlimit:10;stroke-opacity:1;"/>
<path class="bond-16 atom-16 atom-17" d="M 325.2,136.1 L 319.6,165.1 L 311.5,163.5 L 317.0,134.5 Z" style="fill:#FFDCDC;fill-rule:evenodd;fill-opacity:1;stroke:#FFDCDC;stroke-width:2.0px;stroke-linecap:butt;stroke-linejoin:miter;stroke-miterlimit:10;stroke-opacity:1;"/>
<path class="bond-17 atom-17 atom-18" d="M 316.9,168.2 L 289.0,177.9 L 286.3,170.1 L 314.2,160.4 Z" style="fill:#FFDCDC;fill-rule:evenodd;fill-opacity:1;stroke:#FFDCDC;stroke-width:2.0px;stroke-linecap:butt;stroke-linejoin:miter;stroke-miterlimit:10;stroke-opacity:1;"/>
<path class="bond-18 atom-18 atom-19" d="M 284.9,177.1 L 262.6,157.8 L 268.0,151.5 L 290.3,170.9 Z" style="fill:#FFDCDC;fill-rule:evenodd;fill-opacity:1;stroke:#FFDCDC;stroke-width:2.0px;stroke-linecap:butt;stroke-linejoin:miter;stroke-miterlimit:10;stroke-opacity:1;"/>
<path class="bond-19 atom-19 atom-20" d="M 261.2,153.9 L 266.8,124.9 L 274.9,126.5 L 269.4,155.5 Z" style="fill:#FFDCDC;fill-rule:evenodd;fill-opacity:1;stroke:#FFDCDC;stroke-width:2.0px;stroke-linecap:butt;stroke-linejoin:miter;stroke-miterlimit:10;stroke-opacity:1;"/>
<path class="bond-20 atom-10 atom-21" d="M 224.6,117.2 L 216.0,145.5 L 208.1,143.1 L 216.7,114.8 Z" style="fill:#7878FF;fill-rule:evenodd;fill-opacity:1;stroke:#7878FF;stroke-width:2.0px;stroke-linecap:butt;stroke-linejoin:miter;stroke-miterlimit:10;stroke-opacity:1;"/>
<path class="bond-21 atom-21 atom-22" d="M 212.1,148.4 L 182.6,149.0 L 182.4,140.7 L 212.0,140.1 Z" style="fill:#7878FF;fill-rule:evenodd;fill-opacity:1;stroke:#7878FF;stroke-width:2.0px;stroke-linecap:butt;stroke-linejoin:miter;stroke-miterlimit:10;stroke-opacity:1;"/>
<path class="bond-24 atom-24 atom-25" d="M 179.0,191.8 L 208.0,197.3 L 206.4,205.5 L 177.4,199.9 Z" style="fill:#FFEEEE;fill-rule:evenodd;fill-opacity:1;stroke:#FFEEEE;stroke-width:2.0px;stroke-linecap:butt;stroke-linejoin:miter;stroke-miterlimit:10;stroke-opacity:1;"/>
<path class="bond-25 atom-25 atom-26" d="M 211.3,200.9 L 214.9,230.2 L 206.7,231.2 L 203.1,201.9 Z" style="fill:#FFEEEE;fill-rule:evenodd;fill-opacity:1;stroke:#FFEEEE;stroke-width:2.0px;stroke-linecap:butt;stroke-linejoin:miter;stroke-miterlimit:10;stroke-opacity:1;"/>
<path class="bond-26 atom-26 atom-27" d="M 212.6,234.4 L 185.9,247.0 L 182.3,239.5 L 209.1,227.0 Z" style="fill:#FFEEEE;fill-rule:evenodd;fill-opacity:1;stroke:#FFEEEE;stroke-width:2.0px;stroke-linecap:butt;stroke-linejoin:miter;stroke-miterlimit:10;stroke-opacity:1;"/>
<path class="bond-27 atom-27 atom-28" d="M 181.1,246.1 L 160.9,224.5 L 166.9,218.9 L 187.1,240.4 Z" style="fill:#FFEEEE;fill-rule:evenodd;fill-opacity:1;stroke:#FFEEEE;stroke-width:2.0px;stroke-linecap:butt;stroke-linejoin:miter;stroke-miterlimit:10;stroke-opacity:1;"/>
<path class="bond-28 atom-7 atom-29" d="M 168.8,117.9 L 162.1,89.1 L 170.2,87.3 L 176.9,116.0 Z" style="fill:#7878FF;fill-rule:evenodd;fill-opacity:1;stroke:#7878FF;stroke-width:2.0px;stroke-linecap:butt;stroke-linejoin:miter;stroke-miterlimit:10;stroke-opacity:1;"/>
<path class="bond-29 atom-29 atom-30" d="M 163.3,85.2 L 184.9,65.0 L 190.5,71.0 L 169.0,91.2 Z" style="fill:#7878FF;fill-rule:evenodd;fill-opacity:1;stroke:#7878FF;stroke-width:2.0px;stroke-linecap:butt;stroke-linejoin:miter;stroke-miterlimit:10;stroke-opacity:1;"/>
<path class="bond-30 atom-30 atom-31" d="M 183.7,68.9 L 177.0,40.2 L 185.0,38.3 L 191.7,67.1 Z" style="fill:#7878FF;fill-rule:evenodd;fill-opacity:1;stroke:#7878FF;stroke-width:2.0px;stroke-linecap:butt;stroke-linejoin:miter;stroke-miterlimit:10;stroke-opacity:1;"/>
<path class="bond-31 atom-31 atom-32" d="M 178.2,36.2 L 199.7,16.0 L 205.4,22.1 L 183.8,42.3 Z" style="fill:#7878FF;fill-rule:evenodd;fill-opacity:1;stroke:#7878FF;stroke-width:2.0px;stroke-linecap:butt;stroke-linejoin:miter;stroke-miterlimit:10;stroke-opacity:1;"/>
<path class="bond-32 atom-31 atom-33" d="M 179.8,43.2 L 151.5,34.6 L 153.9,26.7 L 182.2,35.3 Z" style="fill:#7878FF;fill-rule:evenodd;fill-opacity:1;stroke:#7878FF;stroke-width:2.0px;stroke-linecap:butt;stroke-linejoin:miter;stroke-miterlimit:10;stroke-opacity:1;"/>
<path class="bond-33 atom-33 atom-34" d="M 155.6,33.7 L 134.0,53.9 L 128.4,47.8 L 149.9,27.7 Z" style="fill:#7878FF;fill-rule:evenodd;fill-opacity:1;stroke:#7878FF;stroke-width:2.0px;stroke-linecap:butt;stroke-linejoin:miter;stroke-miterlimit:10;stroke-opacity:1;"/>
<path class="bond-34 atom-34 atom-35" d="M 135.2,49.9 L 141.9,78.7 L 133.9,80.6 L 127.2,51.8 Z" style="fill:#7878FF;fill-rule:evenodd;fill-opacity:1;stroke:#7878FF;stroke-width:2.0px;stroke-linecap:butt;stroke-linejoin:miter;stroke-miterlimit:10;stroke-opacity:1;"/>
<path class="bond-35 atom-35 atom-36" d="M 140.7,82.6 L 119.2,102.8 L 113.5,96.8 L 135.1,76.6 Z" style="fill:#7878FF;fill-rule:evenodd;fill-opacity:1;stroke:#7878FF;stroke-width:2.0px;stroke-linecap:butt;stroke-linejoin:miter;stroke-miterlimit:10;stroke-opacity:1;"/>
<path class="bond-36 atom-36 atom-37" d="M 115.1,103.8 L 86.9,95.2 L 89.3,87.3 L 117.5,95.9 Z" style="fill:#7878FF;fill-rule:evenodd;fill-opacity:1;stroke:#7878FF;stroke-width:2.0px;stroke-linecap:butt;stroke-linejoin:miter;stroke-miterlimit:10;stroke-opacity:1;"/>
<path class="bond-37 atom-36 atom-5" d="M 120.4,98.9 L 127.1,127.6 L 119.0,129.5 L 112.3,100.7 Z" style="fill:#7878FF;fill-rule:evenodd;fill-opacity:1;stroke:#7878FF;stroke-width:2.0px;stroke-linecap:butt;stroke-linejoin:miter;stroke-miterlimit:10;stroke-opacity:1;"/>
<path class="bond-38 atom-22 atom-7" d="M 178.6,146.2 L 168.9,118.3 L 176.8,115.6 L 186.4,143.5 Z" style="fill:#7878FF;fill-rule:evenodd;fill-opacity:1;stroke:#7878FF;stroke-width:2.0px;stroke-linecap:butt;stroke-linejoin:miter;stroke-miterlimit:10;stroke-opacity:1;"/>
<path class="bond-39 atom-28 atom-24" d="M 160.3,219.7 L 174.6,193.8 L 181.8,197.8 L 167.5,223.7 Z" style="fill:#FFEEEE;fill-rule:evenodd;fill-opacity:1;stroke:#FFEEEE;stroke-width:2.0px;stroke-linecap:butt;stroke-linejoin:miter;stroke-miterlimit:10;stroke-opacity:1;"/>
<path class="bond-40 atom-35 atom-29" d="M 139.1,75.7 L 167.3,84.2 L 164.9,92.2 L 136.7,83.6 Z" style="fill:#7878FF;fill-rule:evenodd;fill-opacity:1;stroke:#7878FF;stroke-width:2.0px;stroke-linecap:butt;stroke-linejoin:miter;stroke-miterlimit:10;stroke-opacity:1;"/>
<path class="bond-41 atom-20 atom-11" d="M 268.2,128.8 L 245.8,109.5 L 251.2,103.2 L 273.6,122.5 Z" style="fill:#FFDCDC;fill-rule:evenodd;fill-opacity:1;stroke:#FFDCDC;stroke-width:2.0px;stroke-linecap:butt;stroke-linejoin:miter;stroke-miterlimit:10;stroke-opacity:1;"/>
<path class="bond-42 atom-20 atom-15" d="M 269.5,121.8 L 297.4,112.1 L 300.1,119.9 L 272.2,129.6 Z" style="fill:#FFDCDC;fill-rule:evenodd;fill-opacity:1;stroke:#FFDCDC;stroke-width:2.0px;stroke-linecap:butt;stroke-linejoin:miter;stroke-miterlimit:10;stroke-opacity:1;"/>
<ellipse cx="23.4" cy="151.8" rx="5.9" ry="5.9" class="atom-0" style="fill:#FCFCFF;fill-rule:evenodd;stroke:#FCFCFF;stroke-width:1.0px;stroke-linecap:butt;stroke-linejoin:miter;stroke-opacity:1"/>
<ellipse cx="51.7" cy="160.4" rx="5.9" ry="5.9" class="atom-1" style="fill:#FCFCFF;fill-rule:evenodd;stroke:#FCFCFF;stroke-width:1.0px;stroke-linecap:butt;stroke-linejoin:miter;stroke-opacity:1"/>
<ellipse cx="73.2" cy="140.2" rx="5.9" ry="5.9" class="atom-2" style="fill:#FAFAFF;fill-rule:evenodd;stroke:#FAFAFF;stroke-width:1.0px;stroke-linecap:butt;stroke-linejoin:miter;stroke-opacity:1"/>
<ellipse cx="66.5" cy="111.4" rx="5.9" ry="5.9" class="atom-3" style="fill:#FAFAFF;fill-rule:evenodd;stroke:#FAFAFF;stroke-width:1.0px;stroke-linecap:butt;stroke-linejoin:miter;stroke-opacity:1"/>
<ellipse cx="101.5" cy="148.8" rx="5.9" ry="5.9" class="atom-4" style="fill:#FAFAFF;fill-rule:evenodd;stroke:#FAFAFF;stroke-width:1.0px;stroke-linecap:butt;stroke-linejoin:miter;stroke-opacity:1"/>
<ellipse cx="123.0" cy="128.6" rx="5.9" ry="5.9" class="atom-5" style="fill:#7878FF;fill-rule:evenodd;stroke:#7878FF;stroke-width:1.0px;stroke-linecap:butt;stroke-linejoin:miter;stroke-opacity:1"/>
<ellipse cx="151.3" cy="137.1" rx="5.9" ry="5.9" class="atom-6" style="fill:#7878FF;fill-rule:evenodd;stroke:#7878FF;stroke-width:1.0px;stroke-linecap:butt;stroke-linejoin:miter;stroke-opacity:1"/>
<ellipse cx="172.9" cy="117.0" rx="5.9" ry="5.9" class="atom-7" style="fill:#7878FF;fill-rule:evenodd;stroke:#7878FF;stroke-width:1.0px;stroke-linecap:butt;stroke-linejoin:miter;stroke-opacity:1"/>
<ellipse cx="196.4" cy="99.1" rx="5.9" ry="5.9" class="atom-8" style="fill:#7878FF;fill-rule:evenodd;stroke:#7878FF;stroke-width:1.0px;stroke-linecap:butt;stroke-linejoin:miter;stroke-opacity:1"/>
<ellipse cx="201.7" cy="75.8" rx="5.9" ry="5.9" class="atom-9" style="fill:#7878FF;fill-rule:evenodd;stroke:#7878FF;stroke-width:1.0px;stroke-linecap:butt;stroke-linejoin:miter;stroke-opacity:1"/>
<ellipse cx="220.6" cy="116.0" rx="5.9" ry="5.9" class="atom-10" style="fill:#7878FF;fill-rule:evenodd;stroke:#7878FF;stroke-width:1.0px;stroke-linecap:butt;stroke-linejoin:miter;stroke-opacity:1"/>
<ellipse cx="248.5" cy="106.3" rx="5.9" ry="5.9" class="atom-11" style="fill:#FFDCDC;fill-rule:evenodd;stroke:#FFDCDC;stroke-width:1.0px;stroke-linecap:butt;stroke-linejoin:miter;stroke-opacity:1"/>
<ellipse cx="254.1" cy="77.3" rx="5.9" ry="5.9" class="atom-12" style="fill:#FFDCDC;fill-rule:evenodd;stroke:#FFDCDC;stroke-width:1.0px;stroke-linecap:butt;stroke-linejoin:miter;stroke-opacity:1"/>
<ellipse cx="282.0" cy="67.7" rx="5.9" ry="5.9" class="atom-13" style="fill:#FFDCDC;fill-rule:evenodd;stroke:#FFDCDC;stroke-width:1.0px;stroke-linecap:butt;stroke-linejoin:miter;stroke-opacity:1"/>
<ellipse cx="304.3" cy="87.0" rx="5.9" ry="5.9" class="atom-14" style="fill:#FFDCDC;fill-rule:evenodd;stroke:#FFDCDC;stroke-width:1.0px;stroke-linecap:butt;stroke-linejoin:miter;stroke-opacity:1"/>
<ellipse cx="298.8" cy="116.0" rx="5.9" ry="5.9" class="atom-15" style="fill:#FFDCDC;fill-rule:evenodd;stroke:#FFDCDC;stroke-width:1.0px;stroke-linecap:butt;stroke-linejoin:miter;stroke-opacity:1"/>
<ellipse cx="321.1" cy="135.3" rx="5.9" ry="5.9" class="atom-16" style="fill:#FFDCDC;fill-rule:evenodd;stroke:#FFDCDC;stroke-width:1.0px;stroke-linecap:butt;stroke-linejoin:miter;stroke-opacity:1"/>
<ellipse cx="315.5" cy="164.3" rx="5.9" ry="5.9" class="atom-17" style="fill:#FFDCDC;fill-rule:evenodd;stroke:#FFDCDC;stroke-width:1.0px;stroke-linecap:butt;stroke-linejoin:miter;stroke-opacity:1"/>
<ellipse cx="287.6" cy="174.0" rx="5.9" ry="5.9" class="atom-18" style="fill:#FFDCDC;fill-rule:evenodd;stroke:#FFDCDC;stroke-width:1.0px;stroke-linecap:butt;stroke-linejoin:miter;stroke-opacity:1"/>
<ellipse cx="265.3" cy="154.7" rx="5.9" ry="5.9" class="atom-19" style="fill:#FFDCDC;fill-rule:evenodd;stroke:#FFDCDC;stroke-width:1.0px;stroke-linecap:butt;stroke-linejoin:miter;stroke-opacity:1"/>
<ellipse cx="270.9" cy="125.7" rx="5.9" ry="5.9" class="atom-20" style="fill:#FFDCDC;fill-rule:evenodd;stroke:#FFDCDC;stroke-width:1.0px;stroke-linecap:butt;stroke-linejoin:miter;stroke-opacity:1"/>
<ellipse cx="212.1" cy="144.3" rx="5.9" ry="5.9" class="atom-21" style="fill:#7878FF;fill-rule:evenodd;stroke:#7878FF;stroke-width:1.0px;stroke-linecap:butt;stroke-linejoin:miter;stroke-opacity:1"/>
<ellipse cx="182.5" cy="144.9" rx="5.9" ry="5.9" class="atom-22" style="fill:#7878FF;fill-rule:evenodd;stroke:#7878FF;stroke-width:1.0px;stroke-linecap:butt;stroke-linejoin:miter;stroke-opacity:1"/>
<ellipse cx="165.6" cy="169.1" rx="5.9" ry="5.9" class="atom-23" style="fill:#FFFEFE;fill-rule:evenodd;stroke:#FFFEFE;stroke-width:1.0px;stroke-linecap:butt;stroke-linejoin:miter;stroke-opacity:1"/>
<ellipse cx="178.2" cy="195.8" rx="5.9" ry="5.9" class="atom-24" style="fill:#FFEEEE;fill-rule:evenodd;stroke:#FFEEEE;stroke-width:1.0px;stroke-linecap:butt;stroke-linejoin:miter;stroke-opacity:1"/>
<ellipse cx="207.2" cy="201.4" rx="5.9" ry="5.9" class="atom-25" style="fill:#FFEEEE;fill-rule:evenodd;stroke:#FFEEEE;stroke-width:1.0px;stroke-linecap:butt;stroke-linejoin:miter;stroke-opacity:1"/>
<ellipse cx="210.8" cy="230.7" rx="5.9" ry="5.9" class="atom-26" style="fill:#FFEEEE;fill-rule:evenodd;stroke:#FFEEEE;stroke-width:1.0px;stroke-linecap:butt;stroke-linejoin:miter;stroke-opacity:1"/>
<ellipse cx="184.1" cy="243.2" rx="5.9" ry="5.9" class="atom-27" style="fill:#FFEEEE;fill-rule:evenodd;stroke:#FFEEEE;stroke-width:1.0px;stroke-linecap:butt;stroke-linejoin:miter;stroke-opacity:1"/>
<ellipse cx="163.9" cy="221.7" rx="5.9" ry="5.9" class="atom-28" style="fill:#FFEEEE;fill-rule:evenodd;stroke:#FFEEEE;stroke-width:1.0px;stroke-linecap:butt;stroke-linejoin:miter;stroke-opacity:1"/>
<ellipse cx="166.1" cy="88.2" rx="5.9" ry="5.9" class="atom-29" style="fill:#7878FF;fill-rule:evenodd;stroke:#7878FF;stroke-width:1.0px;stroke-linecap:butt;stroke-linejoin:miter;stroke-opacity:1"/>
<ellipse cx="187.7" cy="68.0" rx="5.9" ry="5.9" class="atom-30" style="fill:#7878FF;fill-rule:evenodd;stroke:#7878FF;stroke-width:1.0px;stroke-linecap:butt;stroke-linejoin:miter;stroke-opacity:1"/>
<ellipse cx="181.0" cy="39.2" rx="5.9" ry="5.9" class="atom-31" style="fill:#7878FF;fill-rule:evenodd;stroke:#7878FF;stroke-width:1.0px;stroke-linecap:butt;stroke-linejoin:miter;stroke-opacity:1"/>
<ellipse cx="202.6" cy="19.1" rx="5.9" ry="5.9" class="atom-32" style="fill:#7878FF;fill-rule:evenodd;stroke:#7878FF;stroke-width:1.0px;stroke-linecap:butt;stroke-linejoin:miter;stroke-opacity:1"/>
<ellipse cx="152.7" cy="30.7" rx="5.9" ry="5.9" class="atom-33" style="fill:#7878FF;fill-rule:evenodd;stroke:#7878FF;stroke-width:1.0px;stroke-linecap:butt;stroke-linejoin:miter;stroke-opacity:1"/>
<ellipse cx="131.2" cy="50.9" rx="5.9" ry="5.9" class="atom-34" style="fill:#7878FF;fill-rule:evenodd;stroke:#7878FF;stroke-width:1.0px;stroke-linecap:butt;stroke-linejoin:miter;stroke-opacity:1"/>
<ellipse cx="137.9" cy="79.6" rx="5.9" ry="5.9" class="atom-35" style="fill:#7878FF;fill-rule:evenodd;stroke:#7878FF;stroke-width:1.0px;stroke-linecap:butt;stroke-linejoin:miter;stroke-opacity:1"/>
<ellipse cx="116.3" cy="99.8" rx="5.9" ry="5.9" class="atom-36" style="fill:#7878FF;fill-rule:evenodd;stroke:#7878FF;stroke-width:1.0px;stroke-linecap:butt;stroke-linejoin:miter;stroke-opacity:1"/>
<ellipse cx="88.1" cy="91.2" rx="5.9" ry="5.9" class="atom-37" style="fill:#7878FF;fill-rule:evenodd;stroke:#7878FF;stroke-width:1.0px;stroke-linecap:butt;stroke-linejoin:miter;stroke-opacity:1"/>
<path class="bond-0 atom-0 atom-1" d="M 23.4,151.8 L 47.5,159.1" style="fill:none;fill-rule:evenodd;stroke:#000000;stroke-width:2.0px;stroke-linecap:butt;stroke-linejoin:miter;stroke-opacity:1"/>
<path class="bond-1 atom-1 atom-2" d="M 55.8,156.5 L 73.2,140.2" style="fill:none;fill-rule:evenodd;stroke:#000000;stroke-width:2.0px;stroke-linecap:butt;stroke-linejoin:miter;stroke-opacity:1"/>
<path class="bond-2 atom-2 atom-3" d="M 75.7,140.9 L 69.9,116.3" style="fill:none;fill-rule:evenodd;stroke:#000000;stroke-width:2.0px;stroke-linecap:butt;stroke-linejoin:miter;stroke-opacity:1"/>
<path class="bond-2 atom-2 atom-3" d="M 71.4,141.9 L 65.6,117.3" style="fill:none;fill-rule:evenodd;stroke:#000000;stroke-width:2.0px;stroke-linecap:butt;stroke-linejoin:miter;stroke-opacity:1"/>
<path class="bond-3 atom-2 atom-4" d="M 73.2,140.2 L 101.5,148.8" style="fill:none;fill-rule:evenodd;stroke:#000000;stroke-width:2.0px;stroke-linecap:butt;stroke-linejoin:miter;stroke-opacity:1"/>
<path class="bond-4 atom-4 atom-5" d="M 101.5,148.8 L 118.9,132.4" style="fill:none;fill-rule:evenodd;stroke:#000000;stroke-width:2.0px;stroke-linecap:butt;stroke-linejoin:miter;stroke-opacity:1"/>
<path class="bond-5 atom-5 atom-6" d="M 127.2,129.8 L 151.3,137.1" style="fill:none;fill-rule:evenodd;stroke:#000000;stroke-width:2.0px;stroke-linecap:butt;stroke-linejoin:miter;stroke-opacity:1"/>
<path class="bond-6 atom-7 atom-6" d="M 169.9,119.2 L 170.4,119.7" style="fill:none;fill-rule:evenodd;stroke:#000000;stroke-width:1.0px;stroke-linecap:butt;stroke-linejoin:miter;stroke-opacity:1"/>
<path class="bond-6 atom-7 atom-6" d="M 167.0,121.5 L 167.9,122.5" style="fill:none;fill-rule:evenodd;stroke:#000000;stroke-width:1.0px;stroke-linecap:butt;stroke-linejoin:miter;stroke-opacity:1"/>
<path class="bond-6 atom-7 atom-6" d="M 164.1,123.8 L 165.4,125.2" style="fill:none;fill-rule:evenodd;stroke:#000000;stroke-width:1.0px;stroke-linecap:butt;stroke-linejoin:miter;stroke-opacity:1"/>
<path class="bond-6 atom-7 atom-6" d="M 161.2,126.1 L 162.9,128.0" style="fill:none;fill-rule:evenodd;stroke:#000000;stroke-width:1.0px;stroke-linecap:butt;stroke-linejoin:miter;stroke-opacity:1"/>
<path class="bond-6 atom-7 atom-6" d="M 158.3,128.4 L 160.5,130.7" style="fill:none;fill-rule:evenodd;stroke:#000000;stroke-width:1.0px;stroke-linecap:butt;stroke-linejoin:miter;stroke-opacity:1"/>
<path class="bond-6 atom-7 atom-6" d="M 155.4,130.7 L 158.0,133.5" style="fill:none;fill-rule:evenodd;stroke:#000000;stroke-width:1.0px;stroke-linecap:butt;stroke-linejoin:miter;stroke-opacity:1"/>
<path class="bond-6 atom-7 atom-6" d="M 152.5,133.0 L 155.5,136.2" style="fill:none;fill-rule:evenodd;stroke:#000000;stroke-width:1.0px;stroke-linecap:butt;stroke-linejoin:miter;stroke-opacity:1"/>
<path class="bond-7 atom-7 atom-8" d="M 172.9,117.0 L 196.4,99.1" style="fill:none;fill-rule:evenodd;stroke:#000000;stroke-width:2.0px;stroke-linecap:butt;stroke-linejoin:miter;stroke-opacity:1"/>
<path class="bond-8 atom-8 atom-9" d="M 198.4,100.5 L 202.7,81.6" style="fill:none;fill-rule:evenodd;stroke:#000000;stroke-width:2.0px;stroke-linecap:butt;stroke-linejoin:miter;stroke-opacity:1"/>
<path class="bond-8 atom-8 atom-9" d="M 193.7,101.2 L 198.4,80.6" style="fill:none;fill-rule:evenodd;stroke:#000000;stroke-width:2.0px;stroke-linecap:butt;stroke-linejoin:miter;stroke-opacity:1"/>
<path class="bond-9 atom-8 atom-10" d="M 196.4,99.1 L 216.5,113.1" style="fill:none;fill-rule:evenodd;stroke:#000000;stroke-width:2.0px;stroke-linecap:butt;stroke-linejoin:miter;stroke-opacity:1"/>
<path class="bond-10 atom-10 atom-11" d="M 224.8,114.6 L 248.5,106.3" style="fill:none;fill-rule:evenodd;stroke:#000000;stroke-width:2.0px;stroke-linecap:butt;stroke-linejoin:miter;stroke-opacity:1"/>
<path class="bond-11 atom-11 atom-12" d="M 248.5,106.3 L 254.1,77.3" style="fill:none;fill-rule:evenodd;stroke:#000000;stroke-width:2.0px;stroke-linecap:butt;stroke-linejoin:miter;stroke-opacity:1"/>
<path class="bond-11 atom-11 atom-12" d="M 253.3,104.7 L 258.0,80.7" style="fill:none;fill-rule:evenodd;stroke:#000000;stroke-width:2.0px;stroke-linecap:butt;stroke-linejoin:miter;stroke-opacity:1"/>
<path class="bond-12 atom-12 atom-13" d="M 254.1,77.3 L 277.9,69.1" style="fill:none;fill-rule:evenodd;stroke:#000000;stroke-width:2.0px;stroke-linecap:butt;stroke-linejoin:miter;stroke-opacity:1"/>
<path class="bond-13 atom-13 atom-14" d="M 286.2,71.3 L 304.3,87.0" style="fill:none;fill-rule:evenodd;stroke:#000000;stroke-width:2.0px;stroke-linecap:butt;stroke-linejoin:miter;stroke-opacity:1"/>
<path class="bond-13 atom-13 atom-14" d="M 283.3,74.6 L 299.5,88.7" style="fill:none;fill-rule:evenodd;stroke:#000000;stroke-width:2.0px;stroke-linecap:butt;stroke-linejoin:miter;stroke-opacity:1"/>
<path class="bond-14 atom-14 atom-15" d="M 304.3,87.0 L 298.8,116.0" style="fill:none;fill-rule:evenodd;stroke:#000000;stroke-width:2.0px;stroke-linecap:butt;stroke-linejoin:miter;stroke-opacity:1"/>
<path class="bond-15 atom-15 atom-16" d="M 298.8,116.0 L 321.1,135.3" style="fill:none;fill-rule:evenodd;stroke:#000000;stroke-width:2.0px;stroke-linecap:butt;stroke-linejoin:miter;stroke-opacity:1"/>
<path class="bond-15 atom-15 atom-16" d="M 297.8,121.0 L 316.3,137.0" style="fill:none;fill-rule:evenodd;stroke:#000000;stroke-width:2.0px;stroke-linecap:butt;stroke-linejoin:miter;stroke-opacity:1"/>
<path class="bond-16 atom-16 atom-17" d="M 321.1,135.3 L 315.5,164.3" style="fill:none;fill-rule:evenodd;stroke:#000000;stroke-width:2.0px;stroke-linecap:butt;stroke-linejoin:miter;stroke-opacity:1"/>
<path class="bond-17 atom-17 atom-18" d="M 315.5,164.3 L 287.6,174.0" style="fill:none;fill-rule:evenodd;stroke:#000000;stroke-width:2.0px;stroke-linecap:butt;stroke-linejoin:miter;stroke-opacity:1"/>
<path class="bond-17 atom-17 atom-18" d="M 311.7,161.0 L 288.6,169.0" style="fill:none;fill-rule:evenodd;stroke:#000000;stroke-width:2.0px;stroke-linecap:butt;stroke-linejoin:miter;stroke-opacity:1"/>
<path class="bond-18 atom-18 atom-19" d="M 287.6,174.0 L 265.3,154.7" style="fill:none;fill-rule:evenodd;stroke:#000000;stroke-width:2.0px;stroke-linecap:butt;stroke-linejoin:miter;stroke-opacity:1"/>
<path class="bond-19 atom-19 atom-20" d="M 265.3,154.7 L 270.9,125.7" style="fill:none;fill-rule:evenodd;stroke:#000000;stroke-width:2.0px;stroke-linecap:butt;stroke-linejoin:miter;stroke-opacity:1"/>
<path class="bond-19 atom-19 atom-20" d="M 270.1,153.0 L 274.7,129.0" style="fill:none;fill-rule:evenodd;stroke:#000000;stroke-width:2.0px;stroke-linecap:butt;stroke-linejoin:miter;stroke-opacity:1"/>
<path class="bond-20 atom-10 atom-21" d="M 219.1,121.2 L 212.1,144.3" style="fill:none;fill-rule:evenodd;stroke:#000000;stroke-width:2.0px;stroke-linecap:butt;stroke-linejoin:miter;stroke-opacity:1"/>
<path class="bond-21 atom-21 atom-22" d="M 212.1,144.3 L 182.5,144.9" style="fill:none;fill-rule:evenodd;stroke:#000000;stroke-width:2.0px;stroke-linecap:butt;stroke-linejoin:miter;stroke-opacity:1"/>
<path class="bond-22 atom-22 atom-23" d="M 180.2,147.7 L 180.7,148.1" style="fill:none;fill-rule:evenodd;stroke:#000000;stroke-width:1.0px;stroke-linecap:butt;stroke-linejoin:miter;stroke-opacity:1"/>
<path class="bond-22 atom-22 atom-23" d="M 177.8,150.6 L 178.8,151.3" style="fill:none;fill-rule:evenodd;stroke:#000000;stroke-width:1.0px;stroke-linecap:butt;stroke-linejoin:miter;stroke-opacity:1"/>
<path class="bond-22 atom-22 atom-23" d="M 175.4,153.4 L 177.0,154.5" style="fill:none;fill-rule:evenodd;stroke:#000000;stroke-width:1.0px;stroke-linecap:butt;stroke-linejoin:miter;stroke-opacity:1"/>
<path class="bond-22 atom-22 atom-23" d="M 173.1,156.2 L 175.1,157.7" style="fill:none;fill-rule:evenodd;stroke:#000000;stroke-width:1.0px;stroke-linecap:butt;stroke-linejoin:miter;stroke-opacity:1"/>
<path class="bond-22 atom-22 atom-23" d="M 170.7,159.1 L 173.3,160.9" style="fill:none;fill-rule:evenodd;stroke:#000000;stroke-width:1.0px;stroke-linecap:butt;stroke-linejoin:miter;stroke-opacity:1"/>
<path class="bond-22 atom-22 atom-23" d="M 168.3,161.9 L 171.4,164.1" style="fill:none;fill-rule:evenodd;stroke:#000000;stroke-width:1.0px;stroke-linecap:butt;stroke-linejoin:miter;stroke-opacity:1"/>
<path class="bond-22 atom-22 atom-23" d="M 166.0,164.8 L 169.6,167.3" style="fill:none;fill-rule:evenodd;stroke:#000000;stroke-width:1.0px;stroke-linecap:butt;stroke-linejoin:miter;stroke-opacity:1"/>
<path class="bond-23 atom-23 atom-24" d="M 165.6,169.1 L 175.8,190.7" style="fill:none;fill-rule:evenodd;stroke:#000000;stroke-width:2.0px;stroke-linecap:butt;stroke-linejoin:miter;stroke-opacity:1"/>
<path class="bond-24 atom-24 atom-25" d="M 182.3,196.6 L 207.2,201.4" style="fill:none;fill-rule:evenodd;stroke:#000000;stroke-width:2.0px;stroke-linecap:butt;stroke-linejoin:miter;stroke-opacity:1"/>
<path class="bond-25 atom-25 atom-26" d="M 207.2,201.4 L 210.8,230.7" style="fill:none;fill-rule:evenodd;stroke:#000000;stroke-width:2.0px;stroke-linecap:butt;stroke-linejoin:miter;stroke-opacity:1"/>
<path class="bond-25 atom-25 atom-26" d="M 203.2,205.1 L 206.1,228.1" style="fill:none;fill-rule:evenodd;stroke:#000000;stroke-width:2.0px;stroke-linecap:butt;stroke-linejoin:miter;stroke-opacity:1"/>
<path class="bond-26 atom-26 atom-27" d="M 210.8,230.7 L 188.2,241.3" style="fill:none;fill-rule:evenodd;stroke:#000000;stroke-width:2.0px;stroke-linecap:butt;stroke-linejoin:miter;stroke-opacity:1"/>
<path class="bond-27 atom-27 atom-28" d="M 180.0,238.8 L 168.1,226.1" style="fill:none;fill-rule:evenodd;stroke:#000000;stroke-width:2.0px;stroke-linecap:butt;stroke-linejoin:miter;stroke-opacity:1"/>
<path class="bond-27 atom-27 atom-28" d="M 183.2,235.8 L 171.3,223.1" style="fill:none;fill-rule:evenodd;stroke:#000000;stroke-width:2.0px;stroke-linecap:butt;stroke-linejoin:miter;stroke-opacity:1"/>
<path class="bond-28 atom-7 atom-29" d="M 172.9,117.0 L 166.1,88.2" style="fill:none;fill-rule:evenodd;stroke:#000000;stroke-width:2.0px;stroke-linecap:butt;stroke-linejoin:miter;stroke-opacity:1"/>
<path class="bond-29 atom-29 atom-30" d="M 166.1,88.2 L 187.7,68.0" style="fill:none;fill-rule:evenodd;stroke:#000000;stroke-width:2.0px;stroke-linecap:butt;stroke-linejoin:miter;stroke-opacity:1"/>
<path class="bond-29 atom-29 atom-30" d="M 165.0,83.2 L 182.8,66.5" style="fill:none;fill-rule:evenodd;stroke:#000000;stroke-width:2.0px;stroke-linecap:butt;stroke-linejoin:miter;stroke-opacity:1"/>
<path class="bond-30 atom-30 atom-31" d="M 187.7,68.0 L 181.0,39.2" style="fill:none;fill-rule:evenodd;stroke:#000000;stroke-width:2.0px;stroke-linecap:butt;stroke-linejoin:miter;stroke-opacity:1"/>
<path class="bond-31 atom-31 atom-32" d="M 181.0,39.2 L 199.1,22.3" style="fill:none;fill-rule:evenodd;stroke:#000000;stroke-width:2.0px;stroke-linecap:butt;stroke-linejoin:miter;stroke-opacity:1"/>
<path class="bond-32 atom-31 atom-33" d="M 181.0,39.2 L 152.7,30.7" style="fill:none;fill-rule:evenodd;stroke:#000000;stroke-width:2.0px;stroke-linecap:butt;stroke-linejoin:miter;stroke-opacity:1"/>
<path class="bond-32 atom-31 atom-33" d="M 177.3,42.7 L 153.9,35.6" style="fill:none;fill-rule:evenodd;stroke:#000000;stroke-width:2.0px;stroke-linecap:butt;stroke-linejoin:miter;stroke-opacity:1"/>
<path class="bond-33 atom-33 atom-34" d="M 152.7,30.7 L 131.2,50.9" style="fill:none;fill-rule:evenodd;stroke:#000000;stroke-width:2.0px;stroke-linecap:butt;stroke-linejoin:miter;stroke-opacity:1"/>
<path class="bond-34 atom-34 atom-35" d="M 131.2,50.9 L 137.9,79.6" style="fill:none;fill-rule:evenodd;stroke:#000000;stroke-width:2.0px;stroke-linecap:butt;stroke-linejoin:miter;stroke-opacity:1"/>
<path class="bond-34 atom-34 atom-35" d="M 136.1,52.3 L 141.6,76.1" style="fill:none;fill-rule:evenodd;stroke:#000000;stroke-width:2.0px;stroke-linecap:butt;stroke-linejoin:miter;stroke-opacity:1"/>
<path class="bond-35 atom-35 atom-36" d="M 137.9,79.6 L 116.3,99.8" style="fill:none;fill-rule:evenodd;stroke:#000000;stroke-width:2.0px;stroke-linecap:butt;stroke-linejoin:miter;stroke-opacity:1"/>
<path class="bond-36 atom-36 atom-37" d="M 118.2,98.1 L 93.5,90.6" style="fill:none;fill-rule:evenodd;stroke:#000000;stroke-width:2.0px;stroke-linecap:butt;stroke-linejoin:miter;stroke-opacity:1"/>
<path class="bond-36 atom-36 atom-37" d="M 116.9,102.3 L 92.2,94.8" style="fill:none;fill-rule:evenodd;stroke:#000000;stroke-width:2.0px;stroke-linecap:butt;stroke-linejoin:miter;stroke-opacity:1"/>
<path class="bond-37 atom-36 atom-5" d="M 116.3,99.8 L 121.8,123.4" style="fill:none;fill-rule:evenodd;stroke:#000000;stroke-width:2.0px;stroke-linecap:butt;stroke-linejoin:miter;stroke-opacity:1"/>
<path class="bond-38 atom-22 atom-7" d="M 182.5,144.9 L 172.9,117.0" style="fill:none;fill-rule:evenodd;stroke:#000000;stroke-width:2.0px;stroke-linecap:butt;stroke-linejoin:miter;stroke-opacity:1"/>
<path class="bond-39 atom-28 atom-24" d="M 166.8,216.5 L 175.3,201.0" style="fill:none;fill-rule:evenodd;stroke:#000000;stroke-width:2.0px;stroke-linecap:butt;stroke-linejoin:miter;stroke-opacity:1"/>
<path class="bond-40 atom-35 atom-29" d="M 137.9,79.6 L 166.1,88.2" style="fill:none;fill-rule:evenodd;stroke:#000000;stroke-width:2.0px;stroke-linecap:butt;stroke-linejoin:miter;stroke-opacity:1"/>
<path class="bond-41 atom-20 atom-11" d="M 270.9,125.7 L 248.5,106.3" style="fill:none;fill-rule:evenodd;stroke:#000000;stroke-width:2.0px;stroke-linecap:butt;stroke-linejoin:miter;stroke-opacity:1"/>
<path class="bond-42 atom-20 atom-15" d="M 270.9,125.7 L 298.8,116.0" style="fill:none;fill-rule:evenodd;stroke:#000000;stroke-width:2.0px;stroke-linecap:butt;stroke-linejoin:miter;stroke-opacity:1"/>
<path d="M 72.3,141.0 L 73.2,140.2 L 74.6,140.6" style="fill:none;stroke:#000000;stroke-width:2.0px;stroke-linecap:butt;stroke-linejoin:miter;stroke-miterlimit:10;stroke-opacity:1;"/>
<path d="M 100.1,148.3 L 101.5,148.8 L 102.4,147.9" style="fill:none;stroke:#000000;stroke-width:2.0px;stroke-linecap:butt;stroke-linejoin:miter;stroke-miterlimit:10;stroke-opacity:1;"/>
<path d="M 195.2,100.0 L 196.4,99.1 L 197.4,99.8" style="fill:none;stroke:#000000;stroke-width:2.0px;stroke-linecap:butt;stroke-linejoin:miter;stroke-miterlimit:10;stroke-opacity:1;"/>
<path d="M 253.8,78.8 L 254.1,77.3 L 255.3,76.9" style="fill:none;stroke:#000000;stroke-width:2.0px;stroke-linecap:butt;stroke-linejoin:miter;stroke-miterlimit:10;stroke-opacity:1;"/>
<path d="M 303.4,86.2 L 304.3,87.0 L 304.1,88.4" style="fill:none;stroke:#000000;stroke-width:2.0px;stroke-linecap:butt;stroke-linejoin:miter;stroke-miterlimit:10;stroke-opacity:1;"/>
<path d="M 320.0,134.4 L 321.1,135.3 L 320.8,136.8" style="fill:none;stroke:#000000;stroke-width:2.0px;stroke-linecap:butt;stroke-linejoin:miter;stroke-miterlimit:10;stroke-opacity:1;"/>
<path d="M 315.8,162.9 L 315.5,164.3 L 314.1,164.8" style="fill:none;stroke:#000000;stroke-width:2.0px;stroke-linecap:butt;stroke-linejoin:miter;stroke-miterlimit:10;stroke-opacity:1;"/>
<path d="M 289.0,173.5 L 287.6,174.0 L 286.5,173.0" style="fill:none;stroke:#000000;stroke-width:2.0px;stroke-linecap:butt;stroke-linejoin:miter;stroke-miterlimit:10;stroke-opacity:1;"/>
<path d="M 266.4,155.6 L 265.3,154.7 L 265.6,153.2" style="fill:none;stroke:#000000;stroke-width:2.0px;stroke-linecap:butt;stroke-linejoin:miter;stroke-miterlimit:10;stroke-opacity:1;"/>
<path d="M 212.4,143.1 L 212.1,144.3 L 210.6,144.3" style="fill:none;stroke:#000000;stroke-width:2.0px;stroke-linecap:butt;stroke-linejoin:miter;stroke-miterlimit:10;stroke-opacity:1;"/>
<path d="M 184.0,144.8 L 182.5,144.9 L 182.0,143.5" style="fill:none;stroke:#000000;stroke-width:2.0px;stroke-linecap:butt;stroke-linejoin:miter;stroke-miterlimit:10;stroke-opacity:1;"/>
<path d="M 205.9,201.2 L 207.2,201.4 L 207.4,202.9" style="fill:none;stroke:#000000;stroke-width:2.0px;stroke-linecap:butt;stroke-linejoin:miter;stroke-miterlimit:10;stroke-opacity:1;"/>
<path d="M 210.7,229.2 L 210.8,230.7 L 209.7,231.2" style="fill:none;stroke:#000000;stroke-width:2.0px;stroke-linecap:butt;stroke-linejoin:miter;stroke-miterlimit:10;stroke-opacity:1;"/>
<path d="M 186.6,69.0 L 187.7,68.0 L 187.4,66.6" style="fill:none;stroke:#000000;stroke-width:2.0px;stroke-linecap:butt;stroke-linejoin:miter;stroke-miterlimit:10;stroke-opacity:1;"/>
<path d="M 154.2,31.1 L 152.7,30.7 L 151.7,31.7" style="fill:none;stroke:#000000;stroke-width:2.0px;stroke-linecap:butt;stroke-linejoin:miter;stroke-miterlimit:10;stroke-opacity:1;"/>
<path d="M 132.3,49.8 L 131.2,50.9 L 131.5,52.3" style="fill:none;stroke:#000000;stroke-width:2.0px;stroke-linecap:butt;stroke-linejoin:miter;stroke-miterlimit:10;stroke-opacity:1;"/>
<path d="M 117.4,98.8 L 116.3,99.8 L 116.6,101.0" style="fill:none;stroke:#000000;stroke-width:2.0px;stroke-linecap:butt;stroke-linejoin:miter;stroke-miterlimit:10;stroke-opacity:1;"/>
<path class="atom-1" d="M 49.8 156.2 L 52.6 160.6 Q 52.8 161.1, 53.3 161.8 Q 53.7 162.6, 53.7 162.7 L 53.7 156.2 L 54.8 156.2 L 54.8 164.6 L 53.7 164.6 L 50.7 159.7 Q 50.4 159.1, 50.0 158.5 Q 49.7 157.8, 49.6 157.6 L 49.6 164.6 L 48.5 164.6 L 48.5 156.2 L 49.8 156.2 " fill="#000000"/>
<path class="atom-1" d="M 48.4 165.4 L 49.5 165.4 L 49.5 168.9 L 53.8 168.9 L 53.8 165.4 L 54.9 165.4 L 54.9 173.8 L 53.8 173.8 L 53.8 169.9 L 49.5 169.9 L 49.5 173.8 L 48.4 173.8 L 48.4 165.4 " fill="#000000"/>
<path class="atom-3" d="M 62.7 111.4 Q 62.7 109.4, 63.7 108.3 Q 64.7 107.2, 66.5 107.2 Q 68.4 107.2, 69.4 108.3 Q 70.4 109.4, 70.4 111.4 Q 70.4 113.5, 69.3 114.6 Q 68.3 115.8, 66.5 115.8 Q 64.7 115.8, 63.7 114.6 Q 62.7 113.5, 62.7 111.4 M 66.5 114.8 Q 67.8 114.8, 68.5 114.0 Q 69.2 113.1, 69.2 111.4 Q 69.2 109.8, 68.5 109.0 Q 67.8 108.1, 66.5 108.1 Q 65.2 108.1, 64.5 109.0 Q 63.9 109.8, 63.9 111.4 Q 63.9 113.1, 64.5 114.0 Q 65.2 114.8, 66.5 114.8 " fill="#000000"/>
<path class="atom-5" d="M 121.2 124.4 L 123.9 128.8 Q 124.2 129.3, 124.6 130.0 Q 125.1 130.8, 125.1 130.9 L 125.1 124.4 L 126.2 124.4 L 126.2 132.8 L 125.1 132.8 L 122.1 127.9 Q 121.8 127.3, 121.4 126.7 Q 121.1 126.0, 121.0 125.8 L 121.0 132.8 L 119.9 132.8 L 119.9 124.4 L 121.2 124.4 " fill="#000000"/>
<path class="atom-9" d="M 197.9 75.8 Q 197.9 73.8, 198.9 72.7 Q 199.9 71.6, 201.7 71.6 Q 203.6 71.6, 204.6 72.7 Q 205.6 73.8, 205.6 75.8 Q 205.6 77.9, 204.6 79.0 Q 203.6 80.2, 201.7 80.2 Q 199.9 80.2, 198.9 79.0 Q 197.9 77.9, 197.9 75.8 M 201.7 79.2 Q 203.0 79.2, 203.7 78.4 Q 204.4 77.5, 204.4 75.8 Q 204.4 74.2, 203.7 73.4 Q 203.0 72.5, 201.7 72.5 Q 200.5 72.5, 199.8 73.4 Q 199.1 74.2, 199.1 75.8 Q 199.1 77.5, 199.8 78.4 Q 200.5 79.2, 201.7 79.2 " fill="#000000"/>
<path class="atom-10" d="M 218.8 111.8 L 221.5 116.3 Q 221.8 116.7, 222.2 117.5 Q 222.7 118.3, 222.7 118.3 L 222.7 111.8 L 223.8 111.8 L 223.8 120.2 L 222.7 120.2 L 219.7 115.4 Q 219.4 114.8, 219.0 114.1 Q 218.7 113.5, 218.5 113.3 L 218.5 120.2 L 217.5 120.2 L 217.5 111.8 L 218.8 111.8 " fill="#000000"/>
<path class="atom-13" d="M 280.2 63.5 L 282.9 67.9 Q 283.2 68.4, 283.6 69.1 Q 284.0 69.9, 284.1 70.0 L 284.1 63.5 L 285.2 63.5 L 285.2 71.8 L 284.0 71.8 L 281.1 67.0 Q 280.8 66.4, 280.4 65.8 Q 280.0 65.1, 279.9 64.9 L 279.9 71.8 L 278.8 71.8 L 278.8 63.5 L 280.2 63.5 " fill="#000000"/>
<path class="atom-24" d="M 176.3 191.6 L 179.1 196.1 Q 179.3 196.5, 179.8 197.3 Q 180.2 198.1, 180.2 198.1 L 180.2 191.6 L 181.4 191.6 L 181.4 200.0 L 180.2 200.0 L 177.3 195.2 Q 176.9 194.6, 176.6 193.9 Q 176.2 193.3, 176.1 193.1 L 176.1 200.0 L 175.0 200.0 L 175.0 191.6 L 176.3 191.6 " fill="#000000"/>
<path class="atom-27" d="M 182.3 239.1 L 185.0 243.5 Q 185.3 243.9, 185.7 244.7 Q 186.1 245.5, 186.2 245.6 L 186.2 239.1 L 187.3 239.1 L 187.3 247.4 L 186.1 247.4 L 183.2 242.6 Q 182.8 242.0, 182.5 241.4 Q 182.1 240.7, 182.0 240.5 L 182.0 247.4 L 180.9 247.4 L 180.9 239.1 L 182.3 239.1 " fill="#000000"/>
<path class="atom-28" d="M 162.1 217.5 L 164.8 221.9 Q 165.1 222.4, 165.5 223.2 Q 166.0 224.0, 166.0 224.0 L 166.0 217.5 L 167.1 217.5 L 167.1 225.9 L 165.9 225.9 L 163.0 221.0 Q 162.7 220.5, 162.3 219.8 Q 161.9 219.2, 161.8 219.0 L 161.8 225.9 L 160.7 225.9 L 160.7 217.5 L 162.1 217.5 " fill="#000000"/>
<path class="atom-32" d="M 200.1 14.9 L 205.0 14.9 L 205.0 15.8 L 201.2 15.8 L 201.2 18.4 L 204.6 18.4 L 204.6 19.3 L 201.2 19.3 L 201.2 23.2 L 200.1 23.2 L 200.1 14.9 " fill="#000000"/>
<path class="atom-37" d="M 84.2 91.3 Q 84.2 89.2, 85.2 88.1 Q 86.2 87.0, 88.1 87.0 Q 89.9 87.0, 90.9 88.1 Q 91.9 89.2, 91.9 91.3 Q 91.9 93.3, 90.9 94.4 Q 89.9 95.6, 88.1 95.6 Q 86.2 95.6, 85.2 94.4 Q 84.2 93.3, 84.2 91.3 M 88.1 94.6 Q 89.3 94.6, 90.0 93.8 Q 90.7 92.9, 90.7 91.3 Q 90.7 89.6, 90.0 88.8 Q 89.3 88.0, 88.1 88.0 Q 86.8 88.0, 86.1 88.8 Q 85.4 89.6, 85.4 91.3 Q 85.4 92.9, 86.1 93.8 Q 86.8 94.6, 88.1 94.6 " fill="#000000"/>
</svg>