<svg xmlns="http://www.w3.org/2000/svg" xmlns:rdkit="http://www.rdkit.org/xml" xmlns:xlink="http://www.w3.org/1999/xlink" version="1.1" baseProfile="full" xml:space="preserve" width="296px" height="255px" viewBox="0 0 296 255">
<!-- END OF HEADER -->
<rect style="opacity:1.0;fill:#FFFFFF;stroke:none" width="296.0" height="255.0" x="0.0" y="0.0"> </rect>
<ellipse cx="134.2" cy="43.3" rx="0.7" ry="0.7" class="atom-0" style="fill:#7F7FFF;fill-rule:evenodd;stroke:#7F7FFF;stroke-width:1.0px;stroke-linecap:butt;stroke-linejoin:miter;stroke-opacity:1"/>
<ellipse cx="159.9" cy="57.9" rx="0.7" ry="0.7" class="atom-1" style="fill:#7F7FFF;fill-rule:evenodd;stroke:#7F7FFF;stroke-width:1.0px;stroke-linecap:butt;stroke-linejoin:miter;stroke-opacity:1"/>
<ellipse cx="185.4" cy="42.9" rx="0.4" ry="0.4" class="atom-2" style="fill:#7F7FFF;fill-rule:evenodd;stroke:#7F7FFF;stroke-width:1.0px;stroke-linecap:butt;stroke-linejoin:miter;stroke-opacity:1"/>
<ellipse cx="185.2" cy="13.3" rx="0.4" ry="0.4" class="atom-3" style="fill:#7F7FFF;fill-rule:evenodd;stroke:#7F7FFF;stroke-width:1.0px;stroke-linecap:butt;stroke-linejoin:miter;stroke-opacity:1"/>
<ellipse cx="211.2" cy="57.5" rx="0.4" ry="0.4" class="atom-4" style="fill:#7F7FFF;fill-rule:evenodd;stroke:#7F7FFF;stroke-width:1.0px;stroke-linecap:butt;stroke-linejoin:miter;stroke-opacity:1"/>
<ellipse cx="211.4" cy="87.1" rx="5.5" ry="5.5" class="atom-5" style="fill:#7F7FFF;fill-rule:evenodd;stroke:#7F7FFF;stroke-width:1.0px;stroke-linecap:butt;stroke-linejoin:miter;stroke-opacity:1"/>
<ellipse cx="185.9" cy="102.1" rx="5.5" ry="5.5" class="atom-6" style="fill:#7F7FFF;fill-rule:evenodd;stroke:#7F7FFF;stroke-width:1.0px;stroke-linecap:butt;stroke-linejoin:miter;stroke-opacity:1"/>
<ellipse cx="186.1" cy="131.7" rx="5.5" ry="5.5" class="atom-7" style="fill:#7F7FFF;fill-rule:evenodd;stroke:#7F7FFF;stroke-width:1.0px;stroke-linecap:butt;stroke-linejoin:miter;stroke-opacity:1"/>
<ellipse cx="160.6" cy="146.6" rx="5.5" ry="5.5" class="atom-8" style="fill:#7F7FFF;fill-rule:evenodd;stroke:#7F7FFF;stroke-width:1.0px;stroke-linecap:butt;stroke-linejoin:miter;stroke-opacity:1"/>
<ellipse cx="160.8" cy="176.2" rx="5.5" ry="5.5" class="atom-9" style="fill:#7F7FFF;fill-rule:evenodd;stroke:#7F7FFF;stroke-width:1.0px;stroke-linecap:butt;stroke-linejoin:miter;stroke-opacity:1"/>
<ellipse cx="134.8" cy="132.0" rx="0.3" ry="0.3" class="atom-10" style="fill:#7F7FFF;fill-rule:evenodd;stroke:#7F7FFF;stroke-width:1.0px;stroke-linecap:butt;stroke-linejoin:miter;stroke-opacity:1"/>
<ellipse cx="109.3" cy="147.0" rx="2.3" ry="2.3" class="atom-11" style="fill:#FF7F7F;fill-rule:evenodd;stroke:#FF7F7F;stroke-width:1.0px;stroke-linecap:butt;stroke-linejoin:miter;stroke-opacity:1"/>
<ellipse cx="109.5" cy="176.6" rx="2.3" ry="2.3" class="atom-12" style="fill:#FF7F7F;fill-rule:evenodd;stroke:#FF7F7F;stroke-width:1.0px;stroke-linecap:butt;stroke-linejoin:miter;stroke-opacity:1"/>
<ellipse cx="84.0" cy="191.6" rx="2.3" ry="2.3" class="atom-13" style="fill:#FF7F7F;fill-rule:evenodd;stroke:#FF7F7F;stroke-width:1.0px;stroke-linecap:butt;stroke-linejoin:miter;stroke-opacity:1"/>
<ellipse cx="58.3" cy="177.0" rx="2.3" ry="2.3" class="atom-14" style="fill:#FF7F7F;fill-rule:evenodd;stroke:#FF7F7F;stroke-width:1.0px;stroke-linecap:butt;stroke-linejoin:miter;stroke-opacity:1"/>
<ellipse cx="58.1" cy="147.4" rx="2.3" ry="2.3" class="atom-15" style="fill:#FF7F7F;fill-rule:evenodd;stroke:#FF7F7F;stroke-width:1.0px;stroke-linecap:butt;stroke-linejoin:miter;stroke-opacity:1"/>
<ellipse cx="32.3" cy="132.8" rx="2.3" ry="2.3" class="atom-16" style="fill:#FF7F7F;fill-rule:evenodd;stroke:#FF7F7F;stroke-width:1.0px;stroke-linecap:butt;stroke-linejoin:miter;stroke-opacity:1"/>
<ellipse cx="32.1" cy="103.2" rx="2.3" ry="2.3" class="atom-17" style="fill:#FF7F7F;fill-rule:evenodd;stroke:#FF7F7F;stroke-width:1.0px;stroke-linecap:butt;stroke-linejoin:miter;stroke-opacity:1"/>
<ellipse cx="57.6" cy="88.2" rx="2.3" ry="2.3" class="atom-18" style="fill:#FF7F7F;fill-rule:evenodd;stroke:#FF7F7F;stroke-width:1.0px;stroke-linecap:butt;stroke-linejoin:miter;stroke-opacity:1"/>
<ellipse cx="83.4" cy="102.8" rx="2.3" ry="2.3" class="atom-19" style="fill:#FF7F7F;fill-rule:evenodd;stroke:#FF7F7F;stroke-width:1.0px;stroke-linecap:butt;stroke-linejoin:miter;stroke-opacity:1"/>
<ellipse cx="83.6" cy="132.4" rx="2.3" ry="2.3" class="atom-20" style="fill:#FF7F7F;fill-rule:evenodd;stroke:#FF7F7F;stroke-width:1.0px;stroke-linecap:butt;stroke-linejoin:miter;stroke-opacity:1"/>
<ellipse cx="211.8" cy="146.3" rx="5.5" ry="5.5" class="atom-21" style="fill:#7F7FFF;fill-rule:evenodd;stroke:#7F7FFF;stroke-width:1.0px;stroke-linecap:butt;stroke-linejoin:miter;stroke-opacity:1"/>
<ellipse cx="212.0" cy="175.9" rx="5.5" ry="5.5" class="atom-22" style="fill:#7F7FFF;fill-rule:evenodd;stroke:#7F7FFF;stroke-width:1.0px;stroke-linecap:butt;stroke-linejoin:miter;stroke-opacity:1"/>
<ellipse cx="237.8" cy="190.5" rx="5.5" ry="5.5" class="atom-23" style="fill:#7F7FFF;fill-rule:evenodd;stroke:#7F7FFF;stroke-width:1.0px;stroke-linecap:butt;stroke-linejoin:miter;stroke-opacity:1"/>
<ellipse cx="238.0" cy="220.1" rx="5.5" ry="5.5" class="atom-24" style="fill:#7F7FFF;fill-rule:evenodd;stroke:#7F7FFF;stroke-width:1.0px;stroke-linecap:butt;stroke-linejoin:miter;stroke-opacity:1"/>
<ellipse cx="263.3" cy="175.5" rx="5.5" ry="5.5" class="atom-25" style="fill:#7F7FFF;fill-rule:evenodd;stroke:#7F7FFF;stroke-width:1.0px;stroke-linecap:butt;stroke-linejoin:miter;stroke-opacity:1"/>
<ellipse cx="263.1" cy="145.9" rx="5.5" ry="5.5" class="atom-26" style="fill:#7F7FFF;fill-rule:evenodd;stroke:#7F7FFF;stroke-width:1.0px;stroke-linecap:butt;stroke-linejoin:miter;stroke-opacity:1"/>
<ellipse cx="237.3" cy="131.3" rx="5.5" ry="5.5" class="atom-27" style="fill:#7F7FFF;fill-rule:evenodd;stroke:#7F7FFF;stroke-width:1.0px;stroke-linecap:butt;stroke-linejoin:miter;stroke-opacity:1"/>
<ellipse cx="237.1" cy="101.7" rx="5.5" ry="5.5" class="atom-28" style="fill:#7F7FFF;fill-rule:evenodd;stroke:#7F7FFF;stroke-width:1.0px;stroke-linecap:butt;stroke-linejoin:miter;stroke-opacity:1"/>
<ellipse cx="262.6" cy="86.7" rx="5.5" ry="5.5" class="atom-29" style="fill:#7F7FFF;fill-rule:evenodd;stroke:#7F7FFF;stroke-width:1.0px;stroke-linecap:butt;stroke-linejoin:miter;stroke-opacity:1"/>
<path class="bond-0 atom-0 atom-1" d="M 134.2,43.3 L 155.8,55.5" style="fill:none;fill-rule:evenodd;stroke:#000000;stroke-width:2.0px;stroke-linecap:butt;stroke-linejoin:miter;stroke-opacity:1"/>
<path class="bond-1 atom-1 atom-2" d="M 164.1,55.4 L 185.4,42.9" style="fill:none;fill-rule:evenodd;stroke:#000000;stroke-width:2.0px;stroke-linecap:butt;stroke-linejoin:miter;stroke-opacity:1"/>
<path class="bond-2 atom-2 atom-3" d="M 185.1,39.2 L 185.7,39.2" style="fill:none;fill-rule:evenodd;stroke:#000000;stroke-width:1.0px;stroke-linecap:butt;stroke-linejoin:miter;stroke-opacity:1"/>
<path class="bond-2 atom-2 atom-3" d="M 184.8,35.5 L 185.9,35.5" style="fill:none;fill-rule:evenodd;stroke:#000000;stroke-width:1.0px;stroke-linecap:butt;stroke-linejoin:miter;stroke-opacity:1"/>
<path class="bond-2 atom-2 atom-3" d="M 184.5,31.8 L 186.2,31.8" style="fill:none;fill-rule:evenodd;stroke:#000000;stroke-width:1.0px;stroke-linecap:butt;stroke-linejoin:miter;stroke-opacity:1"/>
<path class="bond-2 atom-2 atom-3" d="M 184.2,28.1 L 186.4,28.1" style="fill:none;fill-rule:evenodd;stroke:#000000;stroke-width:1.0px;stroke-linecap:butt;stroke-linejoin:miter;stroke-opacity:1"/>
<path class="bond-2 atom-2 atom-3" d="M 183.9,24.4 L 186.7,24.4" style="fill:none;fill-rule:evenodd;stroke:#000000;stroke-width:1.0px;stroke-linecap:butt;stroke-linejoin:miter;stroke-opacity:1"/>
<path class="bond-2 atom-2 atom-3" d="M 183.6,20.7 L 186.9,20.7" style="fill:none;fill-rule:evenodd;stroke:#000000;stroke-width:1.0px;stroke-linecap:butt;stroke-linejoin:miter;stroke-opacity:1"/>
<path class="bond-2 atom-2 atom-3" d="M 183.3,17.0 L 187.2,17.0" style="fill:none;fill-rule:evenodd;stroke:#000000;stroke-width:1.0px;stroke-linecap:butt;stroke-linejoin:miter;stroke-opacity:1"/>
<path class="bond-2 atom-2 atom-3" d="M 183.0,13.3 L 187.4,13.3" style="fill:none;fill-rule:evenodd;stroke:#000000;stroke-width:1.0px;stroke-linecap:butt;stroke-linejoin:miter;stroke-opacity:1"/>
<path class="bond-3 atom-2 atom-4" d="M 185.4,42.9 L 211.2,57.5" style="fill:none;fill-rule:evenodd;stroke:#000000;stroke-width:2.0px;stroke-linecap:butt;stroke-linejoin:miter;stroke-opacity:1"/>
<path class="bond-4 atom-4 atom-5" d="M 211.2,57.5 L 211.3,81.9" style="fill:none;fill-rule:evenodd;stroke:#000000;stroke-width:2.0px;stroke-linecap:butt;stroke-linejoin:miter;stroke-opacity:1"/>
<path class="bond-5 atom-5 atom-6" d="M 207.2,89.5 L 185.9,102.1" style="fill:none;fill-rule:evenodd;stroke:#000000;stroke-width:2.0px;stroke-linecap:butt;stroke-linejoin:miter;stroke-opacity:1"/>
<path class="bond-6 atom-6 atom-7" d="M 185.9,102.1 L 186.1,131.7" style="fill:none;fill-rule:evenodd;stroke:#000000;stroke-width:2.0px;stroke-linecap:butt;stroke-linejoin:miter;stroke-opacity:1"/>
<path class="bond-7 atom-7 atom-8" d="M 186.1,131.7 L 162.7,147.8 L 158.2,145.3 Z" style="fill:#000000;fill-rule:evenodd;fill-opacity:1;stroke:#000000;stroke-width:0.5px;stroke-linecap:butt;stroke-linejoin:miter;stroke-miterlimit:10;stroke-opacity:1;"/>
<path class="bond-8 atom-8 atom-9" d="M 158.3,145.4 L 158.5,171.0" style="fill:none;fill-rule:evenodd;stroke:#000000;stroke-width:2.0px;stroke-linecap:butt;stroke-linejoin:miter;stroke-opacity:1"/>
<path class="bond-8 atom-8 atom-9" d="M 162.8,145.3 L 163.0,171.0" style="fill:none;fill-rule:evenodd;stroke:#000000;stroke-width:2.0px;stroke-linecap:butt;stroke-linejoin:miter;stroke-opacity:1"/>
<path class="bond-9 atom-8 atom-10" d="M 160.6,146.6 L 139.0,134.4" style="fill:none;fill-rule:evenodd;stroke:#000000;stroke-width:2.0px;stroke-linecap:butt;stroke-linejoin:miter;stroke-opacity:1"/>
<path class="bond-10 atom-10 atom-11" d="M 130.7,134.5 L 109.3,147.0" style="fill:none;fill-rule:evenodd;stroke:#000000;stroke-width:2.0px;stroke-linecap:butt;stroke-linejoin:miter;stroke-opacity:1"/>
<path class="bond-11 atom-11 atom-12" d="M 109.3,147.0 L 109.5,176.6" style="fill:none;fill-rule:evenodd;stroke:#000000;stroke-width:2.0px;stroke-linecap:butt;stroke-linejoin:miter;stroke-opacity:1"/>
<path class="bond-11 atom-11 atom-12" d="M 104.9,149.6 L 105.1,174.1" style="fill:none;fill-rule:evenodd;stroke:#000000;stroke-width:2.0px;stroke-linecap:butt;stroke-linejoin:miter;stroke-opacity:1"/>
<path class="bond-12 atom-12 atom-13" d="M 109.5,176.6 L 88.2,189.1" style="fill:none;fill-rule:evenodd;stroke:#000000;stroke-width:2.0px;stroke-linecap:butt;stroke-linejoin:miter;stroke-opacity:1"/>
<path class="bond-13 atom-13 atom-14" d="M 79.8,189.2 L 58.3,177.0" style="fill:none;fill-rule:evenodd;stroke:#000000;stroke-width:2.0px;stroke-linecap:butt;stroke-linejoin:miter;stroke-opacity:1"/>
<path class="bond-13 atom-13 atom-14" d="M 82.0,185.4 L 62.7,174.4" style="fill:none;fill-rule:evenodd;stroke:#000000;stroke-width:2.0px;stroke-linecap:butt;stroke-linejoin:miter;stroke-opacity:1"/>
<path class="bond-14 atom-14 atom-15" d="M 58.3,177.0 L 58.1,147.4" style="fill:none;fill-rule:evenodd;stroke:#000000;stroke-width:2.0px;stroke-linecap:butt;stroke-linejoin:miter;stroke-opacity:1"/>
<path class="bond-15 atom-15 atom-16" d="M 58.1,147.4 L 32.3,132.8" style="fill:none;fill-rule:evenodd;stroke:#000000;stroke-width:2.0px;stroke-linecap:butt;stroke-linejoin:miter;stroke-opacity:1"/>
<path class="bond-15 atom-15 atom-16" d="M 58.0,142.2 L 36.7,130.2" style="fill:none;fill-rule:evenodd;stroke:#000000;stroke-width:2.0px;stroke-linecap:butt;stroke-linejoin:miter;stroke-opacity:1"/>
<path class="bond-16 atom-16 atom-17" d="M 32.3,132.8 L 32.1,103.2" style="fill:none;fill-rule:evenodd;stroke:#000000;stroke-width:2.0px;stroke-linecap:butt;stroke-linejoin:miter;stroke-opacity:1"/>
<path class="bond-17 atom-17 atom-18" d="M 32.1,103.2 L 57.6,88.2" style="fill:none;fill-rule:evenodd;stroke:#000000;stroke-width:2.0px;stroke-linecap:butt;stroke-linejoin:miter;stroke-opacity:1"/>
<path class="bond-17 atom-17 atom-18" d="M 36.6,105.7 L 57.7,93.3" style="fill:none;fill-rule:evenodd;stroke:#000000;stroke-width:2.0px;stroke-linecap:butt;stroke-linejoin:miter;stroke-opacity:1"/>
<path class="bond-18 atom-18 atom-19" d="M 57.6,88.2 L 83.4,102.8" style="fill:none;fill-rule:evenodd;stroke:#000000;stroke-width:2.0px;stroke-linecap:butt;stroke-linejoin:miter;stroke-opacity:1"/>
<path class="bond-19 atom-19 atom-20" d="M 83.4,102.8 L 83.6,132.4" style="fill:none;fill-rule:evenodd;stroke:#000000;stroke-width:2.0px;stroke-linecap:butt;stroke-linejoin:miter;stroke-opacity:1"/>
<path class="bond-19 atom-19 atom-20" d="M 78.9,105.4 L 79.1,129.9" style="fill:none;fill-rule:evenodd;stroke:#000000;stroke-width:2.0px;stroke-linecap:butt;stroke-linejoin:miter;stroke-opacity:1"/>
<path class="bond-20 atom-7 atom-21" d="M 186.1,131.7 L 211.8,146.3" style="fill:none;fill-rule:evenodd;stroke:#000000;stroke-width:2.0px;stroke-linecap:butt;stroke-linejoin:miter;stroke-opacity:1"/>
<path class="bond-21 atom-21 atom-22" d="M 211.8,146.3 L 212.0,175.9" style="fill:none;fill-rule:evenodd;stroke:#000000;stroke-width:2.0px;stroke-linecap:butt;stroke-linejoin:miter;stroke-opacity:1"/>
<path class="bond-21 atom-21 atom-22" d="M 216.3,148.8 L 216.4,173.3" style="fill:none;fill-rule:evenodd;stroke:#000000;stroke-width:2.0px;stroke-linecap:butt;stroke-linejoin:miter;stroke-opacity:1"/>
<path class="bond-22 atom-22 atom-23" d="M 212.0,175.9 L 237.8,190.5" style="fill:none;fill-rule:evenodd;stroke:#000000;stroke-width:2.0px;stroke-linecap:butt;stroke-linejoin:miter;stroke-opacity:1"/>
<path class="bond-23 atom-23 atom-24" d="M 237.8,190.5 L 237.9,215.1" style="fill:none;fill-rule:evenodd;stroke:#000000;stroke-width:2.0px;stroke-linecap:butt;stroke-linejoin:miter;stroke-opacity:1"/>
<path class="bond-24 atom-23 atom-25" d="M 237.8,190.5 L 263.3,175.5" style="fill:none;fill-rule:evenodd;stroke:#000000;stroke-width:2.0px;stroke-linecap:butt;stroke-linejoin:miter;stroke-opacity:1"/>
<path class="bond-24 atom-23 atom-25" d="M 237.7,185.3 L 258.8,173.0" style="fill:none;fill-rule:evenodd;stroke:#000000;stroke-width:2.0px;stroke-linecap:butt;stroke-linejoin:miter;stroke-opacity:1"/>
<path class="bond-25 atom-25 atom-26" d="M 263.3,175.5 L 263.1,145.9" style="fill:none;fill-rule:evenodd;stroke:#000000;stroke-width:2.0px;stroke-linecap:butt;stroke-linejoin:miter;stroke-opacity:1"/>
<path class="bond-26 atom-26 atom-27" d="M 263.1,145.9 L 237.3,131.3" style="fill:none;fill-rule:evenodd;stroke:#000000;stroke-width:2.0px;stroke-linecap:butt;stroke-linejoin:miter;stroke-opacity:1"/>
<path class="bond-26 atom-26 atom-27" d="M 258.6,148.5 L 237.4,136.4" style="fill:none;fill-rule:evenodd;stroke:#000000;stroke-width:2.0px;stroke-linecap:butt;stroke-linejoin:miter;stroke-opacity:1"/>
<path class="bond-27 atom-27 atom-28" d="M 237.3,131.3 L 237.1,101.7" style="fill:none;fill-rule:evenodd;stroke:#000000;stroke-width:2.0px;stroke-linecap:butt;stroke-linejoin:miter;stroke-opacity:1"/>
<path class="bond-28 atom-28 atom-29" d="M 237.1,104.3 L 258.9,91.5" style="fill:none;fill-rule:evenodd;stroke:#000000;stroke-width:2.0px;stroke-linecap:butt;stroke-linejoin:miter;stroke-opacity:1"/>
<path class="bond-28 atom-28 atom-29" d="M 234.9,100.4 L 256.7,87.6" style="fill:none;fill-rule:evenodd;stroke:#000000;stroke-width:2.0px;stroke-linecap:butt;stroke-linejoin:miter;stroke-opacity:1"/>
<path class="bond-29 atom-28 atom-5" d="M 237.1,101.7 L 215.5,89.4" style="fill:none;fill-rule:evenodd;stroke:#000000;stroke-width:2.0px;stroke-linecap:butt;stroke-linejoin:miter;stroke-opacity:1"/>
<path class="bond-30 atom-20 atom-11" d="M 83.6,132.4 L 109.3,147.0" style="fill:none;fill-rule:evenodd;stroke:#000000;stroke-width:2.0px;stroke-linecap:butt;stroke-linejoin:miter;stroke-opacity:1"/>
<path class="bond-31 atom-27 atom-21" d="M 237.3,131.3 L 211.8,146.3" style="fill:none;fill-rule:evenodd;stroke:#000000;stroke-width:2.0px;stroke-linecap:butt;stroke-linejoin:miter;stroke-opacity:1"/>
<path class="bond-32 atom-20 atom-15" d="M 83.6,132.4 L 58.1,147.4" style="fill:none;fill-rule:evenodd;stroke:#000000;stroke-width:2.0px;stroke-linecap:butt;stroke-linejoin:miter;stroke-opacity:1"/>
<path d="M 184.4,43.5 L 185.4,42.9 L 186.7,43.6" style="fill:none;stroke:#000000;stroke-width:2.0px;stroke-linecap:butt;stroke-linejoin:miter;stroke-miterlimit:10;stroke-opacity:1;"/>
<path d="M 209.9,56.8 L 211.2,57.5 L 211.2,58.7" style="fill:none;stroke:#000000;stroke-width:2.0px;stroke-linecap:butt;stroke-linejoin:miter;stroke-miterlimit:10;stroke-opacity:1;"/>
<path d="M 186.9,101.4 L 185.9,102.1 L 185.9,103.5" style="fill:none;stroke:#000000;stroke-width:2.0px;stroke-linecap:butt;stroke-linejoin:miter;stroke-miterlimit:10;stroke-opacity:1;"/>
<path d="M 186.1,130.2 L 186.1,131.7 L 187.4,132.4" style="fill:none;stroke:#000000;stroke-width:2.0px;stroke-linecap:butt;stroke-linejoin:miter;stroke-miterlimit:10;stroke-opacity:1;"/>
<path d="M 109.5,175.1 L 109.5,176.6 L 108.5,177.2" style="fill:none;stroke:#000000;stroke-width:2.0px;stroke-linecap:butt;stroke-linejoin:miter;stroke-miterlimit:10;stroke-opacity:1;"/>
<path d="M 59.3,177.6 L 58.3,177.0 L 58.3,175.5" style="fill:none;stroke:#000000;stroke-width:2.0px;stroke-linecap:butt;stroke-linejoin:miter;stroke-miterlimit:10;stroke-opacity:1;"/>
<path d="M 33.6,133.5 L 32.3,132.8 L 32.3,131.3" style="fill:none;stroke:#000000;stroke-width:2.0px;stroke-linecap:butt;stroke-linejoin:miter;stroke-miterlimit:10;stroke-opacity:1;"/>
<path d="M 32.1,104.7 L 32.1,103.2 L 33.4,102.4" style="fill:none;stroke:#000000;stroke-width:2.0px;stroke-linecap:butt;stroke-linejoin:miter;stroke-miterlimit:10;stroke-opacity:1;"/>
<path d="M 56.3,88.9 L 57.6,88.2 L 58.9,88.9" style="fill:none;stroke:#000000;stroke-width:2.0px;stroke-linecap:butt;stroke-linejoin:miter;stroke-miterlimit:10;stroke-opacity:1;"/>
<path d="M 82.1,102.1 L 83.4,102.8 L 83.4,104.3" style="fill:none;stroke:#000000;stroke-width:2.0px;stroke-linecap:butt;stroke-linejoin:miter;stroke-miterlimit:10;stroke-opacity:1;"/>
<path d="M 212.0,174.4 L 212.0,175.9 L 213.3,176.6" style="fill:none;stroke:#000000;stroke-width:2.0px;stroke-linecap:butt;stroke-linejoin:miter;stroke-miterlimit:10;stroke-opacity:1;"/>
<path d="M 262.0,176.2 L 263.3,175.5 L 263.3,174.0" style="fill:none;stroke:#000000;stroke-width:2.0px;stroke-linecap:butt;stroke-linejoin:miter;stroke-miterlimit:10;stroke-opacity:1;"/>
<path d="M 263.1,147.4 L 263.1,145.9 L 261.8,145.2" style="fill:none;stroke:#000000;stroke-width:2.0px;stroke-linecap:butt;stroke-linejoin:miter;stroke-miterlimit:10;stroke-opacity:1;"/>
<path d="M 237.1,103.2 L 237.1,101.7 L 236.0,101.1" style="fill:none;stroke:#000000;stroke-width:2.0px;stroke-linecap:butt;stroke-linejoin:miter;stroke-miterlimit:10;stroke-opacity:1;"/>
<path class="atom-1" d="M 158.1 53.7 L 160.8 58.1 Q 161.1 58.5, 161.5 59.3 Q 162.0 60.1, 162.0 60.2 L 162.0 53.7 L 163.1 53.7 L 163.1 62.1 L 161.9 62.1 L 159.0 57.2 Q 158.7 56.6, 158.3 56.0 Q 157.9 55.3, 157.8 55.1 L 157.8 62.1 L 156.7 62.1 L 156.7 53.7 L 158.1 53.7 " fill="#000000"/>
<path class="atom-1" d="M 156.6 62.9 L 157.8 62.9 L 157.8 66.5 L 162.1 66.5 L 162.1 62.9 L 163.2 62.9 L 163.2 71.3 L 162.1 71.3 L 162.1 67.4 L 157.8 67.4 L 157.8 71.3 L 156.6 71.3 L 156.6 62.9 " fill="#000000"/>
<path class="atom-5" d="M 209.5 82.9 L 212.3 87.3 Q 212.5 87.8, 213.0 88.6 Q 213.4 89.4, 213.4 89.4 L 213.4 82.9 L 214.6 82.9 L 214.6 91.3 L 213.4 91.3 L 210.5 86.4 Q 210.1 85.9, 209.8 85.2 Q 209.4 84.5, 209.3 84.3 L 209.3 91.3 L 208.2 91.3 L 208.2 82.9 L 209.5 82.9 " fill="#000000"/>
<path class="atom-9" d="M 156.9 176.2 Q 156.9 174.2, 157.9 173.1 Q 158.9 172.0, 160.8 172.0 Q 162.6 172.0, 163.6 173.1 Q 164.6 174.2, 164.6 176.2 Q 164.6 178.3, 163.6 179.4 Q 162.6 180.6, 160.8 180.6 Q 158.9 180.6, 157.9 179.4 Q 156.9 178.3, 156.9 176.2 M 160.8 179.6 Q 162.0 179.6, 162.7 178.8 Q 163.4 177.9, 163.4 176.2 Q 163.4 174.6, 162.7 173.8 Q 162.0 172.9, 160.8 172.9 Q 159.5 172.9, 158.8 173.8 Q 158.1 174.6, 158.1 176.2 Q 158.1 177.9, 158.8 178.8 Q 159.5 179.6, 160.8 179.6 " fill="#000000"/>
<path class="atom-10" d="M 133.0 127.8 L 135.7 132.3 Q 136.0 132.7, 136.4 133.5 Q 136.9 134.3, 136.9 134.3 L 136.9 127.8 L 138.0 127.8 L 138.0 136.2 L 136.9 136.2 L 133.9 131.4 Q 133.6 130.8, 133.2 130.1 Q 132.8 129.5, 132.7 129.3 L 132.7 136.2 L 131.6 136.2 L 131.6 127.8 L 133.0 127.8 " fill="#000000"/>
<path class="atom-10" d="M 131.5 118.6 L 132.7 118.6 L 132.7 122.2 L 137.0 122.2 L 137.0 118.6 L 138.1 118.6 L 138.1 127.0 L 137.0 127.0 L 137.0 123.1 L 132.7 123.1 L 132.7 127.0 L 131.5 127.0 L 131.5 118.6 " fill="#000000"/>
<path class="atom-13" d="M 82.1 187.4 L 84.9 191.8 Q 85.2 192.3, 85.6 193.1 Q 86.0 193.8, 86.1 193.9 L 86.1 187.4 L 87.2 187.4 L 87.2 195.8 L 86.0 195.8 L 83.1 190.9 Q 82.7 190.3, 82.4 189.7 Q 82.0 189.0, 81.9 188.8 L 81.9 195.8 L 80.8 195.8 L 80.8 187.4 L 82.1 187.4 " fill="#000000"/>
<path class="atom-24" d="M 234.7 220.3 Q 234.7 218.3, 235.7 217.2 Q 236.7 216.1, 238.6 216.1 Q 240.3 216.1, 241.2 217.3 L 240.4 217.9 Q 239.7 217.0, 238.6 217.0 Q 237.3 217.0, 236.6 217.9 Q 235.9 218.7, 235.9 220.3 Q 235.9 222.0, 236.6 222.9 Q 237.3 223.7, 238.7 223.7 Q 239.6 223.7, 240.7 223.1 L 241.0 224.0 Q 240.6 224.3, 239.9 224.5 Q 239.2 224.7, 238.5 224.7 Q 236.7 224.7, 235.7 223.5 Q 234.7 222.4, 234.7 220.3 " fill="#000000"/>
<path class="atom-24" d="M 242.1 215.6 L 243.1 215.6 L 243.1 224.5 L 242.1 224.5 L 242.1 215.6 " fill="#000000"/>
<path class="atom-29" d="M 258.8 86.7 Q 258.8 84.7, 259.8 83.6 Q 260.8 82.5, 262.6 82.5 Q 264.5 82.5, 265.5 83.6 Q 266.5 84.7, 266.5 86.7 Q 266.5 88.8, 265.5 89.9 Q 264.5 91.1, 262.6 91.1 Q 260.8 91.1, 259.8 89.9 Q 258.8 88.8, 258.8 86.7 M 262.6 90.1 Q 263.9 90.1, 264.6 89.3 Q 265.3 88.4, 265.3 86.7 Q 265.3 85.1, 264.6 84.3 Q 263.9 83.4, 262.6 83.4 Q 261.4 83.4, 260.7 84.2 Q 260.0 85.1, 260.0 86.7 Q 260.0 88.4, 260.7 89.3 Q 261.4 90.1, 262.6 90.1 " fill="#000000"/>
<path class="legend" d="M 18.0 231.5 Q 19.7 231.5, 20.7 232.5 Q 21.6 233.6, 21.6 235.6 Q 21.6 237.6, 20.5 238.8 Q 19.4 240.0, 17.4 240.0 Q 16.5 240.0, 15.7 239.7 L 15.7 243.8 L 14.2 243.8 L 14.2 231.6 L 15.4 231.6 L 15.6 232.6 Q 16.0 232.0, 16.6 231.8 Q 17.3 231.5, 18.0 231.5 M 17.4 238.8 Q 18.6 238.8, 19.4 237.9 Q 20.1 237.1, 20.1 235.6 Q 20.1 234.2, 19.5 233.4 Q 18.9 232.6, 17.9 232.6 Q 17.1 232.6, 16.5 233.1 Q 15.9 233.5, 15.7 234.3 L 15.7 238.5 Q 16.5 238.8, 17.4 238.8 " fill="#000000"/>
<path class="legend" d="M 24.0 231.6 L 24.2 232.7 Q 25.1 231.5, 26.5 231.5 Q 26.9 231.5, 27.5 231.6 L 27.3 233.0 Q 26.6 232.8, 26.2 232.8 Q 25.5 232.8, 25.1 233.1 Q 24.7 233.3, 24.3 234.0 L 24.3 239.8 L 22.8 239.8 L 22.8 231.6 L 24.0 231.6 " fill="#000000"/>
<path class="legend" d="M 28.2 235.7 Q 28.2 233.7, 29.2 232.6 Q 30.2 231.5, 32.1 231.5 Q 33.9 231.5, 34.7 232.6 Q 35.5 233.6, 35.5 235.7 L 35.5 235.9 L 29.8 235.9 Q 29.8 237.3, 30.4 238.0 Q 31.0 238.8, 32.2 238.8 Q 32.8 238.8, 33.4 238.6 Q 34.0 238.5, 34.7 238.2 L 35.2 239.2 Q 34.4 239.6, 33.6 239.8 Q 32.9 240.0, 32.1 240.0 Q 30.3 240.0, 29.2 238.8 Q 28.2 237.7, 28.2 235.7 M 32.1 232.6 Q 31.1 232.6, 30.6 233.2 Q 30.0 233.7, 29.8 234.8 L 33.9 234.8 Q 33.8 233.7, 33.4 233.2 Q 32.9 232.6, 32.1 232.6 " fill="#000000"/>
<path class="legend" d="M 44.0 227.7 L 44.0 239.8 L 42.8 239.8 L 42.6 238.8 Q 41.7 240.0, 40.2 240.0 Q 38.5 240.0, 37.5 238.9 Q 36.6 237.8, 36.6 235.8 Q 36.6 233.8, 37.7 232.6 Q 38.8 231.5, 40.8 231.5 Q 41.6 231.5, 42.5 231.7 L 42.5 227.7 L 44.0 227.7 M 40.3 238.8 Q 41.1 238.8, 41.7 238.3 Q 42.3 237.9, 42.5 237.0 L 42.5 232.9 Q 41.7 232.6, 40.8 232.6 Q 39.5 232.6, 38.8 233.5 Q 38.1 234.3, 38.1 235.8 Q 38.1 237.3, 38.7 238.0 Q 39.2 238.8, 40.3 238.8 " fill="#000000"/>
<path class="legend" d="M 45.8 238.2 L 47.4 238.2 L 47.4 239.8 L 45.8 239.8 L 45.8 238.2 " fill="#000000"/>
<path class="legend" d="" fill="#000000"/>
<path class="legend" d="M 58.5 231.5 Q 60.2 231.5, 61.1 232.5 Q 62.1 233.6, 62.1 235.6 Q 62.1 237.6, 61.0 238.8 Q 59.8 240.0, 57.9 240.0 Q 57.0 240.0, 56.2 239.7 L 56.2 243.8 L 54.7 243.8 L 54.7 231.6 L 55.9 231.6 L 56.1 232.6 Q 56.5 232.0, 57.1 231.8 Q 57.7 231.5, 58.5 231.5 M 57.9 238.8 Q 59.1 238.8, 59.8 237.9 Q 60.6 237.1, 60.6 235.6 Q 60.6 234.2, 60.0 233.4 Q 59.4 232.6, 58.4 232.6 Q 57.6 232.6, 57.0 233.1 Q 56.4 233.5, 56.2 234.3 L 56.2 238.5 Q 57.0 238.8, 57.9 238.8 " fill="#000000"/>
<path class="legend" d="M 63.3 228.5 L 64.8 228.5 L 64.8 239.8 L 63.3 239.8 L 63.3 228.5 " fill="#000000"/>
<path class="legend" d="M 73.4 236.5 Q 73.4 237.7, 72.7 238.4 Q 72.0 239.1, 70.9 239.3 L 70.9 241.2 L 69.5 241.2 L 69.5 239.4 Q 68.3 239.4, 66.9 238.8 L 66.7 238.7 L 67.1 237.4 L 67.4 237.5 Q 68.0 237.8, 68.6 237.9 Q 69.1 238.1, 69.8 238.1 Q 70.7 238.1, 71.2 237.7 Q 71.8 237.3, 71.8 236.5 Q 71.8 236.0, 71.5 235.7 Q 71.2 235.4, 70.8 235.3 Q 70.4 235.1, 69.7 234.9 Q 68.8 234.6, 68.2 234.4 Q 67.7 234.1, 67.3 233.6 Q 66.9 233.0, 66.9 232.1 Q 66.9 231.0, 67.6 230.3 Q 68.2 229.5, 69.5 229.3 L 69.5 227.4 L 70.9 227.4 L 70.9 229.3 Q 72.0 229.4, 73.1 229.8 L 72.7 231.1 Q 71.5 230.6, 70.5 230.6 Q 69.5 230.6, 69.0 231.0 Q 68.5 231.3, 68.5 231.9 Q 68.5 232.4, 68.8 232.7 Q 69.1 233.0, 69.4 233.2 Q 69.8 233.4, 70.5 233.6 Q 71.4 233.8, 72.0 234.1 Q 72.6 234.4, 73.0 235.0 Q 73.4 235.5, 73.4 236.5 " fill="#000000"/>
<path class="legend" d="M 83.1 240.6 L 83.1 241.9 L 74.9 241.9 L 74.9 240.6 L 83.1 240.6 " fill="#000000"/>
<path class="legend" d="M 87.7 232.7 Q 88.7 232.7, 89.5 233.2 Q 90.3 233.6, 90.8 234.4 Q 91.2 235.2, 91.2 236.2 Q 91.2 237.4, 90.6 238.3 Q 90.1 239.1, 89.2 239.5 Q 88.2 240.0, 87.2 240.0 Q 86.1 240.0, 85.2 239.6 Q 84.2 239.2, 83.6 238.5 L 84.5 237.5 Q 85.0 238.0, 85.8 238.4 Q 86.5 238.7, 87.2 238.7 Q 88.2 238.7, 88.9 238.0 Q 89.6 237.4, 89.6 236.3 Q 89.6 235.1, 88.9 234.5 Q 88.2 233.9, 87.1 233.9 Q 86.1 233.9, 85.0 234.4 L 84.1 234.0 L 84.7 228.5 L 90.5 228.5 L 90.4 229.8 L 86.0 229.8 L 85.7 233.1 Q 86.7 232.7, 87.7 232.7 " fill="#000000"/>
<path class="legend" d="M 99.2 236.5 Q 99.2 237.7, 98.5 238.4 Q 97.8 239.1, 96.7 239.3 L 96.7 241.2 L 95.3 241.2 L 95.3 239.4 Q 94.1 239.4, 92.7 238.8 L 92.4 238.7 L 92.9 237.4 L 93.2 237.5 Q 93.8 237.8, 94.4 237.9 Q 94.9 238.1, 95.6 238.1 Q 96.5 238.1, 97.0 237.7 Q 97.6 237.3, 97.6 236.5 Q 97.6 236.0, 97.3 235.7 Q 97.0 235.4, 96.6 235.3 Q 96.2 235.1, 95.5 234.9 Q 94.6 234.6, 94.0 234.4 Q 93.5 234.1, 93.1 233.6 Q 92.7 233.0, 92.7 232.1 Q 92.7 231.0, 93.3 230.3 Q 94.0 229.5, 95.3 229.3 L 95.3 227.4 L 96.7 227.4 L 96.7 229.3 Q 97.7 229.4, 98.8 229.8 L 98.5 231.1 Q 97.2 230.6, 96.3 230.6 Q 95.3 230.6, 94.8 231.0 Q 94.3 231.3, 94.3 231.9 Q 94.3 232.4, 94.6 232.7 Q 94.8 233.0, 95.2 233.2 Q 95.6 233.4, 96.3 233.6 Q 97.2 233.8, 97.8 234.1 Q 98.4 234.4, 98.8 235.0 Q 99.2 235.5, 99.2 236.5 " fill="#000000"/>
<path class="legend" d="M 100.7 238.0 L 102.3 238.0 L 102.3 239.6 L 100.7 239.6 L 100.7 238.0 M 100.7 232.5 L 102.3 232.5 L 102.3 234.1 L 100.7 234.1 L 100.7 232.5 " fill="#000000"/>
<path class="legend" d="" fill="#000000"/>
<path class="legend" d="M 114.2 232.8 Q 115.2 232.8, 116.0 233.2 Q 116.8 233.6, 117.2 234.4 Q 117.6 235.2, 117.6 236.2 Q 117.6 237.3, 117.1 238.2 Q 116.6 239.0, 115.8 239.5 Q 114.9 240.0, 113.8 240.0 Q 111.8 240.0, 110.8 238.6 Q 109.8 237.2, 109.8 234.5 Q 109.8 231.5, 111.0 229.9 Q 112.3 228.4, 114.7 228.4 Q 115.4 228.4, 116.0 228.5 Q 116.6 228.7, 117.2 229.0 L 116.5 230.1 Q 115.7 229.7, 114.7 229.7 Q 113.1 229.7, 112.3 230.7 Q 111.5 231.7, 111.4 233.8 Q 112.0 233.3, 112.7 233.0 Q 113.4 232.8, 114.2 232.8 M 113.8 238.6 Q 114.4 238.6, 114.9 238.3 Q 115.4 238.0, 115.7 237.4 Q 116.0 236.9, 116.0 236.2 Q 116.0 235.2, 115.5 234.6 Q 114.9 234.0, 113.9 234.0 Q 113.2 234.0, 112.5 234.3 Q 111.9 234.6, 111.4 235.1 Q 111.4 237.0, 112.0 237.8 Q 112.6 238.6, 113.8 238.6 " fill="#000000"/>
<path class="legend" d="M 119.0 238.2 L 120.6 238.2 L 120.6 239.8 L 119.0 239.8 L 119.0 238.2 " fill="#000000"/>
<path class="legend" d="M 129.4 235.9 L 130.8 235.9 L 130.8 237.2 L 129.4 237.2 L 129.4 239.8 L 127.9 239.8 L 127.9 237.2 L 122.1 237.2 L 122.1 236.2 L 127.0 228.5 L 129.4 228.5 L 129.4 235.9 M 123.9 235.9 L 127.9 235.9 L 127.9 229.5 L 123.9 235.9 " fill="#000000"/>
<path class="legend" d="M 136.1 232.7 Q 137.1 232.7, 137.9 233.2 Q 138.8 233.6, 139.2 234.4 Q 139.7 235.2, 139.7 236.2 Q 139.7 237.4, 139.1 238.3 Q 138.5 239.1, 137.6 239.5 Q 136.7 240.0, 135.6 240.0 Q 134.6 240.0, 133.6 239.6 Q 132.7 239.2, 132.0 238.5 L 133.0 237.5 Q 133.5 238.0, 134.2 238.4 Q 134.9 238.7, 135.7 238.7 Q 136.7 238.7, 137.4 238.0 Q 138.1 237.4, 138.1 236.3 Q 138.1 235.1, 137.4 234.5 Q 136.7 233.9, 135.6 233.9 Q 134.6 233.9, 133.5 234.4 L 132.6 234.0 L 133.2 228.5 L 139.0 228.5 L 138.8 229.8 L 134.5 229.8 L 134.1 233.1 Q 135.1 232.7, 136.1 232.7 " fill="#000000"/>
<path class="legend" d="" fill="#000000"/>
<path class="legend" d="" fill="#000000"/>
<path class="legend" d="" fill="#000000"/>
<path class="legend" d="" fill="#000000"/>
<path class="legend" d="" fill="#000000"/>
<path class="legend" d="M 169.9 235.7 Q 169.9 233.7, 170.9 232.6 Q 171.9 231.5, 173.7 231.5 Q 175.5 231.5, 176.3 232.6 Q 177.2 233.6, 177.2 235.7 L 177.2 235.9 L 171.4 235.9 Q 171.4 237.3, 172.1 238.0 Q 172.7 238.8, 173.9 238.8 Q 174.5 238.8, 175.1 238.6 Q 175.7 238.5, 176.4 238.2 L 176.8 239.2 Q 176.0 239.6, 175.3 239.8 Q 174.5 240.0, 173.8 240.0 Q 171.9 240.0, 170.9 238.8 Q 169.9 237.7, 169.9 235.7 M 173.7 232.6 Q 172.8 232.6, 172.2 233.2 Q 171.6 233.7, 171.5 234.8 L 175.6 234.8 Q 175.5 233.7, 175.0 233.2 Q 174.6 232.6, 173.7 232.6 " fill="#000000"/>
<path class="legend" d="M 181.2 235.6 L 178.4 231.6 L 180.2 231.6 L 182.2 234.4 L 184.1 231.6 L 185.7 231.6 L 183.0 235.6 L 186.0 239.8 L 184.2 239.8 L 182.0 236.7 L 179.9 239.8 L 178.2 239.8 L 181.2 235.6 " fill="#000000"/>
<path class="legend" d="M 190.4 231.5 Q 192.1 231.5, 193.1 232.5 Q 194.0 233.6, 194.0 235.6 Q 194.0 237.6, 192.9 238.8 Q 191.8 240.0, 189.8 240.0 Q 188.9 240.0, 188.1 239.7 L 188.1 243.8 L 186.6 243.8 L 186.6 231.6 L 187.8 231.6 L 188.0 232.6 Q 188.4 232.0, 189.0 231.8 Q 189.7 231.5, 190.4 231.5 M 189.8 238.8 Q 191.0 238.8, 191.8 237.9 Q 192.5 237.1, 192.5 235.6 Q 192.5 234.2, 191.9 233.4 Q 191.4 232.6, 190.3 232.6 Q 189.5 232.6, 188.9 233.1 Q 188.3 233.5, 188.1 234.3 L 188.1 238.5 Q 188.9 238.8, 189.8 238.8 " fill="#000000"/>
<path class="legend" d="M 195.2 238.2 L 196.8 238.2 L 196.8 239.8 L 195.2 239.8 L 195.2 238.2 " fill="#000000"/>
<path class="legend" d="" fill="#000000"/>
<path class="legend" d="M 207.9 231.5 Q 209.6 231.5, 210.6 232.5 Q 211.5 233.6, 211.5 235.6 Q 211.5 237.6, 210.4 238.8 Q 209.3 240.0, 207.3 240.0 Q 206.4 240.0, 205.6 239.7 L 205.6 243.8 L 204.1 243.8 L 204.1 231.6 L 205.3 231.6 L 205.5 232.6 Q 205.9 232.0, 206.5 231.8 Q 207.2 231.5, 207.9 231.5 M 207.3 238.8 Q 208.6 238.8, 209.3 237.9 Q 210.0 237.1, 210.0 235.6 Q 210.0 234.2, 209.4 233.4 Q 208.9 232.6, 207.8 232.6 Q 207.0 232.6, 206.4 233.1 Q 205.8 233.5, 205.6 234.3 L 205.6 238.5 Q 206.4 238.8, 207.3 238.8 " fill="#000000"/>
<path class="legend" d="M 212.7 228.5 L 214.2 228.5 L 214.2 239.8 L 212.7 239.8 L 212.7 228.5 " fill="#000000"/>
<path class="legend" d="M 216.1 234.2 Q 216.1 231.3, 217.4 229.9 Q 218.7 228.4, 221.2 228.4 Q 223.6 228.4, 224.8 230.0 L 223.8 230.9 Q 222.9 229.7, 221.2 229.7 Q 219.5 229.7, 218.6 230.8 Q 217.7 232.0, 217.7 234.2 Q 217.7 236.4, 218.7 237.5 Q 219.6 238.7, 221.4 238.7 Q 222.7 238.7, 224.1 237.9 L 224.6 239.1 Q 224.0 239.5, 223.1 239.8 Q 222.2 240.0, 221.2 240.0 Q 218.7 240.0, 217.4 238.5 Q 216.1 237.0, 216.1 234.2 " fill="#000000"/>
<path class="legend" d="M 230.0 232.7 Q 231.0 232.7, 231.9 233.2 Q 232.7 233.6, 233.1 234.4 Q 233.6 235.2, 233.6 236.2 Q 233.6 237.4, 233.0 238.3 Q 232.5 239.1, 231.5 239.5 Q 230.6 240.0, 229.5 240.0 Q 228.5 240.0, 227.5 239.6 Q 226.6 239.2, 225.9 238.5 L 226.9 237.5 Q 227.4 238.0, 228.1 238.4 Q 228.9 238.7, 229.6 238.7 Q 230.6 238.7, 231.3 238.0 Q 232.0 237.4, 232.0 236.3 Q 232.0 235.1, 231.3 234.5 Q 230.6 233.9, 229.5 233.9 Q 228.5 233.9, 227.4 234.4 L 226.5 234.0 L 227.1 228.5 L 232.9 228.5 L 232.7 229.8 L 228.4 229.8 L 228.0 233.1 Q 229.1 232.7, 230.0 232.7 " fill="#000000"/>
<path class="legend" d="M 239.0 240.0 Q 236.9 240.0, 235.8 238.4 Q 234.8 236.9, 234.8 234.2 Q 234.8 231.4, 235.8 229.9 Q 236.9 228.4, 239.0 228.4 Q 241.1 228.4, 242.1 229.9 Q 243.1 231.4, 243.1 234.2 Q 243.1 236.9, 242.1 238.4 Q 241.0 240.0, 239.0 240.0 M 239.0 238.7 Q 240.2 238.7, 240.9 237.5 Q 241.5 236.4, 241.5 234.2 Q 241.5 231.9, 240.9 230.8 Q 240.2 229.7, 239.0 229.7 Q 237.8 229.7, 237.1 230.8 Q 236.4 231.9, 236.4 234.2 Q 236.4 236.4, 237.1 237.5 Q 237.8 238.7, 239.0 238.7 " fill="#000000"/>
<path class="legend" d="M 244.6 238.0 L 246.2 238.0 L 246.2 239.6 L 244.6 239.6 L 244.6 238.0 M 244.6 232.5 L 246.2 232.5 L 246.2 234.1 L 244.6 234.1 L 244.6 232.5 " fill="#000000"/>
<path class="legend" d="" fill="#000000"/>
<path class="legend" d="M 258.1 232.8 Q 259.1 232.8, 259.9 233.2 Q 260.7 233.6, 261.1 234.4 Q 261.5 235.2, 261.5 236.2 Q 261.5 237.3, 261.0 238.2 Q 260.5 239.0, 259.7 239.5 Q 258.8 240.0, 257.7 240.0 Q 255.7 240.0, 254.7 238.6 Q 253.7 237.2, 253.7 234.5 Q 253.7 231.5, 254.9 229.9 Q 256.2 228.4, 258.6 228.4 Q 259.3 228.4, 259.9 228.5 Q 260.5 228.7, 261.1 229.0 L 260.4 230.1 Q 259.6 229.7, 258.6 229.7 Q 257.0 229.7, 256.2 230.7 Q 255.4 231.7, 255.3 233.8 Q 255.9 233.3, 256.6 233.0 Q 257.3 232.8, 258.1 232.8 M 257.7 238.6 Q 258.3 238.6, 258.8 238.3 Q 259.3 238.0, 259.6 237.4 Q 259.9 236.9, 259.9 236.2 Q 259.9 235.2, 259.4 234.6 Q 258.8 234.0, 257.8 234.0 Q 257.1 234.0, 256.4 234.3 Q 255.8 234.6, 255.3 235.1 Q 255.3 237.0, 255.9 237.8 Q 256.5 238.6, 257.7 238.6 " fill="#000000"/>
<path class="legend" d="M 262.9 238.2 L 264.5 238.2 L 264.5 239.8 L 262.9 239.8 L 262.9 238.2 " fill="#000000"/>
<path class="legend" d="M 271.7 233.8 Q 272.8 234.3, 273.4 235.0 Q 274.0 235.6, 274.0 236.7 Q 274.0 237.7, 273.5 238.4 Q 273.0 239.2, 272.1 239.6 Q 271.2 240.0, 270.0 240.0 Q 268.1 240.0, 267.0 239.1 Q 266.0 238.2, 266.0 236.7 Q 266.0 235.8, 266.4 235.1 Q 266.9 234.4, 267.9 233.9 Q 267.2 233.5, 266.8 232.9 Q 266.4 232.2, 266.4 231.3 Q 266.4 229.9, 267.3 229.2 Q 268.3 228.4, 270.0 228.4 Q 271.6 228.4, 272.6 229.2 Q 273.5 229.9, 273.5 231.3 Q 273.5 232.1, 273.1 232.7 Q 272.6 233.3, 271.7 233.8 M 270.0 229.6 Q 269.0 229.6, 268.5 230.0 Q 268.0 230.5, 268.0 231.3 Q 268.0 231.9, 268.3 232.3 Q 268.7 232.6, 269.2 232.9 Q 269.7 233.1, 270.7 233.4 Q 271.3 233.0, 271.6 232.4 Q 271.9 231.9, 271.9 231.3 Q 271.9 230.5, 271.4 230.0 Q 270.9 229.6, 270.0 229.6 M 270.0 238.8 Q 271.1 238.8, 271.7 238.2 Q 272.4 237.7, 272.4 236.7 Q 272.4 236.1, 272.0 235.7 Q 271.7 235.3, 271.2 235.1 Q 270.7 234.9, 269.8 234.6 L 269.1 234.4 Q 268.3 234.8, 267.9 235.4 Q 267.6 236.0, 267.6 236.7 Q 267.6 237.7, 268.2 238.2 Q 268.9 238.8, 270.0 238.8 " fill="#000000"/>
<path class="legend" d="M 281.2 233.8 Q 282.2 234.3, 282.8 235.0 Q 283.4 235.6, 283.4 236.7 Q 283.4 237.7, 282.9 238.4 Q 282.4 239.2, 281.5 239.6 Q 280.7 240.0, 279.5 240.0 Q 277.6 240.0, 276.5 239.1 Q 275.4 238.2, 275.4 236.7 Q 275.4 235.8, 275.9 235.1 Q 276.4 234.4, 277.4 233.9 Q 276.6 233.5, 276.2 232.9 Q 275.8 232.2, 275.8 231.3 Q 275.8 229.9, 276.8 229.2 Q 277.8 228.4, 279.4 228.4 Q 281.1 228.4, 282.0 229.2 Q 283.0 229.9, 283.0 231.3 Q 283.0 232.1, 282.5 232.7 Q 282.1 233.3, 281.2 233.8 M 279.4 229.6 Q 278.5 229.6, 277.9 230.0 Q 277.4 230.5, 277.4 231.3 Q 277.4 231.9, 277.8 232.3 Q 278.1 232.6, 278.6 232.9 Q 279.1 233.1, 280.1 233.4 Q 280.8 233.0, 281.1 232.4 Q 281.4 231.9, 281.4 231.3 Q 281.4 230.5, 280.9 230.0 Q 280.4 229.6, 279.4 229.6 M 279.5 238.8 Q 280.5 238.8, 281.2 238.2 Q 281.8 237.7, 281.8 236.7 Q 281.8 236.1, 281.5 235.7 Q 281.1 235.3, 280.6 235.1 Q 280.1 234.9, 279.2 234.6 L 278.5 234.4 Q 277.7 234.8, 277.4 235.4 Q 277.0 236.0, 277.0 236.7 Q 277.0 237.7, 277.7 238.2 Q 278.4 238.8, 279.5 238.8 " fill="#000000"/>
</svg>