<svg xmlns="http://www.w3.org/2000/svg" xmlns:rdkit="http://www.rdkit.org/xml" xmlns:xlink="http://www.w3.org/1999/xlink" version="1.1" baseProfile="full" xml:space="preserve" width="262px" height="122px" viewBox="0 0 262 122">
<!-- END OF HEADER -->
<rect style="opacity:1.0;fill:#FFFFFF;stroke:none" width="262.0" height="122.0" x="0.0" y="0.0"> </rect>
<path class="bond-0 atom-0 atom-1" d="M 23.2,89.4 L 52.5,87.2 L 53.1,95.4 L 23.8,97.6 Z" style="fill:#FAFAFF;fill-rule:evenodd;fill-opacity:1;stroke:#FAFAFF;stroke-width:2.0px;stroke-linecap:butt;stroke-linejoin:miter;stroke-miterlimit:10;stroke-opacity:1;"/>
<path class="bond-3 atom-3 atom-4" d="M 49.4,44.7 L 20.1,46.8 L 19.5,38.6 L 48.8,36.5 Z" style="fill:#FAFAFF;fill-rule:evenodd;fill-opacity:1;stroke:#FAFAFF;stroke-width:2.0px;stroke-linecap:butt;stroke-linejoin:miter;stroke-miterlimit:10;stroke-opacity:1;"/>
<path class="bond-5 atom-5 atom-6" d="M 98.3,60.4 L 114.8,84.7 L 108.0,89.4 L 91.5,65.0 Z" style="fill:#FFECEC;fill-rule:evenodd;fill-opacity:1;stroke:#FFECEC;stroke-width:2.0px;stroke-linecap:butt;stroke-linejoin:miter;stroke-miterlimit:10;stroke-opacity:1;"/>
<path class="bond-6 atom-5 atom-7" d="M 91.2,60.9 L 104.0,34.5 L 111.4,38.1 L 98.6,64.5 Z" style="fill:#FFECEC;fill-rule:evenodd;fill-opacity:1;stroke:#FFECEC;stroke-width:2.0px;stroke-linecap:butt;stroke-linejoin:miter;stroke-miterlimit:10;stroke-opacity:1;"/>
<path class="bond-7 atom-7 atom-8" d="M 104.3,38.6 L 87.8,14.3 L 94.6,9.7 L 111.1,34.0 Z" style="fill:#FFECEC;fill-rule:evenodd;fill-opacity:1;stroke:#FFECEC;stroke-width:2.0px;stroke-linecap:butt;stroke-linejoin:miter;stroke-miterlimit:10;stroke-opacity:1;"/>
<path class="bond-10 atom-10 atom-11" d="M 157.2,60.3 L 144.4,86.7 L 137.0,83.1 L 149.8,56.7 Z" style="fill:#6A6AFF;fill-rule:evenodd;fill-opacity:1;stroke:#6A6AFF;stroke-width:2.0px;stroke-linecap:butt;stroke-linejoin:miter;stroke-miterlimit:10;stroke-opacity:1;"/>
<path class="bond-11 atom-11 atom-12" d="M 144.1,82.6 L 160.6,106.9 L 153.8,111.5 L 137.3,87.2 Z" style="fill:#6A6AFF;fill-rule:evenodd;fill-opacity:1;stroke:#6A6AFF;stroke-width:2.0px;stroke-linecap:butt;stroke-linejoin:miter;stroke-miterlimit:10;stroke-opacity:1;"/>
<path class="bond-12 atom-12 atom-13" d="M 156.9,105.1 L 186.2,103.0 L 186.8,111.2 L 157.5,113.3 Z" style="fill:#6A6AFF;fill-rule:evenodd;fill-opacity:1;stroke:#6A6AFF;stroke-width:2.0px;stroke-linecap:butt;stroke-linejoin:miter;stroke-miterlimit:10;stroke-opacity:1;"/>
<path class="bond-13 atom-13 atom-14" d="M 182.8,105.3 L 195.6,78.8 L 203.0,82.4 L 190.2,108.9 Z" style="fill:#6A6AFF;fill-rule:evenodd;fill-opacity:1;stroke:#6A6AFF;stroke-width:2.0px;stroke-linecap:butt;stroke-linejoin:miter;stroke-miterlimit:10;stroke-opacity:1;"/>
<path class="bond-14 atom-14 atom-15" d="M 199.0,76.5 L 228.3,74.4 L 228.9,82.6 L 199.6,84.7 Z" style="fill:#6A6AFF;fill-rule:evenodd;fill-opacity:1;stroke:#6A6AFF;stroke-width:2.0px;stroke-linecap:butt;stroke-linejoin:miter;stroke-miterlimit:10;stroke-opacity:1;"/>
<path class="bond-15 atom-15 atom-16" d="M 224.9,76.7 L 237.7,50.3 L 245.1,53.8 L 232.3,80.3 Z" style="fill:#6A6AFF;fill-rule:evenodd;fill-opacity:1;stroke:#6A6AFF;stroke-width:2.0px;stroke-linecap:butt;stroke-linejoin:miter;stroke-miterlimit:10;stroke-opacity:1;"/>
<path class="bond-16 atom-16 atom-17" d="M 238.0,54.4 L 221.5,30.0 L 228.3,25.4 L 244.8,49.7 Z" style="fill:#6A6AFF;fill-rule:evenodd;fill-opacity:1;stroke:#6A6AFF;stroke-width:2.0px;stroke-linecap:butt;stroke-linejoin:miter;stroke-miterlimit:10;stroke-opacity:1;"/>
<path class="bond-17 atom-17 atom-18" d="M 225.2,31.8 L 195.9,34.0 L 195.3,25.8 L 224.6,23.6 Z" style="fill:#6A6AFF;fill-rule:evenodd;fill-opacity:1;stroke:#6A6AFF;stroke-width:2.0px;stroke-linecap:butt;stroke-linejoin:miter;stroke-miterlimit:10;stroke-opacity:1;"/>
<path class="bond-18 atom-18 atom-19" d="M 199.3,31.7 L 186.5,58.1 L 179.1,54.5 L 191.9,28.1 Z" style="fill:#6A6AFF;fill-rule:evenodd;fill-opacity:1;stroke:#6A6AFF;stroke-width:2.0px;stroke-linecap:butt;stroke-linejoin:miter;stroke-miterlimit:10;stroke-opacity:1;"/>
<path class="bond-19 atom-19 atom-10" d="M 183.1,60.4 L 153.8,62.6 L 153.2,54.4 L 182.5,52.2 Z" style="fill:#6A6AFF;fill-rule:evenodd;fill-opacity:1;stroke:#6A6AFF;stroke-width:2.0px;stroke-linecap:butt;stroke-linejoin:miter;stroke-miterlimit:10;stroke-opacity:1;"/>
<path class="bond-20 atom-19 atom-14" d="M 186.2,54.0 L 202.7,78.3 L 195.9,82.9 L 179.4,58.6 Z" style="fill:#6A6AFF;fill-rule:evenodd;fill-opacity:1;stroke:#6A6AFF;stroke-width:2.0px;stroke-linecap:butt;stroke-linejoin:miter;stroke-miterlimit:10;stroke-opacity:1;"/>
<ellipse cx="23.5" cy="93.5" rx="5.9" ry="5.9" class="atom-0" style="fill:#FAFAFF;fill-rule:evenodd;stroke:#FAFAFF;stroke-width:1.0px;stroke-linecap:butt;stroke-linejoin:miter;stroke-opacity:1"/>
<ellipse cx="52.8" cy="91.3" rx="5.9" ry="5.9" class="atom-1" style="fill:#FAFAFF;fill-rule:evenodd;stroke:#FAFAFF;stroke-width:1.0px;stroke-linecap:butt;stroke-linejoin:miter;stroke-opacity:1"/>
<ellipse cx="65.6" cy="64.9" rx="5.9" ry="5.9" class="atom-2" style="fill:#F8F8FF;fill-rule:evenodd;stroke:#F8F8FF;stroke-width:1.0px;stroke-linecap:butt;stroke-linejoin:miter;stroke-opacity:1"/>
<ellipse cx="49.1" cy="40.6" rx="5.9" ry="5.9" class="atom-3" style="fill:#FAFAFF;fill-rule:evenodd;stroke:#FAFAFF;stroke-width:1.0px;stroke-linecap:butt;stroke-linejoin:miter;stroke-opacity:1"/>
<ellipse cx="19.8" cy="42.7" rx="5.9" ry="5.9" class="atom-4" style="fill:#FAFAFF;fill-rule:evenodd;stroke:#FAFAFF;stroke-width:1.0px;stroke-linecap:butt;stroke-linejoin:miter;stroke-opacity:1"/>
<ellipse cx="94.9" cy="62.7" rx="5.9" ry="5.9" class="atom-5" style="fill:#FFECEC;fill-rule:evenodd;stroke:#FFECEC;stroke-width:1.0px;stroke-linecap:butt;stroke-linejoin:miter;stroke-opacity:1"/>
<ellipse cx="111.4" cy="87.1" rx="5.9" ry="5.9" class="atom-6" style="fill:#FFECEC;fill-rule:evenodd;stroke:#FFECEC;stroke-width:1.0px;stroke-linecap:butt;stroke-linejoin:miter;stroke-opacity:1"/>
<ellipse cx="107.7" cy="36.3" rx="5.9" ry="5.9" class="atom-7" style="fill:#FFECEC;fill-rule:evenodd;stroke:#FFECEC;stroke-width:1.0px;stroke-linecap:butt;stroke-linejoin:miter;stroke-opacity:1"/>
<ellipse cx="91.2" cy="12.0" rx="5.9" ry="5.9" class="atom-8" style="fill:#FFECEC;fill-rule:evenodd;stroke:#FFECEC;stroke-width:1.0px;stroke-linecap:butt;stroke-linejoin:miter;stroke-opacity:1"/>
<ellipse cx="137.0" cy="34.1" rx="5.9" ry="5.9" class="atom-9" style="fill:#FFF6F6;fill-rule:evenodd;stroke:#FFF6F6;stroke-width:1.0px;stroke-linecap:butt;stroke-linejoin:miter;stroke-opacity:1"/>
<ellipse cx="153.5" cy="58.5" rx="5.9" ry="5.9" class="atom-10" style="fill:#6A6AFF;fill-rule:evenodd;stroke:#6A6AFF;stroke-width:1.0px;stroke-linecap:butt;stroke-linejoin:miter;stroke-opacity:1"/>
<ellipse cx="140.7" cy="84.9" rx="5.9" ry="5.9" class="atom-11" style="fill:#6A6AFF;fill-rule:evenodd;stroke:#6A6AFF;stroke-width:1.0px;stroke-linecap:butt;stroke-linejoin:miter;stroke-opacity:1"/>
<ellipse cx="157.2" cy="109.2" rx="5.9" ry="5.9" class="atom-12" style="fill:#6A6AFF;fill-rule:evenodd;stroke:#6A6AFF;stroke-width:1.0px;stroke-linecap:butt;stroke-linejoin:miter;stroke-opacity:1"/>
<ellipse cx="186.5" cy="107.1" rx="5.9" ry="5.9" class="atom-13" style="fill:#6A6AFF;fill-rule:evenodd;stroke:#6A6AFF;stroke-width:1.0px;stroke-linecap:butt;stroke-linejoin:miter;stroke-opacity:1"/>
<ellipse cx="199.3" cy="80.6" rx="5.9" ry="5.9" class="atom-14" style="fill:#6A6AFF;fill-rule:evenodd;stroke:#6A6AFF;stroke-width:1.0px;stroke-linecap:butt;stroke-linejoin:miter;stroke-opacity:1"/>
<ellipse cx="228.6" cy="78.5" rx="5.9" ry="5.9" class="atom-15" style="fill:#6A6AFF;fill-rule:evenodd;stroke:#6A6AFF;stroke-width:1.0px;stroke-linecap:butt;stroke-linejoin:miter;stroke-opacity:1"/>
<ellipse cx="241.4" cy="52.0" rx="5.9" ry="5.9" class="atom-16" style="fill:#6A6AFF;fill-rule:evenodd;stroke:#6A6AFF;stroke-width:1.0px;stroke-linecap:butt;stroke-linejoin:miter;stroke-opacity:1"/>
<ellipse cx="224.9" cy="27.7" rx="5.9" ry="5.9" class="atom-17" style="fill:#6A6AFF;fill-rule:evenodd;stroke:#6A6AFF;stroke-width:1.0px;stroke-linecap:butt;stroke-linejoin:miter;stroke-opacity:1"/>
<ellipse cx="195.6" cy="29.9" rx="5.9" ry="5.9" class="atom-18" style="fill:#6A6AFF;fill-rule:evenodd;stroke:#6A6AFF;stroke-width:1.0px;stroke-linecap:butt;stroke-linejoin:miter;stroke-opacity:1"/>
<ellipse cx="182.8" cy="56.3" rx="5.9" ry="5.9" class="atom-19" style="fill:#6A6AFF;fill-rule:evenodd;stroke:#6A6AFF;stroke-width:1.0px;stroke-linecap:butt;stroke-linejoin:miter;stroke-opacity:1"/>
<path class="bond-0 atom-0 atom-1" d="M 23.5,93.5 L 52.8,91.3" style="fill:none;fill-rule:evenodd;stroke:#000000;stroke-width:2.0px;stroke-linecap:butt;stroke-linejoin:miter;stroke-opacity:1"/>
<path class="bond-1 atom-1 atom-2" d="M 52.8,91.3 L 63.1,70.0" style="fill:none;fill-rule:evenodd;stroke:#000000;stroke-width:2.0px;stroke-linecap:butt;stroke-linejoin:miter;stroke-opacity:1"/>
<path class="bond-2 atom-2 atom-3" d="M 62.1,59.7 L 49.1,40.6" style="fill:none;fill-rule:evenodd;stroke:#000000;stroke-width:2.0px;stroke-linecap:butt;stroke-linejoin:miter;stroke-opacity:1"/>
<path class="bond-3 atom-3 atom-4" d="M 49.1,40.6 L 19.8,42.7" style="fill:none;fill-rule:evenodd;stroke:#000000;stroke-width:2.0px;stroke-linecap:butt;stroke-linejoin:miter;stroke-opacity:1"/>
<path class="bond-4 atom-2 atom-5" d="M 69.7,64.6 L 94.9,62.7" style="fill:none;fill-rule:evenodd;stroke:#000000;stroke-width:2.0px;stroke-linecap:butt;stroke-linejoin:miter;stroke-opacity:1"/>
<path class="bond-5 atom-5 atom-6" d="M 92.4,62.9 L 106.1,83.1" style="fill:none;fill-rule:evenodd;stroke:#000000;stroke-width:2.0px;stroke-linecap:butt;stroke-linejoin:miter;stroke-opacity:1"/>
<path class="bond-5 atom-5 atom-6" d="M 96.0,60.4 L 109.7,80.6" style="fill:none;fill-rule:evenodd;stroke:#000000;stroke-width:2.0px;stroke-linecap:butt;stroke-linejoin:miter;stroke-opacity:1"/>
<path class="bond-6 atom-5 atom-7" d="M 94.9,62.7 L 107.7,36.3" style="fill:none;fill-rule:evenodd;stroke:#000000;stroke-width:2.0px;stroke-linecap:butt;stroke-linejoin:miter;stroke-opacity:1"/>
<path class="bond-7 atom-7 atom-8" d="M 107.7,36.3 L 91.2,12.0" style="fill:none;fill-rule:evenodd;stroke:#000000;stroke-width:2.0px;stroke-linecap:butt;stroke-linejoin:miter;stroke-opacity:1"/>
<path class="bond-8 atom-7 atom-9" d="M 107.7,36.3 L 132.2,34.5" style="fill:none;fill-rule:evenodd;stroke:#000000;stroke-width:2.0px;stroke-linecap:butt;stroke-linejoin:miter;stroke-opacity:1"/>
<path class="bond-9 atom-9 atom-10" d="M 140.6,39.5 L 153.5,58.5" style="fill:none;fill-rule:evenodd;stroke:#000000;stroke-width:2.0px;stroke-linecap:butt;stroke-linejoin:miter;stroke-opacity:1"/>
<path class="bond-10 atom-10 atom-11" d="M 153.5,58.5 L 140.7,84.9" style="fill:none;fill-rule:evenodd;stroke:#000000;stroke-width:2.0px;stroke-linecap:butt;stroke-linejoin:miter;stroke-opacity:1"/>
<path class="bond-10 atom-10 atom-11" d="M 156.4,62.7 L 145.8,84.5" style="fill:none;fill-rule:evenodd;stroke:#000000;stroke-width:2.0px;stroke-linecap:butt;stroke-linejoin:miter;stroke-opacity:1"/>
<path class="bond-11 atom-11 atom-12" d="M 140.7,84.9 L 157.2,109.2" style="fill:none;fill-rule:evenodd;stroke:#000000;stroke-width:2.0px;stroke-linecap:butt;stroke-linejoin:miter;stroke-opacity:1"/>
<path class="bond-12 atom-12 atom-13" d="M 157.2,109.2 L 186.5,107.1" style="fill:none;fill-rule:evenodd;stroke:#000000;stroke-width:2.0px;stroke-linecap:butt;stroke-linejoin:miter;stroke-opacity:1"/>
<path class="bond-12 atom-12 atom-13" d="M 159.4,104.6 L 183.7,102.9" style="fill:none;fill-rule:evenodd;stroke:#000000;stroke-width:2.0px;stroke-linecap:butt;stroke-linejoin:miter;stroke-opacity:1"/>
<path class="bond-13 atom-13 atom-14" d="M 186.5,107.1 L 199.3,80.6" style="fill:none;fill-rule:evenodd;stroke:#000000;stroke-width:2.0px;stroke-linecap:butt;stroke-linejoin:miter;stroke-opacity:1"/>
<path class="bond-14 atom-14 atom-15" d="M 199.3,80.6 L 228.6,78.5" style="fill:none;fill-rule:evenodd;stroke:#000000;stroke-width:2.0px;stroke-linecap:butt;stroke-linejoin:miter;stroke-opacity:1"/>
<path class="bond-14 atom-14 atom-15" d="M 201.5,76.1 L 225.8,74.3" style="fill:none;fill-rule:evenodd;stroke:#000000;stroke-width:2.0px;stroke-linecap:butt;stroke-linejoin:miter;stroke-opacity:1"/>
<path class="bond-15 atom-15 atom-16" d="M 228.6,78.5 L 241.4,52.0" style="fill:none;fill-rule:evenodd;stroke:#000000;stroke-width:2.0px;stroke-linecap:butt;stroke-linejoin:miter;stroke-opacity:1"/>
<path class="bond-16 atom-16 atom-17" d="M 241.4,52.0 L 224.9,27.7" style="fill:none;fill-rule:evenodd;stroke:#000000;stroke-width:2.0px;stroke-linecap:butt;stroke-linejoin:miter;stroke-opacity:1"/>
<path class="bond-16 atom-16 atom-17" d="M 236.4,52.4 L 222.7,32.3" style="fill:none;fill-rule:evenodd;stroke:#000000;stroke-width:2.0px;stroke-linecap:butt;stroke-linejoin:miter;stroke-opacity:1"/>
<path class="bond-17 atom-17 atom-18" d="M 224.9,27.7 L 195.6,29.9" style="fill:none;fill-rule:evenodd;stroke:#000000;stroke-width:2.0px;stroke-linecap:butt;stroke-linejoin:miter;stroke-opacity:1"/>
<path class="bond-18 atom-18 atom-19" d="M 195.6,29.9 L 182.8,56.3" style="fill:none;fill-rule:evenodd;stroke:#000000;stroke-width:2.0px;stroke-linecap:butt;stroke-linejoin:miter;stroke-opacity:1"/>
<path class="bond-18 atom-18 atom-19" d="M 198.5,34.1 L 187.9,56.0" style="fill:none;fill-rule:evenodd;stroke:#000000;stroke-width:2.0px;stroke-linecap:butt;stroke-linejoin:miter;stroke-opacity:1"/>
<path class="bond-19 atom-19 atom-10" d="M 182.8,56.3 L 153.5,58.5" style="fill:none;fill-rule:evenodd;stroke:#000000;stroke-width:2.0px;stroke-linecap:butt;stroke-linejoin:miter;stroke-opacity:1"/>
<path class="bond-20 atom-19 atom-14" d="M 182.8,56.3 L 199.3,80.6" style="fill:none;fill-rule:evenodd;stroke:#000000;stroke-width:2.0px;stroke-linecap:butt;stroke-linejoin:miter;stroke-opacity:1"/>
<path d="M 51.3,91.4 L 52.8,91.3 L 53.3,90.3" style="fill:none;stroke:#000000;stroke-width:2.0px;stroke-linecap:butt;stroke-linejoin:miter;stroke-miterlimit:10;stroke-opacity:1;"/>
<path d="M 49.7,41.5 L 49.1,40.6 L 47.6,40.7" style="fill:none;stroke:#000000;stroke-width:2.0px;stroke-linecap:butt;stroke-linejoin:miter;stroke-miterlimit:10;stroke-opacity:1;"/>
<path d="M 93.6,62.8 L 94.9,62.7 L 95.5,61.4" style="fill:none;stroke:#000000;stroke-width:2.0px;stroke-linecap:butt;stroke-linejoin:miter;stroke-miterlimit:10;stroke-opacity:1;"/>
<path d="M 141.3,83.6 L 140.7,84.9 L 141.5,86.1" style="fill:none;stroke:#000000;stroke-width:2.0px;stroke-linecap:butt;stroke-linejoin:miter;stroke-miterlimit:10;stroke-opacity:1;"/>
<path d="M 156.4,108.0 L 157.2,109.2 L 158.7,109.1" style="fill:none;stroke:#000000;stroke-width:2.0px;stroke-linecap:butt;stroke-linejoin:miter;stroke-miterlimit:10;stroke-opacity:1;"/>
<path d="M 185.1,107.2 L 186.5,107.1 L 187.2,105.8" style="fill:none;stroke:#000000;stroke-width:2.0px;stroke-linecap:butt;stroke-linejoin:miter;stroke-miterlimit:10;stroke-opacity:1;"/>
<path d="M 227.2,78.6 L 228.6,78.5 L 229.3,77.2" style="fill:none;stroke:#000000;stroke-width:2.0px;stroke-linecap:butt;stroke-linejoin:miter;stroke-miterlimit:10;stroke-opacity:1;"/>
<path d="M 240.8,53.4 L 241.4,52.0 L 240.6,50.8" style="fill:none;stroke:#000000;stroke-width:2.0px;stroke-linecap:butt;stroke-linejoin:miter;stroke-miterlimit:10;stroke-opacity:1;"/>
<path d="M 225.7,28.9 L 224.9,27.7 L 223.5,27.8" style="fill:none;stroke:#000000;stroke-width:2.0px;stroke-linecap:butt;stroke-linejoin:miter;stroke-miterlimit:10;stroke-opacity:1;"/>
<path d="M 197.1,29.8 L 195.6,29.9 L 195.0,31.2" style="fill:none;stroke:#000000;stroke-width:2.0px;stroke-linecap:butt;stroke-linejoin:miter;stroke-miterlimit:10;stroke-opacity:1;"/>
<path class="atom-2" d="M 63.7 60.7 L 66.5 65.1 Q 66.7 65.6, 67.2 66.3 Q 67.6 67.1, 67.6 67.2 L 67.6 60.7 L 68.7 60.7 L 68.7 69.0 L 67.6 69.0 L 64.7 64.2 Q 64.3 63.7, 64.0 63.0 Q 63.6 62.4, 63.5 62.2 L 63.5 69.0 L 62.4 69.0 L 62.4 60.7 L 63.7 60.7 " fill="#000000"/>
<path class="atom-6" d="M 107.6 87.1 Q 107.6 85.1, 108.6 84.0 Q 109.6 82.8, 111.4 82.8 Q 113.2 82.8, 114.2 84.0 Q 115.2 85.1, 115.2 87.1 Q 115.2 89.1, 114.2 90.2 Q 113.2 91.4, 111.4 91.4 Q 109.6 91.4, 108.6 90.2 Q 107.6 89.1, 107.6 87.1 M 111.4 90.4 Q 112.7 90.4, 113.3 89.6 Q 114.0 88.7, 114.0 87.1 Q 114.0 85.4, 113.3 84.6 Q 112.7 83.8, 111.4 83.8 Q 110.1 83.8, 109.4 84.6 Q 108.8 85.4, 108.8 87.1 Q 108.8 88.8, 109.4 89.6 Q 110.1 90.4, 111.4 90.4 " fill="#000000"/>
<path class="atom-9" d="M 133.2 34.2 Q 133.2 32.2, 134.2 31.1 Q 135.2 29.9, 137.0 29.9 Q 138.8 29.9, 139.8 31.1 Q 140.8 32.2, 140.8 34.2 Q 140.8 36.2, 139.8 37.3 Q 138.8 38.5, 137.0 38.5 Q 135.2 38.5, 134.2 37.3 Q 133.2 36.2, 133.2 34.2 M 137.0 37.5 Q 138.3 37.5, 139.0 36.7 Q 139.6 35.8, 139.6 34.2 Q 139.6 32.5, 139.0 31.7 Q 138.3 30.9, 137.0 30.9 Q 135.7 30.9, 135.0 31.7 Q 134.4 32.5, 134.4 34.2 Q 134.4 35.9, 135.0 36.7 Q 135.7 37.5, 137.0 37.5 " fill="#000000"/>
</svg>