<svg xmlns="http://www.w3.org/2000/svg" xmlns:rdkit="http://www.rdkit.org/xml" xmlns:xlink="http://www.w3.org/1999/xlink" version="1.1" baseProfile="full" xml:space="preserve" width="241px" height="111px" viewBox="0 0 241 111">
<!-- END OF HEADER -->
<rect style="opacity:1.0;fill:#FFFFFF;stroke:none" width="241.0" height="111.0" x="0.0" y="0.0"> </rect>
<path class="bond-0 atom-0 atom-1" d="M 20.9,51.2 L 46.2,65.9 L 42.1,73.0 L 16.8,58.3 Z" style="fill:#FEFEFF;fill-rule:evenodd;fill-opacity:1;stroke:#FEFEFF;stroke-width:2.0px;stroke-linecap:butt;stroke-linejoin:miter;stroke-miterlimit:10;stroke-opacity:1;"/>
<path class="bond-1 atom-1 atom-2" d="M 48.2,69.5 L 48.1,98.7 L 39.9,98.7 L 40.0,69.5 Z" style="fill:#FEFEFF;fill-rule:evenodd;fill-opacity:1;stroke:#FEFEFF;stroke-width:2.0px;stroke-linecap:butt;stroke-linejoin:miter;stroke-miterlimit:10;stroke-opacity:1;"/>
<path class="bond-3 atom-3 atom-4" d="M 65.4,54.9 L 65.5,25.7 L 73.7,25.7 L 73.6,55.0 Z" style="fill:#FFD8D8;fill-rule:evenodd;fill-opacity:1;stroke:#FFD8D8;stroke-width:2.0px;stroke-linecap:butt;stroke-linejoin:miter;stroke-miterlimit:10;stroke-opacity:1;"/>
<path class="bond-6 atom-6 atom-7" d="M 116.0,55.1 L 116.1,25.9 L 124.3,25.9 L 124.2,55.2 Z" style="fill:#9090FF;fill-rule:evenodd;fill-opacity:1;stroke:#9090FF;stroke-width:2.0px;stroke-linecap:butt;stroke-linejoin:miter;stroke-miterlimit:10;stroke-opacity:1;"/>
<path class="bond-7 atom-7 atom-8" d="M 118.2,22.4 L 143.5,7.8 L 147.6,14.9 L 122.2,29.5 Z" style="fill:#9090FF;fill-rule:evenodd;fill-opacity:1;stroke:#9090FF;stroke-width:2.0px;stroke-linecap:butt;stroke-linejoin:miter;stroke-miterlimit:10;stroke-opacity:1;"/>
<path class="bond-8 atom-8 atom-9" d="M 147.6,7.9 L 172.9,22.6 L 168.8,29.6 L 143.5,14.9 Z" style="fill:#9090FF;fill-rule:evenodd;fill-opacity:1;stroke:#9090FF;stroke-width:2.0px;stroke-linecap:butt;stroke-linejoin:miter;stroke-miterlimit:10;stroke-opacity:1;"/>
<path class="bond-9 atom-9 atom-10" d="M 174.9,26.1 L 174.8,55.3 L 166.6,55.3 L 166.7,26.1 Z" style="fill:#9090FF;fill-rule:evenodd;fill-opacity:1;stroke:#9090FF;stroke-width:2.0px;stroke-linecap:butt;stroke-linejoin:miter;stroke-miterlimit:10;stroke-opacity:1;"/>
<path class="bond-11 atom-11 atom-12" d="M 198.0,66.5 L 223.3,81.2 L 219.2,88.3 L 193.9,73.6 Z" style="fill:#D6D6FF;fill-rule:evenodd;fill-opacity:1;stroke:#D6D6FF;stroke-width:2.0px;stroke-linecap:butt;stroke-linejoin:miter;stroke-miterlimit:10;stroke-opacity:1;"/>
<path class="bond-12 atom-11 atom-13" d="M 199.5,72.1 L 184.8,97.3 L 177.7,93.2 L 192.4,68.0 Z" style="fill:#D6D6FF;fill-rule:evenodd;fill-opacity:1;stroke:#D6D6FF;stroke-width:2.0px;stroke-linecap:butt;stroke-linejoin:miter;stroke-miterlimit:10;stroke-opacity:1;"/>
<path class="bond-13 atom-11 atom-14" d="M 192.4,68.0 L 207.1,42.7 L 214.2,46.8 L 199.5,72.1 Z" style="fill:#D6D6FF;fill-rule:evenodd;fill-opacity:1;stroke:#D6D6FF;stroke-width:2.0px;stroke-linecap:butt;stroke-linejoin:miter;stroke-miterlimit:10;stroke-opacity:1;"/>
<path class="bond-14 atom-10 atom-15" d="M 172.8,58.9 L 147.4,73.4 L 143.3,66.3 L 168.7,51.8 Z" style="fill:#9090FF;fill-rule:evenodd;fill-opacity:1;stroke:#9090FF;stroke-width:2.0px;stroke-linecap:butt;stroke-linejoin:miter;stroke-miterlimit:10;stroke-opacity:1;"/>
<path class="bond-15 atom-15 atom-6" d="M 143.3,73.4 L 118.0,58.7 L 122.2,51.6 L 147.4,66.3 Z" style="fill:#9090FF;fill-rule:evenodd;fill-opacity:1;stroke:#9090FF;stroke-width:2.0px;stroke-linecap:butt;stroke-linejoin:miter;stroke-miterlimit:10;stroke-opacity:1;"/>
<ellipse cx="18.9" cy="54.8" rx="5.8" ry="5.8" class="atom-0" style="fill:#FEFEFF;fill-rule:evenodd;stroke:#FEFEFF;stroke-width:1.0px;stroke-linecap:butt;stroke-linejoin:miter;stroke-opacity:1"/>
<ellipse cx="44.1" cy="69.5" rx="5.8" ry="5.8" class="atom-1" style="fill:#FEFEFF;fill-rule:evenodd;stroke:#FEFEFF;stroke-width:1.0px;stroke-linecap:butt;stroke-linejoin:miter;stroke-opacity:1"/>
<ellipse cx="44.0" cy="98.7" rx="5.8" ry="5.8" class="atom-2" style="fill:#FEFEFF;fill-rule:evenodd;stroke:#FEFEFF;stroke-width:1.0px;stroke-linecap:butt;stroke-linejoin:miter;stroke-opacity:1"/>
<ellipse cx="69.5" cy="55.0" rx="5.8" ry="5.8" class="atom-3" style="fill:#FFD8D8;fill-rule:evenodd;stroke:#FFD8D8;stroke-width:1.0px;stroke-linecap:butt;stroke-linejoin:miter;stroke-opacity:1"/>
<ellipse cx="69.6" cy="25.7" rx="5.8" ry="5.8" class="atom-4" style="fill:#FFD8D8;fill-rule:evenodd;stroke:#FFD8D8;stroke-width:1.0px;stroke-linecap:butt;stroke-linejoin:miter;stroke-opacity:1"/>
<ellipse cx="94.7" cy="69.7" rx="5.8" ry="5.8" class="atom-5" style="fill:#FFFCFC;fill-rule:evenodd;stroke:#FFFCFC;stroke-width:1.0px;stroke-linecap:butt;stroke-linejoin:miter;stroke-opacity:1"/>
<ellipse cx="120.1" cy="55.1" rx="5.8" ry="5.8" class="atom-6" style="fill:#9090FF;fill-rule:evenodd;stroke:#9090FF;stroke-width:1.0px;stroke-linecap:butt;stroke-linejoin:miter;stroke-opacity:1"/>
<ellipse cx="120.2" cy="25.9" rx="5.8" ry="5.8" class="atom-7" style="fill:#9090FF;fill-rule:evenodd;stroke:#9090FF;stroke-width:1.0px;stroke-linecap:butt;stroke-linejoin:miter;stroke-opacity:1"/>
<ellipse cx="145.6" cy="11.4" rx="5.8" ry="5.8" class="atom-8" style="fill:#9090FF;fill-rule:evenodd;stroke:#9090FF;stroke-width:1.0px;stroke-linecap:butt;stroke-linejoin:miter;stroke-opacity:1"/>
<ellipse cx="170.8" cy="26.1" rx="5.8" ry="5.8" class="atom-9" style="fill:#9090FF;fill-rule:evenodd;stroke:#9090FF;stroke-width:1.0px;stroke-linecap:butt;stroke-linejoin:miter;stroke-opacity:1"/>
<ellipse cx="170.7" cy="55.3" rx="5.8" ry="5.8" class="atom-10" style="fill:#9090FF;fill-rule:evenodd;stroke:#9090FF;stroke-width:1.0px;stroke-linecap:butt;stroke-linejoin:miter;stroke-opacity:1"/>
<ellipse cx="196.0" cy="70.0" rx="5.8" ry="5.8" class="atom-11" style="fill:#D6D6FF;fill-rule:evenodd;stroke:#D6D6FF;stroke-width:1.0px;stroke-linecap:butt;stroke-linejoin:miter;stroke-opacity:1"/>
<ellipse cx="221.2" cy="84.7" rx="5.8" ry="5.8" class="atom-12" style="fill:#D6D6FF;fill-rule:evenodd;stroke:#D6D6FF;stroke-width:1.0px;stroke-linecap:butt;stroke-linejoin:miter;stroke-opacity:1"/>
<ellipse cx="181.3" cy="95.3" rx="5.8" ry="5.8" class="atom-13" style="fill:#D6D6FF;fill-rule:evenodd;stroke:#D6D6FF;stroke-width:1.0px;stroke-linecap:butt;stroke-linejoin:miter;stroke-opacity:1"/>
<ellipse cx="210.7" cy="44.8" rx="5.8" ry="5.8" class="atom-14" style="fill:#D6D6FF;fill-rule:evenodd;stroke:#D6D6FF;stroke-width:1.0px;stroke-linecap:butt;stroke-linejoin:miter;stroke-opacity:1"/>
<ellipse cx="145.4" cy="69.8" rx="5.8" ry="5.8" class="atom-15" style="fill:#9090FF;fill-rule:evenodd;stroke:#9090FF;stroke-width:1.0px;stroke-linecap:butt;stroke-linejoin:miter;stroke-opacity:1"/>
<path class="bond-0 atom-0 atom-1" d="M 18.9,54.8 L 40.0,67.1" style="fill:none;fill-rule:evenodd;stroke:#000000;stroke-width:2.0px;stroke-linecap:butt;stroke-linejoin:miter;stroke-opacity:1"/>
<path class="bond-1 atom-1 atom-2" d="M 44.1,74.6 L 44.0,98.7" style="fill:none;fill-rule:evenodd;stroke:#000000;stroke-width:2.0px;stroke-linecap:butt;stroke-linejoin:miter;stroke-opacity:1"/>
<path class="bond-2 atom-1 atom-3" d="M 48.2,67.1 L 69.5,55.0" style="fill:none;fill-rule:evenodd;stroke:#000000;stroke-width:2.0px;stroke-linecap:butt;stroke-linejoin:miter;stroke-opacity:1"/>
<path class="bond-3 atom-3 atom-4" d="M 71.7,56.2 L 71.8,31.0" style="fill:none;fill-rule:evenodd;stroke:#000000;stroke-width:2.0px;stroke-linecap:butt;stroke-linejoin:miter;stroke-opacity:1"/>
<path class="bond-3 atom-3 atom-4" d="M 67.3,56.2 L 67.4,31.0" style="fill:none;fill-rule:evenodd;stroke:#000000;stroke-width:2.0px;stroke-linecap:butt;stroke-linejoin:miter;stroke-opacity:1"/>
<path class="bond-4 atom-3 atom-5" d="M 69.5,55.0 L 90.6,67.3" style="fill:none;fill-rule:evenodd;stroke:#000000;stroke-width:2.0px;stroke-linecap:butt;stroke-linejoin:miter;stroke-opacity:1"/>
<path class="bond-5 atom-5 atom-6" d="M 98.8,67.3 L 120.1,55.1" style="fill:none;fill-rule:evenodd;stroke:#000000;stroke-width:2.0px;stroke-linecap:butt;stroke-linejoin:miter;stroke-opacity:1"/>
<path class="bond-6 atom-6 atom-7" d="M 120.1,55.1 L 120.2,25.9" style="fill:none;fill-rule:evenodd;stroke:#000000;stroke-width:2.0px;stroke-linecap:butt;stroke-linejoin:miter;stroke-opacity:1"/>
<path class="bond-6 atom-6 atom-7" d="M 124.5,52.6 L 124.6,28.5" style="fill:none;fill-rule:evenodd;stroke:#000000;stroke-width:2.0px;stroke-linecap:butt;stroke-linejoin:miter;stroke-opacity:1"/>
<path class="bond-7 atom-7 atom-8" d="M 120.2,25.9 L 145.6,11.4" style="fill:none;fill-rule:evenodd;stroke:#000000;stroke-width:2.0px;stroke-linecap:butt;stroke-linejoin:miter;stroke-opacity:1"/>
<path class="bond-8 atom-8 atom-9" d="M 145.6,11.4 L 170.8,26.1" style="fill:none;fill-rule:evenodd;stroke:#000000;stroke-width:2.0px;stroke-linecap:butt;stroke-linejoin:miter;stroke-opacity:1"/>
<path class="bond-8 atom-8 atom-9" d="M 145.6,16.5 L 166.4,28.6" style="fill:none;fill-rule:evenodd;stroke:#000000;stroke-width:2.0px;stroke-linecap:butt;stroke-linejoin:miter;stroke-opacity:1"/>
<path class="bond-9 atom-9 atom-10" d="M 170.8,26.1 L 170.7,55.3" style="fill:none;fill-rule:evenodd;stroke:#000000;stroke-width:2.0px;stroke-linecap:butt;stroke-linejoin:miter;stroke-opacity:1"/>
<path class="bond-10 atom-10 atom-11" d="M 170.7,55.3 L 196.0,70.0" style="fill:none;fill-rule:evenodd;stroke:#000000;stroke-width:2.0px;stroke-linecap:butt;stroke-linejoin:miter;stroke-opacity:1"/>
<path class="bond-11 atom-11 atom-12" d="M 196.0,70.0 L 217.8,82.7" style="fill:none;fill-rule:evenodd;stroke:#000000;stroke-width:2.0px;stroke-linecap:butt;stroke-linejoin:miter;stroke-opacity:1"/>
<path class="bond-12 atom-11 atom-13" d="M 196.0,70.0 L 184.2,90.2" style="fill:none;fill-rule:evenodd;stroke:#000000;stroke-width:2.0px;stroke-linecap:butt;stroke-linejoin:miter;stroke-opacity:1"/>
<path class="bond-13 atom-11 atom-14" d="M 196.0,70.0 L 207.7,49.9" style="fill:none;fill-rule:evenodd;stroke:#000000;stroke-width:2.0px;stroke-linecap:butt;stroke-linejoin:miter;stroke-opacity:1"/>
<path class="bond-14 atom-10 atom-15" d="M 170.7,55.3 L 145.4,69.8" style="fill:none;fill-rule:evenodd;stroke:#000000;stroke-width:2.0px;stroke-linecap:butt;stroke-linejoin:miter;stroke-opacity:1"/>
<path class="bond-14 atom-10 atom-15" d="M 166.3,52.8 L 145.4,64.8" style="fill:none;fill-rule:evenodd;stroke:#000000;stroke-width:2.0px;stroke-linecap:butt;stroke-linejoin:miter;stroke-opacity:1"/>
<path class="bond-15 atom-15 atom-6" d="M 145.4,69.8 L 120.1,55.1" style="fill:none;fill-rule:evenodd;stroke:#000000;stroke-width:2.0px;stroke-linecap:butt;stroke-linejoin:miter;stroke-opacity:1"/>
<path d="M 68.4,55.6 L 69.5,55.0 L 70.5,55.6" style="fill:none;stroke:#000000;stroke-width:2.0px;stroke-linecap:butt;stroke-linejoin:miter;stroke-miterlimit:10;stroke-opacity:1;"/>
<path d="M 120.2,27.4 L 120.2,25.9 L 121.5,25.2" style="fill:none;stroke:#000000;stroke-width:2.0px;stroke-linecap:butt;stroke-linejoin:miter;stroke-miterlimit:10;stroke-opacity:1;"/>
<path d="M 144.3,12.1 L 145.6,11.4 L 146.8,12.1" style="fill:none;stroke:#000000;stroke-width:2.0px;stroke-linecap:butt;stroke-linejoin:miter;stroke-miterlimit:10;stroke-opacity:1;"/>
<path d="M 169.6,25.4 L 170.8,26.1 L 170.8,27.6" style="fill:none;stroke:#000000;stroke-width:2.0px;stroke-linecap:butt;stroke-linejoin:miter;stroke-miterlimit:10;stroke-opacity:1;"/>
<path d="M 146.6,69.1 L 145.4,69.8 L 144.1,69.1" style="fill:none;stroke:#000000;stroke-width:2.0px;stroke-linecap:butt;stroke-linejoin:miter;stroke-miterlimit:10;stroke-opacity:1;"/>
<path class="atom-1" d="M 42.3 65.3 L 45.0 69.7 Q 45.3 70.2, 45.7 70.9 Q 46.1 71.7, 46.2 71.8 L 46.2 65.3 L 47.3 65.3 L 47.3 73.6 L 46.1 73.6 L 43.2 68.8 Q 42.9 68.3, 42.5 67.6 Q 42.2 67.0, 42.1 66.8 L 42.1 73.6 L 41.0 73.6 L 41.0 65.3 L 42.3 65.3 " fill="#000000"/>
<path class="atom-4" d="M 65.8 25.8 Q 65.8 23.8, 66.8 22.7 Q 67.8 21.5, 69.6 21.5 Q 71.4 21.5, 72.4 22.7 Q 73.4 23.8, 73.4 25.8 Q 73.4 27.8, 72.4 28.9 Q 71.4 30.0, 69.6 30.0 Q 67.8 30.0, 66.8 28.9 Q 65.8 27.8, 65.8 25.8 M 69.6 29.1 Q 70.9 29.1, 71.5 28.3 Q 72.2 27.4, 72.2 25.8 Q 72.2 24.1, 71.5 23.3 Q 70.9 22.5, 69.6 22.5 Q 68.3 22.5, 67.6 23.3 Q 67.0 24.1, 67.0 25.8 Q 67.0 27.4, 67.6 28.3 Q 68.3 29.1, 69.6 29.1 " fill="#000000"/>
<path class="atom-5" d="M 92.9 65.5 L 95.6 69.9 Q 95.9 70.3, 96.3 71.1 Q 96.8 71.9, 96.8 72.0 L 96.8 65.5 L 97.9 65.5 L 97.9 73.8 L 96.7 73.8 L 93.8 69.0 Q 93.5 68.4, 93.1 67.8 Q 92.8 67.2, 92.7 67.0 L 92.7 73.8 L 91.6 73.8 L 91.6 65.5 L 92.9 65.5 " fill="#000000"/>
<path class="atom-5" d="M 91.5 74.6 L 92.6 74.6 L 92.6 78.1 L 96.9 78.1 L 96.9 74.6 L 98.0 74.6 L 98.0 82.9 L 96.9 82.9 L 96.9 79.1 L 92.6 79.1 L 92.6 82.9 L 91.5 82.9 L 91.5 74.6 " fill="#000000"/>
<path class="atom-12" d="M 218.8 80.6 L 223.7 80.6 L 223.7 81.5 L 219.9 81.5 L 219.9 84.1 L 223.3 84.1 L 223.3 85.0 L 219.9 85.0 L 219.9 88.9 L 218.8 88.9 L 218.8 80.6 " fill="#000000"/>
<path class="atom-13" d="M 178.8 91.1 L 183.7 91.1 L 183.7 92.1 L 179.9 92.1 L 179.9 94.6 L 183.3 94.6 L 183.3 95.6 L 179.9 95.6 L 179.9 99.4 L 178.8 99.4 L 178.8 91.1 " fill="#000000"/>
<path class="atom-14" d="M 208.2 40.6 L 213.1 40.6 L 213.1 41.6 L 209.3 41.6 L 209.3 44.1 L 212.7 44.1 L 212.7 45.0 L 209.3 45.0 L 209.3 48.9 L 208.2 48.9 L 208.2 40.6 " fill="#000000"/>
</svg>