<svg xmlns="http://www.w3.org/2000/svg" xmlns:rdkit="http://www.rdkit.org/xml" xmlns:xlink="http://www.w3.org/1999/xlink" version="1.1" baseProfile="full" xml:space="preserve" width="208px" height="103px" viewBox="0 0 208 103">
<!-- END OF HEADER -->
<rect style="opacity:1.0;fill:#FFFFFF;stroke:none" width="208.0" height="103.0" x="0.0" y="0.0"> </rect>
<ellipse cx="16.5" cy="53.2" rx="4.7" ry="4.7" class="atom-0" style="fill:#FF7F7F;fill-rule:evenodd;stroke:#FF7F7F;stroke-width:1.0px;stroke-linecap:butt;stroke-linejoin:miter;stroke-opacity:1"/>
<ellipse cx="44.7" cy="45.6" rx="4.7" ry="4.7" class="atom-1" style="fill:#FF7F7F;fill-rule:evenodd;stroke:#FF7F7F;stroke-width:1.0px;stroke-linecap:butt;stroke-linejoin:miter;stroke-opacity:1"/>
<ellipse cx="52.3" cy="17.4" rx="4.7" ry="4.7" class="atom-2" style="fill:#FF7F7F;fill-rule:evenodd;stroke:#FF7F7F;stroke-width:1.0px;stroke-linecap:butt;stroke-linejoin:miter;stroke-opacity:1"/>
<ellipse cx="65.4" cy="66.3" rx="0.5" ry="0.5" class="atom-3" style="fill:#FF7F7F;fill-rule:evenodd;stroke:#FF7F7F;stroke-width:1.0px;stroke-linecap:butt;stroke-linejoin:miter;stroke-opacity:1"/>
<ellipse cx="93.6" cy="58.7" rx="17.8" ry="17.8" class="atom-4" style="fill:#7F7FFF;fill-rule:evenodd;stroke:#7F7FFF;stroke-width:1.0px;stroke-linecap:butt;stroke-linejoin:miter;stroke-opacity:1"/>
<ellipse cx="101.1" cy="30.5" rx="17.8" ry="17.8" class="atom-5" style="fill:#7F7FFF;fill-rule:evenodd;stroke:#7F7FFF;stroke-width:1.0px;stroke-linecap:butt;stroke-linejoin:miter;stroke-opacity:1"/>
<ellipse cx="129.3" cy="22.9" rx="17.8" ry="17.8" class="atom-6" style="fill:#7F7FFF;fill-rule:evenodd;stroke:#7F7FFF;stroke-width:1.0px;stroke-linecap:butt;stroke-linejoin:miter;stroke-opacity:1"/>
<ellipse cx="150.0" cy="43.6" rx="17.8" ry="17.8" class="atom-7" style="fill:#7F7FFF;fill-rule:evenodd;stroke:#7F7FFF;stroke-width:1.0px;stroke-linecap:butt;stroke-linejoin:miter;stroke-opacity:1"/>
<ellipse cx="178.2" cy="36.0" rx="17.8" ry="17.8" class="atom-8" style="fill:#7F7FFF;fill-rule:evenodd;stroke:#7F7FFF;stroke-width:1.0px;stroke-linecap:butt;stroke-linejoin:miter;stroke-opacity:1"/>
<ellipse cx="142.4" cy="71.8" rx="17.8" ry="17.8" class="atom-9" style="fill:#7F7FFF;fill-rule:evenodd;stroke:#7F7FFF;stroke-width:1.0px;stroke-linecap:butt;stroke-linejoin:miter;stroke-opacity:1"/>
<ellipse cx="114.2" cy="79.4" rx="17.8" ry="17.8" class="atom-10" style="fill:#7F7FFF;fill-rule:evenodd;stroke:#7F7FFF;stroke-width:1.0px;stroke-linecap:butt;stroke-linejoin:miter;stroke-opacity:1"/>
<path class="bond-0 atom-0 atom-1" d="M 16.5,53.2 L 44.7,45.6" style="fill:none;fill-rule:evenodd;stroke:#000000;stroke-width:2.0px;stroke-linecap:butt;stroke-linejoin:miter;stroke-opacity:1"/>
<path class="bond-1 atom-1 atom-2" d="M 46.5,47.4 L 53.0,23.3" style="fill:none;fill-rule:evenodd;stroke:#000000;stroke-width:2.0px;stroke-linecap:butt;stroke-linejoin:miter;stroke-opacity:1"/>
<path class="bond-1 atom-1 atom-2" d="M 42.3,46.3 L 48.7,22.1" style="fill:none;fill-rule:evenodd;stroke:#000000;stroke-width:2.0px;stroke-linecap:butt;stroke-linejoin:miter;stroke-opacity:1"/>
<path class="bond-2 atom-1 atom-3" d="M 44.7,45.6 L 61.3,62.2" style="fill:none;fill-rule:evenodd;stroke:#000000;stroke-width:2.0px;stroke-linecap:butt;stroke-linejoin:miter;stroke-opacity:1"/>
<path class="bond-3 atom-3 atom-4" d="M 69.5,65.2 L 93.6,58.7" style="fill:none;fill-rule:evenodd;stroke:#000000;stroke-width:2.0px;stroke-linecap:butt;stroke-linejoin:miter;stroke-opacity:1"/>
<path class="bond-4 atom-4 atom-5" d="M 93.6,58.7 L 101.1,30.5" style="fill:none;fill-rule:evenodd;stroke:#000000;stroke-width:2.0px;stroke-linecap:butt;stroke-linejoin:miter;stroke-opacity:1"/>
<path class="bond-4 atom-4 atom-5" d="M 98.5,57.4 L 104.7,34.1" style="fill:none;fill-rule:evenodd;stroke:#000000;stroke-width:2.0px;stroke-linecap:butt;stroke-linejoin:miter;stroke-opacity:1"/>
<path class="bond-5 atom-5 atom-6" d="M 101.1,30.5 L 129.3,22.9" style="fill:none;fill-rule:evenodd;stroke:#000000;stroke-width:2.0px;stroke-linecap:butt;stroke-linejoin:miter;stroke-opacity:1"/>
<path class="bond-6 atom-6 atom-7" d="M 129.3,22.9 L 150.0,43.6" style="fill:none;fill-rule:evenodd;stroke:#000000;stroke-width:2.0px;stroke-linecap:butt;stroke-linejoin:miter;stroke-opacity:1"/>
<path class="bond-6 atom-6 atom-7" d="M 128.0,27.8 L 145.1,44.9" style="fill:none;fill-rule:evenodd;stroke:#000000;stroke-width:2.0px;stroke-linecap:butt;stroke-linejoin:miter;stroke-opacity:1"/>
<path class="bond-7 atom-7 atom-8" d="M 150.0,43.6 L 174.4,37.0" style="fill:none;fill-rule:evenodd;stroke:#000000;stroke-width:2.0px;stroke-linecap:butt;stroke-linejoin:miter;stroke-opacity:1"/>
<path class="bond-8 atom-7 atom-9" d="M 150.0,43.6 L 142.4,71.8" style="fill:none;fill-rule:evenodd;stroke:#000000;stroke-width:2.0px;stroke-linecap:butt;stroke-linejoin:miter;stroke-opacity:1"/>
<path class="bond-9 atom-9 atom-10" d="M 142.4,71.8 L 114.2,79.4" style="fill:none;fill-rule:evenodd;stroke:#000000;stroke-width:2.0px;stroke-linecap:butt;stroke-linejoin:miter;stroke-opacity:1"/>
<path class="bond-9 atom-9 atom-10" d="M 138.8,68.2 L 115.5,74.5" style="fill:none;fill-rule:evenodd;stroke:#000000;stroke-width:2.0px;stroke-linecap:butt;stroke-linejoin:miter;stroke-opacity:1"/>
<path class="bond-10 atom-10 atom-4" d="M 114.2,79.4 L 93.6,58.7" style="fill:none;fill-rule:evenodd;stroke:#000000;stroke-width:2.0px;stroke-linecap:butt;stroke-linejoin:miter;stroke-opacity:1"/>
<path d="M 43.3,46.0 L 44.7,45.6 L 45.5,46.4" style="fill:none;stroke:#000000;stroke-width:2.0px;stroke-linecap:butt;stroke-linejoin:miter;stroke-miterlimit:10;stroke-opacity:1;"/>
<path d="M 100.7,31.9 L 101.1,30.5 L 102.5,30.1" style="fill:none;stroke:#000000;stroke-width:2.0px;stroke-linecap:butt;stroke-linejoin:miter;stroke-miterlimit:10;stroke-opacity:1;"/>
<path d="M 127.9,23.3 L 129.3,22.9 L 130.4,24.0" style="fill:none;stroke:#000000;stroke-width:2.0px;stroke-linecap:butt;stroke-linejoin:miter;stroke-miterlimit:10;stroke-opacity:1;"/>
<path d="M 142.8,70.4 L 142.4,71.8 L 141.0,72.2" style="fill:none;stroke:#000000;stroke-width:2.0px;stroke-linecap:butt;stroke-linejoin:miter;stroke-miterlimit:10;stroke-opacity:1;"/>
<path d="M 115.6,79.0 L 114.2,79.4 L 113.2,78.3" style="fill:none;stroke:#000000;stroke-width:2.0px;stroke-linecap:butt;stroke-linejoin:miter;stroke-miterlimit:10;stroke-opacity:1;"/>
<path class="atom-2" d="M 48.5 17.4 Q 48.5 15.4, 49.5 14.3 Q 50.4 13.2, 52.3 13.2 Q 54.1 13.2, 55.1 14.3 Q 56.1 15.4, 56.1 17.4 Q 56.1 19.4, 55.1 20.6 Q 54.1 21.7, 52.3 21.7 Q 50.4 21.7, 49.5 20.6 Q 48.5 19.5, 48.5 17.4 M 52.3 20.8 Q 53.5 20.8, 54.2 19.9 Q 54.9 19.1, 54.9 17.4 Q 54.9 15.8, 54.2 15.0 Q 53.5 14.2, 52.3 14.2 Q 51.0 14.2, 50.3 15.0 Q 49.6 15.8, 49.6 17.4 Q 49.6 19.1, 50.3 19.9 Q 51.0 20.8, 52.3 20.8 " fill="#000000"/>
<path class="atom-3" d="M 63.5 62.1 L 66.2 66.5 Q 66.5 66.9, 66.9 67.7 Q 67.4 68.5, 67.4 68.6 L 67.4 62.1 L 68.5 62.1 L 68.5 70.4 L 67.4 70.4 L 64.5 65.6 Q 64.1 65.1, 63.8 64.4 Q 63.4 63.8, 63.3 63.6 L 63.3 70.4 L 62.2 70.4 L 62.2 62.1 L 63.5 62.1 " fill="#000000"/>
<path class="atom-3" d="M 62.1 71.2 L 63.2 71.2 L 63.2 74.7 L 67.5 74.7 L 67.5 71.2 L 68.6 71.2 L 68.6 79.5 L 67.5 79.5 L 67.5 75.7 L 63.2 75.7 L 63.2 79.5 L 62.1 79.5 L 62.1 71.2 " fill="#000000"/>
<path class="atom-8" d="M 179.4 35.8 Q 180.2 36.0, 180.6 36.5 Q 181.0 37.0, 181.0 37.7 Q 181.0 38.9, 180.3 39.5 Q 179.5 40.2, 178.2 40.2 L 175.4 40.2 L 175.4 31.9 L 177.8 31.9 Q 179.2 31.9, 179.9 32.5 Q 180.7 33.0, 180.7 34.1 Q 180.7 35.3, 179.4 35.8 M 176.5 32.8 L 176.5 35.4 L 177.8 35.4 Q 178.6 35.4, 179.1 35.1 Q 179.5 34.8, 179.5 34.1 Q 179.5 32.8, 177.8 32.8 L 176.5 32.8 M 178.2 39.2 Q 179.0 39.2, 179.4 38.8 Q 179.8 38.5, 179.8 37.7 Q 179.8 37.0, 179.4 36.7 Q 178.9 36.4, 178.0 36.4 L 176.5 36.4 L 176.5 39.2 L 178.2 39.2 " fill="#000000"/>
<path class="atom-8" d="M 182.9 34.2 L 183.0 35.0 Q 183.6 34.1, 184.7 34.1 Q 185.0 34.1, 185.4 34.2 L 185.3 35.2 Q 184.8 35.0, 184.5 35.0 Q 184.0 35.0, 183.7 35.2 Q 183.3 35.4, 183.1 35.9 L 183.1 40.2 L 182.0 40.2 L 182.0 34.2 L 182.9 34.2 " fill="#000000"/>
</svg>