<svg xmlns="http://www.w3.org/2000/svg" xmlns:rdkit="http://www.rdkit.org/xml" xmlns:xlink="http://www.w3.org/1999/xlink" version="1.1" baseProfile="full" xml:space="preserve" width="278px" height="112px" viewBox="0 0 278 112">
<!-- END OF HEADER -->
<rect style="opacity:1.0;fill:#FFFFFF;stroke:none" width="278.0" height="112.0" x="0.0" y="0.0"> </rect>
<path class="bond-0 atom-0 atom-1" d="M 30.0,56.8 L 52.8,75.1 L 47.7,81.5 L 24.9,63.2 Z" style="fill:#FFE2E2;fill-rule:evenodd;fill-opacity:1;stroke:#FFE2E2;stroke-width:2.0px;stroke-linecap:butt;stroke-linejoin:miter;stroke-miterlimit:10;stroke-opacity:1;"/>
<path class="bond-2 atom-2 atom-3" d="M 79.7,64.3 L 104.3,80.1 L 99.8,87.0 L 75.3,71.1 Z" style="fill:#FFF0F0;fill-rule:evenodd;fill-opacity:1;stroke:#FFF0F0;stroke-width:2.0px;stroke-linecap:butt;stroke-linejoin:miter;stroke-miterlimit:10;stroke-opacity:1;"/>
<path class="bond-3 atom-3 atom-4" d="M 99.5,80.4 L 122.1,61.9 L 127.3,68.2 L 104.6,86.7 Z" style="fill:#FFF0F0;fill-rule:evenodd;fill-opacity:1;stroke:#FFF0F0;stroke-width:2.0px;stroke-linecap:butt;stroke-linejoin:miter;stroke-miterlimit:10;stroke-opacity:1;"/>
<path class="bond-5 atom-5 atom-6" d="M 156.8,71.0 L 167.4,98.3 L 159.7,101.2 L 149.2,74.0 Z" style="fill:#BEBEFF;fill-rule:evenodd;fill-opacity:1;stroke:#BEBEFF;stroke-width:2.0px;stroke-linecap:butt;stroke-linejoin:miter;stroke-miterlimit:10;stroke-opacity:1;"/>
<path class="bond-6 atom-6 atom-7" d="M 163.3,95.7 L 192.5,94.0 L 193.0,102.2 L 163.8,103.8 Z" style="fill:#BEBEFF;fill-rule:evenodd;fill-opacity:1;stroke:#BEBEFF;stroke-width:2.0px;stroke-linecap:butt;stroke-linejoin:miter;stroke-miterlimit:10;stroke-opacity:1;"/>
<path class="bond-7 atom-7 atom-8" d="M 188.8,97.1 L 196.2,68.8 L 204.2,70.9 L 196.7,99.2 Z" style="fill:#BEBEFF;fill-rule:evenodd;fill-opacity:1;stroke:#BEBEFF;stroke-width:2.0px;stroke-linecap:butt;stroke-linejoin:miter;stroke-miterlimit:10;stroke-opacity:1;"/>
<path class="bond-8 atom-8 atom-9" d="M 198.3,66.2 L 224.3,52.8 L 228.1,60.1 L 202.1,73.5 Z" style="fill:#BEBEFF;fill-rule:evenodd;fill-opacity:1;stroke:#BEBEFF;stroke-width:2.0px;stroke-linecap:butt;stroke-linejoin:miter;stroke-miterlimit:10;stroke-opacity:1;"/>
<path class="bond-9 atom-9 atom-10" d="M 228.4,53.0 L 253.0,68.9 L 248.6,75.7 L 224.0,59.9 Z" style="fill:#BEBEFF;fill-rule:evenodd;fill-opacity:1;stroke:#BEBEFF;stroke-width:2.0px;stroke-linecap:butt;stroke-linejoin:miter;stroke-miterlimit:10;stroke-opacity:1;"/>
<path class="bond-10 atom-9 atom-11" d="M 222.1,56.3 L 223.5,27.1 L 231.7,27.5 L 230.3,56.7 Z" style="fill:#BEBEFF;fill-rule:evenodd;fill-opacity:1;stroke:#BEBEFF;stroke-width:2.0px;stroke-linecap:butt;stroke-linejoin:miter;stroke-miterlimit:10;stroke-opacity:1;"/>
<path class="bond-11 atom-11 atom-12" d="M 225.4,30.7 L 200.8,14.9 L 205.2,8.0 L 229.8,23.8 Z" style="fill:#BEBEFF;fill-rule:evenodd;fill-opacity:1;stroke:#BEBEFF;stroke-width:2.0px;stroke-linecap:butt;stroke-linejoin:miter;stroke-miterlimit:10;stroke-opacity:1;"/>
<path class="bond-12 atom-12 atom-13" d="M 204.9,15.1 L 178.9,28.5 L 175.2,21.2 L 201.2,7.8 Z" style="fill:#BEBEFF;fill-rule:evenodd;fill-opacity:1;stroke:#BEBEFF;stroke-width:2.0px;stroke-linecap:butt;stroke-linejoin:miter;stroke-miterlimit:10;stroke-opacity:1;"/>
<path class="bond-13 atom-13 atom-14" d="M 181.1,25.0 L 179.7,54.2 L 171.5,53.8 L 172.9,24.6 Z" style="fill:#BEBEFF;fill-rule:evenodd;fill-opacity:1;stroke:#BEBEFF;stroke-width:2.0px;stroke-linecap:butt;stroke-linejoin:miter;stroke-miterlimit:10;stroke-opacity:1;"/>
<path class="bond-14 atom-4 atom-15" d="M 120.9,66.5 L 110.3,39.3 L 117.9,36.3 L 128.5,63.6 Z" style="fill:#FFF0F0;fill-rule:evenodd;fill-opacity:1;stroke:#FFF0F0;stroke-width:2.0px;stroke-linecap:butt;stroke-linejoin:miter;stroke-miterlimit:10;stroke-opacity:1;"/>
<path class="bond-15 atom-15 atom-16" d="M 110.7,35.6 L 126.5,11.0 L 133.4,15.4 L 117.6,40.0 Z" style="fill:#FFF0F0;fill-rule:evenodd;fill-opacity:1;stroke:#FFF0F0;stroke-width:2.0px;stroke-linecap:butt;stroke-linejoin:miter;stroke-miterlimit:10;stroke-opacity:1;"/>
<path class="bond-16 atom-15 atom-17" d="M 114.4,41.9 L 85.2,43.5 L 84.7,35.4 L 113.9,33.7 Z" style="fill:#FFF0F0;fill-rule:evenodd;fill-opacity:1;stroke:#FFF0F0;stroke-width:2.0px;stroke-linecap:butt;stroke-linejoin:miter;stroke-miterlimit:10;stroke-opacity:1;"/>
<path class="bond-17 atom-17 atom-18" d="M 81.8,42.0 L 63.3,19.4 L 69.6,14.2 L 88.1,36.9 Z" style="fill:#FFF0F0;fill-rule:evenodd;fill-opacity:1;stroke:#FFF0F0;stroke-width:2.0px;stroke-linecap:butt;stroke-linejoin:miter;stroke-miterlimit:10;stroke-opacity:1;"/>
<path class="bond-18 atom-17 atom-2" d="M 88.9,40.5 L 81.4,68.7 L 73.5,66.7 L 81.0,38.4 Z" style="fill:#FFF0F0;fill-rule:evenodd;fill-opacity:1;stroke:#FFF0F0;stroke-width:2.0px;stroke-linecap:butt;stroke-linejoin:miter;stroke-miterlimit:10;stroke-opacity:1;"/>
<path class="bond-19 atom-14 atom-5" d="M 178.2,57.2 L 155.6,75.7 L 150.4,69.3 L 173.0,50.8 Z" style="fill:#BEBEFF;fill-rule:evenodd;fill-opacity:1;stroke:#BEBEFF;stroke-width:2.0px;stroke-linecap:butt;stroke-linejoin:miter;stroke-miterlimit:10;stroke-opacity:1;"/>
<path class="bond-20 atom-14 atom-8" d="M 177.8,50.6 L 202.4,66.4 L 198.0,73.3 L 173.4,57.5 Z" style="fill:#BEBEFF;fill-rule:evenodd;fill-opacity:1;stroke:#BEBEFF;stroke-width:2.0px;stroke-linecap:butt;stroke-linejoin:miter;stroke-miterlimit:10;stroke-opacity:1;"/>
<ellipse cx="27.4" cy="60.0" rx="5.8" ry="5.8" class="atom-0" style="fill:#FFE2E2;fill-rule:evenodd;stroke:#FFE2E2;stroke-width:1.0px;stroke-linecap:butt;stroke-linejoin:miter;stroke-opacity:1"/>
<ellipse cx="50.2" cy="78.3" rx="5.8" ry="5.8" class="atom-1" style="fill:#FFE2E2;fill-rule:evenodd;stroke:#FFE2E2;stroke-width:1.0px;stroke-linecap:butt;stroke-linejoin:miter;stroke-opacity:1"/>
<ellipse cx="77.5" cy="67.7" rx="5.8" ry="5.8" class="atom-2" style="fill:#FFF0F0;fill-rule:evenodd;stroke:#FFF0F0;stroke-width:1.0px;stroke-linecap:butt;stroke-linejoin:miter;stroke-opacity:1"/>
<ellipse cx="102.1" cy="83.5" rx="5.8" ry="5.8" class="atom-3" style="fill:#FFF0F0;fill-rule:evenodd;stroke:#FFF0F0;stroke-width:1.0px;stroke-linecap:butt;stroke-linejoin:miter;stroke-opacity:1"/>
<ellipse cx="124.7" cy="65.0" rx="5.8" ry="5.8" class="atom-4" style="fill:#FFF0F0;fill-rule:evenodd;stroke:#FFF0F0;stroke-width:1.0px;stroke-linecap:butt;stroke-linejoin:miter;stroke-opacity:1"/>
<ellipse cx="153.0" cy="72.5" rx="5.8" ry="5.8" class="atom-5" style="fill:#BEBEFF;fill-rule:evenodd;stroke:#BEBEFF;stroke-width:1.0px;stroke-linecap:butt;stroke-linejoin:miter;stroke-opacity:1"/>
<ellipse cx="163.6" cy="99.8" rx="5.8" ry="5.8" class="atom-6" style="fill:#BEBEFF;fill-rule:evenodd;stroke:#BEBEFF;stroke-width:1.0px;stroke-linecap:butt;stroke-linejoin:miter;stroke-opacity:1"/>
<ellipse cx="192.7" cy="98.1" rx="5.8" ry="5.8" class="atom-7" style="fill:#BEBEFF;fill-rule:evenodd;stroke:#BEBEFF;stroke-width:1.0px;stroke-linecap:butt;stroke-linejoin:miter;stroke-opacity:1"/>
<ellipse cx="200.2" cy="69.8" rx="5.8" ry="5.8" class="atom-8" style="fill:#BEBEFF;fill-rule:evenodd;stroke:#BEBEFF;stroke-width:1.0px;stroke-linecap:butt;stroke-linejoin:miter;stroke-opacity:1"/>
<ellipse cx="226.2" cy="56.5" rx="5.8" ry="5.8" class="atom-9" style="fill:#BEBEFF;fill-rule:evenodd;stroke:#BEBEFF;stroke-width:1.0px;stroke-linecap:butt;stroke-linejoin:miter;stroke-opacity:1"/>
<ellipse cx="250.8" cy="72.3" rx="5.8" ry="5.8" class="atom-10" style="fill:#BEBEFF;fill-rule:evenodd;stroke:#BEBEFF;stroke-width:1.0px;stroke-linecap:butt;stroke-linejoin:miter;stroke-opacity:1"/>
<ellipse cx="227.6" cy="27.3" rx="5.8" ry="5.8" class="atom-11" style="fill:#BEBEFF;fill-rule:evenodd;stroke:#BEBEFF;stroke-width:1.0px;stroke-linecap:butt;stroke-linejoin:miter;stroke-opacity:1"/>
<ellipse cx="203.0" cy="11.4" rx="5.8" ry="5.8" class="atom-12" style="fill:#BEBEFF;fill-rule:evenodd;stroke:#BEBEFF;stroke-width:1.0px;stroke-linecap:butt;stroke-linejoin:miter;stroke-opacity:1"/>
<ellipse cx="177.0" cy="24.8" rx="5.8" ry="5.8" class="atom-13" style="fill:#BEBEFF;fill-rule:evenodd;stroke:#BEBEFF;stroke-width:1.0px;stroke-linecap:butt;stroke-linejoin:miter;stroke-opacity:1"/>
<ellipse cx="175.6" cy="54.0" rx="5.8" ry="5.8" class="atom-14" style="fill:#BEBEFF;fill-rule:evenodd;stroke:#BEBEFF;stroke-width:1.0px;stroke-linecap:butt;stroke-linejoin:miter;stroke-opacity:1"/>
<ellipse cx="114.1" cy="37.8" rx="5.8" ry="5.8" class="atom-15" style="fill:#FFF0F0;fill-rule:evenodd;stroke:#FFF0F0;stroke-width:1.0px;stroke-linecap:butt;stroke-linejoin:miter;stroke-opacity:1"/>
<ellipse cx="129.9" cy="13.2" rx="5.8" ry="5.8" class="atom-16" style="fill:#FFF0F0;fill-rule:evenodd;stroke:#FFF0F0;stroke-width:1.0px;stroke-linecap:butt;stroke-linejoin:miter;stroke-opacity:1"/>
<ellipse cx="84.9" cy="39.4" rx="5.8" ry="5.8" class="atom-17" style="fill:#FFF0F0;fill-rule:evenodd;stroke:#FFF0F0;stroke-width:1.0px;stroke-linecap:butt;stroke-linejoin:miter;stroke-opacity:1"/>
<ellipse cx="66.5" cy="16.8" rx="5.8" ry="5.8" class="atom-18" style="fill:#FFF0F0;fill-rule:evenodd;stroke:#FFF0F0;stroke-width:1.0px;stroke-linecap:butt;stroke-linejoin:miter;stroke-opacity:1"/>
<path class="bond-0 atom-0 atom-1" d="M 32.2,63.8 L 50.2,78.3" style="fill:none;fill-rule:evenodd;stroke:#000000;stroke-width:2.0px;stroke-linecap:butt;stroke-linejoin:miter;stroke-opacity:1"/>
<path class="bond-1 atom-1 atom-2" d="M 50.2,78.3 L 77.5,67.7" style="fill:none;fill-rule:evenodd;stroke:#000000;stroke-width:2.0px;stroke-linecap:butt;stroke-linejoin:miter;stroke-opacity:1"/>
<path class="bond-2 atom-2 atom-3" d="M 77.5,67.7 L 97.3,80.5" style="fill:none;fill-rule:evenodd;stroke:#000000;stroke-width:2.0px;stroke-linecap:butt;stroke-linejoin:miter;stroke-opacity:1"/>
<path class="bond-3 atom-3 atom-4" d="M 106.8,79.6 L 124.7,65.0" style="fill:none;fill-rule:evenodd;stroke:#000000;stroke-width:2.0px;stroke-linecap:butt;stroke-linejoin:miter;stroke-opacity:1"/>
<path class="bond-4 atom-4 atom-5" d="M 124.7,65.0 L 148.9,71.4" style="fill:none;fill-rule:evenodd;stroke:#000000;stroke-width:2.0px;stroke-linecap:butt;stroke-linejoin:miter;stroke-opacity:1"/>
<path class="bond-5 atom-5 atom-6" d="M 155.0,77.6 L 163.6,99.8" style="fill:none;fill-rule:evenodd;stroke:#000000;stroke-width:2.0px;stroke-linecap:butt;stroke-linejoin:miter;stroke-opacity:1"/>
<path class="bond-6 atom-6 atom-7" d="M 163.6,99.8 L 188.6,98.3" style="fill:none;fill-rule:evenodd;stroke:#000000;stroke-width:2.0px;stroke-linecap:butt;stroke-linejoin:miter;stroke-opacity:1"/>
<path class="bond-6 atom-6 atom-7" d="M 166.5,95.2 L 188.4,94.0" style="fill:none;fill-rule:evenodd;stroke:#000000;stroke-width:2.0px;stroke-linecap:butt;stroke-linejoin:miter;stroke-opacity:1"/>
<path class="bond-7 atom-7 atom-8" d="M 194.1,93.0 L 200.2,69.8" style="fill:none;fill-rule:evenodd;stroke:#000000;stroke-width:2.0px;stroke-linecap:butt;stroke-linejoin:miter;stroke-opacity:1"/>
<path class="bond-8 atom-8 atom-9" d="M 200.2,69.8 L 226.2,56.5" style="fill:none;fill-rule:evenodd;stroke:#000000;stroke-width:2.0px;stroke-linecap:butt;stroke-linejoin:miter;stroke-opacity:1"/>
<path class="bond-8 atom-8 atom-9" d="M 200.4,64.8 L 221.9,53.7" style="fill:none;fill-rule:evenodd;stroke:#000000;stroke-width:2.0px;stroke-linecap:butt;stroke-linejoin:miter;stroke-opacity:1"/>
<path class="bond-9 atom-9 atom-10" d="M 226.2,56.5 L 246.0,69.2" style="fill:none;fill-rule:evenodd;stroke:#000000;stroke-width:2.0px;stroke-linecap:butt;stroke-linejoin:miter;stroke-opacity:1"/>
<path class="bond-10 atom-9 atom-11" d="M 226.2,56.5 L 227.4,32.4" style="fill:none;fill-rule:evenodd;stroke:#000000;stroke-width:2.0px;stroke-linecap:butt;stroke-linejoin:miter;stroke-opacity:1"/>
<path class="bond-11 atom-11 atom-12" d="M 223.5,24.6 L 203.0,11.4" style="fill:none;fill-rule:evenodd;stroke:#000000;stroke-width:2.0px;stroke-linecap:butt;stroke-linejoin:miter;stroke-opacity:1"/>
<path class="bond-11 atom-11 atom-12" d="M 221.1,28.3 L 202.8,16.5" style="fill:none;fill-rule:evenodd;stroke:#000000;stroke-width:2.0px;stroke-linecap:butt;stroke-linejoin:miter;stroke-opacity:1"/>
<path class="bond-12 atom-12 atom-13" d="M 203.0,11.4 L 181.1,22.7" style="fill:none;fill-rule:evenodd;stroke:#000000;stroke-width:2.0px;stroke-linecap:butt;stroke-linejoin:miter;stroke-opacity:1"/>
<path class="bond-13 atom-13 atom-14" d="M 176.8,29.9 L 175.6,54.0" style="fill:none;fill-rule:evenodd;stroke:#000000;stroke-width:2.0px;stroke-linecap:butt;stroke-linejoin:miter;stroke-opacity:1"/>
<path class="bond-13 atom-13 atom-14" d="M 181.2,30.1 L 180.1,51.7" style="fill:none;fill-rule:evenodd;stroke:#000000;stroke-width:2.0px;stroke-linecap:butt;stroke-linejoin:miter;stroke-opacity:1"/>
<path class="bond-14 atom-4 atom-15" d="M 124.7,65.0 L 114.1,37.8" style="fill:none;fill-rule:evenodd;stroke:#000000;stroke-width:2.0px;stroke-linecap:butt;stroke-linejoin:miter;stroke-opacity:1"/>
<path class="bond-15 atom-15 atom-16" d="M 114.1,37.8 L 126.5,18.5" style="fill:none;fill-rule:evenodd;stroke:#000000;stroke-width:2.0px;stroke-linecap:butt;stroke-linejoin:miter;stroke-opacity:1"/>
<path class="bond-16 atom-15 atom-17" d="M 114.1,37.8 L 84.9,39.4" style="fill:none;fill-rule:evenodd;stroke:#000000;stroke-width:2.0px;stroke-linecap:butt;stroke-linejoin:miter;stroke-opacity:1"/>
<path class="bond-17 atom-17 atom-18" d="M 84.9,39.4 L 70.8,22.1" style="fill:none;fill-rule:evenodd;stroke:#000000;stroke-width:2.0px;stroke-linecap:butt;stroke-linejoin:miter;stroke-opacity:1"/>
<path class="bond-18 atom-17 atom-2" d="M 84.9,39.4 L 77.5,67.7" style="fill:none;fill-rule:evenodd;stroke:#000000;stroke-width:2.0px;stroke-linecap:butt;stroke-linejoin:miter;stroke-opacity:1"/>
<path class="bond-19 atom-14 atom-5" d="M 175.6,54.0 L 157.1,69.2" style="fill:none;fill-rule:evenodd;stroke:#000000;stroke-width:2.0px;stroke-linecap:butt;stroke-linejoin:miter;stroke-opacity:1"/>
<path class="bond-20 atom-14 atom-8" d="M 175.6,54.0 L 200.2,69.8" style="fill:none;fill-rule:evenodd;stroke:#000000;stroke-width:2.0px;stroke-linecap:butt;stroke-linejoin:miter;stroke-opacity:1"/>
<path d="M 49.3,77.6 L 50.2,78.3 L 51.6,77.8" style="fill:none;stroke:#000000;stroke-width:2.0px;stroke-linecap:butt;stroke-linejoin:miter;stroke-miterlimit:10;stroke-opacity:1;"/>
<path d="M 163.1,98.6 L 163.6,99.8 L 164.8,99.7" style="fill:none;stroke:#000000;stroke-width:2.0px;stroke-linecap:butt;stroke-linejoin:miter;stroke-miterlimit:10;stroke-opacity:1;"/>
<path d="M 204.1,12.1 L 203.0,11.4 L 201.9,12.0" style="fill:none;stroke:#000000;stroke-width:2.0px;stroke-linecap:butt;stroke-linejoin:miter;stroke-miterlimit:10;stroke-opacity:1;"/>
<path class="atom-0" d="M 15.5 55.9 L 16.6 55.9 L 16.6 59.4 L 20.8 59.4 L 20.8 55.9 L 21.9 55.9 L 21.9 64.2 L 20.8 64.2 L 20.8 60.3 L 16.6 60.3 L 16.6 64.2 L 15.5 64.2 L 15.5 55.9 " fill="#000000"/>
<path class="atom-0" d="M 23.6 60.0 Q 23.6 58.0, 24.6 56.9 Q 25.6 55.8, 27.4 55.8 Q 29.3 55.8, 30.3 56.9 Q 31.2 58.0, 31.2 60.0 Q 31.2 62.0, 30.2 63.2 Q 29.3 64.3, 27.4 64.3 Q 25.6 64.3, 24.6 63.2 Q 23.6 62.0, 23.6 60.0 M 27.4 63.4 Q 28.7 63.4, 29.4 62.5 Q 30.1 61.7, 30.1 60.0 Q 30.1 58.4, 29.4 57.6 Q 28.7 56.7, 27.4 56.7 Q 26.2 56.7, 25.5 57.5 Q 24.8 58.4, 24.8 60.0 Q 24.8 61.7, 25.5 62.5 Q 26.2 63.4, 27.4 63.4 " fill="#000000"/>
<path class="atom-3" d="M 98.3 83.6 Q 98.3 81.6, 99.2 80.5 Q 100.2 79.3, 102.1 79.3 Q 103.9 79.3, 104.9 80.5 Q 105.9 81.6, 105.9 83.6 Q 105.9 85.6, 104.9 86.7 Q 103.9 87.8, 102.1 87.8 Q 100.2 87.8, 99.2 86.7 Q 98.3 85.6, 98.3 83.6 M 102.1 86.9 Q 103.3 86.9, 104.0 86.1 Q 104.7 85.2, 104.7 83.6 Q 104.7 81.9, 104.0 81.1 Q 103.3 80.3, 102.1 80.3 Q 100.8 80.3, 100.1 81.1 Q 99.4 81.9, 99.4 83.6 Q 99.4 85.2, 100.1 86.1 Q 100.8 86.9, 102.1 86.9 " fill="#000000"/>
<path class="atom-5" d="M 151.1 68.4 L 153.9 72.7 Q 154.1 73.2, 154.6 74.0 Q 155.0 74.7, 155.0 74.8 L 155.0 68.4 L 156.1 68.4 L 156.1 76.6 L 155.0 76.6 L 152.1 71.8 Q 151.7 71.3, 151.4 70.6 Q 151.0 70.0, 150.9 69.8 L 150.9 76.6 L 149.8 76.6 L 149.8 68.4 L 151.1 68.4 " fill="#000000"/>
<path class="atom-7" d="M 190.9 94.0 L 193.6 98.4 Q 193.9 98.8, 194.3 99.6 Q 194.8 100.4, 194.8 100.4 L 194.8 94.0 L 195.9 94.0 L 195.9 102.2 L 194.7 102.2 L 191.8 97.5 Q 191.5 96.9, 191.1 96.3 Q 190.8 95.6, 190.7 95.4 L 190.7 102.2 L 189.6 102.2 L 189.6 94.0 L 190.9 94.0 " fill="#000000"/>
<path class="atom-10" d="M 247.0 72.3 Q 247.0 70.3, 248.0 69.2 Q 248.9 68.1, 250.8 68.1 Q 252.6 68.1, 253.6 69.2 Q 254.6 70.3, 254.6 72.3 Q 254.6 74.3, 253.6 75.5 Q 252.6 76.6, 250.8 76.6 Q 248.9 76.6, 248.0 75.5 Q 247.0 74.3, 247.0 72.3 M 250.8 75.7 Q 252.0 75.7, 252.7 74.8 Q 253.4 74.0, 253.4 72.3 Q 253.4 70.7, 252.7 69.9 Q 252.0 69.0, 250.8 69.0 Q 249.5 69.0, 248.8 69.9 Q 248.1 70.7, 248.1 72.3 Q 248.1 74.0, 248.8 74.8 Q 249.5 75.7, 250.8 75.7 " fill="#000000"/>
<path class="atom-10" d="M 255.9 68.2 L 257.0 68.2 L 257.0 71.7 L 261.2 71.7 L 261.2 68.2 L 262.3 68.2 L 262.3 76.5 L 261.2 76.5 L 261.2 72.7 L 257.0 72.7 L 257.0 76.5 L 255.9 76.5 L 255.9 68.2 " fill="#000000"/>
<path class="atom-11" d="M 225.8 23.1 L 228.5 27.5 Q 228.8 28.0, 229.2 28.7 Q 229.6 29.5, 229.6 29.6 L 229.6 23.1 L 230.7 23.1 L 230.7 31.4 L 229.6 31.4 L 226.7 26.6 Q 226.4 26.1, 226.0 25.4 Q 225.6 24.8, 225.5 24.6 L 225.5 31.4 L 224.5 31.4 L 224.5 23.1 L 225.8 23.1 " fill="#000000"/>
<path class="atom-13" d="M 175.2 20.7 L 177.9 25.1 Q 178.2 25.5, 178.6 26.3 Q 179.1 27.1, 179.1 27.1 L 179.1 20.7 L 180.2 20.7 L 180.2 29.0 L 179.0 29.0 L 176.1 24.2 Q 175.8 23.6, 175.4 23.0 Q 175.1 22.3, 175.0 22.1 L 175.0 29.0 L 173.9 29.0 L 173.9 20.7 L 175.2 20.7 " fill="#000000"/>
<path class="atom-16" d="M 126.1 13.2 Q 126.1 11.3, 127.1 10.1 Q 128.1 9.0, 129.9 9.0 Q 131.8 9.0, 132.8 10.1 Q 133.7 11.3, 133.7 13.2 Q 133.7 15.3, 132.8 16.4 Q 131.8 17.5, 129.9 17.5 Q 128.1 17.5, 127.1 16.4 Q 126.1 15.3, 126.1 13.2 M 129.9 16.6 Q 131.2 16.6, 131.9 15.8 Q 132.6 14.9, 132.6 13.2 Q 132.6 11.6, 131.9 10.8 Q 131.2 10.0, 129.9 10.0 Q 128.7 10.0, 128.0 10.8 Q 127.3 11.6, 127.3 13.2 Q 127.3 14.9, 128.0 15.8 Q 128.7 16.6, 129.9 16.6 " fill="#000000"/>
<path class="atom-16" d="M 135.0 9.1 L 136.2 9.1 L 136.2 12.6 L 140.4 12.6 L 140.4 9.1 L 141.5 9.1 L 141.5 17.4 L 140.4 17.4 L 140.4 13.6 L 136.2 13.6 L 136.2 17.4 L 135.0 17.4 L 135.0 9.1 " fill="#000000"/>
<path class="atom-18" d="M 54.5 12.7 L 55.6 12.7 L 55.6 16.2 L 59.8 16.2 L 59.8 12.7 L 61.0 12.7 L 61.0 21.0 L 59.8 21.0 L 59.8 17.2 L 55.6 17.2 L 55.6 21.0 L 54.5 21.0 L 54.5 12.7 " fill="#000000"/>
<path class="atom-18" d="M 62.7 16.8 Q 62.7 14.8, 63.6 13.7 Q 64.6 12.6, 66.5 12.6 Q 68.3 12.6, 69.3 13.7 Q 70.3 14.8, 70.3 16.8 Q 70.3 18.8, 69.3 20.0 Q 68.3 21.1, 66.5 21.1 Q 64.6 21.1, 63.6 20.0 Q 62.7 18.8, 62.7 16.8 M 66.5 20.2 Q 67.7 20.2, 68.4 19.3 Q 69.1 18.5, 69.1 16.8 Q 69.1 15.2, 68.4 14.4 Q 67.7 13.5, 66.5 13.5 Q 65.2 13.5, 64.5 14.4 Q 63.8 15.2, 63.8 16.8 Q 63.8 18.5, 64.5 19.3 Q 65.2 20.2, 66.5 20.2 " fill="#000000"/>
</svg>