<svg xmlns="http://www.w3.org/2000/svg" xmlns:rdkit="http://www.rdkit.org/xml" xmlns:xlink="http://www.w3.org/1999/xlink" version="1.1" baseProfile="full" xml:space="preserve" width="278px" height="116px" viewBox="0 0 278 116">
<!-- END OF HEADER -->
<rect style="opacity:1.0;fill:#FFFFFF;stroke:none" width="278.0" height="116.0" x="0.0" y="0.0"> </rect>
<ellipse cx="26.6" cy="62.2" rx="3.4" ry="3.4" class="atom-0" style="fill:#FF7F7F;fill-rule:evenodd;stroke:#FF7F7F;stroke-width:1.0px;stroke-linecap:butt;stroke-linejoin:miter;stroke-opacity:1"/>
<ellipse cx="49.6" cy="80.7" rx="3.4" ry="3.4" class="atom-1" style="fill:#FF7F7F;fill-rule:evenodd;stroke:#FF7F7F;stroke-width:1.0px;stroke-linecap:butt;stroke-linejoin:miter;stroke-opacity:1"/>
<ellipse cx="77.0" cy="70.0" rx="1.7" ry="1.7" class="atom-2" style="fill:#FF7F7F;fill-rule:evenodd;stroke:#FF7F7F;stroke-width:1.0px;stroke-linecap:butt;stroke-linejoin:miter;stroke-opacity:1"/>
<ellipse cx="101.8" cy="85.9" rx="1.7" ry="1.7" class="atom-3" style="fill:#FF7F7F;fill-rule:evenodd;stroke:#FF7F7F;stroke-width:1.0px;stroke-linecap:butt;stroke-linejoin:miter;stroke-opacity:1"/>
<ellipse cx="124.6" cy="67.3" rx="1.7" ry="1.7" class="atom-4" style="fill:#FF7F7F;fill-rule:evenodd;stroke:#FF7F7F;stroke-width:1.0px;stroke-linecap:butt;stroke-linejoin:miter;stroke-opacity:1"/>
<ellipse cx="153.1" cy="74.8" rx="7.5" ry="7.5" class="atom-5" style="fill:#7F7FFF;fill-rule:evenodd;stroke:#7F7FFF;stroke-width:1.0px;stroke-linecap:butt;stroke-linejoin:miter;stroke-opacity:1"/>
<ellipse cx="163.7" cy="102.3" rx="7.5" ry="7.5" class="atom-6" style="fill:#7F7FFF;fill-rule:evenodd;stroke:#7F7FFF;stroke-width:1.0px;stroke-linecap:butt;stroke-linejoin:miter;stroke-opacity:1"/>
<ellipse cx="193.1" cy="100.6" rx="7.5" ry="7.5" class="atom-7" style="fill:#7F7FFF;fill-rule:evenodd;stroke:#7F7FFF;stroke-width:1.0px;stroke-linecap:butt;stroke-linejoin:miter;stroke-opacity:1"/>
<ellipse cx="200.7" cy="72.2" rx="7.5" ry="7.5" class="atom-8" style="fill:#7F7FFF;fill-rule:evenodd;stroke:#7F7FFF;stroke-width:1.0px;stroke-linecap:butt;stroke-linejoin:miter;stroke-opacity:1"/>
<ellipse cx="226.8" cy="58.7" rx="7.5" ry="7.5" class="atom-9" style="fill:#7F7FFF;fill-rule:evenodd;stroke:#7F7FFF;stroke-width:1.0px;stroke-linecap:butt;stroke-linejoin:miter;stroke-opacity:1"/>
<ellipse cx="251.6" cy="74.6" rx="7.5" ry="7.5" class="atom-10" style="fill:#7F7FFF;fill-rule:evenodd;stroke:#7F7FFF;stroke-width:1.0px;stroke-linecap:butt;stroke-linejoin:miter;stroke-opacity:1"/>
<ellipse cx="228.3" cy="29.3" rx="7.5" ry="7.5" class="atom-11" style="fill:#7F7FFF;fill-rule:evenodd;stroke:#7F7FFF;stroke-width:1.0px;stroke-linecap:butt;stroke-linejoin:miter;stroke-opacity:1"/>
<ellipse cx="203.5" cy="13.3" rx="7.5" ry="7.5" class="atom-12" style="fill:#7F7FFF;fill-rule:evenodd;stroke:#7F7FFF;stroke-width:1.0px;stroke-linecap:butt;stroke-linejoin:miter;stroke-opacity:1"/>
<ellipse cx="177.3" cy="26.8" rx="7.5" ry="7.5" class="atom-13" style="fill:#7F7FFF;fill-rule:evenodd;stroke:#7F7FFF;stroke-width:1.0px;stroke-linecap:butt;stroke-linejoin:miter;stroke-opacity:1"/>
<ellipse cx="175.9" cy="56.2" rx="7.5" ry="7.5" class="atom-14" style="fill:#7F7FFF;fill-rule:evenodd;stroke:#7F7FFF;stroke-width:1.0px;stroke-linecap:butt;stroke-linejoin:miter;stroke-opacity:1"/>
<ellipse cx="113.9" cy="39.9" rx="1.7" ry="1.7" class="atom-15" style="fill:#FF7F7F;fill-rule:evenodd;stroke:#FF7F7F;stroke-width:1.0px;stroke-linecap:butt;stroke-linejoin:miter;stroke-opacity:1"/>
<ellipse cx="129.9" cy="15.1" rx="1.7" ry="1.7" class="atom-16" style="fill:#FF7F7F;fill-rule:evenodd;stroke:#FF7F7F;stroke-width:1.0px;stroke-linecap:butt;stroke-linejoin:miter;stroke-opacity:1"/>
<ellipse cx="84.5" cy="41.5" rx="1.7" ry="1.7" class="atom-17" style="fill:#FF7F7F;fill-rule:evenodd;stroke:#FF7F7F;stroke-width:1.0px;stroke-linecap:butt;stroke-linejoin:miter;stroke-opacity:1"/>
<ellipse cx="65.9" cy="18.7" rx="1.7" ry="1.7" class="atom-18" style="fill:#FF7F7F;fill-rule:evenodd;stroke:#FF7F7F;stroke-width:1.0px;stroke-linecap:butt;stroke-linejoin:miter;stroke-opacity:1"/>
<path class="bond-0 atom-0 atom-1" d="M 31.4,66.1 L 49.6,80.7" style="fill:none;fill-rule:evenodd;stroke:#000000;stroke-width:2.0px;stroke-linecap:butt;stroke-linejoin:miter;stroke-opacity:1"/>
<path class="bond-1 atom-1 atom-2" d="M 49.6,80.7 L 77.0,70.0" style="fill:none;fill-rule:evenodd;stroke:#000000;stroke-width:2.0px;stroke-linecap:butt;stroke-linejoin:miter;stroke-opacity:1"/>
<path class="bond-2 atom-2 atom-3" d="M 77.0,70.0 L 97.0,82.8" style="fill:none;fill-rule:evenodd;stroke:#000000;stroke-width:2.0px;stroke-linecap:butt;stroke-linejoin:miter;stroke-opacity:1"/>
<path class="bond-3 atom-3 atom-4" d="M 106.6,82.0 L 124.6,67.3" style="fill:none;fill-rule:evenodd;stroke:#000000;stroke-width:2.0px;stroke-linecap:butt;stroke-linejoin:miter;stroke-opacity:1"/>
<path class="bond-4 atom-4 atom-5" d="M 124.6,67.3 L 148.9,73.7" style="fill:none;fill-rule:evenodd;stroke:#000000;stroke-width:2.0px;stroke-linecap:butt;stroke-linejoin:miter;stroke-opacity:1"/>
<path class="bond-5 atom-5 atom-6" d="M 155.1,80.0 L 163.7,102.3" style="fill:none;fill-rule:evenodd;stroke:#000000;stroke-width:2.0px;stroke-linecap:butt;stroke-linejoin:miter;stroke-opacity:1"/>
<path class="bond-6 atom-6 atom-7" d="M 163.7,102.3 L 189.0,100.9" style="fill:none;fill-rule:evenodd;stroke:#000000;stroke-width:2.0px;stroke-linecap:butt;stroke-linejoin:miter;stroke-opacity:1"/>
<path class="bond-6 atom-6 atom-7" d="M 166.7,97.7 L 188.8,96.4" style="fill:none;fill-rule:evenodd;stroke:#000000;stroke-width:2.0px;stroke-linecap:butt;stroke-linejoin:miter;stroke-opacity:1"/>
<path class="bond-7 atom-7 atom-8" d="M 194.5,95.5 L 200.7,72.2" style="fill:none;fill-rule:evenodd;stroke:#000000;stroke-width:2.0px;stroke-linecap:butt;stroke-linejoin:miter;stroke-opacity:1"/>
<path class="bond-8 atom-8 atom-9" d="M 200.7,72.2 L 226.8,58.7" style="fill:none;fill-rule:evenodd;stroke:#000000;stroke-width:2.0px;stroke-linecap:butt;stroke-linejoin:miter;stroke-opacity:1"/>
<path class="bond-8 atom-8 atom-9" d="M 200.9,67.1 L 222.6,55.9" style="fill:none;fill-rule:evenodd;stroke:#000000;stroke-width:2.0px;stroke-linecap:butt;stroke-linejoin:miter;stroke-opacity:1"/>
<path class="bond-9 atom-9 atom-10" d="M 226.8,58.7 L 246.8,71.5" style="fill:none;fill-rule:evenodd;stroke:#000000;stroke-width:2.0px;stroke-linecap:butt;stroke-linejoin:miter;stroke-opacity:1"/>
<path class="bond-10 atom-9 atom-11" d="M 226.8,58.7 L 228.0,34.4" style="fill:none;fill-rule:evenodd;stroke:#000000;stroke-width:2.0px;stroke-linecap:butt;stroke-linejoin:miter;stroke-opacity:1"/>
<path class="bond-11 atom-11 atom-12" d="M 224.1,26.6 L 203.5,13.3" style="fill:none;fill-rule:evenodd;stroke:#000000;stroke-width:2.0px;stroke-linecap:butt;stroke-linejoin:miter;stroke-opacity:1"/>
<path class="bond-11 atom-11 atom-12" d="M 221.7,30.3 L 203.3,18.4" style="fill:none;fill-rule:evenodd;stroke:#000000;stroke-width:2.0px;stroke-linecap:butt;stroke-linejoin:miter;stroke-opacity:1"/>
<path class="bond-12 atom-12 atom-13" d="M 203.5,13.3 L 181.5,24.7" style="fill:none;fill-rule:evenodd;stroke:#000000;stroke-width:2.0px;stroke-linecap:butt;stroke-linejoin:miter;stroke-opacity:1"/>
<path class="bond-13 atom-13 atom-14" d="M 177.1,31.9 L 175.9,56.2" style="fill:none;fill-rule:evenodd;stroke:#000000;stroke-width:2.0px;stroke-linecap:butt;stroke-linejoin:miter;stroke-opacity:1"/>
<path class="bond-13 atom-13 atom-14" d="M 181.5,32.1 L 180.4,53.9" style="fill:none;fill-rule:evenodd;stroke:#000000;stroke-width:2.0px;stroke-linecap:butt;stroke-linejoin:miter;stroke-opacity:1"/>
<path class="bond-14 atom-4 atom-15" d="M 124.6,67.3 L 113.9,39.9" style="fill:none;fill-rule:evenodd;stroke:#000000;stroke-width:2.0px;stroke-linecap:butt;stroke-linejoin:miter;stroke-opacity:1"/>
<path class="bond-15 atom-15 atom-16" d="M 113.9,39.9 L 126.5,20.4" style="fill:none;fill-rule:evenodd;stroke:#000000;stroke-width:2.0px;stroke-linecap:butt;stroke-linejoin:miter;stroke-opacity:1"/>
<path class="bond-16 atom-15 atom-17" d="M 113.9,39.9 L 84.5,41.5" style="fill:none;fill-rule:evenodd;stroke:#000000;stroke-width:2.0px;stroke-linecap:butt;stroke-linejoin:miter;stroke-opacity:1"/>
<path class="bond-17 atom-17 atom-18" d="M 84.5,41.5 L 70.3,24.0" style="fill:none;fill-rule:evenodd;stroke:#000000;stroke-width:2.0px;stroke-linecap:butt;stroke-linejoin:miter;stroke-opacity:1"/>
<path class="bond-18 atom-17 atom-2" d="M 84.5,41.5 L 77.0,70.0" style="fill:none;fill-rule:evenodd;stroke:#000000;stroke-width:2.0px;stroke-linecap:butt;stroke-linejoin:miter;stroke-opacity:1"/>
<path class="bond-19 atom-14 atom-5" d="M 175.9,56.2 L 157.2,71.5" style="fill:none;fill-rule:evenodd;stroke:#000000;stroke-width:2.0px;stroke-linecap:butt;stroke-linejoin:miter;stroke-opacity:1"/>
<path class="bond-20 atom-14 atom-8" d="M 175.9,56.2 L 200.7,72.2" style="fill:none;fill-rule:evenodd;stroke:#000000;stroke-width:2.0px;stroke-linecap:butt;stroke-linejoin:miter;stroke-opacity:1"/>
<path d="M 48.7,79.9 L 49.6,80.7 L 50.9,80.1" style="fill:none;stroke:#000000;stroke-width:2.0px;stroke-linecap:butt;stroke-linejoin:miter;stroke-miterlimit:10;stroke-opacity:1;"/>
<path d="M 163.3,101.2 L 163.7,102.3 L 165.0,102.2" style="fill:none;stroke:#000000;stroke-width:2.0px;stroke-linecap:butt;stroke-linejoin:miter;stroke-miterlimit:10;stroke-opacity:1;"/>
<path d="M 204.5,14.0 L 203.5,13.3 L 202.4,13.9" style="fill:none;stroke:#000000;stroke-width:2.0px;stroke-linecap:butt;stroke-linejoin:miter;stroke-miterlimit:10;stroke-opacity:1;"/>
<path class="atom-0" d="M 14.5 58.1 L 15.7 58.1 L 15.7 61.6 L 19.9 61.6 L 19.9 58.1 L 21.1 58.1 L 21.1 66.4 L 19.9 66.4 L 19.9 62.6 L 15.7 62.6 L 15.7 66.4 L 14.5 66.4 L 14.5 58.1 " fill="#000000"/>
<path class="atom-0" d="M 22.8 62.2 Q 22.8 60.2, 23.8 59.1 Q 24.8 58.0, 26.6 58.0 Q 28.5 58.0, 29.4 59.1 Q 30.4 60.2, 30.4 62.2 Q 30.4 64.3, 29.4 65.4 Q 28.4 66.6, 26.6 66.6 Q 24.8 66.6, 23.8 65.4 Q 22.8 64.3, 22.8 62.2 M 26.6 65.6 Q 27.9 65.6, 28.6 64.8 Q 29.3 63.9, 29.3 62.2 Q 29.3 60.6, 28.6 59.8 Q 27.9 58.9, 26.6 58.9 Q 25.3 58.9, 24.6 59.8 Q 24.0 60.6, 24.0 62.2 Q 24.0 63.9, 24.6 64.8 Q 25.3 65.6, 26.6 65.6 " fill="#000000"/>
<path class="atom-3" d="M 98.0 86.0 Q 98.0 84.0, 98.9 82.8 Q 99.9 81.7, 101.8 81.7 Q 103.6 81.7, 104.6 82.8 Q 105.6 84.0, 105.6 86.0 Q 105.6 88.0, 104.6 89.1 Q 103.6 90.3, 101.8 90.3 Q 99.9 90.3, 98.9 89.1 Q 98.0 88.0, 98.0 86.0 M 101.8 89.3 Q 103.1 89.3, 103.7 88.5 Q 104.4 87.6, 104.4 86.0 Q 104.4 84.3, 103.7 83.5 Q 103.1 82.7, 101.8 82.7 Q 100.5 82.7, 99.8 83.5 Q 99.1 84.3, 99.1 86.0 Q 99.1 87.6, 99.8 88.5 Q 100.5 89.3, 101.8 89.3 " fill="#000000"/>
<path class="atom-5" d="M 151.2 70.7 L 154.0 75.1 Q 154.2 75.5, 154.7 76.3 Q 155.1 77.1, 155.1 77.1 L 155.1 70.7 L 156.2 70.7 L 156.2 79.0 L 155.1 79.0 L 152.2 74.2 Q 151.8 73.6, 151.5 73.0 Q 151.1 72.3, 151.0 72.1 L 151.0 79.0 L 149.9 79.0 L 149.9 70.7 L 151.2 70.7 " fill="#000000"/>
<path class="atom-7" d="M 191.3 96.5 L 194.0 100.9 Q 194.3 101.3, 194.7 102.1 Q 195.2 102.9, 195.2 102.9 L 195.2 96.5 L 196.3 96.5 L 196.3 104.8 L 195.2 104.8 L 192.2 100.0 Q 191.9 99.4, 191.5 98.8 Q 191.2 98.1, 191.1 97.9 L 191.1 104.8 L 190.0 104.8 L 190.0 96.5 L 191.3 96.5 " fill="#000000"/>
<path class="atom-10" d="M 247.8 74.6 Q 247.8 72.6, 248.8 71.5 Q 249.8 70.4, 251.6 70.4 Q 253.5 70.4, 254.4 71.5 Q 255.4 72.6, 255.4 74.6 Q 255.4 76.7, 254.4 77.8 Q 253.4 79.0, 251.6 79.0 Q 249.8 79.0, 248.8 77.8 Q 247.8 76.7, 247.8 74.6 M 251.6 78.0 Q 252.9 78.0, 253.6 77.2 Q 254.3 76.3, 254.3 74.6 Q 254.3 73.0, 253.6 72.2 Q 252.9 71.3, 251.6 71.3 Q 250.3 71.3, 249.6 72.2 Q 249.0 73.0, 249.0 74.6 Q 249.0 76.3, 249.6 77.2 Q 250.3 78.0, 251.6 78.0 " fill="#000000"/>
<path class="atom-10" d="M 256.7 70.5 L 257.9 70.5 L 257.9 74.0 L 262.1 74.0 L 262.1 70.5 L 263.3 70.5 L 263.3 78.8 L 262.1 78.8 L 262.1 75.0 L 257.9 75.0 L 257.9 78.8 L 256.7 78.8 L 256.7 70.5 " fill="#000000"/>
<path class="atom-11" d="M 226.4 25.1 L 229.2 29.5 Q 229.4 29.9, 229.9 30.7 Q 230.3 31.5, 230.3 31.6 L 230.3 25.1 L 231.4 25.1 L 231.4 33.4 L 230.3 33.4 L 227.4 28.6 Q 227.0 28.0, 226.7 27.4 Q 226.3 26.7, 226.2 26.5 L 226.2 33.4 L 225.1 33.4 L 225.1 25.1 L 226.4 25.1 " fill="#000000"/>
<path class="atom-13" d="M 175.5 22.6 L 178.2 27.0 Q 178.5 27.5, 178.9 28.3 Q 179.4 29.1, 179.4 29.1 L 179.4 22.6 L 180.5 22.6 L 180.5 31.0 L 179.3 31.0 L 176.4 26.1 Q 176.1 25.6, 175.7 24.9 Q 175.3 24.3, 175.2 24.1 L 175.2 31.0 L 174.2 31.0 L 174.2 22.6 L 175.5 22.6 " fill="#000000"/>
<path class="atom-16" d="M 126.1 15.1 Q 126.1 13.1, 127.0 12.0 Q 128.0 10.9, 129.9 10.9 Q 131.7 10.9, 132.7 12.0 Q 133.7 13.1, 133.7 15.1 Q 133.7 17.2, 132.7 18.3 Q 131.7 19.4, 129.9 19.4 Q 128.0 19.4, 127.0 18.3 Q 126.1 17.2, 126.1 15.1 M 129.9 18.5 Q 131.2 18.5, 131.8 17.7 Q 132.5 16.8, 132.5 15.1 Q 132.5 13.5, 131.8 12.7 Q 131.2 11.8, 129.9 11.8 Q 128.6 11.8, 127.9 12.7 Q 127.2 13.5, 127.2 15.1 Q 127.2 16.8, 127.9 17.7 Q 128.6 18.5, 129.9 18.5 " fill="#000000"/>
<path class="atom-16" d="M 135.0 11.0 L 136.1 11.0 L 136.1 14.5 L 140.4 14.5 L 140.4 11.0 L 141.5 11.0 L 141.5 19.3 L 140.4 19.3 L 140.4 15.5 L 136.1 15.5 L 136.1 19.3 L 135.0 19.3 L 135.0 11.0 " fill="#000000"/>
<path class="atom-18" d="M 53.8 14.6 L 55.0 14.6 L 55.0 18.1 L 59.2 18.1 L 59.2 14.6 L 60.4 14.6 L 60.4 22.9 L 59.2 22.9 L 59.2 19.1 L 55.0 19.1 L 55.0 22.9 L 53.8 22.9 L 53.8 14.6 " fill="#000000"/>
<path class="atom-18" d="M 62.1 18.7 Q 62.1 16.7, 63.1 15.6 Q 64.1 14.5, 65.9 14.5 Q 67.8 14.5, 68.7 15.6 Q 69.7 16.7, 69.7 18.7 Q 69.7 20.8, 68.7 21.9 Q 67.7 23.0, 65.9 23.0 Q 64.1 23.0, 63.1 21.9 Q 62.1 20.8, 62.1 18.7 M 65.9 22.1 Q 67.2 22.1, 67.9 21.3 Q 68.6 20.4, 68.6 18.7 Q 68.6 17.1, 67.9 16.3 Q 67.2 15.4, 65.9 15.4 Q 64.6 15.4, 63.9 16.3 Q 63.3 17.1, 63.3 18.7 Q 63.3 20.4, 63.9 21.3 Q 64.6 22.1, 65.9 22.1 " fill="#000000"/>
</svg>