<svg xmlns="http://www.w3.org/2000/svg" xmlns:rdkit="http://www.rdkit.org/xml" xmlns:xlink="http://www.w3.org/1999/xlink" version="1.1" baseProfile="full" xml:space="preserve" width="234px" height="114px" viewBox="0 0 234 114">
<!-- END OF HEADER -->
<rect style="opacity:1.0;fill:#FFFFFF;stroke:none" width="234.0" height="114.0" x="0.0" y="0.0"> </rect>
<ellipse cx="12.6" cy="62.2" rx="0.1" ry="0.1" class="atom-0" style="fill:#7F7FFF;fill-rule:evenodd;stroke:#7F7FFF;stroke-width:1.0px;stroke-linecap:butt;stroke-linejoin:miter;stroke-opacity:1"/>
<ellipse cx="38.0" cy="77.0" rx="0.1" ry="0.1" class="atom-1" style="fill:#7F7FFF;fill-rule:evenodd;stroke:#7F7FFF;stroke-width:1.0px;stroke-linecap:butt;stroke-linejoin:miter;stroke-opacity:1"/>
<ellipse cx="37.9" cy="106.4" rx="0.1" ry="0.1" class="atom-2" style="fill:#7F7FFF;fill-rule:evenodd;stroke:#7F7FFF;stroke-width:1.0px;stroke-linecap:butt;stroke-linejoin:miter;stroke-opacity:1"/>
<ellipse cx="63.5" cy="62.4" rx="4.5" ry="4.5" class="atom-3" style="fill:#FF7F7F;fill-rule:evenodd;stroke:#FF7F7F;stroke-width:1.0px;stroke-linecap:butt;stroke-linejoin:miter;stroke-opacity:1"/>
<ellipse cx="63.6" cy="33.0" rx="4.5" ry="4.5" class="atom-4" style="fill:#FF7F7F;fill-rule:evenodd;stroke:#FF7F7F;stroke-width:1.0px;stroke-linecap:butt;stroke-linejoin:miter;stroke-opacity:1"/>
<ellipse cx="88.9" cy="77.2" rx="0.4" ry="0.4" class="atom-5" style="fill:#FF7F7F;fill-rule:evenodd;stroke:#FF7F7F;stroke-width:1.0px;stroke-linecap:butt;stroke-linejoin:miter;stroke-opacity:1"/>
<ellipse cx="114.4" cy="62.6" rx="12.9" ry="12.9" class="atom-6" style="fill:#7F7FFF;fill-rule:evenodd;stroke:#7F7FFF;stroke-width:1.0px;stroke-linecap:butt;stroke-linejoin:miter;stroke-opacity:1"/>
<ellipse cx="114.5" cy="33.2" rx="12.9" ry="12.9" class="atom-7" style="fill:#7F7FFF;fill-rule:evenodd;stroke:#7F7FFF;stroke-width:1.0px;stroke-linecap:butt;stroke-linejoin:miter;stroke-opacity:1"/>
<ellipse cx="140.1" cy="18.6" rx="12.9" ry="12.9" class="atom-8" style="fill:#7F7FFF;fill-rule:evenodd;stroke:#7F7FFF;stroke-width:1.0px;stroke-linecap:butt;stroke-linejoin:miter;stroke-opacity:1"/>
<ellipse cx="165.5" cy="33.3" rx="12.9" ry="12.9" class="atom-9" style="fill:#7F7FFF;fill-rule:evenodd;stroke:#7F7FFF;stroke-width:1.0px;stroke-linecap:butt;stroke-linejoin:miter;stroke-opacity:1"/>
<ellipse cx="165.4" cy="62.7" rx="12.9" ry="12.9" class="atom-10" style="fill:#7F7FFF;fill-rule:evenodd;stroke:#7F7FFF;stroke-width:1.0px;stroke-linecap:butt;stroke-linejoin:miter;stroke-opacity:1"/>
<ellipse cx="190.8" cy="77.5" rx="4.8" ry="4.8" class="atom-11" style="fill:#7F7FFF;fill-rule:evenodd;stroke:#7F7FFF;stroke-width:1.0px;stroke-linecap:butt;stroke-linejoin:miter;stroke-opacity:1"/>
<ellipse cx="216.2" cy="92.3" rx="4.8" ry="4.8" class="atom-12" style="fill:#7F7FFF;fill-rule:evenodd;stroke:#7F7FFF;stroke-width:1.0px;stroke-linecap:butt;stroke-linejoin:miter;stroke-opacity:1"/>
<ellipse cx="176.0" cy="102.9" rx="4.8" ry="4.8" class="atom-13" style="fill:#7F7FFF;fill-rule:evenodd;stroke:#7F7FFF;stroke-width:1.0px;stroke-linecap:butt;stroke-linejoin:miter;stroke-opacity:1"/>
<ellipse cx="205.6" cy="52.1" rx="4.8" ry="4.8" class="atom-14" style="fill:#7F7FFF;fill-rule:evenodd;stroke:#7F7FFF;stroke-width:1.0px;stroke-linecap:butt;stroke-linejoin:miter;stroke-opacity:1"/>
<ellipse cx="139.9" cy="77.3" rx="12.9" ry="12.9" class="atom-15" style="fill:#7F7FFF;fill-rule:evenodd;stroke:#7F7FFF;stroke-width:1.0px;stroke-linecap:butt;stroke-linejoin:miter;stroke-opacity:1"/>
<path class="bond-0 atom-0 atom-1" d="M 12.6,62.2 L 33.9,74.6" style="fill:none;fill-rule:evenodd;stroke:#000000;stroke-width:2.0px;stroke-linecap:butt;stroke-linejoin:miter;stroke-opacity:1"/>
<path class="bond-1 atom-1 atom-2" d="M 38.0,82.1 L 37.9,106.4" style="fill:none;fill-rule:evenodd;stroke:#000000;stroke-width:2.0px;stroke-linecap:butt;stroke-linejoin:miter;stroke-opacity:1"/>
<path class="bond-2 atom-1 atom-3" d="M 42.1,74.6 L 63.5,62.4" style="fill:none;fill-rule:evenodd;stroke:#000000;stroke-width:2.0px;stroke-linecap:butt;stroke-linejoin:miter;stroke-opacity:1"/>
<path class="bond-3 atom-3 atom-4" d="M 65.7,63.7 L 65.8,38.3" style="fill:none;fill-rule:evenodd;stroke:#000000;stroke-width:2.0px;stroke-linecap:butt;stroke-linejoin:miter;stroke-opacity:1"/>
<path class="bond-3 atom-3 atom-4" d="M 61.3,63.6 L 61.4,38.3" style="fill:none;fill-rule:evenodd;stroke:#000000;stroke-width:2.0px;stroke-linecap:butt;stroke-linejoin:miter;stroke-opacity:1"/>
<path class="bond-4 atom-3 atom-5" d="M 63.5,62.4 L 84.8,74.8" style="fill:none;fill-rule:evenodd;stroke:#000000;stroke-width:2.0px;stroke-linecap:butt;stroke-linejoin:miter;stroke-opacity:1"/>
<path class="bond-5 atom-5 atom-6" d="M 93.1,74.8 L 114.4,62.6" style="fill:none;fill-rule:evenodd;stroke:#000000;stroke-width:2.0px;stroke-linecap:butt;stroke-linejoin:miter;stroke-opacity:1"/>
<path class="bond-6 atom-6 atom-7" d="M 114.4,62.6 L 114.5,33.2" style="fill:none;fill-rule:evenodd;stroke:#000000;stroke-width:2.0px;stroke-linecap:butt;stroke-linejoin:miter;stroke-opacity:1"/>
<path class="bond-6 atom-6 atom-7" d="M 118.9,60.0 L 118.9,35.7" style="fill:none;fill-rule:evenodd;stroke:#000000;stroke-width:2.0px;stroke-linecap:butt;stroke-linejoin:miter;stroke-opacity:1"/>
<path class="bond-7 atom-7 atom-8" d="M 114.5,33.2 L 140.1,18.6" style="fill:none;fill-rule:evenodd;stroke:#000000;stroke-width:2.0px;stroke-linecap:butt;stroke-linejoin:miter;stroke-opacity:1"/>
<path class="bond-8 atom-8 atom-9" d="M 140.1,18.6 L 165.5,33.3" style="fill:none;fill-rule:evenodd;stroke:#000000;stroke-width:2.0px;stroke-linecap:butt;stroke-linejoin:miter;stroke-opacity:1"/>
<path class="bond-8 atom-8 atom-9" d="M 140.0,23.6 L 161.0,35.9" style="fill:none;fill-rule:evenodd;stroke:#000000;stroke-width:2.0px;stroke-linecap:butt;stroke-linejoin:miter;stroke-opacity:1"/>
<path class="bond-9 atom-9 atom-10" d="M 165.5,33.3 L 165.4,62.7" style="fill:none;fill-rule:evenodd;stroke:#000000;stroke-width:2.0px;stroke-linecap:butt;stroke-linejoin:miter;stroke-opacity:1"/>
<path class="bond-10 atom-10 atom-11" d="M 165.4,62.7 L 190.8,77.5" style="fill:none;fill-rule:evenodd;stroke:#000000;stroke-width:2.0px;stroke-linecap:butt;stroke-linejoin:miter;stroke-opacity:1"/>
<path class="bond-11 atom-11 atom-12" d="M 190.8,77.5 L 212.7,90.3" style="fill:none;fill-rule:evenodd;stroke:#000000;stroke-width:2.0px;stroke-linecap:butt;stroke-linejoin:miter;stroke-opacity:1"/>
<path class="bond-12 atom-11 atom-13" d="M 190.8,77.5 L 179.0,97.8" style="fill:none;fill-rule:evenodd;stroke:#000000;stroke-width:2.0px;stroke-linecap:butt;stroke-linejoin:miter;stroke-opacity:1"/>
<path class="bond-13 atom-11 atom-14" d="M 190.8,77.5 L 202.6,57.3" style="fill:none;fill-rule:evenodd;stroke:#000000;stroke-width:2.0px;stroke-linecap:butt;stroke-linejoin:miter;stroke-opacity:1"/>
<path class="bond-14 atom-10 atom-15" d="M 165.4,62.7 L 139.9,77.3" style="fill:none;fill-rule:evenodd;stroke:#000000;stroke-width:2.0px;stroke-linecap:butt;stroke-linejoin:miter;stroke-opacity:1"/>
<path class="bond-14 atom-10 atom-15" d="M 161.0,60.2 L 139.9,72.3" style="fill:none;fill-rule:evenodd;stroke:#000000;stroke-width:2.0px;stroke-linecap:butt;stroke-linejoin:miter;stroke-opacity:1"/>
<path class="bond-15 atom-15 atom-6" d="M 139.9,77.3 L 114.4,62.6" style="fill:none;fill-rule:evenodd;stroke:#000000;stroke-width:2.0px;stroke-linecap:butt;stroke-linejoin:miter;stroke-opacity:1"/>
<path d="M 62.5,63.0 L 63.5,62.4 L 64.6,63.0" style="fill:none;stroke:#000000;stroke-width:2.0px;stroke-linecap:butt;stroke-linejoin:miter;stroke-miterlimit:10;stroke-opacity:1;"/>
<path d="M 114.5,34.6 L 114.5,33.2 L 115.8,32.4" style="fill:none;stroke:#000000;stroke-width:2.0px;stroke-linecap:butt;stroke-linejoin:miter;stroke-miterlimit:10;stroke-opacity:1;"/>
<path d="M 138.8,19.3 L 140.1,18.6 L 141.3,19.3" style="fill:none;stroke:#000000;stroke-width:2.0px;stroke-linecap:butt;stroke-linejoin:miter;stroke-miterlimit:10;stroke-opacity:1;"/>
<path d="M 164.2,32.6 L 165.5,33.3 L 165.5,34.8" style="fill:none;stroke:#000000;stroke-width:2.0px;stroke-linecap:butt;stroke-linejoin:miter;stroke-miterlimit:10;stroke-opacity:1;"/>
<path d="M 141.1,76.6 L 139.9,77.3 L 138.6,76.6" style="fill:none;stroke:#000000;stroke-width:2.0px;stroke-linecap:butt;stroke-linejoin:miter;stroke-miterlimit:10;stroke-opacity:1;"/>
<path class="atom-1" d="M 36.2 72.8 L 38.9 77.2 Q 39.2 77.7, 39.6 78.5 Q 40.0 79.2, 40.1 79.3 L 40.1 72.8 L 41.2 72.8 L 41.2 81.1 L 40.0 81.1 L 37.1 76.3 Q 36.8 75.8, 36.4 75.1 Q 36.0 74.5, 35.9 74.3 L 35.9 81.1 L 34.9 81.1 L 34.9 72.8 L 36.2 72.8 " fill="#000000"/>
<path class="atom-4" d="M 59.8 33.0 Q 59.8 31.0, 60.8 29.9 Q 61.8 28.8, 63.6 28.8 Q 65.5 28.8, 66.5 29.9 Q 67.4 31.0, 67.4 33.0 Q 67.4 35.0, 66.4 36.2 Q 65.5 37.3, 63.6 37.3 Q 61.8 37.3, 60.8 36.2 Q 59.8 35.0, 59.8 33.0 M 63.6 36.4 Q 64.9 36.4, 65.6 35.5 Q 66.3 34.7, 66.3 33.0 Q 66.3 31.4, 65.6 30.5 Q 64.9 29.7, 63.6 29.7 Q 62.4 29.7, 61.7 30.5 Q 61.0 31.4, 61.0 33.0 Q 61.0 34.7, 61.7 35.5 Q 62.4 36.4, 63.6 36.4 " fill="#000000"/>
<path class="atom-5" d="M 87.1 73.0 L 89.8 77.4 Q 90.1 77.8, 90.5 78.6 Q 91.0 79.4, 91.0 79.5 L 91.0 73.0 L 92.1 73.0 L 92.1 81.3 L 90.9 81.3 L 88.0 76.5 Q 87.7 75.9, 87.3 75.3 Q 87.0 74.7, 86.9 74.5 L 86.9 81.3 L 85.8 81.3 L 85.8 73.0 L 87.1 73.0 " fill="#000000"/>
<path class="atom-5" d="M 85.7 82.2 L 86.8 82.2 L 86.8 85.7 L 91.1 85.7 L 91.1 82.2 L 92.2 82.2 L 92.2 90.5 L 91.1 90.5 L 91.1 86.6 L 86.8 86.6 L 86.8 90.5 L 85.7 90.5 L 85.7 82.2 " fill="#000000"/>
<path class="atom-12" d="M 213.7 88.2 L 218.7 88.2 L 218.7 89.1 L 214.8 89.1 L 214.8 91.6 L 218.2 91.6 L 218.2 92.6 L 214.8 92.6 L 214.8 96.5 L 213.7 96.5 L 213.7 88.2 " fill="#000000"/>
<path class="atom-13" d="M 173.5 98.8 L 178.5 98.8 L 178.5 99.7 L 174.6 99.7 L 174.6 102.3 L 178.0 102.3 L 178.0 103.2 L 174.6 103.2 L 174.6 107.1 L 173.5 107.1 L 173.5 98.8 " fill="#000000"/>
<path class="atom-14" d="M 203.1 48.0 L 208.0 48.0 L 208.0 48.9 L 204.2 48.9 L 204.2 51.4 L 207.6 51.4 L 207.6 52.4 L 204.2 52.4 L 204.2 56.3 L 203.1 56.3 L 203.1 48.0 " fill="#000000"/>
</svg>