<svg xmlns="http://www.w3.org/2000/svg" xmlns:rdkit="http://www.rdkit.org/xml" xmlns:xlink="http://www.w3.org/1999/xlink" version="1.1" baseProfile="full" xml:space="preserve" width="256px" height="94px" viewBox="0 0 256 94">
<!-- END OF HEADER -->
<rect style="opacity:1.0;fill:#FFFFFF;stroke:none" width="256.0" height="94.0" x="0.0" y="0.0"> </rect>
<ellipse cx="13.5" cy="50.9" rx="0.3" ry="0.3" class="atom-0" style="fill:#7F7FFF;fill-rule:evenodd;stroke:#7F7FFF;stroke-width:1.0px;stroke-linecap:butt;stroke-linejoin:miter;stroke-opacity:1"/>
<ellipse cx="41.8" cy="42.7" rx="0.3" ry="0.3" class="atom-1" style="fill:#7F7FFF;fill-rule:evenodd;stroke:#7F7FFF;stroke-width:1.0px;stroke-linecap:butt;stroke-linejoin:miter;stroke-opacity:1"/>
<ellipse cx="63.0" cy="63.1" rx="1.0" ry="1.0" class="atom-2" style="fill:#FF7F7F;fill-rule:evenodd;stroke:#FF7F7F;stroke-width:1.0px;stroke-linecap:butt;stroke-linejoin:miter;stroke-opacity:1"/>
<ellipse cx="91.3" cy="54.9" rx="13.4" ry="13.4" class="atom-3" style="fill:#7F7FFF;fill-rule:evenodd;stroke:#7F7FFF;stroke-width:1.0px;stroke-linecap:butt;stroke-linejoin:miter;stroke-opacity:1"/>
<ellipse cx="98.4" cy="26.3" rx="13.4" ry="13.4" class="atom-4" style="fill:#7F7FFF;fill-rule:evenodd;stroke:#7F7FFF;stroke-width:1.0px;stroke-linecap:butt;stroke-linejoin:miter;stroke-opacity:1"/>
<ellipse cx="126.7" cy="18.1" rx="13.4" ry="13.4" class="atom-5" style="fill:#7F7FFF;fill-rule:evenodd;stroke:#7F7FFF;stroke-width:1.0px;stroke-linecap:butt;stroke-linejoin:miter;stroke-opacity:1"/>
<ellipse cx="147.9" cy="38.5" rx="13.4" ry="13.4" class="atom-6" style="fill:#7F7FFF;fill-rule:evenodd;stroke:#7F7FFF;stroke-width:1.0px;stroke-linecap:butt;stroke-linejoin:miter;stroke-opacity:1"/>
<ellipse cx="176.2" cy="30.3" rx="0.2" ry="0.2" class="atom-7" style="fill:#FF7F7F;fill-rule:evenodd;stroke:#FF7F7F;stroke-width:1.0px;stroke-linecap:butt;stroke-linejoin:miter;stroke-opacity:1"/>
<ellipse cx="197.5" cy="50.7" rx="4.9" ry="4.9" class="atom-8" style="fill:#FF7F7F;fill-rule:evenodd;stroke:#FF7F7F;stroke-width:1.0px;stroke-linecap:butt;stroke-linejoin:miter;stroke-opacity:1"/>
<ellipse cx="225.8" cy="42.5" rx="4.9" ry="4.9" class="atom-9" style="fill:#FF7F7F;fill-rule:evenodd;stroke:#FF7F7F;stroke-width:1.0px;stroke-linecap:butt;stroke-linejoin:miter;stroke-opacity:1"/>
<ellipse cx="190.5" cy="79.3" rx="4.9" ry="4.9" class="atom-10" style="fill:#FF7F7F;fill-rule:evenodd;stroke:#FF7F7F;stroke-width:1.0px;stroke-linecap:butt;stroke-linejoin:miter;stroke-opacity:1"/>
<ellipse cx="140.9" cy="67.1" rx="13.4" ry="13.4" class="atom-11" style="fill:#7F7FFF;fill-rule:evenodd;stroke:#7F7FFF;stroke-width:1.0px;stroke-linecap:butt;stroke-linejoin:miter;stroke-opacity:1"/>
<ellipse cx="112.6" cy="75.3" rx="13.4" ry="13.4" class="atom-12" style="fill:#7F7FFF;fill-rule:evenodd;stroke:#7F7FFF;stroke-width:1.0px;stroke-linecap:butt;stroke-linejoin:miter;stroke-opacity:1"/>
<path class="bond-0 atom-0 atom-1" d="M 13.5,50.9 L 41.8,42.7" style="fill:none;fill-rule:evenodd;stroke:#000000;stroke-width:2.0px;stroke-linecap:butt;stroke-linejoin:miter;stroke-opacity:1"/>
<path class="bond-1 atom-1 atom-2" d="M 41.8,42.7 L 58.2,58.5" style="fill:none;fill-rule:evenodd;stroke:#000000;stroke-width:2.0px;stroke-linecap:butt;stroke-linejoin:miter;stroke-opacity:1"/>
<path class="bond-2 atom-2 atom-3" d="M 67.8,61.7 L 91.3,54.9" style="fill:none;fill-rule:evenodd;stroke:#000000;stroke-width:2.0px;stroke-linecap:butt;stroke-linejoin:miter;stroke-opacity:1"/>
<path class="bond-3 atom-3 atom-4" d="M 91.3,54.9 L 98.4,26.3" style="fill:none;fill-rule:evenodd;stroke:#000000;stroke-width:2.0px;stroke-linecap:butt;stroke-linejoin:miter;stroke-opacity:1"/>
<path class="bond-3 atom-3 atom-4" d="M 96.2,53.5 L 102.1,29.8" style="fill:none;fill-rule:evenodd;stroke:#000000;stroke-width:2.0px;stroke-linecap:butt;stroke-linejoin:miter;stroke-opacity:1"/>
<path class="bond-4 atom-4 atom-5" d="M 98.4,26.3 L 126.7,18.1" style="fill:none;fill-rule:evenodd;stroke:#000000;stroke-width:2.0px;stroke-linecap:butt;stroke-linejoin:miter;stroke-opacity:1"/>
<path class="bond-5 atom-5 atom-6" d="M 126.7,18.1 L 147.9,38.5" style="fill:none;fill-rule:evenodd;stroke:#000000;stroke-width:2.0px;stroke-linecap:butt;stroke-linejoin:miter;stroke-opacity:1"/>
<path class="bond-5 atom-5 atom-6" d="M 125.5,23.0 L 143.0,39.9" style="fill:none;fill-rule:evenodd;stroke:#000000;stroke-width:2.0px;stroke-linecap:butt;stroke-linejoin:miter;stroke-opacity:1"/>
<path class="bond-6 atom-6 atom-7" d="M 147.9,38.5 L 172.1,31.5" style="fill:none;fill-rule:evenodd;stroke:#000000;stroke-width:2.0px;stroke-linecap:butt;stroke-linejoin:miter;stroke-opacity:1"/>
<path class="bond-7 atom-7 atom-8" d="M 180.4,34.3 L 197.5,50.7" style="fill:none;fill-rule:evenodd;stroke:#000000;stroke-width:2.0px;stroke-linecap:butt;stroke-linejoin:miter;stroke-opacity:1"/>
<path class="bond-8 atom-8 atom-9" d="M 197.5,50.7 L 221.7,43.7" style="fill:none;fill-rule:evenodd;stroke:#000000;stroke-width:2.0px;stroke-linecap:butt;stroke-linejoin:miter;stroke-opacity:1"/>
<path class="bond-9 atom-8 atom-10" d="M 195.7,48.9 L 189.6,73.6" style="fill:none;fill-rule:evenodd;stroke:#000000;stroke-width:2.0px;stroke-linecap:butt;stroke-linejoin:miter;stroke-opacity:1"/>
<path class="bond-9 atom-8 atom-10" d="M 200.0,50.0 L 193.9,74.6" style="fill:none;fill-rule:evenodd;stroke:#000000;stroke-width:2.0px;stroke-linecap:butt;stroke-linejoin:miter;stroke-opacity:1"/>
<path class="bond-10 atom-6 atom-11" d="M 147.9,38.5 L 140.9,67.1" style="fill:none;fill-rule:evenodd;stroke:#000000;stroke-width:2.0px;stroke-linecap:butt;stroke-linejoin:miter;stroke-opacity:1"/>
<path class="bond-11 atom-11 atom-12" d="M 140.9,67.1 L 112.6,75.3" style="fill:none;fill-rule:evenodd;stroke:#000000;stroke-width:2.0px;stroke-linecap:butt;stroke-linejoin:miter;stroke-opacity:1"/>
<path class="bond-11 atom-11 atom-12" d="M 137.2,63.6 L 113.8,70.4" style="fill:none;fill-rule:evenodd;stroke:#000000;stroke-width:2.0px;stroke-linecap:butt;stroke-linejoin:miter;stroke-opacity:1"/>
<path class="bond-12 atom-12 atom-3" d="M 112.6,75.3 L 91.3,54.9" style="fill:none;fill-rule:evenodd;stroke:#000000;stroke-width:2.0px;stroke-linecap:butt;stroke-linejoin:miter;stroke-opacity:1"/>
<path d="M 40.4,43.1 L 41.8,42.7 L 42.6,43.5" style="fill:none;stroke:#000000;stroke-width:2.0px;stroke-linecap:butt;stroke-linejoin:miter;stroke-miterlimit:10;stroke-opacity:1;"/>
<path d="M 98.0,27.7 L 98.4,26.3 L 99.8,25.9" style="fill:none;stroke:#000000;stroke-width:2.0px;stroke-linecap:butt;stroke-linejoin:miter;stroke-miterlimit:10;stroke-opacity:1;"/>
<path d="M 125.3,18.5 L 126.7,18.1 L 127.7,19.1" style="fill:none;stroke:#000000;stroke-width:2.0px;stroke-linecap:butt;stroke-linejoin:miter;stroke-miterlimit:10;stroke-opacity:1;"/>
<path d="M 196.6,49.9 L 197.5,50.7 L 198.7,50.3" style="fill:none;stroke:#000000;stroke-width:2.0px;stroke-linecap:butt;stroke-linejoin:miter;stroke-miterlimit:10;stroke-opacity:1;"/>
<path d="M 141.3,65.7 L 140.9,67.1 L 139.5,67.5" style="fill:none;stroke:#000000;stroke-width:2.0px;stroke-linecap:butt;stroke-linejoin:miter;stroke-miterlimit:10;stroke-opacity:1;"/>
<path d="M 114.0,74.9 L 112.6,75.3 L 111.5,74.3" style="fill:none;stroke:#000000;stroke-width:2.0px;stroke-linecap:butt;stroke-linejoin:miter;stroke-miterlimit:10;stroke-opacity:1;"/>
<path class="atom-2" d="M 59.2 63.1 Q 59.2 61.1, 60.2 60.0 Q 61.2 58.9, 63.0 58.9 Q 64.9 58.9, 65.9 60.0 Q 66.9 61.1, 66.9 63.1 Q 66.9 65.2, 65.9 66.3 Q 64.9 67.5, 63.0 67.5 Q 61.2 67.5, 60.2 66.3 Q 59.2 65.2, 59.2 63.1 M 63.0 66.5 Q 64.3 66.5, 65.0 65.7 Q 65.7 64.8, 65.7 63.1 Q 65.7 61.5, 65.0 60.7 Q 64.3 59.8, 63.0 59.8 Q 61.8 59.8, 61.1 60.7 Q 60.4 61.5, 60.4 63.1 Q 60.4 64.8, 61.1 65.7 Q 61.8 66.5, 63.0 66.5 " fill="#000000"/>
<path class="atom-7" d="M 174.4 26.1 L 177.1 30.5 Q 177.4 31.0, 177.8 31.8 Q 178.3 32.5, 178.3 32.6 L 178.3 26.1 L 179.4 26.1 L 179.4 34.5 L 178.3 34.5 L 175.3 29.6 Q 175.0 29.1, 174.6 28.4 Q 174.3 27.8, 174.2 27.6 L 174.2 34.5 L 173.1 34.5 L 173.1 26.1 L 174.4 26.1 " fill="#000000"/>
<path class="atom-7" d="M 173.0 16.9 L 174.1 16.9 L 174.1 20.5 L 178.4 20.5 L 178.4 16.9 L 179.5 16.9 L 179.5 25.3 L 178.4 25.3 L 178.4 21.4 L 174.1 21.4 L 174.1 25.3 L 173.0 25.3 L 173.0 16.9 " fill="#000000"/>
<path class="atom-9" d="M 224.0 38.3 L 226.7 42.7 Q 227.0 43.2, 227.4 44.0 Q 227.8 44.7, 227.9 44.8 L 227.9 38.3 L 229.0 38.3 L 229.0 46.7 L 227.8 46.7 L 224.9 41.8 Q 224.5 41.3, 224.2 40.6 Q 223.8 40.0, 223.7 39.8 L 223.7 46.7 L 222.6 46.7 L 222.6 38.3 L 224.0 38.3 " fill="#000000"/>
<path class="atom-9" d="M 230.6 38.3 L 231.7 38.3 L 231.7 41.9 L 236.0 41.9 L 236.0 38.3 L 237.1 38.3 L 237.1 46.7 L 236.0 46.7 L 236.0 42.8 L 231.7 42.8 L 231.7 46.7 L 230.6 46.7 L 230.6 38.3 " fill="#000000"/>
<path class="atom-9" d="M 238.7 46.4 Q 238.9 45.8, 239.4 45.6 Q 239.9 45.3, 240.6 45.3 Q 241.4 45.3, 241.9 45.7 Q 242.3 46.2, 242.3 47.0 Q 242.3 47.8, 241.7 48.5 Q 241.1 49.3, 239.9 50.2 L 242.4 50.2 L 242.4 50.8 L 238.7 50.8 L 238.7 50.3 Q 239.7 49.6, 240.3 49.0 Q 241.0 48.5, 241.3 48.0 Q 241.5 47.5, 241.5 47.0 Q 241.5 46.5, 241.3 46.2 Q 241.0 45.9, 240.6 45.9 Q 240.1 45.9, 239.8 46.1 Q 239.5 46.2, 239.3 46.6 L 238.7 46.4 " fill="#000000"/>
<path class="atom-10" d="M 186.6 79.3 Q 186.6 77.3, 187.6 76.2 Q 188.6 75.1, 190.5 75.1 Q 192.3 75.1, 193.3 76.2 Q 194.3 77.3, 194.3 79.3 Q 194.3 81.4, 193.3 82.5 Q 192.3 83.7, 190.5 83.7 Q 188.6 83.7, 187.6 82.5 Q 186.6 81.4, 186.6 79.3 M 190.5 82.7 Q 191.7 82.7, 192.4 81.9 Q 193.1 81.0, 193.1 79.3 Q 193.1 77.7, 192.4 76.9 Q 191.7 76.0, 190.5 76.0 Q 189.2 76.0, 188.5 76.9 Q 187.8 77.7, 187.8 79.3 Q 187.8 81.0, 188.5 81.9 Q 189.2 82.7, 190.5 82.7 " fill="#000000"/>
</svg>