<svg xmlns="http://www.w3.org/2000/svg" xmlns:rdkit="http://www.rdkit.org/xml" xmlns:xlink="http://www.w3.org/1999/xlink" version="1.1" baseProfile="full" xml:space="preserve" width="262px" height="81px" viewBox="0 0 262 81">
<!-- END OF HEADER -->
<rect style="opacity:1.0;fill:#FFFFFF;stroke:none" width="262.0" height="81.0" x="0.0" y="0.0"> </rect>
<path class="bond-0 atom-0 atom-1" d="M 19.5,38.3 L 47.4,30.2 L 49.7,38.1 L 21.7,46.1 Z" style="fill:#FCFCFF;fill-rule:evenodd;fill-opacity:1;stroke:#FCFCFF;stroke-width:2.0px;stroke-linecap:butt;stroke-linejoin:miter;stroke-miterlimit:10;stroke-opacity:1;"/>
<path class="bond-3 atom-3 atom-4" d="M 93.4,45.2 L 100.4,17.0 L 108.3,18.9 L 101.4,47.1 Z" style="fill:#8A8AFF;fill-rule:evenodd;fill-opacity:1;stroke:#8A8AFF;stroke-width:2.0px;stroke-linecap:butt;stroke-linejoin:miter;stroke-miterlimit:10;stroke-opacity:1;"/>
<path class="bond-4 atom-4 atom-5" d="M 103.2,14.0 L 131.1,6.0 L 133.4,13.8 L 105.5,21.9 Z" style="fill:#8A8AFF;fill-rule:evenodd;fill-opacity:1;stroke:#8A8AFF;stroke-width:2.0px;stroke-linecap:butt;stroke-linejoin:miter;stroke-miterlimit:10;stroke-opacity:1;"/>
<path class="bond-5 atom-5 atom-6" d="M 135.1,6.9 L 156.0,27.1 L 150.4,32.9 L 129.4,12.8 Z" style="fill:#8A8AFF;fill-rule:evenodd;fill-opacity:1;stroke:#8A8AFF;stroke-width:2.0px;stroke-linecap:butt;stroke-linejoin:miter;stroke-miterlimit:10;stroke-opacity:1;"/>
<path class="bond-8 atom-8 atom-9" d="M 201.0,38.1 L 228.9,30.0 L 231.1,37.8 L 203.2,45.9 Z" style="fill:#FFD4D4;fill-rule:evenodd;fill-opacity:1;stroke:#FFD4D4;stroke-width:2.0px;stroke-linecap:butt;stroke-linejoin:miter;stroke-miterlimit:10;stroke-opacity:1;"/>
<path class="bond-9 atom-8 atom-10" d="M 206.1,43.0 L 199.1,71.2 L 191.2,69.3 L 198.1,41.0 Z" style="fill:#FFD4D4;fill-rule:evenodd;fill-opacity:1;stroke:#FFD4D4;stroke-width:2.0px;stroke-linecap:butt;stroke-linejoin:miter;stroke-miterlimit:10;stroke-opacity:1;"/>
<path class="bond-10 atom-6 atom-11" d="M 157.2,31.0 L 150.2,59.2 L 142.3,57.2 L 149.3,29.0 Z" style="fill:#8A8AFF;fill-rule:evenodd;fill-opacity:1;stroke:#8A8AFF;stroke-width:2.0px;stroke-linecap:butt;stroke-linejoin:miter;stroke-miterlimit:10;stroke-opacity:1;"/>
<path class="bond-11 atom-11 atom-12" d="M 147.4,62.1 L 119.5,70.2 L 117.2,62.4 L 145.1,54.3 Z" style="fill:#8A8AFF;fill-rule:evenodd;fill-opacity:1;stroke:#8A8AFF;stroke-width:2.0px;stroke-linecap:butt;stroke-linejoin:miter;stroke-miterlimit:10;stroke-opacity:1;"/>
<path class="bond-12 atom-12 atom-3" d="M 115.5,69.2 L 94.6,49.1 L 100.2,43.2 L 121.2,63.4 Z" style="fill:#8A8AFF;fill-rule:evenodd;fill-opacity:1;stroke:#8A8AFF;stroke-width:2.0px;stroke-linecap:butt;stroke-linejoin:miter;stroke-miterlimit:10;stroke-opacity:1;"/>
<ellipse cx="20.6" cy="42.2" rx="5.8" ry="5.8" class="atom-0" style="fill:#FCFCFF;fill-rule:evenodd;stroke:#FCFCFF;stroke-width:1.0px;stroke-linecap:butt;stroke-linejoin:miter;stroke-opacity:1"/>
<ellipse cx="48.5" cy="34.1" rx="5.8" ry="5.8" class="atom-1" style="fill:#FCFCFF;fill-rule:evenodd;stroke:#FCFCFF;stroke-width:1.0px;stroke-linecap:butt;stroke-linejoin:miter;stroke-opacity:1"/>
<ellipse cx="69.5" cy="54.3" rx="5.8" ry="5.8" class="atom-2" style="fill:#FFF6F6;fill-rule:evenodd;stroke:#FFF6F6;stroke-width:1.0px;stroke-linecap:butt;stroke-linejoin:miter;stroke-opacity:1"/>
<ellipse cx="97.4" cy="46.2" rx="5.8" ry="5.8" class="atom-3" style="fill:#8A8AFF;fill-rule:evenodd;stroke:#8A8AFF;stroke-width:1.0px;stroke-linecap:butt;stroke-linejoin:miter;stroke-opacity:1"/>
<ellipse cx="104.3" cy="18.0" rx="5.8" ry="5.8" class="atom-4" style="fill:#8A8AFF;fill-rule:evenodd;stroke:#8A8AFF;stroke-width:1.0px;stroke-linecap:butt;stroke-linejoin:miter;stroke-opacity:1"/>
<ellipse cx="132.3" cy="9.9" rx="5.8" ry="5.8" class="atom-5" style="fill:#8A8AFF;fill-rule:evenodd;stroke:#8A8AFF;stroke-width:1.0px;stroke-linecap:butt;stroke-linejoin:miter;stroke-opacity:1"/>
<ellipse cx="153.2" cy="30.0" rx="5.8" ry="5.8" class="atom-6" style="fill:#8A8AFF;fill-rule:evenodd;stroke:#8A8AFF;stroke-width:1.0px;stroke-linecap:butt;stroke-linejoin:miter;stroke-opacity:1"/>
<ellipse cx="181.1" cy="21.9" rx="5.8" ry="5.8" class="atom-7" style="fill:#FFFEFE;fill-rule:evenodd;stroke:#FFFEFE;stroke-width:1.0px;stroke-linecap:butt;stroke-linejoin:miter;stroke-opacity:1"/>
<ellipse cx="202.1" cy="42.0" rx="5.8" ry="5.8" class="atom-8" style="fill:#FFD4D4;fill-rule:evenodd;stroke:#FFD4D4;stroke-width:1.0px;stroke-linecap:butt;stroke-linejoin:miter;stroke-opacity:1"/>
<ellipse cx="230.0" cy="33.9" rx="5.8" ry="5.8" class="atom-9" style="fill:#FFD4D4;fill-rule:evenodd;stroke:#FFD4D4;stroke-width:1.0px;stroke-linecap:butt;stroke-linejoin:miter;stroke-opacity:1"/>
<ellipse cx="195.2" cy="70.2" rx="5.8" ry="5.8" class="atom-10" style="fill:#FFD4D4;fill-rule:evenodd;stroke:#FFD4D4;stroke-width:1.0px;stroke-linecap:butt;stroke-linejoin:miter;stroke-opacity:1"/>
<ellipse cx="146.3" cy="58.2" rx="5.8" ry="5.8" class="atom-11" style="fill:#8A8AFF;fill-rule:evenodd;stroke:#8A8AFF;stroke-width:1.0px;stroke-linecap:butt;stroke-linejoin:miter;stroke-opacity:1"/>
<ellipse cx="118.4" cy="66.3" rx="5.8" ry="5.8" class="atom-12" style="fill:#8A8AFF;fill-rule:evenodd;stroke:#8A8AFF;stroke-width:1.0px;stroke-linecap:butt;stroke-linejoin:miter;stroke-opacity:1"/>
<path class="bond-0 atom-0 atom-1" d="M 20.6,42.2 L 48.5,34.1" style="fill:none;fill-rule:evenodd;stroke:#000000;stroke-width:2.0px;stroke-linecap:butt;stroke-linejoin:miter;stroke-opacity:1"/>
<path class="bond-1 atom-1 atom-2" d="M 48.5,34.1 L 64.8,49.7" style="fill:none;fill-rule:evenodd;stroke:#000000;stroke-width:2.0px;stroke-linecap:butt;stroke-linejoin:miter;stroke-opacity:1"/>
<path class="bond-2 atom-2 atom-3" d="M 74.2,52.9 L 97.4,46.2" style="fill:none;fill-rule:evenodd;stroke:#000000;stroke-width:2.0px;stroke-linecap:butt;stroke-linejoin:miter;stroke-opacity:1"/>
<path class="bond-3 atom-3 atom-4" d="M 97.4,46.2 L 104.3,18.0" style="fill:none;fill-rule:evenodd;stroke:#000000;stroke-width:2.0px;stroke-linecap:butt;stroke-linejoin:miter;stroke-opacity:1"/>
<path class="bond-3 atom-3 atom-4" d="M 102.2,44.8 L 108.0,21.4" style="fill:none;fill-rule:evenodd;stroke:#000000;stroke-width:2.0px;stroke-linecap:butt;stroke-linejoin:miter;stroke-opacity:1"/>
<path class="bond-4 atom-4 atom-5" d="M 104.3,18.0 L 132.3,9.9" style="fill:none;fill-rule:evenodd;stroke:#000000;stroke-width:2.0px;stroke-linecap:butt;stroke-linejoin:miter;stroke-opacity:1"/>
<path class="bond-5 atom-5 atom-6" d="M 132.3,9.9 L 153.2,30.0" style="fill:none;fill-rule:evenodd;stroke:#000000;stroke-width:2.0px;stroke-linecap:butt;stroke-linejoin:miter;stroke-opacity:1"/>
<path class="bond-5 atom-5 atom-6" d="M 131.1,14.7 L 148.4,31.4" style="fill:none;fill-rule:evenodd;stroke:#000000;stroke-width:2.0px;stroke-linecap:butt;stroke-linejoin:miter;stroke-opacity:1"/>
<path class="bond-6 atom-6 atom-7" d="M 153.2,30.0 L 177.1,23.1" style="fill:none;fill-rule:evenodd;stroke:#000000;stroke-width:2.0px;stroke-linecap:butt;stroke-linejoin:miter;stroke-opacity:1"/>
<path class="bond-7 atom-7 atom-8" d="M 185.2,25.8 L 202.1,42.0" style="fill:none;fill-rule:evenodd;stroke:#000000;stroke-width:2.0px;stroke-linecap:butt;stroke-linejoin:miter;stroke-opacity:1"/>
<path class="bond-8 atom-8 atom-9" d="M 202.1,42.0 L 225.9,35.1" style="fill:none;fill-rule:evenodd;stroke:#000000;stroke-width:2.0px;stroke-linecap:butt;stroke-linejoin:miter;stroke-opacity:1"/>
<path class="bond-9 atom-8 atom-10" d="M 200.3,40.3 L 194.3,64.6" style="fill:none;fill-rule:evenodd;stroke:#000000;stroke-width:2.0px;stroke-linecap:butt;stroke-linejoin:miter;stroke-opacity:1"/>
<path class="bond-9 atom-8 atom-10" d="M 204.5,41.3 L 198.5,65.6" style="fill:none;fill-rule:evenodd;stroke:#000000;stroke-width:2.0px;stroke-linecap:butt;stroke-linejoin:miter;stroke-opacity:1"/>
<path class="bond-10 atom-6 atom-11" d="M 153.2,30.0 L 146.3,58.2" style="fill:none;fill-rule:evenodd;stroke:#000000;stroke-width:2.0px;stroke-linecap:butt;stroke-linejoin:miter;stroke-opacity:1"/>
<path class="bond-11 atom-11 atom-12" d="M 146.3,58.2 L 118.4,66.3" style="fill:none;fill-rule:evenodd;stroke:#000000;stroke-width:2.0px;stroke-linecap:butt;stroke-linejoin:miter;stroke-opacity:1"/>
<path class="bond-11 atom-11 atom-12" d="M 142.6,54.7 L 119.6,61.4" style="fill:none;fill-rule:evenodd;stroke:#000000;stroke-width:2.0px;stroke-linecap:butt;stroke-linejoin:miter;stroke-opacity:1"/>
<path class="bond-12 atom-12 atom-3" d="M 118.4,66.3 L 97.4,46.2" style="fill:none;fill-rule:evenodd;stroke:#000000;stroke-width:2.0px;stroke-linecap:butt;stroke-linejoin:miter;stroke-opacity:1"/>
<path d="M 47.1,34.5 L 48.5,34.1 L 49.3,34.9" style="fill:none;stroke:#000000;stroke-width:2.0px;stroke-linecap:butt;stroke-linejoin:miter;stroke-miterlimit:10;stroke-opacity:1;"/>
<path d="M 104.0,19.4 L 104.3,18.0 L 105.7,17.6" style="fill:none;stroke:#000000;stroke-width:2.0px;stroke-linecap:butt;stroke-linejoin:miter;stroke-miterlimit:10;stroke-opacity:1;"/>
<path d="M 130.9,10.3 L 132.3,9.9 L 133.3,10.9" style="fill:none;stroke:#000000;stroke-width:2.0px;stroke-linecap:butt;stroke-linejoin:miter;stroke-miterlimit:10;stroke-opacity:1;"/>
<path d="M 201.3,41.2 L 202.1,42.0 L 203.3,41.7" style="fill:none;stroke:#000000;stroke-width:2.0px;stroke-linecap:butt;stroke-linejoin:miter;stroke-miterlimit:10;stroke-opacity:1;"/>
<path d="M 146.6,56.8 L 146.3,58.2 L 144.9,58.6" style="fill:none;stroke:#000000;stroke-width:2.0px;stroke-linecap:butt;stroke-linejoin:miter;stroke-miterlimit:10;stroke-opacity:1;"/>
<path d="M 119.8,65.9 L 118.4,66.3 L 117.3,65.3" style="fill:none;stroke:#000000;stroke-width:2.0px;stroke-linecap:butt;stroke-linejoin:miter;stroke-miterlimit:10;stroke-opacity:1;"/>
<path class="atom-2" d="M 65.7 54.3 Q 65.7 52.3, 66.7 51.2 Q 67.7 50.1, 69.5 50.1 Q 71.3 50.1, 72.3 51.2 Q 73.3 52.3, 73.3 54.3 Q 73.3 56.3, 72.3 57.4 Q 71.3 58.6, 69.5 58.6 Q 67.7 58.6, 66.7 57.4 Q 65.7 56.3, 65.7 54.3 M 69.5 57.6 Q 70.7 57.6, 71.4 56.8 Q 72.1 55.9, 72.1 54.3 Q 72.1 52.7, 71.4 51.9 Q 70.7 51.0, 69.5 51.0 Q 68.2 51.0, 67.5 51.9 Q 66.9 52.7, 66.9 54.3 Q 66.9 56.0, 67.5 56.8 Q 68.2 57.6, 69.5 57.6 " fill="#000000"/>
<path class="atom-7" d="M 179.3 17.8 L 182.0 22.1 Q 182.3 22.6, 182.7 23.3 Q 183.1 24.1, 183.2 24.2 L 183.2 17.8 L 184.3 17.8 L 184.3 26.0 L 183.1 26.0 L 180.2 21.2 Q 179.9 20.7, 179.5 20.0 Q 179.2 19.4, 179.1 19.2 L 179.1 26.0 L 178.0 26.0 L 178.0 17.8 L 179.3 17.8 " fill="#000000"/>
<path class="atom-7" d="M 177.9 8.7 L 179.0 8.7 L 179.0 12.2 L 183.2 12.2 L 183.2 8.7 L 184.4 8.7 L 184.4 17.0 L 183.2 17.0 L 183.2 13.2 L 179.0 13.2 L 179.0 17.0 L 177.9 17.0 L 177.9 8.7 " fill="#000000"/>
<path class="atom-9" d="M 228.2 29.8 L 230.9 34.2 Q 231.2 34.6, 231.6 35.4 Q 232.0 36.2, 232.0 36.2 L 232.0 29.8 L 233.1 29.8 L 233.1 38.0 L 232.0 38.0 L 229.1 33.3 Q 228.8 32.7, 228.4 32.1 Q 228.1 31.4, 228.0 31.2 L 228.0 38.0 L 226.9 38.0 L 226.9 29.8 L 228.2 29.8 " fill="#000000"/>
<path class="atom-9" d="M 234.7 29.8 L 235.8 29.8 L 235.8 33.3 L 240.0 33.3 L 240.0 29.8 L 241.1 29.8 L 241.1 38.0 L 240.0 38.0 L 240.0 34.2 L 235.8 34.2 L 235.8 38.0 L 234.7 38.0 L 234.7 29.8 " fill="#000000"/>
<path class="atom-9" d="M 242.8 37.8 Q 243.0 37.2, 243.4 37.0 Q 243.9 36.7, 244.6 36.7 Q 245.4 36.7, 245.8 37.1 Q 246.3 37.6, 246.3 38.3 Q 246.3 39.1, 245.7 39.9 Q 245.1 40.7, 243.9 41.5 L 246.4 41.5 L 246.4 42.2 L 242.7 42.2 L 242.7 41.6 Q 243.8 40.9, 244.4 40.4 Q 245.0 39.8, 245.2 39.4 Q 245.5 38.9, 245.5 38.4 Q 245.5 37.9, 245.3 37.6 Q 245.0 37.3, 244.6 37.3 Q 244.1 37.3, 243.8 37.5 Q 243.5 37.6, 243.3 38.0 L 242.8 37.8 " fill="#000000"/>
<path class="atom-10" d="M 191.4 70.3 Q 191.4 68.3, 192.4 67.2 Q 193.3 66.1, 195.2 66.1 Q 197.0 66.1, 198.0 67.2 Q 198.9 68.3, 198.9 70.3 Q 198.9 72.3, 197.9 73.4 Q 197.0 74.5, 195.2 74.5 Q 193.3 74.5, 192.4 73.4 Q 191.4 72.3, 191.4 70.3 M 195.2 73.6 Q 196.4 73.6, 197.1 72.8 Q 197.8 71.9, 197.8 70.3 Q 197.8 68.6, 197.1 67.8 Q 196.4 67.0, 195.2 67.0 Q 193.9 67.0, 193.2 67.8 Q 192.5 68.6, 192.5 70.3 Q 192.5 71.9, 193.2 72.8 Q 193.9 73.6, 195.2 73.6 " fill="#000000"/>
</svg>