<svg xmlns="http://www.w3.org/2000/svg" xmlns:rdkit="http://www.rdkit.org/xml" xmlns:xlink="http://www.w3.org/1999/xlink" version="1.1" baseProfile="full" xml:space="preserve" width="187px" height="117px" viewBox="0 0 187 117">
<!-- END OF HEADER -->
<rect style="opacity:1.0;fill:#FFFFFF;stroke:none" width="187.0" height="117.0" x="0.0" y="0.0"> </rect>
<ellipse cx="73.5" cy="107.1" rx="0.7" ry="0.7" class="atom-0" style="fill:#7F7FFF;fill-rule:evenodd;stroke:#7F7FFF;stroke-width:1.0px;stroke-linecap:butt;stroke-linejoin:miter;stroke-opacity:1"/>
<ellipse cx="101.1" cy="96.8" rx="0.7" ry="0.7" class="atom-1" style="fill:#7F7FFF;fill-rule:evenodd;stroke:#7F7FFF;stroke-width:1.0px;stroke-linecap:butt;stroke-linejoin:miter;stroke-opacity:1"/>
<ellipse cx="106.0" cy="67.7" rx="0.8" ry="0.8" class="atom-2" style="fill:#7F7FFF;fill-rule:evenodd;stroke:#7F7FFF;stroke-width:1.0px;stroke-linecap:butt;stroke-linejoin:miter;stroke-opacity:1"/>
<ellipse cx="76.4" cy="68.0" rx="7.3" ry="7.3" class="atom-3" style="fill:#7F7FFF;fill-rule:evenodd;stroke:#7F7FFF;stroke-width:1.0px;stroke-linecap:butt;stroke-linejoin:miter;stroke-opacity:1"/>
<ellipse cx="61.4" cy="42.5" rx="7.3" ry="7.3" class="atom-4" style="fill:#7F7FFF;fill-rule:evenodd;stroke:#7F7FFF;stroke-width:1.0px;stroke-linecap:butt;stroke-linejoin:miter;stroke-opacity:1"/>
<ellipse cx="31.9" cy="42.8" rx="7.3" ry="7.3" class="atom-5" style="fill:#7F7FFF;fill-rule:evenodd;stroke:#7F7FFF;stroke-width:1.0px;stroke-linecap:butt;stroke-linejoin:miter;stroke-opacity:1"/>
<ellipse cx="16.9" cy="17.4" rx="7.3" ry="7.3" class="atom-6" style="fill:#7F7FFF;fill-rule:evenodd;stroke:#7F7FFF;stroke-width:1.0px;stroke-linecap:butt;stroke-linejoin:miter;stroke-opacity:1"/>
<ellipse cx="17.4" cy="68.5" rx="7.3" ry="7.3" class="atom-7" style="fill:#7F7FFF;fill-rule:evenodd;stroke:#7F7FFF;stroke-width:1.0px;stroke-linecap:butt;stroke-linejoin:miter;stroke-opacity:1"/>
<ellipse cx="100.5" cy="38.7" rx="0.8" ry="0.8" class="atom-8" style="fill:#7F7FFF;fill-rule:evenodd;stroke:#7F7FFF;stroke-width:1.0px;stroke-linecap:butt;stroke-linejoin:miter;stroke-opacity:1"/>
<ellipse cx="72.7" cy="28.8" rx="0.8" ry="0.8" class="atom-9" style="fill:#7F7FFF;fill-rule:evenodd;stroke:#7F7FFF;stroke-width:1.0px;stroke-linecap:butt;stroke-linejoin:miter;stroke-opacity:1"/>
<ellipse cx="123.0" cy="19.5" rx="0.8" ry="0.8" class="atom-10" style="fill:#7F7FFF;fill-rule:evenodd;stroke:#7F7FFF;stroke-width:1.0px;stroke-linecap:butt;stroke-linejoin:miter;stroke-opacity:1"/>
<ellipse cx="150.8" cy="29.3" rx="0.8" ry="0.8" class="atom-11" style="fill:#7F7FFF;fill-rule:evenodd;stroke:#7F7FFF;stroke-width:1.0px;stroke-linecap:butt;stroke-linejoin:miter;stroke-opacity:1"/>
<ellipse cx="173.2" cy="10.1" rx="0.8" ry="0.8" class="atom-12" style="fill:#7F7FFF;fill-rule:evenodd;stroke:#7F7FFF;stroke-width:1.0px;stroke-linecap:butt;stroke-linejoin:miter;stroke-opacity:1"/>
<ellipse cx="156.2" cy="58.3" rx="0.8" ry="0.8" class="atom-13" style="fill:#7F7FFF;fill-rule:evenodd;stroke:#7F7FFF;stroke-width:1.0px;stroke-linecap:butt;stroke-linejoin:miter;stroke-opacity:1"/>
<ellipse cx="133.8" cy="77.5" rx="0.8" ry="0.8" class="atom-14" style="fill:#7F7FFF;fill-rule:evenodd;stroke:#7F7FFF;stroke-width:1.0px;stroke-linecap:butt;stroke-linejoin:miter;stroke-opacity:1"/>
<ellipse cx="139.2" cy="106.5" rx="0.8" ry="0.8" class="atom-15" style="fill:#7F7FFF;fill-rule:evenodd;stroke:#7F7FFF;stroke-width:1.0px;stroke-linecap:butt;stroke-linejoin:miter;stroke-opacity:1"/>
<path class="bond-0 atom-0 atom-1" d="M 73.5,107.1 L 101.1,96.8" style="fill:none;fill-rule:evenodd;stroke:#000000;stroke-width:2.0px;stroke-linecap:butt;stroke-linejoin:miter;stroke-opacity:1"/>
<path class="bond-1 atom-1 atom-2" d="M 101.1,96.8 L 106.0,67.7" style="fill:none;fill-rule:evenodd;stroke:#000000;stroke-width:2.0px;stroke-linecap:butt;stroke-linejoin:miter;stroke-opacity:1"/>
<path class="bond-2 atom-2 atom-3" d="M 106.0,67.7 L 76.4,68.0" style="fill:none;fill-rule:evenodd;stroke:#000000;stroke-width:2.0px;stroke-linecap:butt;stroke-linejoin:miter;stroke-opacity:1"/>
<path class="bond-3 atom-3 atom-4" d="M 76.4,68.0 L 61.4,42.5" style="fill:none;fill-rule:evenodd;stroke:#000000;stroke-width:2.0px;stroke-linecap:butt;stroke-linejoin:miter;stroke-opacity:1"/>
<path class="bond-4 atom-4 atom-5" d="M 61.4,42.5 L 31.9,42.8" style="fill:none;fill-rule:evenodd;stroke:#000000;stroke-width:2.0px;stroke-linecap:butt;stroke-linejoin:miter;stroke-opacity:1"/>
<path class="bond-5 atom-5 atom-6" d="M 31.9,42.8 L 16.9,17.4" style="fill:none;fill-rule:evenodd;stroke:#000000;stroke-width:2.0px;stroke-linecap:butt;stroke-linejoin:miter;stroke-opacity:1"/>
<path class="bond-6 atom-5 atom-7" d="M 31.9,42.8 L 17.4,68.5" style="fill:none;fill-rule:evenodd;stroke:#000000;stroke-width:2.0px;stroke-linecap:butt;stroke-linejoin:miter;stroke-opacity:1"/>
<path class="bond-7 atom-2 atom-8" d="M 106.0,67.7 L 100.5,38.7" style="fill:none;fill-rule:evenodd;stroke:#000000;stroke-width:2.0px;stroke-linecap:butt;stroke-linejoin:miter;stroke-opacity:1"/>
<path class="bond-8 atom-8 atom-9" d="M 102.5,37.0 L 78.3,28.4" style="fill:none;fill-rule:evenodd;stroke:#000000;stroke-width:2.0px;stroke-linecap:butt;stroke-linejoin:miter;stroke-opacity:1"/>
<path class="bond-8 atom-8 atom-9" d="M 101.0,41.2 L 76.8,32.6" style="fill:none;fill-rule:evenodd;stroke:#000000;stroke-width:2.0px;stroke-linecap:butt;stroke-linejoin:miter;stroke-opacity:1"/>
<path class="bond-9 atom-8 atom-10" d="M 100.5,38.7 L 118.8,23.0" style="fill:none;fill-rule:evenodd;stroke:#000000;stroke-width:2.0px;stroke-linecap:butt;stroke-linejoin:miter;stroke-opacity:1"/>
<path class="bond-10 atom-10 atom-11" d="M 127.1,20.9 L 150.8,29.3" style="fill:none;fill-rule:evenodd;stroke:#000000;stroke-width:2.0px;stroke-linecap:butt;stroke-linejoin:miter;stroke-opacity:1"/>
<path class="bond-11 atom-11 atom-12" d="M 151.3,31.8 L 169.8,15.9" style="fill:none;fill-rule:evenodd;stroke:#000000;stroke-width:2.0px;stroke-linecap:butt;stroke-linejoin:miter;stroke-opacity:1"/>
<path class="bond-11 atom-11 atom-12" d="M 148.4,28.4 L 167.0,12.5" style="fill:none;fill-rule:evenodd;stroke:#000000;stroke-width:2.0px;stroke-linecap:butt;stroke-linejoin:miter;stroke-opacity:1"/>
<path class="bond-12 atom-11 atom-13" d="M 150.8,29.3 L 155.2,53.1" style="fill:none;fill-rule:evenodd;stroke:#000000;stroke-width:2.0px;stroke-linecap:butt;stroke-linejoin:miter;stroke-opacity:1"/>
<path class="bond-13 atom-13 atom-14" d="M 152.1,61.8 L 133.8,77.5" style="fill:none;fill-rule:evenodd;stroke:#000000;stroke-width:2.0px;stroke-linecap:butt;stroke-linejoin:miter;stroke-opacity:1"/>
<path class="bond-14 atom-14 atom-15" d="M 131.4,76.6 L 136.1,101.7" style="fill:none;fill-rule:evenodd;stroke:#000000;stroke-width:2.0px;stroke-linecap:butt;stroke-linejoin:miter;stroke-opacity:1"/>
<path class="bond-14 atom-14 atom-15" d="M 135.7,75.8 L 140.4,100.9" style="fill:none;fill-rule:evenodd;stroke:#000000;stroke-width:2.0px;stroke-linecap:butt;stroke-linejoin:miter;stroke-opacity:1"/>
<path class="bond-15 atom-14 atom-2" d="M 133.8,77.5 L 106.0,67.7" style="fill:none;fill-rule:evenodd;stroke:#000000;stroke-width:2.0px;stroke-linecap:butt;stroke-linejoin:miter;stroke-opacity:1"/>
<path d="M 99.7,97.3 L 101.1,96.8 L 101.4,95.3" style="fill:none;stroke:#000000;stroke-width:2.0px;stroke-linecap:butt;stroke-linejoin:miter;stroke-miterlimit:10;stroke-opacity:1;"/>
<path d="M 77.9,67.9 L 76.4,68.0 L 75.7,66.7" style="fill:none;stroke:#000000;stroke-width:2.0px;stroke-linecap:butt;stroke-linejoin:miter;stroke-miterlimit:10;stroke-opacity:1;"/>
<path d="M 62.2,43.8 L 61.4,42.5 L 60.0,42.6" style="fill:none;stroke:#000000;stroke-width:2.0px;stroke-linecap:butt;stroke-linejoin:miter;stroke-miterlimit:10;stroke-opacity:1;"/>
<path d="M 100.8,40.1 L 100.5,38.7 L 101.5,37.9" style="fill:none;stroke:#000000;stroke-width:2.0px;stroke-linecap:butt;stroke-linejoin:miter;stroke-miterlimit:10;stroke-opacity:1;"/>
<path d="M 149.6,28.9 L 150.8,29.3 L 151.0,30.5" style="fill:none;stroke:#000000;stroke-width:2.0px;stroke-linecap:butt;stroke-linejoin:miter;stroke-miterlimit:10;stroke-opacity:1;"/>
<path d="M 134.7,76.7 L 133.8,77.5 L 132.4,77.0" style="fill:none;stroke:#000000;stroke-width:2.0px;stroke-linecap:butt;stroke-linejoin:miter;stroke-miterlimit:10;stroke-opacity:1;"/>
<path class="atom-9" d="M 68.9 28.9 Q 68.9 26.8, 69.9 25.7 Q 70.9 24.6, 72.7 24.6 Q 74.6 24.6, 75.6 25.7 Q 76.5 26.8, 76.5 28.9 Q 76.5 30.9, 75.5 32.0 Q 74.5 33.2, 72.7 33.2 Q 70.9 33.2, 69.9 32.0 Q 68.9 30.9, 68.9 28.9 M 72.7 32.2 Q 74.0 32.2, 74.7 31.4 Q 75.4 30.5, 75.4 28.9 Q 75.4 27.2, 74.7 26.4 Q 74.0 25.6, 72.7 25.6 Q 71.4 25.6, 70.7 26.4 Q 70.1 27.2, 70.1 28.9 Q 70.1 30.5, 70.7 31.4 Q 71.4 32.2, 72.7 32.2 " fill="#000000"/>
<path class="atom-10" d="M 121.1 15.3 L 123.9 19.7 Q 124.1 20.1, 124.6 20.9 Q 125.0 21.7, 125.0 21.8 L 125.0 15.3 L 126.1 15.3 L 126.1 23.6 L 125.0 23.6 L 122.0 18.8 Q 121.7 18.2, 121.3 17.6 Q 121.0 16.9, 120.9 16.7 L 120.9 23.6 L 119.8 23.6 L 119.8 15.3 L 121.1 15.3 " fill="#000000"/>
<path class="atom-10" d="M 119.7 6.1 L 120.8 6.1 L 120.8 9.6 L 125.1 9.6 L 125.1 6.1 L 126.2 6.1 L 126.2 14.4 L 125.1 14.4 L 125.1 10.6 L 120.8 10.6 L 120.8 14.4 L 119.7 14.4 L 119.7 6.1 " fill="#000000"/>
<path class="atom-12" d="M 169.4 10.1 Q 169.4 8.1, 170.4 7.0 Q 171.4 5.9, 173.2 5.9 Q 175.1 5.9, 176.1 7.0 Q 177.0 8.1, 177.0 10.1 Q 177.0 12.1, 176.0 13.3 Q 175.0 14.4, 173.2 14.4 Q 171.4 14.4, 170.4 13.3 Q 169.4 12.1, 169.4 10.1 M 173.2 13.5 Q 174.5 13.5, 175.2 12.6 Q 175.9 11.8, 175.9 10.1 Q 175.9 8.5, 175.2 7.6 Q 174.5 6.8, 173.2 6.8 Q 171.9 6.8, 171.2 7.6 Q 170.6 8.4, 170.6 10.1 Q 170.6 11.8, 171.2 12.6 Q 171.9 13.5, 173.2 13.5 " fill="#000000"/>
<path class="atom-13" d="M 154.4 54.1 L 157.1 58.5 Q 157.4 59.0, 157.8 59.8 Q 158.2 60.6, 158.3 60.6 L 158.3 54.1 L 159.4 54.1 L 159.4 62.5 L 158.2 62.5 L 155.3 57.6 Q 154.9 57.1, 154.6 56.4 Q 154.2 55.8, 154.1 55.6 L 154.1 62.5 L 153.0 62.5 L 153.0 54.1 L 154.4 54.1 " fill="#000000"/>
<path class="atom-13" d="M 161.0 54.1 L 162.1 54.1 L 162.1 57.7 L 166.4 57.7 L 166.4 54.1 L 167.5 54.1 L 167.5 62.5 L 166.4 62.5 L 166.4 58.6 L 162.1 58.6 L 162.1 62.5 L 161.0 62.5 L 161.0 54.1 " fill="#000000"/>
<path class="atom-15" d="M 135.4 106.5 Q 135.4 104.5, 136.4 103.4 Q 137.3 102.3, 139.2 102.3 Q 141.1 102.3, 142.0 103.4 Q 143.0 104.5, 143.0 106.5 Q 143.0 108.5, 142.0 109.7 Q 141.0 110.9, 139.2 110.9 Q 137.4 110.9, 136.4 109.7 Q 135.4 108.6, 135.4 106.5 M 139.2 109.9 Q 140.5 109.9, 141.2 109.1 Q 141.9 108.2, 141.9 106.5 Q 141.9 104.9, 141.2 104.0 Q 140.5 103.2, 139.2 103.2 Q 137.9 103.2, 137.2 104.0 Q 136.5 104.9, 136.5 106.5 Q 136.5 108.2, 137.2 109.1 Q 137.9 109.9, 139.2 109.9 " fill="#000000"/>
</svg>