<svg xmlns="http://www.w3.org/2000/svg" xmlns:rdkit="http://www.rdkit.org/xml" xmlns:xlink="http://www.w3.org/1999/xlink" version="1.1" baseProfile="full" xml:space="preserve" width="187px" height="121px" viewBox="0 0 187 121">
<!-- END OF HEADER -->
<rect style="opacity:1.0;fill:#FFFFFF;stroke:none" width="187.0" height="121.0" x="0.0" y="0.0"> </rect>
<path class="bond-0 atom-0 atom-1" d="M 70.5,104.4 L 97.9,94.1 L 100.8,101.7 L 73.4,112.0 Z" style="fill:#FAFAFF;fill-rule:evenodd;fill-opacity:1;stroke:#FAFAFF;stroke-width:2.0px;stroke-linecap:butt;stroke-linejoin:miter;stroke-miterlimit:10;stroke-opacity:1;"/>
<path class="bond-3 atom-3 atom-4" d="M 71.4,71.4 L 56.5,46.2 L 63.5,42.0 L 78.4,67.2 Z" style="fill:#C0C0FF;fill-rule:evenodd;fill-opacity:1;stroke:#C0C0FF;stroke-width:2.0px;stroke-linecap:butt;stroke-linejoin:miter;stroke-miterlimit:10;stroke-opacity:1;"/>
<path class="bond-4 atom-4 atom-5" d="M 60.0,48.2 L 30.8,48.5 L 30.7,40.3 L 60.0,40.0 Z" style="fill:#C0C0FF;fill-rule:evenodd;fill-opacity:1;stroke:#C0C0FF;stroke-width:2.0px;stroke-linecap:butt;stroke-linejoin:miter;stroke-miterlimit:10;stroke-opacity:1;"/>
<path class="bond-5 atom-5 atom-6" d="M 27.2,46.5 L 12.3,21.3 L 19.4,17.1 L 34.2,42.3 Z" style="fill:#C0C0FF;fill-rule:evenodd;fill-opacity:1;stroke:#C0C0FF;stroke-width:2.0px;stroke-linecap:butt;stroke-linejoin:miter;stroke-miterlimit:10;stroke-opacity:1;"/>
<path class="bond-6 atom-5 atom-7" d="M 34.3,46.4 L 19.9,71.9 L 12.8,67.9 L 27.1,42.4 Z" style="fill:#C0C0FF;fill-rule:evenodd;fill-opacity:1;stroke:#C0C0FF;stroke-width:2.0px;stroke-linecap:butt;stroke-linejoin:miter;stroke-miterlimit:10;stroke-opacity:1;"/>
<path class="bond-7 atom-2 atom-8" d="M 100.1,69.8 L 94.8,41.0 L 102.8,39.5 L 108.2,68.3 Z" style="fill:#F8F8FF;fill-rule:evenodd;fill-opacity:1;stroke:#F8F8FF;stroke-width:2.0px;stroke-linecap:butt;stroke-linejoin:miter;stroke-miterlimit:10;stroke-opacity:1;"/>
<path class="bond-8 atom-8 atom-9" d="M 97.4,44.1 L 69.8,34.4 L 72.5,26.6 L 100.1,36.4 Z" style="fill:#F8F8FF;fill-rule:evenodd;fill-opacity:1;stroke:#F8F8FF;stroke-width:2.0px;stroke-linecap:butt;stroke-linejoin:miter;stroke-miterlimit:10;stroke-opacity:1;"/>
<path class="bond-9 atom-8 atom-10" d="M 96.1,37.1 L 118.4,18.1 L 123.7,24.3 L 101.5,43.4 Z" style="fill:#F8F8FF;fill-rule:evenodd;fill-opacity:1;stroke:#F8F8FF;stroke-width:2.0px;stroke-linecap:butt;stroke-linejoin:miter;stroke-miterlimit:10;stroke-opacity:1;"/>
<path class="bond-10 atom-10 atom-11" d="M 122.4,17.3 L 150.0,27.1 L 147.3,34.8 L 119.7,25.1 Z" style="fill:#F8F8FF;fill-rule:evenodd;fill-opacity:1;stroke:#F8F8FF;stroke-width:2.0px;stroke-linecap:butt;stroke-linejoin:miter;stroke-miterlimit:10;stroke-opacity:1;"/>
<path class="bond-11 atom-11 atom-12" d="M 146.0,27.8 L 168.2,8.8 L 173.5,15.0 L 151.3,34.1 Z" style="fill:#F8F8FF;fill-rule:evenodd;fill-opacity:1;stroke:#F8F8FF;stroke-width:2.0px;stroke-linecap:butt;stroke-linejoin:miter;stroke-miterlimit:10;stroke-opacity:1;"/>
<path class="bond-12 atom-11 atom-13" d="M 152.7,30.2 L 158.0,59.0 L 150.0,60.5 L 144.6,31.7 Z" style="fill:#F8F8FF;fill-rule:evenodd;fill-opacity:1;stroke:#F8F8FF;stroke-width:2.0px;stroke-linecap:butt;stroke-linejoin:miter;stroke-miterlimit:10;stroke-opacity:1;"/>
<path class="bond-13 atom-13 atom-14" d="M 156.7,62.8 L 134.4,81.9 L 129.1,75.7 L 151.3,56.6 Z" style="fill:#F8F8FF;fill-rule:evenodd;fill-opacity:1;stroke:#F8F8FF;stroke-width:2.0px;stroke-linecap:butt;stroke-linejoin:miter;stroke-miterlimit:10;stroke-opacity:1;"/>
<path class="bond-14 atom-14 atom-15" d="M 135.8,78.0 L 141.2,106.8 L 133.1,108.3 L 127.7,79.5 Z" style="fill:#F8F8FF;fill-rule:evenodd;fill-opacity:1;stroke:#F8F8FF;stroke-width:2.0px;stroke-linecap:butt;stroke-linejoin:miter;stroke-miterlimit:10;stroke-opacity:1;"/>
<path class="bond-15 atom-14 atom-2" d="M 130.4,82.6 L 102.8,72.9 L 105.5,65.2 L 133.1,74.9 Z" style="fill:#F8F8FF;fill-rule:evenodd;fill-opacity:1;stroke:#F8F8FF;stroke-width:2.0px;stroke-linecap:butt;stroke-linejoin:miter;stroke-miterlimit:10;stroke-opacity:1;"/>
<ellipse cx="72.0" cy="108.2" rx="5.9" ry="5.9" class="atom-0" style="fill:#FAFAFF;fill-rule:evenodd;stroke:#FAFAFF;stroke-width:1.0px;stroke-linecap:butt;stroke-linejoin:miter;stroke-opacity:1"/>
<ellipse cx="99.4" cy="97.9" rx="5.9" ry="5.9" class="atom-1" style="fill:#FAFAFF;fill-rule:evenodd;stroke:#FAFAFF;stroke-width:1.0px;stroke-linecap:butt;stroke-linejoin:miter;stroke-opacity:1"/>
<ellipse cx="104.2" cy="69.0" rx="5.9" ry="5.9" class="atom-2" style="fill:#F8F8FF;fill-rule:evenodd;stroke:#F8F8FF;stroke-width:1.0px;stroke-linecap:butt;stroke-linejoin:miter;stroke-opacity:1"/>
<ellipse cx="74.9" cy="69.3" rx="5.9" ry="5.9" class="atom-3" style="fill:#C0C0FF;fill-rule:evenodd;stroke:#C0C0FF;stroke-width:1.0px;stroke-linecap:butt;stroke-linejoin:miter;stroke-opacity:1"/>
<ellipse cx="60.0" cy="44.1" rx="5.9" ry="5.9" class="atom-4" style="fill:#C0C0FF;fill-rule:evenodd;stroke:#C0C0FF;stroke-width:1.0px;stroke-linecap:butt;stroke-linejoin:miter;stroke-opacity:1"/>
<ellipse cx="30.7" cy="44.4" rx="5.9" ry="5.9" class="atom-5" style="fill:#C0C0FF;fill-rule:evenodd;stroke:#C0C0FF;stroke-width:1.0px;stroke-linecap:butt;stroke-linejoin:miter;stroke-opacity:1"/>
<ellipse cx="15.8" cy="19.2" rx="5.9" ry="5.9" class="atom-6" style="fill:#C0C0FF;fill-rule:evenodd;stroke:#C0C0FF;stroke-width:1.0px;stroke-linecap:butt;stroke-linejoin:miter;stroke-opacity:1"/>
<ellipse cx="16.3" cy="69.9" rx="5.9" ry="5.9" class="atom-7" style="fill:#C0C0FF;fill-rule:evenodd;stroke:#C0C0FF;stroke-width:1.0px;stroke-linecap:butt;stroke-linejoin:miter;stroke-opacity:1"/>
<ellipse cx="98.8" cy="40.2" rx="5.9" ry="5.9" class="atom-8" style="fill:#F8F8FF;fill-rule:evenodd;stroke:#F8F8FF;stroke-width:1.0px;stroke-linecap:butt;stroke-linejoin:miter;stroke-opacity:1"/>
<ellipse cx="71.2" cy="30.5" rx="5.9" ry="5.9" class="atom-9" style="fill:#F8F8FF;fill-rule:evenodd;stroke:#F8F8FF;stroke-width:1.0px;stroke-linecap:butt;stroke-linejoin:miter;stroke-opacity:1"/>
<ellipse cx="121.0" cy="21.2" rx="5.9" ry="5.9" class="atom-10" style="fill:#F8F8FF;fill-rule:evenodd;stroke:#F8F8FF;stroke-width:1.0px;stroke-linecap:butt;stroke-linejoin:miter;stroke-opacity:1"/>
<ellipse cx="148.6" cy="30.9" rx="5.9" ry="5.9" class="atom-11" style="fill:#F8F8FF;fill-rule:evenodd;stroke:#F8F8FF;stroke-width:1.0px;stroke-linecap:butt;stroke-linejoin:miter;stroke-opacity:1"/>
<ellipse cx="170.9" cy="11.9" rx="5.9" ry="5.9" class="atom-12" style="fill:#F8F8FF;fill-rule:evenodd;stroke:#F8F8FF;stroke-width:1.0px;stroke-linecap:butt;stroke-linejoin:miter;stroke-opacity:1"/>
<ellipse cx="154.0" cy="59.7" rx="5.9" ry="5.9" class="atom-13" style="fill:#F8F8FF;fill-rule:evenodd;stroke:#F8F8FF;stroke-width:1.0px;stroke-linecap:butt;stroke-linejoin:miter;stroke-opacity:1"/>
<ellipse cx="131.8" cy="78.8" rx="5.9" ry="5.9" class="atom-14" style="fill:#F8F8FF;fill-rule:evenodd;stroke:#F8F8FF;stroke-width:1.0px;stroke-linecap:butt;stroke-linejoin:miter;stroke-opacity:1"/>
<ellipse cx="137.1" cy="107.5" rx="5.9" ry="5.9" class="atom-15" style="fill:#F8F8FF;fill-rule:evenodd;stroke:#F8F8FF;stroke-width:1.0px;stroke-linecap:butt;stroke-linejoin:miter;stroke-opacity:1"/>
<path class="bond-0 atom-0 atom-1" d="M 72.0,108.2 L 99.4,97.9" style="fill:none;fill-rule:evenodd;stroke:#000000;stroke-width:2.0px;stroke-linecap:butt;stroke-linejoin:miter;stroke-opacity:1"/>
<path class="bond-1 atom-1 atom-2" d="M 99.4,97.9 L 104.2,69.0" style="fill:none;fill-rule:evenodd;stroke:#000000;stroke-width:2.0px;stroke-linecap:butt;stroke-linejoin:miter;stroke-opacity:1"/>
<path class="bond-2 atom-2 atom-3" d="M 104.2,69.0 L 74.9,69.3" style="fill:none;fill-rule:evenodd;stroke:#000000;stroke-width:2.0px;stroke-linecap:butt;stroke-linejoin:miter;stroke-opacity:1"/>
<path class="bond-3 atom-3 atom-4" d="M 74.9,69.3 L 60.0,44.1" style="fill:none;fill-rule:evenodd;stroke:#000000;stroke-width:2.0px;stroke-linecap:butt;stroke-linejoin:miter;stroke-opacity:1"/>
<path class="bond-4 atom-4 atom-5" d="M 60.0,44.1 L 30.7,44.4" style="fill:none;fill-rule:evenodd;stroke:#000000;stroke-width:2.0px;stroke-linecap:butt;stroke-linejoin:miter;stroke-opacity:1"/>
<path class="bond-5 atom-5 atom-6" d="M 30.7,44.4 L 15.8,19.2" style="fill:none;fill-rule:evenodd;stroke:#000000;stroke-width:2.0px;stroke-linecap:butt;stroke-linejoin:miter;stroke-opacity:1"/>
<path class="bond-6 atom-5 atom-7" d="M 30.7,44.4 L 16.3,69.9" style="fill:none;fill-rule:evenodd;stroke:#000000;stroke-width:2.0px;stroke-linecap:butt;stroke-linejoin:miter;stroke-opacity:1"/>
<path class="bond-7 atom-2 atom-8" d="M 104.2,69.0 L 98.8,40.2" style="fill:none;fill-rule:evenodd;stroke:#000000;stroke-width:2.0px;stroke-linecap:butt;stroke-linejoin:miter;stroke-opacity:1"/>
<path class="bond-8 atom-8 atom-9" d="M 100.7,38.6 L 76.7,30.1" style="fill:none;fill-rule:evenodd;stroke:#000000;stroke-width:2.0px;stroke-linecap:butt;stroke-linejoin:miter;stroke-opacity:1"/>
<path class="bond-8 atom-8 atom-9" d="M 99.3,42.7 L 75.2,34.3" style="fill:none;fill-rule:evenodd;stroke:#000000;stroke-width:2.0px;stroke-linecap:butt;stroke-linejoin:miter;stroke-opacity:1"/>
<path class="bond-9 atom-8 atom-10" d="M 98.8,40.2 L 116.9,24.7" style="fill:none;fill-rule:evenodd;stroke:#000000;stroke-width:2.0px;stroke-linecap:butt;stroke-linejoin:miter;stroke-opacity:1"/>
<path class="bond-10 atom-10 atom-11" d="M 125.1,22.7 L 148.6,30.9" style="fill:none;fill-rule:evenodd;stroke:#000000;stroke-width:2.0px;stroke-linecap:butt;stroke-linejoin:miter;stroke-opacity:1"/>
<path class="bond-11 atom-11 atom-12" d="M 149.1,33.4 L 167.5,17.7" style="fill:none;fill-rule:evenodd;stroke:#000000;stroke-width:2.0px;stroke-linecap:butt;stroke-linejoin:miter;stroke-opacity:1"/>
<path class="bond-11 atom-11 atom-12" d="M 146.2,30.1 L 164.7,14.3" style="fill:none;fill-rule:evenodd;stroke:#000000;stroke-width:2.0px;stroke-linecap:butt;stroke-linejoin:miter;stroke-opacity:1"/>
<path class="bond-12 atom-11 atom-13" d="M 148.6,30.9 L 153.1,54.6" style="fill:none;fill-rule:evenodd;stroke:#000000;stroke-width:2.0px;stroke-linecap:butt;stroke-linejoin:miter;stroke-opacity:1"/>
<path class="bond-13 atom-13 atom-14" d="M 149.9,63.2 L 131.8,78.8" style="fill:none;fill-rule:evenodd;stroke:#000000;stroke-width:2.0px;stroke-linecap:butt;stroke-linejoin:miter;stroke-opacity:1"/>
<path class="bond-14 atom-14 atom-15" d="M 129.4,77.9 L 134.0,102.8" style="fill:none;fill-rule:evenodd;stroke:#000000;stroke-width:2.0px;stroke-linecap:butt;stroke-linejoin:miter;stroke-opacity:1"/>
<path class="bond-14 atom-14 atom-15" d="M 133.7,77.1 L 138.3,102.0" style="fill:none;fill-rule:evenodd;stroke:#000000;stroke-width:2.0px;stroke-linecap:butt;stroke-linejoin:miter;stroke-opacity:1"/>
<path class="bond-15 atom-14 atom-2" d="M 131.8,78.8 L 104.2,69.0" style="fill:none;fill-rule:evenodd;stroke:#000000;stroke-width:2.0px;stroke-linecap:butt;stroke-linejoin:miter;stroke-opacity:1"/>
<path d="M 98.0,98.4 L 99.4,97.9 L 99.6,96.5" style="fill:none;stroke:#000000;stroke-width:2.0px;stroke-linecap:butt;stroke-linejoin:miter;stroke-miterlimit:10;stroke-opacity:1;"/>
<path d="M 76.3,69.3 L 74.9,69.3 L 74.1,68.1" style="fill:none;stroke:#000000;stroke-width:2.0px;stroke-linecap:butt;stroke-linejoin:miter;stroke-miterlimit:10;stroke-opacity:1;"/>
<path d="M 60.7,45.4 L 60.0,44.1 L 58.5,44.1" style="fill:none;stroke:#000000;stroke-width:2.0px;stroke-linecap:butt;stroke-linejoin:miter;stroke-miterlimit:10;stroke-opacity:1;"/>
<path d="M 99.1,41.7 L 98.8,40.2 L 99.7,39.5" style="fill:none;stroke:#000000;stroke-width:2.0px;stroke-linecap:butt;stroke-linejoin:miter;stroke-miterlimit:10;stroke-opacity:1;"/>
<path d="M 147.5,30.5 L 148.6,30.9 L 148.9,32.1" style="fill:none;stroke:#000000;stroke-width:2.0px;stroke-linecap:butt;stroke-linejoin:miter;stroke-miterlimit:10;stroke-opacity:1;"/>
<path d="M 132.7,78.0 L 131.8,78.8 L 130.4,78.3" style="fill:none;stroke:#000000;stroke-width:2.0px;stroke-linecap:butt;stroke-linejoin:miter;stroke-miterlimit:10;stroke-opacity:1;"/>
<path class="atom-9" d="M 67.4 30.5 Q 67.4 28.5, 68.4 27.4 Q 69.3 26.3, 71.2 26.3 Q 73.0 26.3, 74.0 27.4 Q 75.0 28.5, 75.0 30.5 Q 75.0 32.5, 74.0 33.7 Q 73.0 34.8, 71.2 34.8 Q 69.4 34.8, 68.4 33.7 Q 67.4 32.6, 67.4 30.5 M 71.2 33.9 Q 72.4 33.9, 73.1 33.1 Q 73.8 32.2, 73.8 30.5 Q 73.8 28.9, 73.1 28.1 Q 72.4 27.3, 71.2 27.3 Q 69.9 27.3, 69.2 28.1 Q 68.5 28.9, 68.5 30.5 Q 68.5 32.2, 69.2 33.1 Q 69.9 33.9, 71.2 33.9 " fill="#000000"/>
<path class="atom-10" d="M 119.2 17.1 L 121.9 21.5 Q 122.2 21.9, 122.6 22.7 Q 123.0 23.5, 123.1 23.5 L 123.1 17.1 L 124.2 17.1 L 124.2 25.4 L 123.0 25.4 L 120.1 20.6 Q 119.8 20.0, 119.4 19.3 Q 119.1 18.7, 119.0 18.5 L 119.0 25.4 L 117.9 25.4 L 117.9 17.1 L 119.2 17.1 " fill="#000000"/>
<path class="atom-10" d="M 117.8 7.9 L 118.9 7.9 L 118.9 11.5 L 123.1 11.5 L 123.1 7.9 L 124.3 7.9 L 124.3 16.2 L 123.1 16.2 L 123.1 12.4 L 118.9 12.4 L 118.9 16.2 L 117.8 16.2 L 117.8 7.9 " fill="#000000"/>
<path class="atom-12" d="M 167.1 11.9 Q 167.1 9.9, 168.0 8.8 Q 169.0 7.7, 170.9 7.7 Q 172.7 7.7, 173.7 8.8 Q 174.7 9.9, 174.7 11.9 Q 174.7 13.9, 173.7 15.1 Q 172.7 16.2, 170.9 16.2 Q 169.0 16.2, 168.0 15.1 Q 167.1 14.0, 167.1 11.9 M 170.9 15.3 Q 172.1 15.3, 172.8 14.4 Q 173.5 13.6, 173.5 11.9 Q 173.5 10.3, 172.8 9.5 Q 172.1 8.6, 170.9 8.6 Q 169.6 8.6, 168.9 9.5 Q 168.2 10.3, 168.2 11.9 Q 168.2 13.6, 168.9 14.4 Q 169.6 15.3, 170.9 15.3 " fill="#000000"/>
<path class="atom-13" d="M 152.2 55.6 L 154.9 60.0 Q 155.2 60.4, 155.6 61.2 Q 156.0 62.0, 156.0 62.0 L 156.0 55.6 L 157.1 55.6 L 157.1 63.9 L 156.0 63.9 L 153.1 59.1 Q 152.8 58.5, 152.4 57.9 Q 152.0 57.2, 151.9 57.0 L 151.9 63.9 L 150.9 63.9 L 150.9 55.6 L 152.2 55.6 " fill="#000000"/>
<path class="atom-13" d="M 158.8 55.6 L 159.9 55.6 L 159.9 59.1 L 164.1 59.1 L 164.1 55.6 L 165.2 55.6 L 165.2 63.9 L 164.1 63.9 L 164.1 60.0 L 159.9 60.0 L 159.9 63.9 L 158.8 63.9 L 158.8 55.6 " fill="#000000"/>
<path class="atom-15" d="M 133.3 107.6 Q 133.3 105.6, 134.3 104.5 Q 135.3 103.4, 137.1 103.4 Q 139.0 103.4, 140.0 104.5 Q 140.9 105.6, 140.9 107.6 Q 140.9 109.6, 139.9 110.7 Q 139.0 111.9, 137.1 111.9 Q 135.3 111.9, 134.3 110.7 Q 133.3 109.6, 133.3 107.6 M 137.1 110.9 Q 138.4 110.9, 139.1 110.1 Q 139.8 109.2, 139.8 107.6 Q 139.8 105.9, 139.1 105.1 Q 138.4 104.3, 137.1 104.3 Q 135.9 104.3, 135.2 105.1 Q 134.5 105.9, 134.5 107.6 Q 134.5 109.2, 135.2 110.1 Q 135.9 110.9, 137.1 110.9 " fill="#000000"/>
</svg>