<svg xmlns="http://www.w3.org/2000/svg" xmlns:rdkit="http://www.rdkit.org/xml" xmlns:xlink="http://www.w3.org/1999/xlink" version="1.1" baseProfile="full" xml:space="preserve" width="268px" height="130px" viewBox="0 0 268 130">
<!-- END OF HEADER -->
<rect style="opacity:1.0;fill:#FFFFFF;stroke:none" width="268.0" height="130.0" x="0.0" y="0.0"> </rect>
<ellipse cx="17.9" cy="90.5" rx="0.5" ry="0.5" class="atom-0" style="fill:#7F7FFF;fill-rule:evenodd;stroke:#7F7FFF;stroke-width:1.0px;stroke-linecap:butt;stroke-linejoin:miter;stroke-opacity:1"/>
<ellipse cx="47.3" cy="88.4" rx="0.5" ry="0.5" class="atom-1" style="fill:#7F7FFF;fill-rule:evenodd;stroke:#7F7FFF;stroke-width:1.0px;stroke-linecap:butt;stroke-linejoin:miter;stroke-opacity:1"/>
<ellipse cx="60.2" cy="61.8" rx="0.9" ry="0.9" class="atom-2" style="fill:#7F7FFF;fill-rule:evenodd;stroke:#7F7FFF;stroke-width:1.0px;stroke-linecap:butt;stroke-linejoin:miter;stroke-opacity:1"/>
<ellipse cx="43.6" cy="37.3" rx="0.5" ry="0.5" class="atom-3" style="fill:#7F7FFF;fill-rule:evenodd;stroke:#7F7FFF;stroke-width:1.0px;stroke-linecap:butt;stroke-linejoin:miter;stroke-opacity:1"/>
<ellipse cx="14.1" cy="39.5" rx="0.5" ry="0.5" class="atom-4" style="fill:#7F7FFF;fill-rule:evenodd;stroke:#7F7FFF;stroke-width:1.0px;stroke-linecap:butt;stroke-linejoin:miter;stroke-opacity:1"/>
<ellipse cx="89.7" cy="59.6" rx="2.1" ry="2.1" class="atom-5" style="fill:#FF7F7F;fill-rule:evenodd;stroke:#FF7F7F;stroke-width:1.0px;stroke-linecap:butt;stroke-linejoin:miter;stroke-opacity:1"/>
<ellipse cx="106.3" cy="84.1" rx="2.1" ry="2.1" class="atom-6" style="fill:#FF7F7F;fill-rule:evenodd;stroke:#FF7F7F;stroke-width:1.0px;stroke-linecap:butt;stroke-linejoin:miter;stroke-opacity:1"/>
<ellipse cx="102.6" cy="33.0" rx="2.1" ry="2.1" class="atom-7" style="fill:#FF7F7F;fill-rule:evenodd;stroke:#FF7F7F;stroke-width:1.0px;stroke-linecap:butt;stroke-linejoin:miter;stroke-opacity:1"/>
<ellipse cx="86.0" cy="8.6" rx="2.1" ry="2.1" class="atom-8" style="fill:#FF7F7F;fill-rule:evenodd;stroke:#FF7F7F;stroke-width:1.0px;stroke-linecap:butt;stroke-linejoin:miter;stroke-opacity:1"/>
<ellipse cx="132.0" cy="30.9" rx="1.0" ry="1.0" class="atom-9" style="fill:#FF7F7F;fill-rule:evenodd;stroke:#FF7F7F;stroke-width:1.0px;stroke-linecap:butt;stroke-linejoin:miter;stroke-opacity:1"/>
<ellipse cx="148.6" cy="55.3" rx="17.1" ry="17.1" class="atom-10" style="fill:#7F7FFF;fill-rule:evenodd;stroke:#7F7FFF;stroke-width:1.0px;stroke-linecap:butt;stroke-linejoin:miter;stroke-opacity:1"/>
<ellipse cx="135.8" cy="81.9" rx="17.1" ry="17.1" class="atom-11" style="fill:#7F7FFF;fill-rule:evenodd;stroke:#7F7FFF;stroke-width:1.0px;stroke-linecap:butt;stroke-linejoin:miter;stroke-opacity:1"/>
<ellipse cx="152.4" cy="106.4" rx="17.1" ry="17.1" class="atom-12" style="fill:#7F7FFF;fill-rule:evenodd;stroke:#7F7FFF;stroke-width:1.0px;stroke-linecap:butt;stroke-linejoin:miter;stroke-opacity:1"/>
<ellipse cx="181.8" cy="104.2" rx="17.1" ry="17.1" class="atom-13" style="fill:#7F7FFF;fill-rule:evenodd;stroke:#7F7FFF;stroke-width:1.0px;stroke-linecap:butt;stroke-linejoin:miter;stroke-opacity:1"/>
<ellipse cx="194.7" cy="77.6" rx="17.1" ry="17.1" class="atom-14" style="fill:#7F7FFF;fill-rule:evenodd;stroke:#7F7FFF;stroke-width:1.0px;stroke-linecap:butt;stroke-linejoin:miter;stroke-opacity:1"/>
<ellipse cx="224.2" cy="75.5" rx="17.1" ry="17.1" class="atom-15" style="fill:#7F7FFF;fill-rule:evenodd;stroke:#7F7FFF;stroke-width:1.0px;stroke-linecap:butt;stroke-linejoin:miter;stroke-opacity:1"/>
<ellipse cx="237.1" cy="48.9" rx="17.1" ry="17.1" class="atom-16" style="fill:#7F7FFF;fill-rule:evenodd;stroke:#7F7FFF;stroke-width:1.0px;stroke-linecap:butt;stroke-linejoin:miter;stroke-opacity:1"/>
<ellipse cx="220.5" cy="24.4" rx="17.1" ry="17.1" class="atom-17" style="fill:#7F7FFF;fill-rule:evenodd;stroke:#7F7FFF;stroke-width:1.0px;stroke-linecap:butt;stroke-linejoin:miter;stroke-opacity:1"/>
<ellipse cx="191.0" cy="26.6" rx="17.1" ry="17.1" class="atom-18" style="fill:#7F7FFF;fill-rule:evenodd;stroke:#7F7FFF;stroke-width:1.0px;stroke-linecap:butt;stroke-linejoin:miter;stroke-opacity:1"/>
<ellipse cx="178.1" cy="53.2" rx="17.1" ry="17.1" class="atom-19" style="fill:#7F7FFF;fill-rule:evenodd;stroke:#7F7FFF;stroke-width:1.0px;stroke-linecap:butt;stroke-linejoin:miter;stroke-opacity:1"/>
<path class="bond-0 atom-0 atom-1" d="M 17.9,90.5 L 47.3,88.4" style="fill:none;fill-rule:evenodd;stroke:#000000;stroke-width:2.0px;stroke-linecap:butt;stroke-linejoin:miter;stroke-opacity:1"/>
<path class="bond-1 atom-1 atom-2" d="M 47.3,88.4 L 57.7,67.0" style="fill:none;fill-rule:evenodd;stroke:#000000;stroke-width:2.0px;stroke-linecap:butt;stroke-linejoin:miter;stroke-opacity:1"/>
<path class="bond-2 atom-2 atom-3" d="M 56.7,56.6 L 43.6,37.3" style="fill:none;fill-rule:evenodd;stroke:#000000;stroke-width:2.0px;stroke-linecap:butt;stroke-linejoin:miter;stroke-opacity:1"/>
<path class="bond-3 atom-3 atom-4" d="M 43.6,37.3 L 14.1,39.5" style="fill:none;fill-rule:evenodd;stroke:#000000;stroke-width:2.0px;stroke-linecap:butt;stroke-linejoin:miter;stroke-opacity:1"/>
<path class="bond-4 atom-2 atom-5" d="M 64.4,61.5 L 89.7,59.6" style="fill:none;fill-rule:evenodd;stroke:#000000;stroke-width:2.0px;stroke-linecap:butt;stroke-linejoin:miter;stroke-opacity:1"/>
<path class="bond-5 atom-5 atom-6" d="M 87.1,59.8 L 100.9,80.1" style="fill:none;fill-rule:evenodd;stroke:#000000;stroke-width:2.0px;stroke-linecap:butt;stroke-linejoin:miter;stroke-opacity:1"/>
<path class="bond-5 atom-5 atom-6" d="M 90.8,57.3 L 104.6,77.6" style="fill:none;fill-rule:evenodd;stroke:#000000;stroke-width:2.0px;stroke-linecap:butt;stroke-linejoin:miter;stroke-opacity:1"/>
<path class="bond-6 atom-5 atom-7" d="M 89.7,59.6 L 102.6,33.0" style="fill:none;fill-rule:evenodd;stroke:#000000;stroke-width:2.0px;stroke-linecap:butt;stroke-linejoin:miter;stroke-opacity:1"/>
<path class="bond-7 atom-7 atom-8" d="M 102.6,33.0 L 86.0,8.6" style="fill:none;fill-rule:evenodd;stroke:#000000;stroke-width:2.0px;stroke-linecap:butt;stroke-linejoin:miter;stroke-opacity:1"/>
<path class="bond-8 atom-7 atom-9" d="M 102.6,33.0 L 127.2,31.2" style="fill:none;fill-rule:evenodd;stroke:#000000;stroke-width:2.0px;stroke-linecap:butt;stroke-linejoin:miter;stroke-opacity:1"/>
<path class="bond-9 atom-9 atom-10" d="M 135.7,36.2 L 148.6,55.3" style="fill:none;fill-rule:evenodd;stroke:#000000;stroke-width:2.0px;stroke-linecap:butt;stroke-linejoin:miter;stroke-opacity:1"/>
<path class="bond-10 atom-10 atom-11" d="M 148.6,55.3 L 135.8,81.9" style="fill:none;fill-rule:evenodd;stroke:#000000;stroke-width:2.0px;stroke-linecap:butt;stroke-linejoin:miter;stroke-opacity:1"/>
<path class="bond-10 atom-10 atom-11" d="M 151.5,59.6 L 140.9,81.6" style="fill:none;fill-rule:evenodd;stroke:#000000;stroke-width:2.0px;stroke-linecap:butt;stroke-linejoin:miter;stroke-opacity:1"/>
<path class="bond-11 atom-11 atom-12" d="M 135.8,81.9 L 152.4,106.4" style="fill:none;fill-rule:evenodd;stroke:#000000;stroke-width:2.0px;stroke-linecap:butt;stroke-linejoin:miter;stroke-opacity:1"/>
<path class="bond-12 atom-12 atom-13" d="M 152.4,106.4 L 181.8,104.2" style="fill:none;fill-rule:evenodd;stroke:#000000;stroke-width:2.0px;stroke-linecap:butt;stroke-linejoin:miter;stroke-opacity:1"/>
<path class="bond-12 atom-12 atom-13" d="M 154.6,101.8 L 179.0,100.0" style="fill:none;fill-rule:evenodd;stroke:#000000;stroke-width:2.0px;stroke-linecap:butt;stroke-linejoin:miter;stroke-opacity:1"/>
<path class="bond-13 atom-13 atom-14" d="M 181.8,104.2 L 194.7,77.6" style="fill:none;fill-rule:evenodd;stroke:#000000;stroke-width:2.0px;stroke-linecap:butt;stroke-linejoin:miter;stroke-opacity:1"/>
<path class="bond-14 atom-14 atom-15" d="M 194.7,77.6 L 224.2,75.5" style="fill:none;fill-rule:evenodd;stroke:#000000;stroke-width:2.0px;stroke-linecap:butt;stroke-linejoin:miter;stroke-opacity:1"/>
<path class="bond-14 atom-14 atom-15" d="M 197.0,73.0 L 221.3,71.3" style="fill:none;fill-rule:evenodd;stroke:#000000;stroke-width:2.0px;stroke-linecap:butt;stroke-linejoin:miter;stroke-opacity:1"/>
<path class="bond-15 atom-15 atom-16" d="M 224.2,75.5 L 237.1,48.9" style="fill:none;fill-rule:evenodd;stroke:#000000;stroke-width:2.0px;stroke-linecap:butt;stroke-linejoin:miter;stroke-opacity:1"/>
<path class="bond-16 atom-16 atom-17" d="M 237.1,48.9 L 220.5,24.4" style="fill:none;fill-rule:evenodd;stroke:#000000;stroke-width:2.0px;stroke-linecap:butt;stroke-linejoin:miter;stroke-opacity:1"/>
<path class="bond-16 atom-16 atom-17" d="M 232.0,49.3 L 218.2,29.0" style="fill:none;fill-rule:evenodd;stroke:#000000;stroke-width:2.0px;stroke-linecap:butt;stroke-linejoin:miter;stroke-opacity:1"/>
<path class="bond-17 atom-17 atom-18" d="M 220.5,24.4 L 191.0,26.6" style="fill:none;fill-rule:evenodd;stroke:#000000;stroke-width:2.0px;stroke-linecap:butt;stroke-linejoin:miter;stroke-opacity:1"/>
<path class="bond-18 atom-18 atom-19" d="M 191.0,26.6 L 178.1,53.2" style="fill:none;fill-rule:evenodd;stroke:#000000;stroke-width:2.0px;stroke-linecap:butt;stroke-linejoin:miter;stroke-opacity:1"/>
<path class="bond-18 atom-18 atom-19" d="M 193.9,30.8 L 183.2,52.8" style="fill:none;fill-rule:evenodd;stroke:#000000;stroke-width:2.0px;stroke-linecap:butt;stroke-linejoin:miter;stroke-opacity:1"/>
<path class="bond-19 atom-19 atom-10" d="M 178.1,53.2 L 148.6,55.3" style="fill:none;fill-rule:evenodd;stroke:#000000;stroke-width:2.0px;stroke-linecap:butt;stroke-linejoin:miter;stroke-opacity:1"/>
<path class="bond-20 atom-19 atom-14" d="M 178.1,53.2 L 194.7,77.6" style="fill:none;fill-rule:evenodd;stroke:#000000;stroke-width:2.0px;stroke-linecap:butt;stroke-linejoin:miter;stroke-opacity:1"/>
<path d="M 45.9,88.5 L 47.3,88.4 L 47.9,87.3" style="fill:none;stroke:#000000;stroke-width:2.0px;stroke-linecap:butt;stroke-linejoin:miter;stroke-miterlimit:10;stroke-opacity:1;"/>
<path d="M 44.3,38.3 L 43.6,37.3 L 42.1,37.4" style="fill:none;stroke:#000000;stroke-width:2.0px;stroke-linecap:butt;stroke-linejoin:miter;stroke-miterlimit:10;stroke-opacity:1;"/>
<path d="M 88.4,59.7 L 89.7,59.6 L 90.3,58.3" style="fill:none;stroke:#000000;stroke-width:2.0px;stroke-linecap:butt;stroke-linejoin:miter;stroke-miterlimit:10;stroke-opacity:1;"/>
<path d="M 136.4,80.6 L 135.8,81.9 L 136.6,83.2" style="fill:none;stroke:#000000;stroke-width:2.0px;stroke-linecap:butt;stroke-linejoin:miter;stroke-miterlimit:10;stroke-opacity:1;"/>
<path d="M 151.5,105.2 L 152.4,106.4 L 153.8,106.3" style="fill:none;stroke:#000000;stroke-width:2.0px;stroke-linecap:butt;stroke-linejoin:miter;stroke-miterlimit:10;stroke-opacity:1;"/>
<path d="M 180.4,104.4 L 181.8,104.2 L 182.5,102.9" style="fill:none;stroke:#000000;stroke-width:2.0px;stroke-linecap:butt;stroke-linejoin:miter;stroke-miterlimit:10;stroke-opacity:1;"/>
<path d="M 222.7,75.6 L 224.2,75.5 L 224.8,74.2" style="fill:none;stroke:#000000;stroke-width:2.0px;stroke-linecap:butt;stroke-linejoin:miter;stroke-miterlimit:10;stroke-opacity:1;"/>
<path d="M 236.4,50.2 L 237.1,48.9 L 236.2,47.7" style="fill:none;stroke:#000000;stroke-width:2.0px;stroke-linecap:butt;stroke-linejoin:miter;stroke-miterlimit:10;stroke-opacity:1;"/>
<path d="M 221.3,25.7 L 220.5,24.4 L 219.0,24.5" style="fill:none;stroke:#000000;stroke-width:2.0px;stroke-linecap:butt;stroke-linejoin:miter;stroke-miterlimit:10;stroke-opacity:1;"/>
<path d="M 192.5,26.5 L 191.0,26.6 L 190.4,27.9" style="fill:none;stroke:#000000;stroke-width:2.0px;stroke-linecap:butt;stroke-linejoin:miter;stroke-miterlimit:10;stroke-opacity:1;"/>
<path class="atom-2" d="M 58.4 57.6 L 61.1 62.0 Q 61.4 62.5, 61.8 63.3 Q 62.3 64.1, 62.3 64.1 L 62.3 57.6 L 63.4 57.6 L 63.4 66.0 L 62.2 66.0 L 59.3 61.1 Q 59.0 60.6, 58.6 59.9 Q 58.2 59.3, 58.1 59.1 L 58.1 66.0 L 57.0 66.0 L 57.0 57.6 L 58.4 57.6 " fill="#000000"/>
<path class="atom-6" d="M 102.4 84.1 Q 102.4 82.1, 103.4 81.0 Q 104.4 79.9, 106.3 79.9 Q 108.1 79.9, 109.1 81.0 Q 110.1 82.1, 110.1 84.1 Q 110.1 86.2, 109.1 87.3 Q 108.1 88.5, 106.3 88.5 Q 104.4 88.5, 103.4 87.3 Q 102.4 86.2, 102.4 84.1 M 106.3 87.5 Q 107.6 87.5, 108.3 86.7 Q 109.0 85.8, 109.0 84.1 Q 109.0 82.5, 108.3 81.6 Q 107.6 80.8, 106.3 80.8 Q 105.0 80.8, 104.3 81.6 Q 103.6 82.5, 103.6 84.1 Q 103.6 85.8, 104.3 86.7 Q 105.0 87.5, 106.3 87.5 " fill="#000000"/>
<path class="atom-9" d="M 128.2 30.9 Q 128.2 28.9, 129.2 27.8 Q 130.2 26.7, 132.0 26.7 Q 133.9 26.7, 134.9 27.8 Q 135.9 28.9, 135.9 30.9 Q 135.9 32.9, 134.9 34.1 Q 133.9 35.3, 132.0 35.3 Q 130.2 35.3, 129.2 34.1 Q 128.2 33.0, 128.2 30.9 M 132.0 34.3 Q 133.3 34.3, 134.0 33.5 Q 134.7 32.6, 134.7 30.9 Q 134.7 29.3, 134.0 28.4 Q 133.3 27.6, 132.0 27.6 Q 130.8 27.6, 130.1 28.4 Q 129.4 29.3, 129.4 30.9 Q 129.4 32.6, 130.1 33.5 Q 130.8 34.3, 132.0 34.3 " fill="#000000"/>
</svg>