<svg xmlns="http://www.w3.org/2000/svg" xmlns:rdkit="http://www.rdkit.org/xml" xmlns:xlink="http://www.w3.org/1999/xlink" version="1.1" baseProfile="full" xml:space="preserve" width="197px" height="83px" viewBox="0 0 197 83">
<!-- END OF HEADER -->
<rect style="opacity:1.0;fill:#FFFFFF;stroke:none" width="197.0" height="83.0" x="0.0" y="0.0"> </rect>
<path class="bond-0 atom-0 atom-1" d="M 15.3,42.0 L 43.7,34.4 L 45.8,42.3 L 17.5,49.9 Z" style="fill:#FFD6D6;fill-rule:evenodd;fill-opacity:1;stroke:#FFD6D6;stroke-width:2.0px;stroke-linecap:butt;stroke-linejoin:miter;stroke-miterlimit:10;stroke-opacity:1;"/>
<path class="bond-1 atom-1 atom-2" d="M 40.8,37.3 L 48.4,9.0 L 56.3,11.1 L 48.7,39.4 Z" style="fill:#FFD6D6;fill-rule:evenodd;fill-opacity:1;stroke:#FFD6D6;stroke-width:2.0px;stroke-linecap:butt;stroke-linejoin:miter;stroke-miterlimit:10;stroke-opacity:1;"/>
<path class="bond-4 atom-4 atom-5" d="M 89.9,50.5 L 97.5,22.1 L 105.4,24.2 L 97.8,52.6 Z" style="fill:#6464FF;fill-rule:evenodd;fill-opacity:1;stroke:#6464FF;stroke-width:2.0px;stroke-linecap:butt;stroke-linejoin:miter;stroke-miterlimit:10;stroke-opacity:1;"/>
<path class="bond-5 atom-5 atom-6" d="M 100.4,19.2 L 128.7,11.6 L 130.9,19.5 L 102.5,27.1 Z" style="fill:#6464FF;fill-rule:evenodd;fill-opacity:1;stroke:#6464FF;stroke-width:2.0px;stroke-linecap:butt;stroke-linejoin:miter;stroke-miterlimit:10;stroke-opacity:1;"/>
<path class="bond-6 atom-6 atom-7" d="M 132.7,12.7 L 153.5,33.4 L 147.6,39.2 L 126.9,18.5 Z" style="fill:#6464FF;fill-rule:evenodd;fill-opacity:1;stroke:#6464FF;stroke-width:2.0px;stroke-linecap:butt;stroke-linejoin:miter;stroke-miterlimit:10;stroke-opacity:1;"/>
<path class="bond-7 atom-7 atom-8" d="M 149.5,32.4 L 177.8,24.8 L 180.0,32.7 L 151.6,40.3 Z" style="fill:#6464FF;fill-rule:evenodd;fill-opacity:1;stroke:#6464FF;stroke-width:2.0px;stroke-linecap:butt;stroke-linejoin:miter;stroke-miterlimit:10;stroke-opacity:1;"/>
<path class="bond-8 atom-7 atom-9" d="M 154.5,37.4 L 146.9,65.7 L 139.0,63.6 L 146.6,35.3 Z" style="fill:#6464FF;fill-rule:evenodd;fill-opacity:1;stroke:#6464FF;stroke-width:2.0px;stroke-linecap:butt;stroke-linejoin:miter;stroke-miterlimit:10;stroke-opacity:1;"/>
<path class="bond-9 atom-9 atom-10" d="M 144.0,68.7 L 115.7,76.2 L 113.5,68.3 L 141.9,60.7 Z" style="fill:#6464FF;fill-rule:evenodd;fill-opacity:1;stroke:#6464FF;stroke-width:2.0px;stroke-linecap:butt;stroke-linejoin:miter;stroke-miterlimit:10;stroke-opacity:1;"/>
<path class="bond-10 atom-10 atom-4" d="M 111.7,75.2 L 90.9,54.4 L 96.8,48.6 L 117.5,69.4 Z" style="fill:#6464FF;fill-rule:evenodd;fill-opacity:1;stroke:#6464FF;stroke-width:2.0px;stroke-linecap:butt;stroke-linejoin:miter;stroke-miterlimit:10;stroke-opacity:1;"/>
<ellipse cx="16.4" cy="46.0" rx="5.9" ry="5.9" class="atom-0" style="fill:#FFD6D6;fill-rule:evenodd;stroke:#FFD6D6;stroke-width:1.0px;stroke-linecap:butt;stroke-linejoin:miter;stroke-opacity:1"/>
<ellipse cx="44.7" cy="38.4" rx="5.9" ry="5.9" class="atom-1" style="fill:#FFD6D6;fill-rule:evenodd;stroke:#FFD6D6;stroke-width:1.0px;stroke-linecap:butt;stroke-linejoin:miter;stroke-opacity:1"/>
<ellipse cx="52.3" cy="10.0" rx="5.9" ry="5.9" class="atom-2" style="fill:#FFD6D6;fill-rule:evenodd;stroke:#FFD6D6;stroke-width:1.0px;stroke-linecap:butt;stroke-linejoin:miter;stroke-opacity:1"/>
<ellipse cx="65.5" cy="59.1" rx="5.9" ry="5.9" class="atom-3" style="fill:#FFFAFA;fill-rule:evenodd;stroke:#FFFAFA;stroke-width:1.0px;stroke-linecap:butt;stroke-linejoin:miter;stroke-opacity:1"/>
<ellipse cx="93.8" cy="51.5" rx="5.9" ry="5.9" class="atom-4" style="fill:#6464FF;fill-rule:evenodd;stroke:#6464FF;stroke-width:1.0px;stroke-linecap:butt;stroke-linejoin:miter;stroke-opacity:1"/>
<ellipse cx="101.4" cy="23.2" rx="5.9" ry="5.9" class="atom-5" style="fill:#6464FF;fill-rule:evenodd;stroke:#6464FF;stroke-width:1.0px;stroke-linecap:butt;stroke-linejoin:miter;stroke-opacity:1"/>
<ellipse cx="129.8" cy="15.6" rx="5.9" ry="5.9" class="atom-6" style="fill:#6464FF;fill-rule:evenodd;stroke:#6464FF;stroke-width:1.0px;stroke-linecap:butt;stroke-linejoin:miter;stroke-opacity:1"/>
<ellipse cx="150.5" cy="36.3" rx="5.9" ry="5.9" class="atom-7" style="fill:#6464FF;fill-rule:evenodd;stroke:#6464FF;stroke-width:1.0px;stroke-linecap:butt;stroke-linejoin:miter;stroke-opacity:1"/>
<ellipse cx="178.9" cy="28.7" rx="5.9" ry="5.9" class="atom-8" style="fill:#6464FF;fill-rule:evenodd;stroke:#6464FF;stroke-width:1.0px;stroke-linecap:butt;stroke-linejoin:miter;stroke-opacity:1"/>
<ellipse cx="142.9" cy="64.7" rx="5.9" ry="5.9" class="atom-9" style="fill:#6464FF;fill-rule:evenodd;stroke:#6464FF;stroke-width:1.0px;stroke-linecap:butt;stroke-linejoin:miter;stroke-opacity:1"/>
<ellipse cx="114.6" cy="72.3" rx="5.9" ry="5.9" class="atom-10" style="fill:#6464FF;fill-rule:evenodd;stroke:#6464FF;stroke-width:1.0px;stroke-linecap:butt;stroke-linejoin:miter;stroke-opacity:1"/>
<path class="bond-0 atom-0 atom-1" d="M 16.4,46.0 L 44.7,38.4" style="fill:none;fill-rule:evenodd;stroke:#000000;stroke-width:2.0px;stroke-linecap:butt;stroke-linejoin:miter;stroke-opacity:1"/>
<path class="bond-1 atom-1 atom-2" d="M 46.5,40.2 L 53.0,15.9" style="fill:none;fill-rule:evenodd;stroke:#000000;stroke-width:2.0px;stroke-linecap:butt;stroke-linejoin:miter;stroke-opacity:1"/>
<path class="bond-1 atom-1 atom-2" d="M 42.3,39.0 L 48.8,14.8" style="fill:none;fill-rule:evenodd;stroke:#000000;stroke-width:2.0px;stroke-linecap:butt;stroke-linejoin:miter;stroke-opacity:1"/>
<path class="bond-2 atom-1 atom-3" d="M 44.7,38.4 L 61.4,55.0" style="fill:none;fill-rule:evenodd;stroke:#000000;stroke-width:2.0px;stroke-linecap:butt;stroke-linejoin:miter;stroke-opacity:1"/>
<path class="bond-3 atom-3 atom-4" d="M 69.6,58.0 L 93.8,51.5" style="fill:none;fill-rule:evenodd;stroke:#000000;stroke-width:2.0px;stroke-linecap:butt;stroke-linejoin:miter;stroke-opacity:1"/>
<path class="bond-4 atom-4 atom-5" d="M 93.8,51.5 L 101.4,23.2" style="fill:none;fill-rule:evenodd;stroke:#000000;stroke-width:2.0px;stroke-linecap:butt;stroke-linejoin:miter;stroke-opacity:1"/>
<path class="bond-4 atom-4 atom-5" d="M 98.8,50.2 L 105.0,26.8" style="fill:none;fill-rule:evenodd;stroke:#000000;stroke-width:2.0px;stroke-linecap:butt;stroke-linejoin:miter;stroke-opacity:1"/>
<path class="bond-5 atom-5 atom-6" d="M 101.4,23.2 L 129.8,15.6" style="fill:none;fill-rule:evenodd;stroke:#000000;stroke-width:2.0px;stroke-linecap:butt;stroke-linejoin:miter;stroke-opacity:1"/>
<path class="bond-6 atom-6 atom-7" d="M 129.8,15.6 L 150.5,36.3" style="fill:none;fill-rule:evenodd;stroke:#000000;stroke-width:2.0px;stroke-linecap:butt;stroke-linejoin:miter;stroke-opacity:1"/>
<path class="bond-6 atom-6 atom-7" d="M 128.5,20.5 L 145.6,37.6" style="fill:none;fill-rule:evenodd;stroke:#000000;stroke-width:2.0px;stroke-linecap:butt;stroke-linejoin:miter;stroke-opacity:1"/>
<path class="bond-7 atom-7 atom-8" d="M 150.5,36.3 L 175.1,29.8" style="fill:none;fill-rule:evenodd;stroke:#000000;stroke-width:2.0px;stroke-linecap:butt;stroke-linejoin:miter;stroke-opacity:1"/>
<path class="bond-8 atom-7 atom-9" d="M 150.5,36.3 L 142.9,64.7" style="fill:none;fill-rule:evenodd;stroke:#000000;stroke-width:2.0px;stroke-linecap:butt;stroke-linejoin:miter;stroke-opacity:1"/>
<path class="bond-9 atom-9 atom-10" d="M 142.9,64.7 L 114.6,72.3" style="fill:none;fill-rule:evenodd;stroke:#000000;stroke-width:2.0px;stroke-linecap:butt;stroke-linejoin:miter;stroke-opacity:1"/>
<path class="bond-9 atom-9 atom-10" d="M 139.4,61.1 L 115.9,67.4" style="fill:none;fill-rule:evenodd;stroke:#000000;stroke-width:2.0px;stroke-linecap:butt;stroke-linejoin:miter;stroke-opacity:1"/>
<path class="bond-10 atom-10 atom-4" d="M 114.6,72.3 L 93.8,51.5" style="fill:none;fill-rule:evenodd;stroke:#000000;stroke-width:2.0px;stroke-linecap:butt;stroke-linejoin:miter;stroke-opacity:1"/>
<path d="M 43.3,38.7 L 44.7,38.4 L 45.6,39.2" style="fill:none;stroke:#000000;stroke-width:2.0px;stroke-linecap:butt;stroke-linejoin:miter;stroke-miterlimit:10;stroke-opacity:1;"/>
<path d="M 101.1,24.6 L 101.4,23.2 L 102.9,22.8" style="fill:none;stroke:#000000;stroke-width:2.0px;stroke-linecap:butt;stroke-linejoin:miter;stroke-miterlimit:10;stroke-opacity:1;"/>
<path d="M 128.4,16.0 L 129.8,15.6 L 130.8,16.6" style="fill:none;stroke:#000000;stroke-width:2.0px;stroke-linecap:butt;stroke-linejoin:miter;stroke-miterlimit:10;stroke-opacity:1;"/>
<path d="M 143.3,63.3 L 142.9,64.7 L 141.5,65.1" style="fill:none;stroke:#000000;stroke-width:2.0px;stroke-linecap:butt;stroke-linejoin:miter;stroke-miterlimit:10;stroke-opacity:1;"/>
<path d="M 116.0,71.9 L 114.6,72.3 L 113.6,71.2" style="fill:none;stroke:#000000;stroke-width:2.0px;stroke-linecap:butt;stroke-linejoin:miter;stroke-miterlimit:10;stroke-opacity:1;"/>
<path class="atom-2" d="M 48.5 10.0 Q 48.5 8.0, 49.5 6.9 Q 50.5 5.8, 52.3 5.8 Q 54.2 5.8, 55.2 6.9 Q 56.2 8.0, 56.2 10.0 Q 56.2 12.1, 55.2 13.2 Q 54.2 14.4, 52.3 14.4 Q 50.5 14.4, 49.5 13.2 Q 48.5 12.1, 48.5 10.0 M 52.3 13.4 Q 53.6 13.4, 54.3 12.6 Q 55.0 11.7, 55.0 10.0 Q 55.0 8.4, 54.3 7.6 Q 53.6 6.8, 52.3 6.8 Q 51.1 6.8, 50.4 7.6 Q 49.7 8.4, 49.7 10.0 Q 49.7 11.7, 50.4 12.6 Q 51.1 13.4, 52.3 13.4 " fill="#000000"/>
<path class="atom-3" d="M 63.7 55.0 L 66.4 59.4 Q 66.7 59.8, 67.1 60.6 Q 67.5 61.4, 67.5 61.4 L 67.5 55.0 L 68.6 55.0 L 68.6 63.3 L 67.5 63.3 L 64.6 58.5 Q 64.2 57.9, 63.9 57.3 Q 63.5 56.6, 63.4 56.4 L 63.4 63.3 L 62.3 63.3 L 62.3 55.0 L 63.7 55.0 " fill="#000000"/>
<path class="atom-3" d="M 62.2 64.1 L 63.4 64.1 L 63.4 67.6 L 67.6 67.6 L 67.6 64.1 L 68.7 64.1 L 68.7 72.4 L 67.6 72.4 L 67.6 68.6 L 63.4 68.6 L 63.4 72.4 L 62.2 72.4 L 62.2 64.1 " fill="#000000"/>
<path class="atom-8" d="M 180.1 28.5 Q 180.9 28.7, 181.3 29.2 Q 181.7 29.7, 181.7 30.4 Q 181.7 31.6, 181.0 32.2 Q 180.3 32.9, 178.9 32.9 L 176.1 32.9 L 176.1 24.6 L 178.5 24.6 Q 179.9 24.6, 180.7 25.2 Q 181.4 25.7, 181.4 26.8 Q 181.4 28.0, 180.1 28.5 M 177.2 25.5 L 177.2 28.1 L 178.5 28.1 Q 179.3 28.1, 179.8 27.8 Q 180.2 27.5, 180.2 26.8 Q 180.2 25.5, 178.5 25.5 L 177.2 25.5 M 178.9 32.0 Q 179.7 32.0, 180.1 31.6 Q 180.5 31.2, 180.5 30.4 Q 180.5 29.8, 180.1 29.4 Q 179.6 29.1, 178.7 29.1 L 177.2 29.1 L 177.2 32.0 L 178.9 32.0 " fill="#000000"/>
<path class="atom-8" d="M 183.6 26.9 L 183.7 27.7 Q 184.4 26.8, 185.4 26.8 Q 185.7 26.8, 186.2 26.9 L 186.0 27.9 Q 185.5 27.7, 185.2 27.7 Q 184.7 27.7, 184.4 27.9 Q 184.1 28.1, 183.8 28.6 L 183.8 32.9 L 182.7 32.9 L 182.7 26.9 L 183.6 26.9 " fill="#000000"/>
</svg>