<svg xmlns="http://www.w3.org/2000/svg" xmlns:rdkit="http://www.rdkit.org/xml" xmlns:xlink="http://www.w3.org/1999/xlink" version="1.1" baseProfile="full" xml:space="preserve" width="81px" height="66px" viewBox="0 0 81 66">
<!-- END OF HEADER -->
<path class="bond-0 atom-0 atom-1" d="M 6.4,8.0 L 20.7,32.7" style="fill:none;fill-rule:evenodd;stroke:#000000;stroke-width:2.0px;stroke-linecap:butt;stroke-linejoin:miter;stroke-opacity:1"/>
<path class="bond-1 atom-1 atom-2" d="M 20.7,32.7 L 6.1,58.0" style="fill:none;fill-rule:evenodd;stroke:#000000;stroke-width:2.0px;stroke-linecap:butt;stroke-linejoin:miter;stroke-opacity:1"/>
<path class="bond-2 atom-1 atom-3" d="M 20.7,32.7 L 49.8,32.7" style="fill:none;fill-rule:evenodd;stroke:#000000;stroke-width:2.0px;stroke-linecap:butt;stroke-linejoin:miter;stroke-opacity:1"/>
<path class="bond-3 atom-3 atom-4" d="M 51.1,34.9 L 63.3,13.9" style="fill:none;fill-rule:evenodd;stroke:#000000;stroke-width:2.0px;stroke-linecap:butt;stroke-linejoin:miter;stroke-opacity:1"/>
<path class="bond-3 atom-3 atom-4" d="M 47.3,32.7 L 59.5,11.7" style="fill:none;fill-rule:evenodd;stroke:#000000;stroke-width:2.0px;stroke-linecap:butt;stroke-linejoin:miter;stroke-opacity:1"/>
<path class="bond-4 atom-3 atom-5" d="M 49.8,32.7 L 61.4,52.9" style="fill:none;fill-rule:evenodd;stroke:#000000;stroke-width:2.0px;stroke-linecap:butt;stroke-linejoin:miter;stroke-opacity:1"/>
<path d="M 48.4,32.7 L 49.8,32.7 L 50.4,33.8" style="fill:none;stroke:#000000;stroke-width:2.0px;stroke-linecap:butt;stroke-linejoin:miter;stroke-miterlimit:10;stroke-opacity:1;"/>
<path class="atom-0" d="M 4.5 6.6 L 5.8 5.3 L 4.2 5.0 L 4.4 4.2 L 5.9 4.9 L 5.7 3.3 L 6.5 3.3 L 6.3 4.9 L 7.8 4.2 L 8.1 5.0 L 6.4 5.3 L 7.6 6.6 L 6.9 7.1 L 6.1 5.5 L 5.3 7.1 L 4.5 6.6 " fill="#000000"/>
<path class="atom-4" d="M 60.6 7.5 Q 60.6 5.5, 61.6 4.4 Q 62.6 3.3, 64.4 3.3 Q 66.2 3.3, 67.2 4.4 Q 68.2 5.5, 68.2 7.5 Q 68.2 9.5, 67.2 10.7 Q 66.2 11.8, 64.4 11.8 Q 62.6 11.8, 61.6 10.7 Q 60.6 9.5, 60.6 7.5 M 64.4 10.9 Q 65.7 10.9, 66.3 10.0 Q 67.0 9.2, 67.0 7.5 Q 67.0 5.9, 66.3 5.1 Q 65.7 4.3, 64.4 4.3 Q 63.2 4.3, 62.5 5.1 Q 61.8 5.9, 61.8 7.5 Q 61.8 9.2, 62.5 10.0 Q 63.2 10.9, 64.4 10.9 " fill="#000000"/>
<path class="atom-5" d="M 60.6 58.0 Q 60.6 56.0, 61.6 54.9 Q 62.6 53.8, 64.4 53.8 Q 66.2 53.8, 67.2 54.9 Q 68.2 56.0, 68.2 58.0 Q 68.2 60.0, 67.2 61.2 Q 66.2 62.3, 64.4 62.3 Q 62.6 62.3, 61.6 61.2 Q 60.6 60.0, 60.6 58.0 M 64.4 61.4 Q 65.7 61.4, 66.3 60.5 Q 67.0 59.7, 67.0 58.0 Q 67.0 56.4, 66.3 55.6 Q 65.7 54.8, 64.4 54.8 Q 63.2 54.8, 62.5 55.6 Q 61.8 56.4, 61.8 58.0 Q 61.8 59.7, 62.5 60.5 Q 63.2 61.4, 64.4 61.4 " fill="#000000"/>
<path class="atom-5" d="M 69.5 53.9 L 70.6 53.9 L 70.6 57.4 L 74.8 57.4 L 74.8 53.9 L 75.9 53.9 L 75.9 62.2 L 74.8 62.2 L 74.8 58.4 L 70.6 58.4 L 70.6 62.2 L 69.5 62.2 L 69.5 53.9 " fill="#000000"/>
</svg>