<svg xmlns="http://www.w3.org/2000/svg" xmlns:rdkit="http://www.rdkit.org/xml" xmlns:xlink="http://www.w3.org/1999/xlink" version="1.1" baseProfile="full" xml:space="preserve" width="59px" height="54px" viewBox="0 0 59 54">
<!-- END OF HEADER -->
<path class="bond-0 atom-0 atom-1" d="M 8.1,49.0 L 30.4,36.1" style="fill:none;fill-rule:evenodd;stroke:#000000;stroke-width:2.0px;stroke-linecap:butt;stroke-linejoin:miter;stroke-opacity:1"/>
<path class="bond-1 atom-1 atom-2" d="M 32.6,37.4 L 32.6,12.2" style="fill:none;fill-rule:evenodd;stroke:#000000;stroke-width:2.0px;stroke-linecap:butt;stroke-linejoin:miter;stroke-opacity:1"/>
<path class="bond-1 atom-1 atom-2" d="M 28.2,37.4 L 28.2,12.2" style="fill:none;fill-rule:evenodd;stroke:#000000;stroke-width:2.0px;stroke-linecap:butt;stroke-linejoin:miter;stroke-opacity:1"/>
<path class="bond-2 atom-1 atom-3" d="M 30.4,36.1 L 55.7,50.7" style="fill:none;fill-rule:evenodd;stroke:#000000;stroke-width:2.0px;stroke-linecap:butt;stroke-linejoin:miter;stroke-opacity:1"/>
<path d="M 29.3,36.7 L 30.4,36.1 L 31.7,36.8" style="fill:none;stroke:#000000;stroke-width:2.0px;stroke-linecap:butt;stroke-linejoin:miter;stroke-miterlimit:10;stroke-opacity:1;"/>
<path class="atom-0" d="M 3.6 49.8 L 4.8 48.5 L 3.2 48.2 L 3.4 47.4 L 4.9 48.1 L 4.7 46.5 L 5.6 46.5 L 5.3 48.1 L 6.8 47.4 L 7.1 48.2 L 5.5 48.5 L 6.6 49.8 L 5.9 50.3 L 5.1 48.7 L 4.3 50.3 L 3.6 49.8 " fill="#000000"/>
<path class="atom-2" d="M 26.6 6.9 Q 26.6 4.9, 27.6 3.8 Q 28.6 2.7, 30.4 2.7 Q 32.3 2.7, 33.2 3.8 Q 34.2 4.9, 34.2 6.9 Q 34.2 8.9, 33.2 10.1 Q 32.2 11.2, 30.4 11.2 Q 28.6 11.2, 27.6 10.1 Q 26.6 8.9, 26.6 6.9 M 30.4 10.3 Q 31.7 10.3, 32.4 9.4 Q 33.1 8.6, 33.1 6.9 Q 33.1 5.3, 32.4 4.5 Q 31.7 3.6, 30.4 3.6 Q 29.2 3.6, 28.5 4.5 Q 27.8 5.3, 27.8 6.9 Q 27.8 8.6, 28.5 9.4 Q 29.2 10.3, 30.4 10.3 " fill="#000000"/>
</svg>