<svg xmlns="http://www.w3.org/2000/svg" xmlns:rdkit="http://www.rdkit.org/xml" xmlns:xlink="http://www.w3.org/1999/xlink" version="1.1" baseProfile="full" xml:space="preserve" width="276px" height="186px" viewBox="0 0 276 186">
<!-- END OF HEADER -->
<rect style="opacity:1.0;fill:#FFFFFF;stroke:none" width="276.0" height="186.0" x="0.0" y="0.0"> </rect>
<ellipse cx="16.2" cy="63.9" rx="2.1" ry="2.1" class="atom-0" style="fill:#FF7F7F;fill-rule:evenodd;stroke:#FF7F7F;stroke-width:1.0px;stroke-linecap:butt;stroke-linejoin:miter;stroke-opacity:1"/>
<ellipse cx="36.2" cy="85.7" rx="2.1" ry="2.1" class="atom-1" style="fill:#FF7F7F;fill-rule:evenodd;stroke:#FF7F7F;stroke-width:1.0px;stroke-linecap:butt;stroke-linejoin:miter;stroke-opacity:1"/>
<ellipse cx="65.1" cy="79.3" rx="2.7" ry="2.7" class="atom-2" style="fill:#7F7FFF;fill-rule:evenodd;stroke:#7F7FFF;stroke-width:1.0px;stroke-linecap:butt;stroke-linejoin:miter;stroke-opacity:1"/>
<ellipse cx="85.0" cy="101.1" rx="2.7" ry="2.7" class="atom-3" style="fill:#7F7FFF;fill-rule:evenodd;stroke:#7F7FFF;stroke-width:1.0px;stroke-linecap:butt;stroke-linejoin:miter;stroke-opacity:1"/>
<ellipse cx="113.9" cy="94.7" rx="2.7" ry="2.7" class="atom-4" style="fill:#7F7FFF;fill-rule:evenodd;stroke:#7F7FFF;stroke-width:1.0px;stroke-linecap:butt;stroke-linejoin:miter;stroke-opacity:1"/>
<ellipse cx="133.9" cy="116.5" rx="0.3" ry="0.3" class="atom-5" style="fill:#FF7F7F;fill-rule:evenodd;stroke:#FF7F7F;stroke-width:1.0px;stroke-linecap:butt;stroke-linejoin:miter;stroke-opacity:1"/>
<ellipse cx="162.8" cy="110.0" rx="7.7" ry="7.7" class="atom-6" style="fill:#7F7FFF;fill-rule:evenodd;stroke:#7F7FFF;stroke-width:1.0px;stroke-linecap:butt;stroke-linejoin:miter;stroke-opacity:1"/>
<ellipse cx="171.6" cy="81.8" rx="7.7" ry="7.7" class="atom-7" style="fill:#7F7FFF;fill-rule:evenodd;stroke:#7F7FFF;stroke-width:1.0px;stroke-linecap:butt;stroke-linejoin:miter;stroke-opacity:1"/>
<ellipse cx="200.5" cy="75.4" rx="7.7" ry="7.7" class="atom-8" style="fill:#7F7FFF;fill-rule:evenodd;stroke:#7F7FFF;stroke-width:1.0px;stroke-linecap:butt;stroke-linejoin:miter;stroke-opacity:1"/>
<ellipse cx="209.4" cy="47.2" rx="0.3" ry="0.3" class="atom-9" style="fill:#FF7F7F;fill-rule:evenodd;stroke:#FF7F7F;stroke-width:1.0px;stroke-linecap:butt;stroke-linejoin:miter;stroke-opacity:1"/>
<ellipse cx="238.2" cy="40.8" rx="3.3" ry="3.3" class="atom-10" style="fill:#7F7FFF;fill-rule:evenodd;stroke:#7F7FFF;stroke-width:1.0px;stroke-linecap:butt;stroke-linejoin:miter;stroke-opacity:1"/>
<ellipse cx="247.1" cy="12.6" rx="3.3" ry="3.3" class="atom-11" style="fill:#7F7FFF;fill-rule:evenodd;stroke:#7F7FFF;stroke-width:1.0px;stroke-linecap:butt;stroke-linejoin:miter;stroke-opacity:1"/>
<ellipse cx="258.2" cy="62.6" rx="3.3" ry="3.3" class="atom-12" style="fill:#7F7FFF;fill-rule:evenodd;stroke:#7F7FFF;stroke-width:1.0px;stroke-linecap:butt;stroke-linejoin:miter;stroke-opacity:1"/>
<ellipse cx="220.5" cy="97.2" rx="7.7" ry="7.7" class="atom-13" style="fill:#7F7FFF;fill-rule:evenodd;stroke:#7F7FFF;stroke-width:1.0px;stroke-linecap:butt;stroke-linejoin:miter;stroke-opacity:1"/>
<ellipse cx="211.6" cy="125.4" rx="7.7" ry="7.7" class="atom-14" style="fill:#7F7FFF;fill-rule:evenodd;stroke:#7F7FFF;stroke-width:1.0px;stroke-linecap:butt;stroke-linejoin:miter;stroke-opacity:1"/>
<ellipse cx="231.6" cy="147.2" rx="0.9" ry="0.9" class="atom-15" style="fill:#7F7FFF;fill-rule:evenodd;stroke:#7F7FFF;stroke-width:1.0px;stroke-linecap:butt;stroke-linejoin:miter;stroke-opacity:1"/>
<ellipse cx="222.7" cy="175.4" rx="0.9" ry="0.9" class="atom-16" style="fill:#7F7FFF;fill-rule:evenodd;stroke:#7F7FFF;stroke-width:1.0px;stroke-linecap:butt;stroke-linejoin:miter;stroke-opacity:1"/>
<ellipse cx="182.7" cy="131.8" rx="7.7" ry="7.7" class="atom-17" style="fill:#7F7FFF;fill-rule:evenodd;stroke:#7F7FFF;stroke-width:1.0px;stroke-linecap:butt;stroke-linejoin:miter;stroke-opacity:1"/>
<path class="bond-0 atom-0 atom-1" d="M 16.2,63.9 L 31.4,80.5" style="fill:none;fill-rule:evenodd;stroke:#000000;stroke-width:2.0px;stroke-linecap:butt;stroke-linejoin:miter;stroke-opacity:1"/>
<path class="bond-1 atom-1 atom-2" d="M 41.0,84.6 L 65.1,79.3" style="fill:none;fill-rule:evenodd;stroke:#000000;stroke-width:2.0px;stroke-linecap:butt;stroke-linejoin:miter;stroke-opacity:1"/>
<path class="bond-2 atom-2 atom-3" d="M 65.1,79.3 L 85.0,101.1" style="fill:none;fill-rule:evenodd;stroke:#000000;stroke-width:2.0px;stroke-linecap:butt;stroke-linejoin:miter;stroke-opacity:1"/>
<path class="bond-3 atom-3 atom-4" d="M 85.0,101.1 L 113.9,94.7" style="fill:none;fill-rule:evenodd;stroke:#000000;stroke-width:2.0px;stroke-linecap:butt;stroke-linejoin:miter;stroke-opacity:1"/>
<path class="bond-4 atom-4 atom-5" d="M 113.9,94.7 L 129.7,111.9" style="fill:none;fill-rule:evenodd;stroke:#000000;stroke-width:2.0px;stroke-linecap:butt;stroke-linejoin:miter;stroke-opacity:1"/>
<path class="bond-5 atom-5 atom-6" d="M 138.0,115.5 L 162.8,110.0" style="fill:none;fill-rule:evenodd;stroke:#000000;stroke-width:2.0px;stroke-linecap:butt;stroke-linejoin:miter;stroke-opacity:1"/>
<path class="bond-6 atom-6 atom-7" d="M 162.8,110.0 L 170.0,87.0" style="fill:none;fill-rule:evenodd;stroke:#000000;stroke-width:2.0px;stroke-linecap:butt;stroke-linejoin:miter;stroke-opacity:1"/>
<path class="bond-6 atom-6 atom-7" d="M 167.8,108.9 L 174.2,88.3" style="fill:none;fill-rule:evenodd;stroke:#000000;stroke-width:2.0px;stroke-linecap:butt;stroke-linejoin:miter;stroke-opacity:1"/>
<path class="bond-7 atom-7 atom-8" d="M 175.8,80.9 L 200.5,75.4" style="fill:none;fill-rule:evenodd;stroke:#000000;stroke-width:2.0px;stroke-linecap:butt;stroke-linejoin:miter;stroke-opacity:1"/>
<path class="bond-8 atom-8 atom-9" d="M 200.5,75.4 L 207.8,52.4" style="fill:none;fill-rule:evenodd;stroke:#000000;stroke-width:2.0px;stroke-linecap:butt;stroke-linejoin:miter;stroke-opacity:1"/>
<path class="bond-9 atom-9 atom-10" d="M 213.5,46.3 L 238.2,40.8" style="fill:none;fill-rule:evenodd;stroke:#000000;stroke-width:2.0px;stroke-linecap:butt;stroke-linejoin:miter;stroke-opacity:1"/>
<path class="bond-10 atom-10 atom-11" d="M 238.2,40.8 L 247.1,12.6" style="fill:none;fill-rule:evenodd;stroke:#000000;stroke-width:2.0px;stroke-linecap:butt;stroke-linejoin:miter;stroke-opacity:1"/>
<path class="bond-11 atom-10 atom-12" d="M 238.2,40.8 L 258.2,62.6" style="fill:none;fill-rule:evenodd;stroke:#000000;stroke-width:2.0px;stroke-linecap:butt;stroke-linejoin:miter;stroke-opacity:1"/>
<path class="bond-12 atom-8 atom-13" d="M 200.5,75.4 L 216.3,92.7" style="fill:none;fill-rule:evenodd;stroke:#000000;stroke-width:2.0px;stroke-linecap:butt;stroke-linejoin:miter;stroke-opacity:1"/>
<path class="bond-12 atom-8 atom-13" d="M 199.0,80.3 L 213.1,95.7" style="fill:none;fill-rule:evenodd;stroke:#000000;stroke-width:2.0px;stroke-linecap:butt;stroke-linejoin:miter;stroke-opacity:1"/>
<path class="bond-13 atom-13 atom-14" d="M 218.9,102.4 L 211.6,125.4" style="fill:none;fill-rule:evenodd;stroke:#000000;stroke-width:2.0px;stroke-linecap:butt;stroke-linejoin:miter;stroke-opacity:1"/>
<path class="bond-14 atom-14 atom-15" d="M 211.6,125.4 L 227.9,143.2" style="fill:none;fill-rule:evenodd;stroke:#000000;stroke-width:2.0px;stroke-linecap:butt;stroke-linejoin:miter;stroke-opacity:1"/>
<path class="bond-15 atom-15 atom-16" d="M 229.9,152.6 L 222.7,175.4" style="fill:none;fill-rule:evenodd;stroke:#000000;stroke-width:2.0px;stroke-linecap:butt;stroke-linejoin:miter;stroke-opacity:1"/>
<path class="bond-16 atom-14 atom-17" d="M 211.6,125.4 L 186.9,130.9" style="fill:none;fill-rule:evenodd;stroke:#000000;stroke-width:2.0px;stroke-linecap:butt;stroke-linejoin:miter;stroke-opacity:1"/>
<path class="bond-16 atom-14 atom-17" d="M 208.2,121.6 L 185.9,126.6" style="fill:none;fill-rule:evenodd;stroke:#000000;stroke-width:2.0px;stroke-linecap:butt;stroke-linejoin:miter;stroke-opacity:1"/>
<path class="bond-17 atom-17 atom-6" d="M 178.6,127.3 L 162.8,110.0" style="fill:none;fill-rule:evenodd;stroke:#000000;stroke-width:2.0px;stroke-linecap:butt;stroke-linejoin:miter;stroke-opacity:1"/>
<path d="M 63.9,79.6 L 65.1,79.3 L 66.1,80.4" style="fill:none;stroke:#000000;stroke-width:2.0px;stroke-linecap:butt;stroke-linejoin:miter;stroke-miterlimit:10;stroke-opacity:1;"/>
<path d="M 84.0,100.0 L 85.0,101.1 L 86.5,100.8" style="fill:none;stroke:#000000;stroke-width:2.0px;stroke-linecap:butt;stroke-linejoin:miter;stroke-miterlimit:10;stroke-opacity:1;"/>
<path d="M 112.5,95.0 L 113.9,94.7 L 114.7,95.5" style="fill:none;stroke:#000000;stroke-width:2.0px;stroke-linecap:butt;stroke-linejoin:miter;stroke-miterlimit:10;stroke-opacity:1;"/>
<path class="atom-1" d="M 32.3 85.7 Q 32.3 83.7, 33.3 82.6 Q 34.3 81.5, 36.2 81.5 Q 38.0 81.5, 39.0 82.6 Q 40.0 83.7, 40.0 85.7 Q 40.0 87.8, 39.0 88.9 Q 38.0 90.1, 36.2 90.1 Q 34.3 90.1, 33.3 88.9 Q 32.3 87.8, 32.3 85.7 M 36.2 89.1 Q 37.5 89.1, 38.2 88.3 Q 38.9 87.4, 38.9 85.7 Q 38.9 84.1, 38.2 83.3 Q 37.5 82.4, 36.2 82.4 Q 34.9 82.4, 34.2 83.2 Q 33.5 84.1, 33.5 85.7 Q 33.5 87.4, 34.2 88.3 Q 34.9 89.1, 36.2 89.1 " fill="#000000"/>
<path class="atom-5" d="M 132.0 112.3 L 134.8 116.7 Q 135.1 117.1, 135.5 117.9 Q 135.9 118.7, 136.0 118.8 L 136.0 112.3 L 137.1 112.3 L 137.1 120.6 L 135.9 120.6 L 133.0 115.8 Q 132.6 115.2, 132.3 114.6 Q 131.9 113.9, 131.8 113.7 L 131.8 120.6 L 130.7 120.6 L 130.7 112.3 L 132.0 112.3 " fill="#000000"/>
<path class="atom-5" d="M 130.6 121.5 L 131.8 121.5 L 131.8 125.0 L 136.0 125.0 L 136.0 121.5 L 137.2 121.5 L 137.2 129.9 L 136.0 129.9 L 136.0 126.0 L 131.8 126.0 L 131.8 129.9 L 130.6 129.9 L 130.6 121.5 " fill="#000000"/>
<path class="atom-7" d="M 169.8 77.6 L 172.5 82.1 Q 172.8 82.5, 173.2 83.3 Q 173.7 84.1, 173.7 84.2 L 173.7 77.6 L 174.8 77.6 L 174.8 86.0 L 173.7 86.0 L 170.7 81.2 Q 170.4 80.6, 170.0 80.0 Q 169.7 79.3, 169.5 79.1 L 169.5 86.0 L 168.5 86.0 L 168.5 77.6 L 169.8 77.6 " fill="#000000"/>
<path class="atom-9" d="M 198.0 43.0 L 199.1 43.0 L 199.1 46.6 L 203.4 46.6 L 203.4 43.0 L 204.6 43.0 L 204.6 51.4 L 203.4 51.4 L 203.4 47.5 L 199.1 47.5 L 199.1 51.4 L 198.0 51.4 L 198.0 43.0 " fill="#000000"/>
<path class="atom-9" d="M 207.5 43.0 L 210.3 47.5 Q 210.5 47.9, 211.0 48.7 Q 211.4 49.5, 211.4 49.5 L 211.4 43.0 L 212.6 43.0 L 212.6 51.4 L 211.4 51.4 L 208.5 46.6 Q 208.1 46.0, 207.8 45.3 Q 207.4 44.7, 207.3 44.5 L 207.3 51.4 L 206.2 51.4 L 206.2 43.0 L 207.5 43.0 " fill="#000000"/>
<path class="atom-13" d="M 218.6 93.0 L 221.4 97.5 Q 221.7 97.9, 222.1 98.7 Q 222.5 99.5, 222.6 99.5 L 222.6 93.0 L 223.7 93.0 L 223.7 101.4 L 222.5 101.4 L 219.6 96.5 Q 219.2 96.0, 218.9 95.3 Q 218.5 94.7, 218.4 94.5 L 218.4 101.4 L 217.3 101.4 L 217.3 93.0 L 218.6 93.0 " fill="#000000"/>
<path class="atom-15" d="M 229.2 150.1 Q 229.3 150.1, 229.7 150.3 Q 230.1 150.4, 230.5 150.6 Q 231.0 150.6, 231.4 150.6 Q 232.2 150.6, 232.7 150.3 Q 233.1 149.9, 233.1 149.2 Q 233.1 148.7, 232.9 148.5 Q 232.7 148.2, 232.3 148.0 Q 231.9 147.9, 231.4 147.7 Q 230.6 147.5, 230.2 147.3 Q 229.7 147.0, 229.4 146.6 Q 229.1 146.1, 229.1 145.4 Q 229.1 144.3, 229.8 143.7 Q 230.5 143.0, 231.9 143.0 Q 232.9 143.0, 234.0 143.5 L 233.7 144.4 Q 232.7 144.0, 232.0 144.0 Q 231.2 144.0, 230.7 144.3 Q 230.3 144.7, 230.3 145.2 Q 230.3 145.7, 230.5 146.0 Q 230.7 146.2, 231.1 146.4 Q 231.4 146.5, 232.0 146.7 Q 232.7 147.0, 233.2 147.2 Q 233.6 147.4, 234.0 147.9 Q 234.3 148.4, 234.3 149.2 Q 234.3 150.4, 233.5 151.0 Q 232.7 151.6, 231.4 151.6 Q 230.7 151.6, 230.1 151.4 Q 229.6 151.3, 228.9 151.0 L 229.2 150.1 " fill="#000000"/>
<path class="atom-17" d="M 180.9 127.6 L 183.6 132.1 Q 183.9 132.5, 184.4 133.3 Q 184.8 134.1, 184.8 134.1 L 184.8 127.6 L 185.9 127.6 L 185.9 136.0 L 184.8 136.0 L 181.8 131.2 Q 181.5 130.6, 181.1 129.9 Q 180.8 129.3, 180.7 129.1 L 180.7 136.0 L 179.6 136.0 L 179.6 127.6 L 180.9 127.6 " fill="#000000"/>
</svg>