<svg xmlns="http://www.w3.org/2000/svg" xmlns:rdkit="http://www.rdkit.org/xml" xmlns:xlink="http://www.w3.org/1999/xlink" version="1.1" baseProfile="full" xml:space="preserve" width="190px" height="140px" viewBox="0 0 190 140">
<!-- END OF HEADER -->
<rect style="opacity:1.0;fill:#FFFFFF;stroke:none" width="190.0" height="140.0" x="0.0" y="0.0"> </rect>
<ellipse cx="11.7" cy="116.4" rx="2.2" ry="2.2" class="atom-0" style="fill:#FF7F7F;fill-rule:evenodd;stroke:#FF7F7F;stroke-width:1.0px;stroke-linecap:butt;stroke-linejoin:miter;stroke-opacity:1"/>
<ellipse cx="41.2" cy="115.4" rx="2.9" ry="2.9" class="atom-1" style="fill:#FF7F7F;fill-rule:evenodd;stroke:#FF7F7F;stroke-width:1.0px;stroke-linecap:butt;stroke-linejoin:miter;stroke-opacity:1"/>
<ellipse cx="55.1" cy="89.3" rx="7.8" ry="7.8" class="atom-2" style="fill:#FF7F7F;fill-rule:evenodd;stroke:#FF7F7F;stroke-width:1.0px;stroke-linecap:butt;stroke-linejoin:miter;stroke-opacity:1"/>
<ellipse cx="39.4" cy="64.2" rx="1.6" ry="1.6" class="atom-3" style="fill:#FF7F7F;fill-rule:evenodd;stroke:#FF7F7F;stroke-width:1.0px;stroke-linecap:butt;stroke-linejoin:miter;stroke-opacity:1"/>
<ellipse cx="84.7" cy="88.3" rx="5.6" ry="5.6" class="atom-4" style="fill:#7F7FFF;fill-rule:evenodd;stroke:#7F7FFF;stroke-width:1.0px;stroke-linecap:butt;stroke-linejoin:miter;stroke-opacity:1"/>
<ellipse cx="98.5" cy="62.2" rx="10.6" ry="10.6" class="atom-5" style="fill:#7F7FFF;fill-rule:evenodd;stroke:#7F7FFF;stroke-width:1.0px;stroke-linecap:butt;stroke-linejoin:miter;stroke-opacity:1"/>
<ellipse cx="82.9" cy="37.1" rx="1.3" ry="1.3" class="atom-6" style="fill:#7F7FFF;fill-rule:evenodd;stroke:#7F7FFF;stroke-width:1.0px;stroke-linecap:butt;stroke-linejoin:miter;stroke-opacity:1"/>
<ellipse cx="96.8" cy="11.0" rx="2.7" ry="2.7" class="atom-7" style="fill:#7F7FFF;fill-rule:evenodd;stroke:#7F7FFF;stroke-width:1.0px;stroke-linecap:butt;stroke-linejoin:miter;stroke-opacity:1"/>
<ellipse cx="126.3" cy="10.0" rx="2.7" ry="2.7" class="atom-8" style="fill:#7F7FFF;fill-rule:evenodd;stroke:#7F7FFF;stroke-width:1.0px;stroke-linecap:butt;stroke-linejoin:miter;stroke-opacity:1"/>
<ellipse cx="142.0" cy="35.0" rx="5.2" ry="5.2" class="atom-9" style="fill:#7F7FFF;fill-rule:evenodd;stroke:#7F7FFF;stroke-width:1.0px;stroke-linecap:butt;stroke-linejoin:miter;stroke-opacity:1"/>
<ellipse cx="128.1" cy="61.2" rx="14.6" ry="14.6" class="atom-10" style="fill:#7F7FFF;fill-rule:evenodd;stroke:#7F7FFF;stroke-width:1.0px;stroke-linecap:butt;stroke-linejoin:miter;stroke-opacity:1"/>
<ellipse cx="143.8" cy="86.2" rx="14.6" ry="14.6" class="atom-11" style="fill:#7F7FFF;fill-rule:evenodd;stroke:#7F7FFF;stroke-width:1.0px;stroke-linecap:butt;stroke-linejoin:miter;stroke-opacity:1"/>
<ellipse cx="173.3" cy="88.3" rx="2.3" ry="2.3" class="atom-12" style="fill:#FF7F7F;fill-rule:evenodd;stroke:#FF7F7F;stroke-width:1.0px;stroke-linecap:butt;stroke-linejoin:miter;stroke-opacity:1"/>
<ellipse cx="180.4" cy="117.0" rx="0.1" ry="0.1" class="atom-13" style="fill:#7F7FFF;fill-rule:evenodd;stroke:#7F7FFF;stroke-width:1.0px;stroke-linecap:butt;stroke-linejoin:miter;stroke-opacity:1"/>
<ellipse cx="155.3" cy="132.7" rx="0.1" ry="0.1" class="atom-14" style="fill:#7F7FFF;fill-rule:evenodd;stroke:#7F7FFF;stroke-width:1.0px;stroke-linecap:butt;stroke-linejoin:miter;stroke-opacity:1"/>
<ellipse cx="132.7" cy="113.6" rx="2.3" ry="2.3" class="atom-15" style="fill:#FF7F7F;fill-rule:evenodd;stroke:#FF7F7F;stroke-width:1.0px;stroke-linecap:butt;stroke-linejoin:miter;stroke-opacity:1"/>
<path class="bond-0 atom-0 atom-1" d="M 11.7,116.4 L 37.1,115.6" style="fill:none;fill-rule:evenodd;stroke:#000000;stroke-width:2.0px;stroke-linecap:butt;stroke-linejoin:miter;stroke-opacity:1"/>
<path class="bond-1 atom-1 atom-2" d="M 44.0,110.3 L 55.1,89.3" style="fill:none;fill-rule:evenodd;stroke:#000000;stroke-width:2.0px;stroke-linecap:butt;stroke-linejoin:miter;stroke-opacity:1"/>
<path class="bond-2 atom-2 atom-3" d="M 57.7,89.2 L 44.7,68.4" style="fill:none;fill-rule:evenodd;stroke:#000000;stroke-width:2.0px;stroke-linecap:butt;stroke-linejoin:miter;stroke-opacity:1"/>
<path class="bond-2 atom-2 atom-3" d="M 53.9,91.6 L 40.9,70.7" style="fill:none;fill-rule:evenodd;stroke:#000000;stroke-width:2.0px;stroke-linecap:butt;stroke-linejoin:miter;stroke-opacity:1"/>
<path class="bond-3 atom-2 atom-4" d="M 55.1,89.3 L 79.8,88.5" style="fill:none;fill-rule:evenodd;stroke:#000000;stroke-width:2.0px;stroke-linecap:butt;stroke-linejoin:miter;stroke-opacity:1"/>
<path class="bond-4 atom-4 atom-5" d="M 87.4,83.1 L 98.5,62.2" style="fill:none;fill-rule:evenodd;stroke:#000000;stroke-width:2.0px;stroke-linecap:butt;stroke-linejoin:miter;stroke-opacity:1"/>
<path class="bond-5 atom-5 atom-6" d="M 98.5,62.2 L 82.9,37.1" style="fill:none;fill-rule:evenodd;stroke:#000000;stroke-width:2.0px;stroke-linecap:butt;stroke-linejoin:miter;stroke-opacity:1"/>
<path class="bond-5 atom-5 atom-6" d="M 100.9,57.7 L 88.0,36.9" style="fill:none;fill-rule:evenodd;stroke:#000000;stroke-width:2.0px;stroke-linecap:butt;stroke-linejoin:miter;stroke-opacity:1"/>
<path class="bond-6 atom-6 atom-7" d="M 82.9,37.1 L 96.8,11.0" style="fill:none;fill-rule:evenodd;stroke:#000000;stroke-width:2.0px;stroke-linecap:butt;stroke-linejoin:miter;stroke-opacity:1"/>
<path class="bond-7 atom-7 atom-8" d="M 96.8,11.0 L 126.3,10.0" style="fill:none;fill-rule:evenodd;stroke:#000000;stroke-width:2.0px;stroke-linecap:butt;stroke-linejoin:miter;stroke-opacity:1"/>
<path class="bond-7 atom-7 atom-8" d="M 99.5,15.3 L 123.9,14.5" style="fill:none;fill-rule:evenodd;stroke:#000000;stroke-width:2.0px;stroke-linecap:butt;stroke-linejoin:miter;stroke-opacity:1"/>
<path class="bond-8 atom-8 atom-9" d="M 126.3,10.0 L 142.0,35.0" style="fill:none;fill-rule:evenodd;stroke:#000000;stroke-width:2.0px;stroke-linecap:butt;stroke-linejoin:miter;stroke-opacity:1"/>
<path class="bond-9 atom-9 atom-10" d="M 142.0,35.0 L 128.1,61.2" style="fill:none;fill-rule:evenodd;stroke:#000000;stroke-width:2.0px;stroke-linecap:butt;stroke-linejoin:miter;stroke-opacity:1"/>
<path class="bond-9 atom-9 atom-10" d="M 136.9,35.2 L 125.4,56.8" style="fill:none;fill-rule:evenodd;stroke:#000000;stroke-width:2.0px;stroke-linecap:butt;stroke-linejoin:miter;stroke-opacity:1"/>
<path class="bond-10 atom-10 atom-11" d="M 128.1,61.2 L 143.8,86.2" style="fill:none;fill-rule:evenodd;stroke:#000000;stroke-width:2.0px;stroke-linecap:butt;stroke-linejoin:miter;stroke-opacity:1"/>
<path class="bond-11 atom-11 atom-12" d="M 143.8,86.2 L 168.4,88.0" style="fill:none;fill-rule:evenodd;stroke:#000000;stroke-width:2.0px;stroke-linecap:butt;stroke-linejoin:miter;stroke-opacity:1"/>
<path class="bond-12 atom-12 atom-13" d="M 174.6,93.6 L 180.4,117.0" style="fill:none;fill-rule:evenodd;stroke:#000000;stroke-width:2.0px;stroke-linecap:butt;stroke-linejoin:miter;stroke-opacity:1"/>
<path class="bond-13 atom-13 atom-14" d="M 180.4,117.0 L 155.3,132.7" style="fill:none;fill-rule:evenodd;stroke:#000000;stroke-width:2.0px;stroke-linecap:butt;stroke-linejoin:miter;stroke-opacity:1"/>
<path class="bond-14 atom-14 atom-15" d="M 155.3,132.7 L 137.5,117.7" style="fill:none;fill-rule:evenodd;stroke:#000000;stroke-width:2.0px;stroke-linecap:butt;stroke-linejoin:miter;stroke-opacity:1"/>
<path class="bond-15 atom-10 atom-5" d="M 128.1,61.2 L 98.5,62.2" style="fill:none;fill-rule:evenodd;stroke:#000000;stroke-width:2.0px;stroke-linecap:butt;stroke-linejoin:miter;stroke-opacity:1"/>
<path class="bond-16 atom-15 atom-11" d="M 134.8,108.4 L 143.8,86.2" style="fill:none;fill-rule:evenodd;stroke:#000000;stroke-width:2.0px;stroke-linecap:butt;stroke-linejoin:miter;stroke-opacity:1"/>
<path d="M 54.6,90.4 L 55.1,89.3 L 56.3,89.3" style="fill:none;stroke:#000000;stroke-width:2.0px;stroke-linecap:butt;stroke-linejoin:miter;stroke-miterlimit:10;stroke-opacity:1;"/>
<path d="M 83.7,38.4 L 82.9,37.1 L 83.6,35.8" style="fill:none;stroke:#000000;stroke-width:2.0px;stroke-linecap:butt;stroke-linejoin:miter;stroke-miterlimit:10;stroke-opacity:1;"/>
<path d="M 96.1,12.3 L 96.8,11.0 L 98.2,10.9" style="fill:none;stroke:#000000;stroke-width:2.0px;stroke-linecap:butt;stroke-linejoin:miter;stroke-miterlimit:10;stroke-opacity:1;"/>
<path d="M 124.8,10.0 L 126.3,10.0 L 127.1,11.2" style="fill:none;stroke:#000000;stroke-width:2.0px;stroke-linecap:butt;stroke-linejoin:miter;stroke-miterlimit:10;stroke-opacity:1;"/>
<path d="M 141.2,33.8 L 142.0,35.0 L 141.3,36.4" style="fill:none;stroke:#000000;stroke-width:2.0px;stroke-linecap:butt;stroke-linejoin:miter;stroke-miterlimit:10;stroke-opacity:1;"/>
<path d="M 180.1,115.8 L 180.4,117.0 L 179.1,117.8" style="fill:none;stroke:#000000;stroke-width:2.0px;stroke-linecap:butt;stroke-linejoin:miter;stroke-miterlimit:10;stroke-opacity:1;"/>
<path d="M 156.6,131.9 L 155.3,132.7 L 154.4,131.9" style="fill:none;stroke:#000000;stroke-width:2.0px;stroke-linecap:butt;stroke-linejoin:miter;stroke-miterlimit:10;stroke-opacity:1;"/>
<path class="atom-1" d="M 39.4 111.2 L 42.1 115.7 Q 42.4 116.1, 42.8 116.9 Q 43.3 117.7, 43.3 117.7 L 43.3 111.2 L 44.4 111.2 L 44.4 119.6 L 43.3 119.6 L 40.3 114.8 Q 40.0 114.2, 39.6 113.5 Q 39.2 112.9, 39.1 112.7 L 39.1 119.6 L 38.0 119.6 L 38.0 111.2 L 39.4 111.2 " fill="#000000"/>
<path class="atom-1" d="M 46.0 111.2 L 47.2 111.2 L 47.2 114.8 L 51.4 114.8 L 51.4 111.2 L 52.6 111.2 L 52.6 119.6 L 51.4 119.6 L 51.4 115.7 L 47.2 115.7 L 47.2 119.6 L 46.0 119.6 L 46.0 111.2 " fill="#000000"/>
<path class="atom-3" d="M 35.6 64.3 Q 35.6 62.2, 36.6 61.1 Q 37.6 60.0, 39.4 60.0 Q 41.3 60.0, 42.3 61.1 Q 43.3 62.2, 43.3 64.3 Q 43.3 66.3, 42.3 67.4 Q 41.3 68.6, 39.4 68.6 Q 37.6 68.6, 36.6 67.4 Q 35.6 66.3, 35.6 64.3 M 39.4 67.7 Q 40.7 67.7, 41.4 66.8 Q 42.1 65.9, 42.1 64.3 Q 42.1 62.6, 41.4 61.8 Q 40.7 60.9, 39.4 60.9 Q 38.2 60.9, 37.5 61.8 Q 36.8 62.6, 36.8 64.3 Q 36.8 65.9, 37.5 66.8 Q 38.2 67.7, 39.4 67.7 " fill="#000000"/>
<path class="atom-4" d="M 80.8 88.3 Q 80.8 86.3, 81.8 85.2 Q 82.8 84.0, 84.7 84.0 Q 86.5 84.0, 87.5 85.2 Q 88.5 86.3, 88.5 88.3 Q 88.5 90.3, 87.5 91.5 Q 86.5 92.6, 84.7 92.6 Q 82.8 92.6, 81.8 91.5 Q 80.8 90.4, 80.8 88.3 M 84.7 91.7 Q 85.9 91.7, 86.6 90.8 Q 87.3 90.0, 87.3 88.3 Q 87.3 86.7, 86.6 85.8 Q 85.9 85.0, 84.7 85.0 Q 83.4 85.0, 82.7 85.8 Q 82.0 86.7, 82.0 88.3 Q 82.0 90.0, 82.7 90.8 Q 83.4 91.7, 84.7 91.7 " fill="#000000"/>
<path class="atom-12" d="M 169.4 88.3 Q 169.4 86.3, 170.4 85.2 Q 171.4 84.1, 173.3 84.1 Q 175.1 84.1, 176.1 85.2 Q 177.1 86.3, 177.1 88.3 Q 177.1 90.4, 176.1 91.5 Q 175.1 92.7, 173.3 92.7 Q 171.4 92.7, 170.4 91.5 Q 169.4 90.4, 169.4 88.3 M 173.3 91.7 Q 174.5 91.7, 175.2 90.9 Q 175.9 90.0, 175.9 88.3 Q 175.9 86.7, 175.2 85.9 Q 174.5 85.0, 173.3 85.0 Q 172.0 85.0, 171.3 85.8 Q 170.6 86.7, 170.6 88.3 Q 170.6 90.0, 171.3 90.9 Q 172.0 91.7, 173.3 91.7 " fill="#000000"/>
<path class="atom-15" d="M 128.8 113.7 Q 128.8 111.7, 129.8 110.5 Q 130.8 109.4, 132.7 109.4 Q 134.5 109.4, 135.5 110.5 Q 136.5 111.7, 136.5 113.7 Q 136.5 115.7, 135.5 116.9 Q 134.5 118.0, 132.7 118.0 Q 130.8 118.0, 129.8 116.9 Q 128.8 115.7, 128.8 113.7 M 132.7 117.1 Q 134.0 117.1, 134.6 116.2 Q 135.3 115.3, 135.3 113.7 Q 135.3 112.0, 134.6 111.2 Q 134.0 110.4, 132.7 110.4 Q 131.4 110.4, 130.7 111.2 Q 130.0 112.0, 130.0 113.7 Q 130.0 115.4, 130.7 116.2 Q 131.4 117.1, 132.7 117.1 " fill="#000000"/>
</svg>