<svg xmlns="http://www.w3.org/2000/svg" xmlns:rdkit="http://www.rdkit.org/xml" xmlns:xlink="http://www.w3.org/1999/xlink" version="1.1" baseProfile="full" xml:space="preserve" width="204px" height="128px" viewBox="0 0 204 128">
<!-- END OF HEADER -->
<rect style="opacity:1.0;fill:#FFFFFF;stroke:none" width="204.0" height="128.0" x="0.0" y="0.0"> </rect>
<ellipse cx="10.4" cy="60.0" rx="0.2" ry="0.2" class="atom-0" style="fill:#FF7F7F;fill-rule:evenodd;stroke:#FF7F7F;stroke-width:1.0px;stroke-linecap:butt;stroke-linejoin:miter;stroke-opacity:1"/>
<ellipse cx="32.6" cy="79.4" rx="0.9" ry="0.9" class="atom-1" style="fill:#7F7FFF;fill-rule:evenodd;stroke:#7F7FFF;stroke-width:1.0px;stroke-linecap:butt;stroke-linejoin:miter;stroke-opacity:1"/>
<ellipse cx="26.9" cy="108.5" rx="0.2" ry="0.2" class="atom-2" style="fill:#FF7F7F;fill-rule:evenodd;stroke:#FF7F7F;stroke-width:1.0px;stroke-linecap:butt;stroke-linejoin:miter;stroke-opacity:1"/>
<ellipse cx="60.7" cy="69.9" rx="10.9" ry="10.9" class="atom-3" style="fill:#FF7F7F;fill-rule:evenodd;stroke:#FF7F7F;stroke-width:1.0px;stroke-linecap:butt;stroke-linejoin:miter;stroke-opacity:1"/>
<ellipse cx="66.4" cy="40.9" rx="4.8" ry="4.8" class="atom-4" style="fill:#FF7F7F;fill-rule:evenodd;stroke:#FF7F7F;stroke-width:1.0px;stroke-linecap:butt;stroke-linejoin:miter;stroke-opacity:1"/>
<ellipse cx="82.9" cy="89.4" rx="22.9" ry="22.9" class="atom-5" style="fill:#7F7FFF;fill-rule:evenodd;stroke:#7F7FFF;stroke-width:1.0px;stroke-linecap:butt;stroke-linejoin:miter;stroke-opacity:1"/>
<ellipse cx="110.9" cy="79.8" rx="24.8" ry="24.8" class="atom-6" style="fill:#7F7FFF;fill-rule:evenodd;stroke:#7F7FFF;stroke-width:1.0px;stroke-linecap:butt;stroke-linejoin:miter;stroke-opacity:1"/>
<ellipse cx="116.7" cy="50.8" rx="22.0" ry="22.0" class="atom-7" style="fill:#7F7FFF;fill-rule:evenodd;stroke:#7F7FFF;stroke-width:1.0px;stroke-linecap:butt;stroke-linejoin:miter;stroke-opacity:1"/>
<ellipse cx="144.7" cy="41.3" rx="13.1" ry="13.1" class="atom-8" style="fill:#7F7FFF;fill-rule:evenodd;stroke:#7F7FFF;stroke-width:1.0px;stroke-linecap:butt;stroke-linejoin:miter;stroke-opacity:1"/>
<ellipse cx="150.4" cy="12.2" rx="5.8" ry="5.8" class="atom-9" style="fill:#FF7F7F;fill-rule:evenodd;stroke:#FF7F7F;stroke-width:1.0px;stroke-linecap:butt;stroke-linejoin:miter;stroke-opacity:1"/>
<ellipse cx="167.0" cy="60.7" rx="5.7" ry="5.7" class="atom-10" style="fill:#FF7F7F;fill-rule:evenodd;stroke:#FF7F7F;stroke-width:1.0px;stroke-linecap:butt;stroke-linejoin:miter;stroke-opacity:1"/>
<ellipse cx="161.2" cy="89.8" rx="7.2" ry="7.2" class="atom-11" style="fill:#7F7FFF;fill-rule:evenodd;stroke:#7F7FFF;stroke-width:1.0px;stroke-linecap:butt;stroke-linejoin:miter;stroke-opacity:1"/>
<ellipse cx="190.8" cy="90.4" rx="2.4" ry="2.4" class="atom-12" style="fill:#FF7F7F;fill-rule:evenodd;stroke:#FF7F7F;stroke-width:1.0px;stroke-linecap:butt;stroke-linejoin:miter;stroke-opacity:1"/>
<ellipse cx="165.8" cy="119.0" rx="2.4" ry="2.4" class="atom-13" style="fill:#FF7F7F;fill-rule:evenodd;stroke:#FF7F7F;stroke-width:1.0px;stroke-linecap:butt;stroke-linejoin:miter;stroke-opacity:1"/>
<ellipse cx="133.2" cy="99.3" rx="3.4" ry="3.4" class="atom-14" style="fill:#FF7F7F;fill-rule:evenodd;stroke:#FF7F7F;stroke-width:1.0px;stroke-linecap:butt;stroke-linejoin:miter;stroke-opacity:1"/>
<path class="bond-0 atom-0 atom-1" d="M 10.4,60.0 L 28.5,75.8" style="fill:none;fill-rule:evenodd;stroke:#000000;stroke-width:2.0px;stroke-linecap:butt;stroke-linejoin:miter;stroke-opacity:1"/>
<path class="bond-1 atom-1 atom-2" d="M 31.6,84.6 L 26.9,108.5" style="fill:none;fill-rule:evenodd;stroke:#000000;stroke-width:2.0px;stroke-linecap:butt;stroke-linejoin:miter;stroke-opacity:1"/>
<path class="bond-2 atom-1 atom-3" d="M 36.8,78.0 L 60.7,69.9" style="fill:none;fill-rule:evenodd;stroke:#000000;stroke-width:2.0px;stroke-linecap:butt;stroke-linejoin:miter;stroke-opacity:1"/>
<path class="bond-3 atom-3 atom-4" d="M 62.6,71.6 L 67.5,46.6" style="fill:none;fill-rule:evenodd;stroke:#000000;stroke-width:2.0px;stroke-linecap:butt;stroke-linejoin:miter;stroke-opacity:1"/>
<path class="bond-3 atom-3 atom-4" d="M 58.2,70.7 L 63.2,45.8" style="fill:none;fill-rule:evenodd;stroke:#000000;stroke-width:2.0px;stroke-linecap:butt;stroke-linejoin:miter;stroke-opacity:1"/>
<path class="bond-4 atom-3 atom-5" d="M 60.7,69.9 L 78.1,85.2" style="fill:none;fill-rule:evenodd;stroke:#000000;stroke-width:2.0px;stroke-linecap:butt;stroke-linejoin:miter;stroke-opacity:1"/>
<path class="bond-5 atom-5 atom-6" d="M 87.8,87.7 L 110.9,79.8" style="fill:none;fill-rule:evenodd;stroke:#000000;stroke-width:2.0px;stroke-linecap:butt;stroke-linejoin:miter;stroke-opacity:1"/>
<path class="bond-6 atom-6 atom-7" d="M 110.9,79.8 L 116.7,50.8" style="fill:none;fill-rule:evenodd;stroke:#000000;stroke-width:2.0px;stroke-linecap:butt;stroke-linejoin:miter;stroke-opacity:1"/>
<path class="bond-6 atom-6 atom-7" d="M 115.8,78.2 L 120.5,54.2" style="fill:none;fill-rule:evenodd;stroke:#000000;stroke-width:2.0px;stroke-linecap:butt;stroke-linejoin:miter;stroke-opacity:1"/>
<path class="bond-7 atom-7 atom-8" d="M 116.7,50.8 L 144.7,41.3" style="fill:none;fill-rule:evenodd;stroke:#000000;stroke-width:2.0px;stroke-linecap:butt;stroke-linejoin:miter;stroke-opacity:1"/>
<path class="bond-8 atom-8 atom-9" d="M 146.6,42.9 L 151.6,18.0" style="fill:none;fill-rule:evenodd;stroke:#000000;stroke-width:2.0px;stroke-linecap:butt;stroke-linejoin:miter;stroke-opacity:1"/>
<path class="bond-8 atom-8 atom-9" d="M 142.3,42.1 L 147.2,17.1" style="fill:none;fill-rule:evenodd;stroke:#000000;stroke-width:2.0px;stroke-linecap:butt;stroke-linejoin:miter;stroke-opacity:1"/>
<path class="bond-9 atom-8 atom-10" d="M 144.7,41.3 L 167.0,60.7" style="fill:none;fill-rule:evenodd;stroke:#000000;stroke-width:2.0px;stroke-linecap:butt;stroke-linejoin:miter;stroke-opacity:1"/>
<path class="bond-10 atom-10 atom-11" d="M 167.0,60.7 L 161.2,89.8" style="fill:none;fill-rule:evenodd;stroke:#000000;stroke-width:2.0px;stroke-linecap:butt;stroke-linejoin:miter;stroke-opacity:1"/>
<path class="bond-11 atom-11 atom-12" d="M 161.2,89.8 L 190.8,90.4" style="fill:none;fill-rule:evenodd;stroke:#000000;stroke-width:2.0px;stroke-linecap:butt;stroke-linejoin:miter;stroke-opacity:1"/>
<path class="bond-12 atom-11 atom-13" d="M 161.2,89.8 L 165.8,119.0" style="fill:none;fill-rule:evenodd;stroke:#000000;stroke-width:2.0px;stroke-linecap:butt;stroke-linejoin:miter;stroke-opacity:1"/>
<path class="bond-13 atom-11 atom-14" d="M 161.2,89.8 L 133.2,99.3" style="fill:none;fill-rule:evenodd;stroke:#000000;stroke-width:2.0px;stroke-linecap:butt;stroke-linejoin:miter;stroke-opacity:1"/>
<path class="bond-14 atom-14 atom-6" d="M 133.2,99.3 L 110.9,79.8" style="fill:none;fill-rule:evenodd;stroke:#000000;stroke-width:2.0px;stroke-linecap:butt;stroke-linejoin:miter;stroke-opacity:1"/>
<path d="M 59.5,70.3 L 60.7,69.9 L 61.5,70.7" style="fill:none;stroke:#000000;stroke-width:2.0px;stroke-linecap:butt;stroke-linejoin:miter;stroke-miterlimit:10;stroke-opacity:1;"/>
<path d="M 116.4,52.3 L 116.7,50.8 L 118.1,50.3" style="fill:none;stroke:#000000;stroke-width:2.0px;stroke-linecap:butt;stroke-linejoin:miter;stroke-miterlimit:10;stroke-opacity:1;"/>
<path d="M 143.3,41.7 L 144.7,41.3 L 145.8,42.2" style="fill:none;stroke:#000000;stroke-width:2.0px;stroke-linecap:butt;stroke-linejoin:miter;stroke-miterlimit:10;stroke-opacity:1;"/>
<path d="M 165.9,59.8 L 167.0,60.7 L 166.7,62.2" style="fill:none;stroke:#000000;stroke-width:2.0px;stroke-linecap:butt;stroke-linejoin:miter;stroke-miterlimit:10;stroke-opacity:1;"/>
<path d="M 134.6,98.8 L 133.2,99.3 L 132.1,98.3" style="fill:none;stroke:#000000;stroke-width:2.0px;stroke-linecap:butt;stroke-linejoin:miter;stroke-miterlimit:10;stroke-opacity:1;"/>
<path class="atom-1" d="M 30.8 75.3 L 33.5 79.7 Q 33.8 80.1, 34.3 80.9 Q 34.7 81.7, 34.7 81.8 L 34.7 75.3 L 35.8 75.3 L 35.8 83.6 L 34.7 83.6 L 31.7 78.8 Q 31.4 78.2, 31.0 77.6 Q 30.7 76.9, 30.6 76.7 L 30.6 83.6 L 29.5 83.6 L 29.5 75.3 L 30.8 75.3 " fill="#000000"/>
<path class="atom-4" d="M 62.5 40.9 Q 62.5 38.9, 63.5 37.8 Q 64.5 36.6, 66.4 36.6 Q 68.3 36.6, 69.2 37.8 Q 70.2 38.9, 70.2 40.9 Q 70.2 42.9, 69.2 44.1 Q 68.2 45.2, 66.4 45.2 Q 64.5 45.2, 63.5 44.1 Q 62.5 42.9, 62.5 40.9 M 66.4 44.3 Q 67.7 44.3, 68.4 43.4 Q 69.1 42.6, 69.1 40.9 Q 69.1 39.2, 68.4 38.4 Q 67.7 37.6, 66.4 37.6 Q 65.1 37.6, 64.4 38.4 Q 63.7 39.2, 63.7 40.9 Q 63.7 42.6, 64.4 43.4 Q 65.1 44.3, 66.4 44.3 " fill="#000000"/>
<path class="atom-5" d="M 79.1 89.4 Q 79.1 87.4, 80.1 86.3 Q 81.1 85.1, 82.9 85.1 Q 84.8 85.1, 85.8 86.3 Q 86.8 87.4, 86.8 89.4 Q 86.8 91.4, 85.8 92.6 Q 84.8 93.7, 82.9 93.7 Q 81.1 93.7, 80.1 92.6 Q 79.1 91.5, 79.1 89.4 M 82.9 92.8 Q 84.2 92.8, 84.9 92.0 Q 85.6 91.1, 85.6 89.4 Q 85.6 87.8, 84.9 86.9 Q 84.2 86.1, 82.9 86.1 Q 81.7 86.1, 81.0 86.9 Q 80.3 87.7, 80.3 89.4 Q 80.3 91.1, 81.0 92.0 Q 81.7 92.8, 82.9 92.8 " fill="#000000"/>
<path class="atom-9" d="M 146.6 12.2 Q 146.6 10.2, 147.6 9.1 Q 148.6 8.0, 150.4 8.0 Q 152.3 8.0, 153.3 9.1 Q 154.3 10.2, 154.3 12.2 Q 154.3 14.3, 153.3 15.4 Q 152.3 16.6, 150.4 16.6 Q 148.6 16.6, 147.6 15.4 Q 146.6 14.3, 146.6 12.2 M 150.4 15.6 Q 151.7 15.6, 152.4 14.8 Q 153.1 13.9, 153.1 12.2 Q 153.1 10.6, 152.4 9.8 Q 151.7 8.9, 150.4 8.9 Q 149.2 8.9, 148.5 9.8 Q 147.8 10.6, 147.8 12.2 Q 147.8 13.9, 148.5 14.8 Q 149.2 15.6, 150.4 15.6 " fill="#000000"/>
</svg>