<svg xmlns="http://www.w3.org/2000/svg" xmlns:rdkit="http://www.rdkit.org/xml" xmlns:xlink="http://www.w3.org/1999/xlink" version="1.1" baseProfile="full" xml:space="preserve" width="255px" height="237px" viewBox="0 0 255 237">
<!-- END OF HEADER -->
<rect style="opacity:1.0;fill:#FFFFFF;stroke:none" width="255.0" height="237.0" x="0.0" y="0.0"> </rect>
<ellipse cx="61.8" cy="224.0" rx="0.9" ry="0.9" class="atom-0" style="fill:#7F7FFF;fill-rule:evenodd;stroke:#7F7FFF;stroke-width:1.0px;stroke-linecap:butt;stroke-linejoin:miter;stroke-opacity:1"/>
<ellipse cx="73.9" cy="197.0" rx="2.5" ry="2.5" class="atom-1" style="fill:#7F7FFF;fill-rule:evenodd;stroke:#7F7FFF;stroke-width:1.0px;stroke-linecap:butt;stroke-linejoin:miter;stroke-opacity:1"/>
<ellipse cx="103.3" cy="193.9" rx="0.2" ry="0.2" class="atom-2" style="fill:#7F7FFF;fill-rule:evenodd;stroke:#7F7FFF;stroke-width:1.0px;stroke-linecap:butt;stroke-linejoin:miter;stroke-opacity:1"/>
<ellipse cx="115.5" cy="166.9" rx="9.0" ry="9.0" class="atom-3" style="fill:#7F7FFF;fill-rule:evenodd;stroke:#7F7FFF;stroke-width:1.0px;stroke-linecap:butt;stroke-linejoin:miter;stroke-opacity:1"/>
<ellipse cx="98.1" cy="142.9" rx="3.1" ry="3.1" class="atom-4" style="fill:#7F7FFF;fill-rule:evenodd;stroke:#7F7FFF;stroke-width:1.0px;stroke-linecap:butt;stroke-linejoin:miter;stroke-opacity:1"/>
<ellipse cx="110.3" cy="115.9" rx="5.7" ry="5.7" class="atom-5" style="fill:#7F7FFF;fill-rule:evenodd;stroke:#7F7FFF;stroke-width:1.0px;stroke-linecap:butt;stroke-linejoin:miter;stroke-opacity:1"/>
<ellipse cx="92.9" cy="91.9" rx="80.1" ry="80.1" class="atom-6" style="fill:#7F7FFF;fill-rule:evenodd;stroke:#7F7FFF;stroke-width:1.0px;stroke-linecap:butt;stroke-linejoin:miter;stroke-opacity:1"/>
<ellipse cx="139.7" cy="112.9" rx="3.1" ry="3.1" class="atom-7" style="fill:#7F7FFF;fill-rule:evenodd;stroke:#7F7FFF;stroke-width:1.0px;stroke-linecap:butt;stroke-linejoin:miter;stroke-opacity:1"/>
<ellipse cx="157.0" cy="136.9" rx="7.2" ry="7.2" class="atom-8" style="fill:#7F7FFF;fill-rule:evenodd;stroke:#7F7FFF;stroke-width:1.0px;stroke-linecap:butt;stroke-linejoin:miter;stroke-opacity:1"/>
<ellipse cx="186.5" cy="133.9" rx="0.1" ry="0.1" class="atom-9" style="fill:#FF7F7F;fill-rule:evenodd;stroke:#FF7F7F;stroke-width:1.0px;stroke-linecap:butt;stroke-linejoin:miter;stroke-opacity:1"/>
<ellipse cx="203.8" cy="157.9" rx="15.5" ry="15.5" class="atom-10" style="fill:#7F7FFF;fill-rule:evenodd;stroke:#7F7FFF;stroke-width:1.0px;stroke-linecap:butt;stroke-linejoin:miter;stroke-opacity:1"/>
<ellipse cx="227.8" cy="140.6" rx="0.7" ry="0.7" class="atom-11" style="fill:#FF7F7F;fill-rule:evenodd;stroke:#FF7F7F;stroke-width:1.0px;stroke-linecap:butt;stroke-linejoin:miter;stroke-opacity:1"/>
<ellipse cx="179.8" cy="175.3" rx="0.7" ry="0.7" class="atom-12" style="fill:#FF7F7F;fill-rule:evenodd;stroke:#FF7F7F;stroke-width:1.0px;stroke-linecap:butt;stroke-linejoin:miter;stroke-opacity:1"/>
<ellipse cx="221.1" cy="181.9" rx="0.1" ry="0.1" class="atom-13" style="fill:#FF7F7F;fill-rule:evenodd;stroke:#FF7F7F;stroke-width:1.0px;stroke-linecap:butt;stroke-linejoin:miter;stroke-opacity:1"/>
<ellipse cx="238.5" cy="205.9" rx="1.9" ry="1.9" class="atom-14" style="fill:#FF7F7F;fill-rule:evenodd;stroke:#FF7F7F;stroke-width:1.0px;stroke-linecap:butt;stroke-linejoin:miter;stroke-opacity:1"/>
<ellipse cx="144.9" cy="163.9" rx="5.5" ry="5.5" class="atom-15" style="fill:#7F7FFF;fill-rule:evenodd;stroke:#7F7FFF;stroke-width:1.0px;stroke-linecap:butt;stroke-linejoin:miter;stroke-opacity:1"/>
<path class="bond-0 atom-0 atom-1" d="M 61.8,224.0 L 73.9,197.0" style="fill:none;fill-rule:evenodd;stroke:#000000;stroke-width:2.0px;stroke-linecap:butt;stroke-linejoin:miter;stroke-opacity:1"/>
<path class="bond-1 atom-1 atom-2" d="M 73.9,197.0 L 99.2,194.4" style="fill:none;fill-rule:evenodd;stroke:#000000;stroke-width:2.0px;stroke-linecap:butt;stroke-linejoin:miter;stroke-opacity:1"/>
<path class="bond-2 atom-2 atom-3" d="M 105.7,188.8 L 115.5,166.9" style="fill:none;fill-rule:evenodd;stroke:#000000;stroke-width:2.0px;stroke-linecap:butt;stroke-linejoin:miter;stroke-opacity:1"/>
<path class="bond-3 atom-3 atom-4" d="M 115.5,166.9 L 101.9,148.1" style="fill:none;fill-rule:evenodd;stroke:#000000;stroke-width:2.0px;stroke-linecap:butt;stroke-linejoin:miter;stroke-opacity:1"/>
<path class="bond-3 atom-3 atom-4" d="M 117.6,162.3 L 105.5,145.5" style="fill:none;fill-rule:evenodd;stroke:#000000;stroke-width:2.0px;stroke-linecap:butt;stroke-linejoin:miter;stroke-opacity:1"/>
<path class="bond-4 atom-4 atom-5" d="M 100.5,137.8 L 110.3,115.9" style="fill:none;fill-rule:evenodd;stroke:#000000;stroke-width:2.0px;stroke-linecap:butt;stroke-linejoin:miter;stroke-opacity:1"/>
<path class="bond-5 atom-5 atom-6" d="M 110.3,115.9 L 94.5,94.0" style="fill:none;fill-rule:evenodd;stroke:#000000;stroke-width:2.0px;stroke-linecap:butt;stroke-linejoin:miter;stroke-opacity:1"/>
<path class="bond-6 atom-5 atom-7" d="M 110.3,115.9 L 135.6,113.3" style="fill:none;fill-rule:evenodd;stroke:#000000;stroke-width:2.0px;stroke-linecap:butt;stroke-linejoin:miter;stroke-opacity:1"/>
<path class="bond-6 atom-5 atom-7" d="M 113.3,120.1 L 136.0,117.8" style="fill:none;fill-rule:evenodd;stroke:#000000;stroke-width:2.0px;stroke-linecap:butt;stroke-linejoin:miter;stroke-opacity:1"/>
<path class="bond-7 atom-7 atom-8" d="M 143.4,118.1 L 157.0,136.9" style="fill:none;fill-rule:evenodd;stroke:#000000;stroke-width:2.0px;stroke-linecap:butt;stroke-linejoin:miter;stroke-opacity:1"/>
<path class="bond-8 atom-8 atom-9" d="M 157.0,136.9 L 182.3,134.4" style="fill:none;fill-rule:evenodd;stroke:#000000;stroke-width:2.0px;stroke-linecap:butt;stroke-linejoin:miter;stroke-opacity:1"/>
<path class="bond-9 atom-9 atom-10" d="M 190.2,139.1 L 203.8,157.9" style="fill:none;fill-rule:evenodd;stroke:#000000;stroke-width:2.0px;stroke-linecap:butt;stroke-linejoin:miter;stroke-opacity:1"/>
<path class="bond-10 atom-10 atom-11" d="M 203.8,157.9 L 227.8,140.6" style="fill:none;fill-rule:evenodd;stroke:#000000;stroke-width:2.0px;stroke-linecap:butt;stroke-linejoin:miter;stroke-opacity:1"/>
<path class="bond-11 atom-10 atom-12" d="M 203.8,157.9 L 179.8,175.3" style="fill:none;fill-rule:evenodd;stroke:#000000;stroke-width:2.0px;stroke-linecap:butt;stroke-linejoin:miter;stroke-opacity:1"/>
<path class="bond-12 atom-10 atom-13" d="M 203.8,157.9 L 221.1,181.9" style="fill:none;fill-rule:evenodd;stroke:#000000;stroke-width:2.0px;stroke-linecap:butt;stroke-linejoin:miter;stroke-opacity:1"/>
<path class="bond-13 atom-13 atom-14" d="M 221.1,181.9 L 234.7,200.8" style="fill:none;fill-rule:evenodd;stroke:#000000;stroke-width:2.0px;stroke-linecap:butt;stroke-linejoin:miter;stroke-opacity:1"/>
<path class="bond-13 atom-13 atom-14" d="M 224.7,179.3 L 238.3,198.2" style="fill:none;fill-rule:evenodd;stroke:#000000;stroke-width:2.0px;stroke-linecap:butt;stroke-linejoin:miter;stroke-opacity:1"/>
<path class="bond-13 atom-13 atom-14" d="M 217.5,184.5 L 231.1,203.4" style="fill:none;fill-rule:evenodd;stroke:#000000;stroke-width:2.0px;stroke-linecap:butt;stroke-linejoin:miter;stroke-opacity:1"/>
<path class="bond-14 atom-8 atom-15" d="M 157.0,136.9 L 147.2,158.8" style="fill:none;fill-rule:evenodd;stroke:#000000;stroke-width:2.0px;stroke-linecap:butt;stroke-linejoin:miter;stroke-opacity:1"/>
<path class="bond-14 atom-8 atom-15" d="M 151.9,137.4 L 143.2,156.9" style="fill:none;fill-rule:evenodd;stroke:#000000;stroke-width:2.0px;stroke-linecap:butt;stroke-linejoin:miter;stroke-opacity:1"/>
<path class="bond-15 atom-15 atom-3" d="M 140.8,164.4 L 115.5,166.9" style="fill:none;fill-rule:evenodd;stroke:#000000;stroke-width:2.0px;stroke-linecap:butt;stroke-linejoin:miter;stroke-opacity:1"/>
<path d="M 73.3,198.3 L 73.9,197.0 L 75.1,196.8" style="fill:none;stroke:#000000;stroke-width:2.0px;stroke-linecap:butt;stroke-linejoin:miter;stroke-miterlimit:10;stroke-opacity:1;"/>
<path d="M 220.3,180.7 L 221.1,181.9 L 221.8,182.9" style="fill:none;stroke:#000000;stroke-width:2.0px;stroke-linecap:butt;stroke-linejoin:miter;stroke-miterlimit:10;stroke-opacity:1;"/>
<path class="atom-2" d="M 101.5 189.8 L 104.2 194.2 Q 104.5 194.6, 104.9 195.4 Q 105.4 196.2, 105.4 196.3 L 105.4 189.8 L 106.5 189.8 L 106.5 198.1 L 105.4 198.1 L 102.4 193.3 Q 102.1 192.7, 101.7 192.1 Q 101.3 191.4, 101.2 191.2 L 101.2 198.1 L 100.2 198.1 L 100.2 189.8 L 101.5 189.8 " fill="#000000"/>
<path class="atom-2" d="M 108.1 189.8 L 109.3 189.8 L 109.3 193.3 L 113.6 193.3 L 113.6 189.8 L 114.7 189.8 L 114.7 198.1 L 113.6 198.1 L 113.6 194.3 L 109.3 194.3 L 109.3 198.1 L 108.1 198.1 L 108.1 189.8 " fill="#000000"/>
<path class="atom-4" d="M 96.3 138.7 L 99.0 143.2 Q 99.3 143.6, 99.7 144.4 Q 100.2 145.2, 100.2 145.3 L 100.2 138.7 L 101.3 138.7 L 101.3 147.1 L 100.2 147.1 L 97.2 142.3 Q 96.9 141.7, 96.5 141.1 Q 96.1 140.4, 96.0 140.2 L 96.0 147.1 L 95.0 147.1 L 95.0 138.7 L 96.3 138.7 " fill="#000000"/>
<path class="atom-6" d="M 85.1 92.2 Q 85.1 90.1, 86.0 89.0 Q 87.0 87.9, 88.9 87.9 Q 90.6 87.9, 91.5 89.2 L 90.8 89.8 Q 90.1 88.9, 88.9 88.9 Q 87.6 88.9, 86.9 89.8 Q 86.3 90.6, 86.3 92.2 Q 86.3 93.9, 87.0 94.7 Q 87.7 95.6, 89.0 95.6 Q 89.9 95.6, 91.0 95.0 L 91.3 95.9 Q 90.9 96.2, 90.2 96.4 Q 89.6 96.5, 88.8 96.5 Q 87.0 96.5, 86.0 95.4 Q 85.1 94.3, 85.1 92.2 " fill="#000000"/>
<path class="atom-6" d="M 92.4 87.4 L 93.5 87.4 L 93.5 96.4 L 92.4 96.4 L 92.4 87.4 " fill="#000000"/>
<path class="atom-7" d="M 137.9 108.7 L 140.6 113.2 Q 140.9 113.6, 141.3 114.4 Q 141.8 115.2, 141.8 115.2 L 141.8 108.7 L 142.9 108.7 L 142.9 117.1 L 141.7 117.1 L 138.8 112.3 Q 138.4 111.7, 138.1 111.0 Q 137.7 110.4, 137.6 110.2 L 137.6 117.1 L 136.5 117.1 L 136.5 108.7 L 137.9 108.7 " fill="#000000"/>
<path class="atom-9" d="M 184.6 129.7 L 187.4 134.2 Q 187.7 134.6, 188.1 135.4 Q 188.5 136.2, 188.6 136.2 L 188.6 129.7 L 189.7 129.7 L 189.7 138.1 L 188.5 138.1 L 185.6 133.3 Q 185.2 132.7, 184.9 132.0 Q 184.5 131.4, 184.4 131.2 L 184.4 138.1 L 183.3 138.1 L 183.3 129.7 L 184.6 129.7 " fill="#000000"/>
<path class="atom-9" d="M 191.3 129.7 L 192.4 129.7 L 192.4 133.3 L 196.7 133.3 L 196.7 129.7 L 197.9 129.7 L 197.9 138.1 L 196.7 138.1 L 196.7 134.2 L 192.4 134.2 L 192.4 138.1 L 191.3 138.1 L 191.3 129.7 " fill="#000000"/>
<path class="atom-14" d="M 236.6 201.7 L 239.4 206.2 Q 239.6 206.6, 240.1 207.4 Q 240.5 208.2, 240.5 208.3 L 240.5 201.7 L 241.6 201.7 L 241.6 210.1 L 240.5 210.1 L 237.5 205.3 Q 237.2 204.7, 236.8 204.1 Q 236.5 203.4, 236.4 203.2 L 236.4 210.1 L 235.3 210.1 L 235.3 201.7 L 236.6 201.7 " fill="#000000"/>
<path class="atom-15" d="M 143.1 159.7 L 145.8 164.2 Q 146.1 164.6, 146.5 165.4 Q 147.0 166.2, 147.0 166.3 L 147.0 159.7 L 148.1 159.7 L 148.1 168.1 L 146.9 168.1 L 144.0 163.3 Q 143.6 162.7, 143.3 162.1 Q 142.9 161.4, 142.8 161.2 L 142.8 168.1 L 141.7 168.1 L 141.7 159.7 L 143.1 159.7 " fill="#000000"/>
</svg>