<svg xmlns="http://www.w3.org/2000/svg" xmlns:rdkit="http://www.rdkit.org/xml" xmlns:xlink="http://www.w3.org/1999/xlink" version="1.1" baseProfile="full" xml:space="preserve" width="214px" height="145px" viewBox="0 0 214 145">
<!-- END OF HEADER -->
<rect style="opacity:1.0;fill:#FFFFFF;stroke:none" width="214.0" height="145.0" x="0.0" y="0.0"> </rect>
<ellipse cx="11.0" cy="66.6" rx="0.0" ry="0.0" class="atom-0" style="fill:#FF7F7F;fill-rule:evenodd;stroke:#FF7F7F;stroke-width:1.0px;stroke-linecap:butt;stroke-linejoin:miter;stroke-opacity:1"/>
<ellipse cx="33.1" cy="86.0" rx="0.0" ry="0.0" class="atom-1" style="fill:#FF7F7F;fill-rule:evenodd;stroke:#FF7F7F;stroke-width:1.0px;stroke-linecap:butt;stroke-linejoin:miter;stroke-opacity:1"/>
<ellipse cx="27.4" cy="114.9" rx="0.0" ry="0.0" class="atom-2" style="fill:#FF7F7F;fill-rule:evenodd;stroke:#FF7F7F;stroke-width:1.0px;stroke-linecap:butt;stroke-linejoin:miter;stroke-opacity:1"/>
<ellipse cx="61.0" cy="76.5" rx="3.9" ry="3.9" class="atom-3" style="fill:#FF7F7F;fill-rule:evenodd;stroke:#FF7F7F;stroke-width:1.0px;stroke-linecap:butt;stroke-linejoin:miter;stroke-opacity:1"/>
<ellipse cx="66.7" cy="47.6" rx="3.9" ry="3.9" class="atom-4" style="fill:#FF7F7F;fill-rule:evenodd;stroke:#FF7F7F;stroke-width:1.0px;stroke-linecap:butt;stroke-linejoin:miter;stroke-opacity:1"/>
<ellipse cx="83.2" cy="95.9" rx="11.8" ry="11.8" class="atom-5" style="fill:#7F7FFF;fill-rule:evenodd;stroke:#7F7FFF;stroke-width:1.0px;stroke-linecap:butt;stroke-linejoin:miter;stroke-opacity:1"/>
<ellipse cx="111.1" cy="86.4" rx="11.8" ry="11.8" class="atom-6" style="fill:#7F7FFF;fill-rule:evenodd;stroke:#7F7FFF;stroke-width:1.0px;stroke-linecap:butt;stroke-linejoin:miter;stroke-opacity:1"/>
<ellipse cx="116.8" cy="57.5" rx="11.8" ry="11.8" class="atom-7" style="fill:#7F7FFF;fill-rule:evenodd;stroke:#7F7FFF;stroke-width:1.0px;stroke-linecap:butt;stroke-linejoin:miter;stroke-opacity:1"/>
<ellipse cx="144.7" cy="48.0" rx="11.8" ry="11.8" class="atom-8" style="fill:#7F7FFF;fill-rule:evenodd;stroke:#7F7FFF;stroke-width:1.0px;stroke-linecap:butt;stroke-linejoin:miter;stroke-opacity:1"/>
<ellipse cx="150.4" cy="19.1" rx="11.8" ry="11.8" class="atom-9" style="fill:#7F7FFF;fill-rule:evenodd;stroke:#7F7FFF;stroke-width:1.0px;stroke-linecap:butt;stroke-linejoin:miter;stroke-opacity:1"/>
<ellipse cx="166.9" cy="67.4" rx="11.8" ry="11.8" class="atom-10" style="fill:#7F7FFF;fill-rule:evenodd;stroke:#7F7FFF;stroke-width:1.0px;stroke-linecap:butt;stroke-linejoin:miter;stroke-opacity:1"/>
<ellipse cx="161.1" cy="96.3" rx="11.8" ry="11.8" class="atom-11" style="fill:#7F7FFF;fill-rule:evenodd;stroke:#7F7FFF;stroke-width:1.0px;stroke-linecap:butt;stroke-linejoin:miter;stroke-opacity:1"/>
<ellipse cx="190.6" cy="96.9" rx="11.8" ry="11.8" class="atom-12" style="fill:#7F7FFF;fill-rule:evenodd;stroke:#7F7FFF;stroke-width:1.0px;stroke-linecap:butt;stroke-linejoin:miter;stroke-opacity:1"/>
<ellipse cx="165.7" cy="125.4" rx="11.8" ry="11.8" class="atom-13" style="fill:#7F7FFF;fill-rule:evenodd;stroke:#7F7FFF;stroke-width:1.0px;stroke-linecap:butt;stroke-linejoin:miter;stroke-opacity:1"/>
<ellipse cx="133.3" cy="105.8" rx="11.8" ry="11.8" class="atom-14" style="fill:#7F7FFF;fill-rule:evenodd;stroke:#7F7FFF;stroke-width:1.0px;stroke-linecap:butt;stroke-linejoin:miter;stroke-opacity:1"/>
<path class="bond-0 atom-0 atom-1" d="M 11.0,66.6 L 29.0,82.4" style="fill:none;fill-rule:evenodd;stroke:#000000;stroke-width:2.0px;stroke-linecap:butt;stroke-linejoin:miter;stroke-opacity:1"/>
<path class="bond-1 atom-1 atom-2" d="M 32.1,91.2 L 27.4,114.9" style="fill:none;fill-rule:evenodd;stroke:#000000;stroke-width:2.0px;stroke-linecap:butt;stroke-linejoin:miter;stroke-opacity:1"/>
<path class="bond-2 atom-1 atom-3" d="M 37.3,84.6 L 61.0,76.5" style="fill:none;fill-rule:evenodd;stroke:#000000;stroke-width:2.0px;stroke-linecap:butt;stroke-linejoin:miter;stroke-opacity:1"/>
<path class="bond-3 atom-3 atom-4" d="M 62.9,78.2 L 67.9,53.4" style="fill:none;fill-rule:evenodd;stroke:#000000;stroke-width:2.0px;stroke-linecap:butt;stroke-linejoin:miter;stroke-opacity:1"/>
<path class="bond-3 atom-3 atom-4" d="M 58.6,77.3 L 63.5,52.5" style="fill:none;fill-rule:evenodd;stroke:#000000;stroke-width:2.0px;stroke-linecap:butt;stroke-linejoin:miter;stroke-opacity:1"/>
<path class="bond-4 atom-3 atom-5" d="M 61.0,76.5 L 78.4,91.7" style="fill:none;fill-rule:evenodd;stroke:#000000;stroke-width:2.0px;stroke-linecap:butt;stroke-linejoin:miter;stroke-opacity:1"/>
<path class="bond-5 atom-5 atom-6" d="M 88.0,94.3 L 111.1,86.4" style="fill:none;fill-rule:evenodd;stroke:#000000;stroke-width:2.0px;stroke-linecap:butt;stroke-linejoin:miter;stroke-opacity:1"/>
<path class="bond-6 atom-6 atom-7" d="M 111.1,86.4 L 116.8,57.5" style="fill:none;fill-rule:evenodd;stroke:#000000;stroke-width:2.0px;stroke-linecap:butt;stroke-linejoin:miter;stroke-opacity:1"/>
<path class="bond-6 atom-6 atom-7" d="M 115.9,84.8 L 120.6,60.9" style="fill:none;fill-rule:evenodd;stroke:#000000;stroke-width:2.0px;stroke-linecap:butt;stroke-linejoin:miter;stroke-opacity:1"/>
<path class="bond-7 atom-7 atom-8" d="M 116.8,57.5 L 144.7,48.0" style="fill:none;fill-rule:evenodd;stroke:#000000;stroke-width:2.0px;stroke-linecap:butt;stroke-linejoin:miter;stroke-opacity:1"/>
<path class="bond-8 atom-8 atom-9" d="M 146.6,49.7 L 151.5,24.8" style="fill:none;fill-rule:evenodd;stroke:#000000;stroke-width:2.0px;stroke-linecap:butt;stroke-linejoin:miter;stroke-opacity:1"/>
<path class="bond-8 atom-8 atom-9" d="M 142.3,48.8 L 147.2,24.0" style="fill:none;fill-rule:evenodd;stroke:#000000;stroke-width:2.0px;stroke-linecap:butt;stroke-linejoin:miter;stroke-opacity:1"/>
<path class="bond-9 atom-8 atom-10" d="M 144.7,48.0 L 166.9,67.4" style="fill:none;fill-rule:evenodd;stroke:#000000;stroke-width:2.0px;stroke-linecap:butt;stroke-linejoin:miter;stroke-opacity:1"/>
<path class="bond-10 atom-10 atom-11" d="M 166.9,67.4 L 161.1,96.3" style="fill:none;fill-rule:evenodd;stroke:#000000;stroke-width:2.0px;stroke-linecap:butt;stroke-linejoin:miter;stroke-opacity:1"/>
<path class="bond-11 atom-11 atom-12" d="M 161.1,96.3 L 190.6,96.9" style="fill:none;fill-rule:evenodd;stroke:#000000;stroke-width:2.0px;stroke-linecap:butt;stroke-linejoin:miter;stroke-opacity:1"/>
<path class="bond-12 atom-11 atom-13" d="M 161.1,96.3 L 165.7,125.4" style="fill:none;fill-rule:evenodd;stroke:#000000;stroke-width:2.0px;stroke-linecap:butt;stroke-linejoin:miter;stroke-opacity:1"/>
<path class="bond-13 atom-11 atom-14" d="M 161.1,96.3 L 133.3,105.8" style="fill:none;fill-rule:evenodd;stroke:#000000;stroke-width:2.0px;stroke-linecap:butt;stroke-linejoin:miter;stroke-opacity:1"/>
<path class="bond-14 atom-14 atom-6" d="M 133.3,105.8 L 111.1,86.4" style="fill:none;fill-rule:evenodd;stroke:#000000;stroke-width:2.0px;stroke-linecap:butt;stroke-linejoin:miter;stroke-opacity:1"/>
<path d="M 59.8,76.9 L 61.0,76.5 L 61.9,77.3" style="fill:none;stroke:#000000;stroke-width:2.0px;stroke-linecap:butt;stroke-linejoin:miter;stroke-miterlimit:10;stroke-opacity:1;"/>
<path d="M 116.5,58.9 L 116.8,57.5 L 118.2,57.0" style="fill:none;stroke:#000000;stroke-width:2.0px;stroke-linecap:butt;stroke-linejoin:miter;stroke-miterlimit:10;stroke-opacity:1;"/>
<path d="M 143.3,48.5 L 144.7,48.0 L 145.8,49.0" style="fill:none;stroke:#000000;stroke-width:2.0px;stroke-linecap:butt;stroke-linejoin:miter;stroke-miterlimit:10;stroke-opacity:1;"/>
<path d="M 165.8,66.4 L 166.9,67.4 L 166.6,68.8" style="fill:none;stroke:#000000;stroke-width:2.0px;stroke-linecap:butt;stroke-linejoin:miter;stroke-miterlimit:10;stroke-opacity:1;"/>
<path d="M 134.7,105.3 L 133.3,105.8 L 132.2,104.8" style="fill:none;stroke:#000000;stroke-width:2.0px;stroke-linecap:butt;stroke-linejoin:miter;stroke-miterlimit:10;stroke-opacity:1;"/>
<path class="atom-1" d="M 31.3 81.8 L 34.0 86.3 Q 34.3 86.7, 34.7 87.5 Q 35.2 88.3, 35.2 88.3 L 35.2 81.8 L 36.3 81.8 L 36.3 90.2 L 35.2 90.2 L 32.2 85.4 Q 31.9 84.8, 31.5 84.1 Q 31.2 83.5, 31.1 83.3 L 31.1 90.2 L 30.0 90.2 L 30.0 81.8 L 31.3 81.8 " fill="#000000"/>
<path class="atom-4" d="M 62.9 47.6 Q 62.9 45.6, 63.9 44.5 Q 64.9 43.4, 66.7 43.4 Q 68.6 43.4, 69.6 44.5 Q 70.6 45.6, 70.6 47.6 Q 70.6 49.7, 69.6 50.8 Q 68.6 52.0, 66.7 52.0 Q 64.9 52.0, 63.9 50.8 Q 62.9 49.7, 62.9 47.6 M 66.7 51.0 Q 68.0 51.0, 68.7 50.2 Q 69.4 49.3, 69.4 47.6 Q 69.4 46.0, 68.7 45.2 Q 68.0 44.3, 66.7 44.3 Q 65.5 44.3, 64.8 45.2 Q 64.1 46.0, 64.1 47.6 Q 64.1 49.3, 64.8 50.2 Q 65.5 51.0, 66.7 51.0 " fill="#000000"/>
<path class="atom-5" d="M 79.4 95.9 Q 79.4 93.9, 80.4 92.8 Q 81.3 91.7, 83.2 91.7 Q 85.0 91.7, 86.0 92.8 Q 87.0 93.9, 87.0 95.9 Q 87.0 98.0, 86.0 99.1 Q 85.0 100.3, 83.2 100.3 Q 81.4 100.3, 80.4 99.1 Q 79.4 98.0, 79.4 95.9 M 83.2 99.3 Q 84.5 99.3, 85.2 98.5 Q 85.8 97.6, 85.8 95.9 Q 85.8 94.3, 85.2 93.5 Q 84.5 92.6, 83.2 92.6 Q 81.9 92.6, 81.2 93.5 Q 80.5 94.3, 80.5 95.9 Q 80.5 97.6, 81.2 98.5 Q 81.9 99.3, 83.2 99.3 " fill="#000000"/>
<path class="atom-9" d="M 146.6 19.1 Q 146.6 17.1, 147.6 16.0 Q 148.5 14.9, 150.4 14.9 Q 152.3 14.9, 153.2 16.0 Q 154.2 17.1, 154.2 19.1 Q 154.2 21.1, 153.2 22.3 Q 152.2 23.4, 150.4 23.4 Q 148.6 23.4, 147.6 22.3 Q 146.6 21.2, 146.6 19.1 M 150.4 22.5 Q 151.7 22.5, 152.4 21.6 Q 153.1 20.8, 153.1 19.1 Q 153.1 17.5, 152.4 16.6 Q 151.7 15.8, 150.4 15.8 Q 149.1 15.8, 148.4 16.6 Q 147.7 17.5, 147.7 19.1 Q 147.7 20.8, 148.4 21.6 Q 149.1 22.5, 150.4 22.5 " fill="#000000"/>
</svg>