<svg xmlns="http://www.w3.org/2000/svg" xmlns:rdkit="http://www.rdkit.org/xml" xmlns:xlink="http://www.w3.org/1999/xlink" version="1.1" baseProfile="full" xml:space="preserve" width="281px" height="185px" viewBox="0 0 281 185">
<!-- END OF HEADER -->
<rect style="opacity:1.0;fill:#FFFFFF;stroke:none" width="281.0" height="185.0" x="0.0" y="0.0"> </rect>
<ellipse cx="20.8" cy="89.3" rx="6.8" ry="6.8" class="atom-0" style="fill:#7F7FFF;fill-rule:evenodd;stroke:#7F7FFF;stroke-width:1.0px;stroke-linecap:butt;stroke-linejoin:miter;stroke-opacity:1"/>
<ellipse cx="47.3" cy="76.0" rx="6.8" ry="6.8" class="atom-1" style="fill:#7F7FFF;fill-rule:evenodd;stroke:#7F7FFF;stroke-width:1.0px;stroke-linecap:butt;stroke-linejoin:miter;stroke-opacity:1"/>
<ellipse cx="72.0" cy="92.3" rx="6.8" ry="6.8" class="atom-2" style="fill:#7F7FFF;fill-rule:evenodd;stroke:#7F7FFF;stroke-width:1.0px;stroke-linecap:butt;stroke-linejoin:miter;stroke-opacity:1"/>
<ellipse cx="98.4" cy="79.0" rx="6.8" ry="6.8" class="atom-3" style="fill:#7F7FFF;fill-rule:evenodd;stroke:#7F7FFF;stroke-width:1.0px;stroke-linecap:butt;stroke-linejoin:miter;stroke-opacity:1"/>
<ellipse cx="123.1" cy="95.3" rx="0.2" ry="0.2" class="atom-4" style="fill:#FF7F7F;fill-rule:evenodd;stroke:#FF7F7F;stroke-width:1.0px;stroke-linecap:butt;stroke-linejoin:miter;stroke-opacity:1"/>
<ellipse cx="149.5" cy="82.1" rx="0.2" ry="0.2" class="atom-5" style="fill:#FF7F7F;fill-rule:evenodd;stroke:#FF7F7F;stroke-width:1.0px;stroke-linecap:butt;stroke-linejoin:miter;stroke-opacity:1"/>
<ellipse cx="174.2" cy="98.3" rx="0.2" ry="0.2" class="atom-6" style="fill:#FF7F7F;fill-rule:evenodd;stroke:#FF7F7F;stroke-width:1.0px;stroke-linecap:butt;stroke-linejoin:miter;stroke-opacity:1"/>
<ellipse cx="172.4" cy="127.8" rx="2.4" ry="2.4" class="atom-7" style="fill:#FF7F7F;fill-rule:evenodd;stroke:#FF7F7F;stroke-width:1.0px;stroke-linecap:butt;stroke-linejoin:miter;stroke-opacity:1"/>
<ellipse cx="197.1" cy="144.1" rx="2.4" ry="2.4" class="atom-8" style="fill:#FF7F7F;fill-rule:evenodd;stroke:#FF7F7F;stroke-width:1.0px;stroke-linecap:butt;stroke-linejoin:miter;stroke-opacity:1"/>
<ellipse cx="146.0" cy="141.1" rx="2.4" ry="2.4" class="atom-9" style="fill:#FF7F7F;fill-rule:evenodd;stroke:#FF7F7F;stroke-width:1.0px;stroke-linecap:butt;stroke-linejoin:miter;stroke-opacity:1"/>
<ellipse cx="144.3" cy="170.6" rx="2.4" ry="2.4" class="atom-10" style="fill:#FF7F7F;fill-rule:evenodd;stroke:#FF7F7F;stroke-width:1.0px;stroke-linecap:butt;stroke-linejoin:miter;stroke-opacity:1"/>
<ellipse cx="200.6" cy="85.1" rx="12.6" ry="12.6" class="atom-11" style="fill:#7F7FFF;fill-rule:evenodd;stroke:#7F7FFF;stroke-width:1.0px;stroke-linecap:butt;stroke-linejoin:miter;stroke-opacity:1"/>
<ellipse cx="202.4" cy="55.6" rx="12.6" ry="12.6" class="atom-12" style="fill:#7F7FFF;fill-rule:evenodd;stroke:#7F7FFF;stroke-width:1.0px;stroke-linecap:butt;stroke-linejoin:miter;stroke-opacity:1"/>
<ellipse cx="177.7" cy="39.3" rx="0.5" ry="0.5" class="atom-13" style="fill:#FF7F7F;fill-rule:evenodd;stroke:#FF7F7F;stroke-width:1.0px;stroke-linecap:butt;stroke-linejoin:miter;stroke-opacity:1"/>
<ellipse cx="179.4" cy="9.8" rx="0.5" ry="0.5" class="atom-14" style="fill:#FF7F7F;fill-rule:evenodd;stroke:#FF7F7F;stroke-width:1.0px;stroke-linecap:butt;stroke-linejoin:miter;stroke-opacity:1"/>
<ellipse cx="228.8" cy="42.3" rx="12.6" ry="12.6" class="atom-15" style="fill:#7F7FFF;fill-rule:evenodd;stroke:#7F7FFF;stroke-width:1.0px;stroke-linecap:butt;stroke-linejoin:miter;stroke-opacity:1"/>
<ellipse cx="253.5" cy="58.6" rx="12.6" ry="12.6" class="atom-16" style="fill:#7F7FFF;fill-rule:evenodd;stroke:#7F7FFF;stroke-width:1.0px;stroke-linecap:butt;stroke-linejoin:miter;stroke-opacity:1"/>
<ellipse cx="251.7" cy="88.1" rx="12.6" ry="12.6" class="atom-17" style="fill:#7F7FFF;fill-rule:evenodd;stroke:#7F7FFF;stroke-width:1.0px;stroke-linecap:butt;stroke-linejoin:miter;stroke-opacity:1"/>
<ellipse cx="225.3" cy="101.4" rx="12.6" ry="12.6" class="atom-18" style="fill:#7F7FFF;fill-rule:evenodd;stroke:#7F7FFF;stroke-width:1.0px;stroke-linecap:butt;stroke-linejoin:miter;stroke-opacity:1"/>
<ellipse cx="223.5" cy="130.9" rx="0.5" ry="0.5" class="atom-19" style="fill:#FF7F7F;fill-rule:evenodd;stroke:#FF7F7F;stroke-width:1.0px;stroke-linecap:butt;stroke-linejoin:miter;stroke-opacity:1"/>
<ellipse cx="248.2" cy="147.1" rx="0.5" ry="0.5" class="atom-20" style="fill:#FF7F7F;fill-rule:evenodd;stroke:#FF7F7F;stroke-width:1.0px;stroke-linecap:butt;stroke-linejoin:miter;stroke-opacity:1"/>
<path class="bond-0 atom-0 atom-1" d="M 20.8,89.3 L 47.3,76.0" style="fill:none;fill-rule:evenodd;stroke:#000000;stroke-width:2.0px;stroke-linecap:butt;stroke-linejoin:miter;stroke-opacity:1"/>
<path class="bond-1 atom-1 atom-2" d="M 47.3,76.0 L 72.0,92.3" style="fill:none;fill-rule:evenodd;stroke:#000000;stroke-width:2.0px;stroke-linecap:butt;stroke-linejoin:miter;stroke-opacity:1"/>
<path class="bond-2 atom-2 atom-3" d="M 72.0,92.3 L 98.4,79.0" style="fill:none;fill-rule:evenodd;stroke:#000000;stroke-width:2.0px;stroke-linecap:butt;stroke-linejoin:miter;stroke-opacity:1"/>
<path class="bond-3 atom-3 atom-4" d="M 98.4,79.0 L 118.2,92.1" style="fill:none;fill-rule:evenodd;stroke:#000000;stroke-width:2.0px;stroke-linecap:butt;stroke-linejoin:miter;stroke-opacity:1"/>
<path class="bond-4 atom-4 atom-5" d="M 127.9,92.9 L 149.5,82.1" style="fill:none;fill-rule:evenodd;stroke:#000000;stroke-width:2.0px;stroke-linecap:butt;stroke-linejoin:miter;stroke-opacity:1"/>
<path class="bond-5 atom-5 atom-6" d="M 149.5,82.1 L 170.0,95.6" style="fill:none;fill-rule:evenodd;stroke:#000000;stroke-width:2.0px;stroke-linecap:butt;stroke-linejoin:miter;stroke-opacity:1"/>
<path class="bond-6 atom-6 atom-7" d="M 173.9,103.5 L 172.4,127.8" style="fill:none;fill-rule:evenodd;stroke:#000000;stroke-width:2.0px;stroke-linecap:butt;stroke-linejoin:miter;stroke-opacity:1"/>
<path class="bond-7 atom-7 atom-8" d="M 170.1,129.0 L 191.1,142.8" style="fill:none;fill-rule:evenodd;stroke:#000000;stroke-width:2.0px;stroke-linecap:butt;stroke-linejoin:miter;stroke-opacity:1"/>
<path class="bond-7 atom-7 atom-8" d="M 172.6,125.3 L 193.5,139.1" style="fill:none;fill-rule:evenodd;stroke:#000000;stroke-width:2.0px;stroke-linecap:butt;stroke-linejoin:miter;stroke-opacity:1"/>
<path class="bond-8 atom-7 atom-9" d="M 172.4,127.8 L 146.0,141.1" style="fill:none;fill-rule:evenodd;stroke:#000000;stroke-width:2.0px;stroke-linecap:butt;stroke-linejoin:miter;stroke-opacity:1"/>
<path class="bond-9 atom-9 atom-10" d="M 146.0,141.1 L 144.6,165.6" style="fill:none;fill-rule:evenodd;stroke:#000000;stroke-width:2.0px;stroke-linecap:butt;stroke-linejoin:miter;stroke-opacity:1"/>
<path class="bond-10 atom-6 atom-11" d="M 178.3,96.3 L 200.6,85.1" style="fill:none;fill-rule:evenodd;stroke:#000000;stroke-width:2.0px;stroke-linecap:butt;stroke-linejoin:miter;stroke-opacity:1"/>
<path class="bond-11 atom-11 atom-12" d="M 200.6,85.1 L 202.4,55.6" style="fill:none;fill-rule:evenodd;stroke:#000000;stroke-width:2.0px;stroke-linecap:butt;stroke-linejoin:miter;stroke-opacity:1"/>
<path class="bond-11 atom-11 atom-12" d="M 205.2,82.8 L 206.6,58.4" style="fill:none;fill-rule:evenodd;stroke:#000000;stroke-width:2.0px;stroke-linecap:butt;stroke-linejoin:miter;stroke-opacity:1"/>
<path class="bond-12 atom-12 atom-13" d="M 202.4,55.6 L 177.7,39.3" style="fill:none;fill-rule:evenodd;stroke:#000000;stroke-width:2.0px;stroke-linecap:butt;stroke-linejoin:miter;stroke-opacity:1"/>
<path class="bond-13 atom-13 atom-14" d="M 177.7,39.3 L 179.4,9.8" style="fill:none;fill-rule:evenodd;stroke:#000000;stroke-width:2.0px;stroke-linecap:butt;stroke-linejoin:miter;stroke-opacity:1"/>
<path class="bond-14 atom-12 atom-15" d="M 202.4,55.6 L 228.8,42.3" style="fill:none;fill-rule:evenodd;stroke:#000000;stroke-width:2.0px;stroke-linecap:butt;stroke-linejoin:miter;stroke-opacity:1"/>
<path class="bond-15 atom-15 atom-16" d="M 228.8,42.3 L 253.5,58.6" style="fill:none;fill-rule:evenodd;stroke:#000000;stroke-width:2.0px;stroke-linecap:butt;stroke-linejoin:miter;stroke-opacity:1"/>
<path class="bond-15 atom-15 atom-16" d="M 228.5,47.4 L 248.9,60.9" style="fill:none;fill-rule:evenodd;stroke:#000000;stroke-width:2.0px;stroke-linecap:butt;stroke-linejoin:miter;stroke-opacity:1"/>
<path class="bond-16 atom-16 atom-17" d="M 253.5,58.6 L 251.7,88.1" style="fill:none;fill-rule:evenodd;stroke:#000000;stroke-width:2.0px;stroke-linecap:butt;stroke-linejoin:miter;stroke-opacity:1"/>
<path class="bond-17 atom-17 atom-18" d="M 251.7,88.1 L 225.3,101.4" style="fill:none;fill-rule:evenodd;stroke:#000000;stroke-width:2.0px;stroke-linecap:butt;stroke-linejoin:miter;stroke-opacity:1"/>
<path class="bond-17 atom-17 atom-18" d="M 247.5,85.3 L 225.6,96.2" style="fill:none;fill-rule:evenodd;stroke:#000000;stroke-width:2.0px;stroke-linecap:butt;stroke-linejoin:miter;stroke-opacity:1"/>
<path class="bond-18 atom-18 atom-19" d="M 225.3,101.4 L 223.5,130.9" style="fill:none;fill-rule:evenodd;stroke:#000000;stroke-width:2.0px;stroke-linecap:butt;stroke-linejoin:miter;stroke-opacity:1"/>
<path class="bond-19 atom-19 atom-20" d="M 223.5,130.9 L 248.2,147.1" style="fill:none;fill-rule:evenodd;stroke:#000000;stroke-width:2.0px;stroke-linecap:butt;stroke-linejoin:miter;stroke-opacity:1"/>
<path class="bond-20 atom-18 atom-11" d="M 225.3,101.4 L 200.6,85.1" style="fill:none;fill-rule:evenodd;stroke:#000000;stroke-width:2.0px;stroke-linecap:butt;stroke-linejoin:miter;stroke-opacity:1"/>
<path d="M 45.9,76.7 L 47.3,76.0 L 48.5,76.8" style="fill:none;stroke:#000000;stroke-width:2.0px;stroke-linecap:butt;stroke-linejoin:miter;stroke-miterlimit:10;stroke-opacity:1;"/>
<path d="M 70.7,91.5 L 72.0,92.3 L 73.3,91.6" style="fill:none;stroke:#000000;stroke-width:2.0px;stroke-linecap:butt;stroke-linejoin:miter;stroke-miterlimit:10;stroke-opacity:1;"/>
<path d="M 97.1,79.7 L 98.4,79.0 L 99.4,79.7" style="fill:none;stroke:#000000;stroke-width:2.0px;stroke-linecap:butt;stroke-linejoin:miter;stroke-miterlimit:10;stroke-opacity:1;"/>
<path d="M 148.4,82.6 L 149.5,82.1 L 150.5,82.7" style="fill:none;stroke:#000000;stroke-width:2.0px;stroke-linecap:butt;stroke-linejoin:miter;stroke-miterlimit:10;stroke-opacity:1;"/>
<path d="M 172.5,126.6 L 172.4,127.8 L 171.1,128.5" style="fill:none;stroke:#000000;stroke-width:2.0px;stroke-linecap:butt;stroke-linejoin:miter;stroke-miterlimit:10;stroke-opacity:1;"/>
<path d="M 147.3,140.4 L 146.0,141.1 L 145.9,142.3" style="fill:none;stroke:#000000;stroke-width:2.0px;stroke-linecap:butt;stroke-linejoin:miter;stroke-miterlimit:10;stroke-opacity:1;"/>
<path d="M 178.9,40.1 L 177.7,39.3 L 177.8,37.8" style="fill:none;stroke:#000000;stroke-width:2.0px;stroke-linecap:butt;stroke-linejoin:miter;stroke-miterlimit:10;stroke-opacity:1;"/>
<path d="M 227.5,43.0 L 228.8,42.3 L 230.0,43.2" style="fill:none;stroke:#000000;stroke-width:2.0px;stroke-linecap:butt;stroke-linejoin:miter;stroke-miterlimit:10;stroke-opacity:1;"/>
<path d="M 252.2,57.8 L 253.5,58.6 L 253.4,60.1" style="fill:none;stroke:#000000;stroke-width:2.0px;stroke-linecap:butt;stroke-linejoin:miter;stroke-miterlimit:10;stroke-opacity:1;"/>
<path d="M 251.8,86.6 L 251.7,88.1 L 250.4,88.8" style="fill:none;stroke:#000000;stroke-width:2.0px;stroke-linecap:butt;stroke-linejoin:miter;stroke-miterlimit:10;stroke-opacity:1;"/>
<path d="M 223.6,129.4 L 223.5,130.9 L 224.8,131.7" style="fill:none;stroke:#000000;stroke-width:2.0px;stroke-linecap:butt;stroke-linejoin:miter;stroke-miterlimit:10;stroke-opacity:1;"/>
<path class="atom-4" d="M 119.2 95.3 Q 119.2 93.3, 120.2 92.2 Q 121.2 91.1, 123.1 91.1 Q 124.9 91.1, 125.9 92.2 Q 126.9 93.3, 126.9 95.3 Q 126.9 97.4, 125.9 98.5 Q 124.9 99.7, 123.1 99.7 Q 121.2 99.7, 120.2 98.5 Q 119.2 97.4, 119.2 95.3 M 123.1 98.7 Q 124.3 98.7, 125.0 97.9 Q 125.7 97.0, 125.7 95.3 Q 125.7 93.7, 125.0 92.9 Q 124.3 92.0, 123.1 92.0 Q 121.8 92.0, 121.1 92.8 Q 120.4 93.7, 120.4 95.3 Q 120.4 97.0, 121.1 97.9 Q 121.8 98.7, 123.1 98.7 " fill="#000000"/>
<path class="atom-6" d="M 172.3 94.1 L 175.1 98.6 Q 175.3 99.0, 175.8 99.8 Q 176.2 100.6, 176.2 100.7 L 176.2 94.1 L 177.4 94.1 L 177.4 102.5 L 176.2 102.5 L 173.3 97.7 Q 172.9 97.1, 172.6 96.5 Q 172.2 95.8, 172.1 95.6 L 172.1 102.5 L 171.0 102.5 L 171.0 94.1 L 172.3 94.1 " fill="#000000"/>
<path class="atom-8" d="M 193.3 144.1 Q 193.3 142.1, 194.3 141.0 Q 195.3 139.9, 197.1 139.9 Q 199.0 139.9, 200.0 141.0 Q 201.0 142.1, 201.0 144.1 Q 201.0 146.2, 200.0 147.3 Q 199.0 148.5, 197.1 148.5 Q 195.3 148.5, 194.3 147.3 Q 193.3 146.2, 193.3 144.1 M 197.1 147.5 Q 198.4 147.5, 199.1 146.7 Q 199.8 145.8, 199.8 144.1 Q 199.8 142.5, 199.1 141.7 Q 198.4 140.8, 197.1 140.8 Q 195.8 140.8, 195.1 141.7 Q 194.5 142.5, 194.5 144.1 Q 194.5 145.8, 195.1 146.7 Q 195.8 147.5, 197.1 147.5 " fill="#000000"/>
<path class="atom-10" d="M 141.0 170.9 Q 141.0 168.8, 142.0 167.7 Q 143.0 166.6, 144.8 166.6 Q 146.6 166.6, 147.5 167.8 L 146.7 168.5 Q 146.0 167.6, 144.8 167.6 Q 143.6 167.6, 142.9 168.4 Q 142.2 169.3, 142.2 170.9 Q 142.2 172.5, 142.9 173.4 Q 143.6 174.2, 145.0 174.2 Q 145.9 174.2, 147.0 173.7 L 147.3 174.6 Q 146.9 174.9, 146.2 175.0 Q 145.5 175.2, 144.8 175.2 Q 143.0 175.2, 142.0 174.1 Q 141.0 173.0, 141.0 170.9 " fill="#000000"/>
<path class="atom-10" d="M 148.3 166.1 L 149.4 166.1 L 149.4 175.1 L 148.3 175.1 L 148.3 166.1 " fill="#000000"/>
</svg>