<svg xmlns="http://www.w3.org/2000/svg" xmlns:rdkit="http://www.rdkit.org/xml" xmlns:xlink="http://www.w3.org/1999/xlink" version="1.1" baseProfile="full" xml:space="preserve" width="237px" height="103px" viewBox="0 0 237 103">
<!-- END OF HEADER -->
<rect style="opacity:1.0;fill:#FFFFFF;stroke:none" width="237.0" height="103.0" x="0.0" y="0.0"> </rect>
<ellipse cx="147.4" cy="97.0" rx="0.2" ry="0.2" class="atom-0" style="fill:#7F7FFF;fill-rule:evenodd;stroke:#7F7FFF;stroke-width:1.0px;stroke-linecap:butt;stroke-linejoin:miter;stroke-opacity:1"/>
<ellipse cx="172.7" cy="82.4" rx="1.5" ry="1.5" class="atom-1" style="fill:#7F7FFF;fill-rule:evenodd;stroke:#7F7FFF;stroke-width:1.0px;stroke-linecap:butt;stroke-linejoin:miter;stroke-opacity:1"/>
<ellipse cx="198.0" cy="97.0" rx="0.2" ry="0.2" class="atom-2" style="fill:#7F7FFF;fill-rule:evenodd;stroke:#7F7FFF;stroke-width:1.0px;stroke-linecap:butt;stroke-linejoin:miter;stroke-opacity:1"/>
<ellipse cx="172.7" cy="53.2" rx="9.0" ry="9.0" class="atom-3" style="fill:#7F7FFF;fill-rule:evenodd;stroke:#7F7FFF;stroke-width:1.0px;stroke-linecap:butt;stroke-linejoin:miter;stroke-opacity:1"/>
<ellipse cx="147.4" cy="38.5" rx="0.6" ry="0.6" class="atom-4" style="fill:#7F7FFF;fill-rule:evenodd;stroke:#7F7FFF;stroke-width:1.0px;stroke-linecap:butt;stroke-linejoin:miter;stroke-opacity:1"/>
<ellipse cx="147.4" cy="9.3" rx="1.3" ry="1.3" class="atom-5" style="fill:#FF7F7F;fill-rule:evenodd;stroke:#FF7F7F;stroke-width:1.0px;stroke-linecap:butt;stroke-linejoin:miter;stroke-opacity:1"/>
<ellipse cx="122.1" cy="53.2" rx="12.3" ry="12.3" class="atom-6" style="fill:#7F7FFF;fill-rule:evenodd;stroke:#7F7FFF;stroke-width:1.0px;stroke-linecap:butt;stroke-linejoin:miter;stroke-opacity:1"/>
<ellipse cx="96.8" cy="38.5" rx="1.4" ry="1.4" class="atom-7" style="fill:#7F7FFF;fill-rule:evenodd;stroke:#7F7FFF;stroke-width:1.0px;stroke-linecap:butt;stroke-linejoin:miter;stroke-opacity:1"/>
<ellipse cx="71.5" cy="53.2" rx="1.0" ry="1.0" class="atom-8" style="fill:#FF7F7F;fill-rule:evenodd;stroke:#FF7F7F;stroke-width:1.0px;stroke-linecap:butt;stroke-linejoin:miter;stroke-opacity:1"/>
<ellipse cx="71.5" cy="82.4" rx="6.8" ry="6.8" class="atom-9" style="fill:#7F7FFF;fill-rule:evenodd;stroke:#7F7FFF;stroke-width:1.0px;stroke-linecap:butt;stroke-linejoin:miter;stroke-opacity:1"/>
<ellipse cx="46.2" cy="38.5" rx="0.4" ry="0.4" class="atom-10" style="fill:#7F7FFF;fill-rule:evenodd;stroke:#7F7FFF;stroke-width:1.0px;stroke-linecap:butt;stroke-linejoin:miter;stroke-opacity:1"/>
<ellipse cx="20.9" cy="53.2" rx="0.9" ry="0.9" class="atom-11" style="fill:#7F7FFF;fill-rule:evenodd;stroke:#7F7FFF;stroke-width:1.0px;stroke-linecap:butt;stroke-linejoin:miter;stroke-opacity:1"/>
<ellipse cx="198.0" cy="38.5" rx="1.5" ry="1.5" class="atom-12" style="fill:#7F7FFF;fill-rule:evenodd;stroke:#7F7FFF;stroke-width:1.0px;stroke-linecap:butt;stroke-linejoin:miter;stroke-opacity:1"/>
<ellipse cx="198.0" cy="9.3" rx="0.2" ry="0.2" class="atom-13" style="fill:#7F7FFF;fill-rule:evenodd;stroke:#7F7FFF;stroke-width:1.0px;stroke-linecap:butt;stroke-linejoin:miter;stroke-opacity:1"/>
<ellipse cx="223.4" cy="53.2" rx="0.2" ry="0.2" class="atom-14" style="fill:#7F7FFF;fill-rule:evenodd;stroke:#7F7FFF;stroke-width:1.0px;stroke-linecap:butt;stroke-linejoin:miter;stroke-opacity:1"/>
<path class="bond-0 atom-0 atom-1" d="M 147.4,97.0 L 172.7,82.4" style="fill:none;fill-rule:evenodd;stroke:#000000;stroke-width:2.0px;stroke-linecap:butt;stroke-linejoin:miter;stroke-opacity:1"/>
<path class="bond-1 atom-1 atom-2" d="M 172.7,82.4 L 198.0,97.0" style="fill:none;fill-rule:evenodd;stroke:#000000;stroke-width:2.0px;stroke-linecap:butt;stroke-linejoin:miter;stroke-opacity:1"/>
<path class="bond-2 atom-1 atom-3" d="M 172.7,82.4 L 172.7,58.3" style="fill:none;fill-rule:evenodd;stroke:#000000;stroke-width:2.0px;stroke-linecap:butt;stroke-linejoin:miter;stroke-opacity:1"/>
<path class="bond-3 atom-3 atom-4" d="M 168.6,50.8 L 147.4,38.5" style="fill:none;fill-rule:evenodd;stroke:#000000;stroke-width:2.0px;stroke-linecap:butt;stroke-linejoin:miter;stroke-opacity:1"/>
<path class="bond-4 atom-4 atom-5" d="M 149.6,39.8 L 149.6,14.6" style="fill:none;fill-rule:evenodd;stroke:#000000;stroke-width:2.0px;stroke-linecap:butt;stroke-linejoin:miter;stroke-opacity:1"/>
<path class="bond-4 atom-4 atom-5" d="M 145.3,39.8 L 145.3,14.6" style="fill:none;fill-rule:evenodd;stroke:#000000;stroke-width:2.0px;stroke-linecap:butt;stroke-linejoin:miter;stroke-opacity:1"/>
<path class="bond-5 atom-4 atom-6" d="M 147.4,38.5 L 125.8,51.1" style="fill:none;fill-rule:evenodd;stroke:#000000;stroke-width:2.0px;stroke-linecap:butt;stroke-linejoin:miter;stroke-opacity:1"/>
<path class="bond-6 atom-6 atom-7" d="M 118.5,51.1 L 96.8,38.5" style="fill:none;fill-rule:evenodd;stroke:#000000;stroke-width:2.0px;stroke-linecap:butt;stroke-linejoin:miter;stroke-opacity:1"/>
<path class="bond-7 atom-7 atom-8" d="M 96.8,38.5 L 71.5,53.2" style="fill:none;fill-rule:evenodd;stroke:#000000;stroke-width:2.0px;stroke-linecap:butt;stroke-linejoin:miter;stroke-opacity:1"/>
<path class="bond-8 atom-8 atom-9" d="M 71.5,53.2 L 71.5,77.5" style="fill:none;fill-rule:evenodd;stroke:#000000;stroke-width:2.0px;stroke-linecap:butt;stroke-linejoin:miter;stroke-opacity:1"/>
<path class="bond-9 atom-8 atom-10" d="M 71.5,53.2 L 46.2,38.5" style="fill:none;fill-rule:evenodd;stroke:#000000;stroke-width:2.0px;stroke-linecap:butt;stroke-linejoin:miter;stroke-opacity:1"/>
<path class="bond-9 atom-8 atom-10" d="M 67.2,55.7 L 46.2,43.6" style="fill:none;fill-rule:evenodd;stroke:#000000;stroke-width:2.0px;stroke-linecap:butt;stroke-linejoin:miter;stroke-opacity:1"/>
<path class="bond-10 atom-10 atom-11" d="M 46.2,38.5 L 22.4,52.3" style="fill:none;fill-rule:evenodd;stroke:#000000;stroke-width:2.0px;stroke-linecap:butt;stroke-linejoin:miter;stroke-opacity:1"/>
<path class="bond-11 atom-3 atom-12" d="M 176.8,50.8 L 198.0,38.5" style="fill:none;fill-rule:evenodd;stroke:#000000;stroke-width:2.0px;stroke-linecap:butt;stroke-linejoin:miter;stroke-opacity:1"/>
<path class="bond-12 atom-12 atom-13" d="M 198.0,38.5 L 198.0,9.3" style="fill:none;fill-rule:evenodd;stroke:#000000;stroke-width:2.0px;stroke-linecap:butt;stroke-linejoin:miter;stroke-opacity:1"/>
<path class="bond-13 atom-12 atom-14" d="M 198.0,38.5 L 223.4,53.2" style="fill:none;fill-rule:evenodd;stroke:#000000;stroke-width:2.0px;stroke-linecap:butt;stroke-linejoin:miter;stroke-opacity:1"/>
<path d="M 148.5,39.2 L 147.4,38.5 L 146.4,39.2" style="fill:none;stroke:#000000;stroke-width:2.0px;stroke-linecap:butt;stroke-linejoin:miter;stroke-miterlimit:10;stroke-opacity:1;"/>
<path d="M 97.9,39.2 L 96.8,38.5 L 95.6,39.3" style="fill:none;stroke:#000000;stroke-width:2.0px;stroke-linecap:butt;stroke-linejoin:miter;stroke-miterlimit:10;stroke-opacity:1;"/>
<path d="M 47.5,39.3 L 46.2,38.5 L 45.1,39.2" style="fill:none;stroke:#000000;stroke-width:2.0px;stroke-linecap:butt;stroke-linejoin:miter;stroke-miterlimit:10;stroke-opacity:1;"/>
<path class="atom-3" d="M 170.9 49.0 L 173.6 53.4 Q 173.9 53.8, 174.3 54.6 Q 174.8 55.4, 174.8 55.4 L 174.8 49.0 L 175.9 49.0 L 175.9 57.3 L 174.8 57.3 L 171.8 52.5 Q 171.5 51.9, 171.1 51.3 Q 170.8 50.7, 170.7 50.5 L 170.7 57.3 L 169.6 57.3 L 169.6 49.0 L 170.9 49.0 " fill="#000000"/>
<path class="atom-5" d="M 143.6 9.4 Q 143.6 7.4, 144.6 6.3 Q 145.6 5.1, 147.4 5.1 Q 149.3 5.1, 150.3 6.3 Q 151.2 7.4, 151.2 9.4 Q 151.2 11.4, 150.3 12.5 Q 149.3 13.6, 147.4 13.6 Q 145.6 13.6, 144.6 12.5 Q 143.6 11.4, 143.6 9.4 M 147.4 12.7 Q 148.7 12.7, 149.4 11.9 Q 150.1 11.0, 150.1 9.4 Q 150.1 7.7, 149.4 6.9 Q 148.7 6.1, 147.4 6.1 Q 146.2 6.1, 145.5 6.9 Q 144.8 7.7, 144.8 9.4 Q 144.8 11.0, 145.5 11.9 Q 146.2 12.7, 147.4 12.7 " fill="#000000"/>
<path class="atom-6" d="M 119.8 56.0 Q 119.9 56.0, 120.3 56.2 Q 120.7 56.4, 121.1 56.5 Q 121.5 56.6, 121.9 56.6 Q 122.7 56.6, 123.2 56.2 Q 123.6 55.8, 123.6 55.1 Q 123.6 54.7, 123.4 54.4 Q 123.2 54.1, 122.8 54.0 Q 122.5 53.8, 121.9 53.6 Q 121.2 53.4, 120.7 53.2 Q 120.3 53.0, 120.0 52.5 Q 119.7 52.1, 119.7 51.4 Q 119.7 50.3, 120.4 49.7 Q 121.1 49.0, 122.5 49.0 Q 123.4 49.0, 124.5 49.5 L 124.3 50.4 Q 123.3 50.0, 122.5 50.0 Q 121.7 50.0, 121.3 50.3 Q 120.8 50.6, 120.8 51.2 Q 120.8 51.7, 121.1 51.9 Q 121.3 52.2, 121.6 52.4 Q 122.0 52.5, 122.5 52.7 Q 123.3 52.9, 123.7 53.1 Q 124.2 53.4, 124.5 53.9 Q 124.8 54.3, 124.8 55.1 Q 124.8 56.3, 124.0 56.9 Q 123.3 57.5, 122.0 57.5 Q 121.3 57.5, 120.7 57.3 Q 120.1 57.2, 119.5 56.9 L 119.8 56.0 " fill="#000000"/>
<path class="atom-9" d="M 68.4 82.7 Q 68.4 80.6, 69.3 79.5 Q 70.3 78.4, 72.1 78.4 Q 73.8 78.4, 74.7 79.6 L 74.0 80.3 Q 73.3 79.4, 72.1 79.4 Q 70.9 79.4, 70.2 80.2 Q 69.5 81.1, 69.5 82.7 Q 69.5 84.3, 70.2 85.1 Q 70.9 86.0, 72.2 86.0 Q 73.2 86.0, 74.2 85.4 L 74.5 86.3 Q 74.1 86.6, 73.5 86.7 Q 72.8 86.9, 72.1 86.9 Q 70.3 86.9, 69.3 85.8 Q 68.4 84.7, 68.4 82.7 " fill="#000000"/>
<path class="atom-9" d="M 75.6 77.9 L 76.6 77.9 L 76.6 86.8 L 75.6 86.8 L 75.6 77.9 " fill="#000000"/>
<path class="atom-11" d="M 13.2 53.4 Q 13.2 51.4, 14.1 50.3 Q 15.1 49.2, 16.9 49.2 Q 18.6 49.2, 19.6 50.4 L 18.8 51.1 Q 18.1 50.2, 16.9 50.2 Q 15.7 50.2, 15.0 51.0 Q 14.4 51.9, 14.4 53.4 Q 14.4 55.1, 15.0 55.9 Q 15.7 56.8, 17.1 56.8 Q 18.0 56.8, 19.0 56.2 L 19.4 57.1 Q 18.9 57.4, 18.3 57.5 Q 17.6 57.7, 16.9 57.7 Q 15.1 57.7, 14.1 56.6 Q 13.2 55.5, 13.2 53.4 " fill="#000000"/>
<path class="atom-11" d="M 20.4 48.7 L 21.5 48.7 L 21.5 57.6 L 20.4 57.6 L 20.4 48.7 " fill="#000000"/>
</svg>