<svg xmlns="http://www.w3.org/2000/svg" xmlns:rdkit="http://www.rdkit.org/xml" xmlns:xlink="http://www.w3.org/1999/xlink" version="1.1" baseProfile="full" xml:space="preserve" width="239px" height="106px" viewBox="0 0 239 106">
<!-- END OF HEADER -->
<rect style="opacity:1.0;fill:#FFFFFF;stroke:none" width="239.0" height="106.0" x="0.0" y="0.0"> </rect>
<ellipse cx="148.1" cy="98.6" rx="1.7" ry="1.7" class="atom-0" style="fill:#7F7FFF;fill-rule:evenodd;stroke:#7F7FFF;stroke-width:1.0px;stroke-linecap:butt;stroke-linejoin:miter;stroke-opacity:1"/>
<ellipse cx="173.6" cy="83.8" rx="1.7" ry="1.7" class="atom-1" style="fill:#7F7FFF;fill-rule:evenodd;stroke:#7F7FFF;stroke-width:1.0px;stroke-linecap:butt;stroke-linejoin:miter;stroke-opacity:1"/>
<ellipse cx="199.1" cy="98.6" rx="1.7" ry="1.7" class="atom-2" style="fill:#7F7FFF;fill-rule:evenodd;stroke:#7F7FFF;stroke-width:1.0px;stroke-linecap:butt;stroke-linejoin:miter;stroke-opacity:1"/>
<ellipse cx="173.6" cy="54.4" rx="5.3" ry="5.3" class="atom-3" style="fill:#7F7FFF;fill-rule:evenodd;stroke:#7F7FFF;stroke-width:1.0px;stroke-linecap:butt;stroke-linejoin:miter;stroke-opacity:1"/>
<ellipse cx="148.1" cy="39.6" rx="4.8" ry="4.8" class="atom-4" style="fill:#7F7FFF;fill-rule:evenodd;stroke:#7F7FFF;stroke-width:1.0px;stroke-linecap:butt;stroke-linejoin:miter;stroke-opacity:1"/>
<ellipse cx="148.1" cy="10.1" rx="4.8" ry="4.8" class="atom-5" style="fill:#7F7FFF;fill-rule:evenodd;stroke:#7F7FFF;stroke-width:1.0px;stroke-linecap:butt;stroke-linejoin:miter;stroke-opacity:1"/>
<ellipse cx="122.5" cy="54.4" rx="4.8" ry="4.8" class="atom-6" style="fill:#7F7FFF;fill-rule:evenodd;stroke:#7F7FFF;stroke-width:1.0px;stroke-linecap:butt;stroke-linejoin:miter;stroke-opacity:1"/>
<ellipse cx="97.0" cy="39.6" rx="1.5" ry="1.5" class="atom-7" style="fill:#7F7FFF;fill-rule:evenodd;stroke:#7F7FFF;stroke-width:1.0px;stroke-linecap:butt;stroke-linejoin:miter;stroke-opacity:1"/>
<ellipse cx="71.4" cy="54.4" rx="1.5" ry="1.5" class="atom-8" style="fill:#7F7FFF;fill-rule:evenodd;stroke:#7F7FFF;stroke-width:1.0px;stroke-linecap:butt;stroke-linejoin:miter;stroke-opacity:1"/>
<ellipse cx="71.4" cy="83.8" rx="1.5" ry="1.5" class="atom-9" style="fill:#7F7FFF;fill-rule:evenodd;stroke:#7F7FFF;stroke-width:1.0px;stroke-linecap:butt;stroke-linejoin:miter;stroke-opacity:1"/>
<ellipse cx="45.9" cy="39.6" rx="1.5" ry="1.5" class="atom-10" style="fill:#7F7FFF;fill-rule:evenodd;stroke:#7F7FFF;stroke-width:1.0px;stroke-linecap:butt;stroke-linejoin:miter;stroke-opacity:1"/>
<ellipse cx="20.3" cy="54.4" rx="1.5" ry="1.5" class="atom-11" style="fill:#7F7FFF;fill-rule:evenodd;stroke:#7F7FFF;stroke-width:1.0px;stroke-linecap:butt;stroke-linejoin:miter;stroke-opacity:1"/>
<ellipse cx="199.1" cy="39.6" rx="1.7" ry="1.7" class="atom-12" style="fill:#7F7FFF;fill-rule:evenodd;stroke:#7F7FFF;stroke-width:1.0px;stroke-linecap:butt;stroke-linejoin:miter;stroke-opacity:1"/>
<ellipse cx="199.1" cy="10.1" rx="1.7" ry="1.7" class="atom-13" style="fill:#7F7FFF;fill-rule:evenodd;stroke:#7F7FFF;stroke-width:1.0px;stroke-linecap:butt;stroke-linejoin:miter;stroke-opacity:1"/>
<ellipse cx="224.7" cy="54.4" rx="1.7" ry="1.7" class="atom-14" style="fill:#7F7FFF;fill-rule:evenodd;stroke:#7F7FFF;stroke-width:1.0px;stroke-linecap:butt;stroke-linejoin:miter;stroke-opacity:1"/>
<path class="bond-0 atom-0 atom-1" d="M 148.1,98.6 L 173.6,83.8" style="fill:none;fill-rule:evenodd;stroke:#000000;stroke-width:2.0px;stroke-linecap:butt;stroke-linejoin:miter;stroke-opacity:1"/>
<path class="bond-1 atom-1 atom-2" d="M 173.6,83.8 L 199.1,98.6" style="fill:none;fill-rule:evenodd;stroke:#000000;stroke-width:2.0px;stroke-linecap:butt;stroke-linejoin:miter;stroke-opacity:1"/>
<path class="bond-2 atom-1 atom-3" d="M 173.6,83.8 L 173.6,59.5" style="fill:none;fill-rule:evenodd;stroke:#000000;stroke-width:2.0px;stroke-linecap:butt;stroke-linejoin:miter;stroke-opacity:1"/>
<path class="bond-3 atom-3 atom-4" d="M 169.5,52.0 L 148.1,39.6" style="fill:none;fill-rule:evenodd;stroke:#000000;stroke-width:2.0px;stroke-linecap:butt;stroke-linejoin:miter;stroke-opacity:1"/>
<path class="bond-4 atom-4 atom-5" d="M 150.3,40.9 L 150.3,15.4" style="fill:none;fill-rule:evenodd;stroke:#000000;stroke-width:2.0px;stroke-linecap:butt;stroke-linejoin:miter;stroke-opacity:1"/>
<path class="bond-4 atom-4 atom-5" d="M 145.8,40.9 L 145.8,15.4" style="fill:none;fill-rule:evenodd;stroke:#000000;stroke-width:2.0px;stroke-linecap:butt;stroke-linejoin:miter;stroke-opacity:1"/>
<path class="bond-5 atom-4 atom-6" d="M 148.1,39.6 L 126.2,52.2" style="fill:none;fill-rule:evenodd;stroke:#000000;stroke-width:2.0px;stroke-linecap:butt;stroke-linejoin:miter;stroke-opacity:1"/>
<path class="bond-6 atom-6 atom-7" d="M 118.9,52.2 L 97.0,39.6" style="fill:none;fill-rule:evenodd;stroke:#000000;stroke-width:2.0px;stroke-linecap:butt;stroke-linejoin:miter;stroke-opacity:1"/>
<path class="bond-7 atom-7 atom-8" d="M 97.0,39.6 L 71.4,54.4" style="fill:none;fill-rule:evenodd;stroke:#000000;stroke-width:2.0px;stroke-linecap:butt;stroke-linejoin:miter;stroke-opacity:1"/>
<path class="bond-8 atom-8 atom-9" d="M 71.4,54.4 L 71.4,78.9" style="fill:none;fill-rule:evenodd;stroke:#000000;stroke-width:2.0px;stroke-linecap:butt;stroke-linejoin:miter;stroke-opacity:1"/>
<path class="bond-9 atom-8 atom-10" d="M 71.4,54.4 L 45.9,39.6" style="fill:none;fill-rule:evenodd;stroke:#000000;stroke-width:2.0px;stroke-linecap:butt;stroke-linejoin:miter;stroke-opacity:1"/>
<path class="bond-9 atom-8 atom-10" d="M 67.0,56.9 L 45.9,44.7" style="fill:none;fill-rule:evenodd;stroke:#000000;stroke-width:2.0px;stroke-linecap:butt;stroke-linejoin:miter;stroke-opacity:1"/>
<path class="bond-10 atom-10 atom-11" d="M 45.9,39.6 L 21.9,53.5" style="fill:none;fill-rule:evenodd;stroke:#000000;stroke-width:2.0px;stroke-linecap:butt;stroke-linejoin:miter;stroke-opacity:1"/>
<path class="bond-11 atom-3 atom-12" d="M 177.7,52.0 L 199.1,39.6" style="fill:none;fill-rule:evenodd;stroke:#000000;stroke-width:2.0px;stroke-linecap:butt;stroke-linejoin:miter;stroke-opacity:1"/>
<path class="bond-12 atom-12 atom-13" d="M 199.1,39.6 L 199.1,10.1" style="fill:none;fill-rule:evenodd;stroke:#000000;stroke-width:2.0px;stroke-linecap:butt;stroke-linejoin:miter;stroke-opacity:1"/>
<path class="bond-13 atom-12 atom-14" d="M 199.1,39.6 L 224.7,54.4" style="fill:none;fill-rule:evenodd;stroke:#000000;stroke-width:2.0px;stroke-linecap:butt;stroke-linejoin:miter;stroke-opacity:1"/>
<path d="M 149.1,40.2 L 148.1,39.6 L 147.0,40.2" style="fill:none;stroke:#000000;stroke-width:2.0px;stroke-linecap:butt;stroke-linejoin:miter;stroke-miterlimit:10;stroke-opacity:1;"/>
<path d="M 98.1,40.2 L 97.0,39.6 L 95.7,40.3" style="fill:none;stroke:#000000;stroke-width:2.0px;stroke-linecap:butt;stroke-linejoin:miter;stroke-miterlimit:10;stroke-opacity:1;"/>
<path d="M 47.2,40.3 L 45.9,39.6 L 44.7,40.3" style="fill:none;stroke:#000000;stroke-width:2.0px;stroke-linecap:butt;stroke-linejoin:miter;stroke-miterlimit:10;stroke-opacity:1;"/>
<path class="atom-3" d="M 171.8 50.2 L 174.5 54.6 Q 174.8 55.0, 175.2 55.8 Q 175.6 56.6, 175.7 56.7 L 175.7 50.2 L 176.8 50.2 L 176.8 58.5 L 175.6 58.5 L 172.7 53.7 Q 172.3 53.1, 172.0 52.5 Q 171.6 51.8, 171.5 51.6 L 171.5 58.5 L 170.4 58.5 L 170.4 50.2 L 171.8 50.2 " fill="#000000"/>
<path class="atom-5" d="M 144.2 10.1 Q 144.2 8.1, 145.2 7.0 Q 146.2 5.9, 148.1 5.9 Q 149.9 5.9, 150.9 7.0 Q 151.9 8.1, 151.9 10.1 Q 151.9 12.2, 150.9 13.3 Q 149.9 14.5, 148.1 14.5 Q 146.2 14.5, 145.2 13.3 Q 144.2 12.2, 144.2 10.1 M 148.1 13.5 Q 149.3 13.5, 150.0 12.7 Q 150.7 11.8, 150.7 10.1 Q 150.7 8.5, 150.0 7.7 Q 149.3 6.8, 148.1 6.8 Q 146.8 6.8, 146.1 7.7 Q 145.4 8.5, 145.4 10.1 Q 145.4 11.8, 146.1 12.7 Q 146.8 13.5, 148.1 13.5 " fill="#000000"/>
<path class="atom-6" d="M 120.2 57.2 Q 120.2 57.3, 120.6 57.4 Q 121.0 57.6, 121.5 57.7 Q 121.9 57.8, 122.3 57.8 Q 123.1 57.8, 123.6 57.4 Q 124.0 57.0, 124.0 56.3 Q 124.0 55.9, 123.8 55.6 Q 123.6 55.3, 123.2 55.2 Q 122.9 55.0, 122.3 54.8 Q 121.5 54.6, 121.1 54.4 Q 120.6 54.2, 120.3 53.7 Q 120.0 53.3, 120.0 52.5 Q 120.0 51.5, 120.7 50.8 Q 121.4 50.2, 122.9 50.2 Q 123.8 50.2, 124.9 50.6 L 124.7 51.6 Q 123.6 51.1, 122.9 51.1 Q 122.1 51.1, 121.6 51.5 Q 121.2 51.8, 121.2 52.4 Q 121.2 52.8, 121.4 53.1 Q 121.7 53.4, 122.0 53.5 Q 122.3 53.7, 122.9 53.9 Q 123.6 54.1, 124.1 54.3 Q 124.5 54.6, 124.9 55.1 Q 125.2 55.5, 125.2 56.3 Q 125.2 57.5, 124.4 58.1 Q 123.6 58.7, 122.4 58.7 Q 121.6 58.7, 121.1 58.6 Q 120.5 58.4, 119.8 58.2 L 120.2 57.2 " fill="#000000"/>
<path class="atom-9" d="M 68.2 84.1 Q 68.2 82.1, 69.2 81.0 Q 70.2 79.9, 72.0 79.9 Q 73.7 79.9, 74.6 81.1 L 73.9 81.7 Q 73.2 80.8, 72.0 80.8 Q 70.7 80.8, 70.1 81.7 Q 69.4 82.5, 69.4 84.1 Q 69.4 85.8, 70.1 86.6 Q 70.8 87.5, 72.1 87.5 Q 73.1 87.5, 74.1 86.9 L 74.5 87.8 Q 74.0 88.1, 73.4 88.3 Q 72.7 88.4, 72.0 88.4 Q 70.2 88.4, 69.2 87.3 Q 68.2 86.2, 68.2 84.1 " fill="#000000"/>
<path class="atom-9" d="M 75.5 79.4 L 76.6 79.4 L 76.6 88.3 L 75.5 88.3 L 75.5 79.4 " fill="#000000"/>
<path class="atom-11" d="M 12.5 54.6 Q 12.5 52.6, 13.5 51.5 Q 14.5 50.4, 16.3 50.4 Q 18.0 50.4, 18.9 51.6 L 18.2 52.2 Q 17.5 51.4, 16.3 51.4 Q 15.0 51.4, 14.4 52.2 Q 13.7 53.0, 13.7 54.6 Q 13.7 56.3, 14.4 57.1 Q 15.1 58.0, 16.4 58.0 Q 17.4 58.0, 18.4 57.4 L 18.8 58.3 Q 18.3 58.6, 17.7 58.8 Q 17.0 58.9, 16.3 58.9 Q 14.5 58.9, 13.5 57.8 Q 12.5 56.7, 12.5 54.6 " fill="#000000"/>
<path class="atom-11" d="M 19.8 49.9 L 20.9 49.9 L 20.9 58.8 L 19.8 58.8 L 19.8 49.9 " fill="#000000"/>
</svg>