<svg xmlns="http://www.w3.org/2000/svg" xmlns:rdkit="http://www.rdkit.org/xml" xmlns:xlink="http://www.w3.org/1999/xlink" version="1.1" baseProfile="full" xml:space="preserve" width="210px" height="160px" viewBox="0 0 210 160">
<!-- END OF HEADER -->
<rect style="opacity:1.0;fill:#FFFFFF;stroke:none" width="210.0" height="160.0" x="0.0" y="0.0"> </rect>
<ellipse cx="16.6" cy="146.1" rx="5.9" ry="5.9" class="atom-0" style="fill:#FCFCFF;fill-rule:evenodd;stroke:#FCFCFF;stroke-width:1.0px;stroke-linecap:butt;stroke-linejoin:miter;stroke-opacity:1"/>
<ellipse cx="28.7" cy="119.0" rx="5.9" ry="5.9" class="atom-1" style="fill:#F8F8FF;fill-rule:evenodd;stroke:#F8F8FF;stroke-width:1.0px;stroke-linecap:butt;stroke-linejoin:miter;stroke-opacity:1"/>
<ellipse cx="58.2" cy="116.0" rx="5.9" ry="5.9" class="atom-2" style="fill:#FEFEFF;fill-rule:evenodd;stroke:#FEFEFF;stroke-width:1.0px;stroke-linecap:butt;stroke-linejoin:miter;stroke-opacity:1"/>
<ellipse cx="70.3" cy="89.0" rx="5.9" ry="5.9" class="atom-3" style="fill:#E4E4FF;fill-rule:evenodd;stroke:#E4E4FF;stroke-width:1.0px;stroke-linecap:butt;stroke-linejoin:miter;stroke-opacity:1"/>
<ellipse cx="53.0" cy="65.0" rx="5.9" ry="5.9" class="atom-4" style="fill:#F6F6FF;fill-rule:evenodd;stroke:#F6F6FF;stroke-width:1.0px;stroke-linecap:butt;stroke-linejoin:miter;stroke-opacity:1"/>
<ellipse cx="65.1" cy="38.0" rx="5.9" ry="5.9" class="atom-5" style="fill:#EEEEFF;fill-rule:evenodd;stroke:#EEEEFF;stroke-width:1.0px;stroke-linecap:butt;stroke-linejoin:miter;stroke-opacity:1"/>
<ellipse cx="47.8" cy="13.9" rx="5.9" ry="5.9" class="atom-6" style="fill:#1616FF;fill-rule:evenodd;stroke:#1616FF;stroke-width:1.0px;stroke-linecap:butt;stroke-linejoin:miter;stroke-opacity:1"/>
<ellipse cx="94.6" cy="34.9" rx="5.9" ry="5.9" class="atom-7" style="fill:#F6F6FF;fill-rule:evenodd;stroke:#F6F6FF;stroke-width:1.0px;stroke-linecap:butt;stroke-linejoin:miter;stroke-opacity:1"/>
<ellipse cx="111.9" cy="59.0" rx="5.9" ry="5.9" class="atom-8" style="fill:#EAEAFF;fill-rule:evenodd;stroke:#EAEAFF;stroke-width:1.0px;stroke-linecap:butt;stroke-linejoin:miter;stroke-opacity:1"/>
<ellipse cx="141.4" cy="56.0" rx="5.9" ry="5.9" class="atom-9" style="fill:#FFFCFC;fill-rule:evenodd;stroke:#FFFCFC;stroke-width:1.0px;stroke-linecap:butt;stroke-linejoin:miter;stroke-opacity:1"/>
<ellipse cx="158.7" cy="80.0" rx="5.9" ry="5.9" class="atom-10" style="fill:#D2D2FF;fill-rule:evenodd;stroke:#D2D2FF;stroke-width:1.0px;stroke-linecap:butt;stroke-linejoin:miter;stroke-opacity:1"/>
<ellipse cx="182.8" cy="62.6" rx="5.9" ry="5.9" class="atom-11" style="fill:#FFEAEA;fill-rule:evenodd;stroke:#FFEAEA;stroke-width:1.0px;stroke-linecap:butt;stroke-linejoin:miter;stroke-opacity:1"/>
<ellipse cx="134.7" cy="97.3" rx="5.9" ry="5.9" class="atom-12" style="fill:#FFEAEA;fill-rule:evenodd;stroke:#FFEAEA;stroke-width:1.0px;stroke-linecap:butt;stroke-linejoin:miter;stroke-opacity:1"/>
<ellipse cx="176.1" cy="104.0" rx="5.9" ry="5.9" class="atom-13" style="fill:#FFFEFE;fill-rule:evenodd;stroke:#FFFEFE;stroke-width:1.0px;stroke-linecap:butt;stroke-linejoin:miter;stroke-opacity:1"/>
<ellipse cx="193.4" cy="128.0" rx="5.9" ry="5.9" class="atom-14" style="fill:#FFC8C8;fill-rule:evenodd;stroke:#FFC8C8;stroke-width:1.0px;stroke-linecap:butt;stroke-linejoin:miter;stroke-opacity:1"/>
<ellipse cx="99.8" cy="86.0" rx="5.9" ry="5.9" class="atom-15" style="fill:#F0F0FF;fill-rule:evenodd;stroke:#F0F0FF;stroke-width:1.0px;stroke-linecap:butt;stroke-linejoin:miter;stroke-opacity:1"/>
<path class="bond-0 atom-0 atom-1" d="M 16.6,146.1 L 28.7,119.0" style="fill:none;fill-rule:evenodd;stroke:#000000;stroke-width:2.0px;stroke-linecap:butt;stroke-linejoin:miter;stroke-opacity:1"/>
<path class="bond-1 atom-1 atom-2" d="M 28.7,119.0 L 54.0,116.5" style="fill:none;fill-rule:evenodd;stroke:#000000;stroke-width:2.0px;stroke-linecap:butt;stroke-linejoin:miter;stroke-opacity:1"/>
<path class="bond-2 atom-2 atom-3" d="M 60.5,110.9 L 70.3,89.0" style="fill:none;fill-rule:evenodd;stroke:#000000;stroke-width:2.0px;stroke-linecap:butt;stroke-linejoin:miter;stroke-opacity:1"/>
<path class="bond-3 atom-3 atom-4" d="M 70.3,89.0 L 56.7,70.2" style="fill:none;fill-rule:evenodd;stroke:#000000;stroke-width:2.0px;stroke-linecap:butt;stroke-linejoin:miter;stroke-opacity:1"/>
<path class="bond-3 atom-3 atom-4" d="M 72.4,84.3 L 60.3,67.6" style="fill:none;fill-rule:evenodd;stroke:#000000;stroke-width:2.0px;stroke-linecap:butt;stroke-linejoin:miter;stroke-opacity:1"/>
<path class="bond-4 atom-4 atom-5" d="M 55.3,59.8 L 65.1,38.0" style="fill:none;fill-rule:evenodd;stroke:#000000;stroke-width:2.0px;stroke-linecap:butt;stroke-linejoin:miter;stroke-opacity:1"/>
<path class="bond-5 atom-5 atom-6" d="M 65.1,38.0 L 49.3,16.0" style="fill:none;fill-rule:evenodd;stroke:#000000;stroke-width:2.0px;stroke-linecap:butt;stroke-linejoin:miter;stroke-opacity:1"/>
<path class="bond-6 atom-5 atom-7" d="M 65.1,38.0 L 90.4,35.4" style="fill:none;fill-rule:evenodd;stroke:#000000;stroke-width:2.0px;stroke-linecap:butt;stroke-linejoin:miter;stroke-opacity:1"/>
<path class="bond-6 atom-5 atom-7" d="M 68.1,42.1 L 90.9,39.8" style="fill:none;fill-rule:evenodd;stroke:#000000;stroke-width:2.0px;stroke-linecap:butt;stroke-linejoin:miter;stroke-opacity:1"/>
<path class="bond-7 atom-7 atom-8" d="M 98.3,40.1 L 111.9,59.0" style="fill:none;fill-rule:evenodd;stroke:#000000;stroke-width:2.0px;stroke-linecap:butt;stroke-linejoin:miter;stroke-opacity:1"/>
<path class="bond-8 atom-8 atom-9" d="M 111.9,59.0 L 137.2,56.4" style="fill:none;fill-rule:evenodd;stroke:#000000;stroke-width:2.0px;stroke-linecap:butt;stroke-linejoin:miter;stroke-opacity:1"/>
<path class="bond-9 atom-9 atom-10" d="M 145.1,61.1 L 158.7,80.0" style="fill:none;fill-rule:evenodd;stroke:#000000;stroke-width:2.0px;stroke-linecap:butt;stroke-linejoin:miter;stroke-opacity:1"/>
<path class="bond-10 atom-10 atom-11" d="M 158.7,80.0 L 182.8,62.6" style="fill:none;fill-rule:evenodd;stroke:#000000;stroke-width:2.0px;stroke-linecap:butt;stroke-linejoin:miter;stroke-opacity:1"/>
<path class="bond-11 atom-10 atom-12" d="M 158.7,80.0 L 134.7,97.3" style="fill:none;fill-rule:evenodd;stroke:#000000;stroke-width:2.0px;stroke-linecap:butt;stroke-linejoin:miter;stroke-opacity:1"/>
<path class="bond-12 atom-10 atom-13" d="M 158.7,80.0 L 176.1,104.0" style="fill:none;fill-rule:evenodd;stroke:#000000;stroke-width:2.0px;stroke-linecap:butt;stroke-linejoin:miter;stroke-opacity:1"/>
<path class="bond-13 atom-13 atom-14" d="M 176.1,104.0 L 189.7,122.9" style="fill:none;fill-rule:evenodd;stroke:#000000;stroke-width:2.0px;stroke-linecap:butt;stroke-linejoin:miter;stroke-opacity:1"/>
<path class="bond-13 atom-13 atom-14" d="M 179.7,101.4 L 193.3,120.3" style="fill:none;fill-rule:evenodd;stroke:#000000;stroke-width:2.0px;stroke-linecap:butt;stroke-linejoin:miter;stroke-opacity:1"/>
<path class="bond-13 atom-13 atom-14" d="M 172.5,106.6 L 186.1,125.5" style="fill:none;fill-rule:evenodd;stroke:#000000;stroke-width:2.0px;stroke-linecap:butt;stroke-linejoin:miter;stroke-opacity:1"/>
<path class="bond-14 atom-8 atom-15" d="M 111.9,59.0 L 102.1,80.8" style="fill:none;fill-rule:evenodd;stroke:#000000;stroke-width:2.0px;stroke-linecap:butt;stroke-linejoin:miter;stroke-opacity:1"/>
<path class="bond-14 atom-8 atom-15" d="M 106.8,59.5 L 98.1,79.0" style="fill:none;fill-rule:evenodd;stroke:#000000;stroke-width:2.0px;stroke-linecap:butt;stroke-linejoin:miter;stroke-opacity:1"/>
<path class="bond-15 atom-15 atom-3" d="M 95.6,86.4 L 70.3,89.0" style="fill:none;fill-rule:evenodd;stroke:#000000;stroke-width:2.0px;stroke-linecap:butt;stroke-linejoin:miter;stroke-opacity:1"/>
<path d="M 28.1,120.4 L 28.7,119.0 L 30.0,118.9" style="fill:none;stroke:#000000;stroke-width:2.0px;stroke-linecap:butt;stroke-linejoin:miter;stroke-miterlimit:10;stroke-opacity:1;"/>
<path d="M 175.2,102.8 L 176.1,104.0 L 176.8,105.0" style="fill:none;stroke:#000000;stroke-width:2.0px;stroke-linecap:butt;stroke-linejoin:miter;stroke-miterlimit:10;stroke-opacity:1;"/>
<path class="atom-2" d="M 56.3 111.8 L 59.1 116.3 Q 59.3 116.7, 59.8 117.5 Q 60.2 118.3, 60.2 118.4 L 60.2 111.8 L 61.4 111.8 L 61.4 120.2 L 60.2 120.2 L 57.3 115.4 Q 56.9 114.8, 56.6 114.2 Q 56.2 113.5, 56.1 113.3 L 56.1 120.2 L 55.0 120.2 L 55.0 111.8 L 56.3 111.8 " fill="#000000"/>
<path class="atom-2" d="M 63.0 111.8 L 64.1 111.8 L 64.1 115.4 L 68.4 115.4 L 68.4 111.8 L 69.6 111.8 L 69.6 120.2 L 68.4 120.2 L 68.4 116.4 L 64.1 116.4 L 64.1 120.2 L 63.0 120.2 L 63.0 111.8 " fill="#000000"/>
<path class="atom-4" d="M 51.1 60.8 L 53.9 65.2 Q 54.1 65.7, 54.6 66.5 Q 55.0 67.3, 55.0 67.3 L 55.0 60.8 L 56.2 60.8 L 56.2 69.2 L 55.0 69.2 L 52.1 64.3 Q 51.7 63.7, 51.3 63.1 Q 51.0 62.4, 50.9 62.2 L 50.9 69.2 L 49.8 69.2 L 49.8 60.8 L 51.1 60.8 " fill="#000000"/>
<path class="atom-6" d="M 39.9 14.2 Q 39.9 12.1, 40.9 11.0 Q 41.9 9.9, 43.7 9.9 Q 45.4 9.9, 46.4 11.2 L 45.6 11.8 Q 44.9 10.9, 43.7 10.9 Q 42.4 10.9, 41.8 11.8 Q 41.1 12.6, 41.1 14.2 Q 41.1 15.9, 41.8 16.7 Q 42.5 17.6, 43.8 17.6 Q 44.8 17.6, 45.9 17.0 L 46.2 17.9 Q 45.7 18.2, 45.1 18.4 Q 44.4 18.5, 43.7 18.5 Q 41.9 18.5, 40.9 17.4 Q 39.9 16.3, 39.9 14.2 " fill="#000000"/>
<path class="atom-6" d="M 47.2 9.4 L 48.3 9.4 L 48.3 18.4 L 47.2 18.4 L 47.2 9.4 " fill="#000000"/>
<path class="atom-7" d="M 92.7 30.7 L 95.5 35.2 Q 95.8 35.6, 96.2 36.4 Q 96.6 37.2, 96.7 37.3 L 96.7 30.7 L 97.8 30.7 L 97.8 39.1 L 96.6 39.1 L 93.7 34.3 Q 93.3 33.7, 93.0 33.1 Q 92.6 32.4, 92.5 32.2 L 92.5 39.1 L 91.4 39.1 L 91.4 30.7 L 92.7 30.7 " fill="#000000"/>
<path class="atom-9" d="M 139.6 51.8 L 142.3 56.2 Q 142.6 56.7, 143.0 57.4 Q 143.5 58.2, 143.5 58.3 L 143.5 51.8 L 144.6 51.8 L 144.6 60.2 L 143.4 60.2 L 140.5 55.3 Q 140.1 54.7, 139.8 54.1 Q 139.4 53.4, 139.3 53.2 L 139.3 60.2 L 138.2 60.2 L 138.2 51.8 L 139.6 51.8 " fill="#000000"/>
<path class="atom-9" d="M 146.2 51.8 L 147.4 51.8 L 147.4 55.3 L 151.6 55.3 L 151.6 51.8 L 152.8 51.8 L 152.8 60.2 L 151.6 60.2 L 151.6 56.3 L 147.4 56.3 L 147.4 60.2 L 146.2 60.2 L 146.2 51.8 " fill="#000000"/>
<path class="atom-14" d="M 191.6 123.8 L 194.3 128.3 Q 194.6 128.7, 195.0 129.5 Q 195.5 130.3, 195.5 130.4 L 195.5 123.8 L 196.6 123.8 L 196.6 132.2 L 195.5 132.2 L 192.5 127.4 Q 192.2 126.8, 191.8 126.2 Q 191.4 125.5, 191.3 125.3 L 191.3 132.2 L 190.2 132.2 L 190.2 123.8 L 191.6 123.8 " fill="#000000"/>
<path class="atom-15" d="M 97.9 81.8 L 100.7 86.3 Q 101.0 86.7, 101.4 87.5 Q 101.8 88.3, 101.9 88.3 L 101.9 81.8 L 103.0 81.8 L 103.0 90.2 L 101.8 90.2 L 98.9 85.3 Q 98.5 84.8, 98.2 84.1 Q 97.8 83.5, 97.7 83.3 L 97.7 90.2 L 96.6 90.2 L 96.6 81.8 L 97.9 81.8 " fill="#000000"/>
</svg>