<svg xmlns="http://www.w3.org/2000/svg" xmlns:rdkit="http://www.rdkit.org/xml" xmlns:xlink="http://www.w3.org/1999/xlink" version="1.1" baseProfile="full" xml:space="preserve" width="270px" height="187px" viewBox="0 0 270 187">
<!-- END OF HEADER -->
<rect style="opacity:1.0;fill:#FFFFFF;stroke:none" width="270.0" height="187.0" x="0.0" y="0.0"> </rect>
<ellipse cx="16.0" cy="91.2" rx="2.2" ry="2.2" class="atom-0" style="fill:#7F7FFF;fill-rule:evenodd;stroke:#7F7FFF;stroke-width:1.0px;stroke-linecap:butt;stroke-linejoin:miter;stroke-opacity:1"/>
<ellipse cx="42.5" cy="77.9" rx="24.2" ry="24.2" class="atom-1" style="fill:#7F7FFF;fill-rule:evenodd;stroke:#7F7FFF;stroke-width:1.0px;stroke-linecap:butt;stroke-linejoin:miter;stroke-opacity:1"/>
<ellipse cx="67.2" cy="94.3" rx="17.4" ry="17.4" class="atom-2" style="fill:#7F7FFF;fill-rule:evenodd;stroke:#7F7FFF;stroke-width:1.0px;stroke-linecap:butt;stroke-linejoin:miter;stroke-opacity:1"/>
<ellipse cx="93.7" cy="81.0" rx="14.3" ry="14.3" class="atom-3" style="fill:#7F7FFF;fill-rule:evenodd;stroke:#7F7FFF;stroke-width:1.0px;stroke-linecap:butt;stroke-linejoin:miter;stroke-opacity:1"/>
<ellipse cx="118.5" cy="97.3" rx="2.3" ry="2.3" class="atom-4" style="fill:#7F7FFF;fill-rule:evenodd;stroke:#7F7FFF;stroke-width:1.0px;stroke-linecap:butt;stroke-linejoin:miter;stroke-opacity:1"/>
<ellipse cx="145.0" cy="84.0" rx="0.7" ry="0.7" class="atom-5" style="fill:#7F7FFF;fill-rule:evenodd;stroke:#7F7FFF;stroke-width:1.0px;stroke-linecap:butt;stroke-linejoin:miter;stroke-opacity:1"/>
<ellipse cx="169.7" cy="100.3" rx="0.0" ry="0.0" class="atom-6" style="fill:#FF7F7F;fill-rule:evenodd;stroke:#FF7F7F;stroke-width:1.0px;stroke-linecap:butt;stroke-linejoin:miter;stroke-opacity:1"/>
<ellipse cx="167.9" cy="129.9" rx="8.8" ry="8.8" class="atom-7" style="fill:#FF7F7F;fill-rule:evenodd;stroke:#FF7F7F;stroke-width:1.0px;stroke-linecap:butt;stroke-linejoin:miter;stroke-opacity:1"/>
<ellipse cx="192.7" cy="146.2" rx="0.5" ry="0.5" class="atom-8" style="fill:#FF7F7F;fill-rule:evenodd;stroke:#FF7F7F;stroke-width:1.0px;stroke-linecap:butt;stroke-linejoin:miter;stroke-opacity:1"/>
<ellipse cx="141.5" cy="143.2" rx="0.5" ry="0.5" class="atom-9" style="fill:#7F7FFF;fill-rule:evenodd;stroke:#7F7FFF;stroke-width:1.0px;stroke-linecap:butt;stroke-linejoin:miter;stroke-opacity:1"/>
<ellipse cx="139.7" cy="172.7" rx="1.2" ry="1.2" class="atom-10" style="fill:#FF7F7F;fill-rule:evenodd;stroke:#FF7F7F;stroke-width:1.0px;stroke-linecap:butt;stroke-linejoin:miter;stroke-opacity:1"/>
<ellipse cx="196.2" cy="87.0" rx="9.4" ry="9.4" class="atom-11" style="fill:#7F7FFF;fill-rule:evenodd;stroke:#7F7FFF;stroke-width:1.0px;stroke-linecap:butt;stroke-linejoin:miter;stroke-opacity:1"/>
<ellipse cx="197.9" cy="57.5" rx="8.0" ry="8.0" class="atom-12" style="fill:#7F7FFF;fill-rule:evenodd;stroke:#7F7FFF;stroke-width:1.0px;stroke-linecap:butt;stroke-linejoin:miter;stroke-opacity:1"/>
<ellipse cx="173.2" cy="41.2" rx="0.4" ry="0.4" class="atom-13" style="fill:#7F7FFF;fill-rule:evenodd;stroke:#7F7FFF;stroke-width:1.0px;stroke-linecap:butt;stroke-linejoin:miter;stroke-opacity:1"/>
<ellipse cx="174.9" cy="11.6" rx="2.2" ry="2.2" class="atom-14" style="fill:#7F7FFF;fill-rule:evenodd;stroke:#7F7FFF;stroke-width:1.0px;stroke-linecap:butt;stroke-linejoin:miter;stroke-opacity:1"/>
<ellipse cx="224.4" cy="44.2" rx="2.6" ry="2.6" class="atom-15" style="fill:#7F7FFF;fill-rule:evenodd;stroke:#7F7FFF;stroke-width:1.0px;stroke-linecap:butt;stroke-linejoin:miter;stroke-opacity:1"/>
<ellipse cx="249.2" cy="60.5" rx="7.1" ry="7.1" class="atom-16" style="fill:#7F7FFF;fill-rule:evenodd;stroke:#7F7FFF;stroke-width:1.0px;stroke-linecap:butt;stroke-linejoin:miter;stroke-opacity:1"/>
<ellipse cx="247.4" cy="90.1" rx="2.6" ry="2.6" class="atom-17" style="fill:#7F7FFF;fill-rule:evenodd;stroke:#7F7FFF;stroke-width:1.0px;stroke-linecap:butt;stroke-linejoin:miter;stroke-opacity:1"/>
<ellipse cx="220.9" cy="103.3" rx="8.0" ry="8.0" class="atom-18" style="fill:#7F7FFF;fill-rule:evenodd;stroke:#7F7FFF;stroke-width:1.0px;stroke-linecap:butt;stroke-linejoin:miter;stroke-opacity:1"/>
<ellipse cx="219.2" cy="132.9" rx="0.4" ry="0.4" class="atom-19" style="fill:#7F7FFF;fill-rule:evenodd;stroke:#7F7FFF;stroke-width:1.0px;stroke-linecap:butt;stroke-linejoin:miter;stroke-opacity:1"/>
<ellipse cx="243.9" cy="149.2" rx="2.2" ry="2.2" class="atom-20" style="fill:#7F7FFF;fill-rule:evenodd;stroke:#7F7FFF;stroke-width:1.0px;stroke-linecap:butt;stroke-linejoin:miter;stroke-opacity:1"/>
<path class="bond-0 atom-0 atom-1" d="M 16.0,91.2 L 42.5,77.9" style="fill:none;fill-rule:evenodd;stroke:#000000;stroke-width:2.0px;stroke-linecap:butt;stroke-linejoin:miter;stroke-opacity:1"/>
<path class="bond-1 atom-1 atom-2" d="M 42.5,77.9 L 67.2,94.3" style="fill:none;fill-rule:evenodd;stroke:#000000;stroke-width:2.0px;stroke-linecap:butt;stroke-linejoin:miter;stroke-opacity:1"/>
<path class="bond-2 atom-2 atom-3" d="M 67.2,94.3 L 93.7,81.0" style="fill:none;fill-rule:evenodd;stroke:#000000;stroke-width:2.0px;stroke-linecap:butt;stroke-linejoin:miter;stroke-opacity:1"/>
<path class="bond-3 atom-3 atom-4" d="M 93.7,81.0 L 113.6,94.1" style="fill:none;fill-rule:evenodd;stroke:#000000;stroke-width:2.0px;stroke-linecap:butt;stroke-linejoin:miter;stroke-opacity:1"/>
<path class="bond-4 atom-4 atom-5" d="M 123.3,94.9 L 145.0,84.0" style="fill:none;fill-rule:evenodd;stroke:#000000;stroke-width:2.0px;stroke-linecap:butt;stroke-linejoin:miter;stroke-opacity:1"/>
<path class="bond-5 atom-5 atom-6" d="M 145.0,84.0 L 165.5,97.6" style="fill:none;fill-rule:evenodd;stroke:#000000;stroke-width:2.0px;stroke-linecap:butt;stroke-linejoin:miter;stroke-opacity:1"/>
<path class="bond-6 atom-6 atom-7" d="M 169.4,105.5 L 167.9,129.9" style="fill:none;fill-rule:evenodd;stroke:#000000;stroke-width:2.0px;stroke-linecap:butt;stroke-linejoin:miter;stroke-opacity:1"/>
<path class="bond-7 atom-7 atom-8" d="M 165.7,131.0 L 186.6,144.9" style="fill:none;fill-rule:evenodd;stroke:#000000;stroke-width:2.0px;stroke-linecap:butt;stroke-linejoin:miter;stroke-opacity:1"/>
<path class="bond-7 atom-7 atom-8" d="M 168.1,127.3 L 189.1,141.2" style="fill:none;fill-rule:evenodd;stroke:#000000;stroke-width:2.0px;stroke-linecap:butt;stroke-linejoin:miter;stroke-opacity:1"/>
<path class="bond-8 atom-7 atom-9" d="M 167.9,129.9 L 141.5,143.2" style="fill:none;fill-rule:evenodd;stroke:#000000;stroke-width:2.0px;stroke-linecap:butt;stroke-linejoin:miter;stroke-opacity:1"/>
<path class="bond-9 atom-9 atom-10" d="M 141.5,143.2 L 140.0,167.8" style="fill:none;fill-rule:evenodd;stroke:#000000;stroke-width:2.0px;stroke-linecap:butt;stroke-linejoin:miter;stroke-opacity:1"/>
<path class="bond-10 atom-6 atom-11" d="M 173.9,98.2 L 196.2,87.0" style="fill:none;fill-rule:evenodd;stroke:#000000;stroke-width:2.0px;stroke-linecap:butt;stroke-linejoin:miter;stroke-opacity:1"/>
<path class="bond-11 atom-11 atom-12" d="M 196.2,87.0 L 197.9,57.5" style="fill:none;fill-rule:evenodd;stroke:#000000;stroke-width:2.0px;stroke-linecap:butt;stroke-linejoin:miter;stroke-opacity:1"/>
<path class="bond-11 atom-11 atom-12" d="M 200.8,84.7 L 202.2,60.3" style="fill:none;fill-rule:evenodd;stroke:#000000;stroke-width:2.0px;stroke-linecap:butt;stroke-linejoin:miter;stroke-opacity:1"/>
<path class="bond-12 atom-12 atom-13" d="M 197.9,57.5 L 173.2,41.2" style="fill:none;fill-rule:evenodd;stroke:#000000;stroke-width:2.0px;stroke-linecap:butt;stroke-linejoin:miter;stroke-opacity:1"/>
<path class="bond-13 atom-13 atom-14" d="M 173.2,41.2 L 174.9,11.6" style="fill:none;fill-rule:evenodd;stroke:#000000;stroke-width:2.0px;stroke-linecap:butt;stroke-linejoin:miter;stroke-opacity:1"/>
<path class="bond-14 atom-12 atom-15" d="M 197.9,57.5 L 224.4,44.2" style="fill:none;fill-rule:evenodd;stroke:#000000;stroke-width:2.0px;stroke-linecap:butt;stroke-linejoin:miter;stroke-opacity:1"/>
<path class="bond-15 atom-15 atom-16" d="M 224.4,44.2 L 249.2,60.5" style="fill:none;fill-rule:evenodd;stroke:#000000;stroke-width:2.0px;stroke-linecap:butt;stroke-linejoin:miter;stroke-opacity:1"/>
<path class="bond-15 atom-15 atom-16" d="M 224.1,49.3 L 244.6,62.8" style="fill:none;fill-rule:evenodd;stroke:#000000;stroke-width:2.0px;stroke-linecap:butt;stroke-linejoin:miter;stroke-opacity:1"/>
<path class="bond-16 atom-16 atom-17" d="M 249.2,60.5 L 247.4,90.1" style="fill:none;fill-rule:evenodd;stroke:#000000;stroke-width:2.0px;stroke-linecap:butt;stroke-linejoin:miter;stroke-opacity:1"/>
<path class="bond-17 atom-17 atom-18" d="M 247.4,90.1 L 220.9,103.3" style="fill:none;fill-rule:evenodd;stroke:#000000;stroke-width:2.0px;stroke-linecap:butt;stroke-linejoin:miter;stroke-opacity:1"/>
<path class="bond-17 atom-17 atom-18" d="M 243.1,87.3 L 221.2,98.2" style="fill:none;fill-rule:evenodd;stroke:#000000;stroke-width:2.0px;stroke-linecap:butt;stroke-linejoin:miter;stroke-opacity:1"/>
<path class="bond-18 atom-18 atom-19" d="M 220.9,103.3 L 219.2,132.9" style="fill:none;fill-rule:evenodd;stroke:#000000;stroke-width:2.0px;stroke-linecap:butt;stroke-linejoin:miter;stroke-opacity:1"/>
<path class="bond-19 atom-19 atom-20" d="M 219.2,132.9 L 243.9,149.2" style="fill:none;fill-rule:evenodd;stroke:#000000;stroke-width:2.0px;stroke-linecap:butt;stroke-linejoin:miter;stroke-opacity:1"/>
<path class="bond-20 atom-18 atom-11" d="M 220.9,103.3 L 196.2,87.0" style="fill:none;fill-rule:evenodd;stroke:#000000;stroke-width:2.0px;stroke-linecap:butt;stroke-linejoin:miter;stroke-opacity:1"/>
<path d="M 41.2,78.6 L 42.5,77.9 L 43.7,78.8" style="fill:none;stroke:#000000;stroke-width:2.0px;stroke-linecap:butt;stroke-linejoin:miter;stroke-miterlimit:10;stroke-opacity:1;"/>
<path d="M 66.0,93.4 L 67.2,94.3 L 68.6,93.6" style="fill:none;stroke:#000000;stroke-width:2.0px;stroke-linecap:butt;stroke-linejoin:miter;stroke-miterlimit:10;stroke-opacity:1;"/>
<path d="M 92.4,81.6 L 93.7,81.0 L 94.7,81.6" style="fill:none;stroke:#000000;stroke-width:2.0px;stroke-linecap:butt;stroke-linejoin:miter;stroke-miterlimit:10;stroke-opacity:1;"/>
<path d="M 143.9,84.6 L 145.0,84.0 L 146.0,84.7" style="fill:none;stroke:#000000;stroke-width:2.0px;stroke-linecap:butt;stroke-linejoin:miter;stroke-miterlimit:10;stroke-opacity:1;"/>
<path d="M 168.0,128.7 L 167.9,129.9 L 166.6,130.6" style="fill:none;stroke:#000000;stroke-width:2.0px;stroke-linecap:butt;stroke-linejoin:miter;stroke-miterlimit:10;stroke-opacity:1;"/>
<path d="M 142.8,142.5 L 141.5,143.2 L 141.4,144.4" style="fill:none;stroke:#000000;stroke-width:2.0px;stroke-linecap:butt;stroke-linejoin:miter;stroke-miterlimit:10;stroke-opacity:1;"/>
<path d="M 174.4,42.0 L 173.2,41.2 L 173.3,39.7" style="fill:none;stroke:#000000;stroke-width:2.0px;stroke-linecap:butt;stroke-linejoin:miter;stroke-miterlimit:10;stroke-opacity:1;"/>
<path d="M 223.1,44.9 L 224.4,44.2 L 225.7,45.0" style="fill:none;stroke:#000000;stroke-width:2.0px;stroke-linecap:butt;stroke-linejoin:miter;stroke-miterlimit:10;stroke-opacity:1;"/>
<path d="M 247.9,59.7 L 249.2,60.5 L 249.1,62.0" style="fill:none;stroke:#000000;stroke-width:2.0px;stroke-linecap:butt;stroke-linejoin:miter;stroke-miterlimit:10;stroke-opacity:1;"/>
<path d="M 247.5,88.6 L 247.4,90.1 L 246.1,90.7" style="fill:none;stroke:#000000;stroke-width:2.0px;stroke-linecap:butt;stroke-linejoin:miter;stroke-miterlimit:10;stroke-opacity:1;"/>
<path d="M 219.3,131.4 L 219.2,132.9 L 220.4,133.7" style="fill:none;stroke:#000000;stroke-width:2.0px;stroke-linecap:butt;stroke-linejoin:miter;stroke-miterlimit:10;stroke-opacity:1;"/>
<path class="atom-4" d="M 114.6 97.3 Q 114.6 95.3, 115.6 94.2 Q 116.6 93.0, 118.5 93.0 Q 120.3 93.0, 121.3 94.2 Q 122.3 95.3, 122.3 97.3 Q 122.3 99.3, 121.3 100.5 Q 120.3 101.7, 118.5 101.7 Q 116.6 101.7, 115.6 100.5 Q 114.6 99.4, 114.6 97.3 M 118.5 100.7 Q 119.7 100.7, 120.4 99.9 Q 121.1 99.0, 121.1 97.3 Q 121.1 95.7, 120.4 94.8 Q 119.7 94.0, 118.5 94.0 Q 117.2 94.0, 116.5 94.8 Q 115.8 95.6, 115.8 97.3 Q 115.8 99.0, 116.5 99.9 Q 117.2 100.7, 118.5 100.7 " fill="#000000"/>
<path class="atom-6" d="M 167.8 96.1 L 170.6 100.6 Q 170.9 101.0, 171.3 101.8 Q 171.7 102.6, 171.8 102.6 L 171.8 96.1 L 172.9 96.1 L 172.9 104.5 L 171.7 104.5 L 168.8 99.7 Q 168.4 99.1, 168.1 98.4 Q 167.7 97.8, 167.6 97.6 L 167.6 104.5 L 166.5 104.5 L 166.5 96.1 L 167.8 96.1 " fill="#000000"/>
<path class="atom-8" d="M 188.8 146.2 Q 188.8 144.2, 189.8 143.1 Q 190.8 142.0, 192.7 142.0 Q 194.5 142.0, 195.5 143.1 Q 196.5 144.2, 196.5 146.2 Q 196.5 148.3, 195.5 149.4 Q 194.5 150.6, 192.7 150.6 Q 190.8 150.6, 189.8 149.4 Q 188.8 148.3, 188.8 146.2 M 192.7 149.6 Q 194.0 149.6, 194.7 148.8 Q 195.4 147.9, 195.4 146.2 Q 195.4 144.6, 194.7 143.7 Q 194.0 142.9, 192.7 142.9 Q 191.4 142.9, 190.7 143.7 Q 190.0 144.6, 190.0 146.2 Q 190.0 147.9, 190.7 148.8 Q 191.4 149.6, 192.7 149.6 " fill="#000000"/>
<path class="atom-10" d="M 136.5 173.0 Q 136.5 170.9, 137.4 169.9 Q 138.4 168.8, 140.3 168.8 Q 142.0 168.8, 142.9 170.0 L 142.2 170.6 Q 141.5 169.7, 140.3 169.7 Q 139.0 169.7, 138.3 170.6 Q 137.7 171.4, 137.7 173.0 Q 137.7 174.7, 138.4 175.5 Q 139.1 176.4, 140.4 176.4 Q 141.3 176.4, 142.4 175.8 L 142.7 176.7 Q 142.3 177.0, 141.6 177.2 Q 141.0 177.3, 140.2 177.3 Q 138.4 177.3, 137.4 176.2 Q 136.5 175.1, 136.5 173.0 " fill="#000000"/>
<path class="atom-10" d="M 143.8 168.2 L 144.9 168.2 L 144.9 177.2 L 143.8 177.2 L 143.8 168.2 " fill="#000000"/>
</svg>