<svg xmlns="http://www.w3.org/2000/svg" xmlns:rdkit="http://www.rdkit.org/xml" xmlns:xlink="http://www.w3.org/1999/xlink" version="1.1" baseProfile="full" xml:space="preserve" width="274px" height="186px" viewBox="0 0 274 186">
<!-- END OF HEADER -->
<rect style="opacity:1.0;fill:#FFFFFF;stroke:none" width="274.0" height="186.0" x="0.0" y="0.0"> </rect>
<ellipse cx="15.8" cy="62.3" rx="1.8" ry="1.8" class="atom-0" style="fill:#FF7F7F;fill-rule:evenodd;stroke:#FF7F7F;stroke-width:1.0px;stroke-linecap:butt;stroke-linejoin:miter;stroke-opacity:1"/>
<ellipse cx="35.8" cy="84.0" rx="0.0" ry="0.0" class="atom-1" style="fill:#7F7FFF;fill-rule:evenodd;stroke:#7F7FFF;stroke-width:1.0px;stroke-linecap:butt;stroke-linejoin:miter;stroke-opacity:1"/>
<ellipse cx="64.7" cy="77.6" rx="8.1" ry="8.1" class="atom-2" style="fill:#7F7FFF;fill-rule:evenodd;stroke:#7F7FFF;stroke-width:1.0px;stroke-linecap:butt;stroke-linejoin:miter;stroke-opacity:1"/>
<ellipse cx="84.6" cy="99.4" rx="16.8" ry="16.8" class="atom-3" style="fill:#7F7FFF;fill-rule:evenodd;stroke:#7F7FFF;stroke-width:1.0px;stroke-linecap:butt;stroke-linejoin:miter;stroke-opacity:1"/>
<ellipse cx="113.5" cy="93.0" rx="1.2" ry="1.2" class="atom-4" style="fill:#7F7FFF;fill-rule:evenodd;stroke:#7F7FFF;stroke-width:1.0px;stroke-linecap:butt;stroke-linejoin:miter;stroke-opacity:1"/>
<ellipse cx="133.4" cy="114.8" rx="0.3" ry="0.3" class="atom-5" style="fill:#FF7F7F;fill-rule:evenodd;stroke:#FF7F7F;stroke-width:1.0px;stroke-linecap:butt;stroke-linejoin:miter;stroke-opacity:1"/>
<ellipse cx="162.3" cy="108.4" rx="7.2" ry="7.2" class="atom-6" style="fill:#7F7FFF;fill-rule:evenodd;stroke:#7F7FFF;stroke-width:1.0px;stroke-linecap:butt;stroke-linejoin:miter;stroke-opacity:1"/>
<ellipse cx="171.1" cy="80.2" rx="0.5" ry="0.5" class="atom-7" style="fill:#7F7FFF;fill-rule:evenodd;stroke:#7F7FFF;stroke-width:1.0px;stroke-linecap:butt;stroke-linejoin:miter;stroke-opacity:1"/>
<ellipse cx="200.0" cy="73.8" rx="5.4" ry="5.4" class="atom-8" style="fill:#7F7FFF;fill-rule:evenodd;stroke:#7F7FFF;stroke-width:1.0px;stroke-linecap:butt;stroke-linejoin:miter;stroke-opacity:1"/>
<ellipse cx="208.8" cy="45.6" rx="1.0" ry="1.0" class="atom-9" style="fill:#FF7F7F;fill-rule:evenodd;stroke:#FF7F7F;stroke-width:1.0px;stroke-linecap:butt;stroke-linejoin:miter;stroke-opacity:1"/>
<ellipse cx="237.7" cy="39.2" rx="8.2" ry="8.2" class="atom-10" style="fill:#7F7FFF;fill-rule:evenodd;stroke:#7F7FFF;stroke-width:1.0px;stroke-linecap:butt;stroke-linejoin:miter;stroke-opacity:1"/>
<ellipse cx="246.5" cy="11.0" rx="1.7" ry="1.7" class="atom-11" style="fill:#7F7FFF;fill-rule:evenodd;stroke:#7F7FFF;stroke-width:1.0px;stroke-linecap:butt;stroke-linejoin:miter;stroke-opacity:1"/>
<ellipse cx="257.6" cy="60.9" rx="1.7" ry="1.7" class="atom-12" style="fill:#7F7FFF;fill-rule:evenodd;stroke:#7F7FFF;stroke-width:1.0px;stroke-linecap:butt;stroke-linejoin:miter;stroke-opacity:1"/>
<ellipse cx="219.9" cy="95.5" rx="0.6" ry="0.6" class="atom-13" style="fill:#7F7FFF;fill-rule:evenodd;stroke:#7F7FFF;stroke-width:1.0px;stroke-linecap:butt;stroke-linejoin:miter;stroke-opacity:1"/>
<ellipse cx="211.1" cy="123.7" rx="6.1" ry="6.1" class="atom-14" style="fill:#7F7FFF;fill-rule:evenodd;stroke:#7F7FFF;stroke-width:1.0px;stroke-linecap:butt;stroke-linejoin:miter;stroke-opacity:1"/>
<ellipse cx="231.0" cy="145.5" rx="6.7" ry="6.7" class="atom-15" style="fill:#7F7FFF;fill-rule:evenodd;stroke:#7F7FFF;stroke-width:1.0px;stroke-linecap:butt;stroke-linejoin:miter;stroke-opacity:1"/>
<ellipse cx="222.2" cy="173.7" rx="2.6" ry="2.6" class="atom-16" style="fill:#FF7F7F;fill-rule:evenodd;stroke:#FF7F7F;stroke-width:1.0px;stroke-linecap:butt;stroke-linejoin:miter;stroke-opacity:1"/>
<ellipse cx="182.2" cy="130.1" rx="0.6" ry="0.6" class="atom-17" style="fill:#7F7FFF;fill-rule:evenodd;stroke:#7F7FFF;stroke-width:1.0px;stroke-linecap:butt;stroke-linejoin:miter;stroke-opacity:1"/>
<path class="bond-0 atom-0 atom-1" d="M 15.8,62.3 L 31.0,78.8" style="fill:none;fill-rule:evenodd;stroke:#000000;stroke-width:2.0px;stroke-linecap:butt;stroke-linejoin:miter;stroke-opacity:1"/>
<path class="bond-1 atom-1 atom-2" d="M 40.6,83.0 L 64.7,77.6" style="fill:none;fill-rule:evenodd;stroke:#000000;stroke-width:2.0px;stroke-linecap:butt;stroke-linejoin:miter;stroke-opacity:1"/>
<path class="bond-2 atom-2 atom-3" d="M 64.7,77.6 L 84.6,99.4" style="fill:none;fill-rule:evenodd;stroke:#000000;stroke-width:2.0px;stroke-linecap:butt;stroke-linejoin:miter;stroke-opacity:1"/>
<path class="bond-3 atom-3 atom-4" d="M 84.6,99.4 L 113.5,93.0" style="fill:none;fill-rule:evenodd;stroke:#000000;stroke-width:2.0px;stroke-linecap:butt;stroke-linejoin:miter;stroke-opacity:1"/>
<path class="bond-4 atom-4 atom-5" d="M 113.5,93.0 L 129.3,110.2" style="fill:none;fill-rule:evenodd;stroke:#000000;stroke-width:2.0px;stroke-linecap:butt;stroke-linejoin:miter;stroke-opacity:1"/>
<path class="bond-5 atom-5 atom-6" d="M 137.6,113.8 L 162.3,108.4" style="fill:none;fill-rule:evenodd;stroke:#000000;stroke-width:2.0px;stroke-linecap:butt;stroke-linejoin:miter;stroke-opacity:1"/>
<path class="bond-6 atom-6 atom-7" d="M 162.3,108.4 L 169.5,85.3" style="fill:none;fill-rule:evenodd;stroke:#000000;stroke-width:2.0px;stroke-linecap:butt;stroke-linejoin:miter;stroke-opacity:1"/>
<path class="bond-6 atom-6 atom-7" d="M 167.3,107.2 L 173.7,86.7" style="fill:none;fill-rule:evenodd;stroke:#000000;stroke-width:2.0px;stroke-linecap:butt;stroke-linejoin:miter;stroke-opacity:1"/>
<path class="bond-7 atom-7 atom-8" d="M 175.3,79.3 L 200.0,73.8" style="fill:none;fill-rule:evenodd;stroke:#000000;stroke-width:2.0px;stroke-linecap:butt;stroke-linejoin:miter;stroke-opacity:1"/>
<path class="bond-8 atom-8 atom-9" d="M 200.0,73.8 L 207.2,50.7" style="fill:none;fill-rule:evenodd;stroke:#000000;stroke-width:2.0px;stroke-linecap:butt;stroke-linejoin:miter;stroke-opacity:1"/>
<path class="bond-9 atom-9 atom-10" d="M 213.0,44.7 L 237.7,39.2" style="fill:none;fill-rule:evenodd;stroke:#000000;stroke-width:2.0px;stroke-linecap:butt;stroke-linejoin:miter;stroke-opacity:1"/>
<path class="bond-10 atom-10 atom-11" d="M 237.7,39.2 L 246.5,11.0" style="fill:none;fill-rule:evenodd;stroke:#000000;stroke-width:2.0px;stroke-linecap:butt;stroke-linejoin:miter;stroke-opacity:1"/>
<path class="bond-11 atom-10 atom-12" d="M 237.7,39.2 L 257.6,60.9" style="fill:none;fill-rule:evenodd;stroke:#000000;stroke-width:2.0px;stroke-linecap:butt;stroke-linejoin:miter;stroke-opacity:1"/>
<path class="bond-12 atom-8 atom-13" d="M 200.0,73.8 L 215.8,91.0" style="fill:none;fill-rule:evenodd;stroke:#000000;stroke-width:2.0px;stroke-linecap:butt;stroke-linejoin:miter;stroke-opacity:1"/>
<path class="bond-12 atom-8 atom-13" d="M 198.4,78.6 L 212.5,94.0" style="fill:none;fill-rule:evenodd;stroke:#000000;stroke-width:2.0px;stroke-linecap:butt;stroke-linejoin:miter;stroke-opacity:1"/>
<path class="bond-13 atom-13 atom-14" d="M 218.3,100.7 L 211.1,123.7" style="fill:none;fill-rule:evenodd;stroke:#000000;stroke-width:2.0px;stroke-linecap:butt;stroke-linejoin:miter;stroke-opacity:1"/>
<path class="bond-14 atom-14 atom-15" d="M 211.1,123.7 L 227.4,141.5" style="fill:none;fill-rule:evenodd;stroke:#000000;stroke-width:2.0px;stroke-linecap:butt;stroke-linejoin:miter;stroke-opacity:1"/>
<path class="bond-15 atom-15 atom-16" d="M 229.4,150.9 L 222.2,173.7" style="fill:none;fill-rule:evenodd;stroke:#000000;stroke-width:2.0px;stroke-linecap:butt;stroke-linejoin:miter;stroke-opacity:1"/>
<path class="bond-16 atom-14 atom-17" d="M 211.1,123.7 L 186.4,129.2" style="fill:none;fill-rule:evenodd;stroke:#000000;stroke-width:2.0px;stroke-linecap:butt;stroke-linejoin:miter;stroke-opacity:1"/>
<path class="bond-16 atom-14 atom-17" d="M 207.6,119.9 L 185.4,124.9" style="fill:none;fill-rule:evenodd;stroke:#000000;stroke-width:2.0px;stroke-linecap:butt;stroke-linejoin:miter;stroke-opacity:1"/>
<path class="bond-17 atom-17 atom-6" d="M 178.1,125.6 L 162.3,108.4" style="fill:none;fill-rule:evenodd;stroke:#000000;stroke-width:2.0px;stroke-linecap:butt;stroke-linejoin:miter;stroke-opacity:1"/>
<path d="M 63.5,77.9 L 64.7,77.6 L 65.7,78.7" style="fill:none;stroke:#000000;stroke-width:2.0px;stroke-linecap:butt;stroke-linejoin:miter;stroke-miterlimit:10;stroke-opacity:1;"/>
<path d="M 83.6,98.3 L 84.6,99.4 L 86.1,99.1" style="fill:none;stroke:#000000;stroke-width:2.0px;stroke-linecap:butt;stroke-linejoin:miter;stroke-miterlimit:10;stroke-opacity:1;"/>
<path d="M 112.0,93.3 L 113.5,93.0 L 114.2,93.9" style="fill:none;stroke:#000000;stroke-width:2.0px;stroke-linecap:butt;stroke-linejoin:miter;stroke-miterlimit:10;stroke-opacity:1;"/>
<path class="atom-1" d="M 32.0 84.1 Q 32.0 82.1, 33.0 80.9 Q 34.0 79.8, 35.8 79.8 Q 37.7 79.8, 38.7 80.9 Q 39.7 82.1, 39.7 84.1 Q 39.7 86.1, 38.7 87.3 Q 37.6 88.4, 35.8 88.4 Q 34.0 88.4, 33.0 87.3 Q 32.0 86.1, 32.0 84.1 M 35.8 87.5 Q 37.1 87.5, 37.8 86.6 Q 38.5 85.7, 38.5 84.1 Q 38.5 82.4, 37.8 81.6 Q 37.1 80.8, 35.8 80.8 Q 34.5 80.8, 33.8 81.6 Q 33.2 82.4, 33.2 84.1 Q 33.2 85.8, 33.8 86.6 Q 34.5 87.5, 35.8 87.5 " fill="#000000"/>
<path class="atom-5" d="M 131.6 110.6 L 134.3 115.0 Q 134.6 115.4, 135.0 116.2 Q 135.5 117.0, 135.5 117.1 L 135.5 110.6 L 136.6 110.6 L 136.6 118.9 L 135.5 118.9 L 132.5 114.1 Q 132.2 113.5, 131.8 112.9 Q 131.4 112.2, 131.3 112.0 L 131.3 118.9 L 130.3 118.9 L 130.3 110.6 L 131.6 110.6 " fill="#000000"/>
<path class="atom-5" d="M 130.2 119.8 L 131.3 119.8 L 131.3 123.3 L 135.6 123.3 L 135.6 119.8 L 136.7 119.8 L 136.7 128.1 L 135.6 128.1 L 135.6 124.3 L 131.3 124.3 L 131.3 128.1 L 130.2 128.1 L 130.2 119.8 " fill="#000000"/>
<path class="atom-7" d="M 169.3 76.0 L 172.0 80.4 Q 172.3 80.9, 172.7 81.7 Q 173.2 82.4, 173.2 82.5 L 173.2 76.0 L 174.3 76.0 L 174.3 84.4 L 173.2 84.4 L 170.2 79.5 Q 169.9 78.9, 169.5 78.3 Q 169.2 77.6, 169.0 77.4 L 169.0 84.4 L 168.0 84.4 L 168.0 76.0 L 169.3 76.0 " fill="#000000"/>
<path class="atom-9" d="M 197.5 41.4 L 198.6 41.4 L 198.6 45.0 L 202.9 45.0 L 202.9 41.4 L 204.0 41.4 L 204.0 49.8 L 202.9 49.8 L 202.9 45.9 L 198.6 45.9 L 198.6 49.8 L 197.5 49.8 L 197.5 41.4 " fill="#000000"/>
<path class="atom-9" d="M 207.0 41.4 L 209.7 45.8 Q 210.0 46.3, 210.4 47.1 Q 210.9 47.9, 210.9 47.9 L 210.9 41.4 L 212.0 41.4 L 212.0 49.8 L 210.9 49.8 L 207.9 44.9 Q 207.6 44.4, 207.2 43.7 Q 206.9 43.1, 206.8 42.9 L 206.8 49.8 L 205.7 49.8 L 205.7 41.4 L 207.0 41.4 " fill="#000000"/>
<path class="atom-13" d="M 218.1 91.4 L 220.8 95.8 Q 221.1 96.2, 221.5 97.0 Q 222.0 97.8, 222.0 97.8 L 222.0 91.4 L 223.1 91.4 L 223.1 99.7 L 222.0 99.7 L 219.0 94.9 Q 218.7 94.3, 218.3 93.7 Q 218.0 93.0, 217.9 92.8 L 217.9 99.7 L 216.8 99.7 L 216.8 91.4 L 218.1 91.4 " fill="#000000"/>
<path class="atom-15" d="M 228.7 148.4 Q 228.8 148.4, 229.2 148.6 Q 229.6 148.7, 230.0 148.8 Q 230.4 148.9, 230.8 148.9 Q 231.6 148.9, 232.1 148.5 Q 232.6 148.2, 232.6 147.5 Q 232.6 147.0, 232.3 146.7 Q 232.1 146.5, 231.7 146.3 Q 231.4 146.1, 230.8 146.0 Q 230.0 145.7, 229.6 145.5 Q 229.2 145.3, 228.8 144.9 Q 228.5 144.4, 228.5 143.7 Q 228.5 142.6, 229.2 142.0 Q 230.0 141.3, 231.4 141.3 Q 232.4 141.3, 233.5 141.8 L 233.2 142.7 Q 232.2 142.3, 231.4 142.3 Q 230.6 142.3, 230.2 142.6 Q 229.7 142.9, 229.7 143.5 Q 229.7 144.0, 229.9 144.2 Q 230.2 144.5, 230.5 144.7 Q 230.9 144.8, 231.4 145.0 Q 232.2 145.2, 232.6 145.5 Q 233.1 145.7, 233.4 146.2 Q 233.7 146.7, 233.7 147.5 Q 233.7 148.6, 232.9 149.3 Q 232.2 149.9, 230.9 149.9 Q 230.1 149.9, 229.6 149.7 Q 229.0 149.6, 228.4 149.3 L 228.7 148.4 " fill="#000000"/>
<path class="atom-17" d="M 180.4 125.9 L 183.1 130.4 Q 183.4 130.8, 183.8 131.6 Q 184.3 132.4, 184.3 132.4 L 184.3 125.9 L 185.4 125.9 L 185.4 134.3 L 184.3 134.3 L 181.3 129.5 Q 181.0 128.9, 180.6 128.2 Q 180.3 127.6, 180.1 127.4 L 180.1 134.3 L 179.1 134.3 L 179.1 125.9 L 180.4 125.9 " fill="#000000"/>
</svg>