<svg xmlns="http://www.w3.org/2000/svg" xmlns:rdkit="http://www.rdkit.org/xml" xmlns:xlink="http://www.w3.org/1999/xlink" version="1.1" baseProfile="full" xml:space="preserve" width="190px" height="149px" viewBox="0 0 190 149">
<!-- END OF HEADER -->
<rect style="opacity:1.0;fill:#FFFFFF;stroke:none" width="190.0" height="149.0" x="0.0" y="0.0"> </rect>
<ellipse cx="10.5" cy="123.8" rx="0.8" ry="0.8" class="atom-0" style="fill:#FF7F7F;fill-rule:evenodd;stroke:#FF7F7F;stroke-width:1.0px;stroke-linecap:butt;stroke-linejoin:miter;stroke-opacity:1"/>
<ellipse cx="40.0" cy="122.8" rx="0.8" ry="0.8" class="atom-1" style="fill:#FF7F7F;fill-rule:evenodd;stroke:#FF7F7F;stroke-width:1.0px;stroke-linecap:butt;stroke-linejoin:miter;stroke-opacity:1"/>
<ellipse cx="53.9" cy="96.8" rx="2.8" ry="2.8" class="atom-2" style="fill:#FF7F7F;fill-rule:evenodd;stroke:#FF7F7F;stroke-width:1.0px;stroke-linecap:butt;stroke-linejoin:miter;stroke-opacity:1"/>
<ellipse cx="38.2" cy="71.8" rx="2.8" ry="2.8" class="atom-3" style="fill:#FF7F7F;fill-rule:evenodd;stroke:#FF7F7F;stroke-width:1.0px;stroke-linecap:butt;stroke-linejoin:miter;stroke-opacity:1"/>
<ellipse cx="83.3" cy="95.7" rx="0.9" ry="0.9" class="atom-4" style="fill:#7F7FFF;fill-rule:evenodd;stroke:#7F7FFF;stroke-width:1.0px;stroke-linecap:butt;stroke-linejoin:miter;stroke-opacity:1"/>
<ellipse cx="97.2" cy="69.7" rx="10.2" ry="10.2" class="atom-5" style="fill:#7F7FFF;fill-rule:evenodd;stroke:#7F7FFF;stroke-width:1.0px;stroke-linecap:butt;stroke-linejoin:miter;stroke-opacity:1"/>
<ellipse cx="81.6" cy="44.7" rx="10.2" ry="10.2" class="atom-6" style="fill:#7F7FFF;fill-rule:evenodd;stroke:#7F7FFF;stroke-width:1.0px;stroke-linecap:butt;stroke-linejoin:miter;stroke-opacity:1"/>
<ellipse cx="95.4" cy="18.7" rx="10.2" ry="10.2" class="atom-7" style="fill:#7F7FFF;fill-rule:evenodd;stroke:#7F7FFF;stroke-width:1.0px;stroke-linecap:butt;stroke-linejoin:miter;stroke-opacity:1"/>
<ellipse cx="124.9" cy="17.7" rx="10.2" ry="10.2" class="atom-8" style="fill:#7F7FFF;fill-rule:evenodd;stroke:#7F7FFF;stroke-width:1.0px;stroke-linecap:butt;stroke-linejoin:miter;stroke-opacity:1"/>
<ellipse cx="140.5" cy="42.7" rx="10.2" ry="10.2" class="atom-9" style="fill:#7F7FFF;fill-rule:evenodd;stroke:#7F7FFF;stroke-width:1.0px;stroke-linecap:butt;stroke-linejoin:miter;stroke-opacity:1"/>
<ellipse cx="126.6" cy="68.7" rx="10.2" ry="10.2" class="atom-10" style="fill:#7F7FFF;fill-rule:evenodd;stroke:#7F7FFF;stroke-width:1.0px;stroke-linecap:butt;stroke-linejoin:miter;stroke-opacity:1"/>
<ellipse cx="142.3" cy="93.7" rx="1.5" ry="1.5" class="atom-11" style="fill:#7F7FFF;fill-rule:evenodd;stroke:#7F7FFF;stroke-width:1.0px;stroke-linecap:butt;stroke-linejoin:miter;stroke-opacity:1"/>
<ellipse cx="171.7" cy="95.8" rx="1.5" ry="1.5" class="atom-12" style="fill:#7F7FFF;fill-rule:evenodd;stroke:#7F7FFF;stroke-width:1.0px;stroke-linecap:butt;stroke-linejoin:miter;stroke-opacity:1"/>
<ellipse cx="178.8" cy="124.4" rx="1.5" ry="1.5" class="atom-13" style="fill:#7F7FFF;fill-rule:evenodd;stroke:#7F7FFF;stroke-width:1.0px;stroke-linecap:butt;stroke-linejoin:miter;stroke-opacity:1"/>
<ellipse cx="153.8" cy="140.0" rx="1.5" ry="1.5" class="atom-14" style="fill:#7F7FFF;fill-rule:evenodd;stroke:#7F7FFF;stroke-width:1.0px;stroke-linecap:butt;stroke-linejoin:miter;stroke-opacity:1"/>
<ellipse cx="131.2" cy="121.0" rx="1.5" ry="1.5" class="atom-15" style="fill:#7F7FFF;fill-rule:evenodd;stroke:#7F7FFF;stroke-width:1.0px;stroke-linecap:butt;stroke-linejoin:miter;stroke-opacity:1"/>
<path class="bond-0 atom-0 atom-1" d="M 10.5,123.8 L 35.9,122.9" style="fill:none;fill-rule:evenodd;stroke:#000000;stroke-width:2.0px;stroke-linecap:butt;stroke-linejoin:miter;stroke-opacity:1"/>
<path class="bond-1 atom-1 atom-2" d="M 42.7,117.7 L 53.9,96.8" style="fill:none;fill-rule:evenodd;stroke:#000000;stroke-width:2.0px;stroke-linecap:butt;stroke-linejoin:miter;stroke-opacity:1"/>
<path class="bond-2 atom-2 atom-3" d="M 56.4,96.7 L 43.4,75.9" style="fill:none;fill-rule:evenodd;stroke:#000000;stroke-width:2.0px;stroke-linecap:butt;stroke-linejoin:miter;stroke-opacity:1"/>
<path class="bond-2 atom-2 atom-3" d="M 52.7,99.0 L 39.7,78.3" style="fill:none;fill-rule:evenodd;stroke:#000000;stroke-width:2.0px;stroke-linecap:butt;stroke-linejoin:miter;stroke-opacity:1"/>
<path class="bond-3 atom-2 atom-4" d="M 53.9,96.8 L 78.5,95.9" style="fill:none;fill-rule:evenodd;stroke:#000000;stroke-width:2.0px;stroke-linecap:butt;stroke-linejoin:miter;stroke-opacity:1"/>
<path class="bond-4 atom-4 atom-5" d="M 86.1,90.5 L 97.2,69.7" style="fill:none;fill-rule:evenodd;stroke:#000000;stroke-width:2.0px;stroke-linecap:butt;stroke-linejoin:miter;stroke-opacity:1"/>
<path class="bond-5 atom-5 atom-6" d="M 97.2,69.7 L 81.6,44.7" style="fill:none;fill-rule:evenodd;stroke:#000000;stroke-width:2.0px;stroke-linecap:butt;stroke-linejoin:miter;stroke-opacity:1"/>
<path class="bond-5 atom-5 atom-6" d="M 99.6,65.2 L 86.7,44.5" style="fill:none;fill-rule:evenodd;stroke:#000000;stroke-width:2.0px;stroke-linecap:butt;stroke-linejoin:miter;stroke-opacity:1"/>
<path class="bond-6 atom-6 atom-7" d="M 81.6,44.7 L 95.4,18.7" style="fill:none;fill-rule:evenodd;stroke:#000000;stroke-width:2.0px;stroke-linecap:butt;stroke-linejoin:miter;stroke-opacity:1"/>
<path class="bond-7 atom-7 atom-8" d="M 95.4,18.7 L 124.9,17.7" style="fill:none;fill-rule:evenodd;stroke:#000000;stroke-width:2.0px;stroke-linecap:butt;stroke-linejoin:miter;stroke-opacity:1"/>
<path class="bond-7 atom-7 atom-8" d="M 98.1,23.0 L 122.5,22.2" style="fill:none;fill-rule:evenodd;stroke:#000000;stroke-width:2.0px;stroke-linecap:butt;stroke-linejoin:miter;stroke-opacity:1"/>
<path class="bond-8 atom-8 atom-9" d="M 124.9,17.7 L 140.5,42.7" style="fill:none;fill-rule:evenodd;stroke:#000000;stroke-width:2.0px;stroke-linecap:butt;stroke-linejoin:miter;stroke-opacity:1"/>
<path class="bond-9 atom-9 atom-10" d="M 140.5,42.7 L 126.6,68.7" style="fill:none;fill-rule:evenodd;stroke:#000000;stroke-width:2.0px;stroke-linecap:butt;stroke-linejoin:miter;stroke-opacity:1"/>
<path class="bond-9 atom-9 atom-10" d="M 135.4,42.8 L 123.9,64.4" style="fill:none;fill-rule:evenodd;stroke:#000000;stroke-width:2.0px;stroke-linecap:butt;stroke-linejoin:miter;stroke-opacity:1"/>
<path class="bond-10 atom-10 atom-11" d="M 126.6,68.7 L 142.3,93.7" style="fill:none;fill-rule:evenodd;stroke:#000000;stroke-width:2.0px;stroke-linecap:butt;stroke-linejoin:miter;stroke-opacity:1"/>
<path class="bond-11 atom-11 atom-12" d="M 142.3,93.7 L 166.9,95.4" style="fill:none;fill-rule:evenodd;stroke:#000000;stroke-width:2.0px;stroke-linecap:butt;stroke-linejoin:miter;stroke-opacity:1"/>
<path class="bond-12 atom-12 atom-13" d="M 173.0,101.1 L 178.8,124.4" style="fill:none;fill-rule:evenodd;stroke:#000000;stroke-width:2.0px;stroke-linecap:butt;stroke-linejoin:miter;stroke-opacity:1"/>
<path class="bond-13 atom-13 atom-14" d="M 178.8,124.4 L 153.8,140.0" style="fill:none;fill-rule:evenodd;stroke:#000000;stroke-width:2.0px;stroke-linecap:butt;stroke-linejoin:miter;stroke-opacity:1"/>
<path class="bond-14 atom-14 atom-15" d="M 153.8,140.0 L 136.0,125.1" style="fill:none;fill-rule:evenodd;stroke:#000000;stroke-width:2.0px;stroke-linecap:butt;stroke-linejoin:miter;stroke-opacity:1"/>
<path class="bond-15 atom-10 atom-5" d="M 126.6,68.7 L 97.2,69.7" style="fill:none;fill-rule:evenodd;stroke:#000000;stroke-width:2.0px;stroke-linecap:butt;stroke-linejoin:miter;stroke-opacity:1"/>
<path class="bond-16 atom-15 atom-11" d="M 133.3,115.8 L 142.3,93.7" style="fill:none;fill-rule:evenodd;stroke:#000000;stroke-width:2.0px;stroke-linecap:butt;stroke-linejoin:miter;stroke-opacity:1"/>
<path d="M 53.3,97.8 L 53.9,96.8 L 55.1,96.7" style="fill:none;stroke:#000000;stroke-width:2.0px;stroke-linecap:butt;stroke-linejoin:miter;stroke-miterlimit:10;stroke-opacity:1;"/>
<path d="M 82.3,46.0 L 81.6,44.7 L 82.2,43.4" style="fill:none;stroke:#000000;stroke-width:2.0px;stroke-linecap:butt;stroke-linejoin:miter;stroke-miterlimit:10;stroke-opacity:1;"/>
<path d="M 94.7,20.0 L 95.4,18.7 L 96.9,18.6" style="fill:none;stroke:#000000;stroke-width:2.0px;stroke-linecap:butt;stroke-linejoin:miter;stroke-miterlimit:10;stroke-opacity:1;"/>
<path d="M 123.4,17.7 L 124.9,17.7 L 125.6,18.9" style="fill:none;stroke:#000000;stroke-width:2.0px;stroke-linecap:butt;stroke-linejoin:miter;stroke-miterlimit:10;stroke-opacity:1;"/>
<path d="M 139.7,41.4 L 140.5,42.7 L 139.8,44.0" style="fill:none;stroke:#000000;stroke-width:2.0px;stroke-linecap:butt;stroke-linejoin:miter;stroke-miterlimit:10;stroke-opacity:1;"/>
<path d="M 178.5,123.2 L 178.8,124.4 L 177.5,125.2" style="fill:none;stroke:#000000;stroke-width:2.0px;stroke-linecap:butt;stroke-linejoin:miter;stroke-miterlimit:10;stroke-opacity:1;"/>
<path d="M 155.0,139.2 L 153.8,140.0 L 152.9,139.2" style="fill:none;stroke:#000000;stroke-width:2.0px;stroke-linecap:butt;stroke-linejoin:miter;stroke-miterlimit:10;stroke-opacity:1;"/>
<path class="atom-1" d="M 38.2 118.6 L 40.9 123.0 Q 41.2 123.5, 41.6 124.3 Q 42.0 125.1, 42.1 125.1 L 42.1 118.6 L 43.2 118.6 L 43.2 127.0 L 42.0 127.0 L 39.1 122.1 Q 38.8 121.6, 38.4 120.9 Q 38.0 120.3, 37.9 120.1 L 37.9 127.0 L 36.8 127.0 L 36.8 118.6 L 38.2 118.6 " fill="#000000"/>
<path class="atom-1" d="M 44.8 118.6 L 45.9 118.6 L 45.9 122.2 L 50.2 122.2 L 50.2 118.6 L 51.3 118.6 L 51.3 127.0 L 50.2 127.0 L 50.2 123.1 L 45.9 123.1 L 45.9 127.0 L 44.8 127.0 L 44.8 118.6 " fill="#000000"/>
<path class="atom-3" d="M 34.4 71.8 Q 34.4 69.8, 35.4 68.7 Q 36.4 67.5, 38.2 67.5 Q 40.1 67.5, 41.1 68.7 Q 42.1 69.8, 42.1 71.8 Q 42.1 73.8, 41.1 75.0 Q 40.1 76.1, 38.2 76.1 Q 36.4 76.1, 35.4 75.0 Q 34.4 73.8, 34.4 71.8 M 38.2 75.2 Q 39.5 75.2, 40.2 74.3 Q 40.9 73.5, 40.9 71.8 Q 40.9 70.1, 40.2 69.3 Q 39.5 68.5, 38.2 68.5 Q 37.0 68.5, 36.3 69.3 Q 35.6 70.1, 35.6 71.8 Q 35.6 73.5, 36.3 74.3 Q 37.0 75.2, 38.2 75.2 " fill="#000000"/>
<path class="atom-4" d="M 79.5 95.8 Q 79.5 93.8, 80.5 92.6 Q 81.5 91.5, 83.3 91.5 Q 85.2 91.5, 86.2 92.6 Q 87.2 93.8, 87.2 95.8 Q 87.2 97.8, 86.2 99.0 Q 85.2 100.1, 83.3 100.1 Q 81.5 100.1, 80.5 99.0 Q 79.5 97.8, 79.5 95.8 M 83.3 99.2 Q 84.6 99.2, 85.3 98.3 Q 86.0 97.4, 86.0 95.8 Q 86.0 94.1, 85.3 93.3 Q 84.6 92.5, 83.3 92.5 Q 82.0 92.5, 81.4 93.3 Q 80.7 94.1, 80.7 95.8 Q 80.7 97.5, 81.4 98.3 Q 82.0 99.2, 83.3 99.2 " fill="#000000"/>
<path class="atom-12" d="M 167.8 95.8 Q 167.8 93.8, 168.8 92.7 Q 169.8 91.5, 171.7 91.5 Q 173.5 91.5, 174.5 92.7 Q 175.5 93.8, 175.5 95.8 Q 175.5 97.8, 174.5 99.0 Q 173.5 100.1, 171.7 100.1 Q 169.8 100.1, 168.8 99.0 Q 167.8 97.8, 167.8 95.8 M 171.7 99.2 Q 172.9 99.2, 173.6 98.3 Q 174.3 97.5, 174.3 95.8 Q 174.3 94.1, 173.6 93.3 Q 172.9 92.5, 171.7 92.5 Q 170.4 92.5, 169.7 93.3 Q 169.0 94.1, 169.0 95.8 Q 169.0 97.5, 169.7 98.3 Q 170.4 99.2, 171.7 99.2 " fill="#000000"/>
<path class="atom-15" d="M 127.4 121.1 Q 127.4 119.1, 128.4 117.9 Q 129.4 116.8, 131.2 116.8 Q 133.1 116.8, 134.0 117.9 Q 135.0 119.1, 135.0 121.1 Q 135.0 123.1, 134.0 124.2 Q 133.0 125.4, 131.2 125.4 Q 129.4 125.4, 128.4 124.2 Q 127.4 123.1, 127.4 121.1 M 131.2 124.4 Q 132.5 124.4, 133.2 123.6 Q 133.9 122.7, 133.9 121.1 Q 133.9 119.4, 133.2 118.6 Q 132.5 117.8, 131.2 117.8 Q 129.9 117.8, 129.2 118.6 Q 128.6 119.4, 128.6 121.1 Q 128.6 122.7, 129.2 123.6 Q 129.9 124.4, 131.2 124.4 " fill="#000000"/>
</svg>