<svg xmlns="http://www.w3.org/2000/svg" xmlns:rdkit="http://www.rdkit.org/xml" xmlns:xlink="http://www.w3.org/1999/xlink" version="1.1" baseProfile="full" xml:space="preserve" width="272px" height="192px" viewBox="0 0 272 192">
<!-- END OF HEADER -->
<rect style="opacity:1.0;fill:#FFFFFF;stroke:none" width="272.0" height="192.0" x="0.0" y="0.0"> </rect>
<path class="bond-0 atom-0 atom-1" d="M 17.9,91.0 L 44.2,77.8 L 47.9,85.2 L 21.5,98.3 Z" style="fill:#C4C4FF;fill-rule:evenodd;fill-opacity:1;stroke:#C4C4FF;stroke-width:2.0px;stroke-linecap:butt;stroke-linejoin:miter;stroke-miterlimit:10;stroke-opacity:1;"/>
<path class="bond-1 atom-1 atom-2" d="M 48.3,78.0 L 72.9,94.2 L 68.4,101.1 L 43.8,84.9 Z" style="fill:#C4C4FF;fill-rule:evenodd;fill-opacity:1;stroke:#C4C4FF;stroke-width:2.0px;stroke-linecap:butt;stroke-linejoin:miter;stroke-miterlimit:10;stroke-opacity:1;"/>
<path class="bond-2 atom-2 atom-3" d="M 68.8,94.0 L 95.1,80.8 L 98.8,88.2 L 72.5,101.4 Z" style="fill:#C4C4FF;fill-rule:evenodd;fill-opacity:1;stroke:#C4C4FF;stroke-width:2.0px;stroke-linecap:butt;stroke-linejoin:miter;stroke-miterlimit:10;stroke-opacity:1;"/>
<path class="bond-4 atom-4 atom-5" d="M 119.7,97.0 L 146.1,83.8 L 149.7,91.2 L 123.4,104.4 Z" style="fill:#FFD8D8;fill-rule:evenodd;fill-opacity:1;stroke:#FFD8D8;stroke-width:2.0px;stroke-linecap:butt;stroke-linejoin:miter;stroke-miterlimit:10;stroke-opacity:1;"/>
<path class="bond-5 atom-5 atom-6" d="M 150.2,84.1 L 174.8,100.3 L 170.2,107.1 L 145.6,90.9 Z" style="fill:#FFD8D8;fill-rule:evenodd;fill-opacity:1;stroke:#FFD8D8;stroke-width:2.0px;stroke-linecap:butt;stroke-linejoin:miter;stroke-miterlimit:10;stroke-opacity:1;"/>
<path class="bond-7 atom-7 atom-8" d="M 173.0,129.7 L 197.6,145.9 L 193.1,152.8 L 168.5,136.6 Z" style="fill:#FFD6D6;fill-rule:evenodd;fill-opacity:1;stroke:#FFD6D6;stroke-width:2.0px;stroke-linecap:butt;stroke-linejoin:miter;stroke-miterlimit:10;stroke-opacity:1;"/>
<path class="bond-8 atom-7 atom-9" d="M 172.6,136.8 L 146.3,150.0 L 142.6,142.6 L 168.9,129.4 Z" style="fill:#FFD6D6;fill-rule:evenodd;fill-opacity:1;stroke:#FFD6D6;stroke-width:2.0px;stroke-linecap:butt;stroke-linejoin:miter;stroke-miterlimit:10;stroke-opacity:1;"/>
<path class="bond-9 atom-9 atom-10" d="M 148.5,146.5 L 146.8,176.0 L 138.6,175.5 L 140.3,146.1 Z" style="fill:#FFD6D6;fill-rule:evenodd;fill-opacity:1;stroke:#FFD6D6;stroke-width:2.0px;stroke-linecap:butt;stroke-linejoin:miter;stroke-miterlimit:10;stroke-opacity:1;"/>
<path class="bond-11 atom-11 atom-12" d="M 194.7,90.3 L 196.5,60.9 L 204.7,61.3 L 202.9,90.8 Z" style="fill:#5A5AFF;fill-rule:evenodd;fill-opacity:1;stroke:#5A5AFF;stroke-width:2.0px;stroke-linecap:butt;stroke-linejoin:miter;stroke-miterlimit:10;stroke-opacity:1;"/>
<path class="bond-13 atom-13 atom-14" d="M 171.9,44.7 L 173.6,15.2 L 181.8,15.7 L 180.1,45.1 Z" style="fill:#FFFAFA;fill-rule:evenodd;fill-opacity:1;stroke:#FFFAFA;stroke-width:2.0px;stroke-linecap:butt;stroke-linejoin:miter;stroke-miterlimit:10;stroke-opacity:1;"/>
<path class="bond-14 atom-12 atom-15" d="M 198.7,57.4 L 225.1,44.2 L 228.8,51.6 L 202.4,64.8 Z" style="fill:#5A5AFF;fill-rule:evenodd;fill-opacity:1;stroke:#5A5AFF;stroke-width:2.0px;stroke-linecap:butt;stroke-linejoin:miter;stroke-miterlimit:10;stroke-opacity:1;"/>
<path class="bond-15 atom-15 atom-16" d="M 229.2,44.5 L 253.8,60.7 L 249.2,67.6 L 224.6,51.4 Z" style="fill:#5A5AFF;fill-rule:evenodd;fill-opacity:1;stroke:#5A5AFF;stroke-width:2.0px;stroke-linecap:butt;stroke-linejoin:miter;stroke-miterlimit:10;stroke-opacity:1;"/>
<path class="bond-16 atom-16 atom-17" d="M 255.6,64.4 L 253.9,93.8 L 245.6,93.3 L 247.4,63.9 Z" style="fill:#5A5AFF;fill-rule:evenodd;fill-opacity:1;stroke:#5A5AFF;stroke-width:2.0px;stroke-linecap:butt;stroke-linejoin:miter;stroke-miterlimit:10;stroke-opacity:1;"/>
<path class="bond-17 atom-17 atom-18" d="M 251.6,97.2 L 225.3,110.4 L 221.6,103.0 L 247.9,89.8 Z" style="fill:#5A5AFF;fill-rule:evenodd;fill-opacity:1;stroke:#5A5AFF;stroke-width:2.0px;stroke-linecap:butt;stroke-linejoin:miter;stroke-miterlimit:10;stroke-opacity:1;"/>
<path class="bond-19 atom-19 atom-20" d="M 224.0,132.7 L 248.5,148.9 L 244.0,155.8 L 219.4,139.6 Z" style="fill:#FFFAFA;fill-rule:evenodd;fill-opacity:1;stroke:#FFFAFA;stroke-width:2.0px;stroke-linecap:butt;stroke-linejoin:miter;stroke-miterlimit:10;stroke-opacity:1;"/>
<path class="bond-20 atom-18 atom-11" d="M 221.2,110.2 L 196.6,94.0 L 201.1,87.1 L 225.7,103.3 Z" style="fill:#5A5AFF;fill-rule:evenodd;fill-opacity:1;stroke:#5A5AFF;stroke-width:2.0px;stroke-linecap:butt;stroke-linejoin:miter;stroke-miterlimit:10;stroke-opacity:1;"/>
<ellipse cx="19.7" cy="94.7" rx="5.9" ry="5.9" class="atom-0" style="fill:#C4C4FF;fill-rule:evenodd;stroke:#C4C4FF;stroke-width:1.0px;stroke-linecap:butt;stroke-linejoin:miter;stroke-opacity:1"/>
<ellipse cx="46.0" cy="81.5" rx="5.9" ry="5.9" class="atom-1" style="fill:#C4C4FF;fill-rule:evenodd;stroke:#C4C4FF;stroke-width:1.0px;stroke-linecap:butt;stroke-linejoin:miter;stroke-opacity:1"/>
<ellipse cx="70.6" cy="97.7" rx="5.9" ry="5.9" class="atom-2" style="fill:#C4C4FF;fill-rule:evenodd;stroke:#C4C4FF;stroke-width:1.0px;stroke-linecap:butt;stroke-linejoin:miter;stroke-opacity:1"/>
<ellipse cx="97.0" cy="84.5" rx="5.9" ry="5.9" class="atom-3" style="fill:#C4C4FF;fill-rule:evenodd;stroke:#C4C4FF;stroke-width:1.0px;stroke-linecap:butt;stroke-linejoin:miter;stroke-opacity:1"/>
<ellipse cx="121.6" cy="100.7" rx="5.9" ry="5.9" class="atom-4" style="fill:#FFD8D8;fill-rule:evenodd;stroke:#FFD8D8;stroke-width:1.0px;stroke-linecap:butt;stroke-linejoin:miter;stroke-opacity:1"/>
<ellipse cx="147.9" cy="87.5" rx="5.9" ry="5.9" class="atom-5" style="fill:#FFD8D8;fill-rule:evenodd;stroke:#FFD8D8;stroke-width:1.0px;stroke-linecap:butt;stroke-linejoin:miter;stroke-opacity:1"/>
<ellipse cx="172.5" cy="103.7" rx="5.9" ry="5.9" class="atom-6" style="fill:#FFD8D8;fill-rule:evenodd;stroke:#FFD8D8;stroke-width:1.0px;stroke-linecap:butt;stroke-linejoin:miter;stroke-opacity:1"/>
<ellipse cx="170.8" cy="133.1" rx="5.9" ry="5.9" class="atom-7" style="fill:#FFD6D6;fill-rule:evenodd;stroke:#FFD6D6;stroke-width:1.0px;stroke-linecap:butt;stroke-linejoin:miter;stroke-opacity:1"/>
<ellipse cx="195.3" cy="149.3" rx="5.9" ry="5.9" class="atom-8" style="fill:#FFD6D6;fill-rule:evenodd;stroke:#FFD6D6;stroke-width:1.0px;stroke-linecap:butt;stroke-linejoin:miter;stroke-opacity:1"/>
<ellipse cx="144.4" cy="146.3" rx="5.9" ry="5.9" class="atom-9" style="fill:#FFD6D6;fill-rule:evenodd;stroke:#FFD6D6;stroke-width:1.0px;stroke-linecap:butt;stroke-linejoin:miter;stroke-opacity:1"/>
<ellipse cx="142.7" cy="175.7" rx="5.9" ry="5.9" class="atom-10" style="fill:#FFD6D6;fill-rule:evenodd;stroke:#FFD6D6;stroke-width:1.0px;stroke-linecap:butt;stroke-linejoin:miter;stroke-opacity:1"/>
<ellipse cx="198.8" cy="90.5" rx="5.9" ry="5.9" class="atom-11" style="fill:#5A5AFF;fill-rule:evenodd;stroke:#5A5AFF;stroke-width:1.0px;stroke-linecap:butt;stroke-linejoin:miter;stroke-opacity:1"/>
<ellipse cx="200.6" cy="61.1" rx="5.9" ry="5.9" class="atom-12" style="fill:#5A5AFF;fill-rule:evenodd;stroke:#5A5AFF;stroke-width:1.0px;stroke-linecap:butt;stroke-linejoin:miter;stroke-opacity:1"/>
<ellipse cx="176.0" cy="44.9" rx="5.9" ry="5.9" class="atom-13" style="fill:#FFFAFA;fill-rule:evenodd;stroke:#FFFAFA;stroke-width:1.0px;stroke-linecap:butt;stroke-linejoin:miter;stroke-opacity:1"/>
<ellipse cx="177.7" cy="15.5" rx="5.9" ry="5.9" class="atom-14" style="fill:#FFFAFA;fill-rule:evenodd;stroke:#FFFAFA;stroke-width:1.0px;stroke-linecap:butt;stroke-linejoin:miter;stroke-opacity:1"/>
<ellipse cx="226.9" cy="47.9" rx="5.9" ry="5.9" class="atom-15" style="fill:#5A5AFF;fill-rule:evenodd;stroke:#5A5AFF;stroke-width:1.0px;stroke-linecap:butt;stroke-linejoin:miter;stroke-opacity:1"/>
<ellipse cx="251.5" cy="64.1" rx="5.9" ry="5.9" class="atom-16" style="fill:#5A5AFF;fill-rule:evenodd;stroke:#5A5AFF;stroke-width:1.0px;stroke-linecap:butt;stroke-linejoin:miter;stroke-opacity:1"/>
<ellipse cx="249.8" cy="93.5" rx="5.9" ry="5.9" class="atom-17" style="fill:#5A5AFF;fill-rule:evenodd;stroke:#5A5AFF;stroke-width:1.0px;stroke-linecap:butt;stroke-linejoin:miter;stroke-opacity:1"/>
<ellipse cx="223.4" cy="106.7" rx="5.9" ry="5.9" class="atom-18" style="fill:#5A5AFF;fill-rule:evenodd;stroke:#5A5AFF;stroke-width:1.0px;stroke-linecap:butt;stroke-linejoin:miter;stroke-opacity:1"/>
<ellipse cx="221.7" cy="136.1" rx="5.9" ry="5.9" class="atom-19" style="fill:#FFFAFA;fill-rule:evenodd;stroke:#FFFAFA;stroke-width:1.0px;stroke-linecap:butt;stroke-linejoin:miter;stroke-opacity:1"/>
<ellipse cx="246.3" cy="152.3" rx="5.9" ry="5.9" class="atom-20" style="fill:#FFFAFA;fill-rule:evenodd;stroke:#FFFAFA;stroke-width:1.0px;stroke-linecap:butt;stroke-linejoin:miter;stroke-opacity:1"/>
<path class="bond-0 atom-0 atom-1" d="M 19.7,94.7 L 46.0,81.5" style="fill:none;fill-rule:evenodd;stroke:#000000;stroke-width:2.0px;stroke-linecap:butt;stroke-linejoin:miter;stroke-opacity:1"/>
<path class="bond-1 atom-1 atom-2" d="M 46.0,81.5 L 70.6,97.7" style="fill:none;fill-rule:evenodd;stroke:#000000;stroke-width:2.0px;stroke-linecap:butt;stroke-linejoin:miter;stroke-opacity:1"/>
<path class="bond-2 atom-2 atom-3" d="M 70.6,97.7 L 97.0,84.5" style="fill:none;fill-rule:evenodd;stroke:#000000;stroke-width:2.0px;stroke-linecap:butt;stroke-linejoin:miter;stroke-opacity:1"/>
<path class="bond-3 atom-3 atom-4" d="M 97.0,84.5 L 116.8,97.5" style="fill:none;fill-rule:evenodd;stroke:#000000;stroke-width:2.0px;stroke-linecap:butt;stroke-linejoin:miter;stroke-opacity:1"/>
<path class="bond-4 atom-4 atom-5" d="M 126.4,98.3 L 147.9,87.5" style="fill:none;fill-rule:evenodd;stroke:#000000;stroke-width:2.0px;stroke-linecap:butt;stroke-linejoin:miter;stroke-opacity:1"/>
<path class="bond-5 atom-5 atom-6" d="M 147.9,87.5 L 168.4,101.0" style="fill:none;fill-rule:evenodd;stroke:#000000;stroke-width:2.0px;stroke-linecap:butt;stroke-linejoin:miter;stroke-opacity:1"/>
<path class="bond-6 atom-6 atom-7" d="M 172.2,108.8 L 170.8,133.1" style="fill:none;fill-rule:evenodd;stroke:#000000;stroke-width:2.0px;stroke-linecap:butt;stroke-linejoin:miter;stroke-opacity:1"/>
<path class="bond-7 atom-7 atom-8" d="M 168.5,134.3 L 189.3,148.0" style="fill:none;fill-rule:evenodd;stroke:#000000;stroke-width:2.0px;stroke-linecap:butt;stroke-linejoin:miter;stroke-opacity:1"/>
<path class="bond-7 atom-7 atom-8" d="M 170.9,130.6 L 191.8,144.3" style="fill:none;fill-rule:evenodd;stroke:#000000;stroke-width:2.0px;stroke-linecap:butt;stroke-linejoin:miter;stroke-opacity:1"/>
<path class="bond-8 atom-7 atom-9" d="M 170.8,133.1 L 144.4,146.3" style="fill:none;fill-rule:evenodd;stroke:#000000;stroke-width:2.0px;stroke-linecap:butt;stroke-linejoin:miter;stroke-opacity:1"/>
<path class="bond-9 atom-9 atom-10" d="M 144.4,146.3 L 143.0,170.8" style="fill:none;fill-rule:evenodd;stroke:#000000;stroke-width:2.0px;stroke-linecap:butt;stroke-linejoin:miter;stroke-opacity:1"/>
<path class="bond-10 atom-6 atom-11" d="M 176.6,101.6 L 198.8,90.5" style="fill:none;fill-rule:evenodd;stroke:#000000;stroke-width:2.0px;stroke-linecap:butt;stroke-linejoin:miter;stroke-opacity:1"/>
<path class="bond-11 atom-11 atom-12" d="M 198.8,90.5 L 200.6,61.1" style="fill:none;fill-rule:evenodd;stroke:#000000;stroke-width:2.0px;stroke-linecap:butt;stroke-linejoin:miter;stroke-opacity:1"/>
<path class="bond-11 atom-11 atom-12" d="M 203.4,88.2 L 204.8,63.9" style="fill:none;fill-rule:evenodd;stroke:#000000;stroke-width:2.0px;stroke-linecap:butt;stroke-linejoin:miter;stroke-opacity:1"/>
<path class="bond-12 atom-12 atom-13" d="M 200.6,61.1 L 176.0,44.9" style="fill:none;fill-rule:evenodd;stroke:#000000;stroke-width:2.0px;stroke-linecap:butt;stroke-linejoin:miter;stroke-opacity:1"/>
<path class="bond-13 atom-13 atom-14" d="M 176.0,44.9 L 177.7,15.5" style="fill:none;fill-rule:evenodd;stroke:#000000;stroke-width:2.0px;stroke-linecap:butt;stroke-linejoin:miter;stroke-opacity:1"/>
<path class="bond-14 atom-12 atom-15" d="M 200.6,61.1 L 226.9,47.9" style="fill:none;fill-rule:evenodd;stroke:#000000;stroke-width:2.0px;stroke-linecap:butt;stroke-linejoin:miter;stroke-opacity:1"/>
<path class="bond-15 atom-15 atom-16" d="M 226.9,47.9 L 251.5,64.1" style="fill:none;fill-rule:evenodd;stroke:#000000;stroke-width:2.0px;stroke-linecap:butt;stroke-linejoin:miter;stroke-opacity:1"/>
<path class="bond-15 atom-15 atom-16" d="M 226.6,53.0 L 246.9,66.4" style="fill:none;fill-rule:evenodd;stroke:#000000;stroke-width:2.0px;stroke-linecap:butt;stroke-linejoin:miter;stroke-opacity:1"/>
<path class="bond-16 atom-16 atom-17" d="M 251.5,64.1 L 249.8,93.5" style="fill:none;fill-rule:evenodd;stroke:#000000;stroke-width:2.0px;stroke-linecap:butt;stroke-linejoin:miter;stroke-opacity:1"/>
<path class="bond-17 atom-17 atom-18" d="M 249.8,93.5 L 223.4,106.7" style="fill:none;fill-rule:evenodd;stroke:#000000;stroke-width:2.0px;stroke-linecap:butt;stroke-linejoin:miter;stroke-opacity:1"/>
<path class="bond-17 atom-17 atom-18" d="M 245.5,90.7 L 223.7,101.6" style="fill:none;fill-rule:evenodd;stroke:#000000;stroke-width:2.0px;stroke-linecap:butt;stroke-linejoin:miter;stroke-opacity:1"/>
<path class="bond-18 atom-18 atom-19" d="M 223.4,106.7 L 221.7,136.1" style="fill:none;fill-rule:evenodd;stroke:#000000;stroke-width:2.0px;stroke-linecap:butt;stroke-linejoin:miter;stroke-opacity:1"/>
<path class="bond-19 atom-19 atom-20" d="M 221.7,136.1 L 246.3,152.3" style="fill:none;fill-rule:evenodd;stroke:#000000;stroke-width:2.0px;stroke-linecap:butt;stroke-linejoin:miter;stroke-opacity:1"/>
<path class="bond-20 atom-18 atom-11" d="M 223.4,106.7 L 198.8,90.5" style="fill:none;fill-rule:evenodd;stroke:#000000;stroke-width:2.0px;stroke-linecap:butt;stroke-linejoin:miter;stroke-opacity:1"/>
<path d="M 44.7,82.1 L 46.0,81.5 L 47.3,82.3" style="fill:none;stroke:#000000;stroke-width:2.0px;stroke-linecap:butt;stroke-linejoin:miter;stroke-miterlimit:10;stroke-opacity:1;"/>
<path d="M 69.4,96.9 L 70.6,97.7 L 71.9,97.0" style="fill:none;stroke:#000000;stroke-width:2.0px;stroke-linecap:butt;stroke-linejoin:miter;stroke-miterlimit:10;stroke-opacity:1;"/>
<path d="M 95.7,85.1 L 97.0,84.5 L 98.0,85.1" style="fill:none;stroke:#000000;stroke-width:2.0px;stroke-linecap:butt;stroke-linejoin:miter;stroke-miterlimit:10;stroke-opacity:1;"/>
<path d="M 146.8,88.0 L 147.9,87.5 L 148.9,88.2" style="fill:none;stroke:#000000;stroke-width:2.0px;stroke-linecap:butt;stroke-linejoin:miter;stroke-miterlimit:10;stroke-opacity:1;"/>
<path d="M 170.8,131.9 L 170.8,133.1 L 169.4,133.8" style="fill:none;stroke:#000000;stroke-width:2.0px;stroke-linecap:butt;stroke-linejoin:miter;stroke-miterlimit:10;stroke-opacity:1;"/>
<path d="M 145.7,145.6 L 144.4,146.3 L 144.3,147.5" style="fill:none;stroke:#000000;stroke-width:2.0px;stroke-linecap:butt;stroke-linejoin:miter;stroke-miterlimit:10;stroke-opacity:1;"/>
<path d="M 177.2,45.7 L 176.0,44.9 L 176.1,43.4" style="fill:none;stroke:#000000;stroke-width:2.0px;stroke-linecap:butt;stroke-linejoin:miter;stroke-miterlimit:10;stroke-opacity:1;"/>
<path d="M 225.6,48.6 L 226.9,47.9 L 228.1,48.7" style="fill:none;stroke:#000000;stroke-width:2.0px;stroke-linecap:butt;stroke-linejoin:miter;stroke-miterlimit:10;stroke-opacity:1;"/>
<path d="M 250.3,63.3 L 251.5,64.1 L 251.4,65.6" style="fill:none;stroke:#000000;stroke-width:2.0px;stroke-linecap:butt;stroke-linejoin:miter;stroke-miterlimit:10;stroke-opacity:1;"/>
<path d="M 249.8,92.1 L 249.8,93.5 L 248.4,94.2" style="fill:none;stroke:#000000;stroke-width:2.0px;stroke-linecap:butt;stroke-linejoin:miter;stroke-miterlimit:10;stroke-opacity:1;"/>
<path d="M 221.8,134.7 L 221.7,136.1 L 222.9,136.9" style="fill:none;stroke:#000000;stroke-width:2.0px;stroke-linecap:butt;stroke-linejoin:miter;stroke-miterlimit:10;stroke-opacity:1;"/>
<path class="atom-4" d="M 117.7 100.7 Q 117.7 98.7, 118.7 97.6 Q 119.7 96.5, 121.6 96.5 Q 123.4 96.5, 124.4 97.6 Q 125.4 98.7, 125.4 100.7 Q 125.4 102.7, 124.4 103.9 Q 123.4 105.0, 121.6 105.0 Q 119.7 105.0, 118.7 103.9 Q 117.7 102.8, 117.7 100.7 M 121.6 104.1 Q 122.8 104.1, 123.5 103.2 Q 124.2 102.4, 124.2 100.7 Q 124.2 99.1, 123.5 98.3 Q 122.8 97.4, 121.6 97.4 Q 120.3 97.4, 119.6 98.2 Q 118.9 99.1, 118.9 100.7 Q 118.9 102.4, 119.6 103.2 Q 120.3 104.1, 121.6 104.1 " fill="#000000"/>
<path class="atom-6" d="M 170.6 99.5 L 173.4 104.0 Q 173.7 104.4, 174.1 105.2 Q 174.5 106.0, 174.5 106.0 L 174.5 99.5 L 175.7 99.5 L 175.7 107.9 L 174.5 107.9 L 171.6 103.0 Q 171.2 102.5, 170.9 101.8 Q 170.5 101.2, 170.4 101.0 L 170.4 107.9 L 169.3 107.9 L 169.3 99.5 L 170.6 99.5 " fill="#000000"/>
<path class="atom-8" d="M 191.5 149.3 Q 191.5 147.3, 192.5 146.2 Q 193.5 145.1, 195.3 145.1 Q 197.2 145.1, 198.2 146.2 Q 199.2 147.3, 199.2 149.3 Q 199.2 151.4, 198.2 152.5 Q 197.2 153.7, 195.3 153.7 Q 193.5 153.7, 192.5 152.5 Q 191.5 151.4, 191.5 149.3 M 195.3 152.7 Q 196.6 152.7, 197.3 151.9 Q 198.0 151.0, 198.0 149.3 Q 198.0 147.7, 197.3 146.9 Q 196.6 146.0, 195.3 146.0 Q 194.1 146.0, 193.4 146.9 Q 192.7 147.7, 192.7 149.3 Q 192.7 151.0, 193.4 151.9 Q 194.1 152.7, 195.3 152.7 " fill="#000000"/>
<path class="atom-10" d="M 139.5 176.0 Q 139.5 173.9, 140.4 172.8 Q 141.4 171.7, 143.3 171.7 Q 145.0 171.7, 145.9 173.0 L 145.1 173.6 Q 144.4 172.7, 143.3 172.7 Q 142.0 172.7, 141.3 173.6 Q 140.7 174.4, 140.7 176.0 Q 140.7 177.6, 141.3 178.5 Q 142.0 179.3, 143.4 179.3 Q 144.3 179.3, 145.4 178.8 L 145.7 179.7 Q 145.3 180.0, 144.6 180.1 Q 143.9 180.3, 143.2 180.3 Q 141.4 180.3, 140.4 179.2 Q 139.5 178.1, 139.5 176.0 " fill="#000000"/>
<path class="atom-10" d="M 146.7 171.2 L 147.8 171.2 L 147.8 180.2 L 146.7 180.2 L 146.7 171.2 " fill="#000000"/>
</svg>