<svg xmlns="http://www.w3.org/2000/svg" xmlns:rdkit="http://www.rdkit.org/xml" xmlns:xlink="http://www.w3.org/1999/xlink" version="1.1" baseProfile="full" xml:space="preserve" width="201px" height="150px" viewBox="0 0 201 150">
<!-- END OF HEADER -->
<rect style="opacity:1.0;fill:#FFFFFF;stroke:none" width="201.0" height="150.0" x="0.0" y="0.0"> </rect>
<ellipse cx="15.9" cy="120.0" rx="5.9" ry="5.9" class="atom-0" style="fill:#FFDD13;fill-rule:evenodd;stroke:#FFDD13;stroke-width:1.0px;stroke-linecap:butt;stroke-linejoin:miter;stroke-opacity:1"/>
<ellipse cx="45.4" cy="119.0" rx="5.9" ry="5.9" class="atom-1" style="fill:#F3F142;fill-rule:evenodd;stroke:#F3F142;stroke-width:1.0px;stroke-linecap:butt;stroke-linejoin:miter;stroke-opacity:1"/>
<ellipse cx="59.2" cy="92.9" rx="5.9" ry="5.9" class="atom-2" style="fill:#FFDF15;fill-rule:evenodd;stroke:#FFDF15;stroke-width:1.0px;stroke-linecap:butt;stroke-linejoin:miter;stroke-opacity:1"/>
<ellipse cx="43.6" cy="67.9" rx="5.9" ry="5.9" class="atom-3" style="fill:#F8ED31;fill-rule:evenodd;stroke:#F8ED31;stroke-width:1.0px;stroke-linecap:butt;stroke-linejoin:miter;stroke-opacity:1"/>
<ellipse cx="88.7" cy="91.9" rx="5.9" ry="5.9" class="atom-4" style="fill:#FFCF0B;fill-rule:evenodd;stroke:#FFCF0B;stroke-width:1.0px;stroke-linecap:butt;stroke-linejoin:miter;stroke-opacity:1"/>
<ellipse cx="102.5" cy="65.9" rx="5.9" ry="5.9" class="atom-5" style="fill:#FFE518;fill-rule:evenodd;stroke:#FFE518;stroke-width:1.0px;stroke-linecap:butt;stroke-linejoin:miter;stroke-opacity:1"/>
<ellipse cx="86.9" cy="40.9" rx="5.9" ry="5.9" class="atom-6" style="fill:#FFD00C;fill-rule:evenodd;stroke:#FFD00C;stroke-width:1.0px;stroke-linecap:butt;stroke-linejoin:miter;stroke-opacity:1"/>
<ellipse cx="100.8" cy="14.9" rx="5.9" ry="5.9" class="atom-7" style="fill:#F7EE34;fill-rule:evenodd;stroke:#F7EE34;stroke-width:1.0px;stroke-linecap:butt;stroke-linejoin:miter;stroke-opacity:1"/>
<ellipse cx="130.2" cy="13.8" rx="5.9" ry="5.9" class="atom-8" style="fill:#FFD911;fill-rule:evenodd;stroke:#FFD911;stroke-width:1.0px;stroke-linecap:butt;stroke-linejoin:miter;stroke-opacity:1"/>
<ellipse cx="145.9" cy="38.8" rx="5.9" ry="5.9" class="atom-9" style="fill:#FFDD13;fill-rule:evenodd;stroke:#FFDD13;stroke-width:1.0px;stroke-linecap:butt;stroke-linejoin:miter;stroke-opacity:1"/>
<ellipse cx="132.0" cy="64.9" rx="5.9" ry="5.9" class="atom-10" style="fill:#F4F03D;fill-rule:evenodd;stroke:#F4F03D;stroke-width:1.0px;stroke-linecap:butt;stroke-linejoin:miter;stroke-opacity:1"/>
<ellipse cx="147.6" cy="89.9" rx="5.9" ry="5.9" class="atom-11" style="fill:#FFB400;fill-rule:evenodd;stroke:#FFB400;stroke-width:1.0px;stroke-linecap:butt;stroke-linejoin:miter;stroke-opacity:1"/>
<ellipse cx="177.0" cy="91.9" rx="5.9" ry="5.9" class="atom-12" style="fill:#F7EE36;fill-rule:evenodd;stroke:#F7EE36;stroke-width:1.0px;stroke-linecap:butt;stroke-linejoin:miter;stroke-opacity:1"/>
<ellipse cx="184.2" cy="120.5" rx="5.9" ry="5.9" class="atom-13" style="fill:#FFC404;fill-rule:evenodd;stroke:#FFC404;stroke-width:1.0px;stroke-linecap:butt;stroke-linejoin:miter;stroke-opacity:1"/>
<ellipse cx="159.2" cy="136.2" rx="5.9" ry="5.9" class="atom-14" style="fill:#FFC303;fill-rule:evenodd;stroke:#FFC303;stroke-width:1.0px;stroke-linecap:butt;stroke-linejoin:miter;stroke-opacity:1"/>
<ellipse cx="136.6" cy="117.2" rx="5.9" ry="5.9" class="atom-15" style="fill:#E7FC6D;fill-rule:evenodd;stroke:#E7FC6D;stroke-width:1.0px;stroke-linecap:butt;stroke-linejoin:miter;stroke-opacity:1"/>
<path class="bond-0 atom-0 atom-1" d="M 15.9,120.0 L 41.3,119.1" style="fill:none;fill-rule:evenodd;stroke:#000000;stroke-width:2.0px;stroke-linecap:butt;stroke-linejoin:miter;stroke-opacity:1"/>
<path class="bond-1 atom-1 atom-2" d="M 48.1,113.8 L 59.2,92.9" style="fill:none;fill-rule:evenodd;stroke:#000000;stroke-width:2.0px;stroke-linecap:butt;stroke-linejoin:miter;stroke-opacity:1"/>
<path class="bond-2 atom-2 atom-3" d="M 61.8,92.9 L 48.8,72.1" style="fill:none;fill-rule:evenodd;stroke:#000000;stroke-width:2.0px;stroke-linecap:butt;stroke-linejoin:miter;stroke-opacity:1"/>
<path class="bond-2 atom-2 atom-3" d="M 58.0,95.2 L 45.1,74.4" style="fill:none;fill-rule:evenodd;stroke:#000000;stroke-width:2.0px;stroke-linecap:butt;stroke-linejoin:miter;stroke-opacity:1"/>
<path class="bond-3 atom-2 atom-4" d="M 59.2,92.9 L 83.9,92.1" style="fill:none;fill-rule:evenodd;stroke:#000000;stroke-width:2.0px;stroke-linecap:butt;stroke-linejoin:miter;stroke-opacity:1"/>
<path class="bond-4 atom-4 atom-5" d="M 91.5,86.7 L 102.5,65.9" style="fill:none;fill-rule:evenodd;stroke:#000000;stroke-width:2.0px;stroke-linecap:butt;stroke-linejoin:miter;stroke-opacity:1"/>
<path class="bond-5 atom-5 atom-6" d="M 102.5,65.9 L 86.9,40.9" style="fill:none;fill-rule:evenodd;stroke:#000000;stroke-width:2.0px;stroke-linecap:butt;stroke-linejoin:miter;stroke-opacity:1"/>
<path class="bond-5 atom-5 atom-6" d="M 104.9,61.4 L 92.0,40.7" style="fill:none;fill-rule:evenodd;stroke:#000000;stroke-width:2.0px;stroke-linecap:butt;stroke-linejoin:miter;stroke-opacity:1"/>
<path class="bond-6 atom-6 atom-7" d="M 86.9,40.9 L 100.8,14.9" style="fill:none;fill-rule:evenodd;stroke:#000000;stroke-width:2.0px;stroke-linecap:butt;stroke-linejoin:miter;stroke-opacity:1"/>
<path class="bond-7 atom-7 atom-8" d="M 100.8,14.9 L 130.2,13.8" style="fill:none;fill-rule:evenodd;stroke:#000000;stroke-width:2.0px;stroke-linecap:butt;stroke-linejoin:miter;stroke-opacity:1"/>
<path class="bond-7 atom-7 atom-8" d="M 103.5,19.2 L 127.8,18.4" style="fill:none;fill-rule:evenodd;stroke:#000000;stroke-width:2.0px;stroke-linecap:butt;stroke-linejoin:miter;stroke-opacity:1"/>
<path class="bond-8 atom-8 atom-9" d="M 130.2,13.8 L 145.9,38.8" style="fill:none;fill-rule:evenodd;stroke:#000000;stroke-width:2.0px;stroke-linecap:butt;stroke-linejoin:miter;stroke-opacity:1"/>
<path class="bond-9 atom-9 atom-10" d="M 145.9,38.8 L 132.0,64.9" style="fill:none;fill-rule:evenodd;stroke:#000000;stroke-width:2.0px;stroke-linecap:butt;stroke-linejoin:miter;stroke-opacity:1"/>
<path class="bond-9 atom-9 atom-10" d="M 140.7,39.0 L 129.3,60.5" style="fill:none;fill-rule:evenodd;stroke:#000000;stroke-width:2.0px;stroke-linecap:butt;stroke-linejoin:miter;stroke-opacity:1"/>
<path class="bond-10 atom-10 atom-11" d="M 132.0,64.9 L 147.6,89.9" style="fill:none;fill-rule:evenodd;stroke:#000000;stroke-width:2.0px;stroke-linecap:butt;stroke-linejoin:miter;stroke-opacity:1"/>
<path class="bond-11 atom-11 atom-12" d="M 147.6,89.9 L 172.2,91.6" style="fill:none;fill-rule:evenodd;stroke:#000000;stroke-width:2.0px;stroke-linecap:butt;stroke-linejoin:miter;stroke-opacity:1"/>
<path class="bond-12 atom-12 atom-13" d="M 178.4,97.3 L 184.2,120.5" style="fill:none;fill-rule:evenodd;stroke:#000000;stroke-width:2.0px;stroke-linecap:butt;stroke-linejoin:miter;stroke-opacity:1"/>
<path class="bond-13 atom-13 atom-14" d="M 184.2,120.5 L 159.2,136.2" style="fill:none;fill-rule:evenodd;stroke:#000000;stroke-width:2.0px;stroke-linecap:butt;stroke-linejoin:miter;stroke-opacity:1"/>
<path class="bond-14 atom-14 atom-15" d="M 159.2,136.2 L 141.4,121.2" style="fill:none;fill-rule:evenodd;stroke:#000000;stroke-width:2.0px;stroke-linecap:butt;stroke-linejoin:miter;stroke-opacity:1"/>
<path class="bond-15 atom-10 atom-5" d="M 132.0,64.9 L 102.5,65.9" style="fill:none;fill-rule:evenodd;stroke:#000000;stroke-width:2.0px;stroke-linecap:butt;stroke-linejoin:miter;stroke-opacity:1"/>
<path class="bond-16 atom-15 atom-11" d="M 138.7,112.0 L 147.6,89.9" style="fill:none;fill-rule:evenodd;stroke:#000000;stroke-width:2.0px;stroke-linecap:butt;stroke-linejoin:miter;stroke-opacity:1"/>
<path d="M 58.7,94.0 L 59.2,92.9 L 60.5,92.9" style="fill:none;stroke:#000000;stroke-width:2.0px;stroke-linecap:butt;stroke-linejoin:miter;stroke-miterlimit:10;stroke-opacity:1;"/>
<path d="M 87.7,42.1 L 86.9,40.9 L 87.6,39.6" style="fill:none;stroke:#000000;stroke-width:2.0px;stroke-linecap:butt;stroke-linejoin:miter;stroke-miterlimit:10;stroke-opacity:1;"/>
<path d="M 100.1,16.2 L 100.8,14.9 L 102.3,14.8" style="fill:none;stroke:#000000;stroke-width:2.0px;stroke-linecap:butt;stroke-linejoin:miter;stroke-miterlimit:10;stroke-opacity:1;"/>
<path d="M 128.8,13.9 L 130.2,13.8 L 131.0,15.1" style="fill:none;stroke:#000000;stroke-width:2.0px;stroke-linecap:butt;stroke-linejoin:miter;stroke-miterlimit:10;stroke-opacity:1;"/>
<path d="M 145.1,37.6 L 145.9,38.8 L 145.2,40.1" style="fill:none;stroke:#000000;stroke-width:2.0px;stroke-linecap:butt;stroke-linejoin:miter;stroke-miterlimit:10;stroke-opacity:1;"/>
<path d="M 183.9,119.4 L 184.2,120.5 L 182.9,121.3" style="fill:none;stroke:#000000;stroke-width:2.0px;stroke-linecap:butt;stroke-linejoin:miter;stroke-miterlimit:10;stroke-opacity:1;"/>
<path d="M 160.4,135.4 L 159.2,136.2 L 158.3,135.4" style="fill:none;stroke:#000000;stroke-width:2.0px;stroke-linecap:butt;stroke-linejoin:miter;stroke-miterlimit:10;stroke-opacity:1;"/>
<path class="atom-1" d="M 43.6 114.8 L 46.3 119.2 Q 46.6 119.7, 47.0 120.4 Q 47.4 121.2, 47.5 121.3 L 47.5 114.8 L 48.6 114.8 L 48.6 123.1 L 47.4 123.1 L 44.5 118.3 Q 44.1 117.7, 43.8 117.1 Q 43.4 116.4, 43.3 116.2 L 43.3 123.1 L 42.2 123.1 L 42.2 114.8 L 43.6 114.8 " fill="#000000"/>
<path class="atom-1" d="M 50.2 114.8 L 51.3 114.8 L 51.3 118.3 L 55.6 118.3 L 55.6 114.8 L 56.7 114.8 L 56.7 123.1 L 55.6 123.1 L 55.6 119.3 L 51.3 119.3 L 51.3 123.1 L 50.2 123.1 L 50.2 114.8 " fill="#000000"/>
<path class="atom-3" d="M 39.8 68.0 Q 39.8 66.0, 40.8 64.8 Q 41.8 63.7, 43.6 63.7 Q 45.5 63.7, 46.5 64.8 Q 47.5 66.0, 47.5 68.0 Q 47.5 70.0, 46.5 71.1 Q 45.5 72.3, 43.6 72.3 Q 41.8 72.3, 40.8 71.1 Q 39.8 70.0, 39.8 68.0 M 43.6 71.3 Q 44.9 71.3, 45.6 70.5 Q 46.3 69.6, 46.3 68.0 Q 46.3 66.3, 45.6 65.5 Q 44.9 64.7, 43.6 64.7 Q 42.4 64.7, 41.7 65.5 Q 41.0 66.3, 41.0 68.0 Q 41.0 69.7, 41.7 70.5 Q 42.4 71.3, 43.6 71.3 " fill="#000000"/>
<path class="atom-4" d="M 84.9 91.9 Q 84.9 89.9, 85.9 88.8 Q 86.9 87.7, 88.7 87.7 Q 90.6 87.7, 91.5 88.8 Q 92.5 89.9, 92.5 91.9 Q 92.5 94.0, 91.5 95.1 Q 90.5 96.3, 88.7 96.3 Q 86.9 96.3, 85.9 95.1 Q 84.9 94.0, 84.9 91.9 M 88.7 95.3 Q 90.0 95.3, 90.7 94.5 Q 91.4 93.6, 91.4 91.9 Q 91.4 90.3, 90.7 89.5 Q 90.0 88.6, 88.7 88.6 Q 87.4 88.6, 86.7 89.5 Q 86.1 90.3, 86.1 91.9 Q 86.1 93.6, 86.7 94.5 Q 87.4 95.3, 88.7 95.3 " fill="#000000"/>
<path class="atom-12" d="M 173.2 92.0 Q 173.2 90.0, 174.2 88.8 Q 175.2 87.7, 177.0 87.7 Q 178.9 87.7, 179.9 88.8 Q 180.9 90.0, 180.9 92.0 Q 180.9 94.0, 179.9 95.1 Q 178.9 96.3, 177.0 96.3 Q 175.2 96.3, 174.2 95.1 Q 173.2 94.0, 173.2 92.0 M 177.0 95.3 Q 178.3 95.3, 179.0 94.5 Q 179.7 93.6, 179.7 92.0 Q 179.7 90.3, 179.0 89.5 Q 178.3 88.7, 177.0 88.7 Q 175.8 88.7, 175.1 89.5 Q 174.4 90.3, 174.4 92.0 Q 174.4 93.6, 175.1 94.5 Q 175.8 95.3, 177.0 95.3 " fill="#000000"/>
<path class="atom-15" d="M 132.7 117.2 Q 132.7 115.2, 133.7 114.1 Q 134.7 113.0, 136.6 113.0 Q 138.4 113.0, 139.4 114.1 Q 140.4 115.2, 140.4 117.2 Q 140.4 119.3, 139.4 120.4 Q 138.4 121.6, 136.6 121.6 Q 134.7 121.6, 133.7 120.4 Q 132.7 119.3, 132.7 117.2 M 136.6 120.6 Q 137.9 120.6, 138.5 119.8 Q 139.2 118.9, 139.2 117.2 Q 139.2 115.6, 138.5 114.8 Q 137.9 113.9, 136.6 113.9 Q 135.3 113.9, 134.6 114.7 Q 133.9 115.6, 133.9 117.2 Q 133.9 118.9, 134.6 119.8 Q 135.3 120.6, 136.6 120.6 " fill="#000000"/>
</svg>