<svg xmlns="http://www.w3.org/2000/svg" xmlns:rdkit="http://www.rdkit.org/xml" xmlns:xlink="http://www.w3.org/1999/xlink" version="1.1" baseProfile="full" xml:space="preserve" width="217px" height="135px" viewBox="0 0 217 135">
<!-- END OF HEADER -->
<rect style="opacity:1.0;fill:#FFFFFF;stroke:none" width="217.0" height="135.0" x="0.0" y="0.0"> </rect>
<ellipse cx="18.3" cy="62.0" rx="7.0" ry="7.0" class="atom-0" style="fill:#7FBF7F;fill-rule:evenodd;stroke:#7FBF7F;stroke-width:1.0px;stroke-linecap:butt;stroke-linejoin:miter;stroke-opacity:1"/>
<ellipse cx="40.5" cy="81.4" rx="6.6" ry="6.6" class="atom-1" style="fill:#7FBF7F;fill-rule:evenodd;stroke:#7FBF7F;stroke-width:1.0px;stroke-linecap:butt;stroke-linejoin:miter;stroke-opacity:1"/>
<ellipse cx="34.7" cy="110.4" rx="6.9" ry="6.9" class="atom-2" style="fill:#7FBF7F;fill-rule:evenodd;stroke:#7FBF7F;stroke-width:1.0px;stroke-linecap:butt;stroke-linejoin:miter;stroke-opacity:1"/>
<ellipse cx="68.4" cy="71.9" rx="6.9" ry="6.9" class="atom-3" style="fill:#7FBF7F;fill-rule:evenodd;stroke:#7FBF7F;stroke-width:1.0px;stroke-linecap:butt;stroke-linejoin:miter;stroke-opacity:1"/>
<ellipse cx="74.1" cy="43.0" rx="6.7" ry="6.7" class="atom-4" style="fill:#7FBF7F;fill-rule:evenodd;stroke:#7FBF7F;stroke-width:1.0px;stroke-linecap:butt;stroke-linejoin:miter;stroke-opacity:1"/>
<ellipse cx="90.6" cy="91.3" rx="7.0" ry="7.0" class="atom-5" style="fill:#7FBF7F;fill-rule:evenodd;stroke:#7FBF7F;stroke-width:1.0px;stroke-linecap:butt;stroke-linejoin:miter;stroke-opacity:1"/>
<ellipse cx="118.5" cy="81.8" rx="7.2" ry="7.2" class="atom-6" style="fill:#7FBF7F;fill-rule:evenodd;stroke:#7FBF7F;stroke-width:1.0px;stroke-linecap:butt;stroke-linejoin:miter;stroke-opacity:1"/>
<ellipse cx="124.2" cy="52.9" rx="6.5" ry="6.5" class="atom-7" style="fill:#7FBF7F;fill-rule:evenodd;stroke:#7FBF7F;stroke-width:1.0px;stroke-linecap:butt;stroke-linejoin:miter;stroke-opacity:1"/>
<ellipse cx="152.1" cy="43.4" rx="6.7" ry="6.7" class="atom-8" style="fill:#7FBF7F;fill-rule:evenodd;stroke:#7FBF7F;stroke-width:1.0px;stroke-linecap:butt;stroke-linejoin:miter;stroke-opacity:1"/>
<ellipse cx="157.8" cy="14.5" rx="7.7" ry="7.7" class="atom-9" style="fill:#7FBF7F;fill-rule:evenodd;stroke:#7FBF7F;stroke-width:1.0px;stroke-linecap:butt;stroke-linejoin:miter;stroke-opacity:1"/>
<ellipse cx="174.3" cy="62.8" rx="6.8" ry="6.8" class="atom-10" style="fill:#7FBF7F;fill-rule:evenodd;stroke:#7FBF7F;stroke-width:1.0px;stroke-linecap:butt;stroke-linejoin:miter;stroke-opacity:1"/>
<ellipse cx="168.6" cy="91.7" rx="6.7" ry="6.7" class="atom-11" style="fill:#7FBF7F;fill-rule:evenodd;stroke:#7FBF7F;stroke-width:1.0px;stroke-linecap:butt;stroke-linejoin:miter;stroke-opacity:1"/>
<ellipse cx="198.1" cy="92.3" rx="7.4" ry="7.4" class="atom-12" style="fill:#7FBF7F;fill-rule:evenodd;stroke:#7FBF7F;stroke-width:1.0px;stroke-linecap:butt;stroke-linejoin:miter;stroke-opacity:1"/>
<ellipse cx="173.1" cy="120.9" rx="6.9" ry="6.9" class="atom-13" style="fill:#7FBF7F;fill-rule:evenodd;stroke:#7FBF7F;stroke-width:1.0px;stroke-linecap:butt;stroke-linejoin:miter;stroke-opacity:1"/>
<ellipse cx="140.7" cy="101.2" rx="7.1" ry="7.1" class="atom-14" style="fill:#7FBF7F;fill-rule:evenodd;stroke:#7FBF7F;stroke-width:1.0px;stroke-linecap:butt;stroke-linejoin:miter;stroke-opacity:1"/>
<path class="bond-0 atom-0 atom-1" d="M 18.3,62.0 L 36.3,77.8" style="fill:none;fill-rule:evenodd;stroke:#000000;stroke-width:2.0px;stroke-linecap:butt;stroke-linejoin:miter;stroke-opacity:1"/>
<path class="bond-1 atom-1 atom-2" d="M 39.4,86.6 L 34.7,110.4" style="fill:none;fill-rule:evenodd;stroke:#000000;stroke-width:2.0px;stroke-linecap:butt;stroke-linejoin:miter;stroke-opacity:1"/>
<path class="bond-2 atom-1 atom-3" d="M 44.6,80.0 L 68.4,71.9" style="fill:none;fill-rule:evenodd;stroke:#000000;stroke-width:2.0px;stroke-linecap:butt;stroke-linejoin:miter;stroke-opacity:1"/>
<path class="bond-3 atom-3 atom-4" d="M 70.3,73.6 L 75.2,48.8" style="fill:none;fill-rule:evenodd;stroke:#000000;stroke-width:2.0px;stroke-linecap:butt;stroke-linejoin:miter;stroke-opacity:1"/>
<path class="bond-3 atom-3 atom-4" d="M 66.0,72.8 L 70.9,47.9" style="fill:none;fill-rule:evenodd;stroke:#000000;stroke-width:2.0px;stroke-linecap:butt;stroke-linejoin:miter;stroke-opacity:1"/>
<path class="bond-4 atom-3 atom-5" d="M 68.4,71.9 L 85.8,87.1" style="fill:none;fill-rule:evenodd;stroke:#000000;stroke-width:2.0px;stroke-linecap:butt;stroke-linejoin:miter;stroke-opacity:1"/>
<path class="bond-5 atom-5 atom-6" d="M 95.4,89.7 L 118.5,81.8" style="fill:none;fill-rule:evenodd;stroke:#000000;stroke-width:2.0px;stroke-linecap:butt;stroke-linejoin:miter;stroke-opacity:1"/>
<path class="bond-6 atom-6 atom-7" d="M 118.5,81.8 L 124.2,52.9" style="fill:none;fill-rule:evenodd;stroke:#000000;stroke-width:2.0px;stroke-linecap:butt;stroke-linejoin:miter;stroke-opacity:1"/>
<path class="bond-6 atom-6 atom-7" d="M 123.3,80.2 L 128.0,56.3" style="fill:none;fill-rule:evenodd;stroke:#000000;stroke-width:2.0px;stroke-linecap:butt;stroke-linejoin:miter;stroke-opacity:1"/>
<path class="bond-7 atom-7 atom-8" d="M 124.2,52.9 L 152.1,43.4" style="fill:none;fill-rule:evenodd;stroke:#000000;stroke-width:2.0px;stroke-linecap:butt;stroke-linejoin:miter;stroke-opacity:1"/>
<path class="bond-8 atom-8 atom-9" d="M 154.0,45.1 L 158.9,20.2" style="fill:none;fill-rule:evenodd;stroke:#000000;stroke-width:2.0px;stroke-linecap:butt;stroke-linejoin:miter;stroke-opacity:1"/>
<path class="bond-8 atom-8 atom-9" d="M 149.7,44.2 L 154.6,19.4" style="fill:none;fill-rule:evenodd;stroke:#000000;stroke-width:2.0px;stroke-linecap:butt;stroke-linejoin:miter;stroke-opacity:1"/>
<path class="bond-9 atom-8 atom-10" d="M 152.1,43.4 L 174.3,62.8" style="fill:none;fill-rule:evenodd;stroke:#000000;stroke-width:2.0px;stroke-linecap:butt;stroke-linejoin:miter;stroke-opacity:1"/>
<path class="bond-10 atom-10 atom-11" d="M 174.3,62.8 L 168.6,91.7" style="fill:none;fill-rule:evenodd;stroke:#000000;stroke-width:2.0px;stroke-linecap:butt;stroke-linejoin:miter;stroke-opacity:1"/>
<path class="bond-11 atom-11 atom-12" d="M 168.6,91.7 L 198.1,92.3" style="fill:none;fill-rule:evenodd;stroke:#000000;stroke-width:2.0px;stroke-linecap:butt;stroke-linejoin:miter;stroke-opacity:1"/>
<path class="bond-12 atom-11 atom-13" d="M 168.6,91.7 L 173.1,120.9" style="fill:none;fill-rule:evenodd;stroke:#000000;stroke-width:2.0px;stroke-linecap:butt;stroke-linejoin:miter;stroke-opacity:1"/>
<path class="bond-13 atom-11 atom-14" d="M 168.6,91.7 L 140.7,101.2" style="fill:none;fill-rule:evenodd;stroke:#000000;stroke-width:2.0px;stroke-linecap:butt;stroke-linejoin:miter;stroke-opacity:1"/>
<path class="bond-14 atom-14 atom-6" d="M 140.7,101.2 L 118.5,81.8" style="fill:none;fill-rule:evenodd;stroke:#000000;stroke-width:2.0px;stroke-linecap:butt;stroke-linejoin:miter;stroke-opacity:1"/>
<path d="M 67.2,72.3 L 68.4,71.9 L 69.2,72.7" style="fill:none;stroke:#000000;stroke-width:2.0px;stroke-linecap:butt;stroke-linejoin:miter;stroke-miterlimit:10;stroke-opacity:1;"/>
<path d="M 123.9,54.4 L 124.2,52.9 L 125.6,52.4" style="fill:none;stroke:#000000;stroke-width:2.0px;stroke-linecap:butt;stroke-linejoin:miter;stroke-miterlimit:10;stroke-opacity:1;"/>
<path d="M 150.7,43.9 L 152.1,43.4 L 153.2,44.4" style="fill:none;stroke:#000000;stroke-width:2.0px;stroke-linecap:butt;stroke-linejoin:miter;stroke-miterlimit:10;stroke-opacity:1;"/>
<path d="M 173.2,61.8 L 174.3,62.8 L 174.0,64.3" style="fill:none;stroke:#000000;stroke-width:2.0px;stroke-linecap:butt;stroke-linejoin:miter;stroke-miterlimit:10;stroke-opacity:1;"/>
<path d="M 142.1,100.8 L 140.7,101.2 L 139.6,100.3" style="fill:none;stroke:#000000;stroke-width:2.0px;stroke-linecap:butt;stroke-linejoin:miter;stroke-miterlimit:10;stroke-opacity:1;"/>
<path class="atom-1" d="M 38.6 77.3 L 41.4 81.7 Q 41.6 82.1, 42.1 82.9 Q 42.5 83.7, 42.5 83.8 L 42.5 77.3 L 43.6 77.3 L 43.6 85.6 L 42.5 85.6 L 39.5 80.8 Q 39.2 80.2, 38.8 79.6 Q 38.5 78.9, 38.4 78.7 L 38.4 85.6 L 37.3 85.6 L 37.3 77.3 L 38.6 77.3 " fill="#000000"/>
<path class="atom-4" d="M 70.3 43.0 Q 70.3 41.0, 71.2 39.9 Q 72.2 38.8, 74.1 38.8 Q 75.9 38.8, 76.9 39.9 Q 77.9 41.0, 77.9 43.0 Q 77.9 45.1, 76.9 46.2 Q 75.9 47.4, 74.1 47.4 Q 72.3 47.4, 71.2 46.2 Q 70.3 45.1, 70.3 43.0 M 74.1 46.4 Q 75.4 46.4, 76.1 45.6 Q 76.7 44.7, 76.7 43.0 Q 76.7 41.4, 76.1 40.6 Q 75.4 39.7, 74.1 39.7 Q 72.8 39.7, 72.1 40.5 Q 71.4 41.4, 71.4 43.0 Q 71.4 44.7, 72.1 45.6 Q 72.8 46.4, 74.1 46.4 " fill="#000000"/>
<path class="atom-5" d="M 86.7 91.4 Q 86.7 89.4, 87.7 88.2 Q 88.7 87.1, 90.6 87.1 Q 92.4 87.1, 93.4 88.2 Q 94.4 89.4, 94.4 91.4 Q 94.4 93.4, 93.4 94.6 Q 92.4 95.7, 90.6 95.7 Q 88.7 95.7, 87.7 94.6 Q 86.7 93.4, 86.7 91.4 M 90.6 94.8 Q 91.8 94.8, 92.5 93.9 Q 93.2 93.0, 93.2 91.4 Q 93.2 89.7, 92.5 88.9 Q 91.8 88.1, 90.6 88.1 Q 89.3 88.1, 88.6 88.9 Q 87.9 89.7, 87.9 91.4 Q 87.9 93.1, 88.6 93.9 Q 89.3 94.8, 90.6 94.8 " fill="#000000"/>
<path class="atom-9" d="M 154.0 14.5 Q 154.0 12.5, 155.0 11.4 Q 156.0 10.2, 157.8 10.2 Q 159.7 10.2, 160.7 11.4 Q 161.7 12.5, 161.7 14.5 Q 161.7 16.5, 160.7 17.7 Q 159.7 18.8, 157.8 18.8 Q 156.0 18.8, 155.0 17.7 Q 154.0 16.5, 154.0 14.5 M 157.8 17.9 Q 159.1 17.9, 159.8 17.0 Q 160.5 16.2, 160.5 14.5 Q 160.5 12.8, 159.8 12.0 Q 159.1 11.2, 157.8 11.2 Q 156.6 11.2, 155.9 12.0 Q 155.2 12.8, 155.2 14.5 Q 155.2 16.2, 155.9 17.0 Q 156.6 17.9, 157.8 17.9 " fill="#000000"/>
</svg>