<svg xmlns="http://www.w3.org/2000/svg" xmlns:rdkit="http://www.rdkit.org/xml" xmlns:xlink="http://www.w3.org/1999/xlink" version="1.1" baseProfile="full" xml:space="preserve" width="274px" height="195px" viewBox="0 0 274 195">
<!-- END OF HEADER -->
<rect style="opacity:1.0;fill:#FFFFFF;stroke:none" width="274.0" height="195.0" x="0.0" y="0.0"> </rect>
<ellipse cx="20.5" cy="96.3" rx="6.8" ry="6.8" class="atom-0" style="fill:#7FBF7F;fill-rule:evenodd;stroke:#7FBF7F;stroke-width:1.0px;stroke-linecap:butt;stroke-linejoin:miter;stroke-opacity:1"/>
<ellipse cx="46.9" cy="83.0" rx="6.3" ry="6.3" class="atom-1" style="fill:#7FBF7F;fill-rule:evenodd;stroke:#7FBF7F;stroke-width:1.0px;stroke-linecap:butt;stroke-linejoin:miter;stroke-opacity:1"/>
<ellipse cx="71.6" cy="99.3" rx="6.8" ry="6.8" class="atom-2" style="fill:#7FBF7F;fill-rule:evenodd;stroke:#7FBF7F;stroke-width:1.0px;stroke-linecap:butt;stroke-linejoin:miter;stroke-opacity:1"/>
<ellipse cx="98.0" cy="86.1" rx="7.0" ry="7.0" class="atom-3" style="fill:#7FBF7F;fill-rule:evenodd;stroke:#7FBF7F;stroke-width:1.0px;stroke-linecap:butt;stroke-linejoin:miter;stroke-opacity:1"/>
<ellipse cx="122.7" cy="102.3" rx="6.6" ry="6.6" class="atom-4" style="fill:#7FBF7F;fill-rule:evenodd;stroke:#7FBF7F;stroke-width:1.0px;stroke-linecap:butt;stroke-linejoin:miter;stroke-opacity:1"/>
<ellipse cx="149.2" cy="89.1" rx="7.5" ry="7.5" class="atom-5" style="fill:#7FBF7F;fill-rule:evenodd;stroke:#7FBF7F;stroke-width:1.0px;stroke-linecap:butt;stroke-linejoin:miter;stroke-opacity:1"/>
<ellipse cx="173.9" cy="105.4" rx="6.8" ry="6.8" class="atom-6" style="fill:#7FBF7F;fill-rule:evenodd;stroke:#7FBF7F;stroke-width:1.0px;stroke-linecap:butt;stroke-linejoin:miter;stroke-opacity:1"/>
<ellipse cx="172.1" cy="134.9" rx="7.4" ry="7.4" class="atom-7" style="fill:#7FBF7F;fill-rule:evenodd;stroke:#7FBF7F;stroke-width:1.0px;stroke-linecap:butt;stroke-linejoin:miter;stroke-opacity:1"/>
<ellipse cx="196.8" cy="151.2" rx="7.1" ry="7.1" class="atom-8" style="fill:#7FBF7F;fill-rule:evenodd;stroke:#7FBF7F;stroke-width:1.0px;stroke-linecap:butt;stroke-linejoin:miter;stroke-opacity:1"/>
<ellipse cx="145.7" cy="148.1" rx="7.4" ry="7.4" class="atom-9" style="fill:#7FBF7F;fill-rule:evenodd;stroke:#7FBF7F;stroke-width:1.0px;stroke-linecap:butt;stroke-linejoin:miter;stroke-opacity:1"/>
<ellipse cx="143.9" cy="177.7" rx="7.0" ry="7.0" class="atom-10" style="fill:#7FBF7F;fill-rule:evenodd;stroke:#7FBF7F;stroke-width:1.0px;stroke-linecap:butt;stroke-linejoin:miter;stroke-opacity:1"/>
<ellipse cx="200.3" cy="92.1" rx="7.3" ry="7.3" class="atom-11" style="fill:#7FBF7F;fill-rule:evenodd;stroke:#7FBF7F;stroke-width:1.0px;stroke-linecap:butt;stroke-linejoin:miter;stroke-opacity:1"/>
<ellipse cx="202.1" cy="62.6" rx="6.2" ry="6.2" class="atom-12" style="fill:#7FBF7F;fill-rule:evenodd;stroke:#7FBF7F;stroke-width:1.0px;stroke-linecap:butt;stroke-linejoin:miter;stroke-opacity:1"/>
<ellipse cx="177.4" cy="46.3" rx="6.7" ry="6.7" class="atom-13" style="fill:#7FBF7F;fill-rule:evenodd;stroke:#7FBF7F;stroke-width:1.0px;stroke-linecap:butt;stroke-linejoin:miter;stroke-opacity:1"/>
<ellipse cx="179.1" cy="16.8" rx="7.0" ry="7.0" class="atom-14" style="fill:#7FBF7F;fill-rule:evenodd;stroke:#7FBF7F;stroke-width:1.0px;stroke-linecap:butt;stroke-linejoin:miter;stroke-opacity:1"/>
<ellipse cx="228.5" cy="49.3" rx="7.8" ry="7.8" class="atom-15" style="fill:#7FBF7F;fill-rule:evenodd;stroke:#7FBF7F;stroke-width:1.0px;stroke-linecap:butt;stroke-linejoin:miter;stroke-opacity:1"/>
<ellipse cx="253.2" cy="65.6" rx="6.5" ry="6.5" class="atom-16" style="fill:#7FBF7F;fill-rule:evenodd;stroke:#7FBF7F;stroke-width:1.0px;stroke-linecap:butt;stroke-linejoin:miter;stroke-opacity:1"/>
<ellipse cx="251.4" cy="95.1" rx="7.3" ry="7.3" class="atom-17" style="fill:#7FBF7F;fill-rule:evenodd;stroke:#7FBF7F;stroke-width:1.0px;stroke-linecap:butt;stroke-linejoin:miter;stroke-opacity:1"/>
<ellipse cx="225.0" cy="108.4" rx="6.7" ry="6.7" class="atom-18" style="fill:#7FBF7F;fill-rule:evenodd;stroke:#7FBF7F;stroke-width:1.0px;stroke-linecap:butt;stroke-linejoin:miter;stroke-opacity:1"/>
<ellipse cx="223.3" cy="137.9" rx="7.2" ry="7.2" class="atom-19" style="fill:#7FBF7F;fill-rule:evenodd;stroke:#7FBF7F;stroke-width:1.0px;stroke-linecap:butt;stroke-linejoin:miter;stroke-opacity:1"/>
<ellipse cx="247.9" cy="154.2" rx="7.3" ry="7.3" class="atom-20" style="fill:#7FBF7F;fill-rule:evenodd;stroke:#7FBF7F;stroke-width:1.0px;stroke-linecap:butt;stroke-linejoin:miter;stroke-opacity:1"/>
<path class="bond-0 atom-0 atom-1" d="M 20.5,96.3 L 46.9,83.0" style="fill:none;fill-rule:evenodd;stroke:#000000;stroke-width:2.0px;stroke-linecap:butt;stroke-linejoin:miter;stroke-opacity:1"/>
<path class="bond-1 atom-1 atom-2" d="M 46.9,83.0 L 71.6,99.3" style="fill:none;fill-rule:evenodd;stroke:#000000;stroke-width:2.0px;stroke-linecap:butt;stroke-linejoin:miter;stroke-opacity:1"/>
<path class="bond-2 atom-2 atom-3" d="M 71.6,99.3 L 98.0,86.1" style="fill:none;fill-rule:evenodd;stroke:#000000;stroke-width:2.0px;stroke-linecap:butt;stroke-linejoin:miter;stroke-opacity:1"/>
<path class="bond-3 atom-3 atom-4" d="M 98.0,86.1 L 117.9,99.2" style="fill:none;fill-rule:evenodd;stroke:#000000;stroke-width:2.0px;stroke-linecap:butt;stroke-linejoin:miter;stroke-opacity:1"/>
<path class="bond-4 atom-4 atom-5" d="M 127.6,99.9 L 149.2,89.1" style="fill:none;fill-rule:evenodd;stroke:#000000;stroke-width:2.0px;stroke-linecap:butt;stroke-linejoin:miter;stroke-opacity:1"/>
<path class="bond-5 atom-5 atom-6" d="M 149.2,89.1 L 169.7,102.6" style="fill:none;fill-rule:evenodd;stroke:#000000;stroke-width:2.0px;stroke-linecap:butt;stroke-linejoin:miter;stroke-opacity:1"/>
<path class="bond-6 atom-6 atom-7" d="M 173.6,110.5 L 172.1,134.9" style="fill:none;fill-rule:evenodd;stroke:#000000;stroke-width:2.0px;stroke-linecap:butt;stroke-linejoin:miter;stroke-opacity:1"/>
<path class="bond-7 atom-7 atom-8" d="M 169.8,136.0 L 190.8,149.8" style="fill:none;fill-rule:evenodd;stroke:#000000;stroke-width:2.0px;stroke-linecap:butt;stroke-linejoin:miter;stroke-opacity:1"/>
<path class="bond-7 atom-7 atom-8" d="M 172.3,132.3 L 193.2,146.1" style="fill:none;fill-rule:evenodd;stroke:#000000;stroke-width:2.0px;stroke-linecap:butt;stroke-linejoin:miter;stroke-opacity:1"/>
<path class="bond-8 atom-7 atom-9" d="M 172.1,134.9 L 145.7,148.1" style="fill:none;fill-rule:evenodd;stroke:#000000;stroke-width:2.0px;stroke-linecap:butt;stroke-linejoin:miter;stroke-opacity:1"/>
<path class="bond-9 atom-9 atom-10" d="M 145.7,148.1 L 144.2,172.7" style="fill:none;fill-rule:evenodd;stroke:#000000;stroke-width:2.0px;stroke-linecap:butt;stroke-linejoin:miter;stroke-opacity:1"/>
<path class="bond-10 atom-6 atom-11" d="M 178.0,103.3 L 200.3,92.1" style="fill:none;fill-rule:evenodd;stroke:#000000;stroke-width:2.0px;stroke-linecap:butt;stroke-linejoin:miter;stroke-opacity:1"/>
<path class="bond-11 atom-11 atom-12" d="M 200.3,92.1 L 202.1,62.6" style="fill:none;fill-rule:evenodd;stroke:#000000;stroke-width:2.0px;stroke-linecap:butt;stroke-linejoin:miter;stroke-opacity:1"/>
<path class="bond-11 atom-11 atom-12" d="M 204.9,89.8 L 206.3,65.4" style="fill:none;fill-rule:evenodd;stroke:#000000;stroke-width:2.0px;stroke-linecap:butt;stroke-linejoin:miter;stroke-opacity:1"/>
<path class="bond-12 atom-12 atom-13" d="M 202.1,62.6 L 177.4,46.3" style="fill:none;fill-rule:evenodd;stroke:#000000;stroke-width:2.0px;stroke-linecap:butt;stroke-linejoin:miter;stroke-opacity:1"/>
<path class="bond-13 atom-13 atom-14" d="M 177.4,46.3 L 179.1,16.8" style="fill:none;fill-rule:evenodd;stroke:#000000;stroke-width:2.0px;stroke-linecap:butt;stroke-linejoin:miter;stroke-opacity:1"/>
<path class="bond-14 atom-12 atom-15" d="M 202.1,62.6 L 228.5,49.3" style="fill:none;fill-rule:evenodd;stroke:#000000;stroke-width:2.0px;stroke-linecap:butt;stroke-linejoin:miter;stroke-opacity:1"/>
<path class="bond-15 atom-15 atom-16" d="M 228.5,49.3 L 253.2,65.6" style="fill:none;fill-rule:evenodd;stroke:#000000;stroke-width:2.0px;stroke-linecap:butt;stroke-linejoin:miter;stroke-opacity:1"/>
<path class="bond-15 atom-15 atom-16" d="M 228.2,54.5 L 248.6,67.9" style="fill:none;fill-rule:evenodd;stroke:#000000;stroke-width:2.0px;stroke-linecap:butt;stroke-linejoin:miter;stroke-opacity:1"/>
<path class="bond-16 atom-16 atom-17" d="M 253.2,65.6 L 251.4,95.1" style="fill:none;fill-rule:evenodd;stroke:#000000;stroke-width:2.0px;stroke-linecap:butt;stroke-linejoin:miter;stroke-opacity:1"/>
<path class="bond-17 atom-17 atom-18" d="M 251.4,95.1 L 225.0,108.4" style="fill:none;fill-rule:evenodd;stroke:#000000;stroke-width:2.0px;stroke-linecap:butt;stroke-linejoin:miter;stroke-opacity:1"/>
<path class="bond-17 atom-17 atom-18" d="M 247.2,92.3 L 225.3,103.3" style="fill:none;fill-rule:evenodd;stroke:#000000;stroke-width:2.0px;stroke-linecap:butt;stroke-linejoin:miter;stroke-opacity:1"/>
<path class="bond-18 atom-18 atom-19" d="M 225.0,108.4 L 223.3,137.9" style="fill:none;fill-rule:evenodd;stroke:#000000;stroke-width:2.0px;stroke-linecap:butt;stroke-linejoin:miter;stroke-opacity:1"/>
<path class="bond-19 atom-19 atom-20" d="M 223.3,137.9 L 247.9,154.2" style="fill:none;fill-rule:evenodd;stroke:#000000;stroke-width:2.0px;stroke-linecap:butt;stroke-linejoin:miter;stroke-opacity:1"/>
<path class="bond-20 atom-18 atom-11" d="M 225.0,108.4 L 200.3,92.1" style="fill:none;fill-rule:evenodd;stroke:#000000;stroke-width:2.0px;stroke-linecap:butt;stroke-linejoin:miter;stroke-opacity:1"/>
<path d="M 45.6,83.7 L 46.9,83.0 L 48.1,83.8" style="fill:none;stroke:#000000;stroke-width:2.0px;stroke-linecap:butt;stroke-linejoin:miter;stroke-miterlimit:10;stroke-opacity:1;"/>
<path d="M 70.4,98.5 L 71.6,99.3 L 72.9,98.6" style="fill:none;stroke:#000000;stroke-width:2.0px;stroke-linecap:butt;stroke-linejoin:miter;stroke-miterlimit:10;stroke-opacity:1;"/>
<path d="M 96.7,86.7 L 98.0,86.1 L 99.0,86.7" style="fill:none;stroke:#000000;stroke-width:2.0px;stroke-linecap:butt;stroke-linejoin:miter;stroke-miterlimit:10;stroke-opacity:1;"/>
<path d="M 148.1,89.6 L 149.2,89.1 L 150.2,89.8" style="fill:none;stroke:#000000;stroke-width:2.0px;stroke-linecap:butt;stroke-linejoin:miter;stroke-miterlimit:10;stroke-opacity:1;"/>
<path d="M 172.2,133.7 L 172.1,134.9 L 170.8,135.5" style="fill:none;stroke:#000000;stroke-width:2.0px;stroke-linecap:butt;stroke-linejoin:miter;stroke-miterlimit:10;stroke-opacity:1;"/>
<path d="M 147.0,147.5 L 145.7,148.1 L 145.6,149.4" style="fill:none;stroke:#000000;stroke-width:2.0px;stroke-linecap:butt;stroke-linejoin:miter;stroke-miterlimit:10;stroke-opacity:1;"/>
<path d="M 178.6,47.1 L 177.4,46.3 L 177.4,44.8" style="fill:none;stroke:#000000;stroke-width:2.0px;stroke-linecap:butt;stroke-linejoin:miter;stroke-miterlimit:10;stroke-opacity:1;"/>
<path d="M 227.2,50.0 L 228.5,49.3 L 229.7,50.2" style="fill:none;stroke:#000000;stroke-width:2.0px;stroke-linecap:butt;stroke-linejoin:miter;stroke-miterlimit:10;stroke-opacity:1;"/>
<path d="M 252.0,64.8 L 253.2,65.6 L 253.1,67.1" style="fill:none;stroke:#000000;stroke-width:2.0px;stroke-linecap:butt;stroke-linejoin:miter;stroke-miterlimit:10;stroke-opacity:1;"/>
<path d="M 251.5,93.7 L 251.4,95.1 L 250.1,95.8" style="fill:none;stroke:#000000;stroke-width:2.0px;stroke-linecap:butt;stroke-linejoin:miter;stroke-miterlimit:10;stroke-opacity:1;"/>
<path d="M 223.3,136.4 L 223.3,137.9 L 224.5,138.7" style="fill:none;stroke:#000000;stroke-width:2.0px;stroke-linecap:butt;stroke-linejoin:miter;stroke-miterlimit:10;stroke-opacity:1;"/>
<path class="atom-4" d="M 118.9 102.4 Q 118.9 100.3, 119.9 99.2 Q 120.9 98.1, 122.7 98.1 Q 124.6 98.1, 125.6 99.2 Q 126.6 100.3, 126.6 102.4 Q 126.6 104.4, 125.6 105.6 Q 124.6 106.7, 122.7 106.7 Q 120.9 106.7, 119.9 105.6 Q 118.9 104.4, 118.9 102.4 M 122.7 105.8 Q 124.0 105.8, 124.7 104.9 Q 125.4 104.0, 125.4 102.4 Q 125.4 100.7, 124.7 99.9 Q 124.0 99.0, 122.7 99.0 Q 121.5 99.0, 120.8 99.9 Q 120.1 100.7, 120.1 102.4 Q 120.1 104.1, 120.8 104.9 Q 121.5 105.8, 122.7 105.8 " fill="#000000"/>
<path class="atom-6" d="M 172.0 101.2 L 174.8 105.6 Q 175.0 106.0, 175.5 106.8 Q 175.9 107.6, 175.9 107.7 L 175.9 101.2 L 177.0 101.2 L 177.0 109.5 L 175.9 109.5 L 172.9 104.7 Q 172.6 104.1, 172.2 103.5 Q 171.9 102.8, 171.8 102.6 L 171.8 109.5 L 170.7 109.5 L 170.7 101.2 L 172.0 101.2 " fill="#000000"/>
<path class="atom-8" d="M 193.0 151.2 Q 193.0 149.2, 194.0 148.0 Q 195.0 146.9, 196.8 146.9 Q 198.7 146.9, 199.7 148.0 Q 200.7 149.2, 200.7 151.2 Q 200.7 153.2, 199.7 154.4 Q 198.6 155.5, 196.8 155.5 Q 195.0 155.5, 194.0 154.4 Q 193.0 153.2, 193.0 151.2 M 196.8 154.6 Q 198.1 154.6, 198.8 153.7 Q 199.5 152.9, 199.5 151.2 Q 199.5 149.5, 198.8 148.7 Q 198.1 147.9, 196.8 147.9 Q 195.5 147.9, 194.8 148.7 Q 194.1 149.5, 194.1 151.2 Q 194.1 152.9, 194.8 153.7 Q 195.5 154.6, 196.8 154.6 " fill="#000000"/>
<path class="atom-10" d="M 140.7 177.9 Q 140.7 175.9, 141.7 174.8 Q 142.7 173.7, 144.5 173.7 Q 146.2 173.7, 147.2 174.9 L 146.4 175.5 Q 145.7 174.6, 144.5 174.6 Q 143.2 174.6, 142.6 175.5 Q 141.9 176.3, 141.9 177.9 Q 141.9 179.6, 142.6 180.5 Q 143.3 181.3, 144.6 181.3 Q 145.6 181.3, 146.6 180.7 L 147.0 181.6 Q 146.5 181.9, 145.9 182.1 Q 145.2 182.2, 144.5 182.2 Q 142.7 182.2, 141.7 181.1 Q 140.7 180.0, 140.7 177.9 " fill="#000000"/>
<path class="atom-10" d="M 148.0 173.2 L 149.1 173.2 L 149.1 182.1 L 148.0 182.1 L 148.0 173.2 " fill="#000000"/>
</svg>