<svg xmlns="http://www.w3.org/2000/svg" xmlns:rdkit="http://www.rdkit.org/xml" xmlns:xlink="http://www.w3.org/1999/xlink" version="1.1" baseProfile="full" xml:space="preserve" width="285px" height="196px" viewBox="0 0 285 196">
<!-- END OF HEADER -->
<rect style="opacity:1.0;fill:#FFFFFF;stroke:none" width="285.0" height="196.0" x="0.0" y="0.0"> </rect>
<ellipse cx="21.7" cy="68.0" rx="7.2" ry="7.2" class="atom-0" style="fill:#7FBF7F;fill-rule:evenodd;stroke:#7FBF7F;stroke-width:1.0px;stroke-linecap:butt;stroke-linejoin:miter;stroke-opacity:1"/>
<ellipse cx="41.7" cy="89.8" rx="6.3" ry="6.3" class="atom-1" style="fill:#7FBF7F;fill-rule:evenodd;stroke:#7FBF7F;stroke-width:1.0px;stroke-linecap:butt;stroke-linejoin:miter;stroke-opacity:1"/>
<ellipse cx="70.6" cy="83.4" rx="6.5" ry="6.5" class="atom-2" style="fill:#7FBF7F;fill-rule:evenodd;stroke:#7FBF7F;stroke-width:1.0px;stroke-linecap:butt;stroke-linejoin:miter;stroke-opacity:1"/>
<ellipse cx="90.5" cy="105.1" rx="7.1" ry="7.1" class="atom-3" style="fill:#7FBF7F;fill-rule:evenodd;stroke:#7FBF7F;stroke-width:1.0px;stroke-linecap:butt;stroke-linejoin:miter;stroke-opacity:1"/>
<ellipse cx="119.4" cy="98.7" rx="6.0" ry="6.0" class="atom-4" style="fill:#7FBF7F;fill-rule:evenodd;stroke:#7FBF7F;stroke-width:1.0px;stroke-linecap:butt;stroke-linejoin:miter;stroke-opacity:1"/>
<ellipse cx="139.4" cy="120.5" rx="7.3" ry="7.3" class="atom-5" style="fill:#7FBF7F;fill-rule:evenodd;stroke:#7FBF7F;stroke-width:1.0px;stroke-linecap:butt;stroke-linejoin:miter;stroke-opacity:1"/>
<ellipse cx="168.2" cy="114.1" rx="7.4" ry="7.4" class="atom-6" style="fill:#7FBF7F;fill-rule:evenodd;stroke:#7FBF7F;stroke-width:1.0px;stroke-linecap:butt;stroke-linejoin:miter;stroke-opacity:1"/>
<ellipse cx="177.1" cy="85.9" rx="6.5" ry="6.5" class="atom-7" style="fill:#7FBF7F;fill-rule:evenodd;stroke:#7FBF7F;stroke-width:1.0px;stroke-linecap:butt;stroke-linejoin:miter;stroke-opacity:1"/>
<ellipse cx="206.0" cy="79.5" rx="7.0" ry="7.0" class="atom-8" style="fill:#7FBF7F;fill-rule:evenodd;stroke:#7FBF7F;stroke-width:1.0px;stroke-linecap:butt;stroke-linejoin:miter;stroke-opacity:1"/>
<ellipse cx="214.8" cy="51.3" rx="7.0" ry="7.0" class="atom-9" style="fill:#7FBF7F;fill-rule:evenodd;stroke:#7FBF7F;stroke-width:1.0px;stroke-linecap:butt;stroke-linejoin:miter;stroke-opacity:1"/>
<ellipse cx="243.7" cy="44.9" rx="7.0" ry="7.0" class="atom-10" style="fill:#7FBF7F;fill-rule:evenodd;stroke:#7FBF7F;stroke-width:1.0px;stroke-linecap:butt;stroke-linejoin:miter;stroke-opacity:1"/>
<ellipse cx="252.5" cy="16.7" rx="6.9" ry="6.9" class="atom-11" style="fill:#7FBF7F;fill-rule:evenodd;stroke:#7FBF7F;stroke-width:1.0px;stroke-linecap:butt;stroke-linejoin:miter;stroke-opacity:1"/>
<ellipse cx="263.7" cy="66.7" rx="6.3" ry="6.3" class="atom-12" style="fill:#7FBF7F;fill-rule:evenodd;stroke:#7FBF7F;stroke-width:1.0px;stroke-linecap:butt;stroke-linejoin:miter;stroke-opacity:1"/>
<ellipse cx="225.9" cy="101.3" rx="7.1" ry="7.1" class="atom-13" style="fill:#7FBF7F;fill-rule:evenodd;stroke:#7FBF7F;stroke-width:1.0px;stroke-linecap:butt;stroke-linejoin:miter;stroke-opacity:1"/>
<ellipse cx="217.1" cy="129.5" rx="6.6" ry="6.6" class="atom-14" style="fill:#7FBF7F;fill-rule:evenodd;stroke:#7FBF7F;stroke-width:1.0px;stroke-linecap:butt;stroke-linejoin:miter;stroke-opacity:1"/>
<ellipse cx="237.0" cy="151.2" rx="7.6" ry="7.6" class="atom-15" style="fill:#7FBF7F;fill-rule:evenodd;stroke:#7FBF7F;stroke-width:1.0px;stroke-linecap:butt;stroke-linejoin:miter;stroke-opacity:1"/>
<ellipse cx="228.2" cy="179.4" rx="6.4" ry="6.4" class="atom-16" style="fill:#7FBF7F;fill-rule:evenodd;stroke:#7FBF7F;stroke-width:1.0px;stroke-linecap:butt;stroke-linejoin:miter;stroke-opacity:1"/>
<ellipse cx="188.2" cy="135.9" rx="6.8" ry="6.8" class="atom-17" style="fill:#7FBF7F;fill-rule:evenodd;stroke:#7FBF7F;stroke-width:1.0px;stroke-linecap:butt;stroke-linejoin:miter;stroke-opacity:1"/>
<path class="bond-0 atom-0 atom-1" d="M 21.7,68.0 L 36.9,84.6" style="fill:none;fill-rule:evenodd;stroke:#000000;stroke-width:2.0px;stroke-linecap:butt;stroke-linejoin:miter;stroke-opacity:1"/>
<path class="bond-1 atom-1 atom-2" d="M 46.5,88.7 L 70.6,83.4" style="fill:none;fill-rule:evenodd;stroke:#000000;stroke-width:2.0px;stroke-linecap:butt;stroke-linejoin:miter;stroke-opacity:1"/>
<path class="bond-2 atom-2 atom-3" d="M 70.6,83.4 L 90.5,105.1" style="fill:none;fill-rule:evenodd;stroke:#000000;stroke-width:2.0px;stroke-linecap:butt;stroke-linejoin:miter;stroke-opacity:1"/>
<path class="bond-3 atom-3 atom-4" d="M 90.5,105.1 L 119.4,98.7" style="fill:none;fill-rule:evenodd;stroke:#000000;stroke-width:2.0px;stroke-linecap:butt;stroke-linejoin:miter;stroke-opacity:1"/>
<path class="bond-4 atom-4 atom-5" d="M 119.4,98.7 L 135.2,116.0" style="fill:none;fill-rule:evenodd;stroke:#000000;stroke-width:2.0px;stroke-linecap:butt;stroke-linejoin:miter;stroke-opacity:1"/>
<path class="bond-5 atom-5 atom-6" d="M 143.5,119.6 L 168.2,114.1" style="fill:none;fill-rule:evenodd;stroke:#000000;stroke-width:2.0px;stroke-linecap:butt;stroke-linejoin:miter;stroke-opacity:1"/>
<path class="bond-6 atom-6 atom-7" d="M 168.2,114.1 L 175.5,91.1" style="fill:none;fill-rule:evenodd;stroke:#000000;stroke-width:2.0px;stroke-linecap:butt;stroke-linejoin:miter;stroke-opacity:1"/>
<path class="bond-6 atom-6 atom-7" d="M 173.2,113.0 L 179.7,92.4" style="fill:none;fill-rule:evenodd;stroke:#000000;stroke-width:2.0px;stroke-linecap:butt;stroke-linejoin:miter;stroke-opacity:1"/>
<path class="bond-7 atom-7 atom-8" d="M 181.3,85.0 L 206.0,79.5" style="fill:none;fill-rule:evenodd;stroke:#000000;stroke-width:2.0px;stroke-linecap:butt;stroke-linejoin:miter;stroke-opacity:1"/>
<path class="bond-8 atom-8 atom-9" d="M 206.0,79.5 L 213.2,56.5" style="fill:none;fill-rule:evenodd;stroke:#000000;stroke-width:2.0px;stroke-linecap:butt;stroke-linejoin:miter;stroke-opacity:1"/>
<path class="bond-9 atom-9 atom-10" d="M 219.0,50.4 L 243.7,44.9" style="fill:none;fill-rule:evenodd;stroke:#000000;stroke-width:2.0px;stroke-linecap:butt;stroke-linejoin:miter;stroke-opacity:1"/>
<path class="bond-10 atom-10 atom-11" d="M 243.7,44.9 L 252.5,16.7" style="fill:none;fill-rule:evenodd;stroke:#000000;stroke-width:2.0px;stroke-linecap:butt;stroke-linejoin:miter;stroke-opacity:1"/>
<path class="bond-11 atom-10 atom-12" d="M 243.7,44.9 L 263.7,66.7" style="fill:none;fill-rule:evenodd;stroke:#000000;stroke-width:2.0px;stroke-linecap:butt;stroke-linejoin:miter;stroke-opacity:1"/>
<path class="bond-12 atom-8 atom-13" d="M 206.0,79.5 L 221.8,96.8" style="fill:none;fill-rule:evenodd;stroke:#000000;stroke-width:2.0px;stroke-linecap:butt;stroke-linejoin:miter;stroke-opacity:1"/>
<path class="bond-12 atom-8 atom-13" d="M 204.4,84.4 L 218.5,99.7" style="fill:none;fill-rule:evenodd;stroke:#000000;stroke-width:2.0px;stroke-linecap:butt;stroke-linejoin:miter;stroke-opacity:1"/>
<path class="bond-13 atom-13 atom-14" d="M 224.3,106.4 L 217.1,129.5" style="fill:none;fill-rule:evenodd;stroke:#000000;stroke-width:2.0px;stroke-linecap:butt;stroke-linejoin:miter;stroke-opacity:1"/>
<path class="bond-14 atom-14 atom-15" d="M 217.1,129.5 L 233.4,147.3" style="fill:none;fill-rule:evenodd;stroke:#000000;stroke-width:2.0px;stroke-linecap:butt;stroke-linejoin:miter;stroke-opacity:1"/>
<path class="bond-15 atom-15 atom-16" d="M 235.3,156.6 L 228.2,179.4" style="fill:none;fill-rule:evenodd;stroke:#000000;stroke-width:2.0px;stroke-linecap:butt;stroke-linejoin:miter;stroke-opacity:1"/>
<path class="bond-16 atom-14 atom-17" d="M 217.1,129.5 L 192.4,135.0" style="fill:none;fill-rule:evenodd;stroke:#000000;stroke-width:2.0px;stroke-linecap:butt;stroke-linejoin:miter;stroke-opacity:1"/>
<path class="bond-16 atom-14 atom-17" d="M 213.6,125.7 L 191.4,130.6" style="fill:none;fill-rule:evenodd;stroke:#000000;stroke-width:2.0px;stroke-linecap:butt;stroke-linejoin:miter;stroke-opacity:1"/>
<path class="bond-17 atom-17 atom-6" d="M 184.1,131.4 L 168.2,114.1" style="fill:none;fill-rule:evenodd;stroke:#000000;stroke-width:2.0px;stroke-linecap:butt;stroke-linejoin:miter;stroke-opacity:1"/>
<path d="M 69.4,83.6 L 70.6,83.4 L 71.6,84.5" style="fill:none;stroke:#000000;stroke-width:2.0px;stroke-linecap:butt;stroke-linejoin:miter;stroke-miterlimit:10;stroke-opacity:1;"/>
<path d="M 89.5,104.1 L 90.5,105.1 L 92.0,104.8" style="fill:none;stroke:#000000;stroke-width:2.0px;stroke-linecap:butt;stroke-linejoin:miter;stroke-miterlimit:10;stroke-opacity:1;"/>
<path d="M 118.0,99.1 L 119.4,98.7 L 120.2,99.6" style="fill:none;stroke:#000000;stroke-width:2.0px;stroke-linecap:butt;stroke-linejoin:miter;stroke-miterlimit:10;stroke-opacity:1;"/>
<path class="atom-1" d="M 37.9 89.8 Q 37.9 87.8, 38.9 86.7 Q 39.9 85.5, 41.7 85.5 Q 43.6 85.5, 44.6 86.7 Q 45.6 87.8, 45.6 89.8 Q 45.6 91.8, 44.6 93.0 Q 43.6 94.1, 41.7 94.1 Q 39.9 94.1, 38.9 93.0 Q 37.9 91.8, 37.9 89.8 M 41.7 93.2 Q 43.0 93.2, 43.7 92.3 Q 44.4 91.5, 44.4 89.8 Q 44.4 88.2, 43.7 87.3 Q 43.0 86.5, 41.7 86.5 Q 40.4 86.5, 39.7 87.3 Q 39.1 88.1, 39.1 89.8 Q 39.1 91.5, 39.7 92.3 Q 40.4 93.2, 41.7 93.2 " fill="#000000"/>
<path class="atom-5" d="M 137.5 116.3 L 140.3 120.8 Q 140.5 121.2, 141.0 122.0 Q 141.4 122.8, 141.4 122.8 L 141.4 116.3 L 142.6 116.3 L 142.6 124.7 L 141.4 124.7 L 138.5 119.8 Q 138.1 119.3, 137.8 118.6 Q 137.4 118.0, 137.3 117.8 L 137.3 124.7 L 136.2 124.7 L 136.2 116.3 L 137.5 116.3 " fill="#000000"/>
<path class="atom-5" d="M 136.1 125.5 L 137.2 125.5 L 137.2 129.1 L 141.5 129.1 L 141.5 125.5 L 142.7 125.5 L 142.7 133.9 L 141.5 133.9 L 141.5 130.0 L 137.2 130.0 L 137.2 133.9 L 136.1 133.9 L 136.1 125.5 " fill="#000000"/>
<path class="atom-7" d="M 175.3 81.7 L 178.0 86.2 Q 178.3 86.6, 178.7 87.4 Q 179.1 88.2, 179.2 88.2 L 179.2 81.7 L 180.3 81.7 L 180.3 90.1 L 179.1 90.1 L 176.2 85.2 Q 175.8 84.7, 175.5 84.0 Q 175.1 83.4, 175.0 83.2 L 175.0 90.1 L 173.9 90.1 L 173.9 81.7 L 175.3 81.7 " fill="#000000"/>
<path class="atom-9" d="M 203.5 47.1 L 204.6 47.1 L 204.6 50.7 L 208.9 50.7 L 208.9 47.1 L 210.0 47.1 L 210.0 55.5 L 208.9 55.5 L 208.9 51.6 L 204.6 51.6 L 204.6 55.5 L 203.5 55.5 L 203.5 47.1 " fill="#000000"/>
<path class="atom-9" d="M 213.0 47.1 L 215.7 51.6 Q 216.0 52.0, 216.4 52.8 Q 216.9 53.6, 216.9 53.6 L 216.9 47.1 L 218.0 47.1 L 218.0 55.5 L 216.9 55.5 L 213.9 50.6 Q 213.6 50.1, 213.2 49.4 Q 212.8 48.8, 212.7 48.6 L 212.7 55.5 L 211.6 55.5 L 211.6 47.1 L 213.0 47.1 " fill="#000000"/>
<path class="atom-13" d="M 224.1 97.1 L 226.8 101.5 Q 227.1 102.0, 227.5 102.8 Q 228.0 103.5, 228.0 103.6 L 228.0 97.1 L 229.1 97.1 L 229.1 105.5 L 228.0 105.5 L 225.0 100.6 Q 224.7 100.0, 224.3 99.4 Q 224.0 98.7, 223.8 98.5 L 223.8 105.5 L 222.8 105.5 L 222.8 97.1 L 224.1 97.1 " fill="#000000"/>
<path class="atom-15" d="M 234.7 154.1 Q 234.8 154.2, 235.2 154.3 Q 235.5 154.5, 236.0 154.6 Q 236.4 154.7, 236.8 154.7 Q 237.6 154.7, 238.1 154.3 Q 238.6 153.9, 238.6 153.2 Q 238.6 152.8, 238.3 152.5 Q 238.1 152.2, 237.7 152.1 Q 237.4 151.9, 236.8 151.7 Q 236.0 151.5, 235.6 151.3 Q 235.2 151.1, 234.8 150.6 Q 234.5 150.2, 234.5 149.4 Q 234.5 148.4, 235.2 147.7 Q 236.0 147.1, 237.4 147.1 Q 238.3 147.1, 239.4 147.5 L 239.2 148.4 Q 238.2 148.0, 237.4 148.0 Q 236.6 148.0, 236.2 148.4 Q 235.7 148.7, 235.7 149.3 Q 235.7 149.7, 235.9 150.0 Q 236.2 150.3, 236.5 150.4 Q 236.8 150.6, 237.4 150.8 Q 238.2 151.0, 238.6 151.2 Q 239.1 151.5, 239.4 152.0 Q 239.7 152.4, 239.7 153.2 Q 239.7 154.4, 238.9 155.0 Q 238.2 155.6, 236.9 155.6 Q 236.1 155.6, 235.6 155.5 Q 235.0 155.3, 234.4 155.1 L 234.7 154.1 " fill="#000000"/>
<path class="atom-17" d="M 186.4 131.7 L 189.1 136.1 Q 189.4 136.6, 189.8 137.4 Q 190.2 138.1, 190.3 138.2 L 190.3 131.7 L 191.4 131.7 L 191.4 140.1 L 190.2 140.1 L 187.3 135.2 Q 186.9 134.6, 186.6 134.0 Q 186.2 133.3, 186.1 133.1 L 186.1 140.1 L 185.0 140.1 L 185.0 131.7 L 186.4 131.7 " fill="#000000"/>
</svg>