<svg xmlns="http://www.w3.org/2000/svg" xmlns:rdkit="http://www.rdkit.org/xml" xmlns:xlink="http://www.w3.org/1999/xlink" version="1.1" baseProfile="full" xml:space="preserve" width="203px" height="165px" viewBox="0 0 203 165">
<!-- END OF HEADER -->
<rect style="opacity:1.0;fill:#FFFFFF;stroke:none" width="203.0" height="165.0" x="0.0" y="0.0"> </rect>
<ellipse cx="15.2" cy="131.5" rx="5.0" ry="5.0" class="atom-0" style="fill:#FF7F7F;fill-rule:evenodd;stroke:#FF7F7F;stroke-width:1.0px;stroke-linecap:butt;stroke-linejoin:miter;stroke-opacity:1"/>
<ellipse cx="44.7" cy="130.4" rx="5.0" ry="5.0" class="atom-1" style="fill:#FF7F7F;fill-rule:evenodd;stroke:#FF7F7F;stroke-width:1.0px;stroke-linecap:butt;stroke-linejoin:miter;stroke-opacity:1"/>
<ellipse cx="58.5" cy="104.4" rx="1.4" ry="1.4" class="atom-2" style="fill:#7F7FFF;fill-rule:evenodd;stroke:#7F7FFF;stroke-width:1.0px;stroke-linecap:butt;stroke-linejoin:miter;stroke-opacity:1"/>
<ellipse cx="42.9" cy="79.4" rx="1.4" ry="1.4" class="atom-3" style="fill:#7F7FFF;fill-rule:evenodd;stroke:#7F7FFF;stroke-width:1.0px;stroke-linecap:butt;stroke-linejoin:miter;stroke-opacity:1"/>
<ellipse cx="88.0" cy="103.4" rx="0.1" ry="0.1" class="atom-4" style="fill:#7F7FFF;fill-rule:evenodd;stroke:#7F7FFF;stroke-width:1.0px;stroke-linecap:butt;stroke-linejoin:miter;stroke-opacity:1"/>
<ellipse cx="101.8" cy="77.3" rx="17.0" ry="17.0" class="atom-5" style="fill:#7F7FFF;fill-rule:evenodd;stroke:#7F7FFF;stroke-width:1.0px;stroke-linecap:butt;stroke-linejoin:miter;stroke-opacity:1"/>
<ellipse cx="86.2" cy="52.3" rx="17.0" ry="17.0" class="atom-6" style="fill:#7F7FFF;fill-rule:evenodd;stroke:#7F7FFF;stroke-width:1.0px;stroke-linecap:butt;stroke-linejoin:miter;stroke-opacity:1"/>
<ellipse cx="100.1" cy="26.3" rx="17.0" ry="17.0" class="atom-7" style="fill:#7F7FFF;fill-rule:evenodd;stroke:#7F7FFF;stroke-width:1.0px;stroke-linecap:butt;stroke-linejoin:miter;stroke-opacity:1"/>
<ellipse cx="129.5" cy="25.3" rx="17.0" ry="17.0" class="atom-8" style="fill:#7F7FFF;fill-rule:evenodd;stroke:#7F7FFF;stroke-width:1.0px;stroke-linecap:butt;stroke-linejoin:miter;stroke-opacity:1"/>
<ellipse cx="145.2" cy="50.3" rx="17.0" ry="17.0" class="atom-9" style="fill:#7F7FFF;fill-rule:evenodd;stroke:#7F7FFF;stroke-width:1.0px;stroke-linecap:butt;stroke-linejoin:miter;stroke-opacity:1"/>
<ellipse cx="131.3" cy="76.3" rx="17.0" ry="17.0" class="atom-10" style="fill:#7F7FFF;fill-rule:evenodd;stroke:#7F7FFF;stroke-width:1.0px;stroke-linecap:butt;stroke-linejoin:miter;stroke-opacity:1"/>
<ellipse cx="146.9" cy="101.3" rx="8.6" ry="8.6" class="atom-11" style="fill:#FF7F7F;fill-rule:evenodd;stroke:#FF7F7F;stroke-width:1.0px;stroke-linecap:butt;stroke-linejoin:miter;stroke-opacity:1"/>
<ellipse cx="176.4" cy="103.4" rx="8.6" ry="8.6" class="atom-12" style="fill:#FF7F7F;fill-rule:evenodd;stroke:#FF7F7F;stroke-width:1.0px;stroke-linecap:butt;stroke-linejoin:miter;stroke-opacity:1"/>
<ellipse cx="183.5" cy="132.0" rx="8.6" ry="8.6" class="atom-13" style="fill:#FF7F7F;fill-rule:evenodd;stroke:#FF7F7F;stroke-width:1.0px;stroke-linecap:butt;stroke-linejoin:miter;stroke-opacity:1"/>
<ellipse cx="158.5" cy="147.6" rx="8.6" ry="8.6" class="atom-14" style="fill:#FF7F7F;fill-rule:evenodd;stroke:#FF7F7F;stroke-width:1.0px;stroke-linecap:butt;stroke-linejoin:miter;stroke-opacity:1"/>
<ellipse cx="135.9" cy="128.7" rx="8.6" ry="8.6" class="atom-15" style="fill:#FF7F7F;fill-rule:evenodd;stroke:#FF7F7F;stroke-width:1.0px;stroke-linecap:butt;stroke-linejoin:miter;stroke-opacity:1"/>
<path class="bond-0 atom-0 atom-1" d="M 15.2,131.5 L 40.5,130.6" style="fill:none;fill-rule:evenodd;stroke:#000000;stroke-width:2.0px;stroke-linecap:butt;stroke-linejoin:miter;stroke-opacity:1"/>
<path class="bond-1 atom-1 atom-2" d="M 47.4,125.3 L 58.5,104.4" style="fill:none;fill-rule:evenodd;stroke:#000000;stroke-width:2.0px;stroke-linecap:butt;stroke-linejoin:miter;stroke-opacity:1"/>
<path class="bond-2 atom-2 atom-3" d="M 61.1,104.3 L 48.1,83.5" style="fill:none;fill-rule:evenodd;stroke:#000000;stroke-width:2.0px;stroke-linecap:butt;stroke-linejoin:miter;stroke-opacity:1"/>
<path class="bond-2 atom-2 atom-3" d="M 57.3,106.7 L 44.4,85.9" style="fill:none;fill-rule:evenodd;stroke:#000000;stroke-width:2.0px;stroke-linecap:butt;stroke-linejoin:miter;stroke-opacity:1"/>
<path class="bond-3 atom-2 atom-4" d="M 58.5,104.4 L 83.2,103.5" style="fill:none;fill-rule:evenodd;stroke:#000000;stroke-width:2.0px;stroke-linecap:butt;stroke-linejoin:miter;stroke-opacity:1"/>
<path class="bond-4 atom-4 atom-5" d="M 90.8,98.2 L 101.8,77.3" style="fill:none;fill-rule:evenodd;stroke:#000000;stroke-width:2.0px;stroke-linecap:butt;stroke-linejoin:miter;stroke-opacity:1"/>
<path class="bond-5 atom-5 atom-6" d="M 101.8,77.3 L 86.2,52.3" style="fill:none;fill-rule:evenodd;stroke:#000000;stroke-width:2.0px;stroke-linecap:butt;stroke-linejoin:miter;stroke-opacity:1"/>
<path class="bond-5 atom-5 atom-6" d="M 104.2,72.8 L 91.3,52.2" style="fill:none;fill-rule:evenodd;stroke:#000000;stroke-width:2.0px;stroke-linecap:butt;stroke-linejoin:miter;stroke-opacity:1"/>
<path class="bond-6 atom-6 atom-7" d="M 86.2,52.3 L 100.1,26.3" style="fill:none;fill-rule:evenodd;stroke:#000000;stroke-width:2.0px;stroke-linecap:butt;stroke-linejoin:miter;stroke-opacity:1"/>
<path class="bond-7 atom-7 atom-8" d="M 100.1,26.3 L 129.5,25.3" style="fill:none;fill-rule:evenodd;stroke:#000000;stroke-width:2.0px;stroke-linecap:butt;stroke-linejoin:miter;stroke-opacity:1"/>
<path class="bond-7 atom-7 atom-8" d="M 102.8,30.6 L 127.1,29.8" style="fill:none;fill-rule:evenodd;stroke:#000000;stroke-width:2.0px;stroke-linecap:butt;stroke-linejoin:miter;stroke-opacity:1"/>
<path class="bond-8 atom-8 atom-9" d="M 129.5,25.3 L 145.2,50.3" style="fill:none;fill-rule:evenodd;stroke:#000000;stroke-width:2.0px;stroke-linecap:butt;stroke-linejoin:miter;stroke-opacity:1"/>
<path class="bond-9 atom-9 atom-10" d="M 145.2,50.3 L 131.3,76.3" style="fill:none;fill-rule:evenodd;stroke:#000000;stroke-width:2.0px;stroke-linecap:butt;stroke-linejoin:miter;stroke-opacity:1"/>
<path class="bond-9 atom-9 atom-10" d="M 140.1,50.5 L 128.6,72.0" style="fill:none;fill-rule:evenodd;stroke:#000000;stroke-width:2.0px;stroke-linecap:butt;stroke-linejoin:miter;stroke-opacity:1"/>
<path class="bond-10 atom-10 atom-11" d="M 131.3,76.3 L 146.9,101.3" style="fill:none;fill-rule:evenodd;stroke:#000000;stroke-width:2.0px;stroke-linecap:butt;stroke-linejoin:miter;stroke-opacity:1"/>
<path class="bond-11 atom-11 atom-12" d="M 146.9,101.3 L 171.6,103.1" style="fill:none;fill-rule:evenodd;stroke:#000000;stroke-width:2.0px;stroke-linecap:butt;stroke-linejoin:miter;stroke-opacity:1"/>
<path class="bond-12 atom-12 atom-13" d="M 177.7,108.7 L 183.5,132.0" style="fill:none;fill-rule:evenodd;stroke:#000000;stroke-width:2.0px;stroke-linecap:butt;stroke-linejoin:miter;stroke-opacity:1"/>
<path class="bond-13 atom-13 atom-14" d="M 183.5,132.0 L 158.5,147.6" style="fill:none;fill-rule:evenodd;stroke:#000000;stroke-width:2.0px;stroke-linecap:butt;stroke-linejoin:miter;stroke-opacity:1"/>
<path class="bond-14 atom-14 atom-15" d="M 158.5,147.6 L 140.7,132.7" style="fill:none;fill-rule:evenodd;stroke:#000000;stroke-width:2.0px;stroke-linecap:butt;stroke-linejoin:miter;stroke-opacity:1"/>
<path class="bond-15 atom-10 atom-5" d="M 131.3,76.3 L 101.8,77.3" style="fill:none;fill-rule:evenodd;stroke:#000000;stroke-width:2.0px;stroke-linecap:butt;stroke-linejoin:miter;stroke-opacity:1"/>
<path class="bond-16 atom-15 atom-11" d="M 138.0,123.5 L 146.9,101.3" style="fill:none;fill-rule:evenodd;stroke:#000000;stroke-width:2.0px;stroke-linecap:butt;stroke-linejoin:miter;stroke-opacity:1"/>
<path d="M 58.0,105.4 L 58.5,104.4 L 59.8,104.4" style="fill:none;stroke:#000000;stroke-width:2.0px;stroke-linecap:butt;stroke-linejoin:miter;stroke-miterlimit:10;stroke-opacity:1;"/>
<path d="M 87.0,53.6 L 86.2,52.3 L 86.9,51.0" style="fill:none;stroke:#000000;stroke-width:2.0px;stroke-linecap:butt;stroke-linejoin:miter;stroke-miterlimit:10;stroke-opacity:1;"/>
<path d="M 99.4,27.6 L 100.1,26.3 L 101.5,26.2" style="fill:none;stroke:#000000;stroke-width:2.0px;stroke-linecap:butt;stroke-linejoin:miter;stroke-miterlimit:10;stroke-opacity:1;"/>
<path d="M 128.1,25.3 L 129.5,25.3 L 130.3,26.5" style="fill:none;stroke:#000000;stroke-width:2.0px;stroke-linecap:butt;stroke-linejoin:miter;stroke-miterlimit:10;stroke-opacity:1;"/>
<path d="M 144.4,49.0 L 145.2,50.3 L 144.5,51.6" style="fill:none;stroke:#000000;stroke-width:2.0px;stroke-linecap:butt;stroke-linejoin:miter;stroke-miterlimit:10;stroke-opacity:1;"/>
<path d="M 183.2,130.8 L 183.5,132.0 L 182.2,132.8" style="fill:none;stroke:#000000;stroke-width:2.0px;stroke-linecap:butt;stroke-linejoin:miter;stroke-miterlimit:10;stroke-opacity:1;"/>
<path d="M 159.7,146.9 L 158.5,147.6 L 157.6,146.9" style="fill:none;stroke:#000000;stroke-width:2.0px;stroke-linecap:butt;stroke-linejoin:miter;stroke-miterlimit:10;stroke-opacity:1;"/>
<path class="atom-1" d="M 42.8 126.3 L 45.6 130.7 Q 45.8 131.1, 46.3 131.9 Q 46.7 132.7, 46.7 132.8 L 46.7 126.3 L 47.8 126.3 L 47.8 134.6 L 46.7 134.6 L 43.8 129.8 Q 43.4 129.2, 43.1 128.6 Q 42.7 127.9, 42.6 127.7 L 42.6 134.6 L 41.5 134.6 L 41.5 126.3 L 42.8 126.3 " fill="#000000"/>
<path class="atom-1" d="M 49.5 126.3 L 50.6 126.3 L 50.6 129.8 L 54.9 129.8 L 54.9 126.3 L 56.0 126.3 L 56.0 134.6 L 54.9 134.6 L 54.9 130.8 L 50.6 130.8 L 50.6 134.6 L 49.5 134.6 L 49.5 126.3 " fill="#000000"/>
<path class="atom-3" d="M 39.1 79.4 Q 39.1 77.4, 40.1 76.3 Q 41.1 75.2, 42.9 75.2 Q 44.8 75.2, 45.7 76.3 Q 46.7 77.4, 46.7 79.4 Q 46.7 81.4, 45.7 82.6 Q 44.7 83.7, 42.9 83.7 Q 41.1 83.7, 40.1 82.6 Q 39.1 81.5, 39.1 79.4 M 42.9 82.8 Q 44.2 82.8, 44.9 82.0 Q 45.6 81.1, 45.6 79.4 Q 45.6 77.8, 44.9 77.0 Q 44.2 76.1, 42.9 76.1 Q 41.6 76.1, 40.9 76.9 Q 40.3 77.8, 40.3 79.4 Q 40.3 81.1, 40.9 82.0 Q 41.6 82.8, 42.9 82.8 " fill="#000000"/>
<path class="atom-4" d="M 84.2 103.4 Q 84.2 101.4, 85.2 100.3 Q 86.1 99.2, 88.0 99.2 Q 89.9 99.2, 90.8 100.3 Q 91.8 101.4, 91.8 103.4 Q 91.8 105.4, 90.8 106.6 Q 89.8 107.7, 88.0 107.7 Q 86.2 107.7, 85.2 106.6 Q 84.2 105.4, 84.2 103.4 M 88.0 106.8 Q 89.3 106.8, 90.0 105.9 Q 90.7 105.1, 90.7 103.4 Q 90.7 101.8, 90.0 100.9 Q 89.3 100.1, 88.0 100.1 Q 86.7 100.1, 86.0 100.9 Q 85.3 101.8, 85.3 103.4 Q 85.3 105.1, 86.0 105.9 Q 86.7 106.8, 88.0 106.8 " fill="#000000"/>
<path class="atom-12" d="M 172.5 103.4 Q 172.5 101.4, 173.5 100.3 Q 174.5 99.2, 176.4 99.2 Q 178.2 99.2, 179.2 100.3 Q 180.2 101.4, 180.2 103.4 Q 180.2 105.4, 179.2 106.6 Q 178.2 107.7, 176.4 107.7 Q 174.5 107.7, 173.5 106.6 Q 172.5 105.5, 172.5 103.4 M 176.4 106.8 Q 177.6 106.8, 178.3 106.0 Q 179.0 105.1, 179.0 103.4 Q 179.0 101.8, 178.3 101.0 Q 177.6 100.1, 176.4 100.1 Q 175.1 100.1, 174.4 100.9 Q 173.7 101.8, 173.7 103.4 Q 173.7 105.1, 174.4 106.0 Q 175.1 106.8, 176.4 106.8 " fill="#000000"/>
<path class="atom-15" d="M 132.1 128.7 Q 132.1 126.7, 133.0 125.6 Q 134.0 124.4, 135.9 124.4 Q 137.7 124.4, 138.7 125.6 Q 139.7 126.7, 139.7 128.7 Q 139.7 130.7, 138.7 131.9 Q 137.7 133.0, 135.9 133.0 Q 134.0 133.0, 133.0 131.9 Q 132.1 130.7, 132.1 128.7 M 135.9 132.1 Q 137.2 132.1, 137.8 131.2 Q 138.5 130.4, 138.5 128.7 Q 138.5 127.1, 137.8 126.2 Q 137.2 125.4, 135.9 125.4 Q 134.6 125.4, 133.9 126.2 Q 133.2 127.0, 133.2 128.7 Q 133.2 130.4, 133.9 131.2 Q 134.6 132.1, 135.9 132.1 " fill="#000000"/>
</svg>