<svg xmlns="http://www.w3.org/2000/svg" xmlns:rdkit="http://www.rdkit.org/xml" xmlns:xlink="http://www.w3.org/1999/xlink" version="1.1" baseProfile="full" xml:space="preserve" width="213px" height="136px" viewBox="0 0 213 136">
<!-- END OF HEADER -->
<rect style="opacity:1.0;fill:#FFFFFF;stroke:none" width="213.0" height="136.0" x="0.0" y="0.0"> </rect>
<ellipse cx="13.8" cy="62.2" rx="2.6" ry="2.6" class="atom-0" style="fill:#FF7F7F;fill-rule:evenodd;stroke:#FF7F7F;stroke-width:1.0px;stroke-linecap:butt;stroke-linejoin:miter;stroke-opacity:1"/>
<ellipse cx="35.9" cy="81.5" rx="2.6" ry="2.6" class="atom-1" style="fill:#FF7F7F;fill-rule:evenodd;stroke:#FF7F7F;stroke-width:1.0px;stroke-linecap:butt;stroke-linejoin:miter;stroke-opacity:1"/>
<ellipse cx="30.2" cy="110.4" rx="2.6" ry="2.6" class="atom-2" style="fill:#FF7F7F;fill-rule:evenodd;stroke:#FF7F7F;stroke-width:1.0px;stroke-linecap:butt;stroke-linejoin:miter;stroke-opacity:1"/>
<ellipse cx="63.8" cy="72.1" rx="3.5" ry="3.5" class="atom-3" style="fill:#7F7FFF;fill-rule:evenodd;stroke:#7F7FFF;stroke-width:1.0px;stroke-linecap:butt;stroke-linejoin:miter;stroke-opacity:1"/>
<ellipse cx="69.5" cy="43.2" rx="3.5" ry="3.5" class="atom-4" style="fill:#7F7FFF;fill-rule:evenodd;stroke:#7F7FFF;stroke-width:1.0px;stroke-linecap:butt;stroke-linejoin:miter;stroke-opacity:1"/>
<ellipse cx="85.9" cy="91.4" rx="7.9" ry="7.9" class="atom-5" style="fill:#7F7FFF;fill-rule:evenodd;stroke:#7F7FFF;stroke-width:1.0px;stroke-linecap:butt;stroke-linejoin:miter;stroke-opacity:1"/>
<ellipse cx="113.8" cy="81.9" rx="7.9" ry="7.9" class="atom-6" style="fill:#7F7FFF;fill-rule:evenodd;stroke:#7F7FFF;stroke-width:1.0px;stroke-linecap:butt;stroke-linejoin:miter;stroke-opacity:1"/>
<ellipse cx="119.5" cy="53.1" rx="7.9" ry="7.9" class="atom-7" style="fill:#7F7FFF;fill-rule:evenodd;stroke:#7F7FFF;stroke-width:1.0px;stroke-linecap:butt;stroke-linejoin:miter;stroke-opacity:1"/>
<ellipse cx="147.3" cy="43.6" rx="7.9" ry="7.9" class="atom-8" style="fill:#7F7FFF;fill-rule:evenodd;stroke:#7F7FFF;stroke-width:1.0px;stroke-linecap:butt;stroke-linejoin:miter;stroke-opacity:1"/>
<ellipse cx="153.1" cy="14.7" rx="7.9" ry="7.9" class="atom-9" style="fill:#7F7FFF;fill-rule:evenodd;stroke:#7F7FFF;stroke-width:1.0px;stroke-linecap:butt;stroke-linejoin:miter;stroke-opacity:1"/>
<ellipse cx="169.5" cy="62.9" rx="7.9" ry="7.9" class="atom-10" style="fill:#7F7FFF;fill-rule:evenodd;stroke:#7F7FFF;stroke-width:1.0px;stroke-linecap:butt;stroke-linejoin:miter;stroke-opacity:1"/>
<ellipse cx="163.8" cy="91.8" rx="7.9" ry="7.9" class="atom-11" style="fill:#7F7FFF;fill-rule:evenodd;stroke:#7F7FFF;stroke-width:1.0px;stroke-linecap:butt;stroke-linejoin:miter;stroke-opacity:1"/>
<ellipse cx="193.2" cy="92.4" rx="7.9" ry="7.9" class="atom-12" style="fill:#7F7FFF;fill-rule:evenodd;stroke:#7F7FFF;stroke-width:1.0px;stroke-linecap:butt;stroke-linejoin:miter;stroke-opacity:1"/>
<ellipse cx="168.3" cy="120.9" rx="7.9" ry="7.9" class="atom-13" style="fill:#7F7FFF;fill-rule:evenodd;stroke:#7F7FFF;stroke-width:1.0px;stroke-linecap:butt;stroke-linejoin:miter;stroke-opacity:1"/>
<ellipse cx="135.9" cy="101.3" rx="7.9" ry="7.9" class="atom-14" style="fill:#7F7FFF;fill-rule:evenodd;stroke:#7F7FFF;stroke-width:1.0px;stroke-linecap:butt;stroke-linejoin:miter;stroke-opacity:1"/>
<path class="bond-0 atom-0 atom-1" d="M 13.8,62.2 L 31.8,77.9" style="fill:none;fill-rule:evenodd;stroke:#000000;stroke-width:2.0px;stroke-linecap:butt;stroke-linejoin:miter;stroke-opacity:1"/>
<path class="bond-1 atom-1 atom-2" d="M 34.9,86.7 L 30.2,110.4" style="fill:none;fill-rule:evenodd;stroke:#000000;stroke-width:2.0px;stroke-linecap:butt;stroke-linejoin:miter;stroke-opacity:1"/>
<path class="bond-2 atom-1 atom-3" d="M 40.1,80.1 L 63.8,72.1" style="fill:none;fill-rule:evenodd;stroke:#000000;stroke-width:2.0px;stroke-linecap:butt;stroke-linejoin:miter;stroke-opacity:1"/>
<path class="bond-3 atom-3 atom-4" d="M 65.7,73.7 L 70.6,48.9" style="fill:none;fill-rule:evenodd;stroke:#000000;stroke-width:2.0px;stroke-linecap:butt;stroke-linejoin:miter;stroke-opacity:1"/>
<path class="bond-3 atom-3 atom-4" d="M 61.4,72.9 L 66.3,48.1" style="fill:none;fill-rule:evenodd;stroke:#000000;stroke-width:2.0px;stroke-linecap:butt;stroke-linejoin:miter;stroke-opacity:1"/>
<path class="bond-4 atom-3 atom-5" d="M 63.8,72.1 L 81.1,87.2" style="fill:none;fill-rule:evenodd;stroke:#000000;stroke-width:2.0px;stroke-linecap:butt;stroke-linejoin:miter;stroke-opacity:1"/>
<path class="bond-5 atom-5 atom-6" d="M 90.7,89.8 L 113.8,81.9" style="fill:none;fill-rule:evenodd;stroke:#000000;stroke-width:2.0px;stroke-linecap:butt;stroke-linejoin:miter;stroke-opacity:1"/>
<path class="bond-6 atom-6 atom-7" d="M 113.8,81.9 L 119.5,53.1" style="fill:none;fill-rule:evenodd;stroke:#000000;stroke-width:2.0px;stroke-linecap:butt;stroke-linejoin:miter;stroke-opacity:1"/>
<path class="bond-6 atom-6 atom-7" d="M 118.6,80.3 L 123.3,56.4" style="fill:none;fill-rule:evenodd;stroke:#000000;stroke-width:2.0px;stroke-linecap:butt;stroke-linejoin:miter;stroke-opacity:1"/>
<path class="bond-7 atom-7 atom-8" d="M 119.5,53.1 L 147.3,43.6" style="fill:none;fill-rule:evenodd;stroke:#000000;stroke-width:2.0px;stroke-linecap:butt;stroke-linejoin:miter;stroke-opacity:1"/>
<path class="bond-8 atom-8 atom-9" d="M 149.3,45.3 L 154.2,20.4" style="fill:none;fill-rule:evenodd;stroke:#000000;stroke-width:2.0px;stroke-linecap:butt;stroke-linejoin:miter;stroke-opacity:1"/>
<path class="bond-8 atom-8 atom-9" d="M 144.9,44.4 L 149.8,19.6" style="fill:none;fill-rule:evenodd;stroke:#000000;stroke-width:2.0px;stroke-linecap:butt;stroke-linejoin:miter;stroke-opacity:1"/>
<path class="bond-9 atom-8 atom-10" d="M 147.3,43.6 L 169.5,62.9" style="fill:none;fill-rule:evenodd;stroke:#000000;stroke-width:2.0px;stroke-linecap:butt;stroke-linejoin:miter;stroke-opacity:1"/>
<path class="bond-10 atom-10 atom-11" d="M 169.5,62.9 L 163.8,91.8" style="fill:none;fill-rule:evenodd;stroke:#000000;stroke-width:2.0px;stroke-linecap:butt;stroke-linejoin:miter;stroke-opacity:1"/>
<path class="bond-11 atom-11 atom-12" d="M 163.8,91.8 L 193.2,92.4" style="fill:none;fill-rule:evenodd;stroke:#000000;stroke-width:2.0px;stroke-linecap:butt;stroke-linejoin:miter;stroke-opacity:1"/>
<path class="bond-12 atom-11 atom-13" d="M 163.8,91.8 L 168.3,120.9" style="fill:none;fill-rule:evenodd;stroke:#000000;stroke-width:2.0px;stroke-linecap:butt;stroke-linejoin:miter;stroke-opacity:1"/>
<path class="bond-13 atom-11 atom-14" d="M 163.8,91.8 L 135.9,101.3" style="fill:none;fill-rule:evenodd;stroke:#000000;stroke-width:2.0px;stroke-linecap:butt;stroke-linejoin:miter;stroke-opacity:1"/>
<path class="bond-14 atom-14 atom-6" d="M 135.9,101.3 L 113.8,81.9" style="fill:none;fill-rule:evenodd;stroke:#000000;stroke-width:2.0px;stroke-linecap:butt;stroke-linejoin:miter;stroke-opacity:1"/>
<path d="M 62.6,72.5 L 63.8,72.1 L 64.7,72.8" style="fill:none;stroke:#000000;stroke-width:2.0px;stroke-linecap:butt;stroke-linejoin:miter;stroke-miterlimit:10;stroke-opacity:1;"/>
<path d="M 119.2,54.5 L 119.5,53.1 L 120.9,52.6" style="fill:none;stroke:#000000;stroke-width:2.0px;stroke-linecap:butt;stroke-linejoin:miter;stroke-miterlimit:10;stroke-opacity:1;"/>
<path d="M 146.0,44.0 L 147.3,43.6 L 148.5,44.5" style="fill:none;stroke:#000000;stroke-width:2.0px;stroke-linecap:butt;stroke-linejoin:miter;stroke-miterlimit:10;stroke-opacity:1;"/>
<path d="M 168.4,62.0 L 169.5,62.9 L 169.2,64.4" style="fill:none;stroke:#000000;stroke-width:2.0px;stroke-linecap:butt;stroke-linejoin:miter;stroke-miterlimit:10;stroke-opacity:1;"/>
<path d="M 137.3,100.8 L 135.9,101.3 L 134.8,100.3" style="fill:none;stroke:#000000;stroke-width:2.0px;stroke-linecap:butt;stroke-linejoin:miter;stroke-miterlimit:10;stroke-opacity:1;"/>
<path class="atom-1" d="M 34.1 77.4 L 36.8 81.8 Q 37.1 82.2, 37.5 83.0 Q 38.0 83.8, 38.0 83.9 L 38.0 77.4 L 39.1 77.4 L 39.1 85.7 L 38.0 85.7 L 35.0 80.9 Q 34.7 80.3, 34.3 79.7 Q 34.0 79.0, 33.9 78.8 L 33.9 85.7 L 32.8 85.7 L 32.8 77.4 L 34.1 77.4 " fill="#000000"/>
<path class="atom-4" d="M 65.7 43.2 Q 65.7 41.2, 66.7 40.1 Q 67.6 39.0, 69.5 39.0 Q 71.3 39.0, 72.3 40.1 Q 73.3 41.2, 73.3 43.2 Q 73.3 45.2, 72.3 46.4 Q 71.3 47.5, 69.5 47.5 Q 67.7 47.5, 66.7 46.4 Q 65.7 45.2, 65.7 43.2 M 69.5 46.6 Q 70.8 46.6, 71.5 45.7 Q 72.1 44.9, 72.1 43.2 Q 72.1 41.6, 71.5 40.7 Q 70.8 39.9, 69.5 39.9 Q 68.2 39.9, 67.5 40.7 Q 66.8 41.6, 66.8 43.2 Q 66.8 44.9, 67.5 45.7 Q 68.2 46.6, 69.5 46.6 " fill="#000000"/>
<path class="atom-5" d="M 82.1 91.4 Q 82.1 89.4, 83.1 88.3 Q 84.1 87.2, 85.9 87.2 Q 87.8 87.2, 88.8 88.3 Q 89.8 89.4, 89.8 91.4 Q 89.8 93.5, 88.8 94.6 Q 87.8 95.8, 85.9 95.8 Q 84.1 95.8, 83.1 94.6 Q 82.1 93.5, 82.1 91.4 M 85.9 94.8 Q 87.2 94.8, 87.9 94.0 Q 88.6 93.1, 88.6 91.4 Q 88.6 89.8, 87.9 89.0 Q 87.2 88.2, 85.9 88.2 Q 84.7 88.2, 84.0 89.0 Q 83.3 89.8, 83.3 91.4 Q 83.3 93.1, 84.0 94.0 Q 84.7 94.8, 85.9 94.8 " fill="#000000"/>
<path class="atom-9" d="M 149.2 14.7 Q 149.2 12.7, 150.2 11.6 Q 151.2 10.5, 153.1 10.5 Q 154.9 10.5, 155.9 11.6 Q 156.9 12.7, 156.9 14.7 Q 156.9 16.8, 155.9 17.9 Q 154.9 19.0, 153.1 19.0 Q 151.2 19.0, 150.2 17.9 Q 149.2 16.8, 149.2 14.7 M 153.1 18.1 Q 154.3 18.1, 155.0 17.3 Q 155.7 16.4, 155.7 14.7 Q 155.7 13.1, 155.0 12.3 Q 154.3 11.4, 153.1 11.4 Q 151.8 11.4, 151.1 12.3 Q 150.4 13.1, 150.4 14.7 Q 150.4 16.4, 151.1 17.3 Q 151.8 18.1, 153.1 18.1 " fill="#000000"/>
</svg>