<svg xmlns="http://www.w3.org/2000/svg" xmlns:rdkit="http://www.rdkit.org/xml" xmlns:xlink="http://www.w3.org/1999/xlink" version="1.1" baseProfile="full" xml:space="preserve" width="241px" height="107px" viewBox="0 0 241 107">
<!-- END OF HEADER -->
<rect style="opacity:1.0;fill:#FFFFFF;stroke:none" width="241.0" height="107.0" x="0.0" y="0.0"> </rect>
<ellipse cx="147.8" cy="98.0" rx="3.3" ry="3.3" class="atom-0" style="fill:#7F7FFF;fill-rule:evenodd;stroke:#7F7FFF;stroke-width:1.0px;stroke-linecap:butt;stroke-linejoin:miter;stroke-opacity:1"/>
<ellipse cx="173.4" cy="83.3" rx="3.3" ry="3.3" class="atom-1" style="fill:#7F7FFF;fill-rule:evenodd;stroke:#7F7FFF;stroke-width:1.0px;stroke-linecap:butt;stroke-linejoin:miter;stroke-opacity:1"/>
<ellipse cx="198.9" cy="98.0" rx="3.3" ry="3.3" class="atom-2" style="fill:#7F7FFF;fill-rule:evenodd;stroke:#7F7FFF;stroke-width:1.0px;stroke-linecap:butt;stroke-linejoin:miter;stroke-opacity:1"/>
<ellipse cx="173.4" cy="53.8" rx="13.5" ry="13.5" class="atom-3" style="fill:#7F7FFF;fill-rule:evenodd;stroke:#7F7FFF;stroke-width:1.0px;stroke-linecap:butt;stroke-linejoin:miter;stroke-opacity:1"/>
<ellipse cx="147.8" cy="39.1" rx="0.0" ry="0.0" class="atom-4" style="fill:#7F7FFF;fill-rule:evenodd;stroke:#7F7FFF;stroke-width:1.0px;stroke-linecap:butt;stroke-linejoin:miter;stroke-opacity:1"/>
<ellipse cx="147.8" cy="9.6" rx="0.0" ry="0.0" class="atom-5" style="fill:#7F7FFF;fill-rule:evenodd;stroke:#7F7FFF;stroke-width:1.0px;stroke-linecap:butt;stroke-linejoin:miter;stroke-opacity:1"/>
<ellipse cx="122.3" cy="53.8" rx="0.0" ry="0.0" class="atom-6" style="fill:#7F7FFF;fill-rule:evenodd;stroke:#7F7FFF;stroke-width:1.0px;stroke-linecap:butt;stroke-linejoin:miter;stroke-opacity:1"/>
<ellipse cx="96.8" cy="39.1" rx="7.0" ry="7.0" class="atom-7" style="fill:#FF7F7F;fill-rule:evenodd;stroke:#FF7F7F;stroke-width:1.0px;stroke-linecap:butt;stroke-linejoin:miter;stroke-opacity:1"/>
<ellipse cx="71.2" cy="53.8" rx="7.0" ry="7.0" class="atom-8" style="fill:#FF7F7F;fill-rule:evenodd;stroke:#FF7F7F;stroke-width:1.0px;stroke-linecap:butt;stroke-linejoin:miter;stroke-opacity:1"/>
<ellipse cx="71.2" cy="83.3" rx="7.0" ry="7.0" class="atom-9" style="fill:#FF7F7F;fill-rule:evenodd;stroke:#FF7F7F;stroke-width:1.0px;stroke-linecap:butt;stroke-linejoin:miter;stroke-opacity:1"/>
<ellipse cx="45.7" cy="39.1" rx="7.0" ry="7.0" class="atom-10" style="fill:#FF7F7F;fill-rule:evenodd;stroke:#FF7F7F;stroke-width:1.0px;stroke-linecap:butt;stroke-linejoin:miter;stroke-opacity:1"/>
<ellipse cx="20.2" cy="53.8" rx="7.0" ry="7.0" class="atom-11" style="fill:#FF7F7F;fill-rule:evenodd;stroke:#FF7F7F;stroke-width:1.0px;stroke-linecap:butt;stroke-linejoin:miter;stroke-opacity:1"/>
<ellipse cx="198.9" cy="39.1" rx="3.3" ry="3.3" class="atom-12" style="fill:#7F7FFF;fill-rule:evenodd;stroke:#7F7FFF;stroke-width:1.0px;stroke-linecap:butt;stroke-linejoin:miter;stroke-opacity:1"/>
<ellipse cx="198.9" cy="9.6" rx="3.3" ry="3.3" class="atom-13" style="fill:#7F7FFF;fill-rule:evenodd;stroke:#7F7FFF;stroke-width:1.0px;stroke-linecap:butt;stroke-linejoin:miter;stroke-opacity:1"/>
<ellipse cx="224.4" cy="53.8" rx="3.3" ry="3.3" class="atom-14" style="fill:#7F7FFF;fill-rule:evenodd;stroke:#7F7FFF;stroke-width:1.0px;stroke-linecap:butt;stroke-linejoin:miter;stroke-opacity:1"/>
<path class="bond-0 atom-0 atom-1" d="M 147.8,98.0 L 173.4,83.3" style="fill:none;fill-rule:evenodd;stroke:#000000;stroke-width:2.0px;stroke-linecap:butt;stroke-linejoin:miter;stroke-opacity:1"/>
<path class="bond-1 atom-1 atom-2" d="M 173.4,83.3 L 198.9,98.0" style="fill:none;fill-rule:evenodd;stroke:#000000;stroke-width:2.0px;stroke-linecap:butt;stroke-linejoin:miter;stroke-opacity:1"/>
<path class="bond-2 atom-1 atom-3" d="M 173.4,83.3 L 173.4,58.9" style="fill:none;fill-rule:evenodd;stroke:#000000;stroke-width:2.0px;stroke-linecap:butt;stroke-linejoin:miter;stroke-opacity:1"/>
<path class="bond-3 atom-3 atom-4" d="M 169.2,51.4 L 147.8,39.1" style="fill:none;fill-rule:evenodd;stroke:#000000;stroke-width:2.0px;stroke-linecap:butt;stroke-linejoin:miter;stroke-opacity:1"/>
<path class="bond-4 atom-4 atom-5" d="M 150.0,40.3 L 150.0,14.9" style="fill:none;fill-rule:evenodd;stroke:#000000;stroke-width:2.0px;stroke-linecap:butt;stroke-linejoin:miter;stroke-opacity:1"/>
<path class="bond-4 atom-4 atom-5" d="M 145.6,40.3 L 145.6,14.9" style="fill:none;fill-rule:evenodd;stroke:#000000;stroke-width:2.0px;stroke-linecap:butt;stroke-linejoin:miter;stroke-opacity:1"/>
<path class="bond-5 atom-4 atom-6" d="M 147.8,39.1 L 125.9,51.7" style="fill:none;fill-rule:evenodd;stroke:#000000;stroke-width:2.0px;stroke-linecap:butt;stroke-linejoin:miter;stroke-opacity:1"/>
<path class="bond-6 atom-6 atom-7" d="M 118.6,51.7 L 96.8,39.1" style="fill:none;fill-rule:evenodd;stroke:#000000;stroke-width:2.0px;stroke-linecap:butt;stroke-linejoin:miter;stroke-opacity:1"/>
<path class="bond-7 atom-7 atom-8" d="M 96.8,39.1 L 71.2,53.8" style="fill:none;fill-rule:evenodd;stroke:#000000;stroke-width:2.0px;stroke-linecap:butt;stroke-linejoin:miter;stroke-opacity:1"/>
<path class="bond-8 atom-8 atom-9" d="M 71.2,53.8 L 71.2,78.3" style="fill:none;fill-rule:evenodd;stroke:#000000;stroke-width:2.0px;stroke-linecap:butt;stroke-linejoin:miter;stroke-opacity:1"/>
<path class="bond-9 atom-8 atom-10" d="M 71.2,53.8 L 45.7,39.1" style="fill:none;fill-rule:evenodd;stroke:#000000;stroke-width:2.0px;stroke-linecap:butt;stroke-linejoin:miter;stroke-opacity:1"/>
<path class="bond-9 atom-8 atom-10" d="M 66.8,56.3 L 45.7,44.2" style="fill:none;fill-rule:evenodd;stroke:#000000;stroke-width:2.0px;stroke-linecap:butt;stroke-linejoin:miter;stroke-opacity:1"/>
<path class="bond-10 atom-10 atom-11" d="M 45.7,39.1 L 21.7,52.9" style="fill:none;fill-rule:evenodd;stroke:#000000;stroke-width:2.0px;stroke-linecap:butt;stroke-linejoin:miter;stroke-opacity:1"/>
<path class="bond-11 atom-3 atom-12" d="M 177.5,51.4 L 198.9,39.1" style="fill:none;fill-rule:evenodd;stroke:#000000;stroke-width:2.0px;stroke-linecap:butt;stroke-linejoin:miter;stroke-opacity:1"/>
<path class="bond-12 atom-12 atom-13" d="M 198.9,39.1 L 198.9,9.6" style="fill:none;fill-rule:evenodd;stroke:#000000;stroke-width:2.0px;stroke-linecap:butt;stroke-linejoin:miter;stroke-opacity:1"/>
<path class="bond-13 atom-12 atom-14" d="M 198.9,39.1 L 224.4,53.8" style="fill:none;fill-rule:evenodd;stroke:#000000;stroke-width:2.0px;stroke-linecap:butt;stroke-linejoin:miter;stroke-opacity:1"/>
<path d="M 148.9,39.7 L 147.8,39.1 L 146.7,39.7" style="fill:none;stroke:#000000;stroke-width:2.0px;stroke-linecap:butt;stroke-linejoin:miter;stroke-miterlimit:10;stroke-opacity:1;"/>
<path d="M 97.9,39.7 L 96.8,39.1 L 95.5,39.8" style="fill:none;stroke:#000000;stroke-width:2.0px;stroke-linecap:butt;stroke-linejoin:miter;stroke-miterlimit:10;stroke-opacity:1;"/>
<path d="M 47.0,39.8 L 45.7,39.1 L 44.5,39.7" style="fill:none;stroke:#000000;stroke-width:2.0px;stroke-linecap:butt;stroke-linejoin:miter;stroke-miterlimit:10;stroke-opacity:1;"/>
<path class="atom-3" d="M 171.5 49.6 L 174.2 54.0 Q 174.5 54.5, 175.0 55.3 Q 175.4 56.1, 175.4 56.1 L 175.4 49.6 L 176.5 49.6 L 176.5 58.0 L 175.4 58.0 L 172.4 53.1 Q 172.1 52.6, 171.7 51.9 Q 171.4 51.3, 171.3 51.1 L 171.3 58.0 L 170.2 58.0 L 170.2 49.6 L 171.5 49.6 " fill="#000000"/>
<path class="atom-5" d="M 144.0 9.6 Q 144.0 7.6, 145.0 6.5 Q 146.0 5.3, 147.8 5.3 Q 149.7 5.3, 150.7 6.5 Q 151.7 7.6, 151.7 9.6 Q 151.7 11.6, 150.7 12.8 Q 149.7 13.9, 147.8 13.9 Q 146.0 13.9, 145.0 12.8 Q 144.0 11.6, 144.0 9.6 M 147.8 13.0 Q 149.1 13.0, 149.8 12.1 Q 150.5 11.3, 150.5 9.6 Q 150.5 8.0, 149.8 7.1 Q 149.1 6.3, 147.8 6.3 Q 146.6 6.3, 145.9 7.1 Q 145.2 7.9, 145.2 9.6 Q 145.2 11.3, 145.9 12.1 Q 146.6 13.0, 147.8 13.0 " fill="#000000"/>
<path class="atom-6" d="M 119.9 56.7 Q 120.0 56.7, 120.4 56.9 Q 120.8 57.0, 121.2 57.1 Q 121.7 57.2, 122.1 57.2 Q 122.9 57.2, 123.3 56.8 Q 123.8 56.5, 123.8 55.8 Q 123.8 55.3, 123.6 55.0 Q 123.3 54.8, 123.0 54.6 Q 122.6 54.5, 122.0 54.3 Q 121.3 54.1, 120.9 53.8 Q 120.4 53.6, 120.1 53.2 Q 119.8 52.7, 119.8 52.0 Q 119.8 50.9, 120.5 50.3 Q 121.2 49.6, 122.6 49.6 Q 123.6 49.6, 124.7 50.1 L 124.4 51.0 Q 123.4 50.6, 122.7 50.6 Q 121.9 50.6, 121.4 50.9 Q 121.0 51.3, 121.0 51.8 Q 121.0 52.3, 121.2 52.6 Q 121.4 52.8, 121.8 53.0 Q 122.1 53.1, 122.7 53.3 Q 123.4 53.5, 123.9 53.8 Q 124.3 54.0, 124.6 54.5 Q 125.0 55.0, 125.0 55.8 Q 125.0 56.9, 124.2 57.6 Q 123.4 58.2, 122.1 58.2 Q 121.4 58.2, 120.8 58.0 Q 120.3 57.9, 119.6 57.6 L 119.9 56.7 " fill="#000000"/>
<path class="atom-9" d="M 68.0 83.6 Q 68.0 81.5, 69.0 80.4 Q 70.0 79.3, 71.8 79.3 Q 73.5 79.3, 74.5 80.5 L 73.7 81.2 Q 73.0 80.3, 71.8 80.3 Q 70.6 80.3, 69.9 81.1 Q 69.2 82.0, 69.2 83.6 Q 69.2 85.2, 69.9 86.1 Q 70.6 86.9, 71.9 86.9 Q 72.9 86.9, 73.9 86.4 L 74.3 87.2 Q 73.8 87.5, 73.2 87.7 Q 72.5 87.9, 71.8 87.9 Q 70.0 87.9, 69.0 86.7 Q 68.0 85.6, 68.0 83.6 " fill="#000000"/>
<path class="atom-9" d="M 75.3 78.8 L 76.4 78.8 L 76.4 87.7 L 75.3 87.7 L 75.3 78.8 " fill="#000000"/>
<path class="atom-11" d="M 12.3 54.1 Q 12.3 52.0, 13.3 50.9 Q 14.3 49.8, 16.1 49.8 Q 17.9 49.8, 18.8 51.0 L 18.0 51.7 Q 17.3 50.8, 16.1 50.8 Q 14.9 50.8, 14.2 51.6 Q 13.5 52.5, 13.5 54.1 Q 13.5 55.7, 14.2 56.6 Q 14.9 57.4, 16.3 57.4 Q 17.2 57.4, 18.3 56.9 L 18.6 57.8 Q 18.2 58.0, 17.5 58.2 Q 16.8 58.4, 16.1 58.4 Q 14.3 58.4, 13.3 57.3 Q 12.3 56.2, 12.3 54.1 " fill="#000000"/>
<path class="atom-11" d="M 19.6 49.3 L 20.7 49.3 L 20.7 58.3 L 19.6 58.3 L 19.6 49.3 " fill="#000000"/>
</svg>