<svg xmlns="http://www.w3.org/2000/svg" xmlns:rdkit="http://www.rdkit.org/xml" xmlns:xlink="http://www.w3.org/1999/xlink" version="1.1" baseProfile="full" xml:space="preserve" width="212px" height="164px" viewBox="0 0 212 164">
<!-- END OF HEADER -->
<rect style="opacity:1.0;fill:#FFFFFF;stroke:none" width="212.0" height="164.0" x="0.0" y="0.0"> </rect>
<ellipse cx="17.9" cy="148.1" rx="7.1" ry="7.1" class="atom-0" style="fill:#7FBF7F;fill-rule:evenodd;stroke:#7FBF7F;stroke-width:1.0px;stroke-linecap:butt;stroke-linejoin:miter;stroke-opacity:1"/>
<ellipse cx="30.0" cy="121.2" rx="7.4" ry="7.4" class="atom-1" style="fill:#7FBF7F;fill-rule:evenodd;stroke:#7FBF7F;stroke-width:1.0px;stroke-linecap:butt;stroke-linejoin:miter;stroke-opacity:1"/>
<ellipse cx="59.3" cy="118.2" rx="6.4" ry="6.4" class="atom-2" style="fill:#7FBF7F;fill-rule:evenodd;stroke:#7FBF7F;stroke-width:1.0px;stroke-linecap:butt;stroke-linejoin:miter;stroke-opacity:1"/>
<ellipse cx="71.4" cy="91.3" rx="6.9" ry="6.9" class="atom-3" style="fill:#7FBF7F;fill-rule:evenodd;stroke:#7FBF7F;stroke-width:1.0px;stroke-linecap:butt;stroke-linejoin:miter;stroke-opacity:1"/>
<ellipse cx="54.2" cy="67.4" rx="7.5" ry="7.5" class="atom-4" style="fill:#7FBF7F;fill-rule:evenodd;stroke:#7FBF7F;stroke-width:1.0px;stroke-linecap:butt;stroke-linejoin:miter;stroke-opacity:1"/>
<ellipse cx="66.2" cy="40.5" rx="7.5" ry="7.5" class="atom-5" style="fill:#7FBF7F;fill-rule:evenodd;stroke:#7FBF7F;stroke-width:1.0px;stroke-linecap:butt;stroke-linejoin:miter;stroke-opacity:1"/>
<ellipse cx="49.0" cy="16.6" rx="8.4" ry="8.4" class="atom-6" style="fill:#7FBF7F;fill-rule:evenodd;stroke:#7FBF7F;stroke-width:1.0px;stroke-linecap:butt;stroke-linejoin:miter;stroke-opacity:1"/>
<ellipse cx="95.6" cy="37.5" rx="7.3" ry="7.3" class="atom-7" style="fill:#7FBF7F;fill-rule:evenodd;stroke:#7FBF7F;stroke-width:1.0px;stroke-linecap:butt;stroke-linejoin:miter;stroke-opacity:1"/>
<ellipse cx="112.8" cy="61.5" rx="7.5" ry="7.5" class="atom-8" style="fill:#7FBF7F;fill-rule:evenodd;stroke:#7FBF7F;stroke-width:1.0px;stroke-linecap:butt;stroke-linejoin:miter;stroke-opacity:1"/>
<ellipse cx="142.2" cy="58.5" rx="7.2" ry="7.2" class="atom-9" style="fill:#7FBF7F;fill-rule:evenodd;stroke:#7FBF7F;stroke-width:1.0px;stroke-linecap:butt;stroke-linejoin:miter;stroke-opacity:1"/>
<ellipse cx="159.4" cy="82.4" rx="9.5" ry="9.5" class="atom-10" style="fill:#7FBF7F;fill-rule:evenodd;stroke:#7FBF7F;stroke-width:1.0px;stroke-linecap:butt;stroke-linejoin:miter;stroke-opacity:1"/>
<ellipse cx="183.3" cy="65.1" rx="7.8" ry="7.8" class="atom-11" style="fill:#7FBF7F;fill-rule:evenodd;stroke:#7FBF7F;stroke-width:1.0px;stroke-linecap:butt;stroke-linejoin:miter;stroke-opacity:1"/>
<ellipse cx="135.5" cy="99.6" rx="7.2" ry="7.2" class="atom-12" style="fill:#7FBF7F;fill-rule:evenodd;stroke:#7FBF7F;stroke-width:1.0px;stroke-linecap:butt;stroke-linejoin:miter;stroke-opacity:1"/>
<ellipse cx="176.7" cy="106.3" rx="6.8" ry="6.8" class="atom-13" style="fill:#7FBF7F;fill-rule:evenodd;stroke:#7FBF7F;stroke-width:1.0px;stroke-linecap:butt;stroke-linejoin:miter;stroke-opacity:1"/>
<ellipse cx="193.9" cy="130.2" rx="6.4" ry="6.4" class="atom-14" style="fill:#7FBF7F;fill-rule:evenodd;stroke:#7FBF7F;stroke-width:1.0px;stroke-linecap:butt;stroke-linejoin:miter;stroke-opacity:1"/>
<ellipse cx="100.8" cy="88.4" rx="6.8" ry="6.8" class="atom-15" style="fill:#7FBF7F;fill-rule:evenodd;stroke:#7FBF7F;stroke-width:1.0px;stroke-linecap:butt;stroke-linejoin:miter;stroke-opacity:1"/>
<path class="bond-0 atom-0 atom-1" d="M 17.9,148.1 L 30.0,121.2" style="fill:none;fill-rule:evenodd;stroke:#000000;stroke-width:2.0px;stroke-linecap:butt;stroke-linejoin:miter;stroke-opacity:1"/>
<path class="bond-1 atom-1 atom-2" d="M 30.0,121.2 L 55.2,118.7" style="fill:none;fill-rule:evenodd;stroke:#000000;stroke-width:2.0px;stroke-linecap:butt;stroke-linejoin:miter;stroke-opacity:1"/>
<path class="bond-2 atom-2 atom-3" d="M 61.6,113.1 L 71.4,91.3" style="fill:none;fill-rule:evenodd;stroke:#000000;stroke-width:2.0px;stroke-linecap:butt;stroke-linejoin:miter;stroke-opacity:1"/>
<path class="bond-3 atom-3 atom-4" d="M 71.4,91.3 L 57.9,72.6" style="fill:none;fill-rule:evenodd;stroke:#000000;stroke-width:2.0px;stroke-linecap:butt;stroke-linejoin:miter;stroke-opacity:1"/>
<path class="bond-3 atom-3 atom-4" d="M 73.5,86.7 L 61.5,70.0" style="fill:none;fill-rule:evenodd;stroke:#000000;stroke-width:2.0px;stroke-linecap:butt;stroke-linejoin:miter;stroke-opacity:1"/>
<path class="bond-4 atom-4 atom-5" d="M 56.5,62.3 L 66.2,40.5" style="fill:none;fill-rule:evenodd;stroke:#000000;stroke-width:2.0px;stroke-linecap:butt;stroke-linejoin:miter;stroke-opacity:1"/>
<path class="bond-5 atom-5 atom-6" d="M 66.2,40.5 L 50.5,18.7" style="fill:none;fill-rule:evenodd;stroke:#000000;stroke-width:2.0px;stroke-linecap:butt;stroke-linejoin:miter;stroke-opacity:1"/>
<path class="bond-6 atom-5 atom-7" d="M 66.2,40.5 L 91.4,38.0" style="fill:none;fill-rule:evenodd;stroke:#000000;stroke-width:2.0px;stroke-linecap:butt;stroke-linejoin:miter;stroke-opacity:1"/>
<path class="bond-6 atom-5 atom-7" d="M 69.2,44.7 L 91.9,42.4" style="fill:none;fill-rule:evenodd;stroke:#000000;stroke-width:2.0px;stroke-linecap:butt;stroke-linejoin:miter;stroke-opacity:1"/>
<path class="bond-7 atom-7 atom-8" d="M 99.3,42.7 L 112.8,61.5" style="fill:none;fill-rule:evenodd;stroke:#000000;stroke-width:2.0px;stroke-linecap:butt;stroke-linejoin:miter;stroke-opacity:1"/>
<path class="bond-8 atom-8 atom-9" d="M 112.8,61.5 L 138.0,58.9" style="fill:none;fill-rule:evenodd;stroke:#000000;stroke-width:2.0px;stroke-linecap:butt;stroke-linejoin:miter;stroke-opacity:1"/>
<path class="bond-9 atom-9 atom-10" d="M 145.9,63.6 L 159.4,82.4" style="fill:none;fill-rule:evenodd;stroke:#000000;stroke-width:2.0px;stroke-linecap:butt;stroke-linejoin:miter;stroke-opacity:1"/>
<path class="bond-10 atom-10 atom-11" d="M 159.4,82.4 L 183.3,65.1" style="fill:none;fill-rule:evenodd;stroke:#000000;stroke-width:2.0px;stroke-linecap:butt;stroke-linejoin:miter;stroke-opacity:1"/>
<path class="bond-11 atom-10 atom-12" d="M 159.4,82.4 L 135.5,99.6" style="fill:none;fill-rule:evenodd;stroke:#000000;stroke-width:2.0px;stroke-linecap:butt;stroke-linejoin:miter;stroke-opacity:1"/>
<path class="bond-12 atom-10 atom-13" d="M 159.4,82.4 L 176.7,106.3" style="fill:none;fill-rule:evenodd;stroke:#000000;stroke-width:2.0px;stroke-linecap:butt;stroke-linejoin:miter;stroke-opacity:1"/>
<path class="bond-13 atom-13 atom-14" d="M 176.7,106.3 L 190.2,125.0" style="fill:none;fill-rule:evenodd;stroke:#000000;stroke-width:2.0px;stroke-linecap:butt;stroke-linejoin:miter;stroke-opacity:1"/>
<path class="bond-13 atom-13 atom-14" d="M 180.3,103.7 L 193.8,122.5" style="fill:none;fill-rule:evenodd;stroke:#000000;stroke-width:2.0px;stroke-linecap:butt;stroke-linejoin:miter;stroke-opacity:1"/>
<path class="bond-13 atom-13 atom-14" d="M 173.1,108.9 L 186.6,127.6" style="fill:none;fill-rule:evenodd;stroke:#000000;stroke-width:2.0px;stroke-linecap:butt;stroke-linejoin:miter;stroke-opacity:1"/>
<path class="bond-14 atom-8 atom-15" d="M 112.8,61.5 L 103.1,83.2" style="fill:none;fill-rule:evenodd;stroke:#000000;stroke-width:2.0px;stroke-linecap:butt;stroke-linejoin:miter;stroke-opacity:1"/>
<path class="bond-14 atom-8 atom-15" d="M 107.7,62.0 L 99.0,81.4" style="fill:none;fill-rule:evenodd;stroke:#000000;stroke-width:2.0px;stroke-linecap:butt;stroke-linejoin:miter;stroke-opacity:1"/>
<path class="bond-15 atom-15 atom-3" d="M 96.6,88.8 L 71.4,91.3" style="fill:none;fill-rule:evenodd;stroke:#000000;stroke-width:2.0px;stroke-linecap:butt;stroke-linejoin:miter;stroke-opacity:1"/>
<path d="M 29.4,122.6 L 30.0,121.2 L 31.3,121.1" style="fill:none;stroke:#000000;stroke-width:2.0px;stroke-linecap:butt;stroke-linejoin:miter;stroke-miterlimit:10;stroke-opacity:1;"/>
<path d="M 175.8,105.1 L 176.7,106.3 L 177.4,107.2" style="fill:none;stroke:#000000;stroke-width:2.0px;stroke-linecap:butt;stroke-linejoin:miter;stroke-miterlimit:10;stroke-opacity:1;"/>
<path class="atom-2" d="M 57.5 114.1 L 60.2 118.5 Q 60.5 118.9, 60.9 119.7 Q 61.4 120.5, 61.4 120.6 L 61.4 114.1 L 62.5 114.1 L 62.5 122.4 L 61.4 122.4 L 58.4 117.6 Q 58.1 117.0, 57.7 116.4 Q 57.4 115.7, 57.3 115.5 L 57.3 122.4 L 56.2 122.4 L 56.2 114.1 L 57.5 114.1 " fill="#000000"/>
<path class="atom-2" d="M 64.1 114.1 L 65.3 114.1 L 65.3 117.6 L 69.5 117.6 L 69.5 114.1 L 70.7 114.1 L 70.7 122.4 L 69.5 122.4 L 69.5 118.6 L 65.3 118.6 L 65.3 122.4 L 64.1 122.4 L 64.1 114.1 " fill="#000000"/>
<path class="atom-4" d="M 52.3 63.3 L 55.0 67.7 Q 55.3 68.1, 55.8 68.9 Q 56.2 69.7, 56.2 69.7 L 56.2 63.3 L 57.3 63.3 L 57.3 71.6 L 56.2 71.6 L 53.2 66.8 Q 52.9 66.2, 52.5 65.6 Q 52.2 64.9, 52.1 64.7 L 52.1 71.6 L 51.0 71.6 L 51.0 63.3 L 52.3 63.3 " fill="#000000"/>
<path class="atom-6" d="M 41.1 16.9 Q 41.1 14.8, 42.1 13.7 Q 43.1 12.7, 44.9 12.7 Q 46.7 12.7, 47.6 13.9 L 46.8 14.5 Q 46.1 13.6, 44.9 13.6 Q 43.7 13.6, 43.0 14.5 Q 42.3 15.3, 42.3 16.9 Q 42.3 18.6, 43.0 19.4 Q 43.7 20.3, 45.1 20.3 Q 46.0 20.3, 47.1 19.7 L 47.4 20.6 Q 47.0 20.9, 46.3 21.0 Q 45.6 21.2, 44.9 21.2 Q 43.1 21.2, 42.1 20.1 Q 41.1 19.0, 41.1 16.9 " fill="#000000"/>
<path class="atom-6" d="M 48.4 12.1 L 49.5 12.1 L 49.5 21.1 L 48.4 21.1 L 48.4 12.1 " fill="#000000"/>
<path class="atom-7" d="M 93.7 33.4 L 96.5 37.8 Q 96.7 38.2, 97.2 39.0 Q 97.6 39.8, 97.6 39.9 L 97.6 33.4 L 98.7 33.4 L 98.7 41.7 L 97.6 41.7 L 94.7 36.9 Q 94.3 36.3, 93.9 35.7 Q 93.6 35.0, 93.5 34.8 L 93.5 41.7 L 92.4 41.7 L 92.4 33.4 L 93.7 33.4 " fill="#000000"/>
<path class="atom-9" d="M 140.3 54.3 L 143.1 58.7 Q 143.3 59.1, 143.8 59.9 Q 144.2 60.7, 144.2 60.8 L 144.2 54.3 L 145.3 54.3 L 145.3 62.6 L 144.2 62.6 L 141.3 57.8 Q 140.9 57.2, 140.5 56.6 Q 140.2 55.9, 140.1 55.7 L 140.1 62.6 L 139.0 62.6 L 139.0 54.3 L 140.3 54.3 " fill="#000000"/>
<path class="atom-9" d="M 147.0 54.3 L 148.1 54.3 L 148.1 57.8 L 152.4 57.8 L 152.4 54.3 L 153.5 54.3 L 153.5 62.6 L 152.4 62.6 L 152.4 58.8 L 148.1 58.8 L 148.1 62.6 L 147.0 62.6 L 147.0 54.3 " fill="#000000"/>
<path class="atom-14" d="M 192.1 126.0 L 194.8 130.4 Q 195.1 130.9, 195.5 131.7 Q 196.0 132.5, 196.0 132.5 L 196.0 126.0 L 197.1 126.0 L 197.1 134.4 L 196.0 134.4 L 193.0 129.5 Q 192.7 129.0, 192.3 128.3 Q 192.0 127.7, 191.9 127.5 L 191.9 134.4 L 190.8 134.4 L 190.8 126.0 L 192.1 126.0 " fill="#000000"/>
<path class="atom-15" d="M 98.9 84.2 L 101.6 88.6 Q 101.9 89.0, 102.3 89.8 Q 102.8 90.6, 102.8 90.7 L 102.8 84.2 L 103.9 84.2 L 103.9 92.5 L 102.8 92.5 L 99.8 87.7 Q 99.5 87.1, 99.1 86.5 Q 98.8 85.8, 98.7 85.6 L 98.7 92.5 L 97.6 92.5 L 97.6 84.2 L 98.9 84.2 " fill="#000000"/>
</svg>