<svg xmlns="http://www.w3.org/2000/svg" xmlns:rdkit="http://www.rdkit.org/xml" xmlns:xlink="http://www.w3.org/1999/xlink" version="1.1" baseProfile="full" xml:space="preserve" width="284px" height="190px" viewBox="0 0 284 190">
<!-- END OF HEADER -->
<rect style="opacity:1.0;fill:#FFFFFF;stroke:none" width="284.0" height="190.0" x="0.0" y="0.0"> </rect>
<ellipse cx="21.6" cy="66.3" rx="7.4" ry="7.4" class="atom-0" style="fill:#FF7F7F;fill-rule:evenodd;stroke:#FF7F7F;stroke-width:1.0px;stroke-linecap:butt;stroke-linejoin:miter;stroke-opacity:1"/>
<ellipse cx="41.6" cy="88.1" rx="7.4" ry="7.4" class="atom-1" style="fill:#FF7F7F;fill-rule:evenodd;stroke:#FF7F7F;stroke-width:1.0px;stroke-linecap:butt;stroke-linejoin:miter;stroke-opacity:1"/>
<ellipse cx="70.5" cy="81.7" rx="8.9" ry="8.9" class="atom-2" style="fill:#7F7FFF;fill-rule:evenodd;stroke:#7F7FFF;stroke-width:1.0px;stroke-linecap:butt;stroke-linejoin:miter;stroke-opacity:1"/>
<ellipse cx="90.5" cy="103.5" rx="8.9" ry="8.9" class="atom-3" style="fill:#7F7FFF;fill-rule:evenodd;stroke:#7F7FFF;stroke-width:1.0px;stroke-linecap:butt;stroke-linejoin:miter;stroke-opacity:1"/>
<ellipse cx="119.4" cy="97.1" rx="8.9" ry="8.9" class="atom-4" style="fill:#7F7FFF;fill-rule:evenodd;stroke:#7F7FFF;stroke-width:1.0px;stroke-linecap:butt;stroke-linejoin:miter;stroke-opacity:1"/>
<ellipse cx="139.4" cy="118.9" rx="4.2" ry="4.2" class="atom-5" style="fill:#FF7F7F;fill-rule:evenodd;stroke:#FF7F7F;stroke-width:1.0px;stroke-linecap:butt;stroke-linejoin:miter;stroke-opacity:1"/>
<ellipse cx="168.3" cy="112.5" rx="9.9" ry="9.9" class="atom-6" style="fill:#7F7FFF;fill-rule:evenodd;stroke:#7F7FFF;stroke-width:1.0px;stroke-linecap:butt;stroke-linejoin:miter;stroke-opacity:1"/>
<ellipse cx="177.2" cy="84.3" rx="9.9" ry="9.9" class="atom-7" style="fill:#7F7FFF;fill-rule:evenodd;stroke:#7F7FFF;stroke-width:1.0px;stroke-linecap:butt;stroke-linejoin:miter;stroke-opacity:1"/>
<ellipse cx="206.1" cy="77.8" rx="9.9" ry="9.9" class="atom-8" style="fill:#7F7FFF;fill-rule:evenodd;stroke:#7F7FFF;stroke-width:1.0px;stroke-linecap:butt;stroke-linejoin:miter;stroke-opacity:1"/>
<ellipse cx="215.0" cy="49.6" rx="3.5" ry="3.5" class="atom-9" style="fill:#FF7F7F;fill-rule:evenodd;stroke:#FF7F7F;stroke-width:1.0px;stroke-linecap:butt;stroke-linejoin:miter;stroke-opacity:1"/>
<ellipse cx="243.9" cy="43.2" rx="5.3" ry="5.3" class="atom-10" style="fill:#7F7FFF;fill-rule:evenodd;stroke:#7F7FFF;stroke-width:1.0px;stroke-linecap:butt;stroke-linejoin:miter;stroke-opacity:1"/>
<ellipse cx="252.8" cy="14.9" rx="5.3" ry="5.3" class="atom-11" style="fill:#7F7FFF;fill-rule:evenodd;stroke:#7F7FFF;stroke-width:1.0px;stroke-linecap:butt;stroke-linejoin:miter;stroke-opacity:1"/>
<ellipse cx="263.9" cy="65.0" rx="5.3" ry="5.3" class="atom-12" style="fill:#7F7FFF;fill-rule:evenodd;stroke:#7F7FFF;stroke-width:1.0px;stroke-linecap:butt;stroke-linejoin:miter;stroke-opacity:1"/>
<ellipse cx="226.1" cy="99.7" rx="9.9" ry="9.9" class="atom-13" style="fill:#7F7FFF;fill-rule:evenodd;stroke:#7F7FFF;stroke-width:1.0px;stroke-linecap:butt;stroke-linejoin:miter;stroke-opacity:1"/>
<ellipse cx="217.3" cy="127.9" rx="9.9" ry="9.9" class="atom-14" style="fill:#7F7FFF;fill-rule:evenodd;stroke:#7F7FFF;stroke-width:1.0px;stroke-linecap:butt;stroke-linejoin:miter;stroke-opacity:1"/>
<ellipse cx="237.3" cy="149.7" rx="2.4" ry="2.4" class="atom-15" style="fill:#FF7F7F;fill-rule:evenodd;stroke:#FF7F7F;stroke-width:1.0px;stroke-linecap:butt;stroke-linejoin:miter;stroke-opacity:1"/>
<ellipse cx="228.4" cy="177.9" rx="2.4" ry="2.4" class="atom-16" style="fill:#FF7F7F;fill-rule:evenodd;stroke:#FF7F7F;stroke-width:1.0px;stroke-linecap:butt;stroke-linejoin:miter;stroke-opacity:1"/>
<ellipse cx="188.4" cy="134.3" rx="9.9" ry="9.9" class="atom-17" style="fill:#7F7FFF;fill-rule:evenodd;stroke:#7F7FFF;stroke-width:1.0px;stroke-linecap:butt;stroke-linejoin:miter;stroke-opacity:1"/>
<path class="bond-0 atom-0 atom-1" d="M 21.6,66.3 L 36.8,82.9" style="fill:none;fill-rule:evenodd;stroke:#000000;stroke-width:2.0px;stroke-linecap:butt;stroke-linejoin:miter;stroke-opacity:1"/>
<path class="bond-1 atom-1 atom-2" d="M 46.4,87.1 L 70.5,81.7" style="fill:none;fill-rule:evenodd;stroke:#000000;stroke-width:2.0px;stroke-linecap:butt;stroke-linejoin:miter;stroke-opacity:1"/>
<path class="bond-2 atom-2 atom-3" d="M 70.5,81.7 L 90.5,103.5" style="fill:none;fill-rule:evenodd;stroke:#000000;stroke-width:2.0px;stroke-linecap:butt;stroke-linejoin:miter;stroke-opacity:1"/>
<path class="bond-3 atom-3 atom-4" d="M 90.5,103.5 L 119.4,97.1" style="fill:none;fill-rule:evenodd;stroke:#000000;stroke-width:2.0px;stroke-linecap:butt;stroke-linejoin:miter;stroke-opacity:1"/>
<path class="bond-4 atom-4 atom-5" d="M 119.4,97.1 L 135.3,114.4" style="fill:none;fill-rule:evenodd;stroke:#000000;stroke-width:2.0px;stroke-linecap:butt;stroke-linejoin:miter;stroke-opacity:1"/>
<path class="bond-5 atom-5 atom-6" d="M 143.6,118.0 L 168.3,112.5" style="fill:none;fill-rule:evenodd;stroke:#000000;stroke-width:2.0px;stroke-linecap:butt;stroke-linejoin:miter;stroke-opacity:1"/>
<path class="bond-6 atom-6 atom-7" d="M 168.3,112.5 L 175.6,89.4" style="fill:none;fill-rule:evenodd;stroke:#000000;stroke-width:2.0px;stroke-linecap:butt;stroke-linejoin:miter;stroke-opacity:1"/>
<path class="bond-6 atom-6 atom-7" d="M 173.4,111.4 L 179.8,90.8" style="fill:none;fill-rule:evenodd;stroke:#000000;stroke-width:2.0px;stroke-linecap:butt;stroke-linejoin:miter;stroke-opacity:1"/>
<path class="bond-7 atom-7 atom-8" d="M 181.4,83.3 L 206.1,77.8" style="fill:none;fill-rule:evenodd;stroke:#000000;stroke-width:2.0px;stroke-linecap:butt;stroke-linejoin:miter;stroke-opacity:1"/>
<path class="bond-8 atom-8 atom-9" d="M 206.1,77.8 L 213.4,54.8" style="fill:none;fill-rule:evenodd;stroke:#000000;stroke-width:2.0px;stroke-linecap:butt;stroke-linejoin:miter;stroke-opacity:1"/>
<path class="bond-9 atom-9 atom-10" d="M 219.2,48.7 L 243.9,43.2" style="fill:none;fill-rule:evenodd;stroke:#000000;stroke-width:2.0px;stroke-linecap:butt;stroke-linejoin:miter;stroke-opacity:1"/>
<path class="bond-10 atom-10 atom-11" d="M 243.9,43.2 L 252.8,14.9" style="fill:none;fill-rule:evenodd;stroke:#000000;stroke-width:2.0px;stroke-linecap:butt;stroke-linejoin:miter;stroke-opacity:1"/>
<path class="bond-11 atom-10 atom-12" d="M 243.9,43.2 L 263.9,65.0" style="fill:none;fill-rule:evenodd;stroke:#000000;stroke-width:2.0px;stroke-linecap:butt;stroke-linejoin:miter;stroke-opacity:1"/>
<path class="bond-12 atom-8 atom-13" d="M 206.1,77.8 L 222.0,95.1" style="fill:none;fill-rule:evenodd;stroke:#000000;stroke-width:2.0px;stroke-linecap:butt;stroke-linejoin:miter;stroke-opacity:1"/>
<path class="bond-12 atom-8 atom-13" d="M 204.6,82.7 L 218.7,98.1" style="fill:none;fill-rule:evenodd;stroke:#000000;stroke-width:2.0px;stroke-linecap:butt;stroke-linejoin:miter;stroke-opacity:1"/>
<path class="bond-13 atom-13 atom-14" d="M 224.5,104.8 L 217.3,127.9" style="fill:none;fill-rule:evenodd;stroke:#000000;stroke-width:2.0px;stroke-linecap:butt;stroke-linejoin:miter;stroke-opacity:1"/>
<path class="bond-14 atom-14 atom-15" d="M 217.3,127.9 L 233.6,145.7" style="fill:none;fill-rule:evenodd;stroke:#000000;stroke-width:2.0px;stroke-linecap:butt;stroke-linejoin:miter;stroke-opacity:1"/>
<path class="bond-15 atom-15 atom-16" d="M 235.6,155.1 L 228.4,177.9" style="fill:none;fill-rule:evenodd;stroke:#000000;stroke-width:2.0px;stroke-linecap:butt;stroke-linejoin:miter;stroke-opacity:1"/>
<path class="bond-16 atom-14 atom-17" d="M 217.3,127.9 L 192.5,133.4" style="fill:none;fill-rule:evenodd;stroke:#000000;stroke-width:2.0px;stroke-linecap:butt;stroke-linejoin:miter;stroke-opacity:1"/>
<path class="bond-16 atom-14 atom-17" d="M 213.8,124.1 L 191.6,129.1" style="fill:none;fill-rule:evenodd;stroke:#000000;stroke-width:2.0px;stroke-linecap:butt;stroke-linejoin:miter;stroke-opacity:1"/>
<path class="bond-17 atom-17 atom-6" d="M 184.2,129.8 L 168.3,112.5" style="fill:none;fill-rule:evenodd;stroke:#000000;stroke-width:2.0px;stroke-linecap:butt;stroke-linejoin:miter;stroke-opacity:1"/>
<path d="M 69.3,82.0 L 70.5,81.7 L 71.5,82.8" style="fill:none;stroke:#000000;stroke-width:2.0px;stroke-linecap:butt;stroke-linejoin:miter;stroke-miterlimit:10;stroke-opacity:1;"/>
<path d="M 89.5,102.4 L 90.5,103.5 L 92.0,103.2" style="fill:none;stroke:#000000;stroke-width:2.0px;stroke-linecap:butt;stroke-linejoin:miter;stroke-miterlimit:10;stroke-opacity:1;"/>
<path d="M 118.0,97.4 L 119.4,97.1 L 120.2,98.0" style="fill:none;stroke:#000000;stroke-width:2.0px;stroke-linecap:butt;stroke-linejoin:miter;stroke-miterlimit:10;stroke-opacity:1;"/>
<path class="atom-1" d="M 37.8 88.2 Q 37.8 86.1, 38.8 85.0 Q 39.8 83.9, 41.6 83.9 Q 43.5 83.9, 44.5 85.0 Q 45.5 86.1, 45.5 88.2 Q 45.5 90.2, 44.5 91.4 Q 43.5 92.5, 41.6 92.5 Q 39.8 92.5, 38.8 91.4 Q 37.8 90.2, 37.8 88.2 M 41.6 91.6 Q 42.9 91.6, 43.6 90.7 Q 44.3 89.8, 44.3 88.2 Q 44.3 86.5, 43.6 85.7 Q 42.9 84.8, 41.6 84.8 Q 40.3 84.8, 39.6 85.7 Q 39.0 86.5, 39.0 88.2 Q 39.0 89.9, 39.6 90.7 Q 40.3 91.6, 41.6 91.6 " fill="#000000"/>
<path class="atom-5" d="M 137.6 114.7 L 140.3 119.2 Q 140.6 119.6, 141.0 120.4 Q 141.5 121.2, 141.5 121.2 L 141.5 114.7 L 142.6 114.7 L 142.6 123.1 L 141.5 123.1 L 138.5 118.3 Q 138.2 117.7, 137.8 117.0 Q 137.5 116.4, 137.4 116.2 L 137.4 123.1 L 136.3 123.1 L 136.3 114.7 L 137.6 114.7 " fill="#000000"/>
<path class="atom-5" d="M 136.2 124.0 L 137.3 124.0 L 137.3 127.5 L 141.6 127.5 L 141.6 124.0 L 142.7 124.0 L 142.7 132.3 L 141.6 132.3 L 141.6 128.5 L 137.3 128.5 L 137.3 132.3 L 136.2 132.3 L 136.2 124.0 " fill="#000000"/>
<path class="atom-7" d="M 175.4 80.1 L 178.1 84.5 Q 178.4 84.9, 178.8 85.7 Q 179.3 86.5, 179.3 86.6 L 179.3 80.1 L 180.4 80.1 L 180.4 88.5 L 179.3 88.5 L 176.3 83.6 Q 176.0 83.0, 175.6 82.4 Q 175.2 81.7, 175.1 81.5 L 175.1 88.5 L 174.1 88.5 L 174.1 80.1 L 175.4 80.1 " fill="#000000"/>
<path class="atom-9" d="M 203.6 45.4 L 204.8 45.4 L 204.8 49.0 L 209.0 49.0 L 209.0 45.4 L 210.2 45.4 L 210.2 53.8 L 209.0 53.8 L 209.0 49.9 L 204.8 49.9 L 204.8 53.8 L 203.6 53.8 L 203.6 45.4 " fill="#000000"/>
<path class="atom-9" d="M 213.2 45.4 L 215.9 49.8 Q 216.2 50.3, 216.6 51.1 Q 217.1 51.9, 217.1 51.9 L 217.1 45.4 L 218.2 45.4 L 218.2 53.8 L 217.0 53.8 L 214.1 48.9 Q 213.8 48.4, 213.4 47.7 Q 213.0 47.1, 212.9 46.9 L 212.9 53.8 L 211.8 53.8 L 211.8 45.4 L 213.2 45.4 " fill="#000000"/>
<path class="atom-13" d="M 224.3 95.5 L 227.0 99.9 Q 227.3 100.3, 227.7 101.1 Q 228.2 101.9, 228.2 102.0 L 228.2 95.5 L 229.3 95.5 L 229.3 103.8 L 228.2 103.8 L 225.2 99.0 Q 224.9 98.4, 224.5 97.8 Q 224.2 97.1, 224.1 96.9 L 224.1 103.8 L 223.0 103.8 L 223.0 95.5 L 224.3 95.5 " fill="#000000"/>
<path class="atom-15" d="M 234.9 152.6 Q 235.0 152.6, 235.4 152.8 Q 235.8 153.0, 236.2 153.1 Q 236.6 153.2, 237.1 153.2 Q 237.9 153.2, 238.3 152.8 Q 238.8 152.4, 238.8 151.7 Q 238.8 151.2, 238.5 151.0 Q 238.3 150.7, 238.0 150.5 Q 237.6 150.4, 237.0 150.2 Q 236.3 150.0, 235.8 149.8 Q 235.4 149.5, 235.1 149.1 Q 234.8 148.6, 234.8 147.9 Q 234.8 146.8, 235.5 146.2 Q 236.2 145.5, 237.6 145.5 Q 238.6 145.5, 239.7 146.0 L 239.4 146.9 Q 238.4 146.5, 237.6 146.5 Q 236.8 146.5, 236.4 146.8 Q 235.9 147.2, 235.9 147.7 Q 235.9 148.2, 236.2 148.5 Q 236.4 148.7, 236.7 148.9 Q 237.1 149.0, 237.6 149.2 Q 238.4 149.5, 238.9 149.7 Q 239.3 149.9, 239.6 150.4 Q 240.0 150.9, 240.0 151.7 Q 240.0 152.9, 239.2 153.5 Q 238.4 154.1, 237.1 154.1 Q 236.4 154.1, 235.8 153.9 Q 235.2 153.8, 234.6 153.5 L 234.9 152.6 " fill="#000000"/>
<path class="atom-17" d="M 186.5 130.1 L 189.3 134.6 Q 189.5 135.0, 190.0 135.8 Q 190.4 136.6, 190.4 136.6 L 190.4 130.1 L 191.5 130.1 L 191.5 138.5 L 190.4 138.5 L 187.4 133.7 Q 187.1 133.1, 186.7 132.4 Q 186.4 131.8, 186.3 131.6 L 186.3 138.5 L 185.2 138.5 L 185.2 130.1 L 186.5 130.1 " fill="#000000"/>
</svg>