<svg xmlns="http://www.w3.org/2000/svg" xmlns:rdkit="http://www.rdkit.org/xml" xmlns:xlink="http://www.w3.org/1999/xlink" version="1.1" baseProfile="full" xml:space="preserve" width="245px" height="115px" viewBox="0 0 245 115">
<!-- END OF HEADER -->
<rect style="opacity:1.0;fill:#FFFFFF;stroke:none" width="245.0" height="115.0" x="0.0" y="0.0"> </rect>
<ellipse cx="148.5" cy="101.4" rx="7.3" ry="7.3" class="atom-0" style="fill:#7FBF7F;fill-rule:evenodd;stroke:#7FBF7F;stroke-width:1.0px;stroke-linecap:butt;stroke-linejoin:miter;stroke-opacity:1"/>
<ellipse cx="174.0" cy="86.7" rx="7.4" ry="7.4" class="atom-1" style="fill:#7FBF7F;fill-rule:evenodd;stroke:#7FBF7F;stroke-width:1.0px;stroke-linecap:butt;stroke-linejoin:miter;stroke-opacity:1"/>
<ellipse cx="199.6" cy="101.4" rx="6.0" ry="6.0" class="atom-2" style="fill:#7FBF7F;fill-rule:evenodd;stroke:#7FBF7F;stroke-width:1.0px;stroke-linecap:butt;stroke-linejoin:miter;stroke-opacity:1"/>
<ellipse cx="174.0" cy="57.2" rx="7.9" ry="7.9" class="atom-3" style="fill:#7FBF7F;fill-rule:evenodd;stroke:#7FBF7F;stroke-width:1.0px;stroke-linecap:butt;stroke-linejoin:miter;stroke-opacity:1"/>
<ellipse cx="148.5" cy="42.4" rx="7.0" ry="7.0" class="atom-4" style="fill:#7FBF7F;fill-rule:evenodd;stroke:#7FBF7F;stroke-width:1.0px;stroke-linecap:butt;stroke-linejoin:miter;stroke-opacity:1"/>
<ellipse cx="148.5" cy="12.9" rx="6.9" ry="6.9" class="atom-5" style="fill:#7FBF7F;fill-rule:evenodd;stroke:#7FBF7F;stroke-width:1.0px;stroke-linecap:butt;stroke-linejoin:miter;stroke-opacity:1"/>
<ellipse cx="122.9" cy="57.2" rx="6.6" ry="6.6" class="atom-6" style="fill:#7FBF7F;fill-rule:evenodd;stroke:#7FBF7F;stroke-width:1.0px;stroke-linecap:butt;stroke-linejoin:miter;stroke-opacity:1"/>
<ellipse cx="97.4" cy="42.4" rx="7.4" ry="7.4" class="atom-7" style="fill:#7FBF7F;fill-rule:evenodd;stroke:#7FBF7F;stroke-width:1.0px;stroke-linecap:butt;stroke-linejoin:miter;stroke-opacity:1"/>
<ellipse cx="71.9" cy="57.2" rx="6.6" ry="6.6" class="atom-8" style="fill:#7FBF7F;fill-rule:evenodd;stroke:#7FBF7F;stroke-width:1.0px;stroke-linecap:butt;stroke-linejoin:miter;stroke-opacity:1"/>
<ellipse cx="71.9" cy="86.7" rx="7.7" ry="7.7" class="atom-9" style="fill:#7FBF7F;fill-rule:evenodd;stroke:#7FBF7F;stroke-width:1.0px;stroke-linecap:butt;stroke-linejoin:miter;stroke-opacity:1"/>
<ellipse cx="46.3" cy="42.4" rx="6.4" ry="6.4" class="atom-10" style="fill:#7FBF7F;fill-rule:evenodd;stroke:#7FBF7F;stroke-width:1.0px;stroke-linecap:butt;stroke-linejoin:miter;stroke-opacity:1"/>
<ellipse cx="20.8" cy="57.2" rx="8.5" ry="8.5" class="atom-11" style="fill:#7FBF7F;fill-rule:evenodd;stroke:#7FBF7F;stroke-width:1.0px;stroke-linecap:butt;stroke-linejoin:miter;stroke-opacity:1"/>
<ellipse cx="199.6" cy="42.4" rx="6.8" ry="6.8" class="atom-12" style="fill:#7FBF7F;fill-rule:evenodd;stroke:#7FBF7F;stroke-width:1.0px;stroke-linecap:butt;stroke-linejoin:miter;stroke-opacity:1"/>
<ellipse cx="199.6" cy="12.9" rx="7.2" ry="7.2" class="atom-13" style="fill:#7FBF7F;fill-rule:evenodd;stroke:#7FBF7F;stroke-width:1.0px;stroke-linecap:butt;stroke-linejoin:miter;stroke-opacity:1"/>
<ellipse cx="225.1" cy="57.2" rx="7.1" ry="7.1" class="atom-14" style="fill:#7FBF7F;fill-rule:evenodd;stroke:#7FBF7F;stroke-width:1.0px;stroke-linecap:butt;stroke-linejoin:miter;stroke-opacity:1"/>
<path class="bond-0 atom-0 atom-1" d="M 148.5,101.4 L 174.0,86.7" style="fill:none;fill-rule:evenodd;stroke:#000000;stroke-width:2.0px;stroke-linecap:butt;stroke-linejoin:miter;stroke-opacity:1"/>
<path class="bond-1 atom-1 atom-2" d="M 174.0,86.7 L 199.6,101.4" style="fill:none;fill-rule:evenodd;stroke:#000000;stroke-width:2.0px;stroke-linecap:butt;stroke-linejoin:miter;stroke-opacity:1"/>
<path class="bond-2 atom-1 atom-3" d="M 174.0,86.7 L 174.0,62.3" style="fill:none;fill-rule:evenodd;stroke:#000000;stroke-width:2.0px;stroke-linecap:butt;stroke-linejoin:miter;stroke-opacity:1"/>
<path class="bond-3 atom-3 atom-4" d="M 169.9,54.8 L 148.5,42.4" style="fill:none;fill-rule:evenodd;stroke:#000000;stroke-width:2.0px;stroke-linecap:butt;stroke-linejoin:miter;stroke-opacity:1"/>
<path class="bond-4 atom-4 atom-5" d="M 150.7,43.7 L 150.7,18.3" style="fill:none;fill-rule:evenodd;stroke:#000000;stroke-width:2.0px;stroke-linecap:butt;stroke-linejoin:miter;stroke-opacity:1"/>
<path class="bond-4 atom-4 atom-5" d="M 146.3,43.7 L 146.3,18.3" style="fill:none;fill-rule:evenodd;stroke:#000000;stroke-width:2.0px;stroke-linecap:butt;stroke-linejoin:miter;stroke-opacity:1"/>
<path class="bond-5 atom-4 atom-6" d="M 148.5,42.4 L 126.6,55.1" style="fill:none;fill-rule:evenodd;stroke:#000000;stroke-width:2.0px;stroke-linecap:butt;stroke-linejoin:miter;stroke-opacity:1"/>
<path class="bond-6 atom-6 atom-7" d="M 119.3,55.1 L 97.4,42.4" style="fill:none;fill-rule:evenodd;stroke:#000000;stroke-width:2.0px;stroke-linecap:butt;stroke-linejoin:miter;stroke-opacity:1"/>
<path class="bond-7 atom-7 atom-8" d="M 97.4,42.4 L 71.9,57.2" style="fill:none;fill-rule:evenodd;stroke:#000000;stroke-width:2.0px;stroke-linecap:butt;stroke-linejoin:miter;stroke-opacity:1"/>
<path class="bond-8 atom-8 atom-9" d="M 71.9,57.2 L 71.9,81.7" style="fill:none;fill-rule:evenodd;stroke:#000000;stroke-width:2.0px;stroke-linecap:butt;stroke-linejoin:miter;stroke-opacity:1"/>
<path class="bond-9 atom-8 atom-10" d="M 71.9,57.2 L 46.3,42.4" style="fill:none;fill-rule:evenodd;stroke:#000000;stroke-width:2.0px;stroke-linecap:butt;stroke-linejoin:miter;stroke-opacity:1"/>
<path class="bond-9 atom-8 atom-10" d="M 67.4,59.7 L 46.3,47.5" style="fill:none;fill-rule:evenodd;stroke:#000000;stroke-width:2.0px;stroke-linecap:butt;stroke-linejoin:miter;stroke-opacity:1"/>
<path class="bond-10 atom-10 atom-11" d="M 46.3,42.4 L 22.3,56.3" style="fill:none;fill-rule:evenodd;stroke:#000000;stroke-width:2.0px;stroke-linecap:butt;stroke-linejoin:miter;stroke-opacity:1"/>
<path class="bond-11 atom-3 atom-12" d="M 178.2,54.8 L 199.6,42.4" style="fill:none;fill-rule:evenodd;stroke:#000000;stroke-width:2.0px;stroke-linecap:butt;stroke-linejoin:miter;stroke-opacity:1"/>
<path class="bond-12 atom-12 atom-13" d="M 199.6,42.4 L 199.6,12.9" style="fill:none;fill-rule:evenodd;stroke:#000000;stroke-width:2.0px;stroke-linecap:butt;stroke-linejoin:miter;stroke-opacity:1"/>
<path class="bond-13 atom-12 atom-14" d="M 199.6,42.4 L 225.1,57.2" style="fill:none;fill-rule:evenodd;stroke:#000000;stroke-width:2.0px;stroke-linecap:butt;stroke-linejoin:miter;stroke-opacity:1"/>
<path d="M 149.6,43.1 L 148.5,42.4 L 147.4,43.1" style="fill:none;stroke:#000000;stroke-width:2.0px;stroke-linecap:butt;stroke-linejoin:miter;stroke-miterlimit:10;stroke-opacity:1;"/>
<path d="M 98.5,43.1 L 97.4,42.4 L 96.1,43.2" style="fill:none;stroke:#000000;stroke-width:2.0px;stroke-linecap:butt;stroke-linejoin:miter;stroke-miterlimit:10;stroke-opacity:1;"/>
<path d="M 47.6,43.2 L 46.3,42.4 L 45.1,43.1" style="fill:none;stroke:#000000;stroke-width:2.0px;stroke-linecap:butt;stroke-linejoin:miter;stroke-miterlimit:10;stroke-opacity:1;"/>
<path class="atom-3" d="M 172.2 53.0 L 174.9 57.4 Q 175.2 57.9, 175.6 58.7 Q 176.1 59.5, 176.1 59.5 L 176.1 53.0 L 177.2 53.0 L 177.2 61.4 L 176.1 61.4 L 173.1 56.5 Q 172.8 56.0, 172.4 55.3 Q 172.1 54.7, 172.0 54.5 L 172.0 61.4 L 170.9 61.4 L 170.9 53.0 L 172.2 53.0 " fill="#000000"/>
<path class="atom-5" d="M 144.7 13.0 Q 144.7 11.0, 145.6 9.8 Q 146.6 8.7, 148.5 8.7 Q 150.3 8.7, 151.3 9.8 Q 152.3 11.0, 152.3 13.0 Q 152.3 15.0, 151.3 16.2 Q 150.3 17.3, 148.5 17.3 Q 146.7 17.3, 145.6 16.2 Q 144.7 15.0, 144.7 13.0 M 148.5 16.4 Q 149.8 16.4, 150.4 15.5 Q 151.1 14.6, 151.1 13.0 Q 151.1 11.3, 150.4 10.5 Q 149.8 9.7, 148.5 9.7 Q 147.2 9.7, 146.5 10.5 Q 145.8 11.3, 145.8 13.0 Q 145.8 14.7, 146.5 15.5 Q 147.2 16.4, 148.5 16.4 " fill="#000000"/>
<path class="atom-6" d="M 120.6 60.1 Q 120.7 60.1, 121.1 60.3 Q 121.5 60.4, 121.9 60.5 Q 122.3 60.6, 122.7 60.6 Q 123.5 60.6, 124.0 60.2 Q 124.5 59.9, 124.5 59.2 Q 124.5 58.7, 124.2 58.4 Q 124.0 58.2, 123.6 58.0 Q 123.3 57.8, 122.7 57.7 Q 122.0 57.4, 121.5 57.2 Q 121.1 57.0, 120.8 56.6 Q 120.4 56.1, 120.4 55.4 Q 120.4 54.3, 121.2 53.7 Q 121.9 53.0, 123.3 53.0 Q 124.3 53.0, 125.4 53.5 L 125.1 54.4 Q 124.1 54.0, 123.3 54.0 Q 122.5 54.0, 122.1 54.3 Q 121.6 54.6, 121.6 55.2 Q 121.6 55.7, 121.9 55.9 Q 122.1 56.2, 122.4 56.4 Q 122.8 56.5, 123.3 56.7 Q 124.1 56.9, 124.5 57.2 Q 125.0 57.4, 125.3 57.9 Q 125.6 58.4, 125.6 59.2 Q 125.6 60.3, 124.8 61.0 Q 124.1 61.6, 122.8 61.6 Q 122.1 61.6, 121.5 61.4 Q 120.9 61.3, 120.3 61.0 L 120.6 60.1 " fill="#000000"/>
<path class="atom-9" d="M 68.6 87.0 Q 68.6 84.9, 69.6 83.8 Q 70.6 82.7, 72.4 82.7 Q 74.2 82.7, 75.1 83.9 L 74.3 84.6 Q 73.6 83.7, 72.4 83.7 Q 71.2 83.7, 70.5 84.5 Q 69.8 85.4, 69.8 87.0 Q 69.8 88.6, 70.5 89.5 Q 71.2 90.3, 72.6 90.3 Q 73.5 90.3, 74.6 89.8 L 74.9 90.7 Q 74.5 90.9, 73.8 91.1 Q 73.1 91.3, 72.4 91.3 Q 70.6 91.3, 69.6 90.2 Q 68.6 89.0, 68.6 87.0 " fill="#000000"/>
<path class="atom-9" d="M 75.9 82.2 L 77.0 82.2 L 77.0 91.2 L 75.9 91.2 L 75.9 82.2 " fill="#000000"/>
<path class="atom-11" d="M 12.9 57.5 Q 12.9 55.4, 13.9 54.3 Q 14.9 53.2, 16.7 53.2 Q 18.5 53.2, 19.4 54.4 L 18.6 55.1 Q 17.9 54.2, 16.7 54.2 Q 15.5 54.2, 14.8 55.0 Q 14.1 55.9, 14.1 57.5 Q 14.1 59.1, 14.8 60.0 Q 15.5 60.8, 16.9 60.8 Q 17.8 60.8, 18.9 60.3 L 19.2 61.2 Q 18.8 61.4, 18.1 61.6 Q 17.4 61.8, 16.7 61.8 Q 14.9 61.8, 13.9 60.7 Q 12.9 59.6, 12.9 57.5 " fill="#000000"/>
<path class="atom-11" d="M 20.2 52.7 L 21.3 52.7 L 21.3 61.7 L 20.2 61.7 L 20.2 52.7 " fill="#000000"/>
</svg>