<svg xmlns="http://www.w3.org/2000/svg" xmlns:rdkit="http://www.rdkit.org/xml" xmlns:xlink="http://www.w3.org/1999/xlink" version="1.1" baseProfile="full" xml:space="preserve" width="214px" height="132px" viewBox="0 0 214 132">
<!-- END OF HEADER -->
<rect style="opacity:1.0;fill:#FFFFFF;stroke:none" width="214.0" height="132.0" x="0.0" y="0.0"> </rect>
<path class="bond-0 atom-0 atom-1" d="M 19.7,56.9 L 41.8,76.2 L 36.4,82.4 L 14.2,63.1 Z" style="fill:#FFE8E8;fill-rule:evenodd;fill-opacity:1;stroke:#FFE8E8;stroke-width:2.0px;stroke-linecap:butt;stroke-linejoin:miter;stroke-miterlimit:10;stroke-opacity:1;"/>
<path class="bond-1 atom-1 atom-2" d="M 43.2,80.1 L 37.4,109.0 L 29.4,107.4 L 35.1,78.5 Z" style="fill:#FFE8E8;fill-rule:evenodd;fill-opacity:1;stroke:#FFE8E8;stroke-width:2.0px;stroke-linecap:butt;stroke-linejoin:miter;stroke-miterlimit:10;stroke-opacity:1;"/>
<path class="bond-3 atom-3 atom-4" d="M 62.9,69.1 L 68.6,40.2 L 76.7,41.8 L 71.0,70.7 Z" style="fill:#E0E0FF;fill-rule:evenodd;fill-opacity:1;stroke:#E0E0FF;stroke-width:2.0px;stroke-linecap:butt;stroke-linejoin:miter;stroke-miterlimit:10;stroke-opacity:1;"/>
<path class="bond-5 atom-5 atom-6" d="M 87.8,85.3 L 115.7,75.8 L 118.3,83.6 L 90.5,93.1 Z" style="fill:#BABAFF;fill-rule:evenodd;fill-opacity:1;stroke:#BABAFF;stroke-width:2.0px;stroke-linecap:butt;stroke-linejoin:miter;stroke-miterlimit:10;stroke-opacity:1;"/>
<path class="bond-6 atom-6 atom-7" d="M 113.0,78.9 L 118.7,50.1 L 126.7,51.7 L 121.0,80.5 Z" style="fill:#BABAFF;fill-rule:evenodd;fill-opacity:1;stroke:#BABAFF;stroke-width:2.0px;stroke-linecap:butt;stroke-linejoin:miter;stroke-miterlimit:10;stroke-opacity:1;"/>
<path class="bond-7 atom-7 atom-8" d="M 121.4,47.0 L 149.2,37.5 L 151.9,45.3 L 124.0,54.8 Z" style="fill:#BABAFF;fill-rule:evenodd;fill-opacity:1;stroke:#BABAFF;stroke-width:2.0px;stroke-linecap:butt;stroke-linejoin:miter;stroke-miterlimit:10;stroke-opacity:1;"/>
<path class="bond-8 atom-8 atom-9" d="M 146.5,40.6 L 152.2,11.7 L 160.3,13.3 L 154.6,42.2 Z" style="fill:#BABAFF;fill-rule:evenodd;fill-opacity:1;stroke:#BABAFF;stroke-width:2.0px;stroke-linecap:butt;stroke-linejoin:miter;stroke-miterlimit:10;stroke-opacity:1;"/>
<path class="bond-9 atom-8 atom-10" d="M 153.3,38.3 L 175.4,57.6 L 170.0,63.8 L 147.9,44.5 Z" style="fill:#BABAFF;fill-rule:evenodd;fill-opacity:1;stroke:#BABAFF;stroke-width:2.0px;stroke-linecap:butt;stroke-linejoin:miter;stroke-miterlimit:10;stroke-opacity:1;"/>
<path class="bond-10 atom-10 atom-11" d="M 176.8,61.5 L 171.1,90.4 L 163.0,88.8 L 168.7,59.9 Z" style="fill:#BABAFF;fill-rule:evenodd;fill-opacity:1;stroke:#BABAFF;stroke-width:2.0px;stroke-linecap:butt;stroke-linejoin:miter;stroke-miterlimit:10;stroke-opacity:1;"/>
<path class="bond-11 atom-11 atom-12" d="M 167.1,85.5 L 196.5,86.1 L 196.4,94.4 L 166.9,93.7 Z" style="fill:#BABAFF;fill-rule:evenodd;fill-opacity:1;stroke:#BABAFF;stroke-width:2.0px;stroke-linecap:butt;stroke-linejoin:miter;stroke-miterlimit:10;stroke-opacity:1;"/>
<path class="bond-12 atom-11 atom-13" d="M 171.1,89.0 L 175.6,118.1 L 167.5,119.3 L 162.9,90.3 Z" style="fill:#BABAFF;fill-rule:evenodd;fill-opacity:1;stroke:#BABAFF;stroke-width:2.0px;stroke-linecap:butt;stroke-linejoin:miter;stroke-miterlimit:10;stroke-opacity:1;"/>
<path class="bond-13 atom-11 atom-14" d="M 168.3,93.5 L 140.5,103.0 L 137.8,95.2 L 165.7,85.7 Z" style="fill:#BABAFF;fill-rule:evenodd;fill-opacity:1;stroke:#BABAFF;stroke-width:2.0px;stroke-linecap:butt;stroke-linejoin:miter;stroke-miterlimit:10;stroke-opacity:1;"/>
<path class="bond-14 atom-14 atom-6" d="M 136.4,102.2 L 114.3,82.8 L 119.7,76.6 L 141.9,96.0 Z" style="fill:#BABAFF;fill-rule:evenodd;fill-opacity:1;stroke:#BABAFF;stroke-width:2.0px;stroke-linecap:butt;stroke-linejoin:miter;stroke-miterlimit:10;stroke-opacity:1;"/>
<ellipse cx="17.0" cy="60.0" rx="5.9" ry="5.9" class="atom-0" style="fill:#FFE8E8;fill-rule:evenodd;stroke:#FFE8E8;stroke-width:1.0px;stroke-linecap:butt;stroke-linejoin:miter;stroke-opacity:1"/>
<ellipse cx="39.1" cy="79.3" rx="5.9" ry="5.9" class="atom-1" style="fill:#FFE8E8;fill-rule:evenodd;stroke:#FFE8E8;stroke-width:1.0px;stroke-linecap:butt;stroke-linejoin:miter;stroke-opacity:1"/>
<ellipse cx="33.4" cy="108.2" rx="5.9" ry="5.9" class="atom-2" style="fill:#FFE8E8;fill-rule:evenodd;stroke:#FFE8E8;stroke-width:1.0px;stroke-linecap:butt;stroke-linejoin:miter;stroke-opacity:1"/>
<ellipse cx="67.0" cy="69.9" rx="5.9" ry="5.9" class="atom-3" style="fill:#E0E0FF;fill-rule:evenodd;stroke:#E0E0FF;stroke-width:1.0px;stroke-linecap:butt;stroke-linejoin:miter;stroke-opacity:1"/>
<ellipse cx="72.7" cy="41.0" rx="5.9" ry="5.9" class="atom-4" style="fill:#E0E0FF;fill-rule:evenodd;stroke:#E0E0FF;stroke-width:1.0px;stroke-linecap:butt;stroke-linejoin:miter;stroke-opacity:1"/>
<ellipse cx="89.1" cy="89.2" rx="5.9" ry="5.9" class="atom-5" style="fill:#BABAFF;fill-rule:evenodd;stroke:#BABAFF;stroke-width:1.0px;stroke-linecap:butt;stroke-linejoin:miter;stroke-opacity:1"/>
<ellipse cx="117.0" cy="79.7" rx="5.9" ry="5.9" class="atom-6" style="fill:#BABAFF;fill-rule:evenodd;stroke:#BABAFF;stroke-width:1.0px;stroke-linecap:butt;stroke-linejoin:miter;stroke-opacity:1"/>
<ellipse cx="122.7" cy="50.9" rx="5.9" ry="5.9" class="atom-7" style="fill:#BABAFF;fill-rule:evenodd;stroke:#BABAFF;stroke-width:1.0px;stroke-linecap:butt;stroke-linejoin:miter;stroke-opacity:1"/>
<ellipse cx="150.6" cy="41.4" rx="5.9" ry="5.9" class="atom-8" style="fill:#BABAFF;fill-rule:evenodd;stroke:#BABAFF;stroke-width:1.0px;stroke-linecap:butt;stroke-linejoin:miter;stroke-opacity:1"/>
<ellipse cx="156.3" cy="12.5" rx="5.9" ry="5.9" class="atom-9" style="fill:#BABAFF;fill-rule:evenodd;stroke:#BABAFF;stroke-width:1.0px;stroke-linecap:butt;stroke-linejoin:miter;stroke-opacity:1"/>
<ellipse cx="172.7" cy="60.7" rx="5.9" ry="5.9" class="atom-10" style="fill:#BABAFF;fill-rule:evenodd;stroke:#BABAFF;stroke-width:1.0px;stroke-linecap:butt;stroke-linejoin:miter;stroke-opacity:1"/>
<ellipse cx="167.0" cy="89.6" rx="5.9" ry="5.9" class="atom-11" style="fill:#BABAFF;fill-rule:evenodd;stroke:#BABAFF;stroke-width:1.0px;stroke-linecap:butt;stroke-linejoin:miter;stroke-opacity:1"/>
<ellipse cx="196.4" cy="90.2" rx="5.9" ry="5.9" class="atom-12" style="fill:#BABAFF;fill-rule:evenodd;stroke:#BABAFF;stroke-width:1.0px;stroke-linecap:butt;stroke-linejoin:miter;stroke-opacity:1"/>
<ellipse cx="171.5" cy="118.7" rx="5.9" ry="5.9" class="atom-13" style="fill:#BABAFF;fill-rule:evenodd;stroke:#BABAFF;stroke-width:1.0px;stroke-linecap:butt;stroke-linejoin:miter;stroke-opacity:1"/>
<ellipse cx="139.1" cy="99.1" rx="5.9" ry="5.9" class="atom-14" style="fill:#BABAFF;fill-rule:evenodd;stroke:#BABAFF;stroke-width:1.0px;stroke-linecap:butt;stroke-linejoin:miter;stroke-opacity:1"/>
<path class="bond-0 atom-0 atom-1" d="M 17.0,60.0 L 35.0,75.7" style="fill:none;fill-rule:evenodd;stroke:#000000;stroke-width:2.0px;stroke-linecap:butt;stroke-linejoin:miter;stroke-opacity:1"/>
<path class="bond-1 atom-1 atom-2" d="M 38.1,84.5 L 33.4,108.2" style="fill:none;fill-rule:evenodd;stroke:#000000;stroke-width:2.0px;stroke-linecap:butt;stroke-linejoin:miter;stroke-opacity:1"/>
<path class="bond-2 atom-1 atom-3" d="M 43.2,77.9 L 67.0,69.9" style="fill:none;fill-rule:evenodd;stroke:#000000;stroke-width:2.0px;stroke-linecap:butt;stroke-linejoin:miter;stroke-opacity:1"/>
<path class="bond-3 atom-3 atom-4" d="M 68.9,71.5 L 73.8,46.7" style="fill:none;fill-rule:evenodd;stroke:#000000;stroke-width:2.0px;stroke-linecap:butt;stroke-linejoin:miter;stroke-opacity:1"/>
<path class="bond-3 atom-3 atom-4" d="M 64.6,70.7 L 69.5,45.9" style="fill:none;fill-rule:evenodd;stroke:#000000;stroke-width:2.0px;stroke-linecap:butt;stroke-linejoin:miter;stroke-opacity:1"/>
<path class="bond-4 atom-3 atom-5" d="M 67.0,69.9 L 84.3,85.0" style="fill:none;fill-rule:evenodd;stroke:#000000;stroke-width:2.0px;stroke-linecap:butt;stroke-linejoin:miter;stroke-opacity:1"/>
<path class="bond-5 atom-5 atom-6" d="M 93.9,87.6 L 117.0,79.7" style="fill:none;fill-rule:evenodd;stroke:#000000;stroke-width:2.0px;stroke-linecap:butt;stroke-linejoin:miter;stroke-opacity:1"/>
<path class="bond-6 atom-6 atom-7" d="M 117.0,79.7 L 122.7,50.9" style="fill:none;fill-rule:evenodd;stroke:#000000;stroke-width:2.0px;stroke-linecap:butt;stroke-linejoin:miter;stroke-opacity:1"/>
<path class="bond-6 atom-6 atom-7" d="M 121.8,78.1 L 126.5,54.2" style="fill:none;fill-rule:evenodd;stroke:#000000;stroke-width:2.0px;stroke-linecap:butt;stroke-linejoin:miter;stroke-opacity:1"/>
<path class="bond-7 atom-7 atom-8" d="M 122.7,50.9 L 150.6,41.4" style="fill:none;fill-rule:evenodd;stroke:#000000;stroke-width:2.0px;stroke-linecap:butt;stroke-linejoin:miter;stroke-opacity:1"/>
<path class="bond-8 atom-8 atom-9" d="M 152.5,43.0 L 157.4,18.2" style="fill:none;fill-rule:evenodd;stroke:#000000;stroke-width:2.0px;stroke-linecap:butt;stroke-linejoin:miter;stroke-opacity:1"/>
<path class="bond-8 atom-8 atom-9" d="M 148.2,42.2 L 153.1,17.4" style="fill:none;fill-rule:evenodd;stroke:#000000;stroke-width:2.0px;stroke-linecap:butt;stroke-linejoin:miter;stroke-opacity:1"/>
<path class="bond-9 atom-8 atom-10" d="M 150.6,41.4 L 172.7,60.7" style="fill:none;fill-rule:evenodd;stroke:#000000;stroke-width:2.0px;stroke-linecap:butt;stroke-linejoin:miter;stroke-opacity:1"/>
<path class="bond-10 atom-10 atom-11" d="M 172.7,60.7 L 167.0,89.6" style="fill:none;fill-rule:evenodd;stroke:#000000;stroke-width:2.0px;stroke-linecap:butt;stroke-linejoin:miter;stroke-opacity:1"/>
<path class="bond-11 atom-11 atom-12" d="M 167.0,89.6 L 196.4,90.2" style="fill:none;fill-rule:evenodd;stroke:#000000;stroke-width:2.0px;stroke-linecap:butt;stroke-linejoin:miter;stroke-opacity:1"/>
<path class="bond-12 atom-11 atom-13" d="M 167.0,89.6 L 171.5,118.7" style="fill:none;fill-rule:evenodd;stroke:#000000;stroke-width:2.0px;stroke-linecap:butt;stroke-linejoin:miter;stroke-opacity:1"/>
<path class="bond-13 atom-11 atom-14" d="M 167.0,89.6 L 139.1,99.1" style="fill:none;fill-rule:evenodd;stroke:#000000;stroke-width:2.0px;stroke-linecap:butt;stroke-linejoin:miter;stroke-opacity:1"/>
<path class="bond-14 atom-14 atom-6" d="M 139.1,99.1 L 117.0,79.7" style="fill:none;fill-rule:evenodd;stroke:#000000;stroke-width:2.0px;stroke-linecap:butt;stroke-linejoin:miter;stroke-opacity:1"/>
<path d="M 65.8,70.3 L 67.0,69.9 L 67.8,70.6" style="fill:none;stroke:#000000;stroke-width:2.0px;stroke-linecap:butt;stroke-linejoin:miter;stroke-miterlimit:10;stroke-opacity:1;"/>
<path d="M 122.4,52.3 L 122.7,50.9 L 124.1,50.4" style="fill:none;stroke:#000000;stroke-width:2.0px;stroke-linecap:butt;stroke-linejoin:miter;stroke-miterlimit:10;stroke-opacity:1;"/>
<path d="M 149.2,41.8 L 150.6,41.4 L 151.7,42.3" style="fill:none;stroke:#000000;stroke-width:2.0px;stroke-linecap:butt;stroke-linejoin:miter;stroke-miterlimit:10;stroke-opacity:1;"/>
<path d="M 171.6,59.8 L 172.7,60.7 L 172.4,62.2" style="fill:none;stroke:#000000;stroke-width:2.0px;stroke-linecap:butt;stroke-linejoin:miter;stroke-miterlimit:10;stroke-opacity:1;"/>
<path d="M 140.5,98.6 L 139.1,99.1 L 138.0,98.2" style="fill:none;stroke:#000000;stroke-width:2.0px;stroke-linecap:butt;stroke-linejoin:miter;stroke-miterlimit:10;stroke-opacity:1;"/>
<path class="atom-1" d="M 37.3 75.2 L 40.0 79.6 Q 40.3 80.0, 40.7 80.8 Q 41.1 81.6, 41.2 81.7 L 41.2 75.2 L 42.3 75.2 L 42.3 83.5 L 41.1 83.5 L 38.2 78.7 Q 37.9 78.1, 37.5 77.5 Q 37.1 76.8, 37.0 76.6 L 37.0 83.5 L 36.0 83.5 L 36.0 75.2 L 37.3 75.2 " fill="#000000"/>
<path class="atom-4" d="M 68.9 41.0 Q 68.9 39.0, 69.8 37.9 Q 70.8 36.8, 72.7 36.8 Q 74.5 36.8, 75.5 37.9 Q 76.5 39.0, 76.5 41.0 Q 76.5 43.0, 75.5 44.2 Q 74.5 45.3, 72.7 45.3 Q 70.8 45.3, 69.8 44.2 Q 68.9 43.0, 68.9 41.0 M 72.7 44.4 Q 74.0 44.4, 74.6 43.5 Q 75.3 42.7, 75.3 41.0 Q 75.3 39.4, 74.6 38.5 Q 74.0 37.7, 72.7 37.7 Q 71.4 37.7, 70.7 38.5 Q 70.0 39.3, 70.0 41.0 Q 70.0 42.7, 70.7 43.5 Q 71.4 44.4, 72.7 44.4 " fill="#000000"/>
<path class="atom-5" d="M 85.3 89.3 Q 85.3 87.3, 86.3 86.1 Q 87.3 85.0, 89.1 85.0 Q 91.0 85.0, 92.0 86.1 Q 93.0 87.3, 93.0 89.3 Q 93.0 91.3, 92.0 92.4 Q 91.0 93.6, 89.1 93.6 Q 87.3 93.6, 86.3 92.4 Q 85.3 91.3, 85.3 89.3 M 89.1 92.6 Q 90.4 92.6, 91.1 91.8 Q 91.8 90.9, 91.8 89.3 Q 91.8 87.6, 91.1 86.8 Q 90.4 86.0, 89.1 86.0 Q 87.9 86.0, 87.2 86.8 Q 86.5 87.6, 86.5 89.3 Q 86.5 90.9, 87.2 91.8 Q 87.9 92.6, 89.1 92.6 " fill="#000000"/>
<path class="atom-9" d="M 152.4 12.5 Q 152.4 10.5, 153.4 9.4 Q 154.4 8.3, 156.3 8.3 Q 158.1 8.3, 159.1 9.4 Q 160.1 10.5, 160.1 12.5 Q 160.1 14.5, 159.1 15.7 Q 158.1 16.8, 156.3 16.8 Q 154.4 16.8, 153.4 15.7 Q 152.4 14.5, 152.4 12.5 M 156.3 15.9 Q 157.5 15.9, 158.2 15.0 Q 158.9 14.2, 158.9 12.5 Q 158.9 10.9, 158.2 10.0 Q 157.5 9.2, 156.3 9.2 Q 155.0 9.2, 154.3 10.0 Q 153.6 10.9, 153.6 12.5 Q 153.6 14.2, 154.3 15.0 Q 155.0 15.9, 156.3 15.9 " fill="#000000"/>
</svg>