<svg xmlns="http://www.w3.org/2000/svg" xmlns:rdkit="http://www.rdkit.org/xml" xmlns:xlink="http://www.w3.org/1999/xlink" version="1.1" baseProfile="full" xml:space="preserve" width="283px" height="194px" viewBox="0 0 283 194">
<!-- END OF HEADER -->
<rect style="opacity:1.0;fill:#FFFFFF;stroke:none" width="283.0" height="194.0" x="0.0" y="0.0"> </rect>
<ellipse cx="20.6" cy="66.7" rx="5.9" ry="5.9" class="atom-0" style="fill:#FFC203;fill-rule:evenodd;stroke:#FFC203;stroke-width:1.0px;stroke-linecap:butt;stroke-linejoin:miter;stroke-opacity:1"/>
<ellipse cx="40.5" cy="88.4" rx="5.9" ry="5.9" class="atom-1" style="fill:#FFDA11;fill-rule:evenodd;stroke:#FFDA11;stroke-width:1.0px;stroke-linecap:butt;stroke-linejoin:miter;stroke-opacity:1"/>
<ellipse cx="69.3" cy="82.0" rx="5.9" ry="5.9" class="atom-2" style="fill:#FFDD13;fill-rule:evenodd;stroke:#FFDD13;stroke-width:1.0px;stroke-linecap:butt;stroke-linejoin:miter;stroke-opacity:1"/>
<ellipse cx="89.2" cy="103.8" rx="5.9" ry="5.9" class="atom-3" style="fill:#FCEA24;fill-rule:evenodd;stroke:#FCEA24;stroke-width:1.0px;stroke-linecap:butt;stroke-linejoin:miter;stroke-opacity:1"/>
<ellipse cx="117.9" cy="97.4" rx="5.9" ry="5.9" class="atom-4" style="fill:#FFCF0B;fill-rule:evenodd;stroke:#FFCF0B;stroke-width:1.0px;stroke-linecap:butt;stroke-linejoin:miter;stroke-opacity:1"/>
<ellipse cx="137.8" cy="119.1" rx="5.9" ry="5.9" class="atom-5" style="fill:#F7EE34;fill-rule:evenodd;stroke:#F7EE34;stroke-width:1.0px;stroke-linecap:butt;stroke-linejoin:miter;stroke-opacity:1"/>
<ellipse cx="166.6" cy="112.7" rx="5.9" ry="5.9" class="atom-6" style="fill:#FFB600;fill-rule:evenodd;stroke:#FFB600;stroke-width:1.0px;stroke-linecap:butt;stroke-linejoin:miter;stroke-opacity:1"/>
<ellipse cx="175.4" cy="84.6" rx="5.9" ry="5.9" class="atom-7" style="fill:#EAF961;fill-rule:evenodd;stroke:#EAF961;stroke-width:1.0px;stroke-linecap:butt;stroke-linejoin:miter;stroke-opacity:1"/>
<ellipse cx="204.2" cy="78.2" rx="5.9" ry="5.9" class="atom-8" style="fill:#FFC001;fill-rule:evenodd;stroke:#FFC001;stroke-width:1.0px;stroke-linecap:butt;stroke-linejoin:miter;stroke-opacity:1"/>
<ellipse cx="213.0" cy="50.1" rx="5.9" ry="5.9" class="atom-9" style="fill:#FFC907;fill-rule:evenodd;stroke:#FFC907;stroke-width:1.0px;stroke-linecap:butt;stroke-linejoin:miter;stroke-opacity:1"/>
<ellipse cx="241.8" cy="43.7" rx="5.9" ry="5.9" class="atom-10" style="fill:#FFAE00;fill-rule:evenodd;stroke:#FFAE00;stroke-width:1.0px;stroke-linecap:butt;stroke-linejoin:miter;stroke-opacity:1"/>
<ellipse cx="250.6" cy="15.6" rx="5.9" ry="5.9" class="atom-11" style="fill:#FFDA11;fill-rule:evenodd;stroke:#FFDA11;stroke-width:1.0px;stroke-linecap:butt;stroke-linejoin:miter;stroke-opacity:1"/>
<ellipse cx="261.7" cy="65.4" rx="5.9" ry="5.9" class="atom-12" style="fill:#FFBD00;fill-rule:evenodd;stroke:#FFBD00;stroke-width:1.0px;stroke-linecap:butt;stroke-linejoin:miter;stroke-opacity:1"/>
<ellipse cx="224.1" cy="99.9" rx="5.9" ry="5.9" class="atom-13" style="fill:#FFCC09;fill-rule:evenodd;stroke:#FFCC09;stroke-width:1.0px;stroke-linecap:butt;stroke-linejoin:miter;stroke-opacity:1"/>
<ellipse cx="215.3" cy="128.0" rx="5.9" ry="5.9" class="atom-14" style="fill:#FFE518;fill-rule:evenodd;stroke:#FFE518;stroke-width:1.0px;stroke-linecap:butt;stroke-linejoin:miter;stroke-opacity:1"/>
<ellipse cx="235.2" cy="149.7" rx="5.9" ry="5.9" class="atom-15" style="fill:#FFBC00;fill-rule:evenodd;stroke:#FFBC00;stroke-width:1.0px;stroke-linecap:butt;stroke-linejoin:miter;stroke-opacity:1"/>
<ellipse cx="226.3" cy="177.8" rx="5.9" ry="5.9" class="atom-16" style="fill:#FFE216;fill-rule:evenodd;stroke:#FFE216;stroke-width:1.0px;stroke-linecap:butt;stroke-linejoin:miter;stroke-opacity:1"/>
<ellipse cx="186.5" cy="134.4" rx="5.9" ry="5.9" class="atom-17" style="fill:#FFE317;fill-rule:evenodd;stroke:#FFE317;stroke-width:1.0px;stroke-linecap:butt;stroke-linejoin:miter;stroke-opacity:1"/>
<path class="bond-0 atom-0 atom-1" d="M 20.6,66.7 L 35.7,83.2" style="fill:none;fill-rule:evenodd;stroke:#000000;stroke-width:2.0px;stroke-linecap:butt;stroke-linejoin:miter;stroke-opacity:1"/>
<path class="bond-1 atom-1 atom-2" d="M 45.3,87.4 L 69.3,82.0" style="fill:none;fill-rule:evenodd;stroke:#000000;stroke-width:2.0px;stroke-linecap:butt;stroke-linejoin:miter;stroke-opacity:1"/>
<path class="bond-2 atom-2 atom-3" d="M 69.3,82.0 L 89.2,103.8" style="fill:none;fill-rule:evenodd;stroke:#000000;stroke-width:2.0px;stroke-linecap:butt;stroke-linejoin:miter;stroke-opacity:1"/>
<path class="bond-3 atom-3 atom-4" d="M 89.2,103.8 L 117.9,97.4" style="fill:none;fill-rule:evenodd;stroke:#000000;stroke-width:2.0px;stroke-linecap:butt;stroke-linejoin:miter;stroke-opacity:1"/>
<path class="bond-4 atom-4 atom-5" d="M 117.9,97.4 L 133.7,114.6" style="fill:none;fill-rule:evenodd;stroke:#000000;stroke-width:2.0px;stroke-linecap:butt;stroke-linejoin:miter;stroke-opacity:1"/>
<path class="bond-5 atom-5 atom-6" d="M 142.0,118.2 L 166.6,112.7" style="fill:none;fill-rule:evenodd;stroke:#000000;stroke-width:2.0px;stroke-linecap:butt;stroke-linejoin:miter;stroke-opacity:1"/>
<path class="bond-6 atom-6 atom-7" d="M 166.6,112.7 L 173.8,89.7" style="fill:none;fill-rule:evenodd;stroke:#000000;stroke-width:2.0px;stroke-linecap:butt;stroke-linejoin:miter;stroke-opacity:1"/>
<path class="bond-6 atom-6 atom-7" d="M 171.6,111.6 L 178.0,91.0" style="fill:none;fill-rule:evenodd;stroke:#000000;stroke-width:2.0px;stroke-linecap:butt;stroke-linejoin:miter;stroke-opacity:1"/>
<path class="bond-7 atom-7 atom-8" d="M 179.6,83.7 L 204.2,78.2" style="fill:none;fill-rule:evenodd;stroke:#000000;stroke-width:2.0px;stroke-linecap:butt;stroke-linejoin:miter;stroke-opacity:1"/>
<path class="bond-8 atom-8 atom-9" d="M 204.2,78.2 L 211.4,55.2" style="fill:none;fill-rule:evenodd;stroke:#000000;stroke-width:2.0px;stroke-linecap:butt;stroke-linejoin:miter;stroke-opacity:1"/>
<path class="bond-9 atom-9 atom-10" d="M 217.2,49.2 L 241.8,43.7" style="fill:none;fill-rule:evenodd;stroke:#000000;stroke-width:2.0px;stroke-linecap:butt;stroke-linejoin:miter;stroke-opacity:1"/>
<path class="bond-10 atom-10 atom-11" d="M 241.8,43.7 L 250.6,15.6" style="fill:none;fill-rule:evenodd;stroke:#000000;stroke-width:2.0px;stroke-linecap:butt;stroke-linejoin:miter;stroke-opacity:1"/>
<path class="bond-11 atom-10 atom-12" d="M 241.8,43.7 L 261.7,65.4" style="fill:none;fill-rule:evenodd;stroke:#000000;stroke-width:2.0px;stroke-linecap:butt;stroke-linejoin:miter;stroke-opacity:1"/>
<path class="bond-12 atom-8 atom-13" d="M 204.2,78.2 L 220.0,95.4" style="fill:none;fill-rule:evenodd;stroke:#000000;stroke-width:2.0px;stroke-linecap:butt;stroke-linejoin:miter;stroke-opacity:1"/>
<path class="bond-12 atom-8 atom-13" d="M 202.7,83.1 L 216.7,98.4" style="fill:none;fill-rule:evenodd;stroke:#000000;stroke-width:2.0px;stroke-linecap:butt;stroke-linejoin:miter;stroke-opacity:1"/>
<path class="bond-13 atom-13 atom-14" d="M 222.5,105.0 L 215.3,128.0" style="fill:none;fill-rule:evenodd;stroke:#000000;stroke-width:2.0px;stroke-linecap:butt;stroke-linejoin:miter;stroke-opacity:1"/>
<path class="bond-14 atom-14 atom-15" d="M 215.3,128.0 L 231.5,145.7" style="fill:none;fill-rule:evenodd;stroke:#000000;stroke-width:2.0px;stroke-linecap:butt;stroke-linejoin:miter;stroke-opacity:1"/>
<path class="bond-15 atom-15 atom-16" d="M 233.5,155.1 L 226.3,177.8" style="fill:none;fill-rule:evenodd;stroke:#000000;stroke-width:2.0px;stroke-linecap:butt;stroke-linejoin:miter;stroke-opacity:1"/>
<path class="bond-16 atom-14 atom-17" d="M 215.3,128.0 L 190.7,133.5" style="fill:none;fill-rule:evenodd;stroke:#000000;stroke-width:2.0px;stroke-linecap:butt;stroke-linejoin:miter;stroke-opacity:1"/>
<path class="bond-16 atom-14 atom-17" d="M 211.8,124.2 L 189.7,129.2" style="fill:none;fill-rule:evenodd;stroke:#000000;stroke-width:2.0px;stroke-linecap:butt;stroke-linejoin:miter;stroke-opacity:1"/>
<path class="bond-17 atom-17 atom-6" d="M 182.4,129.9 L 166.6,112.7" style="fill:none;fill-rule:evenodd;stroke:#000000;stroke-width:2.0px;stroke-linecap:butt;stroke-linejoin:miter;stroke-opacity:1"/>
<path d="M 68.1,82.3 L 69.3,82.0 L 70.2,83.1" style="fill:none;stroke:#000000;stroke-width:2.0px;stroke-linecap:butt;stroke-linejoin:miter;stroke-miterlimit:10;stroke-opacity:1;"/>
<path d="M 88.2,102.7 L 89.2,103.8 L 90.6,103.4" style="fill:none;stroke:#000000;stroke-width:2.0px;stroke-linecap:butt;stroke-linejoin:miter;stroke-miterlimit:10;stroke-opacity:1;"/>
<path d="M 116.5,97.7 L 117.9,97.4 L 118.7,98.2" style="fill:none;stroke:#000000;stroke-width:2.0px;stroke-linecap:butt;stroke-linejoin:miter;stroke-miterlimit:10;stroke-opacity:1;"/>
<path class="atom-1" d="M 36.7 88.5 Q 36.7 86.5, 37.7 85.3 Q 38.6 84.2, 40.5 84.2 Q 42.3 84.2, 43.3 85.3 Q 44.3 86.5, 44.3 88.5 Q 44.3 90.5, 43.3 91.6 Q 42.3 92.8, 40.5 92.8 Q 38.7 92.8, 37.7 91.6 Q 36.7 90.5, 36.7 88.5 M 40.5 91.8 Q 41.8 91.8, 42.5 91.0 Q 43.1 90.1, 43.1 88.5 Q 43.1 86.8, 42.5 86.0 Q 41.8 85.2, 40.5 85.2 Q 39.2 85.2, 38.5 86.0 Q 37.8 86.8, 37.8 88.5 Q 37.8 90.1, 38.5 91.0 Q 39.2 91.8, 40.5 91.8 " fill="#000000"/>
<path class="atom-5" d="M 136.0 114.9 L 138.7 119.3 Q 139.0 119.8, 139.4 120.5 Q 139.9 121.3, 139.9 121.4 L 139.9 114.9 L 141.0 114.9 L 141.0 123.2 L 139.9 123.2 L 136.9 118.4 Q 136.6 117.8, 136.2 117.2 Q 135.9 116.5, 135.8 116.3 L 135.8 123.2 L 134.7 123.2 L 134.7 114.9 L 136.0 114.9 " fill="#000000"/>
<path class="atom-5" d="M 134.6 124.1 L 135.7 124.1 L 135.7 127.6 L 140.0 127.6 L 140.0 124.1 L 141.1 124.1 L 141.1 132.4 L 140.0 132.4 L 140.0 128.6 L 135.7 128.6 L 135.7 132.4 L 134.6 132.4 L 134.6 124.1 " fill="#000000"/>
<path class="atom-7" d="M 173.6 80.4 L 176.3 84.8 Q 176.6 85.3, 177.0 86.1 Q 177.5 86.8, 177.5 86.9 L 177.5 80.4 L 178.6 80.4 L 178.6 88.7 L 177.5 88.7 L 174.5 83.9 Q 174.2 83.4, 173.8 82.7 Q 173.5 82.1, 173.4 81.9 L 173.4 88.7 L 172.3 88.7 L 172.3 80.4 L 173.6 80.4 " fill="#000000"/>
<path class="atom-9" d="M 201.7 45.9 L 202.8 45.9 L 202.8 49.5 L 207.1 49.5 L 207.1 45.9 L 208.2 45.9 L 208.2 54.3 L 207.1 54.3 L 207.1 50.4 L 202.8 50.4 L 202.8 54.3 L 201.7 54.3 L 201.7 45.9 " fill="#000000"/>
<path class="atom-9" d="M 211.2 45.9 L 213.9 50.3 Q 214.2 50.8, 214.6 51.6 Q 215.1 52.3, 215.1 52.4 L 215.1 45.9 L 216.2 45.9 L 216.2 54.3 L 215.1 54.3 L 212.1 49.4 Q 211.8 48.9, 211.4 48.2 Q 211.1 47.6, 211.0 47.4 L 211.0 54.3 L 209.9 54.3 L 209.9 45.9 L 211.2 45.9 " fill="#000000"/>
<path class="atom-13" d="M 222.3 95.7 L 225.0 100.1 Q 225.3 100.6, 225.7 101.4 Q 226.1 102.2, 226.2 102.2 L 226.2 95.7 L 227.3 95.7 L 227.3 104.1 L 226.1 104.1 L 223.2 99.2 Q 222.9 98.7, 222.5 98.0 Q 222.1 97.4, 222.0 97.2 L 222.0 104.1 L 221.0 104.1 L 221.0 95.7 L 222.3 95.7 " fill="#000000"/>
<path class="atom-15" d="M 232.8 152.6 Q 232.9 152.6, 233.3 152.8 Q 233.7 152.9, 234.1 153.0 Q 234.6 153.1, 235.0 153.1 Q 235.8 153.1, 236.2 152.8 Q 236.7 152.4, 236.7 151.7 Q 236.7 151.2, 236.5 151.0 Q 236.2 150.7, 235.9 150.5 Q 235.5 150.4, 234.9 150.2 Q 234.2 150.0, 233.7 149.8 Q 233.3 149.5, 233.0 149.1 Q 232.7 148.6, 232.7 147.9 Q 232.7 146.8, 233.4 146.2 Q 234.1 145.5, 235.5 145.5 Q 236.5 145.5, 237.6 146.0 L 237.3 146.9 Q 236.3 146.5, 235.6 146.5 Q 234.8 146.5, 234.3 146.8 Q 233.9 147.2, 233.9 147.8 Q 233.9 148.2, 234.1 148.5 Q 234.3 148.7, 234.7 148.9 Q 235.0 149.0, 235.6 149.2 Q 236.3 149.5, 236.8 149.7 Q 237.2 149.9, 237.5 150.4 Q 237.9 150.9, 237.9 151.7 Q 237.9 152.9, 237.1 153.5 Q 236.3 154.1, 235.0 154.1 Q 234.3 154.1, 233.7 153.9 Q 233.2 153.8, 232.5 153.5 L 232.8 152.6 " fill="#000000"/>
<path class="atom-17" d="M 184.7 130.2 L 187.4 134.6 Q 187.7 135.1, 188.1 135.9 Q 188.5 136.7, 188.6 136.7 L 188.6 130.2 L 189.7 130.2 L 189.7 138.6 L 188.5 138.6 L 185.6 133.7 Q 185.3 133.2, 184.9 132.5 Q 184.5 131.9, 184.4 131.7 L 184.4 138.6 L 183.4 138.6 L 183.4 130.2 L 184.7 130.2 " fill="#000000"/>
</svg>