<svg xmlns="http://www.w3.org/2000/svg" xmlns:rdkit="http://www.rdkit.org/xml" xmlns:xlink="http://www.w3.org/1999/xlink" version="1.1" baseProfile="full" xml:space="preserve" width="288px" height="185px" viewBox="0 0 288 185">
<!-- END OF HEADER -->
<rect style="opacity:1.0;fill:#FFFFFF;stroke:none" width="288.0" height="185.0" x="0.0" y="0.0"> </rect>
<ellipse cx="21.4" cy="89.2" rx="6.7" ry="6.7" class="atom-0" style="fill:#7F7FFF;fill-rule:evenodd;stroke:#7F7FFF;stroke-width:1.0px;stroke-linecap:butt;stroke-linejoin:miter;stroke-opacity:1"/>
<ellipse cx="47.8" cy="75.9" rx="6.7" ry="6.7" class="atom-1" style="fill:#7F7FFF;fill-rule:evenodd;stroke:#7F7FFF;stroke-width:1.0px;stroke-linecap:butt;stroke-linejoin:miter;stroke-opacity:1"/>
<ellipse cx="72.5" cy="92.2" rx="6.7" ry="6.7" class="atom-2" style="fill:#7F7FFF;fill-rule:evenodd;stroke:#7F7FFF;stroke-width:1.0px;stroke-linecap:butt;stroke-linejoin:miter;stroke-opacity:1"/>
<ellipse cx="99.0" cy="79.0" rx="6.7" ry="6.7" class="atom-3" style="fill:#7F7FFF;fill-rule:evenodd;stroke:#7F7FFF;stroke-width:1.0px;stroke-linecap:butt;stroke-linejoin:miter;stroke-opacity:1"/>
<ellipse cx="123.6" cy="95.2" rx="4.5" ry="4.5" class="atom-4" style="fill:#FF7F7F;fill-rule:evenodd;stroke:#FF7F7F;stroke-width:1.0px;stroke-linecap:butt;stroke-linejoin:miter;stroke-opacity:1"/>
<ellipse cx="150.1" cy="82.0" rx="4.5" ry="4.5" class="atom-5" style="fill:#FF7F7F;fill-rule:evenodd;stroke:#FF7F7F;stroke-width:1.0px;stroke-linecap:butt;stroke-linejoin:miter;stroke-opacity:1"/>
<ellipse cx="174.8" cy="98.3" rx="4.5" ry="4.5" class="atom-6" style="fill:#FF7F7F;fill-rule:evenodd;stroke:#FF7F7F;stroke-width:1.0px;stroke-linecap:butt;stroke-linejoin:miter;stroke-opacity:1"/>
<ellipse cx="173.0" cy="127.8" rx="4.7" ry="4.7" class="atom-7" style="fill:#FF7F7F;fill-rule:evenodd;stroke:#FF7F7F;stroke-width:1.0px;stroke-linecap:butt;stroke-linejoin:miter;stroke-opacity:1"/>
<ellipse cx="197.7" cy="144.1" rx="4.7" ry="4.7" class="atom-8" style="fill:#FF7F7F;fill-rule:evenodd;stroke:#FF7F7F;stroke-width:1.0px;stroke-linecap:butt;stroke-linejoin:miter;stroke-opacity:1"/>
<ellipse cx="146.6" cy="141.0" rx="4.7" ry="4.7" class="atom-9" style="fill:#FF7F7F;fill-rule:evenodd;stroke:#FF7F7F;stroke-width:1.0px;stroke-linecap:butt;stroke-linejoin:miter;stroke-opacity:1"/>
<ellipse cx="144.8" cy="170.6" rx="4.7" ry="4.7" class="atom-10" style="fill:#FF7F7F;fill-rule:evenodd;stroke:#FF7F7F;stroke-width:1.0px;stroke-linecap:butt;stroke-linejoin:miter;stroke-opacity:1"/>
<ellipse cx="201.2" cy="85.0" rx="19.0" ry="19.0" class="atom-11" style="fill:#7F7FFF;fill-rule:evenodd;stroke:#7F7FFF;stroke-width:1.0px;stroke-linecap:butt;stroke-linejoin:miter;stroke-opacity:1"/>
<ellipse cx="203.0" cy="55.5" rx="19.0" ry="19.0" class="atom-12" style="fill:#7F7FFF;fill-rule:evenodd;stroke:#7F7FFF;stroke-width:1.0px;stroke-linecap:butt;stroke-linejoin:miter;stroke-opacity:1"/>
<ellipse cx="178.3" cy="39.2" rx="0.5" ry="0.5" class="atom-13" style="fill:#FF7F7F;fill-rule:evenodd;stroke:#FF7F7F;stroke-width:1.0px;stroke-linecap:butt;stroke-linejoin:miter;stroke-opacity:1"/>
<ellipse cx="180.0" cy="9.7" rx="0.5" ry="0.5" class="atom-14" style="fill:#FF7F7F;fill-rule:evenodd;stroke:#FF7F7F;stroke-width:1.0px;stroke-linecap:butt;stroke-linejoin:miter;stroke-opacity:1"/>
<ellipse cx="229.4" cy="42.3" rx="19.0" ry="19.0" class="atom-15" style="fill:#7F7FFF;fill-rule:evenodd;stroke:#7F7FFF;stroke-width:1.0px;stroke-linecap:butt;stroke-linejoin:miter;stroke-opacity:1"/>
<ellipse cx="254.1" cy="58.5" rx="19.0" ry="19.0" class="atom-16" style="fill:#7F7FFF;fill-rule:evenodd;stroke:#7F7FFF;stroke-width:1.0px;stroke-linecap:butt;stroke-linejoin:miter;stroke-opacity:1"/>
<ellipse cx="252.3" cy="88.1" rx="19.0" ry="19.0" class="atom-17" style="fill:#7F7FFF;fill-rule:evenodd;stroke:#7F7FFF;stroke-width:1.0px;stroke-linecap:butt;stroke-linejoin:miter;stroke-opacity:1"/>
<ellipse cx="225.9" cy="101.3" rx="19.0" ry="19.0" class="atom-18" style="fill:#7F7FFF;fill-rule:evenodd;stroke:#7F7FFF;stroke-width:1.0px;stroke-linecap:butt;stroke-linejoin:miter;stroke-opacity:1"/>
<ellipse cx="224.2" cy="130.8" rx="0.5" ry="0.5" class="atom-19" style="fill:#FF7F7F;fill-rule:evenodd;stroke:#FF7F7F;stroke-width:1.0px;stroke-linecap:butt;stroke-linejoin:miter;stroke-opacity:1"/>
<ellipse cx="248.9" cy="147.1" rx="0.5" ry="0.5" class="atom-20" style="fill:#FF7F7F;fill-rule:evenodd;stroke:#FF7F7F;stroke-width:1.0px;stroke-linecap:butt;stroke-linejoin:miter;stroke-opacity:1"/>
<path class="bond-0 atom-0 atom-1" d="M 21.4,89.2 L 47.8,75.9" style="fill:none;fill-rule:evenodd;stroke:#000000;stroke-width:2.0px;stroke-linecap:butt;stroke-linejoin:miter;stroke-opacity:1"/>
<path class="bond-1 atom-1 atom-2" d="M 47.8,75.9 L 72.5,92.2" style="fill:none;fill-rule:evenodd;stroke:#000000;stroke-width:2.0px;stroke-linecap:butt;stroke-linejoin:miter;stroke-opacity:1"/>
<path class="bond-2 atom-2 atom-3" d="M 72.5,92.2 L 99.0,79.0" style="fill:none;fill-rule:evenodd;stroke:#000000;stroke-width:2.0px;stroke-linecap:butt;stroke-linejoin:miter;stroke-opacity:1"/>
<path class="bond-3 atom-3 atom-4" d="M 99.0,79.0 L 118.8,92.1" style="fill:none;fill-rule:evenodd;stroke:#000000;stroke-width:2.0px;stroke-linecap:butt;stroke-linejoin:miter;stroke-opacity:1"/>
<path class="bond-4 atom-4 atom-5" d="M 128.5,92.8 L 150.1,82.0" style="fill:none;fill-rule:evenodd;stroke:#000000;stroke-width:2.0px;stroke-linecap:butt;stroke-linejoin:miter;stroke-opacity:1"/>
<path class="bond-5 atom-5 atom-6" d="M 150.1,82.0 L 170.6,95.5" style="fill:none;fill-rule:evenodd;stroke:#000000;stroke-width:2.0px;stroke-linecap:butt;stroke-linejoin:miter;stroke-opacity:1"/>
<path class="bond-6 atom-6 atom-7" d="M 174.5,103.4 L 173.0,127.8" style="fill:none;fill-rule:evenodd;stroke:#000000;stroke-width:2.0px;stroke-linecap:butt;stroke-linejoin:miter;stroke-opacity:1"/>
<path class="bond-7 atom-7 atom-8" d="M 170.7,128.9 L 191.7,142.7" style="fill:none;fill-rule:evenodd;stroke:#000000;stroke-width:2.0px;stroke-linecap:butt;stroke-linejoin:miter;stroke-opacity:1"/>
<path class="bond-7 atom-7 atom-8" d="M 173.2,125.2 L 194.1,139.0" style="fill:none;fill-rule:evenodd;stroke:#000000;stroke-width:2.0px;stroke-linecap:butt;stroke-linejoin:miter;stroke-opacity:1"/>
<path class="bond-8 atom-7 atom-9" d="M 173.0,127.8 L 146.6,141.0" style="fill:none;fill-rule:evenodd;stroke:#000000;stroke-width:2.0px;stroke-linecap:butt;stroke-linejoin:miter;stroke-opacity:1"/>
<path class="bond-9 atom-9 atom-10" d="M 146.6,141.0 L 145.1,165.6" style="fill:none;fill-rule:evenodd;stroke:#000000;stroke-width:2.0px;stroke-linecap:butt;stroke-linejoin:miter;stroke-opacity:1"/>
<path class="bond-10 atom-6 atom-11" d="M 178.9,96.2 L 201.2,85.0" style="fill:none;fill-rule:evenodd;stroke:#000000;stroke-width:2.0px;stroke-linecap:butt;stroke-linejoin:miter;stroke-opacity:1"/>
<path class="bond-11 atom-11 atom-12" d="M 201.2,85.0 L 203.0,55.5" style="fill:none;fill-rule:evenodd;stroke:#000000;stroke-width:2.0px;stroke-linecap:butt;stroke-linejoin:miter;stroke-opacity:1"/>
<path class="bond-11 atom-11 atom-12" d="M 205.8,82.7 L 207.2,58.3" style="fill:none;fill-rule:evenodd;stroke:#000000;stroke-width:2.0px;stroke-linecap:butt;stroke-linejoin:miter;stroke-opacity:1"/>
<path class="bond-12 atom-12 atom-13" d="M 203.0,55.5 L 178.3,39.2" style="fill:none;fill-rule:evenodd;stroke:#000000;stroke-width:2.0px;stroke-linecap:butt;stroke-linejoin:miter;stroke-opacity:1"/>
<path class="bond-13 atom-13 atom-14" d="M 178.3,39.2 L 180.0,9.7" style="fill:none;fill-rule:evenodd;stroke:#000000;stroke-width:2.0px;stroke-linecap:butt;stroke-linejoin:miter;stroke-opacity:1"/>
<path class="bond-14 atom-12 atom-15" d="M 203.0,55.5 L 229.4,42.3" style="fill:none;fill-rule:evenodd;stroke:#000000;stroke-width:2.0px;stroke-linecap:butt;stroke-linejoin:miter;stroke-opacity:1"/>
<path class="bond-15 atom-15 atom-16" d="M 229.4,42.3 L 254.1,58.5" style="fill:none;fill-rule:evenodd;stroke:#000000;stroke-width:2.0px;stroke-linecap:butt;stroke-linejoin:miter;stroke-opacity:1"/>
<path class="bond-15 atom-15 atom-16" d="M 229.1,47.4 L 249.5,60.8" style="fill:none;fill-rule:evenodd;stroke:#000000;stroke-width:2.0px;stroke-linecap:butt;stroke-linejoin:miter;stroke-opacity:1"/>
<path class="bond-16 atom-16 atom-17" d="M 254.1,58.5 L 252.3,88.1" style="fill:none;fill-rule:evenodd;stroke:#000000;stroke-width:2.0px;stroke-linecap:butt;stroke-linejoin:miter;stroke-opacity:1"/>
<path class="bond-17 atom-17 atom-18" d="M 252.3,88.1 L 225.9,101.3" style="fill:none;fill-rule:evenodd;stroke:#000000;stroke-width:2.0px;stroke-linecap:butt;stroke-linejoin:miter;stroke-opacity:1"/>
<path class="bond-17 atom-17 atom-18" d="M 248.1,85.2 L 226.2,96.2" style="fill:none;fill-rule:evenodd;stroke:#000000;stroke-width:2.0px;stroke-linecap:butt;stroke-linejoin:miter;stroke-opacity:1"/>
<path class="bond-18 atom-18 atom-19" d="M 225.9,101.3 L 224.2,130.8" style="fill:none;fill-rule:evenodd;stroke:#000000;stroke-width:2.0px;stroke-linecap:butt;stroke-linejoin:miter;stroke-opacity:1"/>
<path class="bond-19 atom-19 atom-20" d="M 224.2,130.8 L 248.9,147.1" style="fill:none;fill-rule:evenodd;stroke:#000000;stroke-width:2.0px;stroke-linecap:butt;stroke-linejoin:miter;stroke-opacity:1"/>
<path class="bond-20 atom-18 atom-11" d="M 225.9,101.3 L 201.2,85.0" style="fill:none;fill-rule:evenodd;stroke:#000000;stroke-width:2.0px;stroke-linecap:butt;stroke-linejoin:miter;stroke-opacity:1"/>
<path d="M 46.5,76.6 L 47.8,75.9 L 49.1,76.8" style="fill:none;stroke:#000000;stroke-width:2.0px;stroke-linecap:butt;stroke-linejoin:miter;stroke-miterlimit:10;stroke-opacity:1;"/>
<path d="M 71.3,91.4 L 72.5,92.2 L 73.8,91.6" style="fill:none;stroke:#000000;stroke-width:2.0px;stroke-linecap:butt;stroke-linejoin:miter;stroke-miterlimit:10;stroke-opacity:1;"/>
<path d="M 97.6,79.6 L 99.0,79.0 L 100.0,79.6" style="fill:none;stroke:#000000;stroke-width:2.0px;stroke-linecap:butt;stroke-linejoin:miter;stroke-miterlimit:10;stroke-opacity:1;"/>
<path d="M 149.0,82.5 L 150.1,82.0 L 151.1,82.7" style="fill:none;stroke:#000000;stroke-width:2.0px;stroke-linecap:butt;stroke-linejoin:miter;stroke-miterlimit:10;stroke-opacity:1;"/>
<path d="M 173.1,126.6 L 173.0,127.8 L 171.7,128.5" style="fill:none;stroke:#000000;stroke-width:2.0px;stroke-linecap:butt;stroke-linejoin:miter;stroke-miterlimit:10;stroke-opacity:1;"/>
<path d="M 147.9,140.4 L 146.6,141.0 L 146.5,142.3" style="fill:none;stroke:#000000;stroke-width:2.0px;stroke-linecap:butt;stroke-linejoin:miter;stroke-miterlimit:10;stroke-opacity:1;"/>
<path d="M 179.5,40.0 L 178.3,39.2 L 178.4,37.8" style="fill:none;stroke:#000000;stroke-width:2.0px;stroke-linecap:butt;stroke-linejoin:miter;stroke-miterlimit:10;stroke-opacity:1;"/>
<path d="M 228.1,42.9 L 229.4,42.3 L 230.6,43.1" style="fill:none;stroke:#000000;stroke-width:2.0px;stroke-linecap:butt;stroke-linejoin:miter;stroke-miterlimit:10;stroke-opacity:1;"/>
<path d="M 252.9,57.7 L 254.1,58.5 L 254.0,60.0" style="fill:none;stroke:#000000;stroke-width:2.0px;stroke-linecap:butt;stroke-linejoin:miter;stroke-miterlimit:10;stroke-opacity:1;"/>
<path d="M 252.4,86.6 L 252.3,88.1 L 251.0,88.7" style="fill:none;stroke:#000000;stroke-width:2.0px;stroke-linecap:butt;stroke-linejoin:miter;stroke-miterlimit:10;stroke-opacity:1;"/>
<path d="M 224.2,129.3 L 224.2,130.8 L 225.4,131.6" style="fill:none;stroke:#000000;stroke-width:2.0px;stroke-linecap:butt;stroke-linejoin:miter;stroke-miterlimit:10;stroke-opacity:1;"/>
<path class="atom-4" d="M 119.8 95.3 Q 119.8 93.3, 120.8 92.1 Q 121.8 91.0, 123.6 91.0 Q 125.5 91.0, 126.5 92.1 Q 127.5 93.3, 127.5 95.3 Q 127.5 97.3, 126.5 98.5 Q 125.5 99.6, 123.6 99.6 Q 121.8 99.6, 120.8 98.5 Q 119.8 97.3, 119.8 95.3 M 123.6 98.7 Q 124.9 98.7, 125.6 97.8 Q 126.3 96.9, 126.3 95.3 Q 126.3 93.6, 125.6 92.8 Q 124.9 92.0, 123.6 92.0 Q 122.4 92.0, 121.7 92.8 Q 121.0 93.6, 121.0 95.3 Q 121.0 97.0, 121.7 97.8 Q 122.4 98.7, 123.6 98.7 " fill="#000000"/>
<path class="atom-6" d="M 172.9 94.1 L 175.7 98.5 Q 175.9 99.0, 176.4 99.8 Q 176.8 100.5, 176.8 100.6 L 176.8 94.1 L 178.0 94.1 L 178.0 102.5 L 176.8 102.5 L 173.9 97.6 Q 173.5 97.0, 173.2 96.4 Q 172.8 95.7, 172.7 95.5 L 172.7 102.5 L 171.6 102.5 L 171.6 94.1 L 172.9 94.1 " fill="#000000"/>
<path class="atom-8" d="M 193.9 144.1 Q 193.9 142.1, 194.9 141.0 Q 195.9 139.8, 197.7 139.8 Q 199.6 139.8, 200.6 141.0 Q 201.6 142.1, 201.6 144.1 Q 201.6 146.1, 200.6 147.3 Q 199.6 148.4, 197.7 148.4 Q 195.9 148.4, 194.9 147.3 Q 193.9 146.1, 193.9 144.1 M 197.7 147.5 Q 199.0 147.5, 199.7 146.6 Q 200.4 145.8, 200.4 144.1 Q 200.4 142.4, 199.7 141.6 Q 199.0 140.8, 197.7 140.8 Q 196.4 140.8, 195.7 141.6 Q 195.1 142.4, 195.1 144.1 Q 195.1 145.8, 195.7 146.6 Q 196.4 147.5, 197.7 147.5 " fill="#000000"/>
<path class="atom-10" d="M 141.6 170.8 Q 141.6 168.8, 142.6 167.7 Q 143.6 166.6, 145.4 166.6 Q 147.2 166.6, 148.1 167.8 L 147.3 168.4 Q 146.6 167.5, 145.4 167.5 Q 144.2 167.5, 143.5 168.4 Q 142.8 169.2, 142.8 170.8 Q 142.8 172.5, 143.5 173.4 Q 144.2 174.2, 145.6 174.2 Q 146.5 174.2, 147.6 173.7 L 147.9 174.5 Q 147.4 174.8, 146.8 175.0 Q 146.1 175.2, 145.4 175.2 Q 143.6 175.2, 142.6 174.0 Q 141.6 172.9, 141.6 170.8 " fill="#000000"/>
<path class="atom-10" d="M 148.9 166.1 L 150.0 166.1 L 150.0 175.0 L 148.9 175.0 L 148.9 166.1 " fill="#000000"/>
</svg>