<svg xmlns="http://www.w3.org/2000/svg" xmlns:rdkit="http://www.rdkit.org/xml" xmlns:xlink="http://www.w3.org/1999/xlink" version="1.1" baseProfile="full" xml:space="preserve" width="202px" height="152px" viewBox="0 0 202 152">
<!-- END OF HEADER -->
<rect style="opacity:1.0;fill:#FFFFFF;stroke:none" width="202.0" height="152.0" x="0.0" y="0.0"> </rect>
<ellipse cx="16.7" cy="120.7" rx="6.0" ry="6.0" class="atom-0" style="fill:#7FBF7F;fill-rule:evenodd;stroke:#7FBF7F;stroke-width:1.0px;stroke-linecap:butt;stroke-linejoin:miter;stroke-opacity:1"/>
<ellipse cx="46.0" cy="119.7" rx="7.0" ry="7.0" class="atom-1" style="fill:#7FBF7F;fill-rule:evenodd;stroke:#7FBF7F;stroke-width:1.0px;stroke-linecap:butt;stroke-linejoin:miter;stroke-opacity:1"/>
<ellipse cx="59.8" cy="93.8" rx="6.5" ry="6.5" class="atom-2" style="fill:#7FBF7F;fill-rule:evenodd;stroke:#7FBF7F;stroke-width:1.0px;stroke-linecap:butt;stroke-linejoin:miter;stroke-opacity:1"/>
<ellipse cx="44.3" cy="68.9" rx="6.9" ry="6.9" class="atom-3" style="fill:#7FBF7F;fill-rule:evenodd;stroke:#7FBF7F;stroke-width:1.0px;stroke-linecap:butt;stroke-linejoin:miter;stroke-opacity:1"/>
<ellipse cx="89.1" cy="92.7" rx="6.6" ry="6.6" class="atom-4" style="fill:#7FBF7F;fill-rule:evenodd;stroke:#7FBF7F;stroke-width:1.0px;stroke-linecap:butt;stroke-linejoin:miter;stroke-opacity:1"/>
<ellipse cx="102.9" cy="66.8" rx="6.7" ry="6.7" class="atom-5" style="fill:#7FBF7F;fill-rule:evenodd;stroke:#7FBF7F;stroke-width:1.0px;stroke-linecap:butt;stroke-linejoin:miter;stroke-opacity:1"/>
<ellipse cx="87.4" cy="41.9" rx="6.8" ry="6.8" class="atom-6" style="fill:#7FBF7F;fill-rule:evenodd;stroke:#7FBF7F;stroke-width:1.0px;stroke-linecap:butt;stroke-linejoin:miter;stroke-opacity:1"/>
<ellipse cx="101.2" cy="16.0" rx="7.5" ry="7.5" class="atom-7" style="fill:#7FBF7F;fill-rule:evenodd;stroke:#7FBF7F;stroke-width:1.0px;stroke-linecap:butt;stroke-linejoin:miter;stroke-opacity:1"/>
<ellipse cx="130.5" cy="15.0" rx="7.4" ry="7.4" class="atom-8" style="fill:#7FBF7F;fill-rule:evenodd;stroke:#7FBF7F;stroke-width:1.0px;stroke-linecap:butt;stroke-linejoin:miter;stroke-opacity:1"/>
<ellipse cx="146.0" cy="39.9" rx="7.1" ry="7.1" class="atom-9" style="fill:#7FBF7F;fill-rule:evenodd;stroke:#7FBF7F;stroke-width:1.0px;stroke-linecap:butt;stroke-linejoin:miter;stroke-opacity:1"/>
<ellipse cx="132.3" cy="65.8" rx="6.9" ry="6.9" class="atom-10" style="fill:#7FBF7F;fill-rule:evenodd;stroke:#7FBF7F;stroke-width:1.0px;stroke-linecap:butt;stroke-linejoin:miter;stroke-opacity:1"/>
<ellipse cx="147.8" cy="90.7" rx="7.4" ry="7.4" class="atom-11" style="fill:#7FBF7F;fill-rule:evenodd;stroke:#7FBF7F;stroke-width:1.0px;stroke-linecap:butt;stroke-linejoin:miter;stroke-opacity:1"/>
<ellipse cx="177.1" cy="92.8" rx="6.1" ry="6.1" class="atom-12" style="fill:#7FBF7F;fill-rule:evenodd;stroke:#7FBF7F;stroke-width:1.0px;stroke-linecap:butt;stroke-linejoin:miter;stroke-opacity:1"/>
<ellipse cx="184.2" cy="121.2" rx="6.3" ry="6.3" class="atom-13" style="fill:#7FBF7F;fill-rule:evenodd;stroke:#7FBF7F;stroke-width:1.0px;stroke-linecap:butt;stroke-linejoin:miter;stroke-opacity:1"/>
<ellipse cx="159.3" cy="136.8" rx="6.8" ry="6.8" class="atom-14" style="fill:#7FBF7F;fill-rule:evenodd;stroke:#7FBF7F;stroke-width:1.0px;stroke-linecap:butt;stroke-linejoin:miter;stroke-opacity:1"/>
<ellipse cx="136.8" cy="117.9" rx="7.2" ry="7.2" class="atom-15" style="fill:#7FBF7F;fill-rule:evenodd;stroke:#7FBF7F;stroke-width:1.0px;stroke-linecap:butt;stroke-linejoin:miter;stroke-opacity:1"/>
<path class="bond-0 atom-0 atom-1" d="M 16.7,120.7 L 41.9,119.8" style="fill:none;fill-rule:evenodd;stroke:#000000;stroke-width:2.0px;stroke-linecap:butt;stroke-linejoin:miter;stroke-opacity:1"/>
<path class="bond-1 atom-1 atom-2" d="M 48.8,114.5 L 59.8,93.8" style="fill:none;fill-rule:evenodd;stroke:#000000;stroke-width:2.0px;stroke-linecap:butt;stroke-linejoin:miter;stroke-opacity:1"/>
<path class="bond-2 atom-2 atom-3" d="M 62.4,93.7 L 49.4,73.0" style="fill:none;fill-rule:evenodd;stroke:#000000;stroke-width:2.0px;stroke-linecap:butt;stroke-linejoin:miter;stroke-opacity:1"/>
<path class="bond-2 atom-2 atom-3" d="M 58.6,96.0 L 45.7,75.3" style="fill:none;fill-rule:evenodd;stroke:#000000;stroke-width:2.0px;stroke-linecap:butt;stroke-linejoin:miter;stroke-opacity:1"/>
<path class="bond-3 atom-2 atom-4" d="M 59.8,93.8 L 84.4,92.9" style="fill:none;fill-rule:evenodd;stroke:#000000;stroke-width:2.0px;stroke-linecap:butt;stroke-linejoin:miter;stroke-opacity:1"/>
<path class="bond-4 atom-4 atom-5" d="M 91.9,87.6 L 102.9,66.8" style="fill:none;fill-rule:evenodd;stroke:#000000;stroke-width:2.0px;stroke-linecap:butt;stroke-linejoin:miter;stroke-opacity:1"/>
<path class="bond-5 atom-5 atom-6" d="M 102.9,66.8 L 87.4,41.9" style="fill:none;fill-rule:evenodd;stroke:#000000;stroke-width:2.0px;stroke-linecap:butt;stroke-linejoin:miter;stroke-opacity:1"/>
<path class="bond-5 atom-5 atom-6" d="M 105.3,62.3 L 92.5,41.8" style="fill:none;fill-rule:evenodd;stroke:#000000;stroke-width:2.0px;stroke-linecap:butt;stroke-linejoin:miter;stroke-opacity:1"/>
<path class="bond-6 atom-6 atom-7" d="M 87.4,41.9 L 101.2,16.0" style="fill:none;fill-rule:evenodd;stroke:#000000;stroke-width:2.0px;stroke-linecap:butt;stroke-linejoin:miter;stroke-opacity:1"/>
<path class="bond-7 atom-7 atom-8" d="M 101.2,16.0 L 130.5,15.0" style="fill:none;fill-rule:evenodd;stroke:#000000;stroke-width:2.0px;stroke-linecap:butt;stroke-linejoin:miter;stroke-opacity:1"/>
<path class="bond-7 atom-7 atom-8" d="M 103.9,20.3 L 128.1,19.5" style="fill:none;fill-rule:evenodd;stroke:#000000;stroke-width:2.0px;stroke-linecap:butt;stroke-linejoin:miter;stroke-opacity:1"/>
<path class="bond-8 atom-8 atom-9" d="M 130.5,15.0 L 146.0,39.9" style="fill:none;fill-rule:evenodd;stroke:#000000;stroke-width:2.0px;stroke-linecap:butt;stroke-linejoin:miter;stroke-opacity:1"/>
<path class="bond-9 atom-9 atom-10" d="M 146.0,39.9 L 132.3,65.8" style="fill:none;fill-rule:evenodd;stroke:#000000;stroke-width:2.0px;stroke-linecap:butt;stroke-linejoin:miter;stroke-opacity:1"/>
<path class="bond-9 atom-9 atom-10" d="M 141.0,40.1 L 129.6,61.5" style="fill:none;fill-rule:evenodd;stroke:#000000;stroke-width:2.0px;stroke-linecap:butt;stroke-linejoin:miter;stroke-opacity:1"/>
<path class="bond-10 atom-10 atom-11" d="M 132.3,65.8 L 147.8,90.7" style="fill:none;fill-rule:evenodd;stroke:#000000;stroke-width:2.0px;stroke-linecap:butt;stroke-linejoin:miter;stroke-opacity:1"/>
<path class="bond-11 atom-11 atom-12" d="M 147.8,90.7 L 172.3,92.4" style="fill:none;fill-rule:evenodd;stroke:#000000;stroke-width:2.0px;stroke-linecap:butt;stroke-linejoin:miter;stroke-opacity:1"/>
<path class="bond-12 atom-12 atom-13" d="M 178.4,98.1 L 184.2,121.2" style="fill:none;fill-rule:evenodd;stroke:#000000;stroke-width:2.0px;stroke-linecap:butt;stroke-linejoin:miter;stroke-opacity:1"/>
<path class="bond-13 atom-13 atom-14" d="M 184.2,121.2 L 159.3,136.8" style="fill:none;fill-rule:evenodd;stroke:#000000;stroke-width:2.0px;stroke-linecap:butt;stroke-linejoin:miter;stroke-opacity:1"/>
<path class="bond-14 atom-14 atom-15" d="M 159.3,136.8 L 141.6,121.9" style="fill:none;fill-rule:evenodd;stroke:#000000;stroke-width:2.0px;stroke-linecap:butt;stroke-linejoin:miter;stroke-opacity:1"/>
<path class="bond-15 atom-10 atom-5" d="M 132.3,65.8 L 102.9,66.8" style="fill:none;fill-rule:evenodd;stroke:#000000;stroke-width:2.0px;stroke-linecap:butt;stroke-linejoin:miter;stroke-opacity:1"/>
<path class="bond-16 atom-15 atom-11" d="M 138.9,112.7 L 147.8,90.7" style="fill:none;fill-rule:evenodd;stroke:#000000;stroke-width:2.0px;stroke-linecap:butt;stroke-linejoin:miter;stroke-opacity:1"/>
<path d="M 59.3,94.8 L 59.8,93.8 L 61.0,93.7" style="fill:none;stroke:#000000;stroke-width:2.0px;stroke-linecap:butt;stroke-linejoin:miter;stroke-miterlimit:10;stroke-opacity:1;"/>
<path d="M 88.2,43.2 L 87.4,41.9 L 88.1,40.6" style="fill:none;stroke:#000000;stroke-width:2.0px;stroke-linecap:butt;stroke-linejoin:miter;stroke-miterlimit:10;stroke-opacity:1;"/>
<path d="M 100.5,17.3 L 101.2,16.0 L 102.6,16.0" style="fill:none;stroke:#000000;stroke-width:2.0px;stroke-linecap:butt;stroke-linejoin:miter;stroke-miterlimit:10;stroke-opacity:1;"/>
<path d="M 129.0,15.0 L 130.5,15.0 L 131.3,16.2" style="fill:none;stroke:#000000;stroke-width:2.0px;stroke-linecap:butt;stroke-linejoin:miter;stroke-miterlimit:10;stroke-opacity:1;"/>
<path d="M 145.3,38.6 L 146.0,39.9 L 145.4,41.2" style="fill:none;stroke:#000000;stroke-width:2.0px;stroke-linecap:butt;stroke-linejoin:miter;stroke-miterlimit:10;stroke-opacity:1;"/>
<path d="M 183.9,120.1 L 184.2,121.2 L 182.9,122.0" style="fill:none;stroke:#000000;stroke-width:2.0px;stroke-linecap:butt;stroke-linejoin:miter;stroke-miterlimit:10;stroke-opacity:1;"/>
<path d="M 160.5,136.0 L 159.3,136.8 L 158.4,136.0" style="fill:none;stroke:#000000;stroke-width:2.0px;stroke-linecap:butt;stroke-linejoin:miter;stroke-miterlimit:10;stroke-opacity:1;"/>
<path class="atom-1" d="M 44.2 115.5 L 46.9 119.9 Q 47.2 120.4, 47.6 121.1 Q 48.1 121.9, 48.1 122.0 L 48.1 115.5 L 49.2 115.5 L 49.2 123.8 L 48.0 123.8 L 45.1 119.0 Q 44.8 118.4, 44.4 117.8 Q 44.1 117.2, 44.0 117.0 L 44.0 123.8 L 42.9 123.8 L 42.9 115.5 L 44.2 115.5 " fill="#000000"/>
<path class="atom-1" d="M 50.8 115.5 L 51.9 115.5 L 51.9 119.0 L 56.2 119.0 L 56.2 115.5 L 57.3 115.5 L 57.3 123.8 L 56.2 123.8 L 56.2 120.0 L 51.9 120.0 L 51.9 123.8 L 50.8 123.8 L 50.8 115.5 " fill="#000000"/>
<path class="atom-3" d="M 40.4 68.9 Q 40.4 66.9, 41.4 65.8 Q 42.4 64.7, 44.3 64.7 Q 46.1 64.7, 47.1 65.8 Q 48.1 66.9, 48.1 68.9 Q 48.1 70.9, 47.1 72.1 Q 46.1 73.2, 44.3 73.2 Q 42.4 73.2, 41.4 72.1 Q 40.4 70.9, 40.4 68.9 M 44.3 72.3 Q 45.5 72.3, 46.2 71.4 Q 46.9 70.6, 46.9 68.9 Q 46.9 67.3, 46.2 66.4 Q 45.5 65.6, 44.3 65.6 Q 43.0 65.6, 42.3 66.4 Q 41.6 67.2, 41.6 68.9 Q 41.6 70.6, 42.3 71.4 Q 43.0 72.3, 44.3 72.3 " fill="#000000"/>
<path class="atom-4" d="M 85.3 92.8 Q 85.3 90.8, 86.3 89.6 Q 87.3 88.5, 89.1 88.5 Q 91.0 88.5, 92.0 89.6 Q 93.0 90.8, 93.0 92.8 Q 93.0 94.8, 92.0 95.9 Q 91.0 97.1, 89.1 97.1 Q 87.3 97.1, 86.3 95.9 Q 85.3 94.8, 85.3 92.8 M 89.1 96.1 Q 90.4 96.1, 91.1 95.3 Q 91.8 94.4, 91.8 92.8 Q 91.8 91.1, 91.1 90.3 Q 90.4 89.5, 89.1 89.5 Q 87.9 89.5, 87.2 90.3 Q 86.5 91.1, 86.5 92.8 Q 86.5 94.4, 87.2 95.3 Q 87.9 96.1, 89.1 96.1 " fill="#000000"/>
<path class="atom-12" d="M 173.3 92.8 Q 173.3 90.8, 174.3 89.7 Q 175.3 88.5, 177.1 88.5 Q 178.9 88.5, 179.9 89.7 Q 180.9 90.8, 180.9 92.8 Q 180.9 94.8, 179.9 95.9 Q 178.9 97.1, 177.1 97.1 Q 175.3 97.1, 174.3 95.9 Q 173.3 94.8, 173.3 92.8 M 177.1 96.1 Q 178.4 96.1, 179.0 95.3 Q 179.7 94.4, 179.7 92.8 Q 179.7 91.1, 179.0 90.3 Q 178.4 89.5, 177.1 89.5 Q 175.8 89.5, 175.1 90.3 Q 174.5 91.1, 174.5 92.8 Q 174.5 94.5, 175.1 95.3 Q 175.8 96.1, 177.1 96.1 " fill="#000000"/>
<path class="atom-15" d="M 133.0 117.9 Q 133.0 115.9, 134.0 114.8 Q 135.0 113.7, 136.8 113.7 Q 138.7 113.7, 139.6 114.8 Q 140.6 115.9, 140.6 117.9 Q 140.6 120.0, 139.6 121.1 Q 138.6 122.2, 136.8 122.2 Q 135.0 122.2, 134.0 121.1 Q 133.0 120.0, 133.0 117.9 M 136.8 121.3 Q 138.1 121.3, 138.8 120.5 Q 139.5 119.6, 139.5 117.9 Q 139.5 116.3, 138.8 115.5 Q 138.1 114.6, 136.8 114.6 Q 135.5 114.6, 134.9 115.5 Q 134.2 116.3, 134.2 117.9 Q 134.2 119.6, 134.9 120.5 Q 135.5 121.3, 136.8 121.3 " fill="#000000"/>
</svg>