<svg xmlns="http://www.w3.org/2000/svg" xmlns:rdkit="http://www.rdkit.org/xml" xmlns:xlink="http://www.w3.org/1999/xlink" version="1.1" baseProfile="full" xml:space="preserve" width="213px" height="166px" viewBox="0 0 213 166">
<!-- END OF HEADER -->
<rect style="opacity:1.0;fill:#FFFFFF;stroke:none" width="213.0" height="166.0" x="0.0" y="0.0"> </rect>
<ellipse cx="14.6" cy="153.3" rx="4.0" ry="4.0" class="atom-0" style="fill:#7F7FFF;fill-rule:evenodd;stroke:#7F7FFF;stroke-width:1.0px;stroke-linecap:butt;stroke-linejoin:miter;stroke-opacity:1"/>
<ellipse cx="26.8" cy="126.3" rx="4.0" ry="4.0" class="atom-1" style="fill:#7F7FFF;fill-rule:evenodd;stroke:#7F7FFF;stroke-width:1.0px;stroke-linecap:butt;stroke-linejoin:miter;stroke-opacity:1"/>
<ellipse cx="56.2" cy="123.3" rx="4.9" ry="4.9" class="atom-2" style="fill:#FF7F7F;fill-rule:evenodd;stroke:#FF7F7F;stroke-width:1.0px;stroke-linecap:butt;stroke-linejoin:miter;stroke-opacity:1"/>
<ellipse cx="68.3" cy="96.3" rx="13.0" ry="13.0" class="atom-3" style="fill:#7F7FFF;fill-rule:evenodd;stroke:#7F7FFF;stroke-width:1.0px;stroke-linecap:butt;stroke-linejoin:miter;stroke-opacity:1"/>
<ellipse cx="51.0" cy="72.3" rx="13.0" ry="13.0" class="atom-4" style="fill:#7F7FFF;fill-rule:evenodd;stroke:#7F7FFF;stroke-width:1.0px;stroke-linecap:butt;stroke-linejoin:miter;stroke-opacity:1"/>
<ellipse cx="63.1" cy="45.3" rx="13.0" ry="13.0" class="atom-5" style="fill:#7F7FFF;fill-rule:evenodd;stroke:#7F7FFF;stroke-width:1.0px;stroke-linecap:butt;stroke-linejoin:miter;stroke-opacity:1"/>
<ellipse cx="45.8" cy="21.3" rx="13.0" ry="13.0" class="atom-6" style="fill:#7F7FFF;fill-rule:evenodd;stroke:#7F7FFF;stroke-width:1.0px;stroke-linecap:butt;stroke-linejoin:miter;stroke-opacity:1"/>
<ellipse cx="92.5" cy="42.3" rx="13.0" ry="13.0" class="atom-7" style="fill:#7F7FFF;fill-rule:evenodd;stroke:#7F7FFF;stroke-width:1.0px;stroke-linecap:butt;stroke-linejoin:miter;stroke-opacity:1"/>
<ellipse cx="109.9" cy="66.3" rx="13.0" ry="13.0" class="atom-8" style="fill:#7F7FFF;fill-rule:evenodd;stroke:#7F7FFF;stroke-width:1.0px;stroke-linecap:butt;stroke-linejoin:miter;stroke-opacity:1"/>
<ellipse cx="139.3" cy="63.3" rx="3.9" ry="3.9" class="atom-9" style="fill:#FF7F7F;fill-rule:evenodd;stroke:#FF7F7F;stroke-width:1.0px;stroke-linecap:butt;stroke-linejoin:miter;stroke-opacity:1"/>
<ellipse cx="156.6" cy="87.3" rx="10.4" ry="10.4" class="atom-10" style="fill:#7F7FFF;fill-rule:evenodd;stroke:#7F7FFF;stroke-width:1.0px;stroke-linecap:butt;stroke-linejoin:miter;stroke-opacity:1"/>
<ellipse cx="180.6" cy="70.0" rx="10.4" ry="10.4" class="atom-11" style="fill:#7F7FFF;fill-rule:evenodd;stroke:#7F7FFF;stroke-width:1.0px;stroke-linecap:butt;stroke-linejoin:miter;stroke-opacity:1"/>
<ellipse cx="132.6" cy="104.6" rx="10.4" ry="10.4" class="atom-12" style="fill:#7F7FFF;fill-rule:evenodd;stroke:#7F7FFF;stroke-width:1.0px;stroke-linecap:butt;stroke-linejoin:miter;stroke-opacity:1"/>
<ellipse cx="173.9" cy="111.3" rx="10.4" ry="10.4" class="atom-13" style="fill:#7F7FFF;fill-rule:evenodd;stroke:#7F7FFF;stroke-width:1.0px;stroke-linecap:butt;stroke-linejoin:miter;stroke-opacity:1"/>
<ellipse cx="191.2" cy="135.3" rx="10.4" ry="10.4" class="atom-14" style="fill:#7F7FFF;fill-rule:evenodd;stroke:#7F7FFF;stroke-width:1.0px;stroke-linecap:butt;stroke-linejoin:miter;stroke-opacity:1"/>
<ellipse cx="97.7" cy="93.3" rx="13.0" ry="13.0" class="atom-15" style="fill:#7F7FFF;fill-rule:evenodd;stroke:#7F7FFF;stroke-width:1.0px;stroke-linecap:butt;stroke-linejoin:miter;stroke-opacity:1"/>
<path class="bond-0 atom-0 atom-1" d="M 14.6,153.3 L 26.8,126.3" style="fill:none;fill-rule:evenodd;stroke:#000000;stroke-width:2.0px;stroke-linecap:butt;stroke-linejoin:miter;stroke-opacity:1"/>
<path class="bond-1 atom-1 atom-2" d="M 26.8,126.3 L 52.0,123.7" style="fill:none;fill-rule:evenodd;stroke:#000000;stroke-width:2.0px;stroke-linecap:butt;stroke-linejoin:miter;stroke-opacity:1"/>
<path class="bond-2 atom-2 atom-3" d="M 58.5,118.1 L 68.3,96.3" style="fill:none;fill-rule:evenodd;stroke:#000000;stroke-width:2.0px;stroke-linecap:butt;stroke-linejoin:miter;stroke-opacity:1"/>
<path class="bond-3 atom-3 atom-4" d="M 68.3,96.3 L 54.7,77.5" style="fill:none;fill-rule:evenodd;stroke:#000000;stroke-width:2.0px;stroke-linecap:butt;stroke-linejoin:miter;stroke-opacity:1"/>
<path class="bond-3 atom-3 atom-4" d="M 70.4,91.6 L 58.3,74.9" style="fill:none;fill-rule:evenodd;stroke:#000000;stroke-width:2.0px;stroke-linecap:butt;stroke-linejoin:miter;stroke-opacity:1"/>
<path class="bond-4 atom-4 atom-5" d="M 53.3,67.1 L 63.1,45.3" style="fill:none;fill-rule:evenodd;stroke:#000000;stroke-width:2.0px;stroke-linecap:butt;stroke-linejoin:miter;stroke-opacity:1"/>
<path class="bond-5 atom-5 atom-6" d="M 63.1,45.3 L 47.3,23.4" style="fill:none;fill-rule:evenodd;stroke:#000000;stroke-width:2.0px;stroke-linecap:butt;stroke-linejoin:miter;stroke-opacity:1"/>
<path class="bond-6 atom-5 atom-7" d="M 63.1,45.3 L 88.4,42.7" style="fill:none;fill-rule:evenodd;stroke:#000000;stroke-width:2.0px;stroke-linecap:butt;stroke-linejoin:miter;stroke-opacity:1"/>
<path class="bond-6 atom-5 atom-7" d="M 66.1,49.5 L 88.8,47.2" style="fill:none;fill-rule:evenodd;stroke:#000000;stroke-width:2.0px;stroke-linecap:butt;stroke-linejoin:miter;stroke-opacity:1"/>
<path class="bond-7 atom-7 atom-8" d="M 96.3,47.5 L 109.9,66.3" style="fill:none;fill-rule:evenodd;stroke:#000000;stroke-width:2.0px;stroke-linecap:butt;stroke-linejoin:miter;stroke-opacity:1"/>
<path class="bond-8 atom-8 atom-9" d="M 109.9,66.3 L 135.1,63.7" style="fill:none;fill-rule:evenodd;stroke:#000000;stroke-width:2.0px;stroke-linecap:butt;stroke-linejoin:miter;stroke-opacity:1"/>
<path class="bond-9 atom-9 atom-10" d="M 143.0,68.5 L 156.6,87.3" style="fill:none;fill-rule:evenodd;stroke:#000000;stroke-width:2.0px;stroke-linecap:butt;stroke-linejoin:miter;stroke-opacity:1"/>
<path class="bond-10 atom-10 atom-11" d="M 156.6,87.3 L 180.6,70.0" style="fill:none;fill-rule:evenodd;stroke:#000000;stroke-width:2.0px;stroke-linecap:butt;stroke-linejoin:miter;stroke-opacity:1"/>
<path class="bond-11 atom-10 atom-12" d="M 156.6,87.3 L 132.6,104.6" style="fill:none;fill-rule:evenodd;stroke:#000000;stroke-width:2.0px;stroke-linecap:butt;stroke-linejoin:miter;stroke-opacity:1"/>
<path class="bond-12 atom-10 atom-13" d="M 156.6,87.3 L 173.9,111.3" style="fill:none;fill-rule:evenodd;stroke:#000000;stroke-width:2.0px;stroke-linecap:butt;stroke-linejoin:miter;stroke-opacity:1"/>
<path class="bond-13 atom-13 atom-14" d="M 173.9,111.3 L 187.5,130.1" style="fill:none;fill-rule:evenodd;stroke:#000000;stroke-width:2.0px;stroke-linecap:butt;stroke-linejoin:miter;stroke-opacity:1"/>
<path class="bond-13 atom-13 atom-14" d="M 177.5,108.7 L 191.1,127.5" style="fill:none;fill-rule:evenodd;stroke:#000000;stroke-width:2.0px;stroke-linecap:butt;stroke-linejoin:miter;stroke-opacity:1"/>
<path class="bond-13 atom-13 atom-14" d="M 170.3,113.9 L 183.9,132.7" style="fill:none;fill-rule:evenodd;stroke:#000000;stroke-width:2.0px;stroke-linecap:butt;stroke-linejoin:miter;stroke-opacity:1"/>
<path class="bond-14 atom-8 atom-15" d="M 109.9,66.3 L 100.1,88.1" style="fill:none;fill-rule:evenodd;stroke:#000000;stroke-width:2.0px;stroke-linecap:butt;stroke-linejoin:miter;stroke-opacity:1"/>
<path class="bond-14 atom-8 atom-15" d="M 104.8,66.8 L 96.0,86.3" style="fill:none;fill-rule:evenodd;stroke:#000000;stroke-width:2.0px;stroke-linecap:butt;stroke-linejoin:miter;stroke-opacity:1"/>
<path class="bond-15 atom-15 atom-3" d="M 93.6,93.7 L 68.3,96.3" style="fill:none;fill-rule:evenodd;stroke:#000000;stroke-width:2.0px;stroke-linecap:butt;stroke-linejoin:miter;stroke-opacity:1"/>
<path d="M 26.2,127.6 L 26.8,126.3 L 28.0,126.2" style="fill:none;stroke:#000000;stroke-width:2.0px;stroke-linecap:butt;stroke-linejoin:miter;stroke-miterlimit:10;stroke-opacity:1;"/>
<path d="M 173.1,110.1 L 173.9,111.3 L 174.6,112.2" style="fill:none;stroke:#000000;stroke-width:2.0px;stroke-linecap:butt;stroke-linejoin:miter;stroke-miterlimit:10;stroke-opacity:1;"/>
<path class="atom-2" d="M 54.3 119.1 L 57.1 123.5 Q 57.4 124.0, 57.8 124.8 Q 58.2 125.6, 58.3 125.6 L 58.3 119.1 L 59.4 119.1 L 59.4 127.5 L 58.2 127.5 L 55.3 122.6 Q 54.9 122.1, 54.6 121.4 Q 54.2 120.8, 54.1 120.6 L 54.1 127.5 L 53.0 127.5 L 53.0 119.1 L 54.3 119.1 " fill="#000000"/>
<path class="atom-2" d="M 61.0 119.1 L 62.1 119.1 L 62.1 122.7 L 66.4 122.7 L 66.4 119.1 L 67.6 119.1 L 67.6 127.5 L 66.4 127.5 L 66.4 123.6 L 62.1 123.6 L 62.1 127.5 L 61.0 127.5 L 61.0 119.1 " fill="#000000"/>
<path class="atom-4" d="M 49.1 68.1 L 51.9 72.6 Q 52.2 73.0, 52.6 73.8 Q 53.0 74.6, 53.1 74.6 L 53.1 68.1 L 54.2 68.1 L 54.2 76.5 L 53.0 76.5 L 50.1 71.6 Q 49.7 71.1, 49.4 70.4 Q 49.0 69.8, 48.9 69.6 L 48.9 76.5 L 47.8 76.5 L 47.8 68.1 L 49.1 68.1 " fill="#000000"/>
<path class="atom-6" d="M 37.9 21.6 Q 37.9 19.5, 38.9 18.5 Q 39.9 17.4, 41.8 17.4 Q 43.5 17.4, 44.4 18.6 L 43.6 19.2 Q 42.9 18.3, 41.8 18.3 Q 40.5 18.3, 39.8 19.2 Q 39.1 20.0, 39.1 21.6 Q 39.1 23.3, 39.8 24.1 Q 40.5 25.0, 41.9 25.0 Q 42.8 25.0, 43.9 24.4 L 44.2 25.3 Q 43.8 25.6, 43.1 25.8 Q 42.4 25.9, 41.7 25.9 Q 39.9 25.9, 38.9 24.8 Q 37.9 23.7, 37.9 21.6 " fill="#000000"/>
<path class="atom-6" d="M 45.3 16.8 L 46.3 16.8 L 46.3 25.8 L 45.3 25.8 L 45.3 16.8 " fill="#000000"/>
<path class="atom-7" d="M 90.7 38.1 L 93.4 42.6 Q 93.7 43.0, 94.1 43.8 Q 94.6 44.6, 94.6 44.6 L 94.6 38.1 L 95.7 38.1 L 95.7 46.5 L 94.6 46.5 L 91.6 41.7 Q 91.3 41.1, 90.9 40.4 Q 90.6 39.8, 90.5 39.6 L 90.5 46.5 L 89.4 46.5 L 89.4 38.1 L 90.7 38.1 " fill="#000000"/>
<path class="atom-9" d="M 137.4 59.1 L 140.2 63.6 Q 140.5 64.0, 140.9 64.8 Q 141.3 65.6, 141.4 65.6 L 141.4 59.1 L 142.5 59.1 L 142.5 67.5 L 141.3 67.5 L 138.4 62.6 Q 138.0 62.1, 137.7 61.4 Q 137.3 60.8, 137.2 60.6 L 137.2 67.5 L 136.1 67.5 L 136.1 59.1 L 137.4 59.1 " fill="#000000"/>
<path class="atom-9" d="M 144.1 59.1 L 145.2 59.1 L 145.2 62.7 L 149.5 62.7 L 149.5 59.1 L 150.7 59.1 L 150.7 67.5 L 149.5 67.5 L 149.5 63.6 L 145.2 63.6 L 145.2 67.5 L 144.1 67.5 L 144.1 59.1 " fill="#000000"/>
<path class="atom-14" d="M 189.4 131.1 L 192.1 135.5 Q 192.4 136.0, 192.8 136.8 Q 193.3 137.5, 193.3 137.6 L 193.3 131.1 L 194.4 131.1 L 194.4 139.5 L 193.3 139.5 L 190.3 134.6 Q 190.0 134.0, 189.6 133.4 Q 189.3 132.7, 189.1 132.5 L 189.1 139.5 L 188.1 139.5 L 188.1 131.1 L 189.4 131.1 " fill="#000000"/>
<path class="atom-15" d="M 95.9 89.1 L 98.6 93.5 Q 98.9 94.0, 99.3 94.8 Q 99.8 95.6, 99.8 95.6 L 99.8 89.1 L 100.9 89.1 L 100.9 97.5 L 99.8 97.5 L 96.8 92.6 Q 96.5 92.1, 96.1 91.4 Q 95.8 90.8, 95.7 90.6 L 95.7 97.5 L 94.6 97.5 L 94.6 89.1 L 95.9 89.1 " fill="#000000"/>
</svg>