<svg xmlns="http://www.w3.org/2000/svg" xmlns:rdkit="http://www.rdkit.org/xml" xmlns:xlink="http://www.w3.org/1999/xlink" version="1.1" baseProfile="full" xml:space="preserve" width="243px" height="112px" viewBox="0 0 243 112">
<!-- END OF HEADER -->
<rect style="opacity:1.0;fill:#FFFFFF;stroke:none" width="243.0" height="112.0" x="0.0" y="0.0"> </rect>
<path class="bond-0 atom-0 atom-1" d="M 145.5,96.2 L 171.0,81.4 L 175.1,88.6 L 149.6,103.3 Z" style="fill:#E2E2FF;fill-rule:evenodd;fill-opacity:1;stroke:#E2E2FF;stroke-width:2.0px;stroke-linecap:butt;stroke-linejoin:miter;stroke-miterlimit:10;stroke-opacity:1;"/>
<path class="bond-1 atom-1 atom-2" d="M 175.1,81.4 L 200.6,96.2 L 196.5,103.3 L 171.0,88.6 Z" style="fill:#E2E2FF;fill-rule:evenodd;fill-opacity:1;stroke:#E2E2FF;stroke-width:2.0px;stroke-linecap:butt;stroke-linejoin:miter;stroke-miterlimit:10;stroke-opacity:1;"/>
<path class="bond-4 atom-4 atom-5" d="M 143.5,40.9 L 143.5,11.5 L 151.7,11.5 L 151.7,40.9 Z" style="fill:#FEFEFF;fill-rule:evenodd;fill-opacity:1;stroke:#FEFEFF;stroke-width:2.0px;stroke-linecap:butt;stroke-linejoin:miter;stroke-miterlimit:10;stroke-opacity:1;"/>
<path class="bond-5 atom-4 atom-6" d="M 149.6,44.5 L 124.2,59.2 L 120.1,52.0 L 145.5,37.3 Z" style="fill:#FEFEFF;fill-rule:evenodd;fill-opacity:1;stroke:#FEFEFF;stroke-width:2.0px;stroke-linecap:butt;stroke-linejoin:miter;stroke-miterlimit:10;stroke-opacity:1;"/>
<path class="bond-7 atom-7 atom-8" d="M 98.7,44.5 L 73.2,59.2 L 69.1,52.0 L 94.6,37.3 Z" style="fill:#FFC2C2;fill-rule:evenodd;fill-opacity:1;stroke:#FFC2C2;stroke-width:2.0px;stroke-linecap:butt;stroke-linejoin:miter;stroke-miterlimit:10;stroke-opacity:1;"/>
<path class="bond-8 atom-8 atom-9" d="M 75.3,55.6 L 75.3,85.0 L 67.1,85.0 L 67.1,55.6 Z" style="fill:#FFC2C2;fill-rule:evenodd;fill-opacity:1;stroke:#FFC2C2;stroke-width:2.0px;stroke-linecap:butt;stroke-linejoin:miter;stroke-miterlimit:10;stroke-opacity:1;"/>
<path class="bond-9 atom-8 atom-10" d="M 69.1,59.2 L 43.6,44.5 L 47.8,37.3 L 73.2,52.0 Z" style="fill:#FFC2C2;fill-rule:evenodd;fill-opacity:1;stroke:#FFC2C2;stroke-width:2.0px;stroke-linecap:butt;stroke-linejoin:miter;stroke-miterlimit:10;stroke-opacity:1;"/>
<path class="bond-10 atom-10 atom-11" d="M 47.8,44.5 L 22.3,59.2 L 18.2,52.0 L 43.6,37.3 Z" style="fill:#FFC2C2;fill-rule:evenodd;fill-opacity:1;stroke:#FFC2C2;stroke-width:2.0px;stroke-linecap:butt;stroke-linejoin:miter;stroke-miterlimit:10;stroke-opacity:1;"/>
<path class="bond-12 atom-12 atom-13" d="M 194.4,40.9 L 194.4,11.5 L 202.6,11.5 L 202.6,40.9 Z" style="fill:#E2E2FF;fill-rule:evenodd;fill-opacity:1;stroke:#E2E2FF;stroke-width:2.0px;stroke-linecap:butt;stroke-linejoin:miter;stroke-miterlimit:10;stroke-opacity:1;"/>
<path class="bond-13 atom-12 atom-14" d="M 200.6,37.3 L 226.1,52.0 L 221.9,59.2 L 196.5,44.5 Z" style="fill:#E2E2FF;fill-rule:evenodd;fill-opacity:1;stroke:#E2E2FF;stroke-width:2.0px;stroke-linecap:butt;stroke-linejoin:miter;stroke-miterlimit:10;stroke-opacity:1;"/>
<ellipse cx="147.6" cy="99.7" rx="5.9" ry="5.9" class="atom-0" style="fill:#E2E2FF;fill-rule:evenodd;stroke:#E2E2FF;stroke-width:1.0px;stroke-linecap:butt;stroke-linejoin:miter;stroke-opacity:1"/>
<ellipse cx="173.1" cy="85.0" rx="5.9" ry="5.9" class="atom-1" style="fill:#E2E2FF;fill-rule:evenodd;stroke:#E2E2FF;stroke-width:1.0px;stroke-linecap:butt;stroke-linejoin:miter;stroke-opacity:1"/>
<ellipse cx="198.5" cy="99.7" rx="5.9" ry="5.9" class="atom-2" style="fill:#E2E2FF;fill-rule:evenodd;stroke:#E2E2FF;stroke-width:1.0px;stroke-linecap:butt;stroke-linejoin:miter;stroke-opacity:1"/>
<ellipse cx="173.1" cy="55.6" rx="5.9" ry="5.9" class="atom-3" style="fill:#8A8AFF;fill-rule:evenodd;stroke:#8A8AFF;stroke-width:1.0px;stroke-linecap:butt;stroke-linejoin:miter;stroke-opacity:1"/>
<ellipse cx="147.6" cy="40.9" rx="5.9" ry="5.9" class="atom-4" style="fill:#FEFEFF;fill-rule:evenodd;stroke:#FEFEFF;stroke-width:1.0px;stroke-linecap:butt;stroke-linejoin:miter;stroke-opacity:1"/>
<ellipse cx="147.6" cy="11.5" rx="5.9" ry="5.9" class="atom-5" style="fill:#FEFEFF;fill-rule:evenodd;stroke:#FEFEFF;stroke-width:1.0px;stroke-linecap:butt;stroke-linejoin:miter;stroke-opacity:1"/>
<ellipse cx="122.1" cy="55.6" rx="5.9" ry="5.9" class="atom-6" style="fill:#FEFEFF;fill-rule:evenodd;stroke:#FEFEFF;stroke-width:1.0px;stroke-linecap:butt;stroke-linejoin:miter;stroke-opacity:1"/>
<ellipse cx="96.6" cy="40.9" rx="5.9" ry="5.9" class="atom-7" style="fill:#FFC2C2;fill-rule:evenodd;stroke:#FFC2C2;stroke-width:1.0px;stroke-linecap:butt;stroke-linejoin:miter;stroke-opacity:1"/>
<ellipse cx="71.2" cy="55.6" rx="5.9" ry="5.9" class="atom-8" style="fill:#FFC2C2;fill-rule:evenodd;stroke:#FFC2C2;stroke-width:1.0px;stroke-linecap:butt;stroke-linejoin:miter;stroke-opacity:1"/>
<ellipse cx="71.2" cy="85.0" rx="5.9" ry="5.9" class="atom-9" style="fill:#FFC2C2;fill-rule:evenodd;stroke:#FFC2C2;stroke-width:1.0px;stroke-linecap:butt;stroke-linejoin:miter;stroke-opacity:1"/>
<ellipse cx="45.7" cy="40.9" rx="5.9" ry="5.9" class="atom-10" style="fill:#FFC2C2;fill-rule:evenodd;stroke:#FFC2C2;stroke-width:1.0px;stroke-linecap:butt;stroke-linejoin:miter;stroke-opacity:1"/>
<ellipse cx="20.2" cy="55.6" rx="5.9" ry="5.9" class="atom-11" style="fill:#FFC2C2;fill-rule:evenodd;stroke:#FFC2C2;stroke-width:1.0px;stroke-linecap:butt;stroke-linejoin:miter;stroke-opacity:1"/>
<ellipse cx="198.5" cy="40.9" rx="5.9" ry="5.9" class="atom-12" style="fill:#E2E2FF;fill-rule:evenodd;stroke:#E2E2FF;stroke-width:1.0px;stroke-linecap:butt;stroke-linejoin:miter;stroke-opacity:1"/>
<ellipse cx="198.5" cy="11.5" rx="5.9" ry="5.9" class="atom-13" style="fill:#E2E2FF;fill-rule:evenodd;stroke:#E2E2FF;stroke-width:1.0px;stroke-linecap:butt;stroke-linejoin:miter;stroke-opacity:1"/>
<ellipse cx="224.0" cy="55.6" rx="5.9" ry="5.9" class="atom-14" style="fill:#E2E2FF;fill-rule:evenodd;stroke:#E2E2FF;stroke-width:1.0px;stroke-linecap:butt;stroke-linejoin:miter;stroke-opacity:1"/>
<path class="bond-0 atom-0 atom-1" d="M 147.6,99.7 L 173.1,85.0" style="fill:none;fill-rule:evenodd;stroke:#000000;stroke-width:2.0px;stroke-linecap:butt;stroke-linejoin:miter;stroke-opacity:1"/>
<path class="bond-1 atom-1 atom-2" d="M 173.1,85.0 L 198.5,99.7" style="fill:none;fill-rule:evenodd;stroke:#000000;stroke-width:2.0px;stroke-linecap:butt;stroke-linejoin:miter;stroke-opacity:1"/>
<path class="bond-2 atom-1 atom-3" d="M 173.1,85.0 L 173.1,60.7" style="fill:none;fill-rule:evenodd;stroke:#000000;stroke-width:2.0px;stroke-linecap:butt;stroke-linejoin:miter;stroke-opacity:1"/>
<path class="bond-3 atom-3 atom-4" d="M 168.9,53.2 L 147.6,40.9" style="fill:none;fill-rule:evenodd;stroke:#000000;stroke-width:2.0px;stroke-linecap:butt;stroke-linejoin:miter;stroke-opacity:1"/>
<path class="bond-4 atom-4 atom-5" d="M 149.8,42.2 L 149.8,16.8" style="fill:none;fill-rule:evenodd;stroke:#000000;stroke-width:2.0px;stroke-linecap:butt;stroke-linejoin:miter;stroke-opacity:1"/>
<path class="bond-4 atom-4 atom-5" d="M 145.4,42.2 L 145.4,16.8" style="fill:none;fill-rule:evenodd;stroke:#000000;stroke-width:2.0px;stroke-linecap:butt;stroke-linejoin:miter;stroke-opacity:1"/>
<path class="bond-5 atom-4 atom-6" d="M 147.6,40.9 L 125.8,53.5" style="fill:none;fill-rule:evenodd;stroke:#000000;stroke-width:2.0px;stroke-linecap:butt;stroke-linejoin:miter;stroke-opacity:1"/>
<path class="bond-6 atom-6 atom-7" d="M 118.5,53.5 L 96.6,40.9" style="fill:none;fill-rule:evenodd;stroke:#000000;stroke-width:2.0px;stroke-linecap:butt;stroke-linejoin:miter;stroke-opacity:1"/>
<path class="bond-7 atom-7 atom-8" d="M 96.6,40.9 L 71.2,55.6" style="fill:none;fill-rule:evenodd;stroke:#000000;stroke-width:2.0px;stroke-linecap:butt;stroke-linejoin:miter;stroke-opacity:1"/>
<path class="bond-8 atom-8 atom-9" d="M 71.2,55.6 L 71.2,80.1" style="fill:none;fill-rule:evenodd;stroke:#000000;stroke-width:2.0px;stroke-linecap:butt;stroke-linejoin:miter;stroke-opacity:1"/>
<path class="bond-9 atom-8 atom-10" d="M 71.2,55.6 L 45.7,40.9" style="fill:none;fill-rule:evenodd;stroke:#000000;stroke-width:2.0px;stroke-linecap:butt;stroke-linejoin:miter;stroke-opacity:1"/>
<path class="bond-9 atom-8 atom-10" d="M 66.8,58.1 L 45.7,46.0" style="fill:none;fill-rule:evenodd;stroke:#000000;stroke-width:2.0px;stroke-linecap:butt;stroke-linejoin:miter;stroke-opacity:1"/>
<path class="bond-10 atom-10 atom-11" d="M 45.7,40.9 L 21.7,54.7" style="fill:none;fill-rule:evenodd;stroke:#000000;stroke-width:2.0px;stroke-linecap:butt;stroke-linejoin:miter;stroke-opacity:1"/>
<path class="bond-11 atom-3 atom-12" d="M 177.2,53.2 L 198.5,40.9" style="fill:none;fill-rule:evenodd;stroke:#000000;stroke-width:2.0px;stroke-linecap:butt;stroke-linejoin:miter;stroke-opacity:1"/>
<path class="bond-12 atom-12 atom-13" d="M 198.5,40.9 L 198.5,11.5" style="fill:none;fill-rule:evenodd;stroke:#000000;stroke-width:2.0px;stroke-linecap:butt;stroke-linejoin:miter;stroke-opacity:1"/>
<path class="bond-13 atom-12 atom-14" d="M 198.5,40.9 L 224.0,55.6" style="fill:none;fill-rule:evenodd;stroke:#000000;stroke-width:2.0px;stroke-linecap:butt;stroke-linejoin:miter;stroke-opacity:1"/>
<path d="M 148.7,41.5 L 147.6,40.9 L 146.5,41.5" style="fill:none;stroke:#000000;stroke-width:2.0px;stroke-linecap:butt;stroke-linejoin:miter;stroke-miterlimit:10;stroke-opacity:1;"/>
<path d="M 97.7,41.5 L 96.6,40.9 L 95.4,41.6" style="fill:none;stroke:#000000;stroke-width:2.0px;stroke-linecap:butt;stroke-linejoin:miter;stroke-miterlimit:10;stroke-opacity:1;"/>
<path d="M 47.0,41.6 L 45.7,40.9 L 44.5,41.6" style="fill:none;stroke:#000000;stroke-width:2.0px;stroke-linecap:butt;stroke-linejoin:miter;stroke-miterlimit:10;stroke-opacity:1;"/>
<path class="atom-3" d="M 171.2 51.4 L 173.9 55.8 Q 174.2 56.3, 174.7 57.1 Q 175.1 57.9, 175.1 57.9 L 175.1 51.4 L 176.2 51.4 L 176.2 59.8 L 175.1 59.8 L 172.1 54.9 Q 171.8 54.4, 171.4 53.7 Q 171.1 53.1, 171.0 52.9 L 171.0 59.8 L 169.9 59.8 L 169.9 51.4 L 171.2 51.4 " fill="#000000"/>
<path class="atom-5" d="M 143.8 11.5 Q 143.8 9.5, 144.8 8.4 Q 145.7 7.3, 147.6 7.3 Q 149.4 7.3, 150.4 8.4 Q 151.4 9.5, 151.4 11.5 Q 151.4 13.5, 150.4 14.7 Q 149.4 15.8, 147.6 15.8 Q 145.8 15.8, 144.8 14.7 Q 143.8 13.5, 143.8 11.5 M 147.6 14.9 Q 148.9 14.9, 149.5 14.0 Q 150.2 13.2, 150.2 11.5 Q 150.2 9.9, 149.5 9.0 Q 148.9 8.2, 147.6 8.2 Q 146.3 8.2, 145.6 9.0 Q 144.9 9.9, 144.9 11.5 Q 144.9 13.2, 145.6 14.0 Q 146.3 14.9, 147.6 14.9 " fill="#000000"/>
<path class="atom-6" d="M 119.8 58.5 Q 119.9 58.5, 120.2 58.7 Q 120.6 58.8, 121.1 58.9 Q 121.5 59.0, 121.9 59.0 Q 122.7 59.0, 123.2 58.6 Q 123.6 58.3, 123.6 57.6 Q 123.6 57.1, 123.4 56.8 Q 123.2 56.6, 122.8 56.4 Q 122.5 56.3, 121.9 56.1 Q 121.1 55.9, 120.7 55.6 Q 120.2 55.4, 119.9 55.0 Q 119.6 54.5, 119.6 53.8 Q 119.6 52.7, 120.3 52.1 Q 121.0 51.4, 122.5 51.4 Q 123.4 51.4, 124.5 51.9 L 124.2 52.8 Q 123.2 52.4, 122.5 52.4 Q 121.7 52.4, 121.2 52.7 Q 120.8 53.1, 120.8 53.6 Q 120.8 54.1, 121.0 54.4 Q 121.3 54.6, 121.6 54.8 Q 121.9 54.9, 122.5 55.1 Q 123.2 55.4, 123.7 55.6 Q 124.1 55.8, 124.5 56.3 Q 124.8 56.8, 124.8 57.6 Q 124.8 58.7, 124.0 59.4 Q 123.2 60.0, 122.0 60.0 Q 121.2 60.0, 120.7 59.8 Q 120.1 59.7, 119.4 59.4 L 119.8 58.5 " fill="#000000"/>
<path class="atom-9" d="M 68.0 85.3 Q 68.0 83.2, 68.9 82.1 Q 69.9 81.1, 71.7 81.1 Q 73.5 81.1, 74.4 82.3 L 73.6 82.9 Q 72.9 82.0, 71.7 82.0 Q 70.5 82.0, 69.8 82.9 Q 69.2 83.7, 69.2 85.3 Q 69.2 86.9, 69.8 87.8 Q 70.5 88.6, 71.9 88.6 Q 72.8 88.6, 73.9 88.1 L 74.2 89.0 Q 73.8 89.3, 73.1 89.4 Q 72.4 89.6, 71.7 89.6 Q 69.9 89.6, 68.9 88.5 Q 68.0 87.4, 68.0 85.3 " fill="#000000"/>
<path class="atom-9" d="M 75.2 80.5 L 76.3 80.5 L 76.3 89.5 L 75.2 89.5 L 75.2 80.5 " fill="#000000"/>
<path class="atom-11" d="M 12.4 55.9 Q 12.4 53.8, 13.4 52.7 Q 14.4 51.6, 16.2 51.6 Q 17.9 51.6, 18.8 52.9 L 18.1 53.5 Q 17.4 52.6, 16.2 52.6 Q 14.9 52.6, 14.3 53.5 Q 13.6 54.3, 13.6 55.9 Q 13.6 57.5, 14.3 58.4 Q 15.0 59.2, 16.3 59.2 Q 17.3 59.2, 18.3 58.7 L 18.7 59.6 Q 18.2 59.8, 17.6 60.0 Q 16.9 60.2, 16.2 60.2 Q 14.4 60.2, 13.4 59.1 Q 12.4 58.0, 12.4 55.9 " fill="#000000"/>
<path class="atom-11" d="M 19.7 51.1 L 20.8 51.1 L 20.8 60.1 L 19.7 60.1 L 19.7 51.1 " fill="#000000"/>
</svg>